<svg width="393" height="44" viewBox="0 0 393 44" fill="none" xmlns="http://www.w3.org/2000/svg">
<text fill="#1A1A1A" style="white-space: pre" xml:space="preserve" font-family="PingFang SC" font-size="17" letter-spacing="-0.408px"><tspan x="40.633" y="29.12">9:41</tspan></text>
<path opacity="0.35" d="M355 15.8334H371.666C372.863 15.8334 373.833 16.8037 373.833 18.0004V24.0004C373.833 25.1968 372.863 26.1664 371.666 26.1664H355C353.803 26.1664 352.833 25.1968 352.833 24.0004V18.0004L352.844 17.7787C352.955 16.686 353.878 15.8334 355 15.8334Z" stroke="#1A1A1A"/>
<path opacity="0.4" d="M375.333 19V23C376.138 22.6612 376.661 21.8731 376.661 21C376.661 20.1269 376.138 19.3388 375.333 19Z" fill="#1A1A1A"/>
<path d="M354.333 18.4334C354.333 17.8259 354.825 17.3334 355.433 17.3334H371.233C371.841 17.3334 372.333 17.8259 372.333 18.4334V23.5667C372.333 24.1742 371.841 24.6667 371.233 24.6667H355.433C354.825 24.6667 354.333 24.1742 354.333 23.5667V18.4334Z" fill="#1A1A1A"/>
<path fill-rule="evenodd" clip-rule="evenodd" d="M339.664 17.608C341.88 17.6081 344.011 18.4596 345.617 19.9863C345.738 20.1042 345.931 20.1027 346.05 19.983L347.206 18.8163C347.267 18.7556 347.3 18.6734 347.3 18.5878C347.299 18.5022 347.265 18.4204 347.204 18.3603C342.989 14.3208 336.339 14.3208 332.124 18.3603C332.063 18.4203 332.028 18.5021 332.027 18.5877C332.027 18.6733 332.06 18.7556 332.121 18.8163L333.277 19.983C333.396 20.1029 333.589 20.1044 333.71 19.9863C335.316 18.4595 337.448 17.608 339.664 17.608ZM339.664 21.4037C340.881 21.4036 342.055 21.8561 342.958 22.6733C343.08 22.7893 343.272 22.7868 343.391 22.6677L344.546 21.501C344.607 21.4398 344.64 21.3568 344.64 21.2705C344.639 21.1843 344.603 21.102 344.541 21.042C341.793 18.4856 337.537 18.4856 334.789 21.042C334.727 21.102 334.691 21.1843 334.691 21.2706C334.69 21.3569 334.724 21.4399 334.785 21.501L335.939 22.6677C336.058 22.7868 336.25 22.7893 336.372 22.6733C337.274 21.8567 338.447 21.4042 339.664 21.4037ZM341.977 23.9575C341.979 24.044 341.945 24.1274 341.883 24.188L339.886 26.2037C339.827 26.2629 339.747 26.2963 339.664 26.2963C339.581 26.2963 339.501 26.2629 339.442 26.2037L337.445 24.188C337.383 24.1274 337.349 24.0439 337.351 23.9574C337.353 23.8709 337.39 23.789 337.454 23.731C338.73 22.6521 340.598 22.6521 341.874 23.731C341.938 23.7891 341.975 23.871 341.977 23.9575Z" fill="#1A1A1A"/>
<path fill-rule="evenodd" clip-rule="evenodd" d="M326 15.6666H325C324.448 15.6666 324 16.1143 324 16.6666V25.3333C324 25.8856 324.448 26.3333 325 26.3333H326C326.552 26.3333 327 25.8856 327 25.3333V16.6666C327 16.1143 326.552 15.6666 326 15.6666ZM320.333 18H321.333C321.886 18 322.333 18.4477 322.333 19V25.3333C322.333 25.8856 321.886 26.3333 321.333 26.3333H320.333C319.781 26.3333 319.333 25.8856 319.333 25.3333V19C319.333 18.4477 319.781 18 320.333 18ZM316.667 20.3333H315.667C315.114 20.3333 314.667 20.781 314.667 21.3333V25.3333C314.667 25.8856 315.114 26.3333 315.667 26.3333H316.667C317.219 26.3333 317.667 25.8856 317.667 25.3333V21.3333C317.667 20.781 317.219 20.3333 316.667 20.3333ZM312 22.3333H311C310.448 22.3333 310 22.781 310 23.3333V25.3333C310 25.8856 310.448 26.3333 311 26.3333H312C312.552 26.3333 313 25.8856 313 25.3333V23.3333C313 22.781 312.552 22.3333 312 22.3333Z" fill="#1A1A1A"/>
</svg>
