<svg width="27" height="23" viewBox="0 0 27 23" fill="none" xmlns="http://www.w3.org/2000/svg">
<path d="M9.80068 11.7763C12.3325 13.7593 12.8757 17.3731 11.0384 20.0117C9.20101 22.6504 5.62266 23.395 2.88491 21.7088C0.146037 20.0221 -0.79889 16.4923 0.731399 13.6641C2.26169 10.8359 5.73454 9.69503 8.64388 11.0648C9.05475 11.2582 9.44259 11.4961 9.80068 11.7763Z" fill="#FD41AE"/>
<path d="M20.2354 11.1694C22.9499 10.4395 25.7681 11.9268 26.6973 14.5804C27.6268 17.2328 26.3522 20.1536 23.7744 21.2749C21.1973 22.3978 18.19 21.3423 16.8796 18.8547C15.5692 16.367 16.3995 13.2914 18.7839 11.801C19.2332 11.52 19.7223 11.3074 20.2354 11.1694Z" fill="#FD41AE"/>
<path d="M19.8888 13.6178C21.4676 14.1865 20.2526 15.9785 19.0346 16.4423C17.4295 15.6723 18.614 14.0892 19.8888 13.6178Z" fill="#FEFEFE"/>
<path d="M8.64408 11.0648C9.77833 7.95527 12.6994 4.44239 15.0798 2.22282C15.712 1.63264 20.3813 -1.08993 20.8764 0.482745C20.8021 0.827004 20.3939 1.51187 20.1529 1.63784C18.6556 2.42275 17.6859 2.74558 16.269 3.72091C18.0517 5.70012 19.4796 8.63111 20.2359 11.1694C19.7228 11.3075 19.2338 11.52 18.7844 11.8011C17.471 8.57344 16.8778 7.54494 15.1262 4.47961C12.2808 7.18153 11.7258 8.36637 9.80088 11.7763C9.44279 11.4961 9.05495 11.2582 8.64408 11.0648Z" fill="#02743B"/>
</svg>
