<svg width="71" height="88" viewBox="0 0 71 88" fill="none" xmlns="http://www.w3.org/2000/svg">
<path d="M37.8695 9.70827C40.1248 5.9679 45.1059 1.21195 49.4347 0.150846C49.6609 0.0958862 49.8881 0.0455377 50.1164 0C50.785 0.291481 51.3062 0.51554 51.9146 0.939807C52.251 2.35864 52.9812 4.06022 53.3996 5.67465C54.5142 9.97532 54.9174 13.5499 55.1713 17.9174C56.5647 19.1609 59.6205 22.7041 59.8723 24.4574L59.8023 24.4556L59.8528 24.446L59.8034 24.6906L59.6953 24.6133L59.7477 24.698L59.7151 24.7462L60.0242 24.7632C60.513 25.6762 60.9295 26.413 61.0555 27.4659C61.2532 28.1021 61.3808 28.4747 61.3979 29.1428L61.4739 29.161C62.244 29.3409 65.158 29.6625 65.5397 30.1488L65.4705 30.3101C64.8759 30.5149 64.5024 30.1258 63.9371 30.0016C63.1897 29.8373 62.279 29.6795 61.5149 29.6586C62.3672 34.2238 61.3187 39.2151 58.087 42.6698C58.5101 42.9467 58.9644 43.2572 59.3982 43.5088C64.8493 46.8025 66.9616 56.0138 65.0651 61.8004C64.3757 63.6272 63.4907 65.3465 62.8699 67.2102C62.7629 67.5311 62.3915 68.3888 62.3292 68.6744C63.3273 69.0042 63.8409 71.2477 63.9958 72.1938C65.4633 70.6324 67.6251 70.0641 69.5268 71.1839C69.9101 71.5402 70.0351 71.6491 70.4763 71.9259L70.6085 71.9043C71.1983 75.3844 70.1292 78.4013 68.2404 81.2631C69.1703 82.4153 68.1315 83.009 67.1647 83.5145C64.5205 84.8973 61.3931 85.4724 58.49 86.0544C56.6966 86.4145 54.8887 86.9003 53.085 87.0996C47.2948 87.7404 41.4574 88.0231 35.633 87.9985C26.8191 87.9936 18.149 87.5127 9.5286 85.5371C7.48745 85.0356 5.4252 84.6519 3.47742 83.8256C2.39426 83.329 0.232082 82.7352 1.02359 81.1011C1.41585 80.2915 2.27382 79.8803 3.07052 79.6035C1.19076 76.9743 0.348409 74.0771 0.0965174 70.8669C-0.289663 68.7068 0.566432 64.2275 1.19125 62.1301C2.34577 58.2542 6.11501 52.4297 9.86746 50.6222C10.2135 50.3636 10.5831 50.1189 10.9411 49.875L11.7609 49.3587C9.16146 47.2179 7.71549 44.922 6.82513 41.7203C5.72873 42.389 4.78134 43.2175 3.67365 43.8196C4.43403 42.6954 5.64912 41.9662 6.76457 41.1698C6.46722 40.243 6.34236 38.962 6.20473 37.9681C6.12424 37.5621 6.09616 37.0588 6.06092 36.6369C4.55949 37.0794 3.11558 37.7389 1.67786 38.1375C3.28236 36.701 4.44316 36.8653 6.2276 36.0281C6.18922 35.934 6.15683 35.8374 6.13062 35.7392C5.99064 35.2292 6.09341 34.3491 6.15958 33.808C6.47351 31.2439 7.0786 29.1828 8.32107 26.9191C8.03021 26.0866 7.75279 25.2493 7.48902 24.4077C6.76309 22.0437 4.30534 9.48343 8.09136 8.6401C12.014 7.76635 17.8886 10.7514 21.2842 12.6932C22.8591 11.775 26.0301 10.4644 27.8703 10.5424C29.6929 9.72761 35.7303 9.35712 37.8695 9.70827Z" fill="#FEEEC6"/>
<path d="M37.8693 9.70827C40.1246 5.9679 45.1057 1.21195 49.4345 0.150845C49.6607 0.0958862 49.8879 0.0455377 50.1162 0C50.7848 0.291481 51.306 0.51554 51.9144 0.939807C52.2508 2.35864 52.981 4.06022 53.3994 5.67465C54.5139 9.97532 54.9172 13.5499 55.1711 17.9174C56.5645 19.1609 59.6203 22.7041 59.8721 24.4574L59.8021 24.4556L59.8525 24.446L59.8032 24.6906L59.6951 24.6133L59.7475 24.698L59.7149 24.7462L60.0239 24.7632C60.5128 25.6762 60.9293 26.413 61.0553 27.4659C58.559 28.0923 54.9938 28.1353 52.504 27.528C51.6554 27.9835 50.6077 28.6635 49.7328 29.1689C50.4276 28.1892 50.9301 27.904 52.0065 27.3374C49.8077 26.9349 48.5478 26.3807 46.626 25.3018C46.7703 23.1382 46.7745 21.6817 44.7983 20.247C43.7593 19.4804 42.4523 19.1709 41.1797 19.3901C39.7168 19.6406 38.6992 20.4581 37.8656 21.651L37.4289 22.2869C31.6365 21.3501 30.1375 18.4807 28.1721 13.481C27.985 12.6521 27.9194 11.3899 27.8701 10.5424C29.6926 9.72761 35.7301 9.35712 37.8693 9.70827Z" fill="#1D1D1D"/>
<path d="M49.1813 2.91553C51.3924 3.28297 51.8686 12.8449 51.8944 14.9155C50.4517 13.9242 48.9044 12.9388 47.3147 12.2073C45.0518 11.2453 43.9422 10.8429 41.5234 10.3132C42.7786 7.96904 46.6586 3.94533 49.1813 2.91553Z" fill="#FE8F7A"/>
<path d="M8.32068 26.919C8.02982 26.0865 7.7524 25.2492 7.48863 24.4077C6.7627 22.0436 4.30495 9.48337 8.09097 8.64004C12.0136 7.76628 17.8882 10.7514 21.2838 12.6931C22.8587 11.775 26.0297 10.4643 27.8699 10.5423C27.9192 11.3899 27.9848 12.6521 28.1719 13.481L28.1481 13.5808C27.9443 14.4588 27.8289 15.9206 27.6903 16.8589C27.2247 20.0122 26.3865 22.0403 24.4398 24.5033C23.7636 24.0016 22.9511 23.7168 22.1096 23.6863C19.6038 22.9215 17.0664 25.0291 16.3995 27.3938C16.0433 28.6449 16.196 29.9859 16.8241 31.125C16.9773 31.4014 17.2222 31.7583 17.4202 32.0069C16.3001 33.079 15.1098 33.7229 13.8199 34.5658C13.513 34.7664 12.7846 35.1862 12.5517 35.3966C10.6113 35.3711 8.14271 35.6574 6.22721 36.028C6.18883 35.9339 6.15644 35.8374 6.13023 35.7391C5.99025 35.2292 6.09302 34.349 6.15919 33.808C6.47312 31.2438 7.07821 29.1828 8.32068 26.919Z" fill="#FE9B01"/>
<path d="M8.40262 15.6505C8.28619 14.5726 7.90934 12.1543 8.86792 11.3583C9.08585 11.1774 9.53141 11.2794 9.80814 11.3231C11.0938 11.6438 12.1667 11.9344 13.3747 12.4862C14.8012 13.0395 16.2963 13.9667 17.5476 14.8483C14.6351 16.9615 11.757 19.9743 10.2468 23.2725C9.60799 21.2768 8.93251 19.1835 8.6441 17.1033L8.40262 15.6505Z" fill="#FDB090"/>
<path d="M0.0966797 70.8668C0.125246 70.384 0.0811699 69.538 0.20525 69.167L0.443693 69.1346C0.389801 70.7707 0.553636 71.7305 0.8926 73.3361C2.82115 72.0475 4.81547 71.5587 7.09132 72.0995C9.83601 72.7512 13.046 73.8582 14.6614 76.3255C16.6025 79.2894 16.0248 82.2493 12.63 83.637C15.1187 84.062 18.2049 83.9894 20.747 84.0473C21.7734 84.0718 23.1562 84.3034 24.0679 84.0787C24.6929 84.0993 25.2965 84.1425 25.9149 84.0433C26.3795 83.905 27.0252 83.6066 27.4869 83.4094C28.6205 82.6674 28.1265 82.0884 29.5692 82.0324C30.5062 83.8647 31.7212 84.4074 33.7738 84.2848C34.14 84.1837 34.1906 84.168 34.552 84.275C34.6561 84.3034 34.7607 84.3309 34.8656 84.3554C35.7992 84.5763 36.6797 84.5812 37.5131 84.0708L38.0749 84.1012C39.5565 84.0433 40.2595 83.8107 40.9615 82.4427C41.9653 83.7048 42.7778 84.2318 44.455 84.0571L44.8605 84.061C45.7405 84.3672 46.9207 84.588 47.7762 84.0689L48.3539 84.0198C50.1264 84.2426 51.12 83.638 52.0281 82.1836C52.0937 82.2542 52.1599 82.3239 52.227 82.3936C55.4887 85.7628 61.4397 85.6637 65.3514 83.5438C66.5671 82.8843 67.2719 82.2071 68.2405 81.263C69.1704 82.4152 68.1317 83.0089 67.1648 83.5144C64.5207 84.8972 61.3932 85.4723 58.4902 86.0543C56.6967 86.4144 54.8889 86.9003 53.0851 87.0995C47.295 87.7403 41.4576 88.023 35.6332 87.9984C26.8192 87.9935 18.1492 87.5127 9.52876 85.5371C7.48762 85.0356 5.42537 84.6518 3.47758 83.8255C2.39443 83.3289 0.232244 82.7351 1.02375 81.1011C1.41602 80.2914 2.27398 79.8802 3.07069 79.6034C1.19092 76.9742 0.348571 74.0771 0.0966797 70.8668Z" fill="#FE9B01"/>
<path d="M0.0966797 70.8668C0.125246 70.384 0.0811699 69.538 0.20525 69.167L0.443693 69.1346C0.389801 70.7707 0.553636 71.7305 0.8926 73.3361C1.84441 77.1823 2.98754 79.9773 6.57861 82.1384C6.66008 82.1875 6.74235 82.2356 6.82539 82.2817L6.79663 82.532C5.08022 81.63 4.42634 80.9588 3.07068 79.6034C1.19092 76.9742 0.348571 74.0771 0.0966797 70.8668Z" fill="#FEEEC6"/>
<path d="M6.82564 82.2817C7.12416 82.429 7.82829 82.745 8.03699 82.9471C7.53311 82.8402 7.27631 82.7273 6.79688 82.532L6.82564 82.2817Z" fill="#723F06"/>
<path d="M59.398 43.5087C64.8491 46.8024 66.9615 56.0137 65.065 61.8003C64.3756 63.6271 63.4906 65.3464 62.8697 67.2101C62.7628 67.531 62.3914 68.3888 62.3291 68.6743C62.1652 69.0581 62.0276 69.4565 61.7673 69.7745C62.1775 67.5968 61.6125 67.4054 61.5408 65.3511C59.9069 64.1361 57.9514 64.2136 56.281 62.9638C50.7626 58.835 53.1272 50.4918 56.5359 45.8047L56.5959 45.7389C57.6795 44.5616 58.0443 44.3802 59.398 43.5087Z" fill="#1D1D1D"/>
<path d="M63.9954 72.1938C65.4628 70.6323 67.6246 70.0641 69.5264 71.1839C69.9097 71.5401 70.0347 71.6491 70.4758 71.9259L70.608 71.9043C71.1978 75.3844 70.1287 78.4012 68.2399 81.2631C67.2713 82.2072 66.5665 82.8843 65.3508 83.5439C61.4391 85.6637 55.4881 85.7628 52.2264 82.3936C52.1593 82.324 52.0931 82.2543 52.0275 82.1836C50.686 80.1158 50.3148 78.0381 52.4393 76.3707C52.9531 76.0998 53.1888 76.0184 53.7455 75.8348C56.8794 75.7897 56.3006 78.8478 60.8717 78.0803C61.5975 77.9046 62.2565 77.5219 62.7678 76.9772C63.9782 75.67 64.048 73.8622 63.9954 72.1938Z" fill="#FEEEC6"/>
<path d="M0.0965174 70.867C-0.289663 68.7069 0.566432 64.2276 1.19125 62.1301C2.34577 58.2543 6.11501 52.4298 9.86746 50.6222C11.1341 52.0835 11.4729 53.543 11.3239 55.4821C10.9757 60.0151 7.90966 64.3814 3.94458 66.5252C2.21423 67.4605 1.42862 67.1503 0.443531 69.1348L0.205088 69.1671C0.0810076 69.5381 0.125083 70.3841 0.0965174 70.867Z" fill="#FEEEC6"/>
<path d="M17.4201 32.0069C17.2221 31.7584 16.9772 31.4015 16.824 31.125C16.1959 29.986 16.0432 28.645 16.3994 27.3939C17.0663 25.0292 19.6037 22.9216 22.1095 23.6864C22.951 23.7168 23.7635 24.0016 24.4398 24.5033C25.5026 25.2919 26.1269 26.5387 26.1216 27.8618C26.1163 29.185 25.482 30.4268 24.4129 31.2068C24.9487 32.5184 19.6436 34.5429 17.4201 32.0069Z" fill="#152638"/>
<path d="M17.4201 32.0069C17.2221 31.7584 16.9772 31.4015 16.824 31.125C16.1959 29.986 16.0432 28.645 16.3994 27.3939C17.0663 25.0292 19.6037 22.9216 22.1095 23.6864C20.2879 23.6206 18.6354 24.7474 18.0316 26.467C17.428 28.1866 18.0137 30.0988 19.4768 31.1856C20.9401 32.2724 22.9404 32.281 24.4129 31.2068C24.9487 32.5184 19.6436 34.5429 17.4201 32.0069Z" fill="#FEFEFE"/>
<path d="M23.8045 26.0101C24.17 25.94 24.526 26.1699 24.6121 26.532C24.6983 26.8939 24.4841 27.2596 24.1261 27.3615C23.8802 27.4315 23.6156 27.361 23.4373 27.1777C23.259 26.9945 23.1956 26.7283 23.2722 26.4844C23.349 26.2405 23.5534 26.0583 23.8045 26.0101Z" fill="#FEFEFE"/>
<path d="M37.8657 21.651C38.6993 20.4581 39.7169 19.6406 41.1798 19.3901C42.4524 19.1709 43.7594 19.4804 44.7984 20.247C46.7746 21.6816 46.7704 23.1382 46.6261 25.3018C46.2802 26.1617 46.0825 26.706 45.4789 27.4333C45.2342 27.5174 44.4063 27.7846 44.2199 27.8811C41.2568 28.7033 38.6107 27.6654 37.7645 24.5012C37.4156 23.1964 37.8263 22.8445 37.8657 21.651Z" fill="#152638"/>
<path d="M44.1334 21.6235C44.5062 21.6184 44.8189 21.9031 44.8487 22.2746C44.8784 22.646 44.6148 22.9769 44.246 23.0309C43.9848 23.0693 43.7241 22.9591 43.5695 22.7451C43.415 22.5312 43.3924 22.249 43.511 22.0132C43.6295 21.7774 43.8695 21.6272 44.1334 21.6235Z" fill="#FEFEFE"/>
<path d="M14.9414 37.8505C15.1775 37.7064 15.4481 37.3032 15.6686 37.067C16.7122 35.949 18.2143 35.4174 19.7274 35.3982C20.1006 36.5729 22.8062 35.6555 22.1273 37.8881C21.9191 38.5729 21.1557 39.2407 21.0793 39.5717L21.1956 39.6754C19.6122 40.5689 16.8374 40.2712 15.3921 39.1011C15.2589 38.6602 15.3032 38.3626 15.0019 38.0161L14.9414 37.8505Z" fill="#FED298"/>
<path d="M26.5384 75.0654C26.3211 74.4795 26.2293 74.2842 26.3014 73.6708L26.4224 73.6139C27.2275 74.1841 29.4656 78.8154 29.8603 79.9666C29.8795 80.0225 29.5915 81.7597 29.569 82.0325C28.1262 82.0884 28.6202 82.6675 27.4866 83.4094C27.3836 82.7833 28.1232 81.4113 27.903 80.6978C27.7954 80.3503 27.0092 79.8086 26.8651 79.3591L27.0047 79.2865C27.442 79.2708 27.9036 79.4857 28.3243 79.6427C27.5982 78.52 27.173 77.1656 25.9978 76.3746C24.6959 75.4972 23.0632 75.1694 21.5104 75.2764C20.9809 75.3137 20.1675 75.3441 19.6938 75.1066L19.6699 74.9594C20.1616 74.5963 20.9235 74.4991 21.5109 74.3627C23.4778 73.9083 24.7447 74.3362 26.5384 75.0654Z" fill="#FED298"/>
<path d="M62.3291 68.6744C63.3273 69.0042 63.8409 71.2477 63.9958 72.1938C64.0484 73.8622 63.9786 75.67 62.7682 76.9772C62.2569 77.5219 61.5979 77.9047 60.8721 78.0803C61.5328 76.4914 60.9628 74.14 61.1929 72.4127C61.3101 71.5323 61.5635 70.6373 61.7673 69.7746C62.0277 69.4566 62.1653 69.0582 62.3291 68.6744Z" fill="#FECA07"/>
<path d="M37.8657 21.651C37.8264 22.8445 37.4157 23.1964 37.7645 24.5012C38.6107 27.6654 41.2569 28.7033 44.22 27.8811L44.2878 28.0932C44.1762 28.3355 43.9255 28.509 43.6935 28.6186C40.3395 30.2012 36.4705 28.368 36.8874 24.3476C36.9713 23.5394 37.1886 23.0266 37.4291 22.2869L37.8657 21.651Z" fill="#FEFEFE"/>
<path d="M52.4395 76.3706C52.7202 75.1213 54.7306 68.2249 55.5658 67.5271L55.6893 67.5693C56.0384 69.0081 54.1285 74.1232 53.7653 75.7455L53.7456 75.8348C53.1889 76.0183 52.9532 76.0998 52.4395 76.3706Z" fill="#FED298"/>
<path d="M12.552 35.3967C13.4463 35.4378 14.2915 35.3927 15.0795 35.8174L15.0869 35.9366C14.4838 36.1547 12.2651 35.9656 11.4435 35.9697C9.80609 35.8482 7.66089 36.2476 6.0608 36.6369C4.55937 37.0795 3.11546 37.739 1.67773 38.1375C3.28224 36.701 4.44304 36.8653 6.22748 36.0282C8.14297 35.6575 10.6115 35.3712 12.552 35.3967Z" fill="#1D1D1D"/>
<path d="M53.5098 46.5749C54.4285 45.4904 55.8596 44.7229 56.9 43.7355C57.2828 43.3722 57.6894 43.0177 58.0867 42.6698C58.5098 42.9467 58.9641 43.2572 59.3979 43.5087C58.0441 44.3802 57.6793 44.5617 56.5958 45.739L56.5358 45.8047L56.4688 45.7186C56.1509 45.6683 55.3755 46.0759 54.9972 46.2082C54.4635 46.3948 54.0657 46.4812 53.5098 46.5749Z" fill="#FED298"/>
<path d="M61.3982 29.1428L61.4741 29.161C62.2442 29.3409 65.1583 29.6625 65.54 30.1488L65.4708 30.3101C64.8761 30.5149 64.5027 30.1257 63.9374 30.0016C63.19 29.8373 62.2793 29.6795 61.5152 29.6586C58.67 29.5264 55.8238 29.542 53.0405 30.233C52.7022 30.3169 52.5105 30.3928 52.1514 30.3723L52.0674 30.2496C52.3198 29.9649 52.9488 29.8817 53.3127 29.7846C55.9397 29.084 58.6959 29.0547 61.3982 29.1428Z" fill="#1D1D1D"/>
<path d="M6.06055 36.637C7.66064 36.2476 9.80583 35.8482 11.4432 35.9697C9.84765 37.2325 8.15951 37.6648 6.20436 37.9681C6.12386 37.5621 6.09579 37.0589 6.06055 36.637Z" fill="#FE9B01"/>
<path d="M6.76475 41.1698C8.09901 40.609 13.6083 37.2158 14.9415 37.8505L15.002 38.0161C11.31 39.3708 10.3329 39.6419 6.82532 41.7203C5.72891 42.3889 4.78152 43.2175 3.67383 43.8196C4.43421 42.6953 5.6493 41.9662 6.76475 41.1698Z" fill="#1D1D1D"/>
<path d="M11.7612 49.3586C12.1701 49.532 12.8231 50.0307 13.2146 50.2957C13.8153 50.7022 15.7681 51.3912 16.053 51.9916L15.9993 52.2228C15.5509 52.4202 14.5879 52.0366 14.1367 51.9025C12.8164 51.5098 11.9866 50.5788 10.9414 49.875L11.7612 49.3586Z" fill="#FED298"/>
<path d="M19.7275 35.3982C20.7599 35.3994 21.9932 35.6041 22.7519 36.3645C23.6029 37.2173 23.2515 38.2679 22.4249 38.9566C22.0565 39.2609 21.6415 39.5036 21.1957 39.6754L21.0794 39.5717C21.1558 39.2407 21.9192 38.5729 22.1274 37.8881C22.8063 35.6555 20.1007 36.5729 19.7275 35.3982Z" fill="#FDB090"/>
<path d="M24.0674 84.0788C26.4496 83.4654 24.4451 81.3072 24.5534 80.4573C24.6573 80.4092 24.678 80.368 24.7752 80.3926C26.5192 80.8303 26.0274 82.9845 25.7799 83.9296L25.9145 84.0434C25.296 84.1426 24.6924 84.0994 24.0674 84.0788Z" fill="#FED298"/>
<path d="M37.5127 84.0709C37.9058 82.7823 37.3936 81.4622 37.578 81.0491C38.1131 81.0638 38.5418 82.2013 38.4749 82.6615C38.4041 83.1503 38.251 83.642 38.0745 84.1013L37.5127 84.0709Z" fill="#FED298"/>
<path d="M33.7734 84.2848C34.5298 83.4977 33.8877 81.8421 34.1479 81.4397C34.5316 81.5791 34.6249 81.8175 34.8465 82.1954C34.8616 83.0296 34.8456 83.485 34.5516 84.275C34.1902 84.168 34.1396 84.1837 33.7734 84.2848Z" fill="#FED298"/>
<path d="M47.7764 84.0689C48.3489 82.7303 47.922 82.0403 48.1517 81.4554L48.3291 81.3877L48.5324 81.5104C49.0903 82.3622 48.8637 83.2279 48.3541 84.0199L47.7764 84.0689Z" fill="#FED298"/>
<path d="M44.6209 81.213C45.5447 82.4722 45.5639 82.6429 44.8604 84.0611L44.4549 84.0572C44.441 83.1238 44.6093 82.1954 44.6209 81.213Z" fill="#FED298"/>
<path d="M47.2358 29.4414C49.0236 29.3228 50.5298 29.5041 51.161 31.3731C50.3039 33.5622 48.8697 34.0812 46.6302 34.4912C45.7527 34.6021 44.389 34.4488 43.6147 33.9614C42.6813 33.374 42.6624 32.2302 43.293 31.3981C44.2453 30.1417 45.7447 29.704 47.2358 29.4414Z" fill="#FE8F7A"/>
<path d="M38.9854 67.4181C39.8806 67.739 40.8238 75.2066 40.844 76.3127C40.8684 77.6572 41.228 78.7181 40.9082 80.0793C40.496 79.8782 39.8806 79.1117 39.5575 78.7387C39.055 75.9427 38.9902 72.6422 38.9577 69.8176C38.9497 69.1199 38.8145 68.0344 38.9854 67.4181Z" fill="#FED298"/>
<path d="M31.5328 31.7257C30.773 31.5195 29.3936 30.9914 28.9582 30.2957C28.8508 30.1214 28.8173 29.9116 28.8649 29.7126C29.1663 28.4338 32.2993 27.7971 33.3509 28.2514C35.3637 29.1208 32.5479 30.9828 32.1587 31.7423C32.1125 31.6444 32.1073 31.6736 31.982 31.5971L31.5328 31.7257Z" fill="#FE8F7A"/>
<path d="M31.533 31.7257L31.9822 31.5972C32.1075 31.6737 32.1127 31.6445 32.1589 31.7423C32.3775 33.1037 32.7506 34.3501 33.7669 35.3649C34.2633 35.8605 34.8574 35.9452 35.0635 36.5723L34.9519 36.6634C33.7209 36.595 33.036 35.5211 32.45 34.5922C32.2464 35.2742 31.5574 37.4888 30.6935 37.4641C30.6654 37.3936 30.6374 37.323 30.6094 37.2526C30.8092 36.848 31.5042 35.6843 31.6242 35.3063C32.0092 34.0925 31.6466 32.9058 31.533 31.7257Z" fill="#1D1D1D"/>
<path d="M65.0651 61.8003C67.0368 62.7056 68.8619 65.5651 69.6442 67.5604C70.0425 68.6518 70.6675 70.7579 70.6084 71.9042L70.4762 71.9258C70.0351 71.649 69.9101 71.5401 69.5268 71.1838C67.625 70.064 65.4632 70.6323 63.9957 72.1937C63.8408 71.2476 63.3272 69.0041 62.3291 68.6743C62.3914 68.3887 62.7629 67.531 62.8698 67.2101C63.4907 65.3463 64.3756 63.6271 65.0651 61.8003Z" fill="#FE9B01"/>
<path d="M69.6438 67.5605C70.0421 68.6519 70.6671 70.758 70.608 71.9043L70.4758 71.9259C70.0347 71.6491 69.9097 71.5402 69.5264 71.1839C69.7111 71.0554 69.7407 70.9896 69.8852 70.8159C69.4907 69.7491 69.5781 68.6735 69.6438 67.5605Z" fill="#47381D"/>
<path d="M69.8852 70.8159C70.0242 71.021 70.4461 71.7188 70.4758 71.9259C70.0347 71.6491 69.9097 71.5402 69.5264 71.1839C69.7111 71.0554 69.7407 70.9896 69.8852 70.8159Z" fill="#FE7F03"/>
<path d="M59.8723 24.4572C60.8367 24.034 63.72 23.5584 64.7717 23.6584L64.8976 23.8558L64.8716 23.6707L65.0766 23.7552L65.0781 23.7519C64.7672 23.9942 60.7823 24.5787 60.0242 24.7631L59.7151 24.7461L59.7477 24.6979L59.6953 24.6132L59.8034 24.6904L59.8528 24.4459L59.8023 24.4555L59.8723 24.4572Z" fill="#1D1D1D"/>
</svg>
