<svg width="238" height="85" viewBox="0 0 238 85" fill="none" xmlns="http://www.w3.org/2000/svg">
<path d="M1.22109 36.1773C1.19126 35.5787 1.20311 34.9567 1.25665 34.3112C1.30913 33.6442 1.44178 32.8662 1.65461 31.977C1.86744 31.0878 2.19894 29.9998 2.6491 28.713L7.70692 30.2289C7.44921 31.0774 7.24816 31.7732 7.10379 32.3161C6.97973 32.8366 6.89522 33.2908 6.85027 33.6788C6.8267 34.0657 6.82557 34.4729 6.84687 34.9004C6.87351 35.4348 6.99527 35.943 7.21216 36.4251C7.44936 36.8847 7.82337 37.2947 8.3342 37.6549C8.84502 38.0152 9.5226 38.2814 10.3669 38.4536C11.2123 38.6472 12.2656 38.7126 13.5268 38.6497C15.0231 38.5751 16.225 38.3974 17.1324 38.1164C18.0409 37.8568 18.733 37.5545 19.2087 37.2093C19.6844 36.8642 19.9997 36.527 20.1547 36.1979C20.3311 35.8677 20.4151 35.617 20.4065 35.446C20.397 35.2536 20.3024 35.0762 20.1229 34.9137C19.9636 34.7288 19.7189 34.5481 19.3887 34.3717C19.0798 34.1943 18.6855 34.0211 18.2056 33.8521C17.7471 33.6821 17.2133 33.5051 16.6041 33.3212L17.881 28.6289C18.689 28.9315 19.5071 29.2228 20.3353 29.503C21.185 29.7821 22.0218 30.019 22.8458 30.2136C23.6698 30.4083 24.4703 30.5612 25.2473 30.6725C26.0446 30.7613 26.8067 30.7876 27.5335 30.7514C28.5595 30.7003 29.3098 30.92 29.7842 31.4107C30.2587 31.9013 30.514 32.51 30.5503 33.2368C30.5907 34.0491 30.3566 34.7251 29.8477 35.2647C29.3389 35.8044 28.5501 36.1009 27.4813 36.1541C27.2889 36.1637 27.0965 36.1733 26.9041 36.1829C26.7118 36.1925 26.5194 36.2021 26.327 36.2117C26.156 36.2202 25.9743 36.2293 25.7819 36.2388C25.8075 36.3233 25.823 36.4189 25.8284 36.5258C25.8551 36.6316 25.8711 36.738 25.8764 36.8449C25.9084 37.4861 25.6865 38.1936 25.2107 38.9674C24.7575 39.7614 24.0241 40.5266 23.0108 41.2628C22.0199 42.0193 20.7228 42.6519 19.1196 43.1604C17.5388 43.6892 15.6368 44.009 13.4137 44.1198C11.0837 44.2359 9.01615 44.0282 7.21105 43.4968C5.42838 42.9856 4.00329 42.1245 2.93575 40.9134C1.8896 39.7012 1.31804 38.1225 1.22109 36.1773ZM17.1512 51.3908C16.4885 51.4238 15.9216 51.2271 15.4503 50.8006C15.0004 50.373 14.7589 49.8279 14.7259 49.1652C14.6929 48.5026 14.8789 47.9361 15.2841 47.4659C15.7106 46.9946 16.2552 46.7425 16.9178 46.7095C17.5805 46.6764 18.1581 46.8727 18.6508 47.2981C19.1434 47.7236 19.4063 48.2676 19.4393 48.9303C19.4723 49.5929 19.2649 50.1604 18.817 50.6328C18.3691 51.1051 17.8138 51.3578 17.1512 51.3908ZM11.4758 51.6737C10.7918 51.7078 10.2142 51.5116 9.74289 51.085C9.27162 50.6585 9.01947 50.1139 8.98644 49.4513C8.95342 48.7886 9.15016 48.2217 9.57668 47.7504C10.0032 47.2791 10.5478 47.027 11.2105 46.9939C11.8517 46.962 12.4187 47.1587 12.9113 47.5842C13.404 48.0096 13.6668 48.5537 13.6999 49.2163C13.7329 49.879 13.5254 50.4465 13.0775 50.9188C12.651 51.3901 12.1171 51.6417 11.4758 51.6737ZM27.4755 36.1544L27.5277 30.7517C28.4041 30.708 29.0946 30.5879 29.5991 30.3913C30.1036 30.1947 30.4643 29.9089 30.6814 29.5338C30.8973 29.1373 30.9904 28.6398 30.9605 28.0412C30.9264 27.3572 30.7914 26.5818 30.5553 25.715C30.3395 24.8257 30.0805 23.9279 29.7782 23.0215C29.4972 22.114 29.2211 21.3028 28.9497 20.5877L34.0433 18.9517C34.3371 19.687 34.6587 20.5496 35.008 21.5394C35.3563 22.5077 35.6543 23.5429 35.9021 24.6449C36.1713 25.7458 36.3335 26.852 36.3889 27.9635C36.4571 29.3316 36.3218 30.4848 35.9828 31.4232C35.6652 32.3604 35.2002 33.1336 34.5877 33.7428C33.9741 34.3305 33.2686 34.7942 32.4712 35.134C31.6739 35.4737 30.8396 35.7189 29.9685 35.8695C29.1188 36.019 28.2878 36.1139 27.4755 36.1544ZM31.2061 16.2001C30.4793 16.2364 29.8466 16.0108 29.308 15.5233C28.7694 15.0358 28.482 14.4287 28.4458 13.7019C28.4085 12.9538 28.6331 12.2997 29.1194 11.7397C29.6058 11.1798 30.2124 10.8817 30.9392 10.8455C31.666 10.8092 32.2885 11.0461 32.8068 11.556C33.3465 12.0648 33.6349 12.6933 33.6722 13.4414C33.7085 14.1682 33.4828 14.8009 32.9954 15.3395C32.5293 15.877 31.9329 16.1639 31.2061 16.2001ZM41.118 35.3137L39.2301 10.9787L44.7772 10.7022L46.6651 35.0373L41.118 35.3137ZM50.5438 42.2691L49.4656 37.4049C51.0635 37.2181 52.4636 36.934 53.6661 36.5526C54.891 36.1916 55.8963 35.7236 56.6819 35.1487C57.49 34.5942 58.0779 33.922 58.4457 33.1322C58.8349 32.3414 59.0039 31.4329 58.9528 30.4069C58.8739 28.825 58.6091 27.5953 58.1582 26.7178C57.7287 25.8392 57.2039 25.4153 56.584 25.4462C56.242 25.4633 55.9604 25.6166 55.7391 25.9062C55.5392 26.1947 55.3852 26.5453 55.2772 26.9578C55.1895 27.3479 55.1536 27.7033 55.1696 28.0239C55.1867 28.3659 55.2662 28.6727 55.4084 28.9442C55.5708 29.1932 55.8802 29.3814 56.3365 29.5087C56.7929 29.6359 57.4806 29.6766 58.3998 29.6308C59.3179 29.5636 60.5508 29.3629 62.0984 29.0286L65.6575 28.8512C66.6836 28.8001 67.4339 29.0198 67.9083 29.5105C68.3828 30.0011 68.6381 30.6098 68.6744 31.3366C68.7148 32.1489 68.4807 32.8249 67.9718 33.3646C67.463 33.9042 66.6742 34.2007 65.6054 34.2539L58.5834 34.6039C56.8519 34.6902 55.3551 34.5398 54.0929 34.1527C52.8511 33.7432 51.8775 33.1274 51.1722 32.3054C50.4872 31.461 50.1149 30.4402 50.0553 29.2431C50.0073 28.2812 50.1197 27.3113 50.3924 26.3334C50.6865 25.3544 51.1125 24.4439 51.6706 23.6018C52.25 22.7586 52.9443 22.0704 53.7534 21.5372C54.5626 21.004 55.4695 20.7124 56.4742 20.6623C58.0132 20.5856 59.3283 20.9593 60.4194 21.7835C61.5319 22.6067 62.3916 23.7317 62.9984 25.1587C63.6256 26.5631 63.9818 28.1204 64.067 29.8305C64.1768 32.0322 63.7602 33.9923 62.8172 35.7108C61.8753 37.4507 60.3826 38.8858 58.3388 40.0163C56.3165 41.1457 53.7182 41.8966 50.5438 42.2691ZM65.6142 34.2535L65.6663 28.8508C66.5641 28.806 67.2877 28.7057 67.8371 28.5497C68.3854 28.3724 68.8194 28.0508 69.139 27.5848C69.479 27.0964 69.7228 26.3985 69.8704 25.4912C70.0383 24.5613 70.1802 23.3221 70.2958 21.7734L75.6279 22.3434C75.6215 22.6437 75.5958 22.9879 75.5508 23.3758C75.5273 23.7627 75.5047 24.171 75.4833 24.6007C75.4619 25.0303 75.4613 25.4482 75.4815 25.8544C75.5028 26.2819 75.5856 26.6528 75.7298 26.967C75.873 27.2599 76.0995 27.5057 76.4095 27.7046C76.7407 27.9024 77.1869 28.0408 77.7481 28.12C78.3295 28.1768 79.0584 28.1833 79.9348 28.1396C80.9608 28.0885 81.7111 28.3082 82.1856 28.7989C82.66 29.2895 82.9154 29.8982 82.9516 30.625C82.9921 31.4373 82.7579 32.1133 82.2491 32.6529C81.7403 33.1926 80.9514 33.4891 79.8826 33.5423C78.5787 33.6073 77.4624 33.5665 76.5336 33.42C75.6252 33.251 74.8717 32.9671 74.2732 32.5683C73.6748 32.1696 73.1993 31.6575 72.8466 31.0322C72.5144 30.3845 72.2831 29.6139 72.1528 28.7203L74.0446 28.626C73.7195 29.8423 73.2646 30.8186 72.6798 31.5549C72.0951 32.2912 71.4265 32.8495 70.674 33.2299C69.9204 33.5889 69.1076 33.833 68.2354 33.9621C67.3857 34.1116 66.512 34.2088 65.6142 34.2535ZM75.6362 41.2113C74.9735 41.2443 74.4066 41.0476 73.9353 40.6211C73.4854 40.1935 73.244 39.6484 73.2109 38.9857C73.1779 38.3231 73.364 37.7566 73.7691 37.2864C74.1956 36.8152 74.7402 36.563 75.4029 36.53C76.0655 36.4969 76.6432 36.6932 77.1358 37.1186C77.6285 37.5441 77.8913 38.0881 77.9243 38.7508C77.9574 39.4134 77.7499 39.9809 77.302 40.4533C76.8541 40.9256 76.2989 41.1783 75.6362 41.2113ZM69.9288 41.4958C69.2661 41.5288 68.6992 41.3321 68.2279 40.9055C67.7566 40.479 67.5045 39.9344 67.4715 39.2718C67.4384 38.6091 67.6352 38.0422 68.0617 37.5709C68.4882 37.0996 69.0328 36.8475 69.6955 36.8144C70.3368 36.7825 70.9037 36.9792 71.3964 37.4047C71.889 37.8301 72.1518 38.3742 72.1849 39.0369C72.2179 39.6995 72.0105 40.267 71.5626 40.7393C71.1147 41.2117 70.5701 41.4638 69.9288 41.4958ZM79.8927 33.5418L79.9448 28.1391C81.2915 28.072 82.6029 27.9423 83.8791 27.7502C85.1553 27.558 86.3636 27.2942 87.504 26.9587C88.6659 26.6223 89.7385 26.2152 90.7218 25.7376C91.7266 25.259 92.6415 24.6991 93.4667 24.0579C92.7496 23.8579 92.0026 23.7023 91.2256 23.591C90.4475 23.4584 89.6395 23.3701 88.8016 23.3261C87.985 23.2811 87.1172 23.2815 86.198 23.3273C85.856 23.3444 85.4183 23.3769 84.885 23.4249C84.3516 23.4729 83.8087 23.5428 83.2561 23.6347C82.7238 23.7041 82.2674 23.7911 81.8869 23.8958L80.9003 18.2877C81.533 18.0847 82.2967 17.9288 83.1913 17.8199C84.0848 17.6896 84.8843 17.6069 85.5897 17.5718C86.7654 17.5132 87.8726 17.5866 88.9115 17.7919C89.9492 17.9759 90.9154 18.2278 91.8099 18.5475C92.7044 18.8672 93.5348 19.1901 94.3011 19.5162C95.0888 19.8413 95.8203 20.1155 96.4957 20.339C97.1915 20.54 97.8386 20.6256 98.4372 20.5958L99.7518 20.5303L100.668 25.3705C99.8386 25.4975 99.0595 25.7721 98.3305 26.1941C97.6004 26.5948 96.8538 27.0927 96.0906 27.6879C95.3477 28.2607 94.5097 28.8596 93.5765 29.4847C92.6434 30.1098 91.5483 30.7108 90.2913 31.2878C89.0557 31.8637 87.5908 32.3546 85.8967 32.7604C84.2026 33.1663 82.2013 33.4268 79.8927 33.5418ZM109.826 39.3144L107.846 34.4308C109.345 33.9703 110.594 33.4474 111.593 32.8618C112.593 32.2763 113.377 31.6693 113.946 31.041C114.535 30.3902 114.942 29.7484 115.167 29.1157C115.393 28.4831 115.492 27.8888 115.464 27.333C115.421 26.4566 115.135 25.4637 114.609 24.3542C114.082 23.2447 113.401 22.0572 112.567 20.7916L117.383 18.1086C117.777 18.7104 118.141 19.3352 118.473 19.9829C118.827 20.6296 119.148 21.2778 119.438 21.9277C119.727 22.5776 119.984 23.2184 120.209 23.8501C120.529 24.6913 120.954 25.2701 121.485 25.5865C122.014 25.8816 122.759 26.0051 123.721 25.9572C124.747 25.9061 125.497 26.1258 125.972 26.6165C126.446 27.1071 126.702 27.7158 126.738 28.4426C126.778 29.2549 126.544 29.9309 126.035 30.4705C125.526 31.0102 124.738 31.3067 123.669 31.3599C122.899 31.3983 122.199 31.3154 121.567 31.1111C120.956 30.8844 120.445 30.5349 120.036 30.0624C119.648 29.5889 119.383 29.002 119.241 28.302L120.806 26.8096C120.864 27.9639 120.709 29.1503 120.341 30.3686C119.973 31.587 119.356 32.7535 118.49 33.8681C117.625 35.0041 116.477 36.0364 115.044 36.9649C113.634 37.9138 111.895 38.6969 109.826 39.3144ZM123.668 31.36L123.72 25.9573L128.241 25.7319C128.668 25.7106 129.031 25.6711 129.328 25.6135C129.645 25.5334 129.885 25.3928 130.046 25.1919C130.229 24.99 130.311 24.6966 130.291 24.3118C130.273 23.9484 130.103 23.5497 129.782 23.1158C129.459 22.6604 129.05 22.1986 128.556 21.7304C128.061 21.2622 127.534 20.7956 126.975 20.3306C126.415 19.8442 125.889 19.3883 125.396 18.9628C124.903 18.5374 124.498 18.1504 124.181 17.8019C123.864 17.4534 123.7 17.1723 123.689 16.9586C123.662 16.4242 123.66 15.9421 123.681 15.5125C123.723 15.0604 123.779 14.6826 123.85 14.3791C123.942 14.0745 124.059 13.8436 124.201 13.6865C124.544 13.2623 125.088 12.7852 125.833 12.2552C126.577 11.7038 127.47 11.1236 128.511 10.5145C129.551 9.88409 130.719 9.23659 132.014 8.572C133.309 7.88604 134.688 7.18513 136.152 6.46927L138.505 11.1093C136.936 11.8732 135.598 12.5399 134.49 13.1094C133.383 13.6789 132.433 14.187 131.641 14.6336C130.871 15.0792 130.195 15.4986 129.615 15.8918C129.056 16.2839 128.54 16.6847 128.067 17.0939L127.702 14.2835C128.303 14.725 128.961 15.2493 129.677 15.8565C130.413 16.4413 131.142 17.0907 131.864 17.8047C132.605 18.4964 133.308 19.2649 133.971 20.1105C134.634 20.9346 135.224 21.8159 135.742 22.7544C136.143 23.4844 136.545 24.0323 136.949 24.3978C137.374 24.741 137.878 24.9623 138.461 25.0618C139.065 25.1388 139.837 25.1539 140.778 25.1071C141.804 25.0559 142.554 25.2757 143.029 25.7663C143.503 26.257 143.758 26.8657 143.795 27.5925C143.835 28.4048 143.601 29.0807 143.092 29.6204C142.583 30.16 141.794 30.4565 140.726 30.5098C139.358 30.578 138.175 30.5083 137.179 30.3008C136.205 30.0922 135.404 29.725 134.778 29.199C134.172 28.6507 133.738 27.9008 133.477 26.9496L135.368 26.8553C135.079 27.4912 134.711 28.0667 134.265 28.5817C133.819 29.0968 133.284 29.5414 132.66 29.9153C132.056 30.2669 131.352 30.5484 130.549 30.7599C129.745 30.9714 128.851 31.1016 127.868 31.1506L123.668 31.36ZM140.733 30.5094L140.785 25.1067C141.148 25.0886 141.639 25.0427 142.257 24.969C142.896 24.8943 143.567 24.8073 144.269 24.708C144.991 24.5863 145.671 24.456 146.307 24.3172C146.964 24.1773 147.492 24.0331 147.892 23.8846C148.586 23.6143 149.138 23.3082 149.55 22.9662C149.982 22.6018 150.284 22.2224 150.458 21.8281C150.652 21.4327 150.739 21.0212 150.717 20.5937C150.7 20.2517 150.61 19.9348 150.445 19.6429C150.302 19.3501 150.108 19.124 149.865 18.9647C149.62 18.784 149.369 18.7001 149.113 18.7129C148.856 18.7257 148.605 18.8346 148.358 19.0398C148.11 19.2236 147.908 19.4801 147.753 19.8093C147.598 20.1384 147.532 20.5274 147.554 20.9763C147.568 21.2542 147.647 21.5503 147.791 21.8645C147.936 22.1788 148.166 22.4995 148.482 22.8266C148.819 23.1312 149.275 23.4621 149.85 23.8192L145.11 26.1126C144.526 25.5631 144.017 25.0206 143.583 24.4851C143.17 23.9485 142.842 23.3863 142.599 22.7984C142.375 22.1881 142.246 21.5195 142.209 20.7927C142.162 19.8522 142.322 18.9763 142.689 18.1652C143.076 17.3316 143.597 16.5985 144.251 15.9659C144.905 15.3332 145.641 14.8358 146.459 14.4736C147.275 14.0901 148.111 13.877 148.966 13.8344C150.227 13.7715 151.376 14.025 152.411 14.5948C153.467 15.1422 154.318 15.8819 154.965 16.814C155.611 17.7461 155.962 18.7573 156.016 19.8474C156.072 20.959 155.918 21.9631 155.556 22.8597C155.213 23.734 154.738 24.5184 154.13 25.213C153.521 25.8862 152.843 26.4879 152.098 27.0179C151.353 27.5479 150.616 28.0239 149.887 28.446C149.325 28.774 148.611 29.0667 147.745 29.3242C146.9 29.5592 146.01 29.7642 145.076 29.9394C144.163 30.1134 143.312 30.2416 142.524 30.3237C141.757 30.4262 141.16 30.4881 140.733 30.5094ZM158.336 29.632C156.989 29.6992 155.671 29.6899 154.381 29.6042C153.112 29.5174 151.948 29.3719 150.888 29.1676C149.826 28.9419 148.955 28.6532 148.273 28.3014L150.268 23.8304C150.922 24.055 151.68 24.2101 152.541 24.2957C153.423 24.3589 154.356 24.3767 155.34 24.3491C156.346 24.3204 157.362 24.2805 158.388 24.2293C159.414 24.1782 160.164 24.3979 160.639 24.8886C161.113 25.3792 161.369 25.9879 161.405 26.7147C161.445 27.527 161.211 28.203 160.702 28.7426C160.194 29.2823 159.405 29.5788 158.336 29.632ZM148.853 10.9149C148.126 10.9512 147.493 10.7256 146.955 10.2381C146.416 9.75064 146.129 9.14353 146.093 8.41674C146.055 7.66858 146.28 7.01452 146.766 6.45455C147.253 5.89458 147.859 5.59648 148.586 5.56025C149.313 5.52403 149.935 5.76086 150.454 6.27076C150.993 6.77959 151.282 7.40808 151.319 8.15624C151.355 8.88303 151.13 9.51572 150.642 10.0543C150.176 10.5918 149.58 10.8787 148.853 10.9149ZM158.33 29.6323L158.383 24.2296C159.729 24.1625 160.751 24.0151 161.446 23.7876C162.164 23.559 162.641 23.2459 162.878 22.8483C163.114 22.4294 163.218 21.9207 163.188 21.3222C163.154 20.6381 163.03 19.8729 162.816 19.0263C162.602 18.1584 162.354 17.2815 162.074 16.3954C161.795 15.5093 161.519 14.7087 161.248 13.9937L166.341 12.3576C166.635 13.093 166.945 13.9454 167.272 14.9149C167.619 15.8619 167.916 16.8757 168.163 17.9562C168.41 19.0368 168.561 20.1329 168.616 21.2445C168.7 22.9332 168.469 24.3161 167.923 25.3934C167.398 26.4696 166.647 27.2999 165.669 27.8844C164.69 28.4689 163.565 28.8893 162.292 29.1456C161.04 29.4008 159.72 29.5631 158.33 29.6323ZM167.647 36.6253C166.984 36.6583 166.417 36.4616 165.946 36.035C165.496 35.6075 165.255 35.0623 165.222 34.3997C165.189 33.737 165.375 33.1706 165.78 32.7004C166.207 32.2291 166.751 31.977 167.414 31.9439C168.076 31.9109 168.654 32.1071 169.147 32.5326C169.639 32.958 169.902 33.5021 169.935 34.1648C169.968 34.8274 169.761 35.3949 169.313 35.8672C168.865 36.3396 168.31 36.5923 167.647 36.6253ZM161.94 36.9098C161.277 36.9428 160.71 36.746 160.239 36.3195C159.768 35.893 159.515 35.3484 159.482 34.6857C159.449 34.0231 159.646 33.4561 160.073 32.9849C160.499 32.5136 161.044 32.2614 161.706 32.2284C162.348 32.1964 162.915 32.3932 163.407 32.8187C163.9 33.2441 164.163 33.7882 164.196 34.4508C164.229 35.1135 164.021 35.681 163.573 36.1533C163.126 36.6256 162.581 36.8778 161.94 36.9098ZM180.96 28.3437L179.072 4.00863L184.619 3.73215L186.507 28.0672L180.96 28.3437ZM189.327 26.3195L191.122 21.0549C191.757 21.3233 192.443 21.5462 193.18 21.7237C193.939 21.9002 194.714 21.9687 195.505 21.9293C196.082 21.9005 196.539 21.8242 196.876 21.7003C197.211 21.555 197.448 21.3503 197.584 21.0864C197.742 20.8 197.809 20.4323 197.787 19.9834C197.766 19.5773 197.646 19.0904 197.424 18.5228C197.224 17.9328 196.843 17.1803 196.283 16.2654C195.723 15.3504 194.915 14.1799 193.858 12.754L198.83 9.32398C200.138 11.0588 201.169 12.6146 201.924 13.9913C202.698 15.3456 203.262 16.5604 203.616 17.6357C203.969 18.6895 204.166 19.644 204.209 20.499C204.277 21.8671 204.048 23.0785 203.522 24.1334C202.996 25.1882 202.138 26.0345 200.949 26.6724C199.779 27.2878 198.243 27.643 196.341 27.7378C195.529 27.7783 194.714 27.7653 193.896 27.6989C193.099 27.6101 192.309 27.4566 191.527 27.2384C190.766 27.0192 190.032 26.7129 189.327 26.3195ZM195.034 7.32741C194.307 7.36363 193.675 7.13802 193.136 6.65057C192.598 6.16311 192.31 5.55599 192.274 4.82921C192.237 4.08105 192.461 3.42698 192.948 2.86701C193.434 2.30704 194.041 2.00895 194.767 1.97272C195.494 1.9365 196.117 2.17333 196.635 2.68323C197.175 3.19206 197.463 3.82055 197.5 4.56871C197.537 5.2955 197.311 5.92819 196.824 6.46678C196.357 7.00431 195.761 7.29119 195.034 7.32741ZM217.331 26.6916C215.151 26.8003 213.452 26.6707 212.233 26.3028C211.036 25.9339 210.17 25.3235 209.635 24.4716C209.121 23.6186 208.798 22.5097 208.665 21.1448L207.002 2.6165L212.517 2.34162L214.036 17.9842C214.153 19.0284 214.319 19.7915 214.536 20.2736C214.775 20.7546 215.122 21.0587 215.578 21.186C216.034 21.2918 216.635 21.3261 217.383 21.2889C218.409 21.2377 219.16 21.4575 219.634 21.9481C220.109 22.4388 220.364 23.0475 220.4 23.7743C220.441 24.5866 220.207 25.2625 219.698 25.8022C219.189 26.3418 218.4 26.6383 217.331 26.6916ZM217.323 26.692L217.375 21.2893C218.124 21.252 218.703 21.0623 219.115 20.7204C219.526 20.3784 219.898 19.8778 220.229 19.2184C220.582 18.5579 221.014 17.7543 221.524 16.8074C222.308 15.354 223.046 14.2457 223.736 13.4827C224.427 12.7197 225.108 12.1929 225.779 11.9023C226.45 11.6117 227.149 11.4483 227.876 11.4121C228.881 11.362 229.823 11.5615 230.703 12.0105C231.582 12.4595 232.352 13.064 233.011 13.8241C233.692 14.583 234.226 15.4242 234.615 16.3477C235.025 17.2702 235.254 18.191 235.299 19.1101C235.362 20.3713 235.183 21.5053 234.762 22.512C234.362 23.5177 233.727 24.3208 232.857 24.9213C231.987 25.5218 230.91 25.8541 229.628 25.918C228.645 25.967 227.568 25.8599 226.397 25.5968C225.249 25.3327 223.924 24.7772 222.425 23.9305L224.091 19.3152C225.02 19.8903 225.896 20.2752 226.72 20.4699C227.566 20.6635 228.266 20.7464 228.822 20.7187C229.207 20.6995 229.504 20.6312 229.712 20.5136C229.942 20.395 230.095 20.2481 230.172 20.0728C230.269 19.8751 230.312 19.6587 230.301 19.4236C230.277 18.9533 230.149 18.5311 229.916 18.157C229.704 17.7818 229.432 17.4846 229.1 17.2655C228.768 17.0463 228.399 16.9469 227.992 16.9671C227.629 16.9852 227.283 17.1311 226.953 17.4046C226.624 17.6782 226.271 18.1244 225.895 18.7431C225.54 19.3608 225.111 20.2072 224.607 21.2824C224.219 22.0946 223.838 22.8208 223.462 23.4609C223.108 24.1 222.676 24.6573 222.163 25.1328C221.672 25.5859 221.036 25.9498 220.257 26.2243C219.498 26.4764 218.52 26.6323 217.323 26.692ZM73.0116 65.8035L72.9716 65.0019C72.9546 64.6598 72.8649 64.3643 72.7024 64.1153C72.54 63.8662 72.2702 63.6118 71.893 63.352C71.5371 63.0912 71.0284 62.7737 70.3669 62.3995C69.4617 61.866 68.7168 61.3245 68.1323 60.7751C67.5467 60.2043 67.1086 59.5832 66.818 58.912C66.5487 58.2397 66.3939 57.4974 66.3534 56.6851C66.2682 54.975 66.8514 53.5638 68.1031 52.4513C69.3549 51.3389 71.1671 50.7236 73.5398 50.6053C75.1217 50.5265 76.5853 50.6571 77.9309 50.9972C79.2968 51.3148 80.5846 51.7864 81.7944 52.4118L79.8266 56.785C78.7514 56.2814 77.7474 55.9136 76.8143 55.6815C75.8813 55.4495 75.0194 55.3531 74.2284 55.3925C73.5872 55.4245 73.0698 55.5789 72.6765 55.8556C72.3045 56.1313 72.1292 56.4829 72.1505 56.9104C72.1643 57.1883 72.2209 57.4641 72.3203 57.7377C72.441 58.0103 72.6809 58.309 73.04 58.634C73.398 58.9376 73.9409 59.2963 74.6686 59.71C75.4402 60.143 76.0408 60.5845 76.4704 61.0345C76.9214 61.4835 77.235 61.9714 77.4113 62.4984C77.6078 63.0029 77.7221 63.5758 77.7541 64.217L77.8212 65.5637L73.0116 65.8035ZM75.6139 74.1597C74.7374 74.2034 73.9669 74.006 73.3022 73.5677C72.6374 73.1294 72.279 72.3866 72.2268 71.3391C72.1714 70.2276 72.4531 69.4314 73.072 68.9505C73.6909 68.4697 74.4386 68.2074 75.315 68.1637C76.2342 68.1179 77.0256 68.3035 77.6892 68.7204C78.3529 69.1373 78.7124 69.9016 78.7678 71.0131C78.82 72.0605 78.5372 72.8354 77.9194 73.3376C77.3015 73.8398 76.533 74.1139 75.6139 74.1597ZM97.428 73.3617L97.9932 67.9334C98.9765 67.8844 99.9897 67.791 101.033 67.6533C102.097 67.5145 103.118 67.3458 104.093 67.1472C105.069 66.9486 105.938 66.7552 106.7 66.5673C107.483 66.3568 108.074 66.1774 108.474 66.0289C109.167 65.7586 109.72 65.4631 110.133 65.1426C110.566 64.7995 110.869 64.4415 111.044 64.0686C111.238 63.6731 111.325 63.2724 111.305 62.8662C111.294 62.6311 111.239 62.3981 111.142 62.1672C111.065 61.9139 110.958 61.6942 110.82 61.5082C110.681 61.3009 110.512 61.1379 110.313 61.0192C110.136 60.8995 109.929 60.8454 109.694 60.8572C109.416 60.871 109.155 60.9912 108.909 61.2178C108.662 61.4229 108.461 61.7008 108.307 62.0513C108.174 62.3794 108.117 62.7465 108.137 63.1527C108.152 63.452 108.232 63.7587 108.376 64.073C108.519 64.3658 108.748 64.6651 109.064 64.9708C109.4 65.2755 109.856 65.6064 110.431 65.9634L105.692 68.2569C105.107 67.7074 104.598 67.1649 104.164 66.6294C103.752 66.0928 103.424 65.5305 103.18 64.9427C102.957 64.3324 102.827 63.6638 102.791 62.937C102.747 62.0606 102.898 61.2174 103.243 60.4073C103.589 59.5972 104.077 58.8657 104.709 58.2127C105.341 57.5598 106.065 57.0415 106.881 56.658C107.718 56.252 108.607 56.0255 109.548 55.9786C110.873 55.9126 112.054 56.1752 113.091 56.7664C114.126 57.3362 114.957 58.0984 115.583 59.0529C116.208 59.9861 116.546 60.9657 116.597 61.9917C116.653 63.1033 116.499 64.1074 116.137 65.004C115.795 65.8782 115.32 66.6627 114.711 67.3573C114.102 68.0305 113.425 68.6321 112.68 69.1621C111.935 69.6922 111.198 70.1682 110.469 70.5902C109.907 70.9183 109.108 71.2366 108.073 71.5454C107.039 71.8541 105.896 72.1361 104.644 72.3913C103.393 72.6466 102.128 72.8596 100.851 73.0304C99.595 73.2001 98.454 73.3106 97.428 73.3617ZM118.917 71.7763C117.571 71.8434 116.252 71.8342 114.962 71.7484C113.694 71.6617 112.529 71.5161 111.469 71.3118C110.408 71.0862 109.536 70.7974 108.854 70.4457L110.849 65.9747C111.501 66.1565 112.258 66.2902 113.119 66.3759C114.001 66.4391 114.935 66.4675 115.92 66.4613C116.927 66.454 117.943 66.4247 118.97 66.3736C119.996 66.3225 120.746 66.5422 121.22 67.0329C121.695 67.5235 121.95 68.1322 121.986 68.859C122.027 69.6713 121.793 70.3473 121.284 70.8869C120.775 71.4266 119.986 71.7231 118.917 71.7763ZM97.428 73.3617C94.7346 73.4959 92.5009 73.393 90.7267 73.0528C88.9526 72.7127 87.5558 72.2037 86.5362 71.5259C85.5167 70.8482 84.781 70.0598 84.329 69.1609C83.8771 68.262 83.6266 67.3209 83.5776 66.3376C83.5349 65.4825 83.5581 64.6564 83.6469 63.859C83.756 63.0393 83.8892 62.2719 84.0464 61.5569C84.225 60.8409 84.3865 60.2114 84.5309 59.6685L89.3003 60.5558C89.2147 60.9886 89.1296 61.4321 89.0451 61.8864C88.982 62.3395 88.9296 62.7922 88.8878 63.2442C88.845 63.675 88.8337 64.0934 88.8539 64.4995C88.8923 65.2691 89.1931 65.9291 89.7562 66.4796C90.3408 67.0291 91.2935 67.4423 92.6145 67.7193C93.9344 67.975 95.7273 68.0463 97.9932 67.9334L98.8518 72.2621L97.428 73.3617ZM109.434 53.0592C108.707 53.0954 108.075 52.8698 107.536 52.3824C106.998 51.8949 106.71 51.2878 106.674 50.561C106.637 49.8129 106.861 49.1588 107.348 48.5988C107.834 48.0389 108.441 47.7408 109.167 47.7045C109.894 47.6683 110.517 47.9051 111.035 48.415C111.575 48.9239 111.863 49.5524 111.9 50.3005C111.937 51.0273 111.711 51.66 111.224 52.1986C110.757 52.7361 110.161 53.023 109.434 53.0592ZM118.917 71.7763L118.97 66.3736C119.867 66.3288 120.591 66.2285 121.14 66.0725C121.689 65.8952 122.123 65.5736 122.442 65.1076C122.782 64.6192 123.026 63.9214 123.174 63.014C123.342 62.0842 123.483 60.8449 123.599 59.2962L128.931 59.8662C128.925 60.1665 128.899 60.5107 128.854 60.8987C128.83 61.2856 128.808 61.6938 128.787 62.1235C128.765 62.5531 128.764 62.971 128.785 63.3772C128.806 63.8047 128.889 64.1756 129.033 64.4898C129.176 64.7827 129.403 65.0286 129.713 65.2274C130.044 65.4252 130.49 65.5637 131.051 65.6428C131.633 65.6996 132.362 65.7061 133.238 65.6624C134.264 65.6113 135.014 65.831 135.489 66.3217C135.963 66.8123 136.219 67.421 136.255 68.1478C136.295 68.9601 136.061 69.6361 135.552 70.1758C135.043 70.7154 134.255 71.0119 133.186 71.0652C131.882 71.1301 130.766 71.0894 129.837 70.9428C128.928 70.7738 128.175 70.4899 127.576 70.0911C126.978 69.6924 126.502 69.1804 126.15 68.5551C125.818 67.9073 125.586 67.1367 125.456 66.2432L127.348 66.1489C127.023 67.3651 126.568 68.3414 125.983 69.0777C125.398 69.814 124.73 70.3723 123.977 70.7527C123.224 71.1117 122.411 71.3558 121.539 71.485C120.689 71.6345 119.815 71.7316 118.917 71.7763ZM128.939 78.7341C128.277 78.7672 127.71 78.5704 127.239 78.1439C126.789 77.7163 126.547 77.1712 126.514 76.5085C126.481 75.8459 126.667 75.2794 127.072 74.8092C127.499 74.338 128.043 74.0858 128.706 74.0528C129.369 74.0198 129.946 74.216 130.439 74.6414C130.932 75.0669 131.195 75.6109 131.228 76.2736C131.261 76.9363 131.053 77.5038 130.605 77.9761C130.157 78.4484 129.602 78.7011 128.939 78.7341ZM123.232 79.0186C122.569 79.0516 122.002 78.8549 121.531 78.4284C121.06 78.0018 120.808 77.4573 120.775 76.7946C120.742 76.1319 120.938 75.565 121.365 75.0937C121.791 74.6224 122.336 74.3703 122.999 74.3373C123.64 74.3053 124.207 74.502 124.7 74.9275C125.192 75.353 125.455 75.897 125.488 76.5597C125.521 77.2223 125.314 77.7898 124.866 78.2622C124.418 78.7345 123.873 78.9866 123.232 79.0186ZM133.196 71.0647L133.248 65.6619C134.103 65.6193 134.718 65.4922 135.093 65.2807C135.49 65.068 135.717 64.671 135.773 64.0896C135.85 63.4857 135.827 62.5869 135.703 61.393L134.346 46.4174L139.893 46.141L141.35 61.8187C141.479 63.1195 141.496 64.3187 141.4 65.4163C141.325 66.4915 141.03 67.4384 140.513 68.257C139.996 69.0543 139.149 69.6965 137.974 70.1837C136.819 70.6698 135.227 70.9634 133.196 71.0647ZM155 51.8167C154.981 51.4319 154.912 50.8997 154.792 50.2199C154.693 49.5177 154.572 48.8165 154.43 48.1164C154.288 47.4164 154.163 46.844 154.055 46.3994L159.378 45.4912C159.485 45.9145 159.598 46.4553 159.716 47.1137C159.835 47.7721 159.944 48.4631 160.045 49.1867C160.145 49.9102 160.212 50.6141 160.246 51.2981C160.305 52.4738 160.242 53.5805 160.058 54.6183C159.874 55.656 159.559 56.6467 159.113 57.5904C158.689 58.533 158.145 59.4387 157.481 60.3076L156.801 60.8557C156.194 61.5717 155.511 62.2808 154.753 62.9829C154.017 63.6839 153.194 64.3785 152.286 65.0666L154.915 64.9356C155.642 64.8993 156.195 64.8182 156.574 64.6921C156.954 64.5661 157.203 64.4037 157.322 64.2049C157.462 64.005 157.525 63.7769 157.512 63.5204C157.494 63.157 157.136 62.6391 156.439 61.9667C155.741 61.2943 154.77 60.5284 153.528 59.6689C152.305 58.7869 150.877 57.8617 149.243 56.8931C147.609 55.9245 145.836 54.9628 143.924 54.0081L146.163 49.2678C149.043 50.7315 151.456 52.0791 153.403 53.3106C155.371 54.5197 156.97 55.6401 158.2 56.6716C159.429 57.6819 160.365 58.6209 161.008 59.4889C161.673 60.3558 162.132 61.1794 162.385 61.9596C162.637 62.7185 162.781 63.4613 162.817 64.1881C162.844 64.7225 162.765 65.2943 162.581 65.9035C162.397 66.5127 162.084 67.0962 161.64 67.654C161.196 68.2119 160.598 68.681 159.846 69.0613C159.115 69.4406 158.204 69.6575 157.114 69.7118L146.918 70.22L146.619 64.224C148.748 62.6607 150.432 61.1946 151.671 59.8257C152.93 58.4343 153.817 57.0937 154.331 55.8037C154.845 54.4924 155.068 53.1634 155 51.8167ZM143.726 48.7464L143.03 46.4025C143.9 46.2305 144.526 46.0922 144.906 45.9875C145.308 45.8818 145.72 45.7648 146.142 45.6366L145.583 46.661C145.017 46.4963 144.464 46.1382 143.922 45.5866C143.401 45.0339 143.123 44.3835 143.085 43.6354C143.044 42.8017 143.192 42.13 143.531 41.6202C143.87 41.1105 144.312 40.7349 144.857 40.4934C145.401 40.2306 145.973 40.0842 146.571 40.0544C146.935 40.0363 147.267 40.0411 147.568 40.069C147.87 40.0968 148.14 40.1476 148.38 40.2214L148.235 42.4787C148.019 42.4466 147.792 42.415 147.555 42.384C147.339 42.3519 147.103 42.3422 146.847 42.355C146.44 42.3752 146.125 42.4874 145.899 42.6915C145.673 42.8956 145.568 43.1473 145.583 43.4466C145.603 43.8527 145.749 44.199 146.021 44.4855C146.291 44.7506 146.601 44.9601 146.952 45.1141C147.301 45.2467 147.594 45.3178 147.83 45.3275L146.394 45.5276C146.964 45.3492 147.501 45.1724 148.007 44.9972C148.511 44.8007 148.994 44.6051 149.456 44.4107L150.275 46.6521C149.729 46.8722 149.098 47.1179 148.383 47.3893C147.667 47.6392 146.908 47.8807 146.105 48.1135C145.324 48.3453 144.531 48.5563 143.726 48.7464ZM167.599 69.1892L165.711 44.8541L171.258 44.5777L173.146 68.9127L167.599 69.1892Z" fill="black"/>
</svg>
