<svg width="27" height="23" viewBox="0 0 27 23" fill="none" xmlns="http://www.w3.org/2000/svg">
<path d="M9.80001 11.7761C12.3317 13.759 12.875 17.3727 11.0377 20.0114C9.20034 22.65 5.62207 23.3946 2.88436 21.7084C0.145539 20.0218 -0.799371 16.492 0.73089 13.6638C2.26115 10.8357 5.73394 9.69485 8.64323 11.0646C9.05409 11.258 9.44192 11.4959 9.80001 11.7761Z" fill="#FD41AE"/>
<path d="M20.235 11.1692C22.9495 10.4393 25.7676 11.9266 26.6968 14.5801C27.6263 17.2325 26.3517 20.1532 23.7739 21.2745C21.1969 22.3974 18.1897 21.3419 16.8793 18.8543C15.5689 16.3667 16.3992 13.2912 18.7835 11.8008C19.2329 11.5198 19.7219 11.3072 20.235 11.1692Z" fill="#FD41AE"/>
<path d="M19.8879 13.6176C21.4667 14.1863 20.2518 15.9782 19.0338 16.442C17.4287 15.672 18.6131 14.0889 19.8879 13.6176Z" fill="#FEFEFE"/>
<path d="M8.64293 11.0646C9.77716 7.95513 12.6982 4.44231 15.0786 2.22278C15.7107 1.63261 20.3799 -1.08991 20.875 0.482736C20.8007 0.826989 20.3926 1.51185 20.1516 1.63781C18.6542 2.4227 17.6845 2.74553 16.2678 3.72084C18.0504 5.70002 19.4782 8.63095 20.2346 11.1692C19.7214 11.3073 19.2324 11.5198 18.7831 11.8008C17.4697 8.57328 16.8765 7.5448 15.125 4.47953C12.2796 7.18139 11.7245 8.36621 9.79971 11.7761C9.44162 11.4959 9.05379 11.258 8.64293 11.0646Z" fill="#02743B"/>
</svg>
