<svg width="38" height="28" viewBox="0 0 38 28" fill="none" xmlns="http://www.w3.org/2000/svg">
<path d="M2.48696 4.69587C-2.1168 6.96506 0.937144 21.4773 1.69188 26.1194C8.1894 30.6067 9.71817 25.5601 12.9349 20.2676C18.2962 28.8324 24.66 27.4814 32.4648 23.3218C41.2262 17.8273 38.5629 16.4981 31.5798 10.3888L32.3017 9.64949C39.4649 2.42681 23.7076 -7.39313 10.7937 8.6927C10.2222 8.11452 9.63552 7.55011 9.0367 6.99816C6.8003 4.95438 5.40763 4.56285 2.48696 4.69587ZM21.3656 15.4424C20.7798 16.296 19.6654 17.8143 19.2706 18.6948L19.0508 19.4948L18.5132 19.5929C17.2268 18.6539 16.3831 17.2271 16.1764 15.6488C16.0389 14.6299 16.2177 13.9506 16.7106 13.085C18.57 14.2387 19.3181 14.7535 21.3656 15.4424ZM27.7369 6.74235C26.4232 6.65399 24.6397 6.69938 23.6193 6.0334C23.5284 5.08801 23.5222 5.42162 24.1701 4.438C25.4668 4.38175 26.4531 4.25095 27.6825 4.70968C28.4195 5.51368 28.4314 5.7403 27.7369 6.74235Z" fill="#FE7F03"/>
<path d="M28.1447 14.8202C27.1732 15.8667 25.1495 19.1892 26.0732 20.5475L27.1487 20.3233C28.6569 19.7194 30.6707 18.6754 32.178 17.95C30.6751 16.626 29.8003 15.9443 28.1447 14.8202Z" fill="#FEEEC6"/>
<path d="M16.7108 13.0849C16.2179 13.9505 16.039 14.6298 16.1766 15.6487C16.3833 17.227 17.227 18.6539 18.5134 19.5928L19.051 19.4947L19.2708 18.6947C19.6655 17.8142 20.78 16.2959 21.3658 15.4424C19.3183 14.7534 18.5702 14.2387 16.7108 13.0849Z" fill="#FECA07" fill-opacity="0.878431"/>
<path d="M24.1698 4.43799C23.5219 5.42161 23.5281 5.08801 23.6189 6.03339C24.6394 6.69937 26.4229 6.65398 27.7366 6.74235C28.4311 5.7403 28.4192 5.51368 27.6822 4.70968C26.4528 4.25094 25.4665 4.38175 24.1698 4.43799Z" fill="#FE9B01" fill-opacity="0.0117647"/>
</svg>
