<svg width="95" height="93" viewBox="0 0 95 93" fill="none" xmlns="http://www.w3.org/2000/svg">
<path d="M5.95709 15.1371C-1.58418 18.0513 -0.443086 11.0499 1.23571 6.47147C2.00864 4.01272 4.25255 2.73363 6.69742 2.16906C11.8324 0.983057 18.7843 -1.24945 23.8506 0.894051L24.0229 0.612623C26.3717 0.447348 26.6741 8.48638 26.8601 10.1981C27.4733 10.1275 28.4034 10.0203 28.981 9.85374C30.0208 9.48526 33.6136 9.79761 34.8139 9.60393C35.7408 9.50233 37.6114 9.20779 38.4077 9.6655L38.4755 9.8285L38.3889 10.0001L38.4649 10.1708C38.8832 10.2841 39.2977 10.4129 39.7064 10.5569L40.9623 10.9926C41.0628 10.7318 41.1709 10.4742 41.2866 10.2199C42.4038 7.81214 46.1391 3.13773 48.5656 2.23379C52.8125 0.652109 61.7897 5.35825 65.6353 7.14557C66.969 8.04143 67.6515 8.50269 68.3273 10.0351C69.0376 12.7524 69.6072 16.4909 67.7977 18.9398C66.6136 20.5412 64.5269 19.8696 62.9923 19.2195C62.6468 20.6551 62.2651 21.6525 61.3521 22.8424C61.1752 23.0723 60.3823 24.0445 60.3455 24.2375C61.2907 25.0569 61.9004 25.6256 62.7745 26.5036C67.4513 25.6136 72.5665 27.3671 76.4129 29.9852C76.853 30.2856 77.2906 30.589 77.7275 30.8952C81.552 34.0505 83.0652 36.3774 85.6624 40.6008C86.0041 41.1695 87.1455 42.6587 86.4762 43.1184C85.7552 43.2179 85.0482 42.9242 84.3586 42.6933C85.448 43.5909 89.5487 47.5256 89.0596 48.9073C88.4958 49.2948 87.2222 49.0382 86.5326 48.9359C87.1407 49.6161 89.3307 52.6028 89.0339 53.4445C88.6207 53.7031 86.1045 53.4049 85.5018 53.329C86.4662 53.9106 89.1871 55.5591 88.5968 56.8653C88.0613 57.3405 87.1729 57.3418 86.4487 57.3388C86.4605 57.709 87.3055 58.8925 87.3521 59.5496C87.4861 61.4477 87.3702 63.5743 87.1317 65.4624C87.0776 66.569 86.9347 68.4267 86.7138 69.5199C88.2033 69.55 91.175 70.4138 91.1806 72.1634C91.186 74.0939 86.706 75.8275 85.2839 76.5058C81.0931 78.5034 76.9194 80.2235 72.4428 81.432C71.1744 81.7721 69.7275 82.2227 68.4341 82.4362C70.0233 85.0821 69.508 87.4725 66.8211 89.1847C65.5632 89.9871 64.0387 90.034 62.5895 89.8806C61.1716 91.2638 59.5519 92.1485 57.5182 92.1088C56.8605 92.0979 56.2077 91.9913 55.5808 91.7939C53.6379 92.8633 52.0958 93.3262 49.8849 92.6832C49.1801 92.4783 48.3386 92.225 48.3065 91.395C48.4601 91.0426 48.5664 90.9893 48.8715 90.7649C49.3263 90.7707 49.6376 91.1972 50.0127 91.3392C51.6544 91.9621 52.8104 91.7833 54.2098 90.9941C52.7773 89.9246 51.7847 87.9223 53.0332 86.339C53.1893 86.1459 53.35 85.9562 53.5165 85.7716C50.9844 86.3814 48.5723 86.5901 46.0518 87.0071C37.7145 88.3841 29.2727 88.8238 20.8831 87.6517C19.4449 87.4502 14.7134 87.1848 15.9086 84.6515C16.286 83.8512 16.7855 83.2026 17.6201 82.8616C18.199 80.9246 19.0115 81.16 19.535 80.1914C18.4126 78.4702 18.2103 70.4719 18.9313 68.3085C18.7821 68.1489 18.6339 67.9892 18.4854 67.8274C16.6381 65.8084 15.7708 63.5217 15.8948 60.7589C15.771 60.8434 15.6457 60.9255 15.5181 61.0051C14.8141 61.4416 13.1125 62.563 12.3482 62.38C12.2409 62.2593 12.2208 62.2438 12.1766 62.0824C11.4369 59.4353 11.7792 56.6028 13.1278 54.2079C11.5926 53.8449 7.90484 52.7793 8.79386 50.6037C8.54277 49.2086 8.8673 47.3611 9.51229 46.0887C8.92204 46.3979 5.63942 48.3378 5.27331 48.2846C4.57692 47.2656 5.50752 43.4691 5.81571 42.3241C5.22766 42.8754 3.38313 44.7037 2.76701 44.9366L2.63341 44.7954C2.29571 42.4722 3.47061 39.9082 4.6587 38.007C4.0605 38.3733 0.835175 40.6777 0.5128 40.6513C0.390917 40.3382 0.444827 40.0982 0.484581 39.7581C0.90967 36.1207 3.17065 33.1149 5.96676 30.8904C5.18752 31.1342 2.44756 31.8165 1.70592 31.7071L1.62539 31.5497C2.45769 29.3618 5.55794 26.9137 7.40041 25.5824C6.46809 25.8924 4.20464 26.4447 3.25978 26.1111C3.00833 25.8707 3.06564 26.0039 3.05677 25.6401C3.6955 24.1661 7.64018 21.9031 9.13053 21.2082C8.01714 20.7048 4.68469 21.5595 6.92122 19.0259C6.38667 17.6064 6.13721 16.6269 5.95709 15.1371ZM64.7454 50.1353C65.456 50.2835 66.2559 50.4342 66.9553 50.6025C65.3108 52.3361 63.2406 53.3451 60.9987 54.0703L64.41 56.3883C61.6431 58.5257 60.1342 58.67 56.8241 57.767C58.363 61.9776 57.8548 63.7049 55.0603 67.1867C53.6047 65.9762 52.1336 64.7831 50.6481 63.6093C48.9549 65.5036 46.8538 66.9211 44.9047 68.5443C42.8271 70.2747 42.4629 72.5333 41.3026 74.7673L40.8373 75.8748L40.4538 76.014L39.9511 76.0396C38.9572 75.9162 36.9468 75.4171 35.9621 75.1661C34.7395 74.7433 34.0936 74.5205 32.972 73.8876C32.8649 74.7071 32.7851 75.0727 32.5741 75.8592C32.388 76.5085 32.1557 77.4569 31.8107 78.0097C28.0667 80.1972 26.2346 81.7504 21.405 80.8196C20.8918 80.7204 19.9147 80.2701 19.535 80.1914C19.0115 81.16 18.199 80.9246 17.6201 82.8616C16.7855 83.2026 16.286 83.8512 15.9086 84.6515C14.7134 87.1848 19.4449 87.4502 20.8831 87.6517C29.2727 88.8238 37.7145 88.3841 46.0518 87.0071C48.5723 86.5901 50.9844 86.3814 53.5165 85.7716C53.35 85.9562 53.1893 86.1459 53.0332 86.339C51.7847 87.9223 52.7773 89.9246 54.2098 90.9941C52.8104 91.7833 51.6544 91.9621 50.0127 91.3392C49.6376 91.1972 49.3263 90.7707 48.8715 90.7649C48.5664 90.9893 48.4601 91.0426 48.3065 91.395C48.3386 92.225 49.1801 92.4783 49.8849 92.6832C52.0958 93.3262 53.6379 92.8633 55.5808 91.7939C56.2077 91.9913 56.8605 92.0979 57.5182 92.1088C59.5519 92.1485 61.1716 91.2638 62.5895 89.8806C64.0387 90.034 65.5632 89.9871 66.8211 89.1847C69.508 87.4725 70.0233 85.0821 68.4341 82.4362C69.7275 82.2227 71.1744 81.7721 72.4428 81.432C76.9194 80.2235 81.0931 78.5034 85.2839 76.5058C86.706 75.8275 91.186 74.0939 91.1806 72.1634C91.175 70.4138 88.2033 69.55 86.7138 69.5199C86.9347 68.4267 87.0776 66.569 87.1317 65.4624C87.3702 63.5743 87.4861 61.4477 87.3521 59.5496C87.3055 58.8925 86.4605 57.709 86.4487 57.3388C87.1729 57.3418 88.0613 57.3405 88.5968 56.8653C89.1871 55.5591 86.4662 53.9106 85.5018 53.329C86.1045 53.4049 88.6207 53.7031 89.0339 53.4445C89.3307 52.6028 87.1407 49.6161 86.5326 48.9359C87.2222 49.0382 88.4958 49.2948 89.0596 48.9073C89.5487 47.5256 85.448 43.5909 84.3586 42.6933C85.0482 42.9242 85.7552 43.2179 86.4762 43.1184C87.1455 42.6587 86.0041 41.1695 85.6624 40.6008C83.0652 36.3774 81.552 34.0505 77.7275 30.8952C77.2906 30.589 76.853 30.2856 76.4129 29.9852C72.5665 27.3671 67.4513 25.6136 62.7745 26.5036C68.4218 33.6115 70.146 42.3707 64.7454 50.1353Z" fill="#FEFEFE"/>
<path d="M62.7745 26.5037C67.4513 25.6138 72.5665 27.3673 76.4128 29.9853C76.853 30.2857 77.2905 30.5891 77.7275 30.8954C81.552 34.0507 83.0652 36.3776 85.6623 40.6009C86.0041 41.1697 87.1455 42.6588 86.4762 43.1186C85.7551 43.218 85.0481 42.9244 84.3586 42.6935C85.448 43.5911 89.5486 47.5257 89.0596 48.9074C88.4958 49.295 87.2222 49.0384 86.5326 48.936C87.1407 49.6163 89.3307 52.603 89.0339 53.4446C88.6207 53.7032 86.1045 53.4051 85.5018 53.3292C86.4661 53.9107 89.1871 55.5592 88.5968 56.8654C88.0612 57.3406 87.1729 57.342 86.4486 57.339C86.4605 57.7091 87.3055 58.8927 87.3521 59.5497C87.4861 61.4479 87.3701 63.5744 87.1316 65.4626C87.0776 66.5692 86.9346 68.4269 86.7138 69.52C88.2033 69.5502 91.1749 70.414 91.1806 72.1636C91.186 74.0941 86.706 75.8276 85.2839 76.506C81.093 78.5036 76.9194 80.2237 72.4428 81.4322C71.1744 81.7723 69.7274 82.2229 68.4341 82.4364C70.0232 85.0823 69.508 87.4726 66.8211 89.1849C65.5631 89.9873 64.0387 90.0341 62.5894 89.8808C61.1716 91.2639 59.5519 92.1487 57.5181 92.1089C56.8604 92.098 56.2077 91.9914 55.5807 91.794C53.6379 92.8635 52.0957 93.3263 49.8849 92.6834C49.18 92.4784 48.3385 92.2252 48.3065 91.3952C48.4601 91.0428 48.5663 90.9895 48.8715 90.765C49.3262 90.7708 49.6376 91.1973 50.0126 91.3394C51.6543 91.9622 52.8104 91.7834 54.2098 90.9943C52.7773 89.9248 51.7847 87.9224 53.0331 86.3392C53.1893 86.1461 53.3499 85.9563 53.5165 85.7718C50.9843 86.3815 48.5722 86.5903 46.0517 87.0073C37.7145 88.3843 29.2726 88.8239 20.8831 87.6518C19.4448 87.4503 14.7134 87.185 15.9085 84.6516C16.2859 83.8514 16.7854 83.2027 17.62 82.8618C18.199 80.9248 19.0115 81.1601 19.535 80.1916C19.9147 80.2702 20.8918 80.7206 21.405 80.8197C26.2345 81.7506 28.0667 80.1974 31.8107 78.0099C32.1557 77.457 32.388 76.5087 32.574 75.8594C32.7851 75.0729 32.8649 74.7072 32.9719 73.8878C34.0935 74.5206 34.7394 74.7435 35.9621 75.1662C36.9468 75.4173 38.9572 75.9163 39.9511 76.0397L40.4537 76.0141L40.8373 75.875L41.3026 74.7675C42.4629 72.5335 42.827 70.2748 44.9046 68.5445C46.8537 66.9213 48.9548 65.5037 50.6481 63.6095C52.1335 64.7832 53.6047 65.9763 55.0603 67.1869C57.8548 63.7051 58.3629 61.9778 56.8241 57.7672C60.1342 58.6701 61.6431 58.5258 64.4099 56.3884L60.9986 54.0705C63.2406 53.3452 65.3108 52.3363 66.9552 50.6026C66.2558 50.4343 65.4559 50.2837 64.7454 50.1355C70.1459 42.3709 68.4218 33.6116 62.7745 26.5037ZM72.2414 70.138C71.4408 72.5336 69.8189 73.4035 67.4124 73.8459C67.0781 73.909 66.8438 73.9036 66.5072 73.9104C66.1107 73.8343 65.8664 73.8364 65.4697 73.8269L64.855 73.7318C64.0931 73.5101 63.5726 73.1523 63.5422 72.313C63.6311 72.1501 63.6876 72.0477 63.7489 71.8697L63.79 71.7453C63.2915 72.1099 63.1944 72.2447 62.5302 72.1226C61.5728 71.9462 60.6709 71.5322 59.7096 71.2756C60.4032 72.8325 61.006 74.1543 60.9798 75.8934C59.6402 75.6691 57.9885 75.1488 56.7932 74.5027C55.6451 76.8522 53.3356 80.2645 51.5524 82.1459C49.5743 78.8517 43.9746 76.427 40.274 77.5852C40.3054 77.0985 40.6469 76.3531 40.8373 75.875L40.4537 76.0141L39.9511 76.0397C38.9572 75.9163 36.9468 75.4173 35.9621 75.1662C34.7394 74.7435 34.0935 74.5206 32.9719 73.8878C32.8649 74.7072 32.7851 75.0729 32.574 75.8594C32.388 76.5087 32.1557 77.457 31.8107 78.0099C28.0667 80.1974 26.2345 81.7506 21.405 80.8197C20.8918 80.7206 19.9147 80.2702 19.535 80.1916C19.0115 81.1601 18.199 80.9248 17.62 82.8618C16.7854 83.2027 16.2859 83.8514 15.9085 84.6516C14.7134 87.185 19.4448 87.4503 20.8831 87.6518C29.2726 88.8239 37.7145 88.3843 46.0517 87.0073C48.5722 86.5903 50.9843 86.3815 53.5165 85.7718C53.3499 85.9563 53.1893 86.1461 53.0331 86.3392C51.7847 87.9224 52.7773 89.9248 54.2098 90.9943C52.8104 91.7834 51.6543 91.9622 50.0126 91.3394C49.6376 91.1973 49.3262 90.7708 48.8715 90.765C48.5663 90.9895 48.4601 91.0428 48.3065 91.3952C48.3385 92.2252 49.18 92.4784 49.8849 92.6834C52.0957 93.3263 53.6379 92.8635 55.5807 91.794C56.2077 91.9914 56.8604 92.098 57.5181 92.1089C59.5519 92.1487 61.1716 91.2639 62.5894 89.8808C64.0387 90.0341 65.5631 89.9873 66.8211 89.1849C69.508 87.4726 70.0232 85.0823 68.4341 82.4364C69.7274 82.2229 71.1744 81.7723 72.4428 81.4322C76.9194 80.2237 81.093 78.5036 85.2839 76.506C86.706 75.8276 91.186 74.0941 91.1806 72.1636C91.1749 70.414 88.2033 69.5502 86.7138 69.52C86.9346 68.4269 87.0776 66.5692 87.1316 65.4626C83.5538 64.4791 79.8922 67.3062 77.3226 69.5598C77.2156 68.6814 77.7037 65.7372 77.8741 64.8001C76.0942 64.7952 74.411 64.4898 72.8683 63.5419C72.9066 64.5832 72.7981 65.2715 72.8053 66.1921C72.7034 67.0664 72.4706 69.3923 72.2414 70.138Z" fill="#1D3B5F"/>
<path d="M40.2741 77.5852C43.9747 76.4269 49.5743 78.8516 51.5525 82.1459C49.2107 84.6383 46.7726 85.8505 43.3784 85.826C41.896 85.816 41.9591 85.8794 40.5029 85.3481C39.9562 85.1397 39.8379 85.0927 39.3617 84.7606C36.7362 82.6545 38.8937 79.7399 40.2741 77.5852Z" fill="#FEFEFE"/>
<path d="M39.3614 84.7607C39.4925 84.0822 39.706 82.0744 40.5995 81.9581C40.7146 82.1198 40.7558 82.1996 40.6943 82.4372C40.3116 83.9355 40.2461 83.8422 40.5025 85.3482C39.9558 85.1398 39.8376 85.0928 39.3614 84.7607Z" fill="#F3EADF"/>
<path d="M77.3226 69.5598C79.8922 67.3062 83.5538 64.4791 87.1316 65.4625C87.0776 66.5692 86.9346 68.4269 86.7138 69.52C86.3216 71.3675 86.0486 72.3956 84.3472 73.5655C83.0693 74.4436 80.2789 75.0505 78.7677 74.7194C78.6758 74.6998 78.5855 74.6769 78.4955 74.65C78.182 74.622 77.9003 74.5499 77.5942 74.4834C75.1344 73.4189 76.3447 71.5533 77.2202 69.9702L77.3226 69.5598Z" fill="#FEFEFE"/>
<path d="M77.5945 74.4835C77.721 74.126 77.6603 74.0441 77.6468 73.6762C77.5927 72.2522 77.7534 72.022 78.7093 71.0717C78.4164 72.6234 78.0765 73.1289 78.4958 74.65C78.1823 74.622 77.9006 74.5499 77.5945 74.4835Z" fill="#F3EADF"/>
<path d="M19.5353 80.1914C19.915 80.2701 20.892 80.7204 21.4052 80.8196C26.2348 81.7504 28.0669 80.1972 31.8109 78.0097C31.7479 78.5416 31.6942 78.7103 31.5274 79.2244C30.5993 82.0787 30.344 83.5772 27.3574 85.1978C25.6555 86.1211 22.3911 86.627 20.5137 86.1313C19.9123 85.9624 19.75 85.9119 19.2072 85.614C19.0585 85.5119 18.9133 85.4063 18.7705 85.2962C17.8364 84.5717 17.7636 83.9832 17.6203 82.8616C18.1992 80.9246 19.0118 81.16 19.5353 80.1914Z" fill="#FEFEFE"/>
<path d="M19.207 85.6141C19.5966 85.2113 19.3667 83.0091 20.7429 82.3214L20.8891 82.4006C20.9877 83.0468 20.4242 83.7677 20.3538 84.4533C20.2928 85.0537 20.394 85.5479 20.5135 86.1314C19.9121 85.9625 19.7498 85.912 19.207 85.6141Z" fill="#F3EADF"/>
<path d="M64.2045 68.9486C65.7704 68.1639 67.2988 67.2978 68.8828 66.5396C70.3677 65.8286 71.2493 65.7212 72.8057 66.1921C72.7038 67.0663 72.4711 69.3922 72.2418 70.138C71.4413 72.5335 69.8194 73.4035 67.4129 73.8459C67.0786 73.909 66.8443 73.9036 66.5077 73.9104C66.1111 73.8342 65.8668 73.8363 65.4701 73.8269L64.8555 73.7318C64.0935 73.5101 63.573 73.1522 63.5426 72.3129C63.6315 72.15 63.688 72.0476 63.7493 71.8697L63.7904 71.7453L63.4992 70.5881C63.9534 70.0079 64.3491 69.7204 64.2045 68.9486Z" fill="#FEFEFE"/>
<path d="M64.8552 73.7318C64.9057 72.5883 64.4793 72.2922 65.1619 71.1301L65.331 71.0169L65.2173 71.0612L65.3885 71.077C65.5975 71.7926 65.2963 72.7129 65.4698 73.8269L64.8552 73.7318Z" fill="#F3EADF"/>
<path d="M66.7105 72.4612C66.9248 72.0006 67.0057 71.7844 67.3383 71.3992L67.4734 71.3901C67.5624 72.3642 67.2001 72.5103 67.4127 73.8459C67.0785 73.909 66.8442 73.9036 66.5075 73.9104C67.0363 73.5656 66.7737 73.0803 66.7105 72.4612Z" fill="#F3EADF"/>
<path d="M77.8743 64.8001C80.518 64.2 82.316 62.8985 84.0931 60.8957C84.7464 59.9976 85.843 58.9 85.8683 57.7501C85.8719 57.5576 85.4427 57.2083 85.3013 57.1011L85.4965 57.1155L85.4379 57.0949L85.5397 57.2423L85.6368 57.1409C85.958 57.2476 86.1135 57.2799 86.4488 57.339C86.4607 57.7091 87.3057 58.8926 87.3523 59.5497C87.4863 61.4479 87.3703 63.5744 87.1318 65.4625C83.554 64.4791 79.8924 67.3062 77.3228 69.5598C77.2158 68.6813 77.7039 65.7372 77.8743 64.8001Z" fill="#152638"/>
<path d="M62.4647 67.8158C63.5537 68.3111 63.8687 67.7132 64.2039 68.9487C64.3485 69.7204 63.9527 70.0079 63.4986 70.5882C63.151 69.7295 62.8313 68.7333 62.4647 67.8158Z" fill="#FECA07"/>
<path d="M40.9622 10.9926C41.0628 10.7318 41.1709 10.4742 41.2865 10.2199C42.4037 7.81209 46.139 3.13768 48.5656 2.23374C52.8125 0.652059 61.7897 5.3582 65.6352 7.14552C66.969 8.04138 67.6515 8.50264 68.3273 10.0351C69.0375 12.7524 69.6072 16.4908 67.7976 18.9397C66.6136 20.5411 64.5269 19.8695 62.9923 19.2195C62.6467 20.6551 62.265 21.6525 61.3521 22.8424C61.1751 23.0723 60.3823 24.0445 60.3454 24.2375C59.9938 24.4553 59.7148 24.7462 59.4126 25.0307C59.043 25.3915 58.7523 25.6178 58.3439 25.9359C58.8992 26.4926 59.5152 26.9755 60.0847 27.5397C61.3715 28.8388 62.5459 30.2441 63.5973 31.7404C62.2621 31.4638 61.2815 31.3691 59.915 31.2889C61.797 33.0466 63.9263 34.8353 65.0807 37.1492L65.0668 37.3469C64.6307 37.581 60.991 36.8539 60.3348 36.7312C62.2047 38.5767 64.1648 40.7214 63.729 43.5826L63.6201 43.6654C63.2929 43.5734 60.1013 41.6433 59.3997 41.2705C60.0109 43.0749 61.2407 46.3806 61.0701 48.2362L60.9395 48.3494C60.492 48.237 57.2068 45.9573 56.5467 45.5314C57.0924 47.0664 57.583 48.4352 57.8175 50.0518C56.2742 49.1947 54.8793 48.1739 53.3779 47.2585C53.642 48.0659 54.7036 51.0098 54.4738 51.6304C53.6484 52.114 49.7614 51.2539 48.7366 50.9978C47.3399 50.6483 46.6719 50.1353 45.4614 49.3946L44.5794 48.972C43.5913 48.5696 38.446 47.095 38.1925 46.5078C38.8304 46.2244 40.8533 46.678 41.5975 46.835C41.1893 40.6864 37.9547 39.6458 35.9087 34.4834C35.3297 33.0235 35.503 29.5417 35.5852 27.9067C35.8589 22.4918 37.0752 15.335 39.7063 10.5568L40.9622 10.9926Z" fill="#1D3B5F"/>
<path d="M40.9619 10.9926C41.0625 10.7318 41.1706 10.4742 41.2862 10.22C42.4034 7.81215 46.1387 3.13773 48.5652 2.2338C52.8122 0.652115 61.7894 5.35826 65.6349 7.14558C66.9687 8.04144 67.6512 8.5027 68.3269 10.0351C69.0372 12.7524 69.6069 16.4909 67.7973 18.9398C66.6133 20.5412 64.5265 19.8696 62.992 19.2195C62.6464 20.6551 62.2647 21.6525 61.3518 22.8424C61.1748 23.0723 60.382 24.0445 60.3451 24.2375C59.9935 24.4554 59.7145 24.7462 59.4123 25.0308C59.0733 24.9403 56.4742 21.9557 56.3574 21.6475C54.1908 19.6089 51.8673 17.4069 49.4038 15.7422C48.4514 15.0985 47.494 14.4824 46.5529 13.8196C44.6951 12.6908 42.6979 11.9624 40.9619 10.9926Z" fill="#152638"/>
<path d="M51.1184 7.68274C52.9569 9.23662 54.6803 12.0034 56.2344 13.8798C57.142 14.9748 58.2744 15.8829 59.1563 16.8873C58.6826 18.1414 57.3147 20.7247 56.3578 21.6475C54.1911 19.609 51.8677 17.407 49.4041 15.7422C48.4517 15.0985 47.4944 14.4825 46.5533 13.8196C47.7439 11.7342 49.1283 9.12594 51.1184 7.68274Z" fill="#FD83AB"/>
<path d="M44.5797 48.9722C44.8281 48.5369 44.6946 48.6314 45.066 48.4855C45.5539 48.5573 46.0625 48.7475 46.5411 48.893L46.6084 49.0456C46.2373 49.2683 45.8967 49.1803 45.4617 49.3948L44.5797 48.9722Z" fill="#152638"/>
<path d="M47.097 37.9545C52.799 36.9438 55.1309 43.194 49.5018 45.2135C47.2913 45.6692 44.805 44.9552 44.0611 42.6145C43.7782 41.729 43.8629 40.767 44.296 39.9446C44.9035 38.8076 45.9178 38.3029 47.097 37.9545Z" fill="#FD83AB"/>
<path d="M40.7578 31.9177C45.2648 31.6236 46.1139 37.5838 42.4393 38.6526C41.5944 38.7554 40.8847 38.7345 40.1118 38.3248C39.3296 37.9002 38.7491 37.1812 38.4992 36.327C37.9151 34.3863 38.7518 32.4831 40.7578 31.9177Z" fill="#1D1D1D"/>
<path d="M40.6228 32.686C41.6804 32.6128 42.2717 33.6067 41.2621 34.2382C40.0081 34.1804 39.6365 33.5606 40.6228 32.686Z" fill="#FEFEFE"/>
<path d="M44.2291 28.9669L44.0181 29.0604C43.2603 28.8349 42.0662 28.6151 41.2056 28.6658C40.4626 28.7091 38.7693 29.5229 37.9503 29.3364C37.8267 29.3077 37.7996 29.149 37.7379 29.0037C38.974 28.1744 43.8135 26.622 44.2291 28.9669Z" fill="#152638"/>
<path d="M5.95709 15.1371C-1.58418 18.0513 -0.443085 11.0499 1.23571 6.47147C2.00864 4.01272 4.25255 2.73363 6.69742 2.16906C11.8324 0.983057 18.7843 -1.24945 23.8506 0.894051L24.0229 0.612622C26.3717 0.447347 26.6741 8.48638 26.8601 10.1981C27.4733 10.1275 28.4034 10.0203 28.981 9.85374C27.7871 12.5056 26.8992 14.4925 26.479 17.431C26.271 18.9822 26.1659 20.5452 26.1641 22.11C26.1735 25.1157 26.495 27.9917 25.8261 30.9504C25.1355 34.0074 23.2505 35.1733 20.9014 36.8865C18.8696 38.3685 15.7629 41.899 16.1148 44.5315C16.474 44.6011 16.7472 44.6097 17.0021 44.8547L17.0405 45.0711C16.7704 45.3401 16.5922 45.3449 16.194 45.3458C16.1343 45.3457 16.0736 45.3447 16.0136 45.3428C15.8271 45.5219 15.8105 45.6953 15.746 45.9397C15.9527 46.884 16.692 46.4937 17.1195 47.0885C16.8128 47.7484 15.2044 47.7683 14.52 47.8422C12.2119 48.0913 10.4374 48.9782 8.79386 50.6037C8.54277 49.2086 8.8673 47.3611 9.5123 46.0887C8.92204 46.3979 5.63942 48.3378 5.27331 48.2846C4.57692 47.2656 5.50752 43.4691 5.81571 42.3241C5.22766 42.8754 3.38313 44.7037 2.76701 44.9366L2.63341 44.7954C2.29571 42.4722 3.47061 39.9082 4.6587 38.007C4.0605 38.3733 0.835175 40.6777 0.5128 40.6513C0.390917 40.3382 0.444827 40.0982 0.484581 39.7581C0.90967 36.1207 3.17066 33.1149 5.96676 30.8904C5.18752 31.1342 2.44756 31.8165 1.70592 31.7071L1.62539 31.5497C2.45769 29.3618 5.55794 26.9137 7.40041 25.5824C6.46809 25.8924 4.20464 26.4447 3.25978 26.1111C3.00833 25.8707 3.06564 26.0039 3.05677 25.6401C3.6955 24.1661 7.64018 21.9031 9.13053 21.2082C8.01714 20.7048 4.68469 21.5595 6.92122 19.0259C6.38667 17.6064 6.13721 16.6269 5.95709 15.1371Z" fill="#1D3B5F"/>
<path d="M5.95724 15.1372C-1.58403 18.0513 -0.442929 11.0499 1.23587 6.47149C2.00879 4.01274 4.25271 2.73365 6.69758 2.16907C11.8326 0.983075 18.7844 -1.24943 23.8508 0.894069L24.023 0.61264C26.3719 0.447366 26.6743 8.4864 26.8603 10.1981C25.6442 10.1914 23.3697 11.2335 22.1656 11.645C21.8107 11.7663 20.8113 12.2964 20.5003 12.0957C20.4155 12.2185 17.1493 13.9907 16.602 14.4619C16.1882 14.8182 13.0815 17.0153 12.8304 17.0732C12.7262 17.8982 9.96188 20.7566 9.13068 21.2082C8.0173 20.7048 4.68485 21.5595 6.92138 19.026C6.38682 17.6064 6.13736 16.6269 5.95724 15.1372Z" fill="#152638"/>
<path d="M9.7162 13.3157C11.4682 12.0991 12.6853 11.1786 14.2829 9.7877C15.3241 8.88103 17.6008 6.75761 18.7 6.07027C19.8984 7.96112 20.0934 9.96994 20.5 12.0958C20.4152 12.2186 17.149 13.9909 16.6017 14.462C16.1879 14.8183 13.0812 17.0154 12.8301 17.0733C12.2801 17.1679 11.6146 17.3344 11.0607 17.4568C10.3489 15.8255 10.0079 15.0987 9.7162 13.3157Z" fill="#FD83AB"/>
<path d="M16.0135 45.3427C14.97 45.1042 11.7101 45.5318 11.3782 45.245C11.8741 44.6336 15.3322 44.3616 16.1147 44.5314C16.4738 44.601 16.747 44.6096 17.002 44.8546L17.0404 45.071C16.7702 45.34 16.592 45.3448 16.1939 45.3458C16.1342 45.3456 16.0734 45.3447 16.0135 45.3427Z" fill="#152638"/>
<path d="M11.1562 35.3361C13.1052 35.0654 15.2495 35.9264 15.9141 37.8916C16.1958 38.7281 16.1263 39.6433 15.7209 40.4275C15.1768 41.482 14.3126 42.0236 13.2156 42.3605C7.47918 43.3467 6.41918 36.8729 11.1562 35.3361Z" fill="#FD83AB"/>
<path d="M18.8818 30.0069C22.7535 29.3439 23.769 34.8827 20.1331 36.4065C19.4368 36.5158 18.8427 36.6466 18.1541 36.388C16.4937 35.7689 16.103 33.5932 16.6957 32.0936C17.1417 30.9651 17.8046 30.4761 18.8818 30.0069Z" fill="#1D1D1D"/>
<path d="M19.976 30.8814C20.3433 30.7347 20.7616 30.9025 20.9256 31.2627C21.0896 31.6229 20.9419 32.0483 20.5898 32.2292C20.3467 32.354 20.0547 32.3351 19.8294 32.1799C19.605 32.0246 19.4834 31.7584 19.5146 31.4868C19.5448 31.2154 19.7223 30.9827 19.976 30.8814Z" fill="#FEFEFE"/>
<path d="M17.3215 27.511L17.1849 27.3413C17.0724 26.9294 17.2685 26.4665 17.6665 26.3453C19.2464 25.8622 21.5125 26.8338 22.9193 27.4008C23.246 27.6134 23.1641 27.4981 23.3083 27.8297C22.8727 28.4889 20.7476 27.2274 19.8209 27.1991C18.6482 27.1633 18.4944 27.1573 17.3215 27.511Z" fill="#152638"/>
<path d="M20.2293 69.7703C20.9958 68.7573 21.5389 67.5948 22.3141 66.5384C22.8813 69.9896 24.4629 72.5447 27.8801 73.7856C27.6544 72.4236 27.6455 71.5052 27.5845 70.1358C29.6917 71.8989 30.4821 72.5539 32.972 73.8879C32.865 74.7073 32.7852 75.073 32.5741 75.8595C32.3881 76.5088 32.1558 77.4571 31.8108 78.01C28.0668 80.1975 26.2346 81.7507 21.4051 80.8199C20.8919 80.7207 19.9148 80.2704 19.5351 80.1917C18.4126 78.4705 18.2103 70.4722 18.9313 68.3088C19.355 68.8034 19.7876 69.2906 20.2293 69.7703Z" fill="#152638"/>
<path d="M38.8208 72.3974C39.7724 73.28 40.1033 74.0128 41.3027 74.7675L40.8374 75.8749L40.4539 76.0141L39.9512 76.0397C39.9215 75.8743 39.5953 75.2409 39.4991 75.0096C39.091 74.0307 38.9756 73.4203 38.8208 72.3974Z" fill="#F3EADF"/>
<path d="M24.6191 41.0036C26.8304 40.4931 31.001 40.9853 32.1275 43.227C32.3875 43.736 32.4285 44.3284 32.2424 44.8687C31.8502 46.0196 30.7736 46.7909 29.7394 47.3111C24.0615 49.4168 18.8173 43.0516 24.6191 41.0036Z" fill="#152638"/>
<path d="M37.9078 48.3678C39.1676 48.1868 42.3515 50.1194 43.2434 51.0682C43.5317 51.3744 43.525 51.5188 43.506 51.8925C42.9582 51.886 38.0772 48.8516 37.9078 48.3678Z" fill="#1D1D1D"/>
<path d="M82.2962 27.3328C83.1236 24.4942 82.9569 23.2766 81.9957 20.6118C81.8941 20.3315 82.1235 20.1076 82.3615 19.9549C83.3263 19.8427 84.7019 20.721 85.441 21.2832C87.327 22.716 88.3129 24.8894 88.5792 27.2062C88.7307 28.5253 88.5632 29.2102 88.2198 30.4372C89.0715 29.5614 89.9646 28.3464 90.6539 27.317C91.157 26.5641 91.2094 25.1489 91.9717 24.8317C92.2806 24.8894 92.4585 25.0112 92.6209 25.2932C94.6926 28.8952 93.199 32.9245 90.3824 35.568C91.0081 35.392 91.739 35.1621 92.3417 34.9877C92.9212 34.8201 94.5049 33.9989 94.861 34.0418C95.7292 35.4753 92.2943 38.9399 91.0831 39.6626C89.4539 40.6326 87.5235 40.9667 85.6624 40.6007C83.0653 36.3774 81.5521 34.0505 77.7276 30.8952C78.4832 30.1884 78.9602 29.7404 79.4108 28.7646C79.6277 28.288 79.78 27.785 79.8645 27.2684C79.9713 26.6232 79.8751 25.0994 80.2765 24.7957C80.9381 24.8732 81.9764 26.7757 82.2962 27.3328Z" fill="#152638"/>
</svg>
