<svg width="155" height="143" viewBox="0 0 155 143" fill="none" xmlns="http://www.w3.org/2000/svg">
<path d="M51.0873 9.175C50.8824 8.48202 49.1886 5.63576 49.716 5.15615C52.6395 2.50323 60.976 1.76918 64.7706 0.852952C72.4169 -0.99403 74.0715 -0.235137 71.7478 7.08476C74.6442 6.38374 87.2334 5.64661 90.4914 5.52792C95.5548 5.34356 137.333 2.70019 140.723 3.89058C141.884 7.23017 142.387 11.8809 142.984 15.4739L145.847 32.0404C147.511 41.4929 155.905 119.837 154.193 123.117C149.733 126.232 102.509 129.81 95.8089 130.849C84.9648 132.542 74.1327 134.3 63.3127 136.123H34.6932C32.0681 136.556 24.6983 142.857 22.3233 143C20.9911 138.503 19.1617 136.953 15.5842 133.938C15.2496 131.218 13.5859 125.47 13.1097 123.117C10.9427 112.356 -2.72629 26.598 0.486557 20.2775C5.78805 15.3253 41.7472 10.1155 51.0873 9.175ZM58.589 4.35769L60.0628 7.06345C60.1984 7.05079 60.3311 7.0381 60.4637 7.02542C62.6217 4.81284 64.4451 6.32693 67.025 7.47386C67.6368 6.16773 68.7248 4.02073 69.0835 2.71768L68.544 2.61054C65.6898 3.205 61.5215 3.96581 58.589 4.35769Z" fill="#FE9B01"/>
<path d="M51.194 9.95736C50.9886 9.20529 49.2912 6.11632 49.8198 5.59582C52.7494 2.71668 61.1034 1.92004 64.9058 0.925685C72.5682 -1.07879 74.2263 -0.255188 71.8977 7.68889C71.4356 9.00096 71.0973 10.4284 70.1097 11.3558C68.1435 12.0563 65.7153 10.0164 63.743 11.2004C63.4138 12.5268 63.4441 13.437 62.5108 14.0826C60.9614 13.751 60.2456 12.6054 59.2731 11.3877C58.0227 14.2477 57.9321 14.5348 55.2743 16.0822C53.6917 13.9633 52.5893 12.2057 51.194 9.95736ZM58.7113 4.72928L60.1882 7.66576C60.3241 7.65202 60.457 7.63825 60.5899 7.62448C62.7524 5.22324 64.5796 6.86643 67.165 8.11117C67.7781 6.69366 68.8684 4.36359 69.2278 2.94942L68.6872 2.83314C65.827 3.47829 61.65 4.30398 58.7113 4.72928Z" fill="#1D1D1D"/>
<path d="M17.6399 34.1768L22.4808 41.0851L19.8419 41.4195L16.393 36.1412L15.1582 38.0899L15.6475 41.951L13.1475 42.2678L11.6127 30.1567L14.1127 29.8399L14.7358 34.7565L18.1683 29.3259L20.9461 28.9739L17.6399 34.1768ZM24.2853 28.5508L25.82 40.6619L23.32 40.9787L21.7853 28.8676L24.2853 28.5508ZM33.1137 36.1814C33.3405 36.783 33.6938 37.2322 34.1735 37.5289C34.6614 37.8151 35.2896 37.9096 36.0581 37.8122C36.4285 37.7652 36.8375 37.6523 37.2852 37.4732C37.7422 37.293 38.1503 36.9873 38.5096 36.556C38.4359 37.4591 38.1112 38.1635 37.5356 38.6692C36.9692 39.1738 36.2138 39.4859 35.2693 39.6056C33.9082 39.7781 32.8051 39.5368 31.9601 38.8819C31.115 38.2269 30.6074 37.2281 30.4373 35.8855C30.3246 34.9966 30.3887 34.203 30.6295 33.5045C30.8795 32.8048 31.2884 32.245 31.8561 31.825C32.4226 31.3957 33.1133 31.1294 33.9281 31.0261C34.9929 30.8912 35.9455 31.1327 36.7858 31.7506C37.6343 32.3581 38.1788 33.6109 38.4193 35.5091L33.1137 36.1814ZM34.1254 32.6946C33.7272 32.745 33.4167 32.9302 33.1938 33.2501C32.9802 33.5688 32.8692 33.9921 32.8608 34.52L35.7914 34.1486C35.6643 33.5909 35.4454 33.2 35.1348 32.9759C34.8322 32.7414 34.4958 32.6476 34.1254 32.6946ZM43.35 29.8321C43.6185 29.7981 43.9148 29.7982 44.2391 29.8324C44.5725 29.8654 44.8534 29.9286 45.0816 30.022L44.9053 31.5261C44.7767 31.4765 44.618 31.4496 44.4293 31.4453C44.2394 31.4317 44.0704 31.4343 43.9223 31.4531C43.589 31.4953 43.2581 31.6313 42.9297 31.8611C42.6013 32.0909 42.331 32.4074 42.1186 32.8106C41.9063 33.2138 41.796 33.6794 41.7876 34.2073L42.3403 38.5684L39.8403 38.8852L38.7842 30.5519L41.2842 30.235L41.3634 30.86C41.576 30.6073 41.8679 30.3869 42.2392 30.1987C42.6094 30.0013 42.9796 29.8791 43.35 29.8321ZM51.4357 32.3073L55.1562 36.9443L52.5173 37.2787L50.1416 34.1224L49.1576 35.4889L49.4339 37.6695L46.9339 37.9863L45.3991 25.8751L47.8992 25.5583L48.7774 32.4889L51.3223 28.963L54.1001 28.611L51.4357 32.3073ZM57.3108 33.1151C57.5376 33.7167 57.8909 34.1658 58.3706 34.4625C58.8585 34.7488 59.4867 34.8432 60.2552 34.7458C60.6256 34.6989 61.0346 34.5859 61.4823 34.4069C61.9393 34.2267 62.3474 33.9209 62.7067 33.4897C62.633 34.3928 62.3083 35.0972 61.7327 35.6029C61.1663 36.1074 60.4109 36.4195 59.4664 36.5392C58.1053 36.7117 57.0022 36.4705 56.1572 35.8155C55.3121 35.1606 54.8045 34.1618 54.6344 32.8192C54.5218 31.9303 54.5858 31.1366 54.8266 30.4381C55.0766 29.7385 55.4855 29.1786 56.0532 28.7586C56.6197 28.3293 57.3104 28.063 58.1252 27.9598C59.19 27.8248 60.1426 28.0663 60.9829 28.6843C61.8314 29.2917 62.3759 30.5446 62.6164 32.4427L57.3108 33.1151ZM58.3225 29.6282C57.9243 29.6787 57.6138 29.8638 57.3909 30.1837C57.1773 30.5024 57.0663 30.9258 57.058 31.4537L59.9885 31.0823C59.8614 30.5245 59.6425 30.1336 59.3319 29.9095C59.0293 29.6751 58.6929 29.5813 58.3225 29.6282ZM68.0887 26.6972C68.8202 26.6045 69.4867 26.7411 70.0881 27.107C70.6988 27.4718 71.074 28.2052 71.2136 29.307L71.9124 34.8209L69.4124 35.1377L68.6996 29.5127C68.6327 28.9849 68.4694 28.6246 68.2098 28.4317C67.9501 28.2388 67.6629 28.1623 67.3481 28.2022C66.9777 28.2491 66.6539 28.4407 66.3766 28.7769C66.0982 29.1038 65.92 29.5168 65.8422 30.0159L66.5374 35.5021L64.0374 35.8189L62.9813 27.4855L65.4813 27.1687L65.645 28.4604C65.7648 28.0689 66.0333 27.7009 66.4506 27.3563C66.876 27.0014 67.4221 26.7816 68.0887 26.6972ZM77.3525 25.5232C78.084 25.4305 78.7505 25.5671 79.3519 25.9331C79.9626 26.2979 80.3378 27.0312 80.4774 28.1331L81.1762 33.647L78.6762 33.9638L77.9634 28.3388C77.8965 27.811 77.7332 27.4507 77.4736 27.2578C77.2139 27.0649 76.9267 26.9884 76.6119 27.0283C76.2415 27.0752 75.9177 27.2668 75.6404 27.603C75.362 27.9299 75.1838 28.3429 75.106 28.842L75.8012 34.3281L73.3012 34.6449L72.2451 26.3116L74.7451 25.9948L74.9088 27.2864C75.0286 26.8949 75.2971 26.5269 75.7144 26.1824C76.1398 25.8274 76.6859 25.6077 77.3525 25.5232ZM84.8452 26.4083L85.25 29.6027C85.3685 30.5379 85.5549 31.2669 85.8094 31.7898C86.0649 32.3218 86.4464 32.6969 86.9539 32.9148C86.6599 32.9709 86.4481 33.0071 86.3185 33.0235C85.1704 33.169 84.3209 32.9615 83.77 32.401C83.2284 31.8393 82.8743 30.901 82.7077 29.5862L82.3451 26.7251L81.3035 26.8571L81.0923 25.1904L82.1339 25.0584L81.8383 22.7251L84.3383 22.4083L84.6339 24.7416L86.2173 24.541L86.4285 26.2076L84.8452 26.4083ZM22.0065 49.814L20.2569 58.5028L17.5347 58.8478L13.6731 50.87L15.7564 50.606L18.3372 55.9378L19.5065 50.1308L22.0065 49.814ZM25.8527 46.7441C25.5243 46.9738 25.2307 47.2556 24.972 47.5895C24.7132 47.9233 24.5222 48.2721 24.399 48.6358C23.9266 47.9524 23.303 47.4858 22.5281 47.2359C23.1974 46.6525 23.6895 46.0068 24.0043 45.299C24.4593 45.9939 25.0754 46.4756 25.8527 46.7441ZM25.772 49.3368L26.828 57.6701L24.328 57.9869L23.272 49.6536L25.772 49.3368ZM32.0123 55.3903C32.3272 55.3504 32.573 55.2487 32.7498 55.0851C32.9371 54.9297 33.0178 54.7501 32.992 54.5464C32.9568 54.2686 32.7649 54.0531 32.4162 53.8997C32.0663 53.737 31.6192 53.5867 31.0748 53.4487C30.3371 53.2694 29.7817 53.1187 29.4088 52.9966C29.0346 52.8653 28.6939 52.6638 28.3867 52.3923C28.0783 52.1115 27.8935 51.7304 27.8325 51.2489C27.7398 50.5174 27.979 49.9179 28.5501 49.4504C29.1293 48.9725 29.9143 48.6707 30.905 48.5452C31.8032 48.4314 32.6073 48.5035 33.3174 48.7616C34.0263 49.0105 34.5596 49.4697 34.9173 50.1394L32.9043 50.959C32.7567 50.6108 32.5306 50.3854 32.2259 50.2829C31.9213 50.1804 31.6023 50.1502 31.269 50.1925C30.9727 50.23 30.7338 50.3121 30.5522 50.4385C30.3788 50.5546 30.3044 50.7099 30.329 50.9043C30.3501 51.071 30.4366 51.1964 30.5884 51.2807C30.7495 51.3638 31.0101 51.453 31.3703 51.5485C31.7108 51.6371 31.9244 51.69 32.0113 51.7072C32.8069 51.898 33.4173 52.0747 33.8425 52.2372C34.2757 52.3893 34.6378 52.6115 34.9289 52.9039C35.2292 53.1951 35.4105 53.5861 35.4727 54.0768C35.5748 54.8824 35.3218 55.5589 34.7138 56.1063C34.1058 56.6538 33.2601 56.9961 32.1768 57.1334C31.2694 57.2484 30.4253 57.1578 29.6445 56.8616C28.8649 56.5747 28.2799 55.9668 27.8893 55.0378L30.0499 54.2701C30.2243 54.6808 30.4888 54.9859 30.8433 55.1856C31.206 55.3749 31.5957 55.4431 32.0123 55.3903ZM43.5745 47.0808L44.6306 55.4141L42.1306 55.7309L41.9669 54.4393C41.8472 54.8308 41.574 55.1994 41.1474 55.5451C40.7312 55.8988 40.1898 56.118 39.5232 56.2025C38.7917 56.2952 38.1206 56.1591 37.5099 55.7943C36.9084 55.4284 36.5379 54.6945 36.3983 53.5926L35.6995 48.0787L38.1995 47.7619L38.9124 53.3869C38.9792 53.9147 39.1425 54.275 39.4021 54.4679C39.6618 54.6608 39.949 54.7373 40.2638 54.6974C40.6342 54.6505 40.958 54.4589 41.2353 54.1227C41.5137 53.7958 41.6919 53.3828 41.7698 52.8837L41.0745 47.3976L43.5745 47.0808ZM47.7564 51.4618C47.9832 52.0634 48.3364 52.5125 48.8162 52.8092C49.3041 53.0955 49.9322 53.19 50.7008 53.0926C51.0711 53.0456 51.4802 52.9326 51.9279 52.7536C52.3849 52.5734 52.793 52.2677 53.1523 51.8364C53.0786 52.7395 52.7539 53.4439 52.1782 53.9496C51.6118 54.4542 50.8564 54.7663 49.912 54.886C48.5509 55.0584 47.4478 54.8172 46.6027 54.1623C45.7577 53.5073 45.2501 52.5085 45.08 51.1659C44.9673 50.277 45.0314 49.4833 45.2721 48.7849C45.5222 48.0852 45.931 47.5254 46.4987 47.1053C47.0652 46.676 47.7559 46.4098 48.5707 46.3065C49.6356 46.1716 50.5881 46.4131 51.4285 47.031C52.2769 47.6385 52.8214 48.8913 53.062 50.7894L47.7564 51.4618ZM48.7681 47.9749C48.3699 48.0254 48.0594 48.2106 47.8365 48.5305C47.6229 48.8492 47.5119 49.2725 47.5035 49.8004L50.4341 49.429C50.3069 48.8713 50.0881 48.4803 49.7774 48.2563C49.4749 48.0218 49.1384 47.928 48.7681 47.9749ZM56.7189 51.7654C56.7799 52.2469 56.8946 52.6322 57.063 52.9214C57.2418 53.2186 57.4916 53.4456 57.8126 53.6025C57.2965 53.762 56.8718 53.8629 56.5385 53.9051C55.8718 53.9896 55.3414 53.8875 54.9473 53.5987C54.5532 53.31 54.3081 52.786 54.2119 52.0267L52.9482 42.0545L55.4482 41.7376L56.7189 51.7654ZM61.1813 51.2C61.2423 51.6814 61.357 52.0667 61.5253 52.3559C61.7041 52.6531 61.954 52.8801 62.2749 53.037C61.7589 53.1965 61.3342 53.2974 61.0008 53.3396C60.3342 53.4241 59.8038 53.322 59.4097 53.0332C59.0156 52.7445 58.7705 52.2205 58.6742 51.4612L57.4105 41.489L59.9105 41.1722L61.1813 51.2ZM65.1447 49.2583C65.3714 49.8599 65.7247 50.309 66.2045 50.6057C66.6923 50.892 67.3205 50.9864 68.089 50.8891C68.4594 50.8421 68.8685 50.7291 69.3162 50.5501C69.7731 50.3699 70.1813 50.0641 70.5406 49.6329C70.4669 50.536 70.1422 51.2404 69.5665 51.7461C69.0001 52.2507 68.2447 52.5628 67.3003 52.6825C65.9391 52.8549 64.8361 52.6137 63.991 51.9587C63.146 51.3038 62.6384 50.305 62.4682 48.9624C62.3556 48.0735 62.4197 47.2798 62.6604 46.5814C62.9104 45.8817 63.3193 45.3219 63.887 44.9018C64.4535 44.4725 65.1442 44.2063 65.959 44.103C67.0238 43.9681 67.9764 44.2096 68.8168 44.8275C69.6652 45.435 70.2097 46.6878 70.4502 48.5859L65.1447 49.2583ZM66.1563 45.7714C65.7582 45.8219 65.4477 46.0071 65.2248 46.327C65.0112 46.6457 64.9002 47.069 64.8918 47.5969L67.8224 47.2255C67.6952 46.6677 67.4763 46.2768 67.1657 46.0528C66.8632 45.8183 66.5267 45.7245 66.1563 45.7714ZM80.699 49.15C81.236 49.0819 81.6767 48.8849 82.0212 48.559C82.3644 48.2239 82.5085 47.8387 82.4533 47.4036C82.4146 47.098 82.2834 46.8418 82.0596 46.635C81.8358 46.4281 81.5751 46.2636 81.2773 46.1414C80.9796 46.0192 80.5962 45.889 80.1271 45.7509L79.8335 45.6611L79.1889 45.4746C78.3794 45.248 77.7208 45.0256 77.2134 44.8077C76.706 44.5898 76.2563 44.2704 75.8643 43.8497C75.4723 43.429 75.2323 42.8714 75.1443 42.177C75.0129 41.1399 75.2911 40.3285 75.9789 39.7427C76.6759 39.1558 77.6865 38.7784 79.0106 38.6106C80.2606 38.4522 81.2957 38.5656 82.116 38.9509C82.9444 39.3257 83.5678 40.0511 83.9864 41.127L81.6957 41.9818C81.2872 40.6882 80.4533 40.1212 79.194 40.2808C78.6662 40.3477 78.2596 40.5168 77.9741 40.7882C77.6967 41.0491 77.5815 41.3648 77.6284 41.7352C77.6648 42.0222 77.7989 42.2639 78.0308 42.4603C78.2615 42.6475 78.5494 42.8038 78.8946 42.9294C79.2398 43.055 79.7784 43.222 80.5104 43.4303L81.4468 43.6926C82.0329 43.863 82.5513 44.056 83.002 44.2717C83.4527 44.4874 83.8665 44.8207 84.2435 45.2716C84.6193 45.7132 84.8518 46.2858 84.941 46.9895C85.0889 48.1562 84.7761 49.0661 84.0027 49.7191C83.2306 50.3815 82.2009 50.7942 80.9139 50.9573C79.5991 51.1239 78.4267 50.9667 77.3967 50.4857C76.3679 50.014 75.6238 49.1534 75.1644 47.9039L77.427 46.8269C77.6004 47.3788 77.8611 47.8397 78.209 48.2095C78.5569 48.5794 78.9481 48.845 79.3825 49.0063C79.825 49.1572 80.2638 49.2051 80.699 49.15ZM88.285 38.8324C87.9566 39.0622 87.6631 39.344 87.4043 39.6778C87.1456 40.0117 86.9546 40.3605 86.8313 40.7242C86.359 40.0408 85.7354 39.5742 84.9605 39.3243C85.6298 38.7408 86.1218 38.0952 86.4367 37.3873C86.8917 38.0823 87.5078 38.564 88.285 38.8324ZM88.2043 41.4251L89.2604 49.7585L86.7603 50.0753L85.7043 41.7419L88.2043 41.4251ZM97.7855 40.211L98.8275 48.4332C98.9941 49.748 98.7411 50.7585 98.0686 51.4647C97.396 52.1708 96.4162 52.6054 95.1292 52.7685C94.194 52.887 93.3557 52.8427 92.6145 52.6356C91.8744 52.4378 91.3061 52.1476 90.9095 51.7651L92.3949 50.1233C92.6838 50.4724 93.0419 50.7375 93.4694 50.9185C93.9073 51.1076 94.3439 51.1746 94.7791 51.1195C95.3346 51.0491 95.7486 50.7896 96.0211 50.3411C96.3028 49.8915 96.3955 49.287 96.2993 48.5278L96.1779 47.5694C96.0825 48.0049 95.8574 48.3815 95.5025 48.6993C95.1477 49.0171 94.6786 49.213 94.0952 49.2869C93.4564 49.3679 92.8652 49.2687 92.3218 48.9895C91.7784 48.7103 91.3221 48.2648 90.9529 47.653C90.593 47.04 90.3579 46.2984 90.2476 45.428C90.1326 44.5206 90.1822 43.724 90.3963 43.0383C90.6186 42.3422 90.9678 41.7946 91.4441 41.3956C91.9192 40.9873 92.4809 40.7421 93.129 40.6599C93.4994 40.613 93.878 40.6309 94.2648 40.7136C94.6596 40.7858 95.0263 40.9322 95.3647 41.1528L95.2855 40.5278L97.7855 40.211ZM94.5303 47.8206C94.8822 47.776 95.1921 47.5862 95.4601 47.2511C95.7281 46.9161 95.9017 46.5037 95.9807 46.0139L95.5231 42.4028C95.2554 42.2203 94.9854 42.0946 94.7133 42.0256C94.4504 41.9554 94.2217 41.9326 94.0272 41.9573C93.555 42.0171 93.2222 42.3604 93.0288 42.987C92.8342 43.6043 92.7973 44.3899 92.9182 45.3436C93.0238 46.1769 93.2124 46.8116 93.484 47.2476C93.7556 47.6835 94.1044 47.8745 94.5303 47.8206ZM104.284 39.2464C105.015 39.1537 105.682 39.2903 106.283 39.6563C106.894 40.021 107.269 40.7544 107.409 41.8562L108.107 47.3701L105.607 47.6869L104.894 42.0619C104.828 41.5341 104.664 41.1738 104.405 40.9809C104.145 40.788 103.858 40.7115 103.543 40.7514C103.173 40.7984 102.849 40.9899 102.572 41.3261C102.293 41.653 102.115 42.066 102.037 42.5651L102.732 48.0513L100.232 48.3681L99.1762 40.0347L101.676 39.7179L101.84 41.0096C101.96 40.6181 102.228 40.2501 102.646 39.9055C103.071 39.5506 103.617 39.3308 104.284 39.2464ZM116.51 37.8382L117.566 46.1715L115.066 46.4883L114.884 45.0578C114.788 45.484 114.534 45.8595 114.124 46.1843C113.724 46.5172 113.214 46.723 112.593 46.8016C111.927 46.8861 111.303 46.7911 110.723 46.5165C110.153 46.2501 109.674 45.8168 109.288 45.2166C108.9 44.6072 108.65 43.858 108.537 42.9691C108.425 42.0802 108.481 41.3016 108.707 40.6333C108.933 39.9649 109.298 39.4341 109.803 39.0408C110.309 38.6475 110.913 38.4062 111.617 38.3171C112.052 38.2619 112.486 38.2728 112.919 38.3496C113.361 38.416 113.75 38.5594 114.089 38.78L114.01 38.155L116.51 37.8382ZM114.247 40.03C113.979 39.8475 113.686 39.7247 113.368 39.6616C113.059 39.5973 112.779 39.581 112.529 39.6127C111.973 39.6831 111.582 40.0056 111.353 40.5802C111.134 41.1536 111.079 41.8708 111.189 42.7319C111.301 43.6208 111.532 44.2925 111.881 44.7468C112.239 45.1908 112.64 45.3846 113.084 45.3283C113.454 45.2813 113.791 45.0834 114.095 44.7344C114.41 44.3935 114.607 43.9828 114.687 43.5022L114.247 40.03ZM121.186 43.596C121.247 44.0774 121.361 44.4628 121.53 44.7519C121.709 45.0491 121.958 45.2762 122.279 45.4331C121.763 45.5925 121.339 45.6934 121.005 45.7356C120.339 45.8201 119.808 45.718 119.414 45.4292C119.02 45.1405 118.775 44.6165 118.679 43.8572L117.415 33.885L119.915 33.5682L121.186 43.596ZM125.149 41.6543C125.376 42.2559 125.729 42.705 126.209 43.0017C126.697 43.288 127.325 43.3825 128.094 43.2851C128.464 43.2381 128.873 43.1251 129.321 42.9461C129.778 42.7659 130.186 42.4602 130.545 42.0289C130.471 42.932 130.147 43.6364 129.571 44.1421C129.005 44.6467 128.249 44.9588 127.305 45.0785C125.944 45.2509 124.841 45.0097 123.996 44.3548C123.15 43.6998 122.643 42.701 122.473 41.3584C122.36 40.4695 122.424 39.6758 122.665 38.9774C122.915 38.2777 123.324 37.7179 123.891 37.2978C124.458 36.8685 125.149 36.6023 125.964 36.499C127.028 36.3641 127.981 36.6056 128.821 37.2235C129.67 37.831 130.214 39.0838 130.455 40.9819L125.149 41.6543ZM126.161 38.1674C125.763 38.2179 125.452 38.4031 125.229 38.723C125.016 39.0417 124.905 39.465 124.896 39.9929L127.827 39.6215C127.7 39.0638 127.481 38.6728 127.17 38.4488C126.868 38.2143 126.531 38.1205 126.161 38.1674ZM24.2409 66.6668L25.2969 75.0001L22.7969 75.3169L22.6332 74.0252C22.5135 74.4167 22.2403 74.7853 21.8138 75.131C21.3976 75.4848 20.8562 75.704 20.1895 75.7885C19.458 75.8812 18.7869 75.7451 18.1762 75.3803C17.5748 75.0144 17.2042 74.2805 17.0646 73.1786L16.3659 67.6647L18.8659 67.3479L19.5787 72.9729C19.6456 73.5007 19.8088 73.861 20.0685 74.0539C20.3281 74.2468 20.6154 74.3233 20.9302 74.2834C21.3005 74.2365 21.6244 74.0449 21.9016 73.7087C22.1801 73.3818 22.3582 72.9688 22.4361 72.4697L21.7409 66.9836L24.2409 66.6668ZM30.7371 65.7024C31.4686 65.6097 32.135 65.7463 32.7365 66.1123C33.3472 66.4771 33.7224 67.2104 33.862 68.3123L34.5607 73.8262L32.0607 74.143L31.3479 68.518C31.281 67.9902 31.1178 67.6298 30.8581 67.437C30.5985 67.2441 30.3112 67.1676 29.9964 67.2075C29.6261 67.2544 29.3022 67.446 29.025 67.7822C28.7465 68.1091 28.5684 68.5221 28.4905 69.0212L29.1857 74.5073L26.6857 74.8241L25.6297 66.4908L28.1297 66.174L28.2934 67.4656C28.4131 67.0741 28.6816 66.7061 29.099 66.3616C29.5244 66.0066 30.0704 65.7869 30.7371 65.7024ZM42.4842 60.5164L44.019 72.6276L41.519 72.9444L41.3377 71.5138C41.2412 71.94 40.9877 72.3155 40.5773 72.6404C40.1773 72.9733 39.6671 73.1791 39.0467 73.2577C38.3801 73.3422 37.7565 73.2471 37.1761 72.9726C36.606 72.7061 36.1278 72.2728 35.7413 71.6727C35.3536 71.0632 35.1034 70.3141 34.9907 69.4252C34.8781 68.5363 34.9347 67.7577 35.1604 67.0893C35.3862 66.421 35.7517 65.8901 36.2569 65.4968C36.7622 65.1035 37.3666 64.8623 38.0703 64.7731C38.5055 64.718 38.9397 64.7288 39.3728 64.8056C39.8139 64.872 40.2037 65.0155 40.5421 65.236L39.9842 60.8332L42.4842 60.5164ZM40.7005 66.486C40.4328 66.3036 40.1397 66.1808 39.8213 66.1177C39.5121 66.0534 39.2324 66.037 38.9824 66.0687C38.4269 66.1391 38.035 66.4616 37.8068 67.0362C37.5878 67.6096 37.5328 68.3269 37.642 69.188C37.7546 70.0769 37.9855 70.7485 38.3348 71.2029C38.6921 71.6468 39.093 71.8406 39.5374 71.7843C39.9078 71.7374 40.2449 71.5394 40.5488 71.1904C40.8631 70.8496 41.0603 70.4388 41.1406 69.9583L40.7005 66.486ZM51.8032 69.5243C51.8642 70.0058 51.9789 70.3911 52.1472 70.6803C52.326 70.9775 52.5759 71.2045 52.8968 71.3614C52.3808 71.5209 51.9561 71.6218 51.6227 71.664C50.9561 71.7485 50.4257 71.6464 50.0316 71.3576C49.6375 71.0689 49.3923 70.5449 49.2961 69.7856L48.0324 59.8134L50.5324 59.4965L51.8032 69.5243ZM55.9847 60.0616C55.6564 60.2913 55.3628 60.5731 55.104 60.907C54.8453 61.2408 54.6543 61.5896 54.531 61.9533C54.0587 61.27 53.4351 60.8033 52.6602 60.5534C53.3295 59.97 53.8216 59.3243 54.1364 58.6165C54.5914 59.3115 55.2075 59.7931 55.9847 60.0616ZM55.9041 62.6543L56.9601 70.9876L54.4601 71.3044L53.404 62.9711L55.9041 62.6543ZM60.4866 66.9845C60.7134 67.5861 61.0667 68.0353 61.5464 68.332C62.0343 68.6183 62.6625 68.7127 63.431 68.6153C63.8014 68.5684 64.2104 68.4554 64.6581 68.2763C65.1151 68.0961 65.5232 67.7904 65.8825 67.3591C65.8088 68.2622 65.4841 68.9666 64.9085 69.4724C64.3421 69.9769 63.5866 70.289 62.6422 70.4087C61.2811 70.5812 60.178 70.3399 59.333 69.685C58.4879 69.03 57.9803 68.0312 57.8102 66.6887C57.6975 65.7998 57.7616 65.0061 58.0024 64.3076C58.2524 63.608 58.6613 63.0481 59.229 62.6281C59.7955 62.1988 60.4861 61.9325 61.301 61.8292C62.3658 61.6943 63.3184 61.9358 64.1587 62.5537C65.0072 63.1612 65.5516 64.414 65.7922 66.3122L60.4866 66.9845ZM61.4983 63.4977C61.1001 63.5481 60.7896 63.7333 60.5667 64.0532C60.3531 64.3719 60.2421 64.7952 60.2337 65.3231L63.1643 64.9518C63.0372 64.394 62.8183 64.0031 62.5077 63.779C62.2051 63.5445 61.8687 63.4507 61.4983 63.4977ZM70.608 67.6352C70.9228 67.5954 71.1686 67.4936 71.3455 67.3301C71.5327 67.1747 71.6135 66.9951 71.5877 66.7914C71.5525 66.5136 71.3605 66.298 71.0118 66.1447C70.6619 65.982 70.2148 65.8317 69.6705 65.6937C68.9327 65.5144 68.3774 65.3637 68.0044 65.2416C67.6302 65.1102 67.2896 64.9088 66.9823 64.6373C66.6739 64.3565 66.4892 63.9754 66.4282 63.4939C66.3355 62.7624 66.5747 62.1629 67.1458 61.6954C67.7249 61.2174 68.5099 60.9157 69.5006 60.7902C70.3988 60.6763 71.2029 60.7485 71.913 61.0066C72.6219 61.2554 73.1552 61.7147 73.5129 62.3844L71.5 63.204C71.3523 62.8557 71.1262 62.6304 70.8216 62.5279C70.5169 62.4254 70.198 62.3952 69.8646 62.4375C69.5683 62.475 69.3294 62.557 69.1479 62.6835C68.9744 62.7996 68.9 62.9548 68.9247 63.1493C68.9458 63.3159 69.0322 63.4414 69.184 63.5257C69.3451 63.6087 69.6057 63.698 69.9659 63.7935C70.3064 63.882 70.5201 63.9349 70.6069 63.9522C71.4026 64.143 72.013 64.3196 72.4381 64.4822C72.8713 64.6342 73.2335 64.8565 73.5245 65.1489C73.8249 65.4401 74.0061 65.8311 74.0683 66.3218C74.1704 67.1274 73.9174 67.8039 73.3094 68.3513C72.7014 68.8988 71.8558 69.2411 70.7724 69.3784C69.865 69.4934 69.0209 69.4028 68.2402 69.1066C67.4606 68.8197 66.8755 68.2117 66.485 67.2828L68.6456 66.5151C68.8199 66.9257 69.0844 67.2309 69.439 67.4306C69.8016 67.6198 70.1913 67.688 70.608 67.6352ZM77.6314 61.5943L78.0362 64.7888C78.1547 65.724 78.3412 66.453 78.5956 66.9758C78.8512 67.5079 79.2327 67.8829 79.7401 68.1009C79.4461 68.1569 79.2344 68.1932 79.1047 68.2096C77.9566 68.3551 77.1071 68.1476 76.5562 67.5871C76.0147 67.0254 75.6606 66.0871 75.4939 64.7723L75.1314 61.9112L74.0897 62.0432L73.8785 60.3765L74.9202 60.2445L74.6245 57.9111L77.1245 57.5943L77.4202 59.9277L79.0035 59.727L79.2147 61.3937L77.6314 61.5943ZM91.7329 54.2755L93.2677 66.3866L90.7677 66.7034L90.5864 65.2729C90.4899 65.699 90.2364 66.0745 89.826 66.3994C89.426 66.7323 88.9158 66.9381 88.2955 67.0167C87.6288 67.1012 87.0052 67.0062 86.4248 66.7316C85.8548 66.4652 85.3765 66.0319 84.99 65.4317C84.6023 64.8223 84.3521 64.0731 84.2395 63.1842C84.1268 62.2953 84.1834 61.5167 84.4091 60.8483C84.6349 60.18 85.0004 59.6492 85.5056 59.2559C86.0109 58.8626 86.6153 58.6213 87.319 58.5321C87.7542 58.477 88.1884 58.4878 88.6215 58.5647C89.0626 58.6311 89.4524 58.7745 89.7909 58.9951L89.2329 54.5923L91.7329 54.2755ZM89.9493 60.2451C89.6815 60.0626 89.3884 59.9398 89.07 59.8767C88.7608 59.8124 88.4812 59.7961 88.2312 59.8277C87.6756 59.8981 87.2837 60.2206 87.0555 60.7952C86.8365 61.3686 86.7816 62.0859 86.8907 62.947C87.0033 63.8359 87.2343 64.5075 87.5835 64.9619C87.9408 65.4058 88.3417 65.5996 88.7861 65.5433C89.1565 65.4964 89.4936 65.2984 89.7975 64.9495C90.1118 64.6086 90.309 64.1979 90.3893 63.7173L89.9493 60.2451ZM96.6071 54.9137C96.2787 55.1435 95.9852 55.4253 95.7264 55.7592C95.4677 56.093 95.2767 56.4418 95.1534 56.8055C94.6811 56.1221 94.0575 55.6555 93.2826 55.4056C93.9519 54.8222 94.444 54.1765 94.7588 53.4687C95.2138 54.1636 95.8299 54.6453 96.6071 54.9137ZM96.5264 57.5065L97.5825 65.8398L95.0825 66.1566L94.0264 57.8233L96.5264 57.5065ZM101.109 61.8367C101.336 62.4383 101.689 62.8875 102.169 63.1842C102.657 63.4704 103.285 63.5649 104.053 63.4675C104.424 63.4205 104.833 63.3076 105.281 63.1285C105.737 62.9483 106.146 62.6426 106.505 62.2113C106.431 63.1144 106.107 63.8188 105.531 64.3245C104.964 64.8291 104.209 65.1412 103.265 65.2609C101.903 65.4334 100.8 65.1921 99.9553 64.5372C99.1103 63.8822 98.6027 62.8834 98.4326 61.5408C98.3199 60.6519 98.384 59.8583 98.6248 59.1598C98.8748 58.4601 99.2836 57.9003 99.8513 57.4803C100.418 57.051 101.109 56.7847 101.923 56.6814C102.988 56.5465 103.941 56.788 104.781 57.4059C105.63 58.0134 106.174 59.2662 106.415 61.1644L101.109 61.8367ZM102.121 58.3499C101.723 58.4003 101.412 58.5855 101.189 58.9054C100.975 59.2241 100.864 59.6474 100.856 60.1753L103.787 59.8039C103.66 59.2462 103.441 58.8552 103.13 58.6312C102.828 58.3967 102.491 58.3029 102.121 58.3499ZM28.5418 85.5721C28.7037 86.8498 28.6257 87.9793 28.3079 88.9603C27.9888 89.9322 27.475 90.7029 26.7663 91.2725C26.0588 91.8514 25.2149 92.2076 24.2346 92.3412C23.2519 92.4564 22.3458 92.3219 21.5163 91.9378C20.6879 91.563 19.9981 90.9448 19.4467 90.0833C18.8942 89.2125 18.537 88.1382 18.3751 86.8604C18.2131 85.5826 18.2917 84.4578 18.6107 83.486C18.9286 82.5049 19.4418 81.7296 20.1505 81.16C20.858 80.5811 21.7019 80.2249 22.6822 80.0912C23.9056 79.9456 24.9629 80.1221 25.854 80.6207C26.7531 81.1088 27.4254 81.9221 27.8707 83.0605L25.58 83.9153C25.3078 83.1783 24.9451 82.6174 24.4918 82.2327C24.0478 81.8468 23.515 81.6885 22.8934 81.7579C22.0335 81.8763 21.4381 82.3751 21.1074 83.2543C20.7847 84.1231 20.7073 85.2195 20.8751 86.5436C21.0429 87.8677 21.3919 88.9148 21.9223 89.6849C22.4607 90.4445 23.1611 90.7744 24.0234 90.6746C24.7167 90.5773 25.237 90.2291 25.5845 89.63C25.9307 89.0217 26.1094 88.2417 26.1205 87.2901L23.7733 87.5875L23.5621 85.9209L28.5066 85.2943L28.5418 85.5721ZM32.0248 87.7273C32.2516 88.3289 32.6048 88.778 33.0846 89.0747C33.5725 89.361 34.2007 89.4554 34.9692 89.358C35.3395 89.3111 35.7486 89.1981 36.1963 89.0191C36.6533 88.8389 37.0614 88.5331 37.4207 88.1019C37.347 89.005 37.0223 89.7094 36.4466 90.2151C35.8802 90.7196 35.1248 91.0318 34.1804 91.1514C32.8193 91.3239 31.7162 91.0827 30.8711 90.4277C30.0261 89.7728 29.5185 88.774 29.3484 87.4314C29.2357 86.5425 29.2998 85.7488 29.5405 85.0503C29.7906 84.3507 30.1994 83.7909 30.7671 83.3708C31.3337 82.9415 32.0243 82.6752 32.8391 82.572C33.904 82.4371 34.8565 82.6785 35.6969 83.2965C36.5453 83.904 37.0898 85.1568 37.3304 87.0549L32.0248 87.7273ZM33.0365 84.2404C32.6383 84.2909 32.3278 84.476 32.1049 84.7959C31.8913 85.1147 31.7803 85.538 31.7719 86.0659L34.7025 85.6945C34.5754 85.1367 34.3565 84.7458 34.0458 84.5218C33.7433 84.2873 33.4068 84.1935 33.0365 84.2404ZM45.286 77.2973L46.8208 89.4085L44.3208 89.7253L44.1395 88.2947C44.043 88.7209 43.7895 89.0964 43.3791 89.4213C42.9791 89.7542 42.4689 89.96 41.8486 90.0386C41.1819 90.1231 40.5583 90.028 39.9779 89.7535C39.4079 89.487 38.9296 89.0537 38.5431 88.4536C38.1554 87.8441 37.9052 87.095 37.7926 86.2061C37.6799 85.3172 37.7365 84.5386 37.9622 83.8702C38.188 83.2019 38.5535 82.671 39.0587 82.2777C39.564 81.8844 40.1684 81.6432 40.8721 81.554C41.3073 81.4989 41.7415 81.5097 42.1746 81.5865C42.6157 81.6529 43.0055 81.7964 43.344 82.0169L42.786 77.6141L45.286 77.2973ZM43.5024 83.2669C43.2346 83.0845 42.9415 82.9617 42.6231 82.8986C42.3139 82.8343 42.0343 82.8179 41.7843 82.8496C41.2287 82.92 40.8368 83.2425 40.6086 83.8171C40.3896 84.3905 40.3347 85.1078 40.4438 85.9689C40.5564 86.8578 40.7874 87.5294 41.1366 87.9838C41.4939 88.4277 41.8948 88.6215 42.3392 88.5652C42.7096 88.5183 43.0467 88.3203 43.3506 87.9713C43.6649 87.6305 43.8622 87.2197 43.9424 86.7392L43.5024 83.2669ZM55.2185 79.8771L56.2745 88.2105L53.7745 88.5273L53.5932 87.0967C53.4967 87.5229 53.2432 87.8984 52.8328 88.2233C52.4328 88.5562 51.9226 88.762 51.3023 88.8406C50.6356 88.9251 50.012 88.83 49.4316 88.5555C48.8615 88.289 48.3833 87.8557 47.9968 87.2556C47.6091 86.6461 47.3589 85.897 47.2463 85.0081C47.1336 84.1192 47.1902 83.3406 47.4159 82.6722C47.6417 82.0039 48.0072 81.473 48.5124 81.0797C49.0177 80.6864 49.6221 80.4452 50.3258 80.356C50.761 80.3009 51.1952 80.3117 51.6283 80.3885C52.0694 80.4549 52.4592 80.5984 52.7976 80.8189L52.7184 80.1939L55.2185 79.8771ZM52.9561 82.0689C52.6883 81.8865 52.3952 81.7637 52.0768 81.7006C51.7676 81.6362 51.488 81.6199 51.238 81.6516C50.6824 81.722 50.2905 82.0445 50.0623 82.6191C49.8433 83.1925 49.7883 83.9098 49.8975 84.7709C50.0101 85.6598 50.241 86.3314 50.5903 86.7858C50.9476 87.2297 51.3485 87.4235 51.7929 87.3672C52.1633 87.3203 52.5004 87.1223 52.8043 86.7733C53.1186 86.4325 53.3158 86.0217 53.3961 85.5412L52.9561 82.0689ZM61.7101 78.9134C62.4416 78.8207 63.108 78.9573 63.7095 79.3232C64.3202 79.688 64.6954 80.4214 64.835 81.5232L65.5337 87.0371L63.0337 87.3539L62.3209 81.7289C62.254 81.2011 62.0908 80.8408 61.8311 80.6479C61.5715 80.455 61.2842 80.3785 60.9694 80.4184C60.5991 80.4653 60.2752 80.6569 59.998 80.9931C59.7195 81.32 59.5414 81.733 59.4635 82.2321L60.1587 87.7182L57.6587 88.0351L56.6027 79.7017L59.1027 79.3849L59.2664 80.6766C59.3861 80.2851 59.6546 79.9171 60.072 79.5725C60.4974 79.2176 61.0434 78.9978 61.7101 78.9134ZM71.4243 81.1821L75.1448 85.8192L72.5059 86.1536L70.1302 82.9972L69.1462 84.3637L69.4225 86.5443L66.9225 86.8611L65.3877 74.75L67.8878 74.4332L68.766 81.3637L71.3109 77.8378L74.0887 77.4858L71.4243 81.1821ZM77.2994 81.9899C77.5262 82.5915 77.8795 83.0406 78.3592 83.3374C78.8471 83.6236 79.4753 83.7181 80.2438 83.6207C80.6142 83.5737 81.0232 83.4608 81.4709 83.2817C81.9279 83.1015 82.336 82.7958 82.6953 82.3645C82.6216 83.2676 82.2969 83.972 81.7213 84.4777C81.1549 84.9823 80.3995 85.2944 79.455 85.4141C78.0939 85.5866 76.9908 85.3453 76.1458 84.6904C75.3007 84.0354 74.7931 83.0366 74.623 81.694C74.5104 80.8051 74.5744 80.0115 74.8152 79.313C75.0652 78.6133 75.4741 78.0535 76.0418 77.6334C76.6083 77.2042 77.299 76.9379 78.1138 76.8346C79.1786 76.6997 80.1312 76.9412 80.9715 77.5591C81.82 78.1666 82.3645 79.4194 82.605 81.3176L77.2994 81.9899ZM78.3111 78.5031C77.9129 78.5535 77.6024 78.7387 77.3795 79.0586C77.1659 79.3773 77.0549 79.8006 77.0466 80.3285L79.9771 79.9571C79.85 79.3994 79.6311 79.0084 79.3205 78.7844C79.0179 78.5499 78.6815 78.4561 78.3111 78.5031ZM88.0773 75.572C88.8088 75.4793 89.4753 75.6159 90.0767 75.9819C90.6874 76.3467 91.0626 77.08 91.2022 78.1818L91.901 83.6958L89.401 84.0126L88.6882 78.3875C88.6213 77.8598 88.458 77.4994 88.1984 77.3065C87.9387 77.1137 87.6515 77.0372 87.3367 77.0771C86.9663 77.124 86.6425 77.3156 86.3652 77.6517C86.0868 77.9787 85.9086 78.3917 85.8307 78.8908L86.526 84.3769L84.026 84.6937L82.9699 76.3603L85.4699 76.0435L85.6336 77.3352C85.7534 76.9437 86.0219 76.5757 86.4392 76.2312C86.8646 75.8762 87.4107 75.6565 88.0773 75.572ZM28.4181 100.409L26.6686 109.098L23.9463 109.443L20.0847 101.465L22.1681 101.201L24.7489 106.533L25.9181 100.726L28.4181 100.409ZM31.6256 104.914C31.8524 105.515 32.2057 105.965 32.6855 106.261C33.1733 106.548 33.8015 106.642 34.57 106.545C34.9404 106.498 35.3494 106.385 35.7971 106.206C36.2541 106.025 36.6623 105.72 37.0216 105.288C36.9478 106.192 36.6232 106.896 36.0475 107.402C35.4811 107.906 34.7257 108.218 33.7812 108.338C32.4201 108.51 31.317 108.269 30.472 107.614C29.6269 106.959 29.1194 105.961 28.9492 104.618C28.8366 103.729 28.9006 102.935 29.1414 102.237C29.3914 101.537 29.8003 100.977 30.368 100.557C30.9345 100.128 31.6252 99.8618 32.44 99.7585C33.5048 99.6236 34.4574 99.8651 35.2977 100.483C36.1462 101.09 36.6907 102.343 36.9312 104.241L31.6256 104.914ZM32.6373 101.427C32.2392 101.477 31.9286 101.663 31.7058 101.982C31.4921 102.301 31.3811 102.725 31.3728 103.252L34.3033 102.881C34.1762 102.323 33.9573 101.932 33.6467 101.708C33.3441 101.474 33.0077 101.38 32.6373 101.427ZM41.8619 98.5645C42.1304 98.5305 42.4268 98.5306 42.751 98.5648C43.0844 98.5978 43.3653 98.661 43.5935 98.7544L43.4172 100.258C43.2886 100.209 43.13 100.182 42.9413 100.178C42.7514 100.164 42.5824 100.167 42.4342 100.185C42.1009 100.228 41.77 100.364 41.4416 100.593C41.1132 100.823 40.8429 101.14 40.6306 101.543C40.4182 101.946 40.3079 102.412 40.2995 102.94L40.8522 107.301L38.3522 107.618L37.2962 99.2843L39.7962 98.9674L39.8754 99.5924C40.0879 99.3397 40.3799 99.1193 40.7512 98.9311C41.1213 98.7337 41.4915 98.6115 41.8619 98.5645ZM48.2846 104.736C48.5994 104.696 48.8452 104.594 49.0221 104.431C49.2093 104.275 49.2901 104.096 49.2643 103.892C49.2291 103.614 49.0371 103.399 48.6884 103.245C48.3385 103.083 47.8914 102.933 47.347 102.795C46.6093 102.615 46.054 102.464 45.681 102.342C45.3068 102.211 44.9661 102.01 44.6589 101.738C44.3505 101.457 44.1658 101.076 44.1048 100.595C44.0121 99.8632 44.2513 99.2637 44.8223 98.7962C45.4015 98.3183 46.1865 98.0165 47.1772 97.891C48.0754 97.7772 48.8795 97.8493 49.5896 98.1074C50.2985 98.3563 50.8318 98.8155 51.1895 99.4852L49.1766 100.305C49.0289 99.9566 48.8028 99.7312 48.4982 99.6287C48.1935 99.5262 47.8745 99.496 47.5412 99.5383C47.2449 99.5758 47.006 99.6578 46.8245 99.7843C46.651 99.9004 46.5766 100.056 46.6012 100.25C46.6224 100.417 46.7088 100.542 46.8606 100.626C47.0217 100.71 47.2823 100.799 47.6425 100.894C47.983 100.983 48.1967 101.036 48.2835 101.053C49.0792 101.244 49.6895 101.42 50.1147 101.583C50.5479 101.735 50.9101 101.957 51.2011 102.25C51.5015 102.541 51.6827 102.932 51.7449 103.423C51.847 104.228 51.594 104.905 50.986 105.452C50.378 106 49.5324 106.342 48.449 106.479C47.5416 106.594 46.6975 106.504 45.9168 106.207C45.1372 105.92 44.5521 105.313 44.1615 104.384L46.3222 103.616C46.4965 104.027 46.761 104.332 47.1156 104.531C47.4782 104.721 47.8679 104.789 48.2846 104.736ZM56.8292 96.6678C57.5329 96.5787 58.1784 96.6615 58.7658 96.9163C59.3531 97.1712 59.8395 97.5941 60.2248 98.185C60.6102 98.7759 60.8592 99.5158 60.9718 100.405C61.0845 101.294 61.0291 102.081 60.8057 102.768C60.5811 103.446 60.2214 103.985 59.7266 104.387C59.2422 104.796 58.6667 105.043 58 105.128C57.3796 105.206 56.8296 105.135 56.35 104.914C55.8808 104.7 55.5463 104.399 55.3465 104.01L55.9784 108.997L53.4784 109.313L51.9718 97.4245L54.4718 97.1077L54.551 97.7327C54.8237 97.4347 55.1607 97.1991 55.5621 97.026C55.9716 96.8424 56.394 96.723 56.8292 96.6678ZM57.1573 103.823C57.6018 103.767 57.937 103.48 58.163 102.962C58.3972 102.434 58.4579 101.725 58.3452 100.836C58.2361 99.9752 57.9994 99.2949 57.635 98.7954C57.2799 98.2947 56.8246 98.0796 56.2691 98.15C56.0191 98.1817 55.7477 98.2678 55.4551 98.4084C55.1717 98.5478 54.9231 98.7392 54.7094 98.9827L55.1494 102.455C55.3469 102.9 55.6404 103.249 56.0298 103.501C56.4204 103.762 56.7962 103.869 57.1573 103.823ZM64.4367 93.2624C64.1083 93.4922 63.8147 93.774 63.556 94.1078C63.2972 94.4417 63.1062 94.7905 62.983 95.1542C62.5107 94.4708 61.8871 94.0042 61.1122 93.7543C61.7814 93.1708 62.2735 92.5252 62.5884 91.8173C63.0433 92.5123 63.6594 92.994 64.4367 93.2624ZM64.356 95.8551L65.412 104.188L62.912 104.505L61.856 96.1719L64.356 95.8551ZM68.9386 100.185C69.1653 100.787 69.5186 101.236 69.9984 101.533C70.4862 101.819 71.1144 101.914 71.8829 101.816C72.2533 101.769 72.6624 101.656 73.1101 101.477C73.567 101.297 73.9752 100.991 74.3345 100.56C74.2608 101.463 73.9361 102.167 73.3604 102.673C72.794 103.178 72.0386 103.49 71.0941 103.61C69.733 103.782 68.63 103.541 67.7849 102.886C66.9399 102.231 66.4323 101.232 66.2621 99.8895C66.1495 99.0006 66.2136 98.2069 66.4543 97.5085C66.7043 96.8088 67.1132 96.249 67.6809 95.8289C68.2474 95.3996 68.9381 95.1334 69.7529 95.0301C70.8177 94.8952 71.7703 95.1366 72.6107 95.7546C73.4591 96.3621 74.0036 97.6149 74.2441 99.513L68.9386 100.185ZM69.9502 96.6985C69.5521 96.749 69.2416 96.9342 69.0187 97.254C68.8051 97.5728 68.6941 97.9961 68.6857 98.524L71.6163 98.1526C71.4891 97.5948 71.2702 97.2039 70.9596 96.9799C70.6571 96.7454 70.3206 96.6516 69.9502 96.6985ZM77.9011 100.489C77.9621 100.971 78.0768 101.356 78.2451 101.645C78.4239 101.942 78.6738 102.169 78.9947 102.326C78.4787 102.486 78.054 102.586 77.7207 102.629C77.054 102.713 76.5236 102.611 76.1295 102.322C75.7354 102.034 75.4903 101.51 75.3941 100.75L74.1303 90.778L76.6303 90.4612L77.9011 100.489ZM82.4076 95.261L82.8125 98.4554C82.931 99.3906 83.1174 100.12 83.3718 100.642C83.6274 101.175 84.0089 101.55 84.5164 101.768C84.2224 101.824 84.0106 101.86 83.881 101.876C82.7328 102.022 81.8833 101.814 81.3325 101.254C80.7909 100.692 80.4368 99.7537 80.2702 98.4389L79.9076 95.5778L78.866 95.7098L78.6548 94.0431L79.6964 93.9111L79.4007 91.5778L81.9007 91.261L82.1964 93.5943L83.7798 93.3937L83.991 95.0604L82.4076 95.261ZM87.1271 97.8805C87.3539 98.4821 87.7071 98.9312 88.1869 99.2279C88.6748 99.5142 89.3029 99.6086 90.0715 99.5112C90.4418 99.4643 90.8509 99.3513 91.2986 99.1723C91.7556 98.9921 92.1637 98.6863 92.523 98.2551C92.4493 99.1582 92.1246 99.8626 91.5489 100.368C90.9825 100.873 90.2271 101.185 89.2827 101.305C87.9216 101.477 86.8185 101.236 85.9734 100.581C85.1284 99.926 84.6208 98.9272 84.4507 97.5846C84.338 96.6957 84.4021 95.902 84.6428 95.2035C84.8929 94.5039 85.3017 93.944 85.8694 93.524C86.4359 93.0947 87.1266 92.8284 87.9414 92.7252C89.0063 92.5902 89.9588 92.8317 90.7992 93.4497C91.6476 94.0571 92.1921 95.31 92.4327 97.2081L87.1271 97.8805ZM88.1388 94.3936C87.7406 94.4441 87.4301 94.6292 87.2072 94.9491C86.9936 95.2678 86.8826 95.6912 86.8742 96.2191L89.8048 95.8477C89.6776 95.2899 89.4588 94.899 89.1481 94.6749C88.8456 94.4405 88.5091 94.3467 88.1388 94.3936ZM97.3633 91.5312C97.6319 91.4972 97.9282 91.4972 98.2524 91.5314C98.5859 91.5644 98.8667 91.6276 99.0949 91.721L98.9186 93.2251C98.79 93.1755 98.6314 93.1486 98.4427 93.1443C98.2528 93.1307 98.0838 93.1333 97.9357 93.1521C97.6023 93.1944 97.2715 93.3304 96.9431 93.5601C96.6147 93.7899 96.3443 94.1064 96.132 94.5096C95.9197 94.9129 95.8093 95.3784 95.801 95.9063L96.3536 100.267L93.8536 100.584L92.7976 92.2509L95.2976 91.9341L95.3768 92.5591C95.5894 92.3064 95.8813 92.0859 96.2526 91.8977C96.6227 91.7003 96.993 91.5781 97.3633 91.5312ZM32.146 113.234L33.6808 125.346L31.1808 125.662L30.4803 120.135L25.633 120.749L26.3335 126.277L23.8335 126.593L22.2988 114.482L24.7988 114.165L25.4218 119.082L30.2691 118.468L29.646 113.551L32.146 113.234ZM42.0775 115.814L43.1335 124.148L40.6335 124.464L40.4522 123.034C40.3557 123.46 40.1022 123.836 39.6918 124.16C39.2918 124.493 38.7816 124.699 38.1613 124.778C37.4946 124.862 36.871 124.767 36.2906 124.493C35.7206 124.226 35.2423 123.793 34.8558 123.193C34.4681 122.583 34.2179 121.834 34.1053 120.945C33.9926 120.056 34.0492 119.278 34.275 118.609C34.5007 117.941 34.8662 117.41 35.3714 117.017C35.8767 116.624 36.4811 116.382 37.1849 116.293C37.62 116.238 38.0542 116.249 38.4873 116.326C38.9285 116.392 39.3183 116.536 39.6567 116.756L39.5775 116.131L42.0775 115.814ZM39.8151 118.006C39.5473 117.824 39.2542 117.701 38.9358 117.638C38.6266 117.573 38.347 117.557 38.097 117.589C37.5414 117.659 37.1495 117.982 36.9213 118.556C36.7023 119.13 36.6474 119.847 36.7565 120.708C36.8691 121.597 37.1001 122.269 37.4493 122.723C37.8066 123.167 38.2075 123.361 38.6519 123.304C39.0223 123.257 39.3594 123.059 39.6633 122.711C39.9776 122.37 40.1749 121.959 40.2551 121.478L39.8151 118.006ZM51.3367 114.641L52.3927 122.974L49.8927 123.291L49.7291 121.999C49.6093 122.391 49.3362 122.76 48.9096 123.105C48.4934 123.459 47.952 123.678 47.2853 123.763C46.5538 123.855 45.8828 123.719 45.272 123.355C44.6706 122.989 44.3001 122.255 44.1604 121.153L43.4617 115.639L45.9617 115.322L46.6745 120.947C46.7414 121.475 46.9047 121.835 47.1643 122.028C47.424 122.221 47.7112 122.297 48.026 122.258C48.3964 122.211 48.7202 122.019 48.9975 121.683C49.2759 121.356 49.4541 120.943 49.5319 120.444L48.8367 114.958L51.3367 114.641ZM57.1764 120.745C57.4912 120.705 57.737 120.604 57.9138 120.44C58.1011 120.285 58.1819 120.105 58.156 119.901C58.1208 119.624 57.9289 119.408 57.5802 119.255C57.2303 119.092 56.7832 118.942 56.2388 118.804C55.5011 118.624 54.9457 118.474 54.5728 118.352C54.1986 118.22 53.8579 118.019 53.5507 117.747C53.2423 117.466 53.0576 117.085 52.9965 116.604C52.9038 115.872 53.143 115.273 53.7141 114.805C54.2933 114.327 55.0783 114.026 56.069 113.9C56.9672 113.786 57.7713 113.858 58.4814 114.117C59.1903 114.365 59.7236 114.825 60.0813 115.494L58.0683 116.314C57.9207 115.966 57.6946 115.74 57.39 115.638C57.0853 115.535 56.7663 115.505 56.433 115.547C56.1367 115.585 55.8978 115.667 55.7162 115.793C55.5428 115.91 55.4684 116.065 55.493 116.259C55.5142 116.426 55.6006 116.551 55.7524 116.636C55.9135 116.719 56.1741 116.808 56.5343 116.903C56.8748 116.992 57.0885 117.045 57.1753 117.062C57.9709 117.253 58.5813 117.43 59.0065 117.592C59.4397 117.744 59.8018 117.966 60.0929 118.259C60.3932 118.55 60.5745 118.941 60.6367 119.432C60.7388 120.237 60.4858 120.914 59.8778 121.461C59.2698 122.009 58.4241 122.351 57.3408 122.488C56.4334 122.603 55.5893 122.513 54.8085 122.217C54.029 121.93 53.4439 121.322 53.0533 120.393L55.214 119.625C55.3883 120.036 55.6528 120.341 56.0073 120.541C56.37 120.73 56.7597 120.798 57.1764 120.745ZM64.1998 114.704L64.6046 117.899C64.7231 118.834 64.9095 119.563 65.164 120.086C65.4195 120.618 65.801 120.993 66.3085 121.211C66.0145 121.267 65.8027 121.303 65.6731 121.32C64.5249 121.465 63.6755 121.258 63.1246 120.697C62.583 120.135 62.2289 119.197 62.0623 117.882L61.6997 115.021L60.6581 115.153L60.4469 113.486L61.4885 113.354L61.1928 111.021L63.6929 110.704L63.9885 113.038L65.5719 112.837L65.7831 114.504L64.1998 114.704ZM69.5579 109.749C69.2295 109.979 68.9359 110.261 68.6772 110.595C68.4184 110.929 68.2274 111.277 68.1041 111.641C67.6318 110.958 67.0082 110.491 66.2333 110.241C66.9026 109.658 67.3947 109.012 67.7095 108.304C68.1645 108.999 68.7806 109.481 69.5579 109.749ZM69.4772 112.342L70.5332 120.675L68.0332 120.992L66.9772 112.659L69.4772 112.342ZM74.0597 116.672C74.2865 117.274 74.6398 117.723 75.1195 118.02C75.6074 118.306 76.2356 118.401 77.0041 118.303C77.3745 118.256 77.7835 118.143 78.2312 117.964C78.6882 117.784 79.0963 117.478 79.4556 117.047C79.3819 117.95 79.0572 118.654 78.4816 119.16C77.9152 119.665 77.1598 119.977 76.2153 120.097C74.8542 120.269 73.7511 120.028 72.9061 119.373C72.061 118.718 71.5534 117.719 71.3833 116.376C71.2707 115.488 71.3347 114.694 71.5755 113.995C71.8255 113.296 72.2344 112.736 72.8021 112.316C73.3686 111.887 74.0593 111.62 74.8741 111.517C75.9389 111.382 76.8915 111.624 77.7318 112.242C78.5803 112.849 79.1248 114.102 79.3653 116L74.0597 116.672ZM75.0714 113.186C74.6732 113.236 74.3627 113.421 74.1398 113.741C73.9262 114.06 73.8152 114.483 73.8069 115.011L76.7374 114.64C76.6103 114.082 76.3914 113.691 76.0808 113.467C75.7782 113.232 75.4418 113.139 75.0714 113.186ZM84.296 110.323C84.5645 110.289 84.8609 110.289 85.1851 110.323C85.5185 110.356 85.7994 110.42 86.0276 110.513L85.8513 112.017C85.7227 111.967 85.564 111.941 85.3753 111.936C85.1855 111.923 85.0164 111.925 84.8683 111.944C84.535 111.986 84.2041 112.122 83.8757 112.352C83.5473 112.582 83.277 112.898 83.0646 113.302C82.8523 113.705 82.742 114.17 82.7336 114.698L83.2863 119.059L80.7863 119.376L79.7302 111.043L82.2302 110.726L82.3094 111.351C82.522 111.098 82.814 110.878 83.1852 110.69C83.5554 110.492 83.9256 110.37 84.296 110.323ZM89.0608 114.771C89.2876 115.373 89.6409 115.822 90.1207 116.119C90.6085 116.405 91.2367 116.5 92.0052 116.402C92.3756 116.355 92.7846 116.242 93.2323 116.063C93.6893 115.883 94.0975 115.577 94.4568 115.146C94.383 116.049 94.0584 116.753 93.4827 117.259C92.9163 117.764 92.1609 118.076 91.2164 118.196C89.8553 118.368 88.7522 118.127 87.9072 117.472C87.0621 116.817 86.5546 115.818 86.3844 114.475C86.2718 113.587 86.3358 112.793 86.5766 112.094C86.8266 111.395 87.2355 110.835 87.8032 110.415C88.3697 109.986 89.0604 109.719 89.8752 109.616C90.94 109.481 91.8926 109.723 92.7329 110.341C93.5814 110.948 94.1259 112.201 94.3664 114.099L89.0608 114.771ZM90.0725 111.285C89.6744 111.335 89.3638 111.52 89.141 111.84C88.9273 112.159 88.8163 112.582 88.808 113.11L91.7385 112.739C91.6114 112.181 91.3925 111.79 91.0819 111.566C90.7793 111.331 90.4429 111.238 90.0725 111.285ZM97.8179 116.794C97.429 116.844 97.0833 116.751 96.7808 116.517C96.4782 116.282 96.3023 115.97 96.253 115.582C96.2037 115.193 96.2963 114.847 96.5308 114.544C96.7653 114.242 97.077 114.066 97.4659 114.017C97.8548 113.967 98.2005 114.06 98.5031 114.295C98.8056 114.529 98.9815 114.841 99.0308 115.23C99.0801 115.618 98.9875 115.964 98.753 116.267C98.5185 116.569 98.2068 116.745 97.8179 116.794Z" fill="white"/>
</svg>
