<svg width="246" height="79" viewBox="0 0 246 79" fill="none" xmlns="http://www.w3.org/2000/svg">
<path d="M10.7875 27.2333L10.8195 27.2317L13.0187 11.5433L19.5417 11.2182L23.0982 26.6197L23.1621 26.6165L25.8729 10.9026L32.5878 10.5679L26.4316 36.9035L20.7399 37.1872L16.7484 23.346L14.025 37.5219L8.46126 37.7992L0.00459204 12.192L6.97529 11.8445L10.7875 27.2333ZM44.8177 36.1154L44.7189 34.1329C43.8587 34.881 43.0208 35.4356 42.2054 35.7968C41.4113 36.1569 40.5772 36.3588 39.7032 36.4023C38.4029 36.4671 37.3152 36.0833 36.4403 35.2507C35.5665 34.4395 35.0976 33.3943 35.0339 32.1153C34.9946 31.3266 35.0938 30.5309 35.3316 29.7284C35.5897 28.9034 35.9309 28.2453 36.3552 27.7541C37.1675 26.9015 38.137 26.2014 39.2637 25.6537C40.4117 25.105 41.6785 24.7961 43.0641 24.727C43.3199 24.7143 43.7153 24.7159 44.2504 24.732C44.2111 23.9433 43.9452 23.3261 43.4529 22.8805C42.9818 22.4338 42.2667 22.2344 41.3074 22.2822C38.9412 22.4002 36.9879 23.2989 35.4475 24.9784L35.1909 19.8304C37.2482 18.2319 39.5559 17.3689 42.114 17.2414C43.6062 17.1671 44.9321 17.4002 46.0916 17.9407C47.2512 18.4813 48.1783 19.2899 48.8731 20.3665C49.5668 21.4218 49.9493 22.6636 50.0204 24.0918L50.6053 35.8269L44.8177 36.1154ZM42.4524 31.1044C42.8147 31.0864 43.1526 31.0054 43.466 30.8616C43.7794 30.7177 44.1312 30.4865 44.5213 30.1679L44.4082 27.8976C43.1504 27.9603 42.2327 28.1984 41.655 28.6118C41.3501 28.9262 41.1374 29.1612 41.0169 29.3168C40.9178 29.4713 40.8735 29.6552 40.8842 29.8683C40.9054 30.2947 41.0396 30.6299 41.2869 30.874C41.5309 31.0542 41.9194 31.131 42.4524 31.1044ZM58.576 15.7478C60.6224 15.6458 62.4364 16.0255 64.018 16.887L64.2921 22.3868C63.3458 21.8356 62.4708 21.4304 61.6672 21.1713C60.8838 20.8898 60.1084 20.7682 59.341 20.8064C58.7868 20.834 58.3743 20.9187 58.1035 21.0604C57.8541 21.2011 57.7373 21.4313 57.7533 21.751C57.7618 21.9216 57.8651 22.066 58.0634 22.1843C58.219 22.3048 59.1196 22.5805 60.7652 23.0113C62.3201 23.7673 63.4956 24.6276 64.2916 25.5923C65.0674 26.5794 65.4856 27.6805 65.5462 28.8956C65.6418 30.8141 65.1326 32.3888 64.0186 33.6197C62.7095 34.7962 61.0638 35.4338 59.0813 35.5327C56.8217 35.6453 54.8446 35.2096 53.15 34.2255L52.8536 28.278C54.8925 28.8816 56.5514 29.1516 57.8305 29.0878C58.3421 29.0623 58.753 28.9457 59.0632 28.7379C59.3723 28.5088 59.5205 28.2663 59.5077 28.0105C59.495 27.7547 59.3458 27.5484 59.0602 27.3917C58.8843 27.2936 58.5587 27.1923 58.0834 27.0878C57.6283 26.9609 57.1433 26.8782 56.6285 26.8397C55.0959 26.5315 53.9657 25.936 53.2378 25.0534C52.5771 24.2315 52.216 23.2024 52.1543 21.966C52.1097 21.0707 52.2196 20.2745 52.4841 19.5775C52.7485 18.8804 53.1749 18.2181 53.7634 17.5904C54.9467 16.4629 56.5509 15.8487 58.576 15.7478ZM93.5978 33.5558L88.7694 33.7965C88.7652 33.7112 88.7407 33.4346 88.696 32.9667C88.6727 32.4977 88.6588 32.2206 88.6546 32.1353C88.1898 32.6714 87.6131 33.1062 86.9245 33.4397C86.237 33.7945 85.4029 33.9963 84.4223 34.0452C83.4631 34.093 82.5257 33.9367 81.6102 33.5763C80.6947 33.2159 79.8868 32.6578 79.1867 31.902C78.5089 31.1665 77.9378 30.2119 77.4733 29.0384C77.0301 27.8637 76.7707 26.5197 76.6953 25.0061C76.6241 23.5779 76.7512 22.268 77.0764 21.0764C77.422 19.8625 77.8938 18.8239 78.4918 17.9606C79.1102 17.075 79.8553 16.3754 80.7272 15.8618C81.5981 15.3269 82.5132 15.0355 83.4725 14.9877C84.1973 14.9516 84.8517 15.0044 85.4357 15.1463C86.0187 15.2668 86.5442 15.5184 87.012 15.9012L86.6072 7.77933L92.2989 7.49565L93.5978 33.5558ZM87.4168 24.023C87.3764 23.2129 87.1298 22.5521 86.6769 22.0404C86.2229 21.5074 85.6016 21.2606 84.8129 21.2999C84.0668 21.3371 83.4618 21.6343 82.9981 22.1917C82.5546 22.7267 82.343 23.4104 82.3631 24.2428C82.3874 25.1605 82.6581 25.8736 83.1749 26.3821C83.7131 26.8895 84.3552 27.1246 85.1013 27.0875C85.8048 27.0524 86.3697 26.8105 86.7961 26.3619C87.2428 25.8909 87.4555 25.2285 87.4344 24.3747L87.4168 24.023ZM105.729 27.5339C107.435 27.4489 109.361 27.075 111.507 26.4124L111.715 30.5693C110.003 32.236 107.761 33.1384 104.99 33.2765C102.304 33.4104 100.109 32.6863 98.4063 31.1044C96.7215 29.4574 95.8079 27.2056 95.6655 24.3491C95.5242 21.5139 96.1779 19.1948 97.6267 17.3916C98.9433 15.5095 100.806 14.5084 103.215 14.3884C105.602 14.2694 107.59 15.1213 109.176 16.9441C109.876 17.6999 110.381 18.615 110.691 19.6895C111.023 20.7628 111.227 22.0669 111.303 23.6018C111.333 24.1986 111.333 24.6367 111.305 24.9159L100.721 25.4435C100.775 26.1032 101.25 26.6352 102.146 27.0393C103.064 27.4423 104.258 27.6072 105.729 27.5339ZM103.443 18.9609C102.015 19.0321 101.233 19.8617 101.099 21.4498L105.991 21.206C105.844 20.4012 105.558 19.8171 105.134 19.4536C104.731 19.089 104.168 18.9248 103.443 18.9609ZM118.261 13.5743L118.42 16.7719C119.678 14.5722 121.394 13.4181 123.569 13.3098C125.189 13.229 126.628 13.7984 127.885 15.0179C129.061 16.3057 129.704 18.0687 129.816 20.307L130.407 32.17L125.227 32.4281L124.787 23.6028C124.717 22.1959 124.452 21.162 123.991 20.5011C123.551 19.8178 122.851 19.5001 121.892 19.5479C121.381 19.5734 120.877 19.7694 120.383 20.136C119.887 20.4813 119.48 20.8969 119.163 21.3829C118.845 21.8688 118.696 22.3037 118.715 22.6874L119.215 32.7278L114.003 32.9875L113.049 13.8341L118.261 13.5743ZM136.952 5.30209L137.585 17.9964C138.565 17.9476 139.383 17.629 140.037 17.0408C140.692 16.4525 141.147 15.7246 141.403 14.857C141.659 13.9895 141.776 13.1182 141.754 12.2431L147.477 11.9578C147.586 14.1322 147.137 16.0672 146.132 17.7628C145.147 19.436 143.639 20.4835 141.608 20.9052C143.071 21.0888 144.394 21.7067 145.579 22.7588C146.764 23.811 147.693 25.079 148.365 26.5628C149.058 28.0241 149.439 29.4583 149.51 30.8652L143.178 31.1808C142.969 26.9813 141.205 24.601 137.886 24.0398L138.254 31.4262L132.69 31.7035L131.388 5.5794L136.952 5.30209ZM163.18 11.079L163.431 16.1312L157.516 16.426L157.742 20.9666C157.794 22.0111 158.067 22.7668 158.56 23.2338C159.056 23.7433 159.666 23.98 160.391 23.9439C161.521 23.8876 162.644 23.479 163.76 22.7182L164.062 28.7936C162.379 29.7536 160.834 30.2687 159.427 30.3388C158.447 30.3877 157.532 30.2623 156.684 29.9627C155.858 29.6833 155.174 29.2579 154.633 28.6866C153.463 27.5054 152.821 25.785 152.709 23.5254L152.368 16.6826L149.97 16.8022L149.718 11.75L151.988 11.6368L151.731 6.48875L157.007 6.22578L157.264 11.3739L163.18 11.079ZM179.927 10.4687L180.064 13.2186C180.529 12.2551 181.09 11.5113 181.748 10.987C182.405 10.4413 183.032 10.1537 183.628 10.1239C184.652 10.0729 185.488 10.3518 186.138 10.9605C186.809 11.5468 187.402 12.5109 187.917 13.8529C188.62 12.5143 189.37 11.4939 190.169 10.7916C190.989 10.0883 191.825 9.71539 192.678 9.67289C193.466 9.63358 194.156 9.75946 194.748 10.0505C195.361 10.3405 195.929 10.8144 196.454 11.4721C197.352 12.7736 197.853 14.469 197.957 16.558L198.558 28.6129L193.762 28.8519L193.327 20.1226C193.277 19.1207 193.196 18.3554 193.084 17.8267C192.972 17.298 192.772 16.9233 192.483 16.7027C192.194 16.482 191.773 16.3855 191.218 16.4131C190.579 16.445 190.04 16.771 189.6 17.3913C189.181 17.9892 188.992 18.6931 189.032 19.5032L189.509 29.0639L185.064 29.2854L184.629 20.5561C184.556 19.0852 184.389 18.0891 184.128 17.5679C183.888 17.0456 183.427 16.8014 182.745 16.8354C182.063 16.8694 181.491 17.1971 181.031 17.8184C180.569 18.4184 180.359 19.1234 180.399 19.9335L180.876 29.4942L175.887 29.7428L174.939 10.7173L179.927 10.4687ZM210.712 22.3013C212.417 22.2163 214.343 21.8425 216.49 21.1798L216.697 25.3367C214.985 27.0034 212.744 27.9058 209.972 28.0439C207.286 28.1778 205.092 27.4538 203.389 25.8718C201.704 24.2248 200.791 21.973 200.648 19.1165C200.507 16.2814 201.161 13.9622 202.609 12.159C203.926 10.2769 205.789 9.27584 208.198 9.15578C210.585 9.03678 212.572 9.88871 214.159 11.7116C214.859 12.4674 215.364 13.3825 215.674 14.4569C216.005 15.5302 216.209 16.8343 216.286 18.3692C216.316 18.9661 216.316 19.4041 216.287 19.6834L205.703 20.2109C205.758 20.8707 206.233 21.4026 207.129 21.8067C208.047 22.2097 209.241 22.3746 210.712 22.3013ZM208.425 13.7283C206.997 13.7995 206.216 14.6291 206.081 16.2172L210.974 15.9734C210.827 15.1686 210.541 14.5845 210.117 14.221C209.714 13.8564 209.15 13.6922 208.425 13.7283ZM223.585 1.04821L223.896 7.28347L218.012 7.57671L217.702 1.34145L223.585 1.04821ZM223.987 9.10608L224.879 27.0125L218.996 27.3057L218.103 9.39933L223.987 9.10608ZM231.862 7.91219L232.021 11.1098C233.279 8.91004 234.995 7.756 237.17 7.64763C238.79 7.56688 240.229 8.13626 241.486 9.35579C242.662 10.6435 243.305 12.4065 243.417 14.6448L244.008 26.5078L238.828 26.766L238.388 17.9407C238.318 16.5338 238.053 15.4999 237.592 14.839C237.152 14.1557 236.453 13.838 235.493 13.8858C234.982 13.9113 234.479 14.1073 233.984 14.4739C233.488 14.8191 233.082 15.2348 232.764 15.7207C232.446 16.2067 232.297 16.6415 232.316 17.0253L232.816 27.0656L227.604 27.3254L226.65 8.17197L231.862 7.91219ZM73.1308 74.6449L66.7676 74.962L66.3022 65.6251L59.0118 65.9885L59.4788 75.3574L53.0836 75.6761L51.7847 49.6159L58.1799 49.2972L58.6596 58.9219L65.95 58.5585L65.4687 48.9018L71.8319 48.5847L73.1308 74.6449ZM84.9684 74.1831L84.8696 72.2006C84.0093 72.9487 83.1715 73.5033 82.3561 73.8645C81.562 74.2246 80.7279 74.4265 79.8539 74.47C78.5535 74.5348 77.4659 74.151 76.591 73.3184C75.7171 72.5072 75.2483 71.462 75.1846 70.183C75.1452 69.3943 75.2445 68.5986 75.4823 67.7961C75.7404 66.9711 76.0815 66.313 76.5058 65.8218C77.3181 64.9692 78.2876 64.2691 79.4143 63.7214C80.5623 63.1727 81.8291 62.8638 83.2147 62.7947C83.4706 62.782 83.866 62.7836 84.401 62.7997C84.3617 62.011 84.0959 61.3938 83.6035 60.9482C83.1325 60.5015 82.4174 60.3021 81.4581 60.3499C79.0919 60.4679 77.1386 61.3666 75.5982 63.0461L75.3416 57.8981C77.3989 56.2996 79.7066 55.4366 82.2647 55.3091C83.7569 55.2348 85.0827 55.4679 86.2423 56.0084C87.4018 56.549 88.329 57.3576 89.0238 58.4342C89.7175 59.4895 90.0999 60.7313 90.1711 62.1595L90.756 73.8946L84.9684 74.1831ZM82.603 69.1721C82.9654 69.1541 83.3033 69.0731 83.6167 68.9293C83.9301 68.7854 84.2818 68.5542 84.672 68.2356L84.5588 65.9653C83.3011 66.028 82.3834 66.2661 81.8056 66.6795C81.5007 66.9939 81.2881 67.2289 81.1676 67.3845C81.0684 67.539 81.0242 67.7229 81.0348 67.936C81.0561 68.3624 81.1903 68.6976 81.4375 68.9417C81.6816 69.1219 82.0701 69.1987 82.603 69.1721ZM104.677 73.5213L104.528 70.5156C103.723 71.5173 102.895 72.2851 102.046 72.819C101.218 73.3518 100.281 73.6442 99.2367 73.6963C97.574 73.7792 96.1139 73.2108 94.8564 71.9913C93.6958 71.002 93.0619 69.4309 92.9546 67.2778L92.3394 54.9352L97.4875 54.6786L97.9369 63.6958C97.9996 64.9535 98.2584 65.8595 98.7135 66.4138C99.1898 66.967 99.8756 67.2214 100.771 67.1767C101.24 67.1534 101.662 67.0362 102.036 66.8252C102.431 66.6132 102.821 66.2839 103.205 65.8373C103.797 64.8675 104.084 64.1907 104.065 63.807L103.595 54.3742L108.903 54.1096L109.857 73.2631L104.677 73.5213ZM117.837 52.863C119.884 52.761 121.698 53.1407 123.279 54.0021L123.553 59.502C122.607 58.9508 121.732 58.5456 120.928 58.2865C120.145 58.005 119.37 57.8833 118.602 57.9216C118.048 57.9492 117.635 58.0339 117.365 58.1756C117.115 58.3163 116.998 58.5465 117.014 58.8662C117.023 59.0368 117.126 59.1812 117.324 59.2995C117.48 59.42 118.381 59.6957 120.026 60.1265C121.581 60.8825 122.757 61.7428 123.553 62.7075C124.329 63.6946 124.747 64.7957 124.807 66.0108C124.903 67.9293 124.394 69.504 123.28 70.7349C121.971 71.9114 120.325 72.549 118.342 72.6478C116.083 72.7605 114.106 72.3248 112.411 71.3407L112.115 65.3932C114.154 65.9968 115.813 66.2667 117.092 66.203C117.603 66.1775 118.014 66.0609 118.324 65.8531C118.633 65.624 118.782 65.3815 118.769 65.1257C118.756 64.8699 118.607 64.6636 118.321 64.5069C118.145 64.4088 117.82 64.3075 117.345 64.203C116.889 64.0761 116.404 63.9934 115.89 63.9549C114.357 63.6467 113.227 63.0512 112.499 62.1686C111.838 61.3467 111.477 60.3176 111.415 59.0812C111.371 58.1859 111.481 57.3897 111.745 56.6927C112.01 55.9956 112.436 55.3333 113.025 54.7056C114.208 53.5781 115.812 52.9639 117.837 52.863ZM139.223 52.342L139.475 57.3942L133.559 57.689L133.785 62.2295C133.837 63.2741 134.11 64.0298 134.604 64.4967C135.099 65.0063 135.709 65.243 136.434 65.2069C137.564 65.1506 138.687 64.742 139.803 63.9811L140.106 70.0565C138.423 71.0166 136.877 71.5317 135.471 71.6018C134.49 71.6507 133.575 71.5253 132.727 71.2257C131.901 70.9463 131.217 70.5209 130.676 69.9495C129.506 68.7684 128.865 67.048 128.752 64.7884L128.411 57.9456L126.013 58.0651L125.761 53.013L128.031 52.8998L127.775 47.7517L133.051 47.4887L133.307 52.6368L139.223 52.342ZM147.012 44.9337L147.323 51.1689L141.439 51.4622L141.128 45.2269L147.012 44.9337ZM147.414 52.9916L148.306 70.8979L142.423 71.1912L141.53 53.2848L147.414 52.9916ZM160.556 64.8701C162.262 64.7851 164.188 64.4112 166.334 63.7486L166.542 67.9055C164.83 69.5722 162.588 70.4746 159.817 70.6127C157.131 70.7466 154.936 70.0225 153.233 68.4406C151.548 66.7936 150.635 64.5418 150.492 61.6853C150.351 58.8501 151.005 56.531 152.454 54.7278C153.77 52.8457 155.633 51.8446 158.042 51.7246C160.429 51.6056 162.417 52.4575 164.003 54.2803C164.703 55.0361 165.208 55.9512 165.518 57.0257C165.85 58.099 166.054 59.4031 166.13 60.9379C166.16 61.5348 166.16 61.9729 166.132 62.2521L155.548 62.7797C155.602 63.4394 156.077 63.9714 156.973 64.3755C157.891 64.7785 159.085 64.9434 160.556 64.8701ZM158.27 56.2971C156.842 56.3683 156.06 57.1979 155.926 58.786L160.818 58.5422C160.671 57.7374 160.385 57.1533 159.961 56.7898C159.558 56.4252 158.995 56.261 158.27 56.2971ZM173.212 50.8402L173.383 54.2616C173.816 53.086 174.34 52.2372 174.955 51.715C175.569 51.1715 176.395 50.8098 177.433 50.6298C177.539 50.6032 177.719 50.5835 177.975 50.5708C178.423 50.5484 178.864 50.6013 179.297 50.7292C179.751 50.8348 180.123 50.998 180.412 51.2186L180.694 56.8783C180.279 56.7067 179.781 56.5819 179.201 56.504C178.641 56.425 178.084 56.3994 177.53 56.427C176.869 56.4599 176.287 56.5744 175.784 56.7704C175.28 56.9452 174.803 57.2467 174.354 57.6751C174.071 57.9884 173.873 58.3082 173.761 58.6343C173.669 58.938 173.629 59.2072 173.641 59.4417L174.159 69.8338L168.851 70.0983L167.904 51.1048L173.212 50.8402ZM185.815 55.3729L186.72 54.8791C187.859 54.1598 188.585 53.4932 188.896 52.8793C189.206 52.2441 189.273 51.6425 189.095 51.0744C188.915 50.4636 188.573 50.0319 188.068 49.7792C187.563 49.5052 186.993 49.4161 186.356 49.5119C185.804 49.5822 185.088 49.7888 184.207 50.1319C183.347 50.4526 182.721 50.7509 182.329 51.0269L182.023 44.8876C182.513 44.4358 183.242 44.0468 184.208 43.7208C185.175 43.3948 186.287 43.2005 187.545 43.1378C188.462 43.0921 189.362 43.1541 190.247 43.3237C191.152 43.4709 191.978 43.7503 192.725 44.1618C193.472 44.5734 194.129 45.1069 194.696 45.7625C195.263 46.4181 195.658 47.2639 195.88 48.3C196.121 49.271 196.162 50.1023 196.005 50.7941C195.867 51.4634 195.641 52.073 195.326 52.6229C195.032 53.1505 194.661 53.6391 194.213 54.0888C193.787 54.5375 193.222 54.9824 192.517 55.4236L191.681 56.0102L191.934 61.0943L186.115 61.3844L185.815 55.3729ZM192.122 68.7141L191.812 62.5108L186.217 62.7897L186.526 68.993L192.122 68.7141Z" fill="black"/>
</svg>
