<svg width="38" height="28" viewBox="0 0 38 28" fill="none" xmlns="http://www.w3.org/2000/svg">
<path d="M2.48742 4.6958C-2.11628 6.96497 0.937627 21.477 1.69236 26.1191C8.18979 30.6063 9.71854 25.5597 12.9352 20.2674C18.2965 28.832 24.6602 27.481 32.4648 23.3215C41.2261 17.827 38.5629 16.4979 31.5799 10.3887L32.3018 9.64936C39.4648 2.42678 23.7077 -7.39303 10.794 8.69259C10.2226 8.11442 9.63589 7.55001 9.03708 6.99807C6.8007 4.95432 5.40805 4.56279 2.48742 4.6958ZM21.3658 15.4422C20.78 16.2957 19.6656 17.8141 19.2708 18.6946L19.0511 19.4945L18.5134 19.5927C17.2271 18.6537 16.3834 17.2269 16.1767 15.6486C16.0391 14.6297 16.218 13.9504 16.7109 13.0848C18.5703 14.2385 19.3184 14.7533 21.3658 15.4422ZM27.737 6.74227C26.4234 6.6539 24.6399 6.69929 23.6195 6.03332C23.5286 5.08795 23.5224 5.42154 24.1703 4.43794C25.467 4.38169 26.4533 4.25089 27.6826 4.70962C28.4196 5.51361 28.4315 5.74023 27.737 6.74227Z" fill="#FE7F03"/>
<path d="M28.1448 14.82C27.1733 15.8665 25.1497 19.189 26.0733 20.5472L27.1488 20.323C28.6571 19.7192 30.6708 18.6751 32.1781 17.9497C30.6752 16.6258 29.8004 15.9441 28.1448 14.82Z" fill="#FEEEC6"/>
<path d="M16.7111 13.0848C16.2182 13.9503 16.0393 14.6296 16.1769 15.6485C16.3836 17.2268 17.2273 18.6536 18.5136 19.5926L19.0513 19.4944L19.271 18.6945C19.6658 17.814 20.7802 16.2957 21.366 15.4422C19.3186 14.7532 18.5704 14.2385 16.7111 13.0848Z" fill="#FECA07" fill-opacity="0.878431"/>
<path d="M24.17 4.43794C23.522 5.42154 23.5283 5.08794 23.6191 6.03332C24.6395 6.69928 26.423 6.6539 27.7367 6.74226C28.4312 5.74022 28.4193 5.5136 27.6823 4.70962C26.4529 4.25089 25.4667 4.38169 24.17 4.43794Z" fill="#FE9B01" fill-opacity="0.0117647"/>
</svg>
