<svg width="155" height="143" viewBox="0 0 155 143" fill="none" xmlns="http://www.w3.org/2000/svg">
<path d="M51.0873 9.175C50.8824 8.48202 49.1886 5.63576 49.716 5.15615C52.6395 2.50323 60.976 1.76918 64.7706 0.852952C72.4169 -0.99403 74.0715 -0.235137 71.7478 7.08476C74.6442 6.38374 87.2334 5.64661 90.4914 5.52792C95.5548 5.34356 137.333 2.70019 140.723 3.89058C141.884 7.23017 142.387 11.8809 142.984 15.4739L145.847 32.0404C147.511 41.4929 155.905 119.837 154.193 123.117C149.733 126.232 102.509 129.81 95.8089 130.849C84.9648 132.542 74.1327 134.3 63.3127 136.123H34.6932C32.0681 136.556 24.6983 142.857 22.3233 143C20.9911 138.503 19.1617 136.953 15.5842 133.938C15.2496 131.218 13.5859 125.47 13.1097 123.117C10.9427 112.356 -2.72629 26.598 0.486557 20.2775C5.78805 15.3253 41.7472 10.1155 51.0873 9.175ZM58.589 4.35769L60.0628 7.06345C60.1984 7.05079 60.3311 7.0381 60.4637 7.02542C62.6217 4.81284 64.4451 6.32693 67.025 7.47386C67.6368 6.16773 68.7248 4.02073 69.0835 2.71768L68.544 2.61054C65.6898 3.205 61.5215 3.96581 58.589 4.35769Z" fill="#FE9B01"/>
<path d="M51.194 9.95736C50.9886 9.20529 49.2912 6.11632 49.8198 5.59582C52.7494 2.71668 61.1034 1.92004 64.9058 0.925685C72.5682 -1.07879 74.2263 -0.255188 71.8977 7.68889C71.4356 9.00096 71.0973 10.4284 70.1097 11.3558C68.1435 12.0563 65.7153 10.0164 63.743 11.2004C63.4138 12.5268 63.4441 13.437 62.5108 14.0826C60.9614 13.751 60.2456 12.6054 59.2731 11.3877C58.0227 14.2477 57.9321 14.5348 55.2743 16.0822C53.6917 13.9633 52.5893 12.2057 51.194 9.95736ZM58.7113 4.72928L60.1882 7.66576C60.3241 7.65202 60.457 7.63825 60.5899 7.62448C62.7524 5.22324 64.5796 6.86643 67.165 8.11117C67.7781 6.69366 68.8684 4.36359 69.2278 2.94942L68.6872 2.83314C65.827 3.47829 61.65 4.30398 58.7113 4.72928Z" fill="#1D1D1D"/>
<path d="M20.6446 39.6243L20.8558 41.291L13.1475 42.2678L11.6127 30.1567L14.1127 29.8399L15.4363 40.2843L20.6446 39.6243ZM22.1882 28.3932C22.5771 28.3439 22.9228 28.4365 23.2253 28.671C23.5279 28.9055 23.7038 29.2171 23.7531 29.606C23.8211 30.1431 23.763 30.6867 23.5787 31.2369C23.3944 31.7871 23.1243 32.2541 22.7684 32.6379C22.4218 33.0205 22.0506 33.2463 21.6548 33.3153C21.905 32.7661 22.1111 32.0532 22.2728 31.1766C21.9417 31.1621 21.6538 31.0434 21.4092 30.8203C21.1633 30.5881 21.0187 30.3006 20.9753 29.9581C20.926 29.5692 21.0186 29.2234 21.2531 28.9209C21.4876 28.6183 21.7993 28.4424 22.1882 28.3932ZM29.6021 27.877L31.1369 39.9881L28.6369 40.3049L27.1021 28.1938L29.6021 27.877ZM39.3928 36.0631L34.7122 36.6562L34.0574 39.618L31.974 39.882L34.8837 27.2077L37.5226 26.8733L43.5018 38.4212L40.724 38.7732L39.3928 36.0631ZM38.6121 34.4686L36.2389 29.6608L35.0843 34.9156L38.6121 34.4686ZM55.5703 33.9424C55.5327 34.9821 55.2354 35.7912 54.6784 36.3698C54.1226 36.9577 53.3447 37.315 52.3447 37.4417C51.4928 37.5497 50.7257 37.4728 50.0434 37.2112C49.3611 36.9496 48.8035 36.5216 48.3707 35.9273C47.9379 35.333 47.6664 34.6007 47.5561 33.7303C47.4434 32.8414 47.526 32.0454 47.8038 31.3422C48.0909 30.6379 48.5321 30.0739 49.1276 29.6504C49.7219 29.2175 50.4218 28.9501 51.2274 28.848C52.0793 28.7401 52.8504 28.8493 53.541 29.1757C54.2303 29.4929 54.7262 30.0651 55.0286 30.8923L53.1684 31.6926C53.0345 31.2297 52.8146 30.9048 52.5086 30.7178C52.2108 30.5203 51.8813 30.4445 51.5202 30.4902C50.9831 30.5583 50.5761 30.8357 50.2991 31.3223C50.0209 31.7998 49.9305 32.4227 50.0279 33.1913C50.1429 34.0987 50.467 34.7632 51.0003 35.1848C51.5335 35.6065 52.1797 35.7692 52.939 35.673C53.976 35.5416 54.8531 34.9647 55.5703 33.9424ZM63.93 27.3653L64.986 35.6986L62.486 36.0155L62.3048 34.5849C62.2082 35.0111 61.9548 35.3866 61.5443 35.7114C61.1444 36.0444 60.6342 36.2501 60.0138 36.3287C59.3471 36.4132 58.7236 36.3182 58.1431 36.0437C57.5731 35.7772 57.0948 35.3439 56.7083 34.7437C56.3206 34.1343 56.0705 33.3851 55.9578 32.4962C55.8452 31.6074 55.9017 30.8287 56.1275 30.1604C56.3533 29.492 56.7188 28.9612 57.224 28.5679C57.7292 28.1746 58.3337 27.9334 59.0374 27.8442C59.4726 27.789 59.9067 27.7999 60.3398 27.8767C60.781 27.9431 61.1708 28.0866 61.5092 28.3071L61.43 27.6821L63.93 27.3653ZM61.6676 29.5571C61.3999 29.3746 61.1068 29.2519 60.7883 29.1887C60.4791 29.1244 60.1995 29.1081 59.9495 29.1398C59.394 29.2102 59.0021 29.5327 58.7738 30.1073C58.5548 30.6807 58.4999 31.3979 58.609 32.2591C58.7217 33.148 58.9526 33.8196 59.3018 34.2739C59.6591 34.7179 60.06 34.9117 60.5045 34.8554C60.8748 34.8084 61.212 34.6105 61.5158 34.2615C61.8301 33.9206 62.0274 33.5099 62.1076 33.0293L61.6676 29.5571ZM70.1717 26.4332C70.8754 26.344 71.5209 26.4269 72.1083 26.6817C72.6956 26.9366 73.182 27.3594 73.5673 27.9503C73.9527 28.5413 74.2017 29.2812 74.3143 30.17C74.427 31.0589 74.3716 31.8468 74.1481 32.5337C73.9235 33.2113 73.5639 33.7508 73.0691 34.1522C72.5847 34.5617 72.0092 34.8086 71.3425 34.8931C70.7221 34.9717 70.1721 34.9003 69.6925 34.6789C69.2233 34.4655 68.8888 34.1645 68.689 33.7759L69.3209 38.762L66.8208 39.0788L65.3142 27.1899L67.8142 26.8731L67.8934 27.4981C68.1661 27.2001 68.5032 26.9645 68.9046 26.7913C69.3141 26.6077 69.7365 26.4884 70.1717 26.4332ZM70.4998 33.5887C70.9443 33.5324 71.2795 33.2453 71.5055 32.7274C71.7396 32.1992 71.8004 31.4906 71.6877 30.6017C71.5786 29.7406 71.3419 29.0603 70.9775 28.5608C70.6224 28.0601 70.1671 27.845 69.6115 27.9154C69.3615 27.9471 69.0902 28.0332 68.7976 28.1738C68.5142 28.3132 68.2656 28.5046 68.0519 28.7481L68.4919 32.2203C68.6894 32.6657 68.9829 33.0142 69.3723 33.2659C69.7629 33.5269 70.1387 33.6345 70.4998 33.5887ZM78.1041 27.2625L78.509 30.457C78.6275 31.3922 78.8139 32.1212 79.0683 32.644C79.3239 33.1761 79.7054 33.5511 80.2129 33.769C79.9189 33.8251 79.7071 33.8614 79.5775 33.8778C78.4293 34.0233 77.5798 33.8158 77.029 33.2552C76.4874 32.6935 76.1333 31.7553 75.9667 30.4405L75.6041 27.5793L74.5625 27.7113L74.3513 26.0447L75.3929 25.9127L75.0972 23.5793L77.5972 23.2625L77.8929 25.5959L79.4763 25.3952L79.6875 27.0619L78.1041 27.2625ZM88.326 24.2737L89.382 32.6071L86.882 32.9239L86.7184 31.6322C86.5986 32.0237 86.3255 32.3923 85.8989 32.738C85.4827 33.0918 84.9413 33.311 84.2746 33.3954C83.5432 33.4881 82.8721 33.3521 82.2614 32.9873C81.6599 32.6214 81.2894 31.8874 81.1497 30.7856L80.451 25.2717L82.951 24.9549L83.6638 30.5799C83.7307 31.1077 83.894 31.468 84.1536 31.6609C84.4133 31.8538 84.7005 31.9303 85.0153 31.8904C85.3857 31.8434 85.7095 31.6519 85.9868 31.3157C86.2652 30.9888 86.4434 30.5758 86.5212 30.0767L85.826 24.5905L88.326 24.2737ZM94.2805 23.378C94.5491 23.344 94.8454 23.3441 95.1696 23.3783C95.5031 23.4113 95.7839 23.4745 96.0121 23.5678L95.8358 25.0719C95.7073 25.0224 95.5486 24.9954 95.3599 24.9911C95.17 24.9776 95.001 24.9802 94.8529 24.9989C94.5195 25.0412 94.1887 25.1772 93.8603 25.407C93.5319 25.6367 93.2615 25.9532 93.0492 26.3565C92.8369 26.7597 92.7265 27.2253 92.7182 27.7532L93.2708 32.1143L90.7708 32.4311L89.7148 24.0977L92.2148 23.7809L92.294 24.4059C92.5066 24.1532 92.7985 23.9328 93.1698 23.7446C93.5399 23.5472 93.9102 23.425 94.2805 23.378ZM99.0454 27.8263C99.2722 28.4279 99.6255 28.877 100.105 29.1738C100.593 29.46 101.221 29.5545 101.99 29.4571C102.36 29.4101 102.769 29.2972 103.217 29.1181C103.674 28.9379 104.082 28.6322 104.441 28.2009C104.368 29.104 104.043 29.8084 103.467 30.3141C102.901 30.8187 102.145 31.1308 101.201 31.2505C99.8399 31.423 98.7368 31.1817 97.8918 30.5268C97.0467 29.8718 96.5391 28.873 96.369 27.5304C96.2563 26.6415 96.3204 25.8479 96.5612 25.1494C96.8112 24.4497 97.2201 23.8899 97.7878 23.4698C98.3543 23.0405 99.0449 22.7743 99.8598 22.671C100.925 22.5361 101.877 22.7776 102.718 23.3955C103.566 24.003 104.11 25.2558 104.351 27.154L99.0454 27.8263ZM100.057 24.3394C99.6589 24.3899 99.3484 24.5751 99.1255 24.895C98.9119 25.2137 98.8009 25.637 98.7925 26.1649L101.723 25.7935C101.596 25.2358 101.377 24.8448 101.066 24.6208C100.764 24.3863 100.427 24.2925 100.057 24.3394ZM116.471 16.8687L118.005 28.9798L115.505 29.2966L115.324 27.8661C115.228 28.2923 114.974 28.6678 114.564 28.9926C114.164 29.3255 113.654 29.5313 113.033 29.6099C112.366 29.6944 111.743 29.5994 111.162 29.3249C110.592 29.0584 110.114 28.6251 109.728 28.0249C109.34 27.4155 109.09 26.6663 108.977 25.7774C108.865 24.8885 108.921 24.1099 109.147 23.4416C109.373 22.7732 109.738 22.2424 110.243 21.8491C110.749 21.4558 111.353 21.2145 112.057 21.1254C112.492 21.0702 112.926 21.0811 113.359 21.1579C113.8 21.2243 114.19 21.3678 114.529 21.5883L113.971 17.1855L116.471 16.8687ZM114.687 22.8383C114.419 22.6558 114.126 22.533 113.808 22.4699C113.498 22.4056 113.219 22.3893 112.969 22.421C112.413 22.4914 112.021 22.8139 111.793 23.3885C111.574 23.9619 111.519 24.6791 111.628 25.5403C111.741 26.4291 111.972 27.1008 112.321 27.5551C112.678 27.9991 113.079 28.1929 113.524 28.1366C113.894 28.0896 114.231 27.8917 114.535 27.5427C114.849 27.2018 115.047 26.7911 115.127 26.3105L114.687 22.8383ZM121.127 25.0281C121.353 25.6297 121.707 26.0788 122.186 26.3755C122.674 26.6618 123.302 26.7562 124.071 26.6589C124.441 26.6119 124.85 26.4989 125.298 26.3199C125.755 26.1397 126.163 25.834 126.523 25.4027C126.449 26.3058 126.124 27.0102 125.548 27.5159C124.982 28.0205 124.227 28.3326 123.282 28.4523C121.921 28.6247 120.818 28.3835 119.973 27.7285C119.128 27.0736 118.62 26.0748 118.45 24.7322C118.338 23.8433 118.402 23.0496 118.642 22.3512C118.892 21.6515 119.301 21.0917 119.869 20.6716C120.435 20.2423 121.126 19.9761 121.941 19.8728C123.006 19.7379 123.958 19.9794 124.799 20.5973C125.647 21.2048 126.192 22.4576 126.432 24.3557L121.127 25.0281ZM122.138 21.5412C121.74 21.5917 121.43 21.7769 121.207 22.0968C120.993 22.4155 120.882 22.8388 120.874 23.3667L123.804 22.9953C123.677 22.4375 123.458 22.0466 123.148 21.8226C122.845 21.5881 122.509 21.4943 122.138 21.5412ZM18.6795 57.0799C18.9943 57.04 19.2402 56.9383 19.417 56.7747C19.6043 56.6193 19.685 56.4397 19.6592 56.236C19.624 55.9582 19.432 55.7426 19.0833 55.5893C18.7334 55.4266 18.2863 55.2763 17.742 55.1383C17.0043 54.959 16.4489 54.8083 16.0759 54.6862C15.7018 54.5548 15.3611 54.3534 15.0539 54.0819C14.7454 53.8011 14.5607 53.42 14.4997 52.9385C14.407 52.207 14.6462 51.6075 15.2173 51.14C15.7965 50.6621 16.5814 50.3603 17.5722 50.2348C18.4703 50.1209 19.2744 50.1931 19.9845 50.4512C20.6934 50.7001 21.2267 51.1593 21.5844 51.829L19.5715 52.6486C19.4239 52.3004 19.1978 52.075 18.8931 51.9725C18.5885 51.87 18.2695 51.8398 17.9362 51.8821C17.6399 51.9196 17.4009 52.0016 17.2194 52.1281C17.046 52.2442 16.9716 52.3994 16.9962 52.5939C17.0173 52.7606 17.1038 52.886 17.2556 52.9703C17.4166 53.0533 17.6773 53.1426 18.0374 53.2381C18.3779 53.3267 18.5916 53.3795 18.6785 53.3968C19.4741 53.5876 20.0845 53.7643 20.5096 53.9268C20.9429 54.0788 21.305 54.3011 21.5961 54.5935C21.8964 54.8847 22.0777 55.2757 22.1398 55.7664C22.2419 56.572 21.989 57.2485 21.381 57.7959C20.773 58.3434 19.9273 58.6857 18.844 58.823C17.9366 58.938 17.0925 58.8474 16.3117 58.5512C15.5321 58.2643 14.947 57.6563 14.5565 56.7274L16.7171 55.9597C16.8915 56.3704 17.1559 56.6755 17.5105 56.8752C17.8732 57.0644 18.2629 57.1327 18.6795 57.0799ZM30.2417 48.7703L31.2978 57.1037L28.7977 57.4205L28.6341 56.1288C28.5143 56.5203 28.2412 56.8889 27.8146 57.2346C27.3984 57.5884 26.857 57.8076 26.1903 57.8921C25.4589 57.9848 24.7878 57.8487 24.1771 57.4839C23.5756 57.118 23.2051 56.3841 23.0654 55.2822L22.3667 49.7683L24.8667 49.4515L25.5795 55.0765C25.6464 55.6043 25.8097 55.9646 26.0693 56.1575C26.329 56.3504 26.6162 56.4269 26.931 56.387C27.3014 56.3401 27.6252 56.1485 27.9025 55.8123C28.1809 55.4854 28.3591 55.0724 28.4369 54.5733L27.7417 49.0872L30.2417 48.7703ZM36.4879 47.8377C37.1916 47.7485 37.8372 47.8313 38.4245 48.0862C39.0119 48.341 39.4982 48.7639 39.8836 49.3548C40.2689 49.9457 40.5179 50.6856 40.6306 51.5745C40.7432 52.4634 40.6878 53.2513 40.4644 53.9382C40.2398 54.6158 39.8801 55.1553 39.3853 55.5567C38.901 55.9662 38.3254 56.2131 37.6588 56.2976C37.0384 56.3762 36.4884 56.3048 36.0087 56.0834C35.5395 55.87 35.205 55.569 35.0053 55.1803L35.1865 56.6109L32.6865 56.9277L31.1518 44.8166L33.6518 44.4998L34.2097 48.9025C34.4824 48.6046 34.8195 48.369 35.2209 48.1958C35.6304 48.0122 36.0527 47.8928 36.4879 47.8377ZM36.8161 54.9932C37.2605 54.9369 37.5958 54.6498 37.8218 54.1319C38.0559 53.6036 38.1166 52.8951 38.004 52.0062C37.8949 51.145 37.6581 50.4647 37.2938 49.9653C36.9387 49.4646 36.4834 49.2495 35.9278 49.3199C35.6778 49.3515 35.4065 49.4377 35.1138 49.5782C34.8304 49.7176 34.5819 49.9091 34.3681 50.1526L34.8081 53.6248C35.0057 54.0701 35.2992 54.4187 35.6886 54.6704C36.0791 54.9314 36.455 55.039 36.8161 54.9932ZM44.4204 48.667L44.8252 51.8615C44.9437 52.7966 45.1302 53.5257 45.3846 54.0485C45.6402 54.5806 46.0217 54.9556 46.5291 55.1735C46.2352 55.2296 46.0234 55.2658 45.8938 55.2823C44.7456 55.4278 43.8961 55.2203 43.3453 54.6597C42.8037 54.098 42.4496 53.1598 42.283 51.8449L41.9204 48.9838L40.8787 49.1158L40.6675 47.4492L41.7092 47.3171L41.4135 44.9838L43.9135 44.667L44.2092 47.0003L45.7925 46.7997L46.0037 48.4664L44.4204 48.667ZM49.7785 43.7121C49.4501 43.9419 49.1566 44.2237 48.8978 44.5575C48.6391 44.8914 48.4481 45.2401 48.3248 45.6039C47.8525 44.9205 47.2289 44.4538 46.454 44.2039C47.1233 43.6205 47.6153 42.9749 47.9302 42.267C48.3852 42.962 49.0013 43.4437 49.7785 43.7121ZM49.6978 46.3048L50.7539 54.6382L48.2539 54.955L47.1978 46.6216L49.6978 46.3048ZM54.7794 52.0112C54.8404 52.4927 54.9551 52.878 55.1234 53.1672C55.3022 53.4644 55.5521 53.6914 55.873 53.8483C55.3569 54.0078 54.9323 54.1087 54.5989 54.1509C53.9323 54.2354 53.4019 54.1332 53.0078 53.8445C52.6137 53.5558 52.3685 53.0317 52.2723 52.2725L51.0086 42.3002L53.5086 41.9834L54.7794 52.0112ZM60.4005 51.7928C60.7154 51.7529 60.9612 51.6512 61.138 51.4877C61.3253 51.3322 61.406 51.1527 61.3802 50.949C61.345 50.6712 61.1531 50.4556 60.8044 50.3022C60.4545 50.1396 60.0074 49.9893 59.463 49.8513C58.7253 49.6719 58.1699 49.5212 57.797 49.3991C57.4228 49.2678 57.0821 49.0664 56.7749 48.7948C56.4665 48.5141 56.2817 48.1329 56.2207 47.6514C56.128 46.92 56.3672 46.3205 56.9383 45.853C57.5175 45.375 58.3025 45.0733 59.2932 44.9477C60.1914 44.8339 60.9955 44.906 61.7056 45.1642C62.4145 45.413 62.9478 45.8723 63.3055 46.542L61.2925 47.3615C61.1449 47.0133 60.9188 46.788 60.6141 46.6854C60.3095 46.5829 59.9905 46.5528 59.6572 46.595C59.3609 46.6326 59.122 46.7146 58.9404 46.8411C58.767 46.9572 58.6926 47.1124 58.7172 47.3068C58.7383 47.4735 58.8248 47.599 58.9766 47.6832C59.1377 47.7663 59.3983 47.8556 59.7585 47.9511C60.099 48.0396 60.3126 48.0925 60.3995 48.1097C61.1951 48.3005 61.8055 48.4772 62.2307 48.6397C62.6639 48.7918 63.026 49.014 63.3171 49.3064C63.6174 49.5976 63.7987 49.9886 63.8609 50.4794C63.963 51.2849 63.71 51.9614 63.102 52.5089C62.494 53.0563 61.6483 53.3987 60.565 53.536C59.6576 53.651 58.8135 53.5604 58.0327 53.2642C57.2531 52.9772 56.6681 52.3693 56.2775 51.4404L58.4381 50.6726C58.6125 51.0833 58.877 51.3885 59.2315 51.5882C59.5942 51.7774 59.9839 51.8456 60.4005 51.7928ZM71.2629 40.9895C70.9346 41.2193 70.641 41.5011 70.3822 41.8349C70.1235 42.1688 69.9325 42.5176 69.8092 42.8813C69.3369 42.1979 68.7133 41.7313 67.9384 41.4814C68.6077 40.8979 69.0998 40.2523 69.4146 39.5444C69.8696 40.2394 70.4857 40.7211 71.2629 40.9895ZM71.1823 43.5822L72.2383 51.9156L69.7383 52.2324L68.6822 43.899L71.1823 43.5822ZM78.0792 42.5671C78.8106 42.4744 79.4771 42.611 80.0786 42.977C80.6893 43.3418 81.0644 44.0751 81.2041 45.1769L81.9028 50.6908L79.4028 51.0077L78.69 45.3826C78.6231 44.8549 78.4598 44.4945 78.2002 44.3016C77.9405 44.1088 77.6533 44.0323 77.3385 44.0721C76.9681 44.1191 76.6443 44.3106 76.367 44.6468C76.0886 44.9738 75.9104 45.3868 75.8326 45.8859L76.5278 51.372L74.0278 51.6888L72.9718 43.3554L75.4718 43.0386L75.6354 44.3303C75.7552 43.9388 76.0237 43.5708 76.441 43.2263C76.8665 42.8713 77.4125 42.6516 78.0792 42.5671ZM89.8263 37.3811L91.3611 49.4923L88.861 49.8091L88.6798 48.3785C88.5832 48.8047 88.3298 49.1802 87.9194 49.505C87.5194 49.838 87.0092 50.0437 86.3888 50.1224C85.7222 50.2068 85.0986 50.1118 84.5181 49.8373C83.9481 49.5708 83.4698 49.1375 83.0833 48.5373C82.6956 47.9279 82.4455 47.1788 82.3328 46.2899C82.2202 45.401 82.2767 44.6224 82.5025 43.954C82.7283 43.2856 83.0938 42.7548 83.599 42.3615C84.1042 41.9682 84.7087 41.727 85.4124 41.6378C85.8476 41.5826 86.2817 41.5935 86.7148 41.6703C87.156 41.7367 87.5458 41.8802 87.8842 42.1007L87.3263 37.6979L89.8263 37.3811ZM88.0426 43.3507C87.7749 43.1683 87.4818 43.0455 87.1633 42.9823C86.8541 42.918 86.5745 42.9017 86.3245 42.9334C85.769 43.0038 85.3771 43.3263 85.1488 43.9009C84.9298 44.4743 84.8749 45.1916 84.984 46.0527C85.0967 46.9416 85.3276 47.6132 85.6768 48.0676C86.0342 48.5115 86.435 48.7053 86.8795 48.649C87.2499 48.602 87.587 48.4041 87.8908 48.0551C88.2052 47.7142 88.4024 47.3035 88.4826 46.823L88.0426 43.3507ZM94.7005 38.0194C94.3721 38.2492 94.0785 38.531 93.8198 38.8648C93.561 39.1987 93.37 39.5475 93.2468 39.9112C92.7745 39.2278 92.1509 38.7612 91.376 38.5113C92.0453 37.9278 92.5373 37.2822 92.8522 36.5743C93.3071 37.2693 93.9233 37.751 94.7005 38.0194ZM94.6198 40.6121L95.6758 48.9455L93.1758 49.2623L92.1198 40.9289L94.6198 40.6121ZM104.542 44.8725C104.504 45.9122 104.207 46.7213 103.65 47.2999C103.094 47.8878 102.316 48.2451 101.316 48.3718C100.464 48.4798 99.6974 48.4029 99.0151 48.1413C98.3327 47.8797 97.7752 47.4517 97.3424 46.8574C96.9096 46.2631 96.638 45.5308 96.5277 44.6604C96.4151 43.7715 96.4976 42.9755 96.7754 42.2723C97.0625 41.5679 97.5038 41.004 98.0992 40.5804C98.6935 40.1476 99.3935 39.8802 100.199 39.7781C101.051 39.6701 101.822 39.7794 102.513 40.1058C103.202 40.423 103.698 40.9952 104 41.8224L102.14 42.6226C102.006 42.1598 101.786 41.8349 101.48 41.6479C101.182 41.4504 100.853 41.3746 100.492 41.4203C99.9548 41.4884 99.5478 41.7657 99.2707 42.2524C98.9926 42.7299 98.9022 43.3528 98.9995 44.1213C99.1145 45.0288 99.4387 45.6933 99.9719 46.1149C100.505 46.5366 101.151 46.6993 101.911 46.6031C102.948 46.4716 103.825 45.8948 104.542 44.8725ZM107.625 43.875C107.852 44.4766 108.205 44.9257 108.685 45.2224C109.173 45.5087 109.801 45.6032 110.57 45.5058C110.94 45.4588 111.349 45.3458 111.797 45.1668C112.254 44.9866 112.662 44.6809 113.021 44.2496C112.947 45.1527 112.623 45.8571 112.047 46.3628C111.481 46.8674 110.725 47.1795 109.781 47.2992C108.42 47.4716 107.317 47.2304 106.472 46.5754C105.627 45.9205 105.119 44.9217 104.949 43.5791C104.836 42.6902 104.9 41.8965 105.141 41.1981C105.391 40.4984 105.8 39.9386 106.368 39.5185C106.934 39.0892 107.625 38.823 108.44 38.7197C109.504 38.5848 110.457 38.8263 111.297 39.4442C112.146 40.0517 112.69 41.3045 112.931 43.2026L107.625 43.875ZM108.637 40.3881C108.239 40.4386 107.928 40.6238 107.705 40.9437C107.492 41.2624 107.381 41.6857 107.372 42.2136L110.303 41.8422C110.176 41.2844 109.957 40.8935 109.646 40.6695C109.344 40.435 109.007 40.3412 108.637 40.3881ZM117.747 44.5257C118.061 44.4858 118.307 44.3841 118.484 44.2206C118.671 44.0651 118.752 43.8856 118.726 43.6818C118.691 43.4041 118.499 43.1885 118.15 43.0351C117.801 42.8725 117.353 42.7222 116.809 42.5842C116.071 42.4048 115.516 42.2541 115.143 42.132C114.769 42.0007 114.428 41.7993 114.121 41.5277C113.813 41.2469 113.628 40.8658 113.567 40.3843C113.474 39.6528 113.713 39.0534 114.284 38.5858C114.864 38.1079 115.649 37.8062 116.639 37.6806C117.537 37.5668 118.342 37.6389 119.052 37.8971C119.761 38.1459 120.294 38.6052 120.652 39.2748L118.639 40.0944C118.491 39.7462 118.265 39.5208 117.96 39.4183C117.656 39.3158 117.337 39.2857 117.003 39.3279C116.707 39.3655 116.468 39.4475 116.286 39.574C116.113 39.69 116.039 39.8453 116.063 40.0397C116.084 40.2064 116.171 40.3319 116.323 40.4161C116.484 40.4992 116.744 40.5885 117.105 40.6839C117.445 40.7725 117.659 40.8254 117.746 40.8426C118.541 41.0334 119.152 41.2101 119.577 41.3726C120.01 41.5247 120.372 41.7469 120.663 42.0393C120.963 42.3305 121.145 42.7215 121.207 43.2123C121.309 44.0178 121.056 44.6943 120.448 45.2418C119.84 45.7892 118.994 46.1316 117.911 46.2689C117.004 46.3839 116.16 46.2933 115.379 45.9971C114.599 45.7101 114.014 45.1022 113.624 44.1733L115.784 43.4055C115.959 43.8162 116.223 44.1214 116.578 44.3211C116.94 44.5103 117.33 44.5785 117.747 44.5257ZM24.1437 66.6791L22.3941 75.368L19.6719 75.7129L15.8103 67.7351L17.8937 67.4711L20.4744 72.803L21.6437 66.9959L24.1437 66.6791ZM27.9899 63.6092C27.6615 63.839 27.3679 64.1208 27.1092 64.4546C26.8504 64.7885 26.6594 65.1372 26.5362 65.5009C26.0639 64.8176 25.4402 64.3509 24.6653 64.101C25.3346 63.5176 25.8267 62.8719 26.1415 62.1641C26.5965 62.8591 27.2126 63.3408 27.9899 63.6092ZM27.9092 66.2019L28.9652 74.5352L26.4652 74.8521L25.4092 66.5187L27.9092 66.2019ZM34.1496 72.2554C34.4644 72.2155 34.7102 72.1138 34.887 71.9503C35.0743 71.7948 35.1551 71.6152 35.1292 71.4115C35.094 71.1338 34.9021 70.9182 34.5534 70.7648C34.2035 70.6022 33.7564 70.4518 33.212 70.3139C32.4743 70.1345 31.9189 69.9838 31.546 69.8617C31.1718 69.7304 30.8311 69.5289 30.5239 69.2574C30.2155 68.9766 30.0308 68.5955 29.9697 68.114C29.877 67.3825 30.1162 66.783 30.6873 66.3155C31.2665 65.8376 32.0515 65.5358 33.0422 65.4103C33.9404 65.2965 34.7445 65.3686 35.4546 65.6267C36.1635 65.8756 36.6968 66.3349 37.0545 67.0045L35.0415 67.8241C34.8939 67.4759 34.6678 67.2505 34.3632 67.148C34.0585 67.0455 33.7395 67.0154 33.4062 67.0576C33.1099 67.0952 32.871 67.1772 32.6894 67.3037C32.516 67.4197 32.4416 67.575 32.4662 67.7694C32.4874 67.9361 32.5738 68.0616 32.7256 68.1458C32.8867 68.2289 33.1473 68.3182 33.5075 68.4136C33.848 68.5022 34.0617 68.5551 34.1485 68.5723C34.9441 68.7631 35.5545 68.9398 35.9797 69.1023C36.4129 69.2544 36.775 69.4766 37.0661 69.769C37.3664 70.0602 37.5477 70.4512 37.6099 70.9419C37.712 71.7475 37.459 72.424 36.851 72.9715C36.243 73.5189 35.3973 73.8613 34.314 73.9986C33.4066 74.1135 32.5625 74.0229 31.7817 73.7267C31.0022 73.4398 30.4171 72.8319 30.0265 71.9029L32.1872 71.1352C32.3615 71.5459 32.626 71.8511 32.9805 72.0507C33.3432 72.24 33.7329 72.3082 34.1496 72.2554ZM45.7118 63.9459L46.7678 72.2792L44.2678 72.5961L44.1041 71.3044C43.9844 71.6959 43.7112 72.0645 43.2846 72.4102C42.8685 72.764 42.327 72.9831 41.6604 73.0676C40.9289 73.1603 40.2578 73.0242 39.6471 72.6595C39.0456 72.2935 38.6751 71.5596 38.5355 70.4577L37.8367 64.9438L40.3367 64.627L41.0496 70.252C41.1164 70.7798 41.2797 71.1402 41.5394 71.333C41.799 71.5259 42.0862 71.6024 42.401 71.5625C42.7714 71.5156 43.0952 71.324 43.3725 70.9878C43.6509 70.6609 43.8291 70.2479 43.907 69.7488L43.2117 64.2627L45.7118 63.9459ZM49.8936 68.3269C50.1204 68.9285 50.4736 69.3777 50.9534 69.6744C51.4413 69.9606 52.0695 70.0551 52.838 69.9577C53.2084 69.9108 53.6174 69.7978 54.0651 69.6187C54.5221 69.4385 54.9302 69.1328 55.2895 68.7015C55.2158 69.6046 54.8911 70.309 54.3154 70.8147C53.7491 71.3193 52.9936 71.6314 52.0492 71.7511C50.6881 71.9236 49.585 71.6823 48.7399 71.0274C47.8949 70.3724 47.3873 69.3736 47.2172 68.031C47.1045 67.1421 47.1686 66.3485 47.4094 65.65C47.6594 64.9503 48.0682 64.3905 48.6359 63.9705C49.2025 63.5412 49.8931 63.2749 50.7079 63.1716C51.7728 63.0367 52.7254 63.2782 53.5657 63.8961C54.4141 64.5036 54.9586 65.7564 55.1992 67.6546L49.8936 68.3269ZM50.9053 64.8401C50.5071 64.8905 50.1966 65.0757 49.9737 65.3956C49.7601 65.7143 49.6491 66.1376 49.6407 66.6655L52.5713 66.2941C52.4442 65.7364 52.2253 65.3455 51.9146 65.1214C51.6121 64.8869 51.2756 64.7931 50.9053 64.8401ZM58.8561 68.6306C58.9171 69.112 59.0318 69.4974 59.2002 69.7865C59.379 70.0837 59.6288 70.3108 59.9498 70.4677C59.4337 70.6271 59.009 70.728 58.6757 70.7702C58.009 70.8547 57.4786 70.7526 57.0846 70.4638C56.6905 70.1751 56.4453 69.6511 56.3491 68.8918L55.0854 58.9196L57.5854 58.6028L58.8561 68.6306ZM64.4773 68.4121C64.7921 68.3723 65.038 68.2705 65.2148 68.107C65.4021 67.9516 65.4828 67.772 65.457 67.5683C65.4218 67.2905 65.2298 67.0749 64.8811 66.9216C64.5312 66.7589 64.0841 66.6086 63.5398 66.4706C62.8021 66.2913 62.2467 66.1406 61.8737 66.0185C61.4996 65.8871 61.1589 65.6857 60.8517 65.4142C60.5432 65.1334 60.3585 64.7523 60.2975 64.2708C60.2048 63.5393 60.444 62.9398 61.0151 62.4723C61.5943 61.9943 62.3792 61.6926 63.37 61.5671C64.2681 61.4532 65.0722 61.5254 65.7823 61.7835C66.4912 62.0323 67.0245 62.4916 67.3822 63.1613L65.3693 63.9809C65.2217 63.6326 64.9956 63.4073 64.6909 63.3048C64.3863 63.2023 64.0673 63.1721 63.734 63.2144C63.4377 63.2519 63.1988 63.3339 63.0172 63.4604C62.8438 63.5765 62.7694 63.7317 62.794 63.9262C62.8151 64.0928 62.9016 64.2183 63.0534 64.3026C63.2144 64.3856 63.4751 64.4749 63.8352 64.5704C64.1757 64.6589 64.3894 64.7118 64.4763 64.7291C65.2719 64.9199 65.8823 65.0965 66.3074 65.2591C66.7407 65.4111 67.1028 65.6334 67.3939 65.9258C67.6942 66.217 67.8755 66.608 67.9377 67.0987C68.0397 67.9043 67.7868 68.5808 67.1788 69.1282C66.5708 69.6757 65.7251 70.018 64.6418 70.1553C63.7344 70.2703 62.8903 70.1797 62.1095 69.8835C61.3299 69.5966 60.7448 68.9886 60.3543 68.0597L62.5149 67.292C62.6893 67.7026 62.9537 68.0078 63.3083 68.2075C63.671 68.3967 64.0607 68.4649 64.4773 68.4121ZM75.1215 65.1299C75.3483 65.7315 75.7016 66.1807 76.1813 66.4774C76.6692 66.7637 77.2974 66.8581 78.0659 66.7607C78.4363 66.7138 78.8453 66.6008 79.293 66.4217C79.75 66.2415 80.1581 65.9358 80.5174 65.5045C80.4437 66.4076 80.119 67.112 79.5434 67.6178C78.977 68.1223 78.2216 68.4344 77.2771 68.5541C75.916 68.7266 74.8129 68.4854 73.9679 67.8304C73.1228 67.1754 72.6152 66.1767 72.4451 64.8341C72.3325 63.9452 72.3965 63.1515 72.6373 62.453C72.8873 61.7534 73.2962 61.1935 73.8639 60.7735C74.4304 60.3442 75.1211 60.0779 75.9359 59.9747C77.0007 59.8397 77.9533 60.0812 78.7936 60.6991C79.6421 61.3066 80.1866 62.5594 80.4271 64.4576L75.1215 65.1299ZM76.1332 61.6431C75.735 61.6935 75.4245 61.8787 75.2016 62.1986C74.988 62.5173 74.877 62.9406 74.8687 63.4685L77.7992 63.0972C77.6721 62.5394 77.4532 62.1485 77.1426 61.9244C76.84 61.6899 76.5036 61.5962 76.1332 61.6431ZM84.1282 60.771L84.5331 63.9655C84.6516 64.9007 84.838 65.6297 85.0924 66.1525C85.348 66.6846 85.7295 67.0596 86.237 67.2776C85.943 67.3336 85.7312 67.3699 85.6016 67.3863C84.4534 67.5318 83.6039 67.3243 83.0531 66.7638C82.5115 66.202 82.1574 65.2638 81.9908 63.949L81.6282 61.0879L80.5866 61.2199L80.3754 59.5532L81.417 59.4212L81.1213 57.0878L83.6213 56.771L83.917 59.1044L85.5004 58.9037L85.7116 60.5704L84.1282 60.771ZM26.0938 79.7294L27.6286 91.8406L25.1286 92.1574L24.9473 90.7268C24.8508 91.153 24.5973 91.5285 24.1869 91.8534C23.7869 92.1863 23.2767 92.3921 22.6563 92.4707C21.9897 92.5552 21.3661 92.4601 20.7857 92.1856C20.2156 91.9192 19.7374 91.4858 19.3509 90.8857C18.9632 90.2762 18.713 89.5271 18.6004 88.6382C18.4877 87.7493 18.5443 86.9707 18.77 86.3023C18.9958 85.634 19.3613 85.1031 19.8665 84.7098C20.3718 84.3165 20.9762 84.0753 21.6799 83.9861C22.1151 83.931 22.5493 83.9418 22.9824 84.0186C23.4235 84.085 23.8133 84.2285 24.1517 84.449L23.5938 80.0463L26.0938 79.7294ZM24.3101 85.699C24.0424 85.5166 23.7493 85.3938 23.4309 85.3307C23.1217 85.2664 22.8421 85.2501 22.5921 85.2817C22.0365 85.3521 21.6446 85.6746 21.4164 86.2492C21.1974 86.8226 21.1424 87.5399 21.2516 88.401C21.3642 89.2899 21.5951 89.9615 21.9444 90.4159C22.3017 90.8598 22.7026 91.0536 23.147 90.9973C23.5174 90.9504 23.8545 90.7524 24.1584 90.4035C24.4727 90.0626 24.6699 89.6518 24.7502 89.1713L24.3101 85.699ZM31.3087 81.6087C32.0125 81.5196 32.6313 81.5776 33.1653 81.7827C33.7086 81.9867 34.1514 82.3257 34.4938 82.7998C34.8361 83.2738 35.0542 83.8812 35.148 84.622L35.2748 85.622L30.3858 86.2415C30.4783 86.8225 30.7077 87.2591 31.074 87.5514C31.4496 87.8425 31.929 87.9511 32.5123 87.8772C33.0031 87.815 33.4417 87.7124 33.8281 87.5693C34.2133 87.417 34.606 87.212 35.0061 86.9543L35.2085 88.5516C34.8616 88.7837 34.4851 88.9678 34.079 89.1039C33.6833 89.2482 33.1938 89.3572 32.6105 89.4312C31.8512 89.5274 31.1623 89.4736 30.5438 89.2697C29.9241 89.0566 29.4112 88.6841 29.0051 88.1523C28.599 87.6204 28.3408 86.9193 28.2305 86.049C28.1179 85.1601 28.1728 84.4052 28.3951 83.7843C28.6256 83.153 28.9906 82.6552 29.4901 82.2908C29.9896 81.9264 30.5958 81.6991 31.3087 81.6087ZM31.5092 83.0792C31.1111 83.1297 30.7941 83.3015 30.5585 83.5948C30.3321 83.8869 30.2303 84.3091 30.2533 84.8612L33.1561 84.4934C33.1173 84.1878 33.0272 83.9217 32.8855 83.6951C32.7532 83.4672 32.5717 83.2974 32.3412 83.1855C32.1106 83.0736 31.8333 83.0381 31.5092 83.0792ZM33.7901 78.4719C33.6769 78.618 33.5255 78.7971 33.336 79.0093C33.1465 79.2214 32.9397 79.4452 32.7155 79.6806C32.5006 79.9148 32.2845 80.1398 32.0672 80.3554C31.858 80.5607 31.6731 80.7347 31.5124 80.8773L30.1374 81.0516L30.1145 80.871C30.2404 80.6763 30.3859 80.4509 30.551 80.1948C30.7242 79.9282 30.8922 79.6576 31.0549 79.383C31.2165 79.0991 31.3492 78.8471 31.453 78.6269L33.7725 78.333L33.7901 78.4719ZM44.2953 86.7791C44.2577 87.8188 43.9604 88.6279 43.4034 89.2065C42.8475 89.7944 42.0696 90.1517 41.0696 90.2784C40.2178 90.3864 39.4507 90.3095 38.7684 90.0479C38.0861 89.7863 37.5285 89.3583 37.0957 88.764C36.6629 88.1697 36.3913 87.4374 36.281 86.567C36.1684 85.6781 36.251 84.8821 36.5288 84.1789C36.8158 83.4745 37.2571 82.9106 37.8526 82.487C38.4469 82.0542 39.1468 81.7868 39.9524 81.6847C40.8042 81.5767 41.5754 81.686 42.2659 82.0124C42.9553 82.3296 43.4511 82.9018 43.7535 83.729L41.8934 84.5292C41.7595 84.0664 41.5395 83.7415 41.2336 83.5544C40.9357 83.357 40.6062 83.2811 40.2451 83.3269C39.7081 83.395 39.3011 83.6723 39.0241 84.159C38.7459 84.6365 38.6555 85.2594 38.7529 86.0279C38.8679 86.9354 39.192 87.5999 39.7252 88.0215C40.2584 88.4432 40.9047 88.6059 41.664 88.5097C42.701 88.3782 43.5781 87.8014 44.2953 86.7791ZM49.9012 80.4098C51.5031 80.2068 52.429 81.0914 52.6789 83.0637L53.3777 88.5776L50.8777 88.8944L50.1648 83.2694C50.098 82.7416 49.944 82.3801 49.7028 82.1848C49.471 81.9884 49.1976 81.9102 48.8828 81.9501C48.5124 81.997 48.1973 82.1828 47.9374 82.5074C47.6867 82.8308 47.523 83.2466 47.4463 83.755L48.1415 89.2411L45.6415 89.5579L44.1068 77.4468L46.6068 77.13L47.2492 82.1994C47.3357 81.9909 47.4904 81.7643 47.7134 81.5197C47.9445 81.2646 48.2445 81.0337 48.6135 80.827C48.9813 80.6111 49.4105 80.472 49.9012 80.4098ZM56.7249 77.1037C56.3965 77.3335 56.103 77.6153 55.8442 77.9492C55.5855 78.283 55.3945 78.6318 55.2712 78.9955C54.7989 78.3121 54.1753 77.8455 53.4004 77.5956C54.0697 77.0121 54.5617 76.3665 54.8766 75.6586C55.3316 76.3536 55.9477 76.8353 56.7249 77.1037ZM56.6442 79.6964L57.7003 88.0298L55.2003 88.3466L54.1442 80.0132L56.6442 79.6964ZM61.656 79.0613L63.6421 78.8096L63.8533 80.4763L61.8672 80.728L62.712 87.3947L60.212 87.7115L59.3672 81.0448L58.2283 81.1891L58.0171 79.5225L59.156 79.3781L59.0592 78.6143C58.9195 77.5124 59.0541 76.6815 59.463 76.1217C59.8811 75.5607 60.5069 75.2274 61.3402 75.1218C62.0902 75.0267 62.7525 75.131 63.3273 75.4344L63.1991 76.6502C63.0264 76.5498 62.8394 76.4841 62.6379 76.4532C62.4456 76.4211 62.2708 76.415 62.1134 76.435C61.8079 76.4737 61.6136 76.6112 61.5307 76.8475C61.4558 77.0734 61.4477 77.4178 61.5064 77.8808L61.656 79.0613ZM67.9494 78.2638L69.9355 78.0121L70.1467 79.6788L68.1606 79.9305L69.0054 86.5972L66.5054 86.914L65.6606 80.2473L64.5217 80.3916L64.3105 78.7249L65.4494 78.5806L65.3526 77.8167C65.2129 76.7149 65.3476 75.884 65.7564 75.3242C66.1745 74.7632 66.8003 74.4299 67.6336 74.3243C68.3836 74.2292 69.046 74.3334 69.6207 74.6369L69.4925 75.8527C69.3198 75.7523 69.1328 75.6866 68.9313 75.6557C68.7391 75.6236 68.5642 75.6175 68.4068 75.6375C68.1013 75.6762 67.907 75.8137 67.8241 76.05C67.7492 76.2759 67.7411 76.6203 67.7998 77.0832L67.9494 78.2638ZM75.5863 77.1549C75.8548 77.1209 76.1512 77.121 76.4754 77.1551C76.8089 77.1881 77.0897 77.2513 77.3179 77.3447L77.1416 78.8488C77.013 78.7993 76.8544 78.7723 76.6657 78.768C76.4758 78.7544 76.3068 78.757 76.1586 78.7758C75.8253 78.8181 75.4944 78.9541 75.1661 79.1838C74.8377 79.4136 74.5673 79.7301 74.355 80.1333C74.1427 80.5366 74.0323 81.0021 74.024 81.53L74.5766 85.8912L72.0766 86.208L71.0206 77.8746L73.5206 77.5578L73.5998 78.1828C73.8124 77.9301 74.1043 77.7096 74.4756 77.5215C74.8457 77.324 75.2159 77.2018 75.5863 77.1549ZM80.3512 81.6032C80.578 82.2048 80.9312 82.6539 81.411 82.9506C81.8989 83.2369 82.5271 83.3313 83.2956 83.2339C83.6659 83.187 84.075 83.074 84.5227 82.895C84.9797 82.7148 85.3878 82.409 85.7471 81.9778C85.6734 82.8809 85.3487 83.5853 84.773 84.091C84.2066 84.5955 83.4512 84.9077 82.5068 85.0273C81.1457 85.1998 80.0426 84.9586 79.1975 84.3036C78.3525 83.6487 77.8449 82.6499 77.6748 81.3073C77.5621 80.4184 77.6262 79.6247 77.8669 78.9262C78.117 78.2266 78.5258 77.6668 79.0935 77.2467C79.6601 76.8174 80.3507 76.5511 81.1655 76.4479C82.2304 76.313 83.1829 76.5544 84.0233 77.1724C84.8717 77.7799 85.4162 79.0327 85.6568 80.9308L80.3512 81.6032ZM81.3629 78.1163C80.9647 78.1668 80.6542 78.3519 80.4313 78.6718C80.2177 78.9906 80.1067 79.4139 80.0983 79.9418L83.0289 79.5704C82.9018 79.0126 82.6829 78.6217 82.3722 78.3977C82.0697 78.1632 81.7332 78.0694 81.3629 78.1163ZM93.4777 81.3792C93.5387 81.8606 93.6534 82.2459 93.8217 82.5351C94.0005 82.8323 94.2504 83.0593 94.5713 83.2162C94.0553 83.3757 93.6306 83.4766 93.2973 83.5188C92.6306 83.6033 92.1002 83.5012 91.7061 83.2124C91.312 82.9237 91.0669 82.3997 90.9706 81.6404L89.7069 71.6682L92.2069 71.3513L93.4777 81.3792ZM97.4411 79.4375C97.6678 80.0391 98.0211 80.4882 98.5009 80.7849C98.9887 81.0712 99.6169 81.1656 100.385 81.0683C100.756 81.0213 101.165 80.9083 101.613 80.7293C102.07 80.5491 102.478 80.2433 102.837 79.8121C102.763 80.7152 102.439 81.4196 101.863 81.9253C101.297 82.4298 100.541 82.742 99.5967 82.8616C98.2355 83.0341 97.1325 82.7929 96.2874 82.1379C95.4424 81.483 94.9348 80.4842 94.7646 79.1416C94.652 78.2527 94.7161 77.459 94.9568 76.7606C95.2069 76.0609 95.6157 75.5011 96.1834 75.081C96.7499 74.6517 97.4406 74.3855 98.2554 74.2822C99.3202 74.1473 100.273 74.3887 101.113 75.0067C101.962 75.6142 102.506 76.867 102.747 78.7651L97.4411 79.4375ZM98.4527 75.9506C98.0546 76.0011 97.7441 76.1863 97.5212 76.5061C97.3076 76.8249 97.1966 77.2482 97.1882 77.7761L100.119 77.4047C99.9916 76.8469 99.7728 76.456 99.4621 76.232C99.1596 75.9975 98.8231 75.9037 98.4527 75.9506ZM107.562 80.0882C107.877 80.0483 108.123 79.9466 108.3 79.7831C108.487 79.6276 108.568 79.448 108.542 79.2443C108.507 78.9666 108.315 78.751 107.966 78.5976C107.616 78.435 107.169 78.2847 106.625 78.1467C105.887 77.9673 105.332 77.8166 104.959 77.6945C104.585 77.5632 104.244 77.3618 103.937 77.0902C103.628 76.8094 103.444 76.4283 103.383 75.9468C103.29 75.2153 103.529 74.6158 104.1 74.1483C104.679 73.6704 105.464 73.3687 106.455 73.2431C107.353 73.1293 108.157 73.2014 108.867 73.4595C109.576 73.7084 110.11 74.1677 110.467 74.8373L108.454 75.6569C108.307 75.3087 108.081 75.0833 107.776 74.9808C107.471 74.8783 107.152 74.8482 106.819 74.8904C106.523 74.928 106.284 75.01 106.102 75.1365C105.929 75.2525 105.854 75.4078 105.879 75.6022C105.9 75.7689 105.987 75.8944 106.138 75.9786C106.3 76.0617 106.56 76.151 106.92 76.2464C107.261 76.335 107.475 76.3879 107.561 76.4051C108.357 76.5959 108.967 76.7726 109.393 76.9351C109.826 77.0872 110.188 77.3094 110.479 77.6018C110.779 77.893 110.961 78.284 111.023 78.7747C111.125 79.5803 110.872 80.2568 110.264 80.8043C109.656 81.3517 108.81 81.6941 107.727 81.8314C106.819 81.9463 105.975 81.8557 105.195 81.5595C104.415 81.2726 103.83 80.6647 103.439 79.7357L105.6 78.968C105.774 79.3787 106.039 79.6839 106.393 79.8835C106.756 80.0728 107.146 80.141 107.562 80.0882ZM25.4977 100.638C26.2014 100.549 26.8469 100.632 27.4343 100.887C28.0217 101.142 28.508 101.565 28.8934 102.155C29.2787 102.746 29.5277 103.486 29.6404 104.375C29.753 105.264 29.6976 106.052 29.4742 106.739C29.2496 107.416 28.8899 107.956 28.3951 108.357C27.9107 108.767 27.3352 109.014 26.6686 109.098C26.0482 109.177 25.4982 109.105 25.0185 108.884C24.5493 108.671 24.2148 108.37 24.015 107.981L24.6469 112.967L22.1469 113.284L20.6403 101.395L23.1403 101.078L23.2195 101.703C23.4922 101.405 23.8293 101.17 24.2307 100.996C24.6402 100.813 25.0625 100.693 25.4977 100.638ZM25.8259 107.794C26.2703 107.737 26.6056 107.45 26.8316 106.933C27.0657 106.404 27.1264 105.696 27.0138 104.807C26.9047 103.946 26.6679 103.265 26.3036 102.766C25.9485 102.265 25.4932 102.05 24.9376 102.12C24.6876 102.152 24.4163 102.238 24.1236 102.379C23.8402 102.518 23.5917 102.71 23.3779 102.953L23.8179 106.425C24.0155 106.871 24.309 107.219 24.6984 107.471C25.0889 107.732 25.4648 107.84 25.8259 107.794ZM32.887 104.754C33.1138 105.356 33.4671 105.805 33.9469 106.101C34.4347 106.388 35.0629 106.482 35.8314 106.385C36.2018 106.338 36.6108 106.225 37.0585 106.046C37.5155 105.866 37.9237 105.56 38.283 105.129C38.2092 106.032 37.8845 106.736 37.3089 107.242C36.7425 107.746 35.9871 108.058 35.0426 108.178C33.6815 108.351 32.5784 108.109 31.7334 107.454C30.8883 106.799 30.3808 105.801 30.2106 104.458C30.098 103.569 30.162 102.776 30.4028 102.077C30.6528 101.377 31.0617 100.818 31.6294 100.398C32.1959 99.9682 32.8866 99.7019 33.7014 99.5987C34.7662 99.4637 35.7188 99.7052 36.5591 100.323C37.4076 100.931 37.9521 102.183 38.1926 104.082L32.887 104.754ZM33.8987 101.267C33.5006 101.318 33.19 101.503 32.9672 101.823C32.7535 102.141 32.6425 102.565 32.6342 103.093L35.5647 102.721C35.4376 102.163 35.2187 101.773 34.9081 101.548C34.6055 101.314 34.2691 101.22 33.8987 101.267ZM43.665 98.3361C44.3964 98.2434 45.0629 98.38 45.6644 98.7459C46.2751 99.1107 46.6502 99.8441 46.7899 100.946L47.4886 106.46L44.9886 106.777L44.2758 101.152C44.2089 100.624 44.0456 100.263 43.786 100.071C43.5263 99.8777 43.2391 99.8012 42.9243 99.8411C42.5539 99.888 42.2301 100.08 41.9528 100.416C41.6744 100.743 41.4962 101.156 41.4184 101.655L42.1136 107.141L39.6136 107.458L38.5575 99.1244L41.0576 98.8076L41.2212 100.099C41.341 99.7078 41.6095 99.3398 42.0268 98.9952C42.4522 98.6403 42.9983 98.4205 43.665 98.3361ZM52.2722 104.231C52.587 104.191 52.8329 104.089 53.0097 103.926C53.197 103.77 53.2777 103.591 53.2519 103.387C53.2167 103.109 53.0247 102.894 52.676 102.74C52.3261 102.578 51.879 102.427 51.3347 102.289C50.5969 102.11 50.0416 101.959 49.6686 101.837C49.2945 101.706 48.9538 101.504 48.6465 101.233C48.3381 100.952 48.1534 100.571 48.0924 100.089C47.9997 99.3579 48.2389 98.7584 48.81 98.2909C49.3892 97.8129 50.1741 97.5112 51.1649 97.3856C52.063 97.2718 52.8671 97.344 53.5772 97.6021C54.2861 97.8509 54.8194 98.3102 55.1771 98.9799L53.1642 99.7994C53.0166 99.4512 52.7905 99.2259 52.4858 99.1234C52.1812 99.0208 51.8622 98.9907 51.5289 99.033C51.2326 99.0705 50.9936 99.1525 50.8121 99.279C50.6386 99.3951 50.5642 99.5503 50.5889 99.7448C50.61 99.9114 50.6965 100.037 50.8483 100.121C51.0093 100.204 51.2699 100.294 51.6301 100.389C51.9706 100.478 52.1843 100.53 52.2712 100.548C53.0668 100.738 53.6772 100.915 54.1023 101.078C54.5355 101.23 54.8977 101.452 55.1888 101.744C55.4891 102.036 55.6704 102.427 55.7325 102.917C55.8346 103.723 55.5817 104.399 54.9737 104.947C54.3657 105.494 53.52 105.837 52.4367 105.974C51.5293 106.089 50.6852 105.998 49.9044 105.702C49.1248 105.415 48.5397 104.807 48.1492 103.878L50.3098 103.111C50.4842 103.521 50.7486 103.826 51.1032 104.026C51.4659 104.215 51.8555 104.284 52.2722 104.231ZM59.3114 95.1961C60.0151 95.1069 60.6339 95.1649 61.168 95.3701C61.7113 95.5741 62.1541 95.9131 62.4964 96.3871C62.8387 96.8612 63.0568 97.4686 63.1506 98.2093L63.2774 99.2093L58.3885 99.8289C58.4809 100.41 58.7103 100.847 59.0766 101.139C59.4522 101.43 59.9316 101.538 60.515 101.465C61.0057 101.402 61.4443 101.3 61.8307 101.157C62.2159 101.004 62.6086 100.799 63.0087 100.542L63.2111 102.139C62.8642 102.371 62.4877 102.555 62.0816 102.691C61.686 102.836 61.1964 102.945 60.6131 103.019C59.8539 103.115 59.165 103.061 58.5464 102.857C57.9267 102.644 57.4138 102.271 57.0077 101.74C56.6016 101.208 56.3435 100.507 56.2332 99.6363C56.1205 98.7474 56.1754 97.9925 56.3978 97.3717C56.6282 96.7403 56.9932 96.2425 57.4927 95.8782C57.9922 95.5138 58.5984 95.2865 59.3114 95.1961ZM59.5118 96.6666C59.1137 96.717 58.7968 96.8889 58.5611 97.1822C58.3347 97.4743 58.233 97.8964 58.2559 98.4486L61.1587 98.0808C61.12 97.7752 61.0298 97.5091 60.8882 97.2824C60.7558 97.0546 60.5743 96.8847 60.3438 96.7728C60.1132 96.6609 59.8359 96.6255 59.5118 96.6666ZM61.7927 92.0593C61.6795 92.2053 61.5281 92.3844 61.3386 92.5966C61.1491 92.8088 60.9423 93.0326 60.7181 93.268C60.5032 93.5022 60.2871 93.7271 60.0698 93.9428C59.8606 94.1481 59.6757 94.322 59.515 94.4647L58.14 94.6389L58.1171 94.4584C58.243 94.2637 58.3885 94.0383 58.5536 93.7822C58.7268 93.5156 58.8948 93.245 59.0575 92.9704C59.2191 92.6865 59.3518 92.4344 59.4556 92.2143L61.7751 91.9204L61.7927 92.0593ZM66.9583 100.436C67.1851 101.038 67.5383 101.487 68.0181 101.784C68.506 102.07 69.1342 102.164 69.9027 102.067C70.2731 102.02 70.6821 101.907 71.1298 101.728C71.5868 101.548 71.9949 101.242 72.3542 100.811C72.2805 101.714 71.9558 102.418 71.3802 102.924C70.8138 103.429 70.0583 103.741 69.1139 103.86C67.7528 104.033 66.6497 103.792 65.8047 103.137C64.9596 102.482 64.452 101.483 64.2819 100.14C64.1692 99.2516 64.2333 98.4579 64.4741 97.7594C64.7241 97.0597 65.1329 96.4999 65.7006 96.0799C66.2672 95.6506 66.9578 95.3843 67.7727 95.281C68.8375 95.1461 69.7901 95.3876 70.6304 96.0055C71.4788 96.613 72.0233 97.8658 72.2639 99.764L66.9583 100.436ZM67.97 96.9495C67.5718 96.9999 67.2613 97.1851 67.0384 97.505C66.8248 97.8237 66.7138 98.247 66.7054 98.7749L69.636 98.4036C69.5089 97.8458 69.29 97.4549 68.9794 97.2308C68.6768 96.9963 68.3403 96.9025 67.97 96.9495ZM77.0797 101.087C77.3945 101.047 77.6403 100.945 77.8172 100.782C78.0044 100.626 78.0852 100.447 78.0594 100.243C78.0242 99.9654 77.8322 99.7498 77.4835 99.5965C77.1336 99.4338 76.6865 99.2835 76.1421 99.1455C75.4044 98.9662 74.8491 98.8154 74.4761 98.6934C74.1019 98.562 73.7612 98.3606 73.454 98.0891C73.1456 97.8083 72.9609 97.4271 72.8999 96.9457C72.8072 96.2142 73.0464 95.6147 73.6175 95.1472C74.1966 94.6692 74.9816 94.3675 75.9723 94.2419C76.8705 94.1281 77.6746 94.2003 78.3847 94.4584C79.0936 94.7072 79.6269 95.1665 79.9846 95.8362L77.9717 96.6557C77.824 96.3075 77.5979 96.0822 77.2933 95.9797C76.9886 95.8772 76.6697 95.847 76.3363 95.8893C76.04 95.9268 75.8011 96.0088 75.6196 96.1353C75.4461 96.2514 75.3717 96.4066 75.3963 96.6011C75.4175 96.7677 75.5039 96.8932 75.6557 96.9775C75.8168 97.0605 76.0774 97.1498 76.4376 97.2453C76.7781 97.3338 76.9918 97.3867 77.0786 97.404C77.8743 97.5948 78.4847 97.7714 78.9098 97.9339C79.343 98.086 79.7052 98.3083 79.9962 98.6007C80.2966 98.8919 80.4778 99.2829 80.54 99.7736C80.6421 100.579 80.3891 101.256 79.7811 101.803C79.1731 102.351 78.3275 102.693 77.2441 102.83C76.3367 102.945 75.4926 102.855 74.7119 102.558C73.9323 102.271 73.3472 101.664 72.9566 100.735L75.1173 99.9669C75.2916 100.378 75.5561 100.683 75.9107 100.882C76.2733 101.072 76.663 101.14 77.0797 101.087ZM92.5215 88.4474L94.0563 100.559L91.5563 100.875L91.375 99.4448C91.2785 99.871 91.025 100.247 90.6146 100.571C90.2146 100.904 89.7045 101.11 89.0841 101.189C88.4174 101.273 87.7939 101.178 87.2134 100.904C86.6434 100.637 86.1651 100.204 85.7786 99.6037C85.3909 98.9942 85.1407 98.2451 85.0281 97.3562C84.9154 96.4673 84.972 95.6887 85.1978 95.0203C85.4235 94.352 85.789 93.8211 86.2943 93.4278C86.7995 93.0345 87.404 92.7933 88.1077 92.7041C88.5429 92.649 88.977 92.6598 89.4101 92.7366C89.8513 92.803 90.2411 92.9465 90.5795 93.167L90.0215 88.7642L92.5215 88.4474ZM90.7379 94.417C90.4702 94.2346 90.1771 94.1118 89.8586 94.0487C89.5494 93.9844 89.2698 93.968 89.0198 93.9997C88.4642 94.0701 88.0723 94.3926 87.8441 94.9672C87.6251 95.5406 87.5702 96.2579 87.6793 97.119C87.7919 98.0079 88.0229 98.6795 88.3721 99.1339C88.7294 99.5778 89.1303 99.7716 89.5747 99.7153C89.9451 99.6684 90.2822 99.4704 90.5861 99.1214C90.9004 98.7806 91.0977 98.3698 91.1779 97.8893L90.7379 94.417ZM97.1776 96.6068C97.4043 97.2084 97.7576 97.6576 98.2374 97.9543C98.7252 98.2405 99.3534 98.335 100.122 98.2376C100.492 98.1907 100.901 98.0777 101.349 97.8986C101.806 97.7184 102.214 97.4127 102.573 96.9814C102.5 97.8845 102.175 98.5889 101.599 99.0947C101.033 99.5992 100.278 99.9113 99.3332 100.031C97.972 100.203 96.869 99.9622 96.0239 99.3073C95.1789 98.6523 94.6713 97.6535 94.5011 96.311C94.3885 95.4221 94.4526 94.6284 94.6933 93.9299C94.9433 93.2303 95.3522 92.6704 95.9199 92.2504C96.4864 91.8211 97.1771 91.5548 97.9919 91.4515C99.0567 91.3166 100.009 91.5581 100.85 92.176C101.698 92.7835 102.243 94.0363 102.483 95.9345L97.1776 96.6068ZM98.1892 93.12C97.7911 93.1704 97.4806 93.3556 97.2577 93.6755C97.0441 93.9942 96.9331 94.4175 96.9247 94.9454L99.8553 94.5741C99.7281 94.0163 99.5092 93.6254 99.1986 93.4013C98.8961 93.1668 98.5596 93.073 98.1892 93.12ZM114.79 89.464L113.04 98.1529L110.318 98.4978L106.456 90.52L108.54 90.256L111.121 95.5878L112.29 89.7808L114.79 89.464ZM115.316 93.6309C115.209 92.7883 115.281 92.0218 115.532 91.3314C115.792 90.6306 116.218 90.0592 116.811 89.6171C117.404 89.175 118.131 88.8994 118.992 88.7903C119.863 88.68 120.64 88.7649 121.325 89.0451C122.019 89.3241 122.578 89.7659 123.003 90.3706C123.437 90.9742 123.708 91.7019 123.816 92.5538C123.922 93.3964 123.846 94.1681 123.587 94.8689C123.336 95.5593 122.914 96.1255 122.32 96.5676C121.727 97.0097 121 97.2853 120.139 97.3944C119.269 97.5047 118.487 97.4203 117.793 97.1414C117.108 96.8612 116.549 96.4194 116.115 95.8158C115.69 95.2111 115.424 94.4828 115.316 93.6309ZM117.816 93.3141C117.91 94.0549 118.123 94.6628 118.456 95.1381C118.789 95.6133 119.27 95.811 119.9 95.7312C120.53 95.6515 120.947 95.3399 121.151 94.7966C121.355 94.2533 121.41 93.6113 121.316 92.8706C121.222 92.1298 121.008 91.5218 120.675 91.0466C120.342 90.5714 119.861 90.3737 119.231 90.4534C118.602 90.5332 118.185 90.8448 117.981 91.3881C117.777 91.9314 117.722 92.5734 117.816 93.3141ZM127.601 89.5339L128.006 92.7284C128.124 93.6636 128.311 94.3926 128.565 94.9154C128.821 95.4475 129.202 95.8225 129.71 96.0405C129.416 96.0965 129.204 96.1328 129.074 96.1492C127.926 96.2947 127.077 96.0872 126.526 95.5267C125.984 94.9649 125.63 94.0267 125.463 92.7119L125.101 89.8507L124.059 89.9828L123.848 88.3161L124.89 88.1841L124.594 85.8507L127.094 85.5339L127.39 87.8673L128.973 87.6666L129.184 89.3333L127.601 89.5339ZM134.513 86.8234C134.782 86.7894 135.078 86.7894 135.403 86.8236C135.736 86.8566 136.017 86.9198 136.245 87.0132L136.069 88.5173C135.94 88.4677 135.782 88.4408 135.593 88.4365C135.403 88.4229 135.234 88.4255 135.086 88.4443C134.752 88.4865 134.422 88.6226 134.093 88.8523C133.765 89.0821 133.494 89.3986 133.282 89.8018C133.07 90.2051 132.959 90.6706 132.951 91.1985L133.504 95.5596L131.004 95.8765L129.948 87.5431L132.448 87.2263L132.527 87.8513C132.74 87.5986 133.031 87.3781 133.403 87.1899C133.773 86.9925 134.143 86.8703 134.513 86.8234ZM139.278 91.2717C139.505 91.8733 139.858 92.3224 140.338 92.6191C140.826 92.9054 141.454 92.9998 142.223 92.9024C142.593 92.8555 143.002 92.7425 143.45 92.5635C143.907 92.3833 144.315 92.0775 144.674 91.6463C144.601 92.5494 144.276 93.2538 143.7 93.7595C143.134 94.264 142.378 94.5761 141.434 94.6958C140.073 94.8683 138.97 94.6271 138.125 93.9721C137.28 93.3172 136.772 92.3184 136.602 90.9758C136.489 90.0869 136.553 89.2932 136.794 88.5947C137.044 87.8951 137.453 87.3352 138.021 86.9152C138.587 86.4859 139.278 86.2196 140.093 86.1164C141.158 85.9814 142.11 86.2229 142.95 86.8409C143.799 87.4483 144.343 88.7012 144.584 90.5993L139.278 91.2717ZM140.29 87.7848C139.892 87.8353 139.581 88.0204 139.358 88.3403C139.145 88.659 139.034 89.0824 139.025 89.6103L141.956 89.2389C141.829 88.6811 141.61 88.2902 141.299 88.0661C140.997 87.8316 140.66 87.7379 140.29 87.7848ZM30.847 117.237L31.903 125.571L29.403 125.888L29.2217 124.457C29.1252 124.883 28.8717 125.259 28.4613 125.584C28.0613 125.917 27.5511 126.122 26.9308 126.201C26.2641 126.285 25.6405 126.19 25.0601 125.916C24.4901 125.649 24.0118 125.216 23.6253 124.616C23.2376 124.006 22.9874 123.257 22.8748 122.368C22.7621 121.48 22.8187 120.701 23.0445 120.033C23.2702 119.364 23.6357 118.833 24.141 118.44C24.6462 118.047 25.2506 117.806 25.9544 117.716C26.3895 117.661 26.8237 117.672 27.2568 117.749C27.698 117.815 28.0878 117.959 28.4262 118.179L28.347 117.554L30.847 117.237ZM28.5846 119.429C28.3168 119.247 28.0237 119.124 27.7053 119.061C27.3961 118.997 27.1165 118.98 26.8665 119.012C26.3109 119.082 25.919 119.405 25.6908 119.979C25.4718 120.553 25.4169 121.27 25.526 122.131C25.6386 123.02 25.8696 123.692 26.2188 124.146C26.5761 124.59 26.977 124.784 27.4214 124.728C27.7918 124.681 28.1289 124.483 28.4328 124.134C28.7471 123.793 28.9444 123.382 29.0246 122.902L28.5846 119.429ZM37.3386 116.274C38.0701 116.181 38.7366 116.318 39.338 116.684C39.9487 117.048 40.3239 117.782 40.4635 118.884L41.1622 124.397L38.6622 124.714L37.9494 119.089C37.8825 118.561 37.7193 118.201 37.4596 118.008C37.2 117.815 36.9128 117.739 36.5979 117.779C36.2276 117.826 35.9038 118.017 35.6265 118.353C35.348 118.68 35.1699 119.093 35.092 119.592L35.7872 125.079L33.2872 125.395L32.2312 117.062L34.7312 116.745L34.8949 118.037C35.0146 117.645 35.2831 117.277 35.7005 116.933C36.1259 116.578 36.6719 116.358 37.3386 116.274ZM44.5062 112.924C44.1779 113.154 43.8843 113.436 43.6255 113.769C43.3668 114.103 43.1758 114.452 43.0525 114.816C42.5802 114.132 41.9566 113.666 41.1817 113.416C41.851 112.832 42.3431 112.187 42.6579 111.479C43.1129 112.174 43.729 112.656 44.5062 112.924ZM44.4256 115.517L45.4816 123.85L42.9816 124.167L41.9256 115.834L44.4256 115.517ZM55.2253 114.007C55.6049 113.959 55.9997 113.994 56.4097 114.111C56.8197 114.228 57.1872 114.492 57.512 114.903C57.8449 115.303 58.0595 115.882 58.1557 116.642L58.8545 122.155L56.3545 122.472L55.6416 116.847C55.5184 115.875 55.2022 115.421 54.6929 115.486C54.3874 115.524 54.133 115.707 53.9298 116.034C53.7266 116.361 53.6225 116.764 53.6176 117.245L54.3128 122.731L51.8128 123.048L51.1 117.423C50.9767 116.451 50.6605 115.997 50.1513 116.061C49.8457 116.1 49.5913 116.283 49.3881 116.61C49.1849 116.936 49.0809 117.34 49.0759 117.82L49.7711 123.307L47.2711 123.623L46.2151 115.29L48.7151 114.973L48.8788 116.265C49.0054 115.854 49.2178 115.488 49.5159 115.168C49.8129 114.839 50.216 114.642 50.7253 114.577C51.1697 114.521 51.6248 114.586 52.0905 114.771C52.555 114.948 52.9301 115.309 53.2158 115.856C53.3272 115.325 53.5603 114.9 53.9152 114.582C54.2793 114.263 54.716 114.072 55.2253 114.007ZM67.2511 112.624L68.3072 120.958L65.8072 121.274L65.6259 119.844C65.5294 120.27 65.2759 120.646 64.8655 120.97C64.4655 121.303 63.9553 121.509 63.3349 121.588C62.6683 121.672 62.0447 121.577 61.4643 121.303C60.8942 121.036 60.416 120.603 60.0294 120.003C59.6418 119.393 59.3916 118.644 59.2789 117.755C59.1663 116.866 59.2229 116.088 59.4486 115.419C59.6744 114.751 60.0399 114.22 60.5451 113.827C61.0504 113.434 61.6548 113.192 62.3585 113.103C62.7937 113.048 63.2279 113.059 63.6609 113.136C64.1021 113.202 64.4919 113.345 64.8303 113.566L64.7511 112.941L67.2511 112.624ZM64.9887 114.816C64.721 114.634 64.4279 114.511 64.1095 114.448C63.8002 114.383 63.5206 114.367 63.2706 114.399C62.7151 114.469 62.3232 114.792 62.0949 115.366C61.876 115.94 61.821 116.657 61.9302 117.518C62.0428 118.407 62.2737 119.078 62.623 119.533C62.9803 119.977 63.3812 120.171 63.8256 120.114C64.196 120.067 64.5331 119.869 64.837 119.52C65.1513 119.18 65.3485 118.769 65.4288 118.288L64.9887 114.816ZM71.9274 118.382C71.9884 118.863 72.1031 119.249 72.2714 119.538C72.4502 119.835 72.7001 120.062 73.021 120.219C72.505 120.379 72.0803 120.479 71.747 120.522C71.0803 120.606 70.5499 120.504 70.1558 120.215C69.7617 119.927 69.5166 119.403 69.4204 118.643L68.1566 108.671L70.6566 108.354L71.9274 118.382ZM80.6896 108.339C80.3612 108.569 80.0677 108.85 79.8089 109.184C79.5502 109.518 79.3592 109.867 79.2359 110.231C78.7636 109.547 78.14 109.08 77.3651 108.831C78.0344 108.247 78.5264 107.602 78.8413 106.894C79.2962 107.589 79.9124 108.07 80.6896 108.339ZM80.6089 110.931L81.6333 119.015C81.7999 120.33 81.6864 121.327 81.2928 122.007C80.9084 122.686 80.1422 123.099 78.994 123.244C78.8644 123.261 78.6503 123.278 78.3516 123.297C78.7887 122.96 79.0646 122.501 79.1793 121.922C79.2953 121.353 79.294 120.6 79.1755 119.665L78.1089 111.248L80.6089 110.931ZM82.5136 114.924C82.4068 114.081 82.479 113.315 82.7302 112.624C82.9895 111.923 83.4157 111.352 84.0088 110.91C84.6019 110.468 85.3291 110.192 86.1902 110.083C87.0606 109.973 87.8381 110.058 88.5227 110.338C89.2166 110.617 89.776 111.059 90.2007 111.663C90.6347 112.267 90.9056 112.995 91.0136 113.847C91.1204 114.689 91.0441 115.461 90.7848 116.162C90.5336 116.852 90.1115 117.418 89.5183 117.86C88.9252 118.302 88.1981 118.578 87.337 118.687C86.4666 118.797 85.6845 118.713 84.9905 118.434C84.3059 118.154 83.7466 117.712 83.3126 117.109C82.8879 116.504 82.6215 115.776 82.5136 114.924ZM85.0136 114.607C85.1074 115.348 85.3209 115.956 85.654 116.431C85.987 116.906 86.4684 117.104 87.098 117.024C87.7276 116.944 88.1444 116.633 88.3484 116.089C88.5524 115.546 88.6075 114.904 88.5136 114.163C88.4197 113.423 88.2063 112.815 87.8732 112.339C87.5401 111.864 87.0588 111.666 86.4292 111.746C85.7995 111.826 85.3827 112.138 85.1787 112.681C84.9748 113.224 84.9197 113.866 85.0136 114.607ZM99.3376 108.558L100.394 116.891L97.8936 117.208L97.7299 115.917C97.6102 116.308 97.337 116.677 96.9104 117.022C96.4943 117.376 95.9529 117.595 95.2862 117.68C94.5547 117.772 93.8836 117.636 93.2729 117.272C92.6715 116.906 92.3009 116.172 92.1613 115.07L91.4626 109.556L93.9626 109.239L94.6754 114.864C94.7423 115.392 94.9055 115.752 95.1652 115.945C95.4248 116.138 95.7121 116.215 96.0269 116.175C96.3972 116.128 96.7211 115.936 96.9983 115.6C97.2768 115.273 97.4549 114.86 97.5328 114.361L96.8376 108.875L99.3376 108.558ZM103.519 112.939C103.746 113.541 104.099 113.99 104.579 114.287C105.067 114.573 105.695 114.667 106.464 114.57C106.834 114.523 107.243 114.41 107.691 114.231C108.148 114.051 108.556 113.745 108.915 113.314C108.842 114.217 108.517 114.921 107.941 115.427C107.375 115.931 106.619 116.244 105.675 116.363C104.314 116.536 103.211 116.295 102.366 115.64C101.521 114.985 101.013 113.986 100.843 112.643C100.73 111.754 100.794 110.961 101.035 110.262C101.285 109.563 101.694 109.003 102.262 108.583C102.828 108.153 103.519 107.887 104.334 107.784C105.399 107.649 106.351 107.89 107.192 108.508C108.04 109.116 108.584 110.369 108.825 112.267L103.519 112.939ZM104.531 109.452C104.133 109.503 103.822 109.688 103.6 110.008C103.386 110.327 103.275 110.75 103.267 111.278L106.197 110.906C106.07 110.349 105.851 109.958 105.54 109.734C105.238 109.499 104.901 109.405 104.531 109.452ZM117.065 106.312L118.121 114.645L115.621 114.962L115.457 113.67C115.338 114.062 115.064 114.43 114.638 114.776C114.222 115.13 113.68 115.349 113.014 115.433C112.282 115.526 111.611 115.39 111 115.025C110.399 114.659 110.028 113.925 109.889 112.823L109.19 107.31L111.69 106.993L112.403 112.618C112.47 113.146 112.633 113.506 112.893 113.699C113.152 113.892 113.439 113.968 113.754 113.928C114.125 113.881 114.448 113.69 114.726 113.354C115.004 113.027 115.182 112.614 115.26 112.115L114.565 106.628L117.065 106.312ZM123.019 105.416C123.288 105.382 123.584 105.382 123.909 105.416C124.242 105.449 124.523 105.512 124.751 105.606L124.575 107.11C124.446 107.06 124.288 107.033 124.099 107.029C123.909 107.015 123.74 107.018 123.592 107.037C123.258 107.079 122.928 107.215 122.599 107.445C122.271 107.675 122 107.991 121.788 108.394C121.576 108.798 121.465 109.263 121.457 109.791L122.01 114.152L119.51 114.469L118.454 106.136L120.954 105.819L121.033 106.444C121.246 106.191 121.537 105.971 121.909 105.782C122.279 105.585 122.649 105.463 123.019 105.416ZM128.634 112.889C128.245 112.939 127.899 112.846 127.597 112.612C127.294 112.377 127.118 112.065 127.069 111.676C127.02 111.288 127.112 110.942 127.347 110.639C127.581 110.337 127.893 110.161 128.282 110.112C128.671 110.062 129.017 110.155 129.319 110.389C129.622 110.624 129.798 110.936 129.847 111.324C129.896 111.713 129.804 112.059 129.569 112.362C129.335 112.664 129.023 112.84 128.634 112.889Z" fill="white"/>
</svg>
