<svg width="272" height="116" viewBox="0 0 272 116" fill="none" xmlns="http://www.w3.org/2000/svg">
<path d="M14.0561 38.5795L8.5536 38.8538L7.7276 42.8718L1.48926 43.1827L7.55692 19.5006L13.3474 19.212L21.8038 42.1702L15.2456 42.4971L14.0561 38.5795ZM11.3464 18.9589L6.79621 15.1768C6.77382 15.1566 7.12845 14.7647 7.8601 14.0013L8.98957 12.8546L13.407 16.5471L11.3464 18.9589ZM12.6526 32.9409L10.8414 26.2L10.7774 26.2032L9.48545 33.0987L12.6526 32.9409ZM44.1532 23.77L49.3038 23.5133L50.5826 49.1704L45.432 49.4271L44.976 40.2776C44.4181 41.0965 43.8592 41.6802 43.2993 42.0288C42.7608 42.3764 42.0649 42.5714 41.2118 42.614C39.0577 42.7213 37.2088 41.8727 35.665 40.0682C34.1936 38.4311 33.3846 36.1409 33.2379 33.1977C33.1082 30.5957 33.6913 28.3538 34.9873 26.4718C36.0934 24.6421 37.7022 23.6746 39.8136 23.5694C41.4772 23.4865 42.9487 24.0545 44.2281 25.2736L44.1532 23.77ZM42.3278 36.0479C43.0742 36.0107 43.873 35.7357 44.724 35.2229L44.4657 30.0403C43.5818 29.4643 42.6813 29.1992 41.7642 29.2449C40.8044 29.2928 40.0718 29.6072 39.5662 30.1883C39.0041 30.9219 38.7486 31.8005 38.7996 32.8243C38.8496 33.8267 39.2312 34.6201 39.9445 35.2046C40.467 35.82 41.2614 36.1011 42.3278 36.0479ZM63.9984 41.1254L63.8486 38.1182C63.0433 39.1205 62.2157 39.8887 61.3657 40.4228C60.537 40.9559 59.6002 41.2484 58.5551 41.3005C56.8916 41.3834 55.4307 40.8148 54.1726 39.5947C53.0115 38.6049 52.3772 37.033 52.2699 34.8789L51.6544 22.5302L56.805 22.2735L57.2546 31.2951C57.3174 32.5534 57.5763 33.4599 58.0316 34.0145C58.5082 34.568 59.1944 34.8224 60.0901 34.7778C60.5593 34.7544 60.9811 34.6371 61.3554 34.4261C61.7511 34.2139 62.1409 33.8845 62.5249 33.4377C63.1179 32.4674 63.4049 31.7903 63.3857 31.4064L62.9154 21.9689L68.2259 21.7042L69.1811 40.8671L63.9984 41.1254ZM73.3107 24.2089C74.8136 22.1884 76.9193 21.1106 79.6279 20.9756C82.2725 20.8438 84.4537 21.7079 86.1713 23.5679C87.9295 25.3831 88.8702 27.5278 88.9935 30.0018C89.1232 32.6038 88.3919 34.8745 86.7995 36.814C85.2732 38.7929 83.1984 39.8478 80.5751 39.9785C77.9304 40.1103 75.7301 39.2899 73.9741 37.5174C72.2372 35.701 71.304 33.4919 71.1743 30.8899C71.051 28.4159 71.7631 26.1889 73.3107 24.2089ZM77.7706 32.6137C78.3805 33.2675 79.2079 33.5683 80.253 33.5162C81.2127 33.4684 81.9848 33.0878 82.5693 32.3745C83.1783 31.7241 83.4562 30.8657 83.4031 29.7994C83.3489 28.7116 82.987 27.8852 82.3174 27.3199C81.6649 26.6682 80.8587 26.3663 79.899 26.4141C78.8539 26.4662 78.0605 26.8479 77.5187 27.559C76.9086 28.1881 76.6307 29.0465 76.6849 30.1342C76.738 31.2006 77.0999 32.0271 77.7706 32.6137ZM96.1379 13.0329L96.4489 19.2713L90.5624 19.5647L90.2515 13.3263L96.1379 13.0329ZM96.5397 21.0948L97.4327 39.01L91.5463 39.3034L90.6533 21.3882L96.5397 21.0948ZM113.896 20.2939L113.971 21.7975C115.123 20.4572 116.531 19.7456 118.194 19.6627C120.327 19.5564 122.035 20.3586 123.317 22.0693C124.773 23.8141 125.565 25.9875 125.695 28.5894C125.841 31.5326 125.275 33.8914 123.995 35.6656C122.595 37.6169 120.829 38.6456 118.697 38.7519C117.822 38.7955 117.1 38.6712 116.529 38.3789C115.98 38.0856 115.377 37.5597 114.719 36.8014L115.183 46.111L110.032 46.3677L108.745 20.5506L113.896 20.2939ZM114.467 31.7468C115.365 32.1724 116.187 32.3666 116.933 32.3294C117.978 32.2773 118.752 31.9181 119.253 31.2517C119.862 30.6013 120.141 29.7749 120.091 28.7725C120.04 27.7488 119.709 26.8994 119.098 26.2242C118.538 25.6963 117.788 25.4557 116.85 25.5025C115.911 25.5493 115.031 25.9032 114.209 26.5642L114.467 31.7468ZM137.869 31.5746C139.575 31.4895 141.502 31.1156 143.65 30.4526L143.857 34.6115C142.144 36.279 139.902 37.1819 137.129 37.3201C134.442 37.454 132.246 36.7296 130.542 35.1469C128.857 33.499 127.943 31.2462 127.8 28.3883C127.659 25.5517 128.313 23.2314 129.762 21.4273C131.08 19.5443 132.943 18.5427 135.353 18.4226C137.742 18.3036 139.73 19.1559 141.318 20.9796C142.018 21.7358 142.523 22.6514 142.834 23.7263C143.165 24.8002 143.369 26.105 143.446 27.6405C143.475 28.2377 143.476 28.676 143.447 28.9554L132.858 29.4832C132.912 30.1433 133.388 30.6755 134.284 31.0798C135.202 31.483 136.397 31.6479 137.869 31.5746ZM135.581 22.9974C134.152 23.0686 133.37 23.8987 133.236 25.4875L138.131 25.2436C137.984 24.4384 137.698 23.854 137.273 23.4903C136.87 23.1256 136.306 22.9612 135.581 22.9974ZM150.406 17.6082L150.566 20.8073C151.825 18.6065 153.542 17.4519 155.717 17.3435C157.338 17.2627 158.777 17.8324 160.036 19.0525C161.212 20.3409 161.855 22.1047 161.967 24.3441L162.559 36.213L157.376 36.4713L156.936 27.6416C156.866 26.234 156.6 25.1996 156.14 24.5384C155.7 23.8548 154.999 23.5369 154.04 23.5847C153.528 23.6102 153.025 23.8064 152.53 24.1731C152.034 24.5185 151.627 24.9344 151.309 25.4206C150.991 25.9068 150.842 26.3418 150.861 26.7257L151.362 36.7711L146.147 37.031L145.192 17.8681L150.406 17.6082ZM170.296 15.8151C172.343 15.713 174.158 16.0929 175.741 16.9548L176.015 22.4573C175.068 21.9059 174.193 21.5005 173.389 21.2413C172.605 20.9596 171.829 20.8379 171.061 20.8762C170.507 20.9038 170.094 20.9885 169.823 21.1303C169.574 21.271 169.457 21.5014 169.473 21.8213C169.481 21.9919 169.585 22.1364 169.783 22.2548C169.939 22.3753 170.84 22.6511 172.486 23.0822C174.042 23.8385 175.218 24.6993 176.015 25.6645C176.791 26.652 177.209 27.7537 177.27 28.9693C177.365 30.8888 176.856 32.4643 175.741 33.6958C174.432 34.8729 172.785 35.5108 170.802 35.6097C168.541 35.7224 166.563 35.2865 164.867 34.3019L164.571 28.3515C166.611 28.9554 168.27 29.2255 169.55 29.1617C170.062 29.1362 170.473 29.0195 170.783 28.8116C171.093 28.5823 171.241 28.3398 171.228 28.0838C171.215 27.8279 171.066 27.6215 170.78 27.4647C170.605 27.3666 170.279 27.2652 169.803 27.1607C169.348 27.0337 168.863 26.951 168.348 26.9125C166.814 26.6041 165.683 26.0083 164.955 25.1253C164.294 24.303 163.933 23.2733 163.871 22.0363C163.827 21.1406 163.937 20.344 164.201 19.6466C164.466 18.9493 164.892 18.2866 165.481 17.6586C166.665 16.5306 168.27 15.916 170.296 15.8151ZM189.105 29.0209C190.811 28.9358 192.738 28.5618 194.886 27.8989L195.093 32.0578C193.381 33.7253 191.138 34.6282 188.365 34.7664C185.678 34.9003 183.482 34.1759 181.779 32.5931C180.093 30.9453 179.179 28.6924 179.036 25.8345C178.895 22.998 179.549 20.6776 180.999 18.8736C182.316 16.9906 184.179 15.989 186.59 15.8689C188.978 15.7498 190.966 16.6022 192.554 18.4259C193.254 19.1821 193.76 20.0976 194.07 21.1726C194.401 22.2465 194.605 23.5512 194.682 25.0868C194.712 25.684 194.712 26.1223 194.683 26.4017L184.094 26.9294C184.148 27.5895 184.624 28.1217 185.521 28.526C186.439 28.9293 187.634 29.0942 189.105 29.0209ZM186.818 20.4437C185.389 20.5149 184.607 21.3449 184.472 22.9338L189.367 22.6898C189.22 21.8847 188.934 21.3003 188.51 20.9366C188.107 20.5718 187.543 20.4075 186.818 20.4437ZM210.947 14.5586L211.085 17.3099C211.55 16.3459 212.111 15.6017 212.769 15.0771C213.426 14.5313 214.053 14.2434 214.65 14.2137C215.674 14.1627 216.511 14.4416 217.162 15.0506C217.832 15.6373 218.426 16.6019 218.942 17.9445C219.644 16.6053 220.395 15.5843 221.194 14.8817C222.014 14.1781 222.851 13.805 223.704 13.7624C224.493 13.7231 225.184 13.849 225.775 14.1403C226.389 14.4304 226.957 14.9045 227.482 15.5625C228.381 16.8647 228.882 18.5609 228.986 20.651L229.587 32.7117L224.789 32.9509L224.353 24.2173C224.303 23.2149 224.223 22.4492 224.111 21.9203C223.999 21.3913 223.798 21.0165 223.509 20.7957C223.22 20.5749 222.799 20.4783 222.244 20.5059C221.604 20.5378 221.065 20.8641 220.625 21.4846C220.206 22.0828 220.017 22.7871 220.057 23.5976L220.534 33.163L216.087 33.3846L215.652 24.651C215.578 23.1794 215.411 22.1828 215.15 21.6613C214.91 21.1388 214.449 20.8945 213.766 20.9285C213.084 20.9625 212.512 21.2903 212.052 21.912C211.59 22.5123 211.379 23.2176 211.419 24.0281L211.896 33.5935L206.906 33.8423L205.957 14.8074L210.947 14.5586ZM233.799 16.2098C235.302 14.1893 237.408 13.1115 240.116 12.9765C242.761 12.8447 244.942 13.7088 246.66 15.5688C248.418 17.384 249.359 19.5287 249.482 22.0027C249.612 24.6046 248.88 26.8754 247.288 28.8149C245.762 30.7938 243.687 31.8487 241.063 31.9794C238.419 32.1112 236.218 31.2908 234.462 29.5182C232.726 27.7019 231.792 25.4928 231.663 22.8908C231.539 20.4168 232.251 18.1898 233.799 16.2098ZM238.259 24.6146C238.869 25.2684 239.696 25.5692 240.741 25.5171C241.701 25.4693 242.473 25.0887 243.058 24.3754C243.667 23.725 243.945 22.8666 243.891 21.8002C243.837 20.7125 243.475 19.886 242.806 19.3208C242.153 18.6691 241.347 18.3672 240.387 18.415C239.342 18.4671 238.549 18.8488 238.007 19.5599C237.397 20.189 237.119 21.0474 237.173 22.1351C237.226 23.2015 237.588 24.028 238.259 24.6146ZM256.284 12.331L256.444 15.5301C257.703 13.3293 259.42 12.1747 261.595 12.0663C263.216 11.9855 264.655 12.5552 265.914 13.7753C267.09 15.0637 267.733 16.8275 267.845 19.0669L268.437 30.9358L263.254 31.1941L262.814 22.3644C262.744 20.9568 262.478 19.9224 262.018 19.2612C261.577 18.5776 260.877 18.2597 259.918 18.3075C259.406 18.333 258.902 18.5291 258.408 18.8959C257.912 19.2413 257.505 19.6572 257.187 20.1434C256.869 20.6296 256.72 21.0646 256.739 21.4485L257.24 31.4939L252.025 31.7538L251.07 12.5909L256.284 12.331ZM75.2727 72.3137L75.1738 70.3303C74.3131 71.0787 73.4749 71.6336 72.6591 71.995C71.8645 72.3553 71.0301 72.5573 70.1556 72.6008C68.8547 72.6657 67.7665 72.2816 66.8911 71.4486C66.0168 70.637 65.5478 69.5913 65.484 68.3117C65.4447 67.5226 65.544 66.7265 65.7819 65.9236C66.0401 65.0983 66.3814 64.4398 66.8059 63.9483C67.6186 63.0953 68.5886 62.3949 69.7159 61.8469C70.8644 61.2979 72.1319 60.9889 73.5182 60.9198C73.7741 60.907 74.1697 60.9087 74.705 60.9248C74.6657 60.1356 74.3997 59.5182 73.9071 59.0723C73.4359 58.6255 72.7204 58.4259 71.7606 58.4738C69.3933 58.5918 67.439 59.4909 65.8978 61.1713L65.6411 56.0207C67.6994 54.4215 70.0083 53.5581 72.5676 53.4305C74.0605 53.3561 75.3871 53.5893 76.5472 54.1301C77.7073 54.671 78.6349 55.4799 79.33 56.5571C80.0241 57.6129 80.4067 58.8553 80.4779 60.2842L81.0631 72.0251L75.2727 72.3137ZM72.9061 67.3003C73.2687 67.2823 73.6067 67.2013 73.9203 67.0574C74.2338 66.9134 74.5858 66.6821 74.9761 66.3633L74.8629 64.0919C73.6046 64.1546 72.6864 64.3928 72.1083 64.8065C71.8033 65.121 71.5905 65.3561 71.47 65.5118C71.3708 65.6664 71.3265 65.8503 71.3372 66.0636C71.3584 66.4902 71.4927 66.8256 71.7401 67.0698C71.9843 67.2501 72.3729 67.3269 72.9061 67.3003ZM87.8619 52.7965L88.0213 55.9956C89.28 53.7948 90.9971 52.6402 93.1725 52.5318C94.7934 52.451 96.2329 53.0207 97.491 54.2408C98.667 55.5292 99.3108 57.293 99.4225 59.5324L100.014 71.4013L94.8314 71.6596L94.3913 62.8299C94.3212 61.4223 94.0558 60.3879 93.5952 59.7267C93.1549 59.0431 92.4549 58.7252 91.4952 58.773C90.9833 58.7985 90.4799 58.9946 89.9851 59.3614C89.4892 59.7068 89.0823 60.1226 88.7644 60.6089C88.4466 61.0951 88.2972 61.5301 88.3163 61.914L88.817 71.9594L83.6024 72.2193L82.6473 53.0564L87.8619 52.7965ZM106.917 44.5666L107.228 50.8049L101.342 51.0983L101.031 44.86L106.917 44.5666ZM107.319 52.6284L108.212 70.5437L102.326 70.837L101.433 52.9218L107.319 52.6284ZM115.037 51.4099L115.174 54.1612C115.639 53.1973 116.201 52.453 116.859 51.9285C117.516 51.3826 118.143 51.0948 118.74 51.065C119.764 51.014 120.601 51.293 121.251 51.902C121.922 52.4886 122.515 53.4532 123.031 54.7959C123.734 53.4566 124.485 52.4357 125.284 51.7331C126.104 51.0294 126.94 50.6563 127.793 50.6138C128.583 50.5744 129.273 50.7004 129.865 50.9916C130.478 51.2817 131.047 51.7558 131.571 52.4139C132.47 53.716 132.971 55.4122 133.076 57.5023L133.677 69.5631L128.878 69.8023L128.443 61.0686C128.393 60.0662 128.312 59.3005 128.2 58.7716C128.088 58.2426 127.888 57.8678 127.599 57.647C127.31 57.4262 126.888 57.3296 126.334 57.3573C125.694 57.3892 125.154 57.7154 124.715 58.336C124.295 58.9341 124.106 59.6384 124.146 60.4489L124.623 70.0143L120.176 70.236L119.741 61.5023C119.668 60.0307 119.5 59.0341 119.239 58.5126C118.999 57.9901 118.538 57.7458 117.856 57.7798C117.173 57.8138 116.602 58.1417 116.141 58.7633C115.679 59.3636 115.468 60.069 115.509 60.8794L115.986 70.4449L110.995 70.6936L110.046 51.6587L115.037 51.4099ZM145.473 68.8148L145.374 66.8313C144.513 67.5798 143.675 68.1347 142.859 68.4961C142.065 68.8564 141.23 69.0583 140.356 69.1019C139.055 69.1668 137.966 68.7827 137.091 67.9497C136.217 67.1381 135.748 66.0924 135.684 64.8128C135.645 64.0236 135.744 63.2276 135.982 62.4247C136.24 61.5993 136.581 60.9409 137.006 60.4494C137.819 59.5964 138.789 58.8959 139.916 58.348C141.064 57.799 142.332 57.4899 143.718 57.4208C143.974 57.4081 144.37 57.4098 144.905 57.4258C144.866 56.6367 144.6 56.0192 144.107 55.5734C143.636 55.1265 142.92 54.927 141.961 54.9748C139.593 55.0928 137.639 55.992 136.098 57.6724L135.841 52.5218C137.899 50.9225 140.208 50.0591 142.768 49.9316C144.261 49.8571 145.587 50.0904 146.747 50.6312C147.907 51.172 148.835 51.981 149.53 53.0582C150.224 54.114 150.607 55.3564 150.678 56.7853L151.263 68.5262L145.473 68.8148ZM143.106 63.8014C143.469 63.7833 143.807 63.7023 144.12 63.5584C144.434 63.4145 144.786 63.1832 145.176 62.8644L145.063 60.593C143.805 60.6557 142.886 60.8939 142.308 61.3076C142.003 61.6221 141.791 61.8572 141.67 62.0129C141.571 62.1675 141.527 62.3514 141.537 62.5647C141.558 62.9912 141.693 63.3266 141.94 63.5709C142.184 63.7511 142.573 63.828 143.106 63.8014ZM161.908 67.8994C159.796 68.0047 158.137 67.7559 156.931 67.1533C155.748 66.5708 154.871 65.5027 154.302 63.9489C153.753 62.3727 153.407 60.1344 153.262 57.2338L152.514 42.2298L158.209 41.946L158.964 57.1099C159.108 59.9892 159.979 61.3889 161.579 61.3092L161.908 67.8994ZM189.747 66.4798L184.916 66.7206C184.912 66.6353 184.887 66.3585 184.843 65.8904C184.819 65.4212 184.805 65.1439 184.801 65.0586C184.336 65.5949 183.759 66.0299 183.07 66.3636C182.382 66.7186 181.548 66.9205 180.567 66.9694C179.607 67.0172 178.669 66.8609 177.753 66.5003C176.837 66.1397 176.029 65.5813 175.329 64.8252C174.65 64.0893 174.079 63.1342 173.614 61.9601C173.171 60.7849 172.911 59.4401 172.836 57.9259C172.765 56.4969 172.892 55.1864 173.217 53.9942C173.563 52.7797 174.035 51.7406 174.633 50.8769C175.252 49.9908 175.997 49.2909 176.87 48.777C177.741 48.2418 178.657 47.9503 179.616 47.9025C180.342 47.8664 180.996 47.9192 181.581 48.0612C182.164 48.1818 182.69 48.4335 183.158 48.8164L182.753 40.6906L188.447 40.4068L189.747 66.4798ZM183.563 56.9422C183.522 56.1318 183.276 55.4706 182.822 54.9587C182.368 54.4254 181.747 54.1784 180.957 54.2178C180.211 54.255 179.606 54.5524 179.142 55.11C178.698 55.6453 178.486 56.3293 178.506 57.1622C178.531 58.0803 178.802 58.7938 179.319 59.3025C179.857 59.8102 180.5 60.0454 181.246 60.0082C181.95 59.9732 182.515 59.7312 182.942 59.2823C183.389 58.811 183.601 58.1483 183.58 57.2941L183.563 56.9422ZM201.884 60.4548C203.59 60.3698 205.517 59.9958 207.665 59.3329L207.872 63.4918C206.16 65.1593 203.917 66.0622 201.144 66.2003C198.457 66.3343 196.261 65.6099 194.558 64.0271C192.872 62.3793 191.958 60.1264 191.815 57.2685C191.674 54.432 192.328 52.1116 193.778 50.3076C195.095 48.4246 196.959 47.423 199.369 47.3029C201.757 47.1838 203.745 48.0362 205.333 49.8599C206.033 50.6161 206.539 51.5316 206.849 52.6066C207.18 53.6805 207.384 54.9852 207.461 56.5208C207.491 57.118 207.491 57.5563 207.462 57.8356L196.873 58.3634C196.927 59.0235 197.403 59.5557 198.3 59.96C199.218 60.3632 200.413 60.5282 201.884 60.4548ZM199.597 51.8776C198.168 51.9489 197.386 52.7789 197.251 54.3678L202.146 54.1238C201.999 53.3187 201.713 52.7343 201.289 52.3706C200.886 52.0058 200.322 51.8415 199.597 51.8776ZM55.2595 98.968C55.8567 98.9382 56.5029 98.8205 57.1982 98.6148C57.9149 98.408 58.5323 98.142 59.0506 97.8169L59.3568 103.959C57.5609 104.818 55.8845 105.287 54.3275 105.364C51.5763 105.502 49.3802 104.767 47.7393 103.159C46.0344 101.555 45.1102 99.3135 44.9667 96.4342C44.8253 93.5977 45.521 91.2539 47.0537 89.4029C48.5629 87.5103 50.5865 86.5008 53.1245 86.3743C54.7454 86.2935 56.5038 86.6121 58.3997 87.3301L58.682 92.3511C57.3075 91.7996 56.0764 91.5509 54.9887 91.6051C53.7517 91.6668 52.7466 92.0911 51.9734 92.8779C51.2662 93.7043 50.943 94.7253 51.0035 95.9409C51.0578 97.0286 51.4714 97.8205 52.2444 98.3165C53.0175 98.8125 54.0225 99.0296 55.2595 98.968ZM63.4095 88.8443C64.9124 86.8237 67.0181 85.7459 69.7267 85.6109C72.3713 85.4791 74.5525 86.3432 76.2701 88.2033C78.0283 90.0185 78.969 92.1631 79.0923 94.6371C79.222 97.2391 78.4907 99.5098 76.8983 101.449C75.372 103.428 73.2972 104.483 70.6739 104.614C68.0292 104.746 65.8289 103.925 64.0729 102.153C62.336 100.336 61.4028 98.1273 61.2731 95.5253C61.1498 93.0513 61.8619 90.8243 63.4095 88.8443ZM67.8694 97.249C68.4793 97.9028 69.3067 98.2037 70.3518 98.1516C71.3115 98.1038 72.0836 97.7232 72.6681 97.0099C73.2771 96.3595 73.555 95.5011 73.5019 94.4347C73.4477 93.347 73.0858 92.5205 72.4162 91.9552C71.7637 91.3036 70.9575 91.0017 69.9978 91.0495C68.9527 91.1016 68.1593 91.4832 67.6175 92.1944C67.0074 92.8235 66.7295 93.6819 66.7837 94.7696C66.8368 95.8359 67.1987 96.6624 67.8694 97.249ZM85.7333 84.9414L85.8705 87.6927C86.3355 86.7288 86.8971 85.9845 87.5551 85.46C88.2121 84.9141 88.8392 84.6263 89.4364 84.5965C90.4601 84.5455 91.2971 84.8245 91.9475 85.4335C92.6182 86.0201 93.2115 86.9847 93.7274 88.3273C94.4303 86.9881 95.1812 85.9672 95.9801 85.2645C96.8002 84.5609 97.6368 84.1878 98.4899 84.1452C99.2791 84.1059 99.9695 84.2319 100.561 84.5231C101.174 84.8132 101.743 85.2873 102.268 85.9453C103.167 87.2475 103.668 88.9437 103.772 91.0338L104.373 103.095L99.5746 103.334L99.1393 94.6001C99.0894 93.5977 99.0084 92.832 98.8965 92.3031C98.7847 91.7741 98.5842 91.3993 98.2953 91.1785C98.0063 90.9577 97.5846 90.8611 97.0301 90.8888C96.3902 90.9207 95.8506 91.2469 95.4112 91.8674C94.992 92.4656 94.8026 93.1699 94.843 93.9804L95.3198 103.546L90.8729 103.767L90.4376 95.0338C90.3643 93.5622 90.197 92.5656 89.9358 92.0441C89.696 91.5216 89.2348 91.2773 88.5523 91.3113C87.8699 91.3453 87.2982 91.6731 86.8375 92.2948C86.3756 92.8951 86.1649 93.6004 86.2053 94.4109L86.6821 103.976L81.6914 104.225L80.7427 85.1902L85.7333 84.9414ZM111.274 84.5664L111.349 86.07C112.501 84.7297 113.909 84.0182 115.572 83.9352C117.705 83.8289 119.413 84.6311 120.695 86.3418C122.151 88.0866 122.943 90.26 123.073 92.862C123.22 95.8052 122.653 98.1639 121.373 99.9382C119.974 101.889 118.207 102.918 116.075 103.024C115.2 103.068 114.478 102.944 113.907 102.651C113.358 102.358 112.755 101.832 112.097 101.074L112.561 110.383L107.41 110.64L106.124 84.8231L111.274 84.5664ZM111.845 96.0193C112.743 96.445 113.565 96.6392 114.311 96.602C115.356 96.5499 116.13 96.1906 116.631 95.5242C117.24 94.8738 117.519 94.0474 117.47 93.045C117.418 92.0213 117.088 91.1719 116.477 90.4968C115.916 89.9688 115.166 89.7283 114.228 89.775C113.289 89.8218 112.409 90.1757 111.587 90.8367L111.845 96.0193ZM134.883 101.414L134.784 99.4301C133.923 100.179 133.085 100.733 132.269 101.095C131.475 101.455 130.64 101.657 129.766 101.701C128.465 101.765 127.377 101.381 126.501 100.548C125.627 99.7368 125.158 98.6912 125.094 97.4115C125.055 96.6224 125.154 95.8263 125.392 95.0234C125.65 94.1981 125.992 93.5396 126.416 93.0481C127.229 92.1951 128.199 91.4947 129.326 90.9467C130.475 90.3977 131.742 90.0887 133.128 90.0196C133.384 90.0068 133.78 90.0085 134.315 90.0246C134.276 89.2355 134.01 88.618 133.517 88.1722C133.046 87.7253 132.331 87.5258 131.371 87.5736C129.004 87.6916 127.049 88.5908 125.508 90.2711L125.251 85.1205C127.31 83.5213 129.619 82.6579 132.178 82.5303C133.671 82.4559 134.997 82.6891 136.157 83.2299C137.318 83.7708 138.245 84.5798 138.94 85.6569C139.634 86.7127 140.017 87.9551 140.088 89.3841L140.673 101.125L134.883 101.414ZM132.516 96.4001C132.879 96.3821 133.217 96.3011 133.531 96.1572C133.844 96.0133 134.196 95.7819 134.586 95.4631L134.473 93.1917C133.215 93.2545 132.297 93.4926 131.719 93.9063C131.414 94.2208 131.201 94.4559 131.08 94.6116C130.981 94.7662 130.937 94.9502 130.947 95.1634C130.969 95.59 131.103 95.9254 131.35 96.1696C131.595 96.3499 131.983 96.4267 132.516 96.4001ZM159.587 81.7414L160.335 96.7454C160.513 99.8795 159.799 102.502 158.194 104.613C156.611 106.745 153.953 107.679 150.219 107.416C148.6 107.518 146.859 106.921 144.999 105.624L144.721 100.057C146.276 101.647 148.271 102.435 150.708 102.421C153.167 102.426 154.694 101.538 155.29 99.755C154.196 100.558 153.053 100.989 151.858 101.049C150.387 101.122 149.001 100.763 147.7 99.9729C146.4 99.2039 145.33 98.124 144.491 96.7333C143.673 95.3203 143.221 93.7713 143.137 92.0864C143.052 90.3802 143.347 88.794 144.023 87.3278C144.718 85.8393 145.675 84.6584 146.893 83.7853C148.11 82.8908 149.454 82.4069 150.926 82.3335C152.333 82.2633 153.663 82.5712 154.916 83.2571L154.853 81.9774L159.587 81.7414ZM151.23 88.4439C150.441 88.4832 149.795 88.8254 149.293 89.4705C148.791 90.1156 148.563 90.9073 148.609 91.8457C148.655 92.7628 148.96 93.5173 149.524 94.1092C150.088 94.7012 150.765 94.9775 151.554 94.9381C152.279 94.902 152.892 94.5507 153.393 93.8843C153.894 93.1966 154.122 92.4155 154.078 91.5411C154.032 90.6027 153.727 89.8481 153.164 89.2775C152.621 88.6846 151.977 88.4067 151.23 88.4439ZM167.592 80.8935L167.751 84.0926C169.01 81.8918 170.727 80.7372 172.902 80.6288C174.523 80.548 175.963 81.1177 177.221 82.3378C178.397 83.6262 179.041 85.39 179.152 87.6294L179.744 99.4983L174.561 99.7566L174.121 90.9269C174.051 89.5193 173.786 88.4849 173.325 87.8237C172.885 87.1401 172.185 86.8222 171.225 86.87C170.713 86.8955 170.21 87.0916 169.715 87.4584C169.219 87.8038 168.812 88.2197 168.494 88.7059C168.176 89.1921 168.027 89.6271 168.046 90.011L168.547 100.056L163.332 100.316L162.377 81.1534L167.592 80.8935ZM186.647 72.6636L186.958 78.9019L181.072 79.1953L180.761 72.957L186.647 72.6636ZM187.049 80.7254L187.942 98.6407L182.056 98.9341L181.163 81.0188L187.049 80.7254ZM200.198 92.6098C201.905 92.5248 203.832 92.1508 205.979 91.4878L206.187 95.6467C204.474 97.3142 202.231 98.2171 199.458 98.3553C196.771 98.4892 194.576 97.7648 192.872 96.1821C191.186 94.5342 190.272 92.2814 190.13 89.4235C189.988 86.5869 190.642 84.2666 192.092 82.4625C193.409 80.5795 195.273 79.5779 197.683 79.4578C200.071 79.3388 202.06 80.1911 203.647 82.0149C204.348 82.771 204.853 83.6866 205.163 84.7615C205.494 85.8354 205.698 87.1402 205.775 88.6758C205.805 89.2729 205.805 89.7112 205.776 89.9906L195.187 90.5184C195.242 91.1785 195.717 91.7107 196.614 92.115C197.532 92.5182 198.727 92.6831 200.198 92.6098ZM197.911 84.0326C196.482 84.1038 195.7 84.9339 195.565 86.5227L200.46 86.2788C200.313 85.4736 200.027 84.8892 199.603 84.5255C199.2 84.1608 198.636 83.9965 197.911 84.0326ZM220.408 83.3603L221.314 82.8661C222.454 82.1465 223.18 81.4796 223.491 80.8654C223.801 80.2299 223.868 79.628 223.69 79.0596C223.51 78.4485 223.167 78.0166 222.663 77.7638C222.158 77.4896 221.586 77.4005 220.95 77.4964C220.397 77.5666 219.681 77.7734 218.8 78.1166C217.939 78.4375 217.313 78.736 216.92 79.0121L216.614 72.8697C217.105 72.4177 217.834 72.0286 218.801 71.7024C219.768 71.3763 220.881 71.1818 222.139 71.1191C223.056 71.0734 223.957 71.1354 224.843 71.3051C225.748 71.4524 226.574 71.7319 227.322 72.1436C228.069 72.5554 228.727 73.0892 229.294 73.7451C229.861 74.401 230.256 75.2472 230.479 76.2838C230.719 77.2553 230.761 78.0871 230.603 78.7791C230.465 79.4488 230.239 80.0587 229.924 80.6089C229.63 81.1367 229.259 81.6256 228.811 82.0755C228.384 82.5244 227.819 82.9695 227.114 83.4109L226.277 83.9978L226.53 89.0844L220.708 89.3747L220.408 83.3603ZM226.718 96.708L226.409 90.5016L220.81 90.7807L221.12 96.987L226.718 96.708Z" fill="black"/>
</svg>
