<svg width="95" height="93" viewBox="0 0 95 93" fill="none" xmlns="http://www.w3.org/2000/svg">
<path d="M5.95758 15.1371C-1.58369 18.0513 -0.442595 11.0499 1.2362 6.47147C2.00913 4.01272 4.25304 2.73363 6.69791 2.16906C11.8329 0.983057 18.7848 -1.24945 23.8511 0.894051L24.0233 0.612623C26.3722 0.447348 26.6746 8.48638 26.8606 10.1981C27.4738 10.1275 28.4039 10.0203 28.9815 9.85374C30.0212 9.48526 33.6141 9.79761 34.8144 9.60393C35.7413 9.50233 37.6119 9.20779 38.4082 9.6655L38.476 9.8285L38.3894 10.0001L38.4654 10.1708C38.8837 10.2841 39.2982 10.4129 39.7069 10.5569L40.9628 10.9926C41.0633 10.7318 41.1714 10.4742 41.2871 10.2199C42.4042 7.81214 46.1396 3.13773 48.5661 2.23379C52.813 0.652109 61.7902 5.35825 65.6358 7.14557C66.9695 8.04143 67.652 8.50269 68.3278 10.0351C69.038 12.7524 69.6077 16.4909 67.7982 18.9398C66.6141 20.5412 64.5274 19.8696 62.9928 19.2195C62.6473 20.6551 62.2656 21.6525 61.3526 22.8424C61.1757 23.0723 60.3828 24.0445 60.346 24.2375C61.2912 25.0569 61.9008 25.6256 62.775 26.5036C67.4518 25.6136 72.567 27.3671 76.4134 29.9852C76.8535 30.2856 77.2911 30.589 77.728 30.8952C81.5525 34.0505 83.0657 36.3774 85.6629 40.6008C86.0046 41.1695 87.146 42.6587 86.4767 43.1184C85.7557 43.2179 85.0487 42.9242 84.3591 42.6933C85.4485 43.5909 89.5492 47.5256 89.0601 48.9073C88.4963 49.2948 87.2227 49.0382 86.5331 48.9359C87.1412 49.6161 89.3312 52.6028 89.0344 53.4445C88.6212 53.7031 86.105 53.4049 85.5023 53.329C86.4667 53.9106 89.1876 55.5591 88.5973 56.8653C88.0618 57.3405 87.1734 57.3418 86.4492 57.3388C86.461 57.709 87.306 58.8925 87.3526 59.5496C87.4866 61.4477 87.3707 63.5743 87.1322 65.4624C87.0781 66.569 86.9352 68.4267 86.7143 69.5199C88.2038 69.55 91.1755 70.4138 91.1811 72.1634C91.1865 74.0939 86.7065 75.8275 85.2844 76.5058C81.0936 78.5034 76.9199 80.2235 72.4433 81.432C71.1749 81.7721 69.728 82.2227 68.4346 82.4362C70.0237 85.0821 69.5085 87.4725 66.8216 89.1847C65.5637 89.9871 64.0392 90.034 62.5899 89.8806C61.1721 91.2638 59.5524 92.1485 57.5187 92.1088C56.861 92.0979 56.2082 91.9913 55.5813 91.7939C53.6384 92.8633 52.0962 93.3262 49.8854 92.6832C49.1805 92.4783 48.3391 92.225 48.307 91.395C48.4606 91.0426 48.5669 90.9893 48.872 90.7649C49.3267 90.7707 49.6381 91.1972 50.0132 91.3392C51.6549 91.9621 52.8109 91.7833 54.2103 90.9941C52.7778 89.9246 51.7852 87.9223 53.0337 86.339C53.1898 86.1459 53.3505 85.9562 53.517 85.7716C50.9849 86.3814 48.5728 86.5901 46.0523 87.0071C37.715 88.3841 29.2732 88.8238 20.8836 87.6517C19.4454 87.4502 14.7139 87.1848 15.9091 84.6515C16.2865 83.8512 16.786 83.2026 17.6206 82.8616C18.1995 80.9246 19.012 81.16 19.5355 80.1914C18.413 78.4702 18.2108 70.4719 18.9318 68.3085C18.7826 68.1489 18.6344 67.9892 18.4859 67.8274C16.6386 65.8084 15.7713 63.5217 15.8953 60.7589C15.7714 60.8434 15.6462 60.9255 15.5186 61.0051C14.8145 61.4416 13.113 62.563 12.3487 62.38C12.2414 62.2593 12.2213 62.2438 12.1771 62.0824C11.4374 59.4353 11.7797 56.6028 13.1283 54.2079C11.5931 53.8449 7.90533 52.7793 8.79435 50.6037C8.54326 49.2086 8.86779 47.3611 9.51279 46.0887C8.92253 46.3979 5.63991 48.3378 5.2738 48.2846C4.57741 47.2656 5.50801 43.4691 5.8162 42.3241C5.22815 42.8754 3.38362 44.7037 2.7675 44.9366L2.6339 44.7954C2.2962 42.4722 3.4711 39.9082 4.65919 38.007C4.06099 38.3733 0.835666 40.6777 0.513291 40.6513C0.391408 40.3382 0.445318 40.0982 0.485072 39.7581C0.910161 36.1207 3.17115 33.1149 5.96725 30.8904C5.18801 31.1342 2.44805 31.8165 1.70641 31.7071L1.62588 31.5497C2.45818 29.3618 5.55843 26.9137 7.4009 25.5824C6.46858 25.8924 4.20513 26.4447 3.26027 26.1111C3.00882 25.8707 3.06613 26.0039 3.05726 25.6401C3.69599 24.1661 7.64067 21.9031 9.13102 21.2082C8.01763 20.7048 4.68518 21.5595 6.92171 19.0259C6.38716 17.6064 6.1377 16.6269 5.95758 15.1371ZM64.7459 50.1353C65.4565 50.2835 66.2564 50.4342 66.9557 50.6025C65.3113 52.3361 63.2411 53.3451 60.9992 54.0703L64.4105 56.3883C61.6436 58.5257 60.1347 58.67 56.8246 57.767C58.3635 61.9776 57.8553 63.7049 55.0608 67.1867C53.6052 65.9762 52.1341 64.7831 50.6486 63.6093C48.9553 65.5036 46.8542 66.9211 44.9052 68.5443C42.8276 70.2747 42.4634 72.5333 41.3031 74.7673L40.8378 75.8748L40.4542 76.014L39.9516 76.0396C38.9577 75.9162 36.9473 75.4171 35.9626 75.1661C34.74 74.7433 34.0941 74.5205 32.9725 73.8876C32.8654 74.7071 32.7856 75.0727 32.5746 75.8592C32.3885 76.5085 32.1562 77.4569 31.8112 78.0097C28.0672 80.1972 26.235 81.7504 21.4055 80.8196C20.8923 80.7204 19.9152 80.2701 19.5355 80.1914C19.012 81.16 18.1995 80.9246 17.6206 82.8616C16.786 83.2026 16.2865 83.8512 15.9091 84.6515C14.7139 87.1848 19.4454 87.4502 20.8836 87.6517C29.2732 88.8238 37.715 88.3841 46.0523 87.0071C48.5728 86.5901 50.9849 86.3814 53.517 85.7716C53.3505 85.9562 53.1898 86.1459 53.0337 86.339C51.7852 87.9223 52.7778 89.9246 54.2103 90.9941C52.8109 91.7833 51.6549 91.9621 50.0132 91.3392C49.6381 91.1972 49.3267 90.7707 48.872 90.7649C48.5669 90.9893 48.4606 91.0426 48.307 91.395C48.3391 92.225 49.1805 92.4783 49.8854 92.6832C52.0962 93.3262 53.6384 92.8633 55.5813 91.7939C56.2082 91.9913 56.861 92.0979 57.5187 92.1088C59.5524 92.1485 61.1721 91.2638 62.5899 89.8806C64.0392 90.034 65.5637 89.9871 66.8216 89.1847C69.5085 87.4725 70.0237 85.0821 68.4346 82.4362C69.728 82.2227 71.1749 81.7721 72.4433 81.432C76.9199 80.2235 81.0936 78.5034 85.2844 76.5058C86.7065 75.8275 91.1865 74.0939 91.1811 72.1634C91.1755 70.4138 88.2038 69.55 86.7143 69.5199C86.9352 68.4267 87.0781 66.569 87.1322 65.4624C87.3707 63.5743 87.4866 61.4477 87.3526 59.5496C87.306 58.8925 86.461 57.709 86.4492 57.3388C87.1734 57.3418 88.0618 57.3405 88.5973 56.8653C89.1876 55.5591 86.4667 53.9106 85.5023 53.329C86.105 53.4049 88.6212 53.7031 89.0344 53.4445C89.3312 52.6028 87.1412 49.6161 86.5331 48.9359C87.2227 49.0382 88.4963 49.2948 89.0601 48.9073C89.5492 47.5256 85.4485 43.5909 84.3591 42.6933C85.0487 42.9242 85.7557 43.2179 86.4767 43.1184C87.146 42.6587 86.0046 41.1695 85.6629 40.6008C83.0657 36.3774 81.5525 34.0505 77.728 30.8952C77.2911 30.589 76.8535 30.2856 76.4134 29.9852C72.567 27.3671 67.4518 25.6136 62.775 26.5036C68.4223 33.6115 70.1465 42.3707 64.7459 50.1353Z" fill="#FEFEFE"/>
<path d="M62.775 26.5037C67.4518 25.6138 72.567 27.3673 76.4133 29.9853C76.8535 30.2857 77.291 30.5891 77.728 30.8954C81.5525 34.0507 83.0657 36.3776 85.6628 40.6009C86.0046 41.1697 87.1459 42.6588 86.4767 43.1186C85.7556 43.218 85.0486 42.9244 84.3591 42.6935C85.4485 43.5911 89.5491 47.5257 89.0601 48.9074C88.4963 49.295 87.2227 49.0384 86.5331 48.936C87.1412 49.6163 89.3312 52.603 89.0344 53.4446C88.6212 53.7032 86.105 53.4051 85.5023 53.3292C86.4666 53.9107 89.1876 55.5592 88.5973 56.8654C88.0617 57.3406 87.1734 57.342 86.4491 57.339C86.461 57.7091 87.306 58.8927 87.3526 59.5497C87.4866 61.4479 87.3706 63.5744 87.1321 65.4626C87.0781 66.5692 86.9351 68.4269 86.7143 69.52C88.2038 69.5502 91.1754 70.414 91.1811 72.1636C91.1865 74.0941 86.7065 75.8276 85.2844 76.506C81.0935 78.5036 76.9198 80.2237 72.4433 81.4322C71.1749 81.7723 69.7279 82.2229 68.4345 82.4364C70.0237 85.0823 69.5084 87.4726 66.8216 89.1849C65.5636 89.9873 64.0392 90.0341 62.5899 89.8808C61.1721 91.2639 59.5524 92.1487 57.5186 92.1089C56.8609 92.098 56.2082 91.9914 55.5812 91.794C53.6384 92.8635 52.0962 93.3263 49.8854 92.6834C49.1805 92.4784 48.339 92.2252 48.307 91.3952C48.4606 91.0428 48.5668 90.9895 48.8719 90.765C49.3267 90.7708 49.6381 91.1973 50.0131 91.3394C51.6548 91.9622 52.8109 91.7834 54.2103 90.9943C52.7778 89.9248 51.7852 87.9224 53.0336 86.3392C53.1898 86.1461 53.3504 85.9563 53.5169 85.7718C50.9848 86.3815 48.5727 86.5903 46.0522 87.0073C37.715 88.3843 29.2731 88.8239 20.8836 87.6518C19.4453 87.4503 14.7139 87.185 15.909 84.6516C16.2864 83.8514 16.7859 83.2027 17.6205 82.8618C18.1995 80.9248 19.012 81.1601 19.5355 80.1916C19.9152 80.2702 20.8923 80.7206 21.4054 80.8197C26.235 81.7506 28.0672 80.1974 31.8111 78.0099C32.1562 77.457 32.3885 76.5087 32.5745 75.8594C32.7856 75.0729 32.8654 74.7072 32.9724 73.8878C34.094 74.5206 34.7399 74.7435 35.9625 75.1662C36.9473 75.4173 38.9576 75.9163 39.9516 76.0397L40.4542 76.0141L40.8378 75.875L41.3031 74.7675C42.4634 72.5335 42.8275 70.2748 44.9051 68.5445C46.8542 66.9213 48.9553 65.5037 50.6486 63.6095C52.134 64.7832 53.6052 65.9763 55.0608 67.1869C57.8553 63.7051 58.3634 61.9778 56.8246 57.7672C60.1346 58.6701 61.6436 58.5258 64.4104 56.3884L60.9991 54.0705C63.2411 53.3452 65.3112 52.3363 66.9557 50.6026C66.2563 50.4343 65.4564 50.2837 64.7459 50.1355C70.1464 42.3709 68.4223 33.6116 62.775 26.5037ZM72.2419 70.138C71.4413 72.5336 69.8194 73.4035 67.4129 73.8459C67.0786 73.909 66.8443 73.9036 66.5077 73.9104C66.1112 73.8343 65.8669 73.8364 65.4702 73.8269L64.8555 73.7318C64.0935 73.5101 63.5731 73.1523 63.5427 72.313C63.6316 72.1501 63.688 72.0477 63.7494 71.8697L63.7905 71.7453C63.292 72.1099 63.1948 72.2447 62.5307 72.1226C61.5733 71.9462 60.6714 71.5322 59.7101 71.2756C60.4037 72.8325 61.0065 74.1543 60.9803 75.8934C59.6407 75.6691 57.989 75.1488 56.7937 74.5027C55.6456 76.8522 53.3361 80.2645 51.5529 82.1459C49.5748 78.8517 43.9751 76.427 40.2745 77.5852C40.3059 77.0985 40.6474 76.3531 40.8378 75.875L40.4542 76.0141L39.9516 76.0397C38.9576 75.9163 36.9473 75.4173 35.9625 75.1662C34.7399 74.7435 34.094 74.5206 32.9724 73.8878C32.8654 74.7072 32.7856 75.0729 32.5745 75.8594C32.3885 76.5087 32.1562 77.457 31.8111 78.0099C28.0672 80.1974 26.235 81.7506 21.4054 80.8197C20.8923 80.7206 19.9152 80.2702 19.5355 80.1916C19.012 81.1601 18.1995 80.9248 17.6205 82.8618C16.7859 83.2027 16.2864 83.8514 15.909 84.6516C14.7139 87.185 19.4453 87.4503 20.8836 87.6518C29.2731 88.8239 37.715 88.3843 46.0522 87.0073C48.5727 86.5903 50.9848 86.3815 53.5169 85.7718C53.3504 85.9563 53.1898 86.1461 53.0336 86.3392C51.7852 87.9224 52.7778 89.9248 54.2103 90.9943C52.8109 91.7834 51.6548 91.9622 50.0131 91.3394C49.6381 91.1973 49.3267 90.7708 48.8719 90.765C48.5668 90.9895 48.4606 91.0428 48.307 91.3952C48.339 92.2252 49.1805 92.4784 49.8854 92.6834C52.0962 93.3263 53.6384 92.8635 55.5812 91.794C56.2082 91.9914 56.8609 92.098 57.5186 92.1089C59.5524 92.1487 61.1721 91.2639 62.5899 89.8808C64.0392 90.0341 65.5636 89.9873 66.8216 89.1849C69.5084 87.4726 70.0237 85.0823 68.4345 82.4364C69.7279 82.2229 71.1749 81.7723 72.4433 81.4322C76.9198 80.2237 81.0935 78.5036 85.2844 76.506C86.7065 75.8276 91.1865 74.0941 91.1811 72.1636C91.1754 70.414 88.2038 69.5502 86.7143 69.52C86.9351 68.4269 87.0781 66.5692 87.1321 65.4626C83.5543 64.4791 79.8927 67.3062 77.3231 69.5598C77.2161 68.6814 77.7042 65.7372 77.8746 64.8001C76.0947 64.7952 74.4114 64.4898 72.8687 63.5419C72.9071 64.5832 72.7986 65.2715 72.8058 66.1921C72.7039 67.0664 72.4711 69.3923 72.2419 70.138Z" fill="#1D3B5F"/>
<path d="M40.2741 77.5852C43.9747 76.4269 49.5743 78.8516 51.5525 82.1459C49.2107 84.6383 46.7726 85.8505 43.3784 85.826C41.896 85.816 41.9591 85.8794 40.5029 85.3481C39.9562 85.1397 39.8379 85.0927 39.3617 84.7606C36.7362 82.6545 38.8937 79.7399 40.2741 77.5852Z" fill="#FEFEFE"/>
<path d="M39.3618 84.7607C39.493 84.0822 39.7065 82.0744 40.6 81.9581C40.7151 82.1198 40.7563 82.1996 40.6948 82.4372C40.3121 83.9355 40.2466 83.8422 40.503 85.3482C39.9563 85.1398 39.8381 85.0928 39.3618 84.7607Z" fill="#F3EADF"/>
<path d="M77.3231 69.5598C79.8927 67.3062 83.5543 64.4791 87.1321 65.4625C87.0781 66.5692 86.9351 68.4269 86.7143 69.52C86.3221 71.3675 86.0491 72.3956 84.3477 73.5655C83.0698 74.4436 80.2794 75.0505 78.7682 74.7194C78.6763 74.6998 78.586 74.6769 78.496 74.65C78.1825 74.622 77.9008 74.5499 77.5947 74.4834C75.1349 73.4189 76.3452 71.5533 77.2206 69.9702L77.3231 69.5598Z" fill="#FEFEFE"/>
<path d="M77.5945 74.4835C77.721 74.126 77.6603 74.0441 77.6468 73.6762C77.5927 72.2522 77.7534 72.022 78.7093 71.0717C78.4164 72.6234 78.0765 73.1289 78.4958 74.65C78.1823 74.622 77.9006 74.5499 77.5945 74.4835Z" fill="#F3EADF"/>
<path d="M19.5357 80.1914C19.9155 80.2701 20.8925 80.7204 21.4057 80.8196C26.2353 81.7504 28.0674 80.1972 31.8114 78.0097C31.7484 78.5416 31.6947 78.7103 31.5279 79.2244C30.5998 82.0787 30.3445 83.5772 27.3579 85.1978C25.656 86.1211 22.3916 86.627 20.5142 86.1313C19.9127 85.9624 19.7505 85.9119 19.2077 85.614C19.059 85.5119 18.9138 85.4063 18.771 85.2962C17.8368 84.5717 17.7641 83.9832 17.6208 82.8616C18.1997 80.9246 19.0123 81.16 19.5357 80.1914Z" fill="#FEFEFE"/>
<path d="M19.207 85.6141C19.5966 85.2113 19.3667 83.0091 20.7429 82.3214L20.8891 82.4006C20.9877 83.0468 20.4242 83.7677 20.3538 84.4533C20.2928 85.0537 20.394 85.5479 20.5135 86.1314C19.9121 85.9625 19.7498 85.912 19.207 85.6141Z" fill="#F3EADF"/>
<path d="M64.2045 68.9486C65.7704 68.1639 67.2988 67.2978 68.8828 66.5396C70.3677 65.8286 71.2493 65.7212 72.8057 66.1921C72.7038 67.0663 72.4711 69.3922 72.2418 70.138C71.4413 72.5335 69.8194 73.4035 67.4129 73.8459C67.0786 73.909 66.8443 73.9036 66.5077 73.9104C66.1111 73.8342 65.8668 73.8363 65.4701 73.8269L64.8555 73.7318C64.0935 73.5101 63.573 73.1522 63.5426 72.3129C63.6315 72.15 63.688 72.0476 63.7493 71.8697L63.7904 71.7453L63.4992 70.5881C63.9534 70.0079 64.3491 69.7204 64.2045 68.9486Z" fill="#FEFEFE"/>
<path d="M64.8552 73.7318C64.9057 72.5883 64.4793 72.2922 65.1619 71.1301L65.331 71.0169L65.2173 71.0612L65.3885 71.077C65.5975 71.7926 65.2963 72.7129 65.4698 73.8269L64.8552 73.7318Z" fill="#F3EADF"/>
<path d="M66.711 72.4612C66.9253 72.0006 67.0062 71.7844 67.3388 71.3992L67.4739 71.3901C67.5629 72.3642 67.2005 72.5103 67.4132 73.8459C67.079 73.909 66.8446 73.9036 66.508 73.9104C67.0368 73.5656 66.7742 73.0803 66.711 72.4612Z" fill="#F3EADF"/>
<path d="M77.8743 64.8001C80.518 64.2 82.316 62.8985 84.0931 60.8957C84.7464 59.9976 85.843 58.9 85.8683 57.7501C85.8719 57.5576 85.4427 57.2083 85.3013 57.1011L85.4965 57.1155L85.4379 57.0949L85.5397 57.2423L85.6368 57.1409C85.958 57.2476 86.1135 57.2799 86.4488 57.339C86.4607 57.7091 87.3057 58.8926 87.3523 59.5497C87.4863 61.4479 87.3703 63.5744 87.1318 65.4625C83.554 64.4791 79.8924 67.3062 77.3228 69.5598C77.2158 68.6813 77.7039 65.7372 77.8743 64.8001Z" fill="#152638"/>
<path d="M62.4652 67.8158C63.5541 68.3111 63.8692 67.7132 64.2044 68.9487C64.349 69.7204 63.9532 70.0079 63.4991 70.5882C63.1514 69.7295 62.8318 68.7333 62.4652 67.8158Z" fill="#FECA07"/>
<path d="M40.9627 10.9926C41.0633 10.7318 41.1714 10.4742 41.287 10.2199C42.4042 7.81209 46.1395 3.13768 48.566 2.23374C52.813 0.652059 61.7902 5.3582 65.6357 7.14552C66.9695 8.04138 67.652 8.50264 68.3277 10.0351C69.038 12.7524 69.6077 16.4908 67.7981 18.9397C66.6141 20.5411 64.5273 19.8695 62.9927 19.2195C62.6472 20.6551 62.2655 21.6525 61.3526 22.8424C61.1756 23.0723 60.3828 24.0445 60.3459 24.2375C59.9943 24.4553 59.7153 24.7462 59.4131 25.0307C59.0434 25.3915 58.7528 25.6178 58.3444 25.9359C58.8996 26.4926 59.5157 26.9755 60.0852 27.5397C61.372 28.8388 62.5464 30.2441 63.5978 31.7404C62.2626 31.4638 61.282 31.3691 59.9155 31.2889C61.7975 33.0466 63.9268 34.8353 65.0812 37.1492L65.0673 37.3469C64.6311 37.581 60.9915 36.8539 60.3353 36.7312C62.2052 38.5767 64.1653 40.7214 63.7295 43.5826L63.6205 43.6654C63.2934 43.5734 60.1018 41.6433 59.4002 41.2705C60.0114 43.0749 61.2412 46.3806 61.0706 48.2362L60.94 48.3494C60.4925 48.237 57.2072 45.9573 56.5472 45.5314C57.0929 47.0664 57.5835 48.4352 57.818 50.0518C56.2747 49.1947 54.8798 48.1739 53.3784 47.2585C53.6425 48.0659 54.7041 51.0098 54.4743 51.6304C53.6489 52.114 49.7619 51.2539 48.737 50.9978C47.3404 50.6483 46.6724 50.1353 45.4618 49.3946L44.5799 48.972C43.5918 48.5696 38.4465 47.095 38.1929 46.5078C38.8309 46.2244 40.8538 46.678 41.598 46.835C41.1898 40.6864 37.9552 39.6458 35.9092 34.4834C35.3302 33.0235 35.5035 29.5417 35.5857 27.9067C35.8594 22.4918 37.0757 15.335 39.7068 10.5568L40.9627 10.9926Z" fill="#1D3B5F"/>
<path d="M40.9629 10.9926C41.0635 10.7318 41.1716 10.4742 41.2872 10.22C42.4044 7.81215 46.1397 3.13773 48.5662 2.2338C52.8132 0.652115 61.7903 5.35826 65.6359 7.14558C66.9697 8.04144 67.6522 8.5027 68.3279 10.0351C69.0382 12.7524 69.6079 16.4909 67.7983 18.9398C66.6143 20.5412 64.5275 19.8696 62.9929 19.2195C62.6474 20.6551 62.2657 21.6525 61.3527 22.8424C61.1758 23.0723 60.383 24.0445 60.3461 24.2375C59.9945 24.4554 59.7155 24.7462 59.4133 25.0308C59.0743 24.9403 56.4752 21.9557 56.3584 21.6475C54.1918 19.6089 51.8683 17.4069 49.4047 15.7422C48.4524 15.0985 47.495 14.4824 46.5539 13.8196C44.6961 12.6908 42.6989 11.9624 40.9629 10.9926Z" fill="#152638"/>
<path d="M51.1189 7.68274C52.9573 9.23662 54.6808 12.0034 56.2349 13.8798C57.1425 14.9748 58.2749 15.8829 59.1568 16.8873C58.6831 18.1414 57.3151 20.7247 56.3582 21.6475C54.1916 19.609 51.8682 17.407 49.4046 15.7422C48.4522 15.0985 47.4949 14.4825 46.5538 13.8196C47.7444 11.7342 49.1288 9.12594 51.1189 7.68274Z" fill="#FD83AB"/>
<path d="M44.5802 48.9722C44.8286 48.5369 44.6951 48.6314 45.0665 48.4855C45.5544 48.5573 46.063 48.7475 46.5416 48.893L46.6089 49.0456C46.2378 49.2683 45.8972 49.1803 45.4622 49.3948L44.5802 48.9722Z" fill="#152638"/>
<path d="M47.097 37.9545C52.799 36.9438 55.1309 43.194 49.5018 45.2135C47.2913 45.6692 44.805 44.9552 44.0611 42.6145C43.7782 41.729 43.8629 40.767 44.296 39.9446C44.9035 38.8076 45.9178 38.3029 47.097 37.9545Z" fill="#FD83AB"/>
<path d="M40.7583 31.9177C45.2653 31.6236 46.1144 37.5838 42.4398 38.6526C41.5949 38.7554 40.8852 38.7345 40.1123 38.3248C39.3301 37.9002 38.7496 37.1812 38.4997 36.327C37.9156 34.3863 38.7523 32.4831 40.7583 31.9177Z" fill="#1D1D1D"/>
<path d="M40.6238 32.686C41.6814 32.6128 42.2726 33.6067 41.2631 34.2382C40.0091 34.1804 39.6375 33.5606 40.6238 32.686Z" fill="#FEFEFE"/>
<path d="M44.2295 28.9669L44.0186 29.0604C43.2607 28.8349 42.0667 28.6151 41.2061 28.6658C40.4631 28.7091 38.7698 29.5229 37.9508 29.3364C37.8272 29.3077 37.8001 29.149 37.7384 29.0037C38.9745 28.1744 43.8139 26.622 44.2295 28.9669Z" fill="#152638"/>
<path d="M5.95758 15.1371C-1.58369 18.0513 -0.442595 11.0499 1.2362 6.47147C2.00913 4.01272 4.25304 2.73363 6.69791 2.16906C11.8329 0.983057 18.7848 -1.24945 23.8511 0.894051L24.0233 0.612622C26.3722 0.447347 26.6746 8.48638 26.8606 10.1981C27.4738 10.1275 28.4039 10.0203 28.9815 9.85374C27.7876 12.5056 26.8997 14.4925 26.4795 17.431C26.2715 18.9822 26.1664 20.5452 26.1646 22.11C26.174 25.1157 26.4955 27.9917 25.8266 30.9504C25.136 34.0074 23.251 35.1733 20.9019 36.8865C18.8701 38.3685 15.7634 41.899 16.1153 44.5315C16.4744 44.6011 16.7477 44.6097 17.0026 44.8547L17.041 45.0711C16.7709 45.3401 16.5927 45.3449 16.1945 45.3458C16.1348 45.3457 16.074 45.3447 16.0141 45.3428C15.8276 45.5219 15.811 45.6953 15.7465 45.9397C15.9532 46.884 16.6925 46.4937 17.12 47.0885C16.8132 47.7484 15.2049 47.7683 14.5204 47.8422C12.2124 48.0913 10.4379 48.9782 8.79435 50.6037C8.54326 49.2086 8.86779 47.3611 9.51279 46.0887C8.92253 46.3979 5.63991 48.3378 5.2738 48.2846C4.57741 47.2656 5.50801 43.4691 5.8162 42.3241C5.22815 42.8754 3.38362 44.7037 2.7675 44.9366L2.6339 44.7954C2.2962 42.4722 3.4711 39.9082 4.65919 38.007C4.06099 38.3733 0.835666 40.6777 0.513291 40.6513C0.391408 40.3382 0.445318 40.0982 0.485072 39.7581C0.910161 36.1207 3.17115 33.1149 5.96726 30.8904C5.18801 31.1342 2.44805 31.8165 1.70641 31.7071L1.62588 31.5497C2.45818 29.3618 5.55843 26.9137 7.4009 25.5824C6.46858 25.8924 4.20513 26.4447 3.26027 26.1111C3.00882 25.8707 3.06613 26.0039 3.05726 25.6401C3.69599 24.1661 7.64067 21.9031 9.13102 21.2082C8.01763 20.7048 4.68518 21.5595 6.92171 19.0259C6.38716 17.6064 6.1377 16.6269 5.95758 15.1371Z" fill="#1D3B5F"/>
<path d="M5.95822 15.1372C-1.58304 18.0513 -0.441947 11.0499 1.23685 6.47149C2.00978 4.01274 4.25369 2.73365 6.69856 2.16907C11.8335 0.983075 18.7854 -1.24943 23.8517 0.894069L24.024 0.61264C26.3728 0.447366 26.6752 8.4864 26.8612 10.1981C25.6452 10.1914 23.3707 11.2335 22.1665 11.645C21.8117 11.7663 20.8123 12.2964 20.5012 12.0957C20.4165 12.2185 17.1502 13.9907 16.603 14.4619C16.1892 14.8182 13.0825 17.0153 12.8313 17.0732C12.7272 17.8982 9.96286 20.7566 9.13166 21.2082C8.01828 20.7048 4.68583 21.5595 6.92236 19.026C6.38781 17.6064 6.13834 16.6269 5.95822 15.1372Z" fill="#152638"/>
<path d="M9.71718 13.3157C11.4692 12.0991 12.6863 11.1786 14.2839 9.7877C15.3251 8.88103 17.6018 6.75761 18.701 6.07027C19.8994 7.96112 20.0944 9.96994 20.5009 12.0958C20.4162 12.2186 17.15 13.9909 16.6027 14.462C16.1889 14.8183 13.0822 17.0154 12.831 17.0733C12.2811 17.1679 11.6156 17.3344 11.0617 17.4568C10.3499 15.8255 10.0088 15.0987 9.71718 13.3157Z" fill="#FD83AB"/>
<path d="M16.014 45.3427C14.9705 45.1042 11.7106 45.5318 11.3787 45.245C11.8746 44.6336 15.3326 44.3616 16.1152 44.5314C16.4743 44.601 16.7475 44.6096 17.0025 44.8546L17.0409 45.071C16.7707 45.34 16.5925 45.3448 16.1944 45.3458C16.1347 45.3456 16.0739 45.3447 16.014 45.3427Z" fill="#152638"/>
<path d="M11.1572 35.3361C13.1062 35.0654 15.2505 35.9264 15.9151 37.8916C16.1968 38.7281 16.1273 39.6433 15.7218 40.4275C15.1778 41.482 14.3136 42.0236 13.2166 42.3605C7.48017 43.3467 6.42016 36.8729 11.1572 35.3361Z" fill="#FD83AB"/>
<path d="M18.8823 30.0069C22.754 29.3439 23.7695 34.8827 20.1336 36.4065C19.4373 36.5158 18.8432 36.6466 18.1546 36.388C16.4942 35.7689 16.1034 33.5932 16.6962 32.0936C17.1422 30.9651 17.8051 30.4761 18.8823 30.0069Z" fill="#1D1D1D"/>
<path d="M19.976 30.8814C20.3433 30.7347 20.7616 30.9025 20.9256 31.2627C21.0896 31.6229 20.9419 32.0483 20.5898 32.2292C20.3467 32.354 20.0547 32.3351 19.8294 32.1799C19.605 32.0246 19.4834 31.7584 19.5146 31.4868C19.5448 31.2154 19.7223 30.9827 19.976 30.8814Z" fill="#FEFEFE"/>
<path d="M17.3215 27.511L17.1849 27.3413C17.0724 26.9294 17.2685 26.4665 17.6665 26.3453C19.2464 25.8622 21.5125 26.8338 22.9193 27.4008C23.246 27.6134 23.1641 27.4981 23.3083 27.8297C22.8727 28.4889 20.7476 27.2274 19.8209 27.1991C18.6482 27.1633 18.4944 27.1573 17.3215 27.511Z" fill="#152638"/>
<path d="M20.2298 69.7703C20.9963 68.7573 21.5394 67.5948 22.3146 66.5384C22.8818 69.9896 24.4634 72.5447 27.8806 73.7856C27.6549 72.4236 27.646 71.5052 27.585 70.1358C29.6922 71.8989 30.4826 72.5539 32.9725 73.8879C32.8655 74.7073 32.7857 75.073 32.5746 75.8595C32.3886 76.5088 32.1563 77.4571 31.8112 78.01C28.0673 80.1975 26.2351 81.7507 21.4055 80.8199C20.8924 80.7207 19.9153 80.2704 19.5356 80.1917C18.4131 78.4705 18.2108 70.4722 18.9318 68.3088C19.3555 68.8034 19.7881 69.2906 20.2298 69.7703Z" fill="#152638"/>
<path d="M38.8212 72.3974C39.7729 73.28 40.1038 74.0128 41.3032 74.7675L40.8379 75.8749L40.4543 76.0141L39.9517 76.0397C39.922 75.8743 39.5958 75.2409 39.4996 75.0096C39.0915 74.0307 38.9761 73.4203 38.8212 72.3974Z" fill="#F3EADF"/>
<path d="M24.6191 41.0036C26.8304 40.4931 31.001 40.9853 32.1275 43.227C32.3875 43.736 32.4285 44.3284 32.2424 44.8687C31.8502 46.0196 30.7736 46.7909 29.7394 47.3111C24.0615 49.4168 18.8173 43.0516 24.6191 41.0036Z" fill="#152638"/>
<path d="M37.9083 48.3678C39.1681 48.1868 42.352 50.1194 43.2439 51.0682C43.5322 51.3744 43.5255 51.5188 43.5065 51.8925C42.9587 51.886 38.0776 48.8516 37.9083 48.3678Z" fill="#1D1D1D"/>
<path d="M82.2962 27.3328C83.1236 24.4942 82.9569 23.2766 81.9957 20.6118C81.8941 20.3315 82.1235 20.1076 82.3615 19.9549C83.3263 19.8427 84.7019 20.721 85.441 21.2832C87.327 22.716 88.3129 24.8894 88.5792 27.2062C88.7307 28.5253 88.5632 29.2102 88.2198 30.4372C89.0715 29.5614 89.9646 28.3464 90.6539 27.317C91.157 26.5641 91.2094 25.1489 91.9717 24.8317C92.2806 24.8894 92.4585 25.0112 92.6209 25.2932C94.6926 28.8952 93.199 32.9245 90.3824 35.568C91.0081 35.392 91.739 35.1621 92.3417 34.9877C92.9212 34.8201 94.5049 33.9989 94.861 34.0418C95.7292 35.4753 92.2943 38.9399 91.0831 39.6626C89.4539 40.6326 87.5235 40.9667 85.6624 40.6007C83.0653 36.3774 81.5521 34.0505 77.7276 30.8952C78.4832 30.1884 78.9602 29.7404 79.4108 28.7646C79.6277 28.288 79.78 27.785 79.8645 27.2684C79.9713 26.6232 79.8751 25.0994 80.2765 24.7957C80.9381 24.8732 81.9764 26.7757 82.2962 27.3328Z" fill="#152638"/>
</svg>
