<svg width="174" height="143" viewBox="0 0 174 143" fill="none" xmlns="http://www.w3.org/2000/svg">
<path d="M51.0873 9.175C50.8824 8.48202 49.1886 5.63576 49.716 5.15615C52.6395 2.50323 60.976 1.76918 64.7706 0.852952C72.4169 -0.99403 74.0715 -0.235137 71.7478 7.08476C74.6442 6.38374 87.2334 5.64661 90.4914 5.52792C95.5548 5.34356 156.109 1.42014 159.5 2.61054C160.66 5.95012 161.164 10.6009 161.76 14.1939L164.624 30.7604C166.287 40.2129 174.682 118.557 172.97 121.836C168.509 124.952 102.509 129.81 95.8089 130.849C84.9648 132.542 74.1327 134.3 63.3127 136.123H34.6932C32.0681 136.556 24.6983 142.857 22.3233 143C20.9911 138.503 19.1617 136.953 15.5842 133.938C15.2496 131.218 13.5859 125.47 13.1097 123.117C10.9427 112.356 -2.72629 26.598 0.486557 20.2775C5.78805 15.3253 41.7472 10.1155 51.0873 9.175ZM58.589 4.35769L60.0628 7.06345C60.1984 7.05079 60.3311 7.0381 60.4637 7.02542C62.6217 4.81284 64.4451 6.32693 67.025 7.47386C67.6368 6.16773 68.7248 4.02073 69.0835 2.71768L68.544 2.61054C65.6898 3.205 61.5215 3.96581 58.589 4.35769Z" fill="#FE9B01"/>
<path d="M51.1944 9.95736C50.9891 9.20529 49.2917 6.11632 49.8203 5.59582C52.7499 2.71668 61.1038 1.92004 64.9063 0.925685C72.5686 -1.07879 74.2268 -0.255188 71.8982 7.68889C71.4361 9.00096 71.0978 10.4284 70.1102 11.3558C68.144 12.0563 65.7157 10.0164 63.7435 11.2004C63.4143 12.5268 63.4445 13.437 62.5113 14.0826C60.9619 13.751 60.2461 12.6054 59.2736 11.3877C58.0232 14.2477 57.9326 14.5348 55.2748 16.0822C53.6922 13.9633 52.5898 12.2057 51.1944 9.95736ZM58.7118 4.72928L60.1887 7.66576C60.3246 7.65202 60.4575 7.63825 60.5904 7.62448C62.7529 5.22324 64.5801 6.86643 67.1654 8.11117C67.7785 6.69366 68.8689 4.36359 69.2283 2.94942L68.6877 2.83314C65.8275 3.47829 61.6505 4.30398 58.7118 4.72928Z" fill="#1D1D1D"/>
<path d="M20.6441 39.6243L20.8553 41.291L13.147 42.2678L11.6122 30.1567L14.1122 29.8399L15.4358 40.2843L20.6441 39.6243ZM22.1877 28.3932C22.5766 28.3439 22.9223 28.4365 23.2249 28.671C23.5274 28.9055 23.7033 29.2171 23.7526 29.606C23.8207 30.1431 23.7625 30.6867 23.5782 31.2369C23.394 31.7871 23.1239 32.2541 22.7679 32.6379C22.4213 33.0205 22.0501 33.2463 21.6543 33.3153C21.9046 32.7661 22.1106 32.0532 22.2723 31.1766C21.9412 31.1621 21.6533 31.0434 21.4087 30.8203C21.1629 30.5881 21.0182 30.3006 20.9748 29.9581C20.9255 29.5692 21.0181 29.2234 21.2526 28.9209C21.4871 28.6183 21.7988 28.4424 22.1877 28.3932ZM29.6016 27.877L31.1364 39.9881L28.6364 40.3049L27.1016 28.1938L29.6016 27.877ZM39.3923 36.0631L34.7117 36.6562L34.0569 39.618L31.9735 39.882L34.8832 27.2077L37.5221 26.8733L43.5013 38.4212L40.7236 38.7732L39.3923 36.0631ZM38.6116 34.4686L36.2384 29.6608L35.0838 34.9156L38.6116 34.4686ZM55.5698 33.9424C55.5322 34.9821 55.2349 35.7912 54.6779 36.3698C54.1221 36.9577 53.3442 37.315 52.3442 37.4417C51.4923 37.5497 50.7252 37.4728 50.0429 37.2112C49.3606 36.9496 48.8031 36.5216 48.3702 35.9273C47.9374 35.333 47.6659 34.6007 47.5556 33.7303C47.4429 32.8414 47.5255 32.0454 47.8033 31.3422C48.0904 30.6379 48.5316 30.0739 49.1271 29.6504C49.7214 29.2175 50.4214 28.9501 51.2269 28.848C52.0788 28.7401 52.85 28.8493 53.5405 29.1757C54.2298 29.4929 54.7257 30.0651 55.0281 30.8923L53.1679 31.6926C53.034 31.2297 52.8141 30.9048 52.5081 30.7178C52.2103 30.5203 51.8808 30.4445 51.5197 30.4902C50.9827 30.5583 50.5756 30.8357 50.2986 31.3223C50.0204 31.7998 49.93 32.4227 50.0274 33.1913C50.1424 34.0987 50.4665 34.7632 50.9998 35.1848C51.533 35.6065 52.1793 35.7692 52.9385 35.673C53.9756 35.5416 54.8527 34.9647 55.5698 33.9424ZM63.9295 27.3653L64.9856 35.6986L62.4856 36.0155L62.3043 34.5849C62.2077 35.0111 61.9543 35.3866 61.5439 35.7114C61.1439 36.0444 60.6337 36.2501 60.0133 36.3287C59.3467 36.4132 58.7231 36.3182 58.1426 36.0437C57.5726 35.7772 57.0944 35.3439 56.7078 34.7437C56.3201 34.1343 56.07 33.3851 55.9573 32.4962C55.8447 31.6074 55.9012 30.8287 56.127 30.1604C56.3528 29.492 56.7183 28.9612 57.2235 28.5679C57.7287 28.1746 58.3332 27.9334 59.0369 27.8442C59.4721 27.789 59.9062 27.7999 60.3393 27.8767C60.7805 27.9431 61.1703 28.0866 61.5087 28.3071L61.4295 27.6821L63.9295 27.3653ZM61.6671 29.5571C61.3994 29.3746 61.1063 29.2519 60.7878 29.1887C60.4786 29.1244 60.199 29.1081 59.949 29.1398C59.3935 29.2102 59.0016 29.5327 58.7733 30.1073C58.5543 30.6807 58.4994 31.3979 58.6085 32.2591C58.7212 33.148 58.9521 33.8196 59.3013 34.2739C59.6587 34.7179 60.0595 34.9117 60.504 34.8554C60.8744 34.8084 61.2115 34.6105 61.5154 34.2615C61.8297 33.9206 62.0269 33.5099 62.1071 33.0293L61.6671 29.5571ZM68.65 28.4605L69.0548 31.655C69.1733 32.5902 69.3598 33.3192 69.6142 33.842C69.8698 34.3741 70.2513 34.7491 70.7587 34.9671C70.4647 35.0231 70.2529 35.0594 70.1233 35.0758C68.9752 35.2213 68.1257 35.0138 67.5748 34.4532C67.0332 33.8915 66.6791 32.9533 66.5125 31.6385L66.15 28.7773L65.1083 28.9093L64.8971 27.2427L65.9388 27.1107L65.6431 24.7773L68.1431 24.4605L68.4388 26.7939L70.0221 26.5932L70.2333 28.2599L68.65 28.4605ZM74.333 27.7404L74.7378 30.9348C74.8564 31.87 75.0428 32.599 75.2972 33.1218C75.5528 33.6539 75.9343 34.0289 76.4417 34.2469C76.1478 34.3029 75.936 34.3392 75.8064 34.3556C74.6582 34.5011 73.8087 34.2936 73.2579 33.7331C72.7163 33.1714 72.3622 32.2331 72.1956 30.9183L71.833 28.0572L70.7914 28.1892L70.5801 26.5225L71.6218 26.3905L71.3261 24.0572L73.8261 23.7403L74.1218 26.0737L75.7052 25.873L75.9164 27.5397L74.333 27.7404ZM84.5549 24.7516L85.6109 33.0849L83.1109 33.4017L82.9472 32.1101C82.8275 32.5016 82.5543 32.8701 82.1278 33.2159C81.7116 33.5696 81.1702 33.7888 80.5035 33.8733C79.772 33.966 79.1009 33.8299 78.4902 33.4651C77.8888 33.0992 77.5183 32.3653 77.3786 31.2634L76.6799 25.7495L79.1799 25.4327L79.8927 31.0577C79.9596 31.5855 80.1229 31.9458 80.3825 32.1387C80.6421 32.3316 80.9294 32.4081 81.2442 32.3682C81.6146 32.3213 81.9384 32.1297 82.2156 31.7935C82.4941 31.4666 82.6722 31.0536 82.7501 30.5545L82.0549 25.0684L84.5549 24.7516ZM90.5094 23.8559C90.7779 23.8218 91.0743 23.8219 91.3985 23.8561C91.732 23.8891 92.0128 23.9523 92.241 24.0457L92.0647 25.5498C91.9361 25.5002 91.7775 25.4733 91.5888 25.469C91.3989 25.4554 91.2299 25.458 91.0817 25.4768C90.7484 25.519 90.4176 25.655 90.0892 25.8848C89.7608 26.1146 89.4904 26.4311 89.2781 26.8343C89.0658 27.2375 88.9554 27.7031 88.9471 28.231L89.4997 32.5921L86.9997 32.9089L85.9437 24.5756L88.4437 24.2588L88.5229 24.8838C88.7355 24.631 89.0274 24.4106 89.3987 24.2224C89.7688 24.025 90.1391 23.9028 90.5094 23.8559ZM100.551 22.7245L101.607 31.0579L99.1067 31.3747L98.9255 29.9441C98.8289 30.3703 98.5755 30.7458 98.165 31.0707C97.7651 31.4036 97.2549 31.6094 96.6345 31.688C95.9678 31.7725 95.3443 31.6774 94.7638 31.4029C94.1938 31.1364 93.7155 30.7031 93.329 30.103C92.9413 29.4935 92.6912 28.7444 92.5785 27.8555C92.4659 26.9666 92.5224 26.188 92.7482 25.5196C92.974 24.8513 93.3395 24.3204 93.8447 23.9271C94.3499 23.5338 94.9544 23.2926 95.6581 23.2034C96.0933 23.1483 96.5274 23.1591 96.9605 23.2359C97.4017 23.3023 97.7915 23.4458 98.1299 23.6663L98.0507 23.0413L100.551 22.7245ZM98.2883 24.9163C98.0206 24.7339 97.7275 24.6111 97.409 24.548C97.0998 24.4836 96.8202 24.4673 96.5702 24.499C96.0147 24.5694 95.6228 24.8919 95.3945 25.4665C95.1755 26.0399 95.1206 26.7572 95.2297 27.6183C95.3424 28.5072 95.5733 29.1788 95.9225 29.6332C96.2798 30.0771 96.6807 30.2709 97.1252 30.2146C97.4955 30.1677 97.8327 29.9697 98.1365 29.6207C98.4508 29.2799 98.6481 28.8691 98.7283 28.3886L98.2883 24.9163ZM110.55 28.3017C110.865 28.2618 111.11 28.1601 111.287 27.9966C111.475 27.8411 111.555 27.6615 111.529 27.4578C111.494 27.1801 111.302 26.9645 110.954 26.8111C110.604 26.6485 110.157 26.4982 109.612 26.3602C108.874 26.1808 108.319 26.0301 107.946 25.908C107.572 25.7767 107.231 25.5753 106.924 25.3037C106.616 25.0229 106.431 24.6418 106.37 24.1603C106.277 23.4288 106.516 22.8293 107.088 22.3618C107.667 21.8839 108.452 21.5822 109.442 21.4566C110.341 21.3428 111.145 21.4149 111.855 21.673C112.564 21.9219 113.097 22.3812 113.455 23.0508L111.442 23.8704C111.294 23.5222 111.068 23.2968 110.763 23.1943C110.459 23.0918 110.14 23.0617 109.806 23.1039C109.51 23.1415 109.271 23.2235 109.09 23.35C108.916 23.466 108.842 23.6213 108.866 23.8157C108.888 23.9824 108.974 24.1079 109.126 24.1921C109.287 24.2752 109.547 24.3645 109.908 24.4599C110.248 24.5485 110.462 24.6014 110.549 24.6186C111.344 24.8094 111.955 24.9861 112.38 25.1486C112.813 25.3007 113.175 25.5229 113.466 25.8153C113.767 26.1065 113.948 26.4975 114.01 26.9883C114.112 27.7938 113.859 28.4703 113.251 29.0178C112.643 29.5652 111.798 29.9076 110.714 30.0449C109.807 30.1598 108.963 30.0692 108.182 29.7731C107.402 29.4861 106.817 28.8782 106.427 27.9492L108.587 27.1815C108.762 27.5922 109.026 27.8974 109.381 28.097C109.743 28.2863 110.133 28.3545 110.55 28.3017ZM114.348 25.2096C114.242 24.367 114.314 23.6005 114.565 22.9101C114.824 22.2093 115.25 21.6379 115.844 21.1958C116.437 20.7537 117.164 20.4781 118.025 20.369C118.895 20.2587 119.673 20.3436 120.357 20.6238C121.051 20.9028 121.611 21.3446 122.035 21.9493C122.469 22.5529 122.74 23.2806 122.848 24.1325C122.955 24.9751 122.879 25.7468 122.62 26.4476C122.368 27.138 121.946 27.7042 121.353 28.1463C120.76 28.5884 120.033 28.864 119.172 28.9731C118.301 29.0834 117.519 28.9991 116.825 28.7201C116.141 28.4399 115.581 27.9981 115.147 27.3945C114.723 26.7898 114.456 26.0615 114.348 25.2096ZM116.848 24.8928C116.942 25.6336 117.156 26.2415 117.489 26.7168C117.822 27.192 118.303 27.3897 118.933 27.3099C119.562 27.2302 119.979 26.9186 120.183 26.3753C120.387 25.832 120.442 25.19 120.348 24.4493C120.254 23.7085 120.041 23.1005 119.708 22.6253C119.375 22.1501 118.894 21.9524 118.264 22.0322C117.634 22.1119 117.217 22.4235 117.013 22.9668C116.809 23.5101 116.754 24.1521 116.848 24.8928ZM126.634 21.1126L127.038 24.3071C127.157 25.2423 127.343 25.9713 127.598 26.4941C127.853 27.0262 128.235 27.4012 128.742 27.6192C128.448 27.6752 128.236 27.7115 128.107 27.7279C126.959 27.8734 126.109 27.6659 125.558 27.1054C125.017 26.5436 124.663 25.6054 124.496 24.2906L124.134 21.4295L123.092 21.5615L122.881 19.8948L123.922 19.7628L123.627 17.4294L126.127 17.1126L126.422 19.446L128.006 19.2453L128.217 20.912L126.634 21.1126ZM132.317 20.3925L132.721 23.5869C132.84 24.5221 133.026 25.2511 133.281 25.7739C133.536 26.306 133.918 26.681 134.425 26.899C134.131 26.955 133.92 26.9913 133.79 27.0077C132.642 27.1532 131.792 26.9457 131.241 26.3852C130.7 25.8235 130.346 24.8852 130.179 23.5704L129.817 20.7093L128.775 20.8413L128.564 19.1746L129.605 19.0426L129.31 16.7093L131.81 16.3925L132.105 18.7258L133.689 18.5251L133.9 20.1918L132.317 20.3925ZM137.675 15.4375C137.346 15.6673 137.053 15.9491 136.794 16.283C136.535 16.6168 136.344 16.9656 136.221 17.3293C135.749 16.6459 135.125 16.1793 134.35 15.9294C135.019 15.346 135.511 14.7003 135.826 13.9924C136.281 14.6874 136.897 15.1691 137.675 15.4375ZM137.594 18.0303L138.65 26.3636L136.15 26.6804L135.094 18.3471L137.594 18.0303ZM142.676 23.7367C142.737 24.2182 142.851 24.6035 143.02 24.8926C143.198 25.1898 143.448 25.4169 143.769 25.5738C143.253 25.7332 142.828 25.8341 142.495 25.8763C141.828 25.9608 141.298 25.8587 140.904 25.57C140.51 25.2812 140.265 24.7572 140.168 23.9979L138.905 14.0257L141.405 13.7089L142.676 23.7367ZM146.857 14.2739C146.529 14.5037 146.235 14.7855 145.976 15.1193C145.718 15.4532 145.527 15.802 145.403 16.1657C144.931 15.4823 144.307 15.0157 143.533 14.7658C144.202 14.1823 144.694 13.5367 145.009 12.8288C145.464 13.5238 146.08 14.0055 146.857 14.2739ZM146.776 16.8666L147.832 25.2L145.332 25.5168L144.276 17.1834L146.776 16.8666ZM17.2394 47.8355C16.911 48.0653 16.6175 48.3471 16.3587 48.6809C16.1 49.0148 15.909 49.3636 15.7857 49.7273C15.3134 49.0439 14.6898 48.5773 13.9149 48.3274C14.5842 47.7439 15.0762 47.0983 15.3911 46.3904C15.8461 47.0854 16.4622 47.5671 17.2394 47.8355ZM17.1587 50.4282L18.2148 58.7616L15.7148 59.0784L14.6587 50.745L17.1587 50.4282ZM24.0556 49.4131C24.7871 49.3204 25.4536 49.457 26.055 49.823C26.6657 50.1878 27.0409 50.9211 27.1805 52.0229L27.8793 57.5368L25.3793 57.8537L24.6665 52.2286C24.5996 51.7009 24.4363 51.3405 24.1767 51.1476C23.917 50.9547 23.6298 50.8783 23.315 50.9181C22.9446 50.9651 22.6208 51.1566 22.3435 51.4928C22.0651 51.8198 21.8869 52.2328 21.8091 52.7319L22.5043 58.218L20.0043 58.5348L18.9482 50.2014L21.4482 49.8846L21.6119 51.1763C21.7317 50.7848 22.0002 50.4168 22.4175 50.0723C22.8429 49.7173 23.389 49.4976 24.0556 49.4131ZM35.8028 44.2271L37.3375 56.3383L34.8375 56.6551L34.6562 55.2245C34.5597 55.6507 34.3063 56.0262 33.8958 56.351C33.4959 56.684 32.9857 56.8897 32.3653 56.9684C31.6986 57.0528 31.0751 56.9578 30.4946 56.6833C29.9246 56.4168 29.4463 55.9835 29.0598 55.3833C28.6721 54.7739 28.422 54.0248 28.3093 53.1359C28.1967 52.247 28.2532 51.4684 28.479 50.8C28.7048 50.1316 29.0703 49.6008 29.5755 49.2075C30.0807 48.8142 30.6852 48.573 31.3889 48.4838C31.8241 48.4286 32.2582 48.4395 32.6913 48.5163C33.1325 48.5827 33.5223 48.7262 33.8607 48.9467L33.3028 44.5439L35.8028 44.2271ZM34.0191 50.1967C33.7514 50.0143 33.4583 49.8915 33.1398 49.8283C32.8306 49.764 32.551 49.7477 32.301 49.7794C31.7455 49.8498 31.3536 50.1723 31.1253 50.7469C30.9063 51.3203 30.8514 52.0376 30.9605 52.8987C31.0732 53.7876 31.3041 54.4592 31.6533 54.9136C32.0106 55.3575 32.4115 55.5513 32.856 55.495C33.2263 55.448 33.5635 55.2501 33.8673 54.9011C34.1816 54.5602 34.3789 54.1495 34.4591 53.669L34.0191 50.1967ZM40.677 44.8654C40.3486 45.0952 40.055 45.377 39.7963 45.7108C39.5375 46.0447 39.3465 46.3935 39.2233 46.7572C38.751 46.0738 38.1273 45.6072 37.3524 45.3573C38.0217 44.7738 38.5138 44.1282 38.8286 43.4203C39.2836 44.1153 39.8997 44.597 40.677 44.8654ZM40.5963 47.4581L41.6523 55.7915L39.1523 56.1083L38.0963 47.7749L40.5963 47.4581ZM49.7445 53.0726L49.9557 54.7392L43.0252 55.6175L42.814 53.9508L46.1942 48.4422L42.3192 48.9332L42.108 47.2665L48.6219 46.4411L48.8331 48.1078L45.4528 53.6164L49.7445 53.0726ZM52.884 43.3185C52.5557 43.5483 52.2621 43.8301 52.0033 44.1639C51.7446 44.4978 51.5536 44.8465 51.4303 45.2102C50.958 44.5269 50.3344 44.0602 49.5595 43.8103C50.2288 43.2269 50.7209 42.5812 51.0357 41.8734C51.4907 42.5684 52.1068 43.0501 52.884 43.3185ZM52.8034 45.9112L53.8594 54.2445L51.3594 54.5614L50.3033 46.228L52.8034 45.9112ZM66.5346 44.1711L64.7851 52.86L62.0629 53.205L58.2013 45.2272L60.2846 44.9631L62.8654 50.295L64.0346 44.4879L66.5346 44.1711ZM70.3808 41.1012C70.0524 41.331 69.7589 41.6128 69.5001 41.9466C69.2414 42.2805 69.0504 42.6293 68.9271 42.993C68.4548 42.3096 67.8312 41.843 67.0563 41.5931C67.7256 41.0096 68.2177 40.364 68.5325 39.6561C68.9875 40.3511 69.6036 40.8328 70.3808 41.1012ZM70.3001 43.6939L71.3562 52.0273L68.8562 52.3441L67.8001 44.0107L70.3001 43.6939ZM76.5405 49.7474C76.8553 49.7075 77.1011 49.6058 77.278 49.4423C77.4653 49.2869 77.546 49.1073 77.5202 48.9036C77.485 48.6258 77.293 48.4102 76.9443 48.2568C76.5944 48.0942 76.1473 47.9439 75.603 47.8059C74.8652 47.6266 74.3099 47.4758 73.9369 47.3538C73.5628 47.2224 73.2221 47.021 72.9148 46.7495C72.6064 46.4687 72.4217 46.0875 72.3607 45.6061C72.268 44.8746 72.5072 44.2751 73.0783 43.8076C73.6575 43.3296 74.4424 43.0279 75.4332 42.9023C76.3313 42.7885 77.1354 42.8607 77.8455 43.1188C78.5544 43.3676 79.0877 43.8269 79.4454 44.4966L77.4325 45.3161C77.2849 44.9679 77.0587 44.7426 76.7541 44.6401C76.4495 44.5375 76.1305 44.5074 75.7971 44.5497C75.5009 44.5872 75.2619 44.6692 75.0804 44.7957C74.9069 44.9118 74.8325 45.067 74.8572 45.2615C74.8783 45.4281 74.9648 45.5536 75.1166 45.6378C75.2776 45.7209 75.5382 45.8102 75.8984 45.9057C76.2389 45.9942 76.4526 46.0471 76.5395 46.0643C77.3351 46.2552 77.9455 46.4318 78.3706 46.5943C78.8038 46.7464 79.166 46.9687 79.4571 47.261C79.7574 47.5523 79.9386 47.9432 80.0008 48.434C80.1029 49.2395 79.85 49.916 79.242 50.4635C78.634 51.0109 77.7883 51.3533 76.705 51.4906C75.7975 51.6056 74.9535 51.515 74.1727 51.2188C73.3931 50.9319 72.808 50.3239 72.4175 49.395L74.5781 48.6273C74.7525 49.0379 75.0169 49.3431 75.3715 49.5428C75.7342 49.732 76.1238 49.8002 76.5405 49.7474ZM83.2389 39.4718C82.9106 39.7016 82.617 39.9834 82.3582 40.3172C82.0995 40.6511 81.9085 40.9998 81.7852 41.3636C81.3129 40.6802 80.6893 40.2135 79.9144 39.9637C80.5837 39.3802 81.0758 38.7346 81.3906 38.0267C81.8456 38.7217 82.4617 39.2034 83.2389 39.4718ZM83.1582 42.0645L84.2143 50.3979L81.7143 50.7147L80.6582 42.3813L83.1582 42.0645ZM92.7255 40.8521L90.976 49.541L88.2538 49.886L84.3922 41.9081L86.4755 41.6441L89.0563 46.976L90.2255 41.1689L92.7255 40.8521ZM96.5718 37.7822C96.2434 38.012 95.9498 38.2938 95.6911 38.6276C95.4323 38.9615 95.2413 39.3103 95.1181 39.674C94.6457 38.9906 94.0221 38.524 93.2472 38.2741C93.9165 37.6906 94.4086 37.045 94.7234 36.3371C95.1784 37.0321 95.7945 37.5138 96.5718 37.7822ZM96.4911 40.3749L97.5471 48.7083L95.0471 49.0251L93.9911 40.6917L96.4911 40.3749ZM105.238 44.1775C105.464 44.7791 105.818 45.2282 106.297 45.5249C106.785 45.8112 107.413 45.9057 108.182 45.8083C108.552 45.7613 108.961 45.6484 109.409 45.4693C109.866 45.2891 110.274 44.9834 110.634 44.5521C110.56 45.4552 110.235 46.1596 109.659 46.6653C109.093 47.1699 108.338 47.482 107.393 47.6017C106.032 47.7742 104.929 47.5329 104.084 46.878C103.239 46.223 102.731 45.2242 102.561 43.8816C102.449 42.9927 102.513 42.199 102.753 41.5006C103.003 40.8009 103.412 40.2411 103.98 39.821C104.546 39.3917 105.237 39.1255 106.052 39.0222C107.117 38.8873 108.069 39.1288 108.91 39.7467C109.758 40.3542 110.303 41.607 110.543 43.5052L105.238 44.1775ZM106.249 40.6906C105.851 40.7411 105.541 40.9263 105.318 41.2462C105.104 41.5649 104.993 41.9882 104.985 42.5161L107.915 42.1447C107.788 41.587 107.569 41.196 107.259 40.972C106.956 40.7375 106.62 40.6437 106.249 40.6906ZM24.498 72.1519C24.4604 73.1915 24.1631 74.0007 23.6061 74.5793C23.0503 75.1671 22.2724 75.5245 21.2724 75.6512C20.4205 75.7591 19.6534 75.6823 18.9711 75.4207C18.2888 75.159 17.7313 74.7311 17.2984 74.1368C16.8656 73.5425 16.5941 72.8101 16.4838 71.9397C16.3711 71.0508 16.4537 70.2548 16.7315 69.5516C17.0186 68.8473 17.4598 68.2834 18.0553 67.8598C18.6496 67.427 19.3495 67.1595 20.1551 67.0575C21.007 66.9495 21.7781 67.0587 22.4687 67.3852C23.158 67.7024 23.6539 68.2746 23.9563 69.1018L22.0961 69.902C21.9622 69.4392 21.7423 69.1142 21.4363 68.9272C21.1385 68.7298 20.809 68.6539 20.4479 68.6997C19.9108 68.7677 19.5038 69.0451 19.2268 69.5318C18.9486 70.0092 18.8582 70.6322 18.9556 71.4007C19.0706 72.3081 19.3947 72.9726 19.928 73.3943C20.4612 73.8159 21.1074 73.9786 21.8667 73.8824C22.9038 73.751 23.7809 73.1742 24.498 72.1519ZM24.8996 70.8168C24.7928 69.9742 24.865 69.2077 25.1162 68.5173C25.3755 67.8165 25.8017 67.2451 26.3949 66.803C26.988 66.3609 27.7151 66.0853 28.5762 65.9762C29.4466 65.8659 30.2241 65.9508 30.9088 66.231C31.6027 66.5099 32.162 66.9518 32.5867 67.5565C33.0207 68.1601 33.2917 68.8878 33.3996 69.7397C33.5064 70.5822 33.4301 71.354 33.1709 72.0548C32.9197 72.7452 32.4975 73.3114 31.9044 73.7535C31.3112 74.1956 30.5841 74.4712 29.723 74.5803C28.8526 74.6906 28.0705 74.6062 27.3766 74.3273C26.6919 74.0471 26.1326 73.6053 25.6986 73.0017C25.2739 72.397 25.0076 71.6687 24.8996 70.8168ZM27.3996 70.5C27.4935 71.2407 27.7069 71.8487 28.04 72.324C28.3731 72.7992 28.8544 72.9969 29.484 72.9171C30.1137 72.8373 30.5305 72.5258 30.7344 71.9825C30.9384 71.4392 30.9935 70.7972 30.8996 70.0565C30.8057 69.3157 30.5923 68.7077 30.2592 68.2325C29.9262 67.7573 29.4448 67.5595 28.8152 67.6393C28.1856 67.7191 27.7688 68.0307 27.5648 68.574C27.3608 69.1172 27.3057 69.7593 27.3996 70.5ZM42.8588 64.1662C43.2384 64.1181 43.6333 64.1528 44.0433 64.2702C44.4533 64.3875 44.8207 64.6514 45.1455 65.0619C45.4785 65.4618 45.693 66.0415 45.7893 66.8007L46.488 72.3146L43.988 72.6314L43.2752 67.0064C43.152 66.0342 42.8357 65.5804 42.3265 65.6449C42.0209 65.6836 41.7665 65.8664 41.5634 66.1932C41.3602 66.52 41.2561 66.9236 41.2511 67.404L41.9463 72.8902L39.4463 73.207L38.7335 67.582C38.6103 66.6097 38.2941 66.1559 37.7848 66.2204C37.4792 66.2592 37.2249 66.4419 37.0217 66.7687C36.8185 67.0955 36.7144 67.4991 36.7094 67.9796L37.4046 73.4657L34.9046 73.7825L33.8486 65.4492L36.3486 65.1324L36.5123 66.424C36.6389 66.0128 36.8513 65.6472 37.1495 65.3272C37.4464 64.9979 37.8495 64.801 38.3588 64.7365C38.8032 64.6802 39.2583 64.7448 39.724 64.9304C40.1885 65.1067 40.5636 65.4685 40.8494 66.0155C40.9607 65.484 41.1939 65.0593 41.5487 64.7415C41.9129 64.4225 42.3495 64.2308 42.8588 64.1662ZM51.6726 63.0493C52.3763 62.9601 53.0219 63.043 53.6092 63.2978C54.1966 63.5527 54.683 63.9755 55.0683 64.5665C55.4537 65.1574 55.7026 65.8973 55.8153 66.7862C55.9279 67.6751 55.8725 68.4629 55.6491 69.1498C55.4245 69.8274 55.0648 70.3669 54.57 70.7683C54.0857 71.1778 53.5102 71.4248 52.8435 71.5092C52.2231 71.5879 51.6731 71.5164 51.1935 71.295C50.7242 71.0816 50.3898 70.7806 50.19 70.392L50.8218 75.3781L48.3218 75.6949L46.8152 63.806L49.3152 63.4892L49.3944 64.1142C49.6671 63.8162 50.0042 63.5806 50.4056 63.4075C50.8151 63.2238 51.2374 63.1045 51.6726 63.0493ZM52.0008 70.2048C52.4453 70.1485 52.7805 69.8614 53.0065 69.3436C53.2406 68.8153 53.3014 68.1067 53.1887 67.2178C53.0796 66.3567 52.8429 65.6764 52.4785 65.1769C52.1234 64.6762 51.6681 64.4611 51.1125 64.5315C50.8625 64.5632 50.5912 64.6493 50.2985 64.7899C50.0152 64.9293 49.7666 65.1207 49.5528 65.3642L49.9928 68.8364C50.1904 69.2818 50.4839 69.6303 50.8733 69.882C51.2639 70.143 51.6397 70.2506 52.0008 70.2048ZM60.8347 61.8883C61.1032 61.8542 61.3995 61.8543 61.7237 61.8885C62.0572 61.9215 62.338 61.9847 62.5663 62.0781L62.39 63.5822C62.2614 63.5326 62.1027 63.5057 61.914 63.5014C61.7241 63.4878 61.5551 63.4904 61.407 63.5092C61.0736 63.5514 60.7428 63.6874 60.4144 63.9172C60.086 64.147 59.8157 64.4635 59.6033 64.8667C59.391 65.2699 59.2807 65.7355 59.2723 66.2634L59.825 70.6245L57.3249 70.9413L56.2689 62.608L58.7689 62.2912L58.8481 62.9162C59.0607 62.6634 59.3526 62.443 59.7239 62.2548C60.094 62.0574 60.4643 61.9352 60.8347 61.8883ZM65.5995 66.3365C65.8263 66.9381 66.1796 67.3873 66.6593 67.684C67.1472 67.9703 67.7754 68.0647 68.5439 67.9673C68.9143 67.9204 69.3233 67.8074 69.771 67.6284C70.228 67.4481 70.6361 67.1424 70.9954 66.7111C70.9217 67.6142 70.597 68.3187 70.0214 68.8244C69.455 69.3289 68.6996 69.641 67.7551 69.7607C66.394 69.9332 65.2909 69.692 64.4459 69.037C63.6008 68.382 63.0932 67.3833 62.9231 66.0407C62.8105 65.1518 62.8745 64.3581 63.1153 63.6596C63.3653 62.96 63.7742 62.4001 64.3419 61.9801C64.9084 61.5508 65.5991 61.2845 66.4139 61.1813C67.4787 61.0463 68.4313 61.2878 69.2716 61.9057C70.1201 62.5132 70.6646 63.766 70.9051 65.6642L65.5995 66.3365ZM66.6112 62.8497C66.213 62.9001 65.9025 63.0853 65.6796 63.4052C65.466 63.7239 65.355 64.1472 65.3467 64.6751L68.2772 64.3038C68.1501 63.746 67.9312 63.3551 67.6206 63.131C67.318 62.8965 66.9816 62.8028 66.6112 62.8497ZM76.3774 59.9186C77.1089 59.8259 77.7754 59.9626 78.3768 60.3285C78.9875 60.6933 79.3627 61.4266 79.5023 62.5285L80.2011 68.0424L77.7011 68.3592L76.9883 62.7342C76.9214 62.2064 76.7581 61.8461 76.4985 61.6532C76.2388 61.4603 75.9516 61.3838 75.6368 61.4237C75.2664 61.4706 74.9426 61.6622 74.6653 61.9984C74.3869 62.3253 74.2087 62.7383 74.1309 63.2374L74.8261 68.7235L72.3261 69.0403L71.27 60.707L73.77 60.3902L73.9337 61.6818C74.0535 61.2904 74.322 60.9223 74.7393 60.5778C75.1647 60.2228 75.7108 60.0031 76.3774 59.9186ZM88.1246 54.7327L89.6593 66.8438L87.1593 67.1606L86.978 65.7301C86.8815 66.1562 86.6281 66.5317 86.2176 66.8566C85.8177 67.1895 85.3075 67.3953 84.6871 67.4739C84.0204 67.5584 83.3969 67.4634 82.8164 67.1888C82.2464 66.9224 81.7681 66.4891 81.3816 65.8889C80.9939 65.2795 80.7437 64.5303 80.6311 63.6414C80.5185 62.7525 80.575 61.9739 80.8008 61.3055C81.0266 60.6372 81.3921 60.1064 81.8973 59.7131C82.4025 59.3198 83.007 59.0785 83.7107 58.9893C84.1459 58.9342 84.58 58.945 85.0131 59.0219C85.4543 59.0883 85.8441 59.2317 86.1825 59.4523L85.6246 55.0495L88.1246 54.7327ZM86.3409 60.7023C86.0732 60.5198 85.7801 60.397 85.4616 60.3339C85.1524 60.2696 84.8728 60.2533 84.6228 60.2849C84.0673 60.3554 83.6754 60.6778 83.4471 61.2524C83.2281 61.8258 83.1732 62.5431 83.2823 63.4042C83.395 64.2931 83.6259 64.9647 83.9751 65.4191C84.3324 65.863 84.7333 66.0568 85.1778 66.0005C85.5481 65.9536 85.8853 65.7556 86.1891 65.4067C86.5034 65.0658 86.7007 64.6551 86.7809 64.1745L86.3409 60.7023ZM92.7806 62.8921C93.0074 63.4936 93.3606 63.9428 93.8404 64.2395C94.3283 64.5258 94.9564 64.6202 95.725 64.5228C96.0953 64.4759 96.5044 64.3629 96.9521 64.1839C97.4091 64.0037 97.8172 63.6979 98.1765 63.2667C98.1028 64.1698 97.7781 64.8742 97.2024 65.3799C96.636 65.8844 95.8806 66.1965 94.9362 66.3162C93.5751 66.4887 92.472 66.2475 91.6269 65.5925C90.7819 64.9376 90.2743 63.9388 90.1042 62.5962C89.9915 61.7073 90.0556 60.9136 90.2963 60.2151C90.5464 59.5155 90.9552 58.9556 91.5229 58.5356C92.0894 58.1063 92.7801 57.84 93.5949 57.7368C94.6598 57.6018 95.6123 57.8433 96.4527 58.4612C97.3011 59.0687 97.8456 60.3216 98.0862 62.2197L92.7806 62.8921ZM93.7923 59.4052C93.3941 59.4557 93.0836 59.6408 92.8607 59.9607C92.6471 60.2794 92.5361 60.7028 92.5277 61.2307L95.4583 60.8593C95.3311 60.3015 95.1123 59.9106 94.8016 59.6865C94.4991 59.452 94.1626 59.3583 93.7923 59.4052ZM105.626 53.7707C105.298 54.0005 105.004 54.2823 104.746 54.6162C104.487 54.95 104.296 55.2988 104.173 55.6625C103.7 54.9791 103.077 54.5125 102.302 54.2626C102.971 53.6792 103.463 53.0335 103.778 52.3256C104.233 53.0206 104.849 53.5023 105.626 53.7707ZM105.546 56.3635L106.602 64.6968L104.102 65.0136L103.046 56.6803L105.546 56.3635ZM23.36 83.7732C24.0637 83.684 24.7092 83.7668 25.2966 84.0217C25.884 84.2765 26.3703 84.6994 26.7557 85.2903C27.141 85.8812 27.39 86.6211 27.5027 87.51C27.6153 88.3989 27.5599 89.1868 27.3365 89.8736C27.1119 90.5513 26.7522 91.0908 26.2574 91.4921C25.773 91.9016 25.1975 92.1486 24.5309 92.2331C23.9105 92.3117 23.3605 92.2403 22.8808 92.0188C22.4116 91.8054 22.0771 91.5044 21.8773 91.1158L22.5092 96.1019L20.0092 96.4187L18.5026 84.5298L21.0026 84.213L21.0818 84.838C21.3545 84.54 21.6916 84.3045 22.093 84.1313C22.5025 83.9477 22.9248 83.8283 23.36 83.7732ZM23.6882 90.9287C24.1326 90.8724 24.4679 90.5853 24.6939 90.0674C24.928 89.5391 24.9887 88.8305 24.8761 87.9416C24.767 87.0805 24.5302 86.4002 24.1659 85.9007C23.8108 85.4001 23.3555 85.1849 22.7999 85.2553C22.5499 85.287 22.2786 85.3731 21.9859 85.5137C21.7025 85.6531 21.454 85.8446 21.2402 86.088L21.6802 89.5603C21.8778 90.0056 22.1713 90.3542 22.5607 90.6059C22.9512 90.8668 23.3271 90.9744 23.6882 90.9287ZM30.7493 87.8888C30.9761 88.4904 31.3294 88.9396 31.8092 89.2363C32.297 89.5226 32.9252 89.617 33.6937 89.5196C34.0641 89.4727 34.4731 89.3597 34.9208 89.1807C35.3778 89.0004 35.786 88.6947 36.1453 88.2634C36.0715 89.1665 35.7469 89.871 35.1712 90.3767C34.6048 90.8812 33.8494 91.1933 32.9049 91.313C31.5438 91.4855 30.4407 91.2443 29.5957 90.5893C28.7506 89.9343 28.2431 88.9356 28.0729 87.593C27.9603 86.7041 28.0243 85.9104 28.2651 85.2119C28.5151 84.5123 28.924 83.9524 29.4917 83.5324C30.0582 83.1031 30.7489 82.8368 31.5637 82.7336C32.6285 82.5986 33.5811 82.8401 34.4214 83.458C35.2699 84.0655 35.8144 85.3183 36.0549 87.2165L30.7493 87.8888ZM31.761 84.402C31.3629 84.4524 31.0523 84.6376 30.8295 84.9575C30.6158 85.2762 30.5048 85.6995 30.4965 86.2274L33.427 85.8561C33.2999 85.2983 33.081 84.9074 32.7704 84.6833C32.4678 84.4488 32.1314 84.3551 31.761 84.402ZM41.5273 81.4709C42.2587 81.3782 42.9252 81.5149 43.5267 81.8808C44.1374 82.2456 44.5125 82.9789 44.6522 84.0808L45.3509 89.5947L42.8509 89.9115L42.1381 84.2865C42.0712 83.7587 41.9079 83.3984 41.6483 83.2055C41.3886 83.0126 41.1014 82.9361 40.7866 82.976C40.4162 83.0229 40.0924 83.2145 39.8151 83.5507C39.5367 83.8776 39.3585 84.2906 39.2807 84.7897L39.9759 90.2758L37.4759 90.5926L36.4198 82.2593L38.9199 81.9425L39.0835 83.2341C39.2033 82.8427 39.4718 82.4746 39.8891 82.1301C40.3145 81.7751 40.8606 81.5554 41.5273 81.4709ZM50.1345 87.3656C50.4493 87.3257 50.6952 87.224 50.872 87.0605C51.0593 86.905 51.14 86.7255 51.1142 86.5218C51.079 86.244 50.887 86.0284 50.5383 85.875C50.1884 85.7124 49.7413 85.5621 49.197 85.4241C48.4593 85.2447 47.9039 85.094 47.5309 84.9719C47.1568 84.8406 46.8161 84.6392 46.5088 84.3676C46.2004 84.0869 46.0157 83.7057 45.9547 83.2242C45.862 82.4928 46.1012 81.8933 46.6723 81.4258C47.2515 80.9478 48.0364 80.6461 49.0272 80.5205C49.9253 80.4067 50.7294 80.4788 51.4395 80.737C52.1484 80.9858 52.6817 81.4451 53.0394 82.1148L51.0265 82.9343C50.8789 82.5861 50.6528 82.3608 50.3481 82.2582C50.0435 82.1557 49.7245 82.1256 49.3912 82.1678C49.0949 82.2054 48.8559 82.2874 48.6744 82.4139C48.501 82.53 48.4265 82.6852 48.4512 82.8796C48.4723 83.0463 48.5588 83.1718 48.7106 83.256C48.8716 83.3391 49.1322 83.4284 49.4924 83.5239C49.8329 83.6124 50.0466 83.6653 50.1335 83.6825C50.9291 83.8733 51.5395 84.05 51.9646 84.2125C52.3979 84.3646 52.76 84.5868 53.0511 84.8792C53.3514 85.1704 53.5327 85.5614 53.5948 86.0522C53.6969 86.8577 53.444 87.5342 52.836 88.0817C52.228 88.6291 51.3823 88.9715 50.299 89.1088C49.3916 89.2238 48.5475 89.1332 47.7667 88.837C46.9871 88.55 46.402 87.9421 46.0115 87.0132L48.1721 86.2454C48.3465 86.6561 48.6109 86.9613 48.9655 87.161C49.3282 87.3502 49.7178 87.4184 50.1345 87.3656ZM56.8329 77.09C56.5046 77.3197 56.211 77.6016 55.9522 77.9354C55.6935 78.2692 55.5025 78.618 55.3792 78.9817C54.9069 78.2984 54.2833 77.8317 53.5084 77.5818C54.1777 76.9984 54.6698 76.3527 54.9846 75.6449C55.4396 76.3399 56.0557 76.8216 56.8329 77.09ZM56.7523 79.6827L57.8083 88.016L55.3083 88.3329L54.2522 79.9995L56.7523 79.6827ZM61.3348 84.0129C61.5616 84.6145 61.9149 85.0637 62.3946 85.3604C62.8825 85.6467 63.5107 85.7411 64.2792 85.6437C64.6496 85.5968 65.0586 85.4838 65.5063 85.3047C65.9633 85.1245 66.3714 84.8188 66.7307 84.3875C66.657 85.2906 66.3323 85.995 65.7567 86.5008C65.1903 87.0053 64.4348 87.3174 63.4904 87.4371C62.1293 87.6096 61.0262 87.3684 60.1812 86.7134C59.3361 86.0584 58.8285 85.0597 58.6584 83.7171C58.5457 82.8282 58.6098 82.0345 58.8506 81.336C59.1006 80.6364 59.5095 80.0765 60.0772 79.6565C60.6437 79.2272 61.3343 78.9609 62.1492 78.8577C63.214 78.7227 64.1666 78.9642 65.0069 79.5821C65.8554 80.1896 66.3998 81.4424 66.6404 83.3406L61.3348 84.0129ZM62.3465 80.5261C61.9483 80.5765 61.6378 80.7617 61.4149 81.0816C61.2013 81.4003 61.0903 81.8236 61.0819 82.3515L64.0125 81.9802C63.8854 81.4224 63.6665 81.0315 63.3559 80.8074C63.0533 80.5729 62.7169 80.4791 62.3465 80.5261ZM71.5711 77.6637C71.8396 77.6296 72.1359 77.6297 72.4601 77.6639C72.7936 77.6969 73.0744 77.7601 73.3027 77.8535L73.1264 79.3576C72.9978 79.308 72.8391 79.2811 72.6504 79.2768C72.4605 79.2632 72.2915 79.2658 72.1434 79.2846C71.81 79.3268 71.4792 79.4628 71.1508 79.6926C70.8224 79.9224 70.5521 80.2389 70.3397 80.6421C70.1274 81.0453 70.0171 81.5109 70.0087 82.0388L70.5614 86.3999L68.0614 86.7167L67.0053 78.3834L69.5053 78.0666L69.5845 78.6916C69.7971 78.4388 70.089 78.2184 70.4603 78.0302C70.8304 77.8328 71.2007 77.7106 71.5711 77.6637ZM76.839 74.5547C76.5106 74.7845 76.217 75.0663 75.9583 75.4002C75.6995 75.734 75.5085 76.0828 75.3853 76.4465C74.9129 75.7631 74.2893 75.2965 73.5144 75.0466C74.1837 74.4632 74.6758 73.8175 74.9906 73.1096C75.4456 73.8046 76.0617 74.2863 76.839 74.5547ZM76.7583 77.1475L77.8143 85.4808L75.3143 85.7976L74.2583 77.4643L76.7583 77.1475ZM90.3025 71.5926L91.8372 83.7038L89.3372 84.0206L89.1559 82.59C89.0594 83.0162 88.806 83.3917 88.3955 83.7166C87.9956 84.0495 87.4854 84.2553 86.865 84.3339C86.1983 84.4184 85.5748 84.3233 84.9943 84.0488C84.4243 83.7823 83.946 83.349 83.5595 82.7489C83.1718 82.1394 82.9217 81.3903 82.809 80.5014C82.6964 79.6125 82.7529 78.8339 82.9787 78.1655C83.2045 77.4972 83.57 76.9663 84.0752 76.573C84.5804 76.1797 85.1849 75.9385 85.8886 75.8493C86.3238 75.7942 86.7579 75.805 87.191 75.8818C87.6322 75.9482 88.022 76.0917 88.3604 76.3122L87.8025 71.9094L90.3025 71.5926ZM88.5188 77.5622C88.2511 77.3798 87.958 77.257 87.6395 77.1938C87.3303 77.1295 87.0507 77.1132 86.8007 77.1449C86.2452 77.2153 85.8533 77.5378 85.625 78.1124C85.406 78.6858 85.3511 79.4031 85.4602 80.2642C85.5729 81.1531 85.8038 81.8247 86.153 82.2791C86.5103 82.723 86.9112 82.9168 87.3557 82.8605C87.726 82.8136 88.0632 82.6156 88.367 82.2666C88.6813 81.9257 88.8786 81.515 88.9588 81.0345L88.5188 77.5622ZM94.9585 79.752C95.1853 80.3536 95.5385 80.8028 96.0183 81.0995C96.5062 81.3857 97.1343 81.4802 97.9029 81.3828C98.2732 81.3359 98.6823 81.2229 99.13 81.0438C99.587 80.8636 99.9951 80.5579 100.354 80.1266C100.281 81.0297 99.956 81.7341 99.3803 82.2398C98.8139 82.7444 98.0585 83.0565 97.1141 83.1762C95.753 83.3487 94.6499 83.1074 93.8048 82.4525C92.9598 81.7975 92.4522 80.7987 92.2821 79.4561C92.1694 78.5673 92.2335 77.7736 92.4742 77.0751C92.7243 76.3754 93.1331 75.8156 93.7008 75.3956C94.2674 74.9663 94.958 74.7 95.7728 74.5967C96.8377 74.4618 97.7902 74.7033 98.6306 75.3212C99.479 75.9287 100.024 77.1815 100.264 79.0797L94.9585 79.752ZM95.9702 76.2652C95.572 76.3156 95.2615 76.5008 95.0386 76.8207C94.825 77.1394 94.714 77.5627 94.7056 78.0906L97.6362 77.7193C97.509 77.1615 97.2902 76.7706 96.9795 76.5465C96.677 76.312 96.3405 76.2182 95.9702 76.2652ZM103.921 80.0557C103.982 80.5372 104.097 80.9225 104.265 81.2116C104.444 81.5088 104.694 81.7359 105.015 81.8928C104.499 82.0522 104.074 82.1531 103.741 82.1953C103.074 82.2798 102.544 82.1777 102.149 81.8889C101.755 81.6002 101.51 81.0762 101.414 80.3169L100.15 70.3447L102.65 70.0279L103.921 80.0557ZM112.592 74.3L112.996 77.4944C113.115 78.4296 113.301 79.1586 113.556 79.6814C113.811 80.2135 114.193 80.5885 114.7 80.8065C114.406 80.8625 114.195 80.8988 114.065 80.9152C112.917 81.0607 112.067 80.8532 111.516 80.2927C110.975 79.731 110.621 78.7927 110.454 77.4779L110.092 74.6168L109.05 74.7488L108.839 73.0821L109.88 72.9501L109.585 70.6168L112.085 70.3L112.38 72.6333L113.964 72.4326L114.175 74.0993L112.592 74.3ZM122.813 71.3112L123.869 79.6445L121.369 79.9613L121.206 78.6697C121.086 79.0612 120.813 79.4298 120.386 79.7755C119.97 80.1293 119.429 80.3484 118.762 80.4329C118.031 80.5256 117.359 80.3895 116.749 80.0247C116.147 79.6588 115.777 78.9249 115.637 77.823L114.938 72.3091L117.438 71.9923L118.151 77.6173C118.218 78.1451 118.381 78.5054 118.641 78.6983C118.901 78.8912 119.188 78.9677 119.503 78.9278C119.873 78.8809 120.197 78.6893 120.474 78.3531C120.753 78.0262 120.931 77.6132 121.009 77.1141L120.313 71.628L122.813 71.3112ZM124.314 75.3547C124.207 74.5121 124.279 73.7456 124.53 73.0552C124.789 72.3544 125.216 71.7829 125.809 71.3408C126.402 70.8988 127.129 70.6232 127.99 70.514C128.861 70.4037 129.638 70.4887 130.323 70.7688C131.017 71.0478 131.576 71.4896 132.001 72.0944C132.435 72.6979 132.706 73.4257 132.814 74.2775C132.92 75.1201 132.844 75.8918 132.585 76.5926C132.334 77.283 131.911 77.8493 131.318 78.2913C130.725 78.7334 129.998 79.009 129.137 79.1181C128.267 79.2284 127.484 79.1441 126.791 78.8651C126.106 78.585 125.547 78.1431 125.113 77.5395C124.688 76.9348 124.421 76.2065 124.314 75.3547ZM126.814 75.0379C126.907 75.7786 127.121 76.3866 127.454 76.8618C127.787 77.337 128.268 77.5348 128.898 77.455C129.528 77.3752 129.944 77.0637 130.148 76.5204C130.352 75.9771 130.407 75.3351 130.314 74.5943C130.22 73.8536 130.006 73.2456 129.673 72.7704C129.34 72.2951 128.859 72.0974 128.229 72.1772C127.6 72.257 127.183 72.5685 126.979 73.1118C126.775 73.6551 126.72 74.2971 126.814 75.0379ZM28.7093 100.372L29.7653 108.706L27.2653 109.023L27.084 107.592C26.9875 108.018 26.734 108.394 26.3236 108.718C25.9236 109.051 25.4134 109.257 24.7931 109.336C24.1264 109.42 23.5028 109.325 22.9224 109.051C22.3524 108.784 21.8741 108.351 21.4876 107.751C21.0999 107.141 20.8497 106.392 20.7371 105.503C20.6244 104.614 20.681 103.836 20.9068 103.167C21.1325 102.499 21.498 101.968 22.0033 101.575C22.5085 101.182 23.113 100.94 23.8167 100.851C24.2518 100.796 24.686 100.807 25.1191 100.884C25.5603 100.95 25.9501 101.094 26.2885 101.314L26.2093 100.689L28.7093 100.372ZM26.4469 102.564C26.1791 102.382 25.886 102.259 25.5676 102.196C25.2584 102.131 24.9788 102.115 24.7288 102.147C24.1732 102.217 23.7813 102.54 23.5531 103.114C23.3341 103.688 23.2792 104.405 23.3883 105.266C23.5009 106.155 23.7319 106.827 24.0811 107.281C24.4384 107.725 24.8393 107.919 25.2837 107.862C25.6541 107.816 25.9912 107.618 26.2951 107.269C26.6094 106.928 26.8067 106.517 26.8869 106.036L26.4469 102.564ZM35.2009 99.4086C35.9324 99.3159 36.5989 99.4525 37.2003 99.8185C37.811 100.183 38.1862 100.917 38.3258 102.018L39.0245 107.532L36.5245 107.849L35.8117 102.224C35.7448 101.696 35.5816 101.336 35.3219 101.143C35.0623 100.95 34.7751 100.874 34.4602 100.914C34.0899 100.961 33.7661 101.152 33.4888 101.488C33.2103 101.815 33.0322 102.228 32.9543 102.727L33.6495 108.213L31.1495 108.53L30.0935 100.197L32.5935 99.8801L32.7572 101.172C32.8769 100.78 33.1455 100.412 33.5628 100.068C33.9882 99.7128 34.5342 99.4931 35.2009 99.4086ZM42.3686 96.0589C42.0402 96.2887 41.7466 96.5705 41.4878 96.9043C41.2291 97.2382 41.0381 97.587 40.9148 97.9507C40.4425 97.2673 39.8189 96.8007 39.044 96.5508C39.7133 95.9673 40.2054 95.3217 40.5202 94.6138C40.9752 95.3088 41.5913 95.7905 42.3686 96.0589ZM42.2879 98.6516L43.3439 106.985L40.8439 107.302L39.7879 98.9684L42.2879 98.6516ZM53.0876 97.1419C53.4672 97.0938 53.862 97.1285 54.272 97.2458C54.682 97.3632 55.0495 97.6271 55.3743 98.0375C55.7072 98.4375 55.9218 99.0172 56.018 99.7764L56.7168 105.29L54.2168 105.607L53.5039 99.9821C53.3807 99.0099 53.0645 98.556 52.5552 98.6206C52.2497 98.6593 51.9953 98.8421 51.7921 99.1689C51.5889 99.4957 51.4848 99.8993 51.4799 100.38L52.1751 105.866L49.6751 106.183L48.9623 100.558C48.839 99.5854 48.5228 99.1316 48.0136 99.1961C47.708 99.2348 47.4536 99.4176 47.2504 99.7444C47.0472 100.071 46.9432 100.475 46.9382 100.955L47.6334 106.441L45.1334 106.758L44.0774 98.4249L46.5774 98.108L46.7411 99.3997C46.8677 98.9885 47.0801 98.6229 47.3782 98.3029C47.6752 97.9736 48.0783 97.7767 48.5876 97.7122C49.032 97.6559 49.4871 97.7205 49.9528 97.9061C50.4173 98.0824 50.7924 98.4441 51.0781 98.9912C51.1895 98.4597 51.4226 98.035 51.7775 97.7172C52.1416 97.3982 52.5783 97.2065 53.0876 97.1419ZM65.1134 95.7591L66.1695 104.092L63.6695 104.409L63.4882 102.979C63.3917 103.405 63.1382 103.78 62.7278 104.105C62.3278 104.438 61.8176 104.644 61.1972 104.723C60.5306 104.807 59.907 104.712 59.3266 104.437C58.7565 104.171 58.2783 103.738 57.8917 103.138C57.5041 102.528 57.2539 101.779 57.1412 100.89C57.0286 100.001 57.0852 99.2225 57.3109 98.5542C57.5367 97.8858 57.9022 97.355 58.4074 96.9617C58.9127 96.5684 59.5171 96.3272 60.2208 96.238C60.656 96.1828 61.0902 96.1937 61.5232 96.2705C61.9644 96.3369 62.3542 96.4804 62.6926 96.7009L62.6134 96.0759L65.1134 95.7591ZM62.851 97.9509C62.5833 97.7684 62.2902 97.6456 61.9718 97.5825C61.6625 97.5182 61.3829 97.5019 61.1329 97.5336C60.5774 97.604 60.1855 97.9265 59.9572 98.5011C59.7383 99.0745 59.6833 99.7917 59.7925 100.653C59.9051 101.542 60.136 102.213 60.4853 102.668C60.8426 103.112 61.2435 103.305 61.6879 103.249C62.0583 103.202 62.3954 103.004 62.6993 102.655C63.0136 102.314 63.2108 101.904 63.2911 101.423L62.851 97.9509ZM69.7897 101.517C69.8507 101.998 69.9654 102.384 70.1337 102.673C70.3125 102.97 70.5624 103.197 70.8833 103.354C70.3673 103.513 69.9426 103.614 69.6093 103.657C68.9426 103.741 68.4122 103.639 68.0181 103.35C67.624 103.061 67.3789 102.537 67.2827 101.778L66.0189 91.8059L68.5189 91.4891L69.7897 101.517ZM73.7531 99.5752C73.9799 100.177 74.3331 100.626 74.8129 100.923C75.3008 101.209 75.9289 101.303 76.6975 101.206C77.0678 101.159 77.4769 101.046 77.9246 100.867C78.3816 100.687 78.7897 100.381 79.149 99.9498C79.0753 100.853 78.7506 101.557 78.1749 102.063C77.6085 102.568 76.8531 102.88 75.9087 102.999C74.5476 103.172 73.4445 102.931 72.5994 102.276C71.7544 101.621 71.2468 100.622 71.0767 99.2793C70.964 98.3904 71.0281 97.5968 71.2688 96.8983C71.5189 96.1986 71.9277 95.6388 72.4954 95.2187C73.0619 94.7895 73.7526 94.5232 74.5674 94.4199C75.6323 94.285 76.5848 94.5265 77.4252 95.1444C78.2736 95.7519 78.8181 97.0047 79.0587 98.9029L73.7531 99.5752ZM74.7648 96.0884C74.3666 96.1388 74.0561 96.324 73.8332 96.6439C73.6196 96.9626 73.5086 97.3859 73.5002 97.9138L76.4308 97.5424C76.3036 96.9847 76.0848 96.5937 75.7741 96.3697C75.4716 96.1352 75.1351 96.0414 74.7648 96.0884ZM91.657 92.3954L92.7131 100.729L90.213 101.046L90.0318 99.615C89.9352 100.041 89.6818 100.417 89.2714 100.742C88.8714 101.074 88.3612 101.28 87.7408 101.359C87.0741 101.443 86.4506 101.348 85.8701 101.074C85.3001 100.807 84.8218 100.374 84.4353 99.7738C84.0476 99.1644 83.7975 98.4152 83.6848 97.5263C83.5722 96.6375 83.6287 95.8588 83.8545 95.1905C84.0803 94.5221 84.4458 93.9913 84.951 93.598C85.4562 93.2047 86.0607 92.9635 86.7644 92.8743C87.1996 92.8191 87.6337 92.83 88.0668 92.9068C88.508 92.9732 88.8978 93.1167 89.2362 93.3372L89.157 92.7122L91.657 92.3954ZM89.3946 94.5872C89.1269 94.4047 88.8338 94.2819 88.5153 94.2188C88.2061 94.1545 87.9265 94.1382 87.6765 94.1699C87.121 94.2403 86.7291 94.5628 86.5008 95.1374C86.2818 95.7108 86.2269 96.428 86.336 97.2892C86.4487 98.178 86.6796 98.8497 87.0288 99.304C87.3862 99.748 87.787 99.9418 88.2315 99.8855C88.6019 99.8385 88.939 99.6406 89.2428 99.2916C89.5571 98.9507 89.7544 98.54 89.8346 98.0594L89.3946 94.5872ZM102.051 90.937C102.431 90.8889 102.826 90.9236 103.236 91.041C103.646 91.1583 104.013 91.4222 104.338 91.8327C104.671 92.2326 104.886 92.8123 104.982 93.5715L105.681 99.0854L103.181 99.4022L102.468 93.7772C102.345 92.805 102.028 92.3512 101.519 92.4157C101.214 92.4544 100.959 92.6372 100.756 92.964C100.553 93.2908 100.449 93.6944 100.444 94.1749L101.139 99.661L98.639 99.9778L97.9261 94.3528C97.8029 93.3805 97.4867 92.9267 96.9774 92.9912C96.6719 93.03 96.4175 93.2127 96.2143 93.5395C96.0111 93.8663 95.907 94.27 95.9021 94.7504L96.5973 100.237L94.0973 100.553L93.0412 92.22L95.5412 91.9032L95.7049 93.1948C95.8316 92.7836 96.044 92.418 96.3421 92.098C96.6391 91.7687 97.0422 91.5718 97.5514 91.5073C97.9959 91.451 98.4509 91.5156 98.9166 91.7012C99.3812 91.8775 99.7563 92.2393 100.042 92.7863C100.153 92.2548 100.387 91.8301 100.741 91.5123C101.105 91.1933 101.542 91.0016 102.051 90.937ZM114.077 89.5542L115.133 97.8876L112.633 98.2044L112.452 96.7738C112.356 97.2 112.102 97.5755 111.692 97.9003C111.292 98.2333 110.781 98.439 110.161 98.5177C109.494 98.6021 108.871 98.5071 108.29 98.2326C107.72 97.9661 107.242 97.5328 106.856 96.9326C106.468 96.3232 106.218 95.5741 106.105 94.6852C105.992 93.7963 106.049 93.0176 106.275 92.3493C106.501 91.6809 106.866 91.1501 107.371 90.7568C107.877 90.3635 108.481 90.1223 109.185 90.0331C109.62 89.9779 110.054 89.9888 110.487 90.0656C110.928 90.132 111.318 90.2755 111.657 90.496L111.577 89.871L114.077 89.5542ZM111.815 91.746C111.547 91.5636 111.254 91.4408 110.936 91.3776C110.626 91.3133 110.347 91.297 110.097 91.3287C109.541 91.3991 109.149 91.7216 108.921 92.2962C108.702 92.8696 108.647 93.5869 108.756 94.448C108.869 95.3369 109.1 96.0085 109.449 96.4629C109.806 96.9068 110.207 97.1006 110.652 97.0443C111.022 96.9973 111.359 96.7994 111.663 96.4504C111.977 96.1095 112.175 95.6988 112.255 95.2182L111.815 91.746ZM120.569 88.5904C121.3 88.4977 121.967 88.6344 122.568 89.0003C123.179 89.3651 123.554 90.0984 123.694 91.2003L124.393 96.7142L121.893 97.031L121.18 91.406C121.113 90.8782 120.95 90.5179 120.69 90.325C120.43 90.1321 120.143 90.0556 119.828 90.0955C119.458 90.1424 119.134 90.334 118.857 90.6702C118.578 90.9971 118.4 91.4101 118.322 91.9092L119.018 97.3953L116.518 97.7121L115.462 89.3788L117.962 89.062L118.125 90.3536C118.245 89.9622 118.514 89.5941 118.931 89.2496C119.356 88.8946 119.902 88.6749 120.569 88.5904ZM128.062 89.4755L128.466 92.67C128.585 93.6051 128.771 94.3341 129.026 94.857C129.281 95.3891 129.663 95.7641 130.17 95.982C129.876 96.0381 129.665 96.0743 129.535 96.0908C128.387 96.2363 127.537 96.0287 126.986 95.4682C126.445 94.9065 126.091 93.9682 125.924 92.6534L125.562 89.7923L124.52 89.9243L124.309 88.2576L125.35 88.1256L125.055 85.7923L127.555 85.4755L127.85 87.8088L129.434 87.6082L129.645 89.2749L128.062 89.4755ZM132.781 92.095C133.008 92.6966 133.361 93.1457 133.841 93.4424C134.329 93.7287 134.957 93.8231 135.725 93.7257C136.096 93.6788 136.505 93.5658 136.953 93.3868C137.409 93.2066 137.818 92.9008 138.177 92.4696C138.103 93.3727 137.779 94.0771 137.203 94.5828C136.636 95.0873 135.881 95.3995 134.937 95.5191C133.575 95.6916 132.472 95.4504 131.627 94.7954C130.782 94.1405 130.275 93.1417 130.105 91.7991C129.992 90.9102 130.056 90.1165 130.297 89.418C130.547 88.7184 130.956 88.1585 131.523 87.7385C132.09 87.3092 132.781 87.0429 133.595 86.9397C134.66 86.8047 135.613 87.0462 136.453 87.6642C137.302 88.2716 137.846 89.5245 138.087 91.4226L132.781 92.095ZM133.793 88.6081C133.395 88.6586 133.084 88.8437 132.861 89.1636C132.647 89.4824 132.537 89.9057 132.528 90.4336L135.459 90.0622C135.332 89.5044 135.113 89.1135 134.802 88.8894C134.5 88.655 134.163 88.5612 133.793 88.6081ZM30.3677 113.46L31.9025 125.571L29.4025 125.888L29.2212 124.457C29.1247 124.883 28.8712 125.259 28.4608 125.584C28.0608 125.917 27.5507 126.122 26.9303 126.201C26.2636 126.285 25.64 126.19 25.0596 125.916C24.4896 125.649 24.0113 125.216 23.6248 124.616C23.2371 124.006 22.9869 123.257 22.8743 122.368C22.7616 121.48 22.8182 120.701 23.044 120.033C23.2697 119.364 23.6352 118.833 24.1405 118.44C24.6457 118.047 25.2502 117.806 25.9539 117.716C26.3891 117.661 26.8232 117.672 27.2563 117.749C27.6975 117.815 28.0873 117.959 28.4257 118.179L27.8677 113.776L30.3677 113.46ZM28.5841 119.429C28.3164 119.247 28.0233 119.124 27.7048 119.061C27.3956 118.997 27.116 118.98 26.866 119.012C26.3104 119.082 25.9185 119.405 25.6903 119.979C25.4713 120.553 25.4164 121.27 25.5255 122.131C25.6381 123.02 25.8691 123.692 26.2183 124.146C26.5756 124.59 26.9765 124.784 27.4209 124.728C27.7913 124.681 28.1284 124.483 28.4323 124.134C28.7466 123.793 28.9439 123.382 29.0241 122.902L28.5841 119.429ZM35.0238 121.619C35.2505 122.221 35.6038 122.67 36.0836 122.967C36.5714 123.253 37.1996 123.347 37.9681 123.25C38.3385 123.203 38.7476 123.09 39.1953 122.911C39.6522 122.731 40.0604 122.425 40.4197 121.994C40.346 122.897 40.0213 123.601 39.4456 124.107C38.8792 124.611 38.1238 124.924 37.1794 125.043C35.8182 125.216 34.7152 124.975 33.8701 124.32C33.0251 123.665 32.5175 122.666 32.3473 121.323C32.2347 120.434 32.2988 119.641 32.5395 118.942C32.7895 118.243 33.1984 117.683 33.7661 117.263C34.3326 116.833 35.0233 116.567 35.8381 116.464C36.9029 116.329 37.8555 116.57 38.6959 117.188C39.5443 117.796 40.0888 119.049 40.3293 120.947L35.0238 121.619ZM36.0354 118.132C35.6373 118.183 35.3268 118.368 35.1039 118.688C34.8903 119.006 34.7793 119.43 34.7709 119.958L37.7015 119.586C37.5743 119.029 37.3554 118.638 37.0448 118.414C36.7423 118.179 36.4058 118.085 36.0354 118.132ZM43.9863 121.923C44.0473 122.404 44.162 122.79 44.3304 123.079C44.5091 123.376 44.759 123.603 45.0799 123.76C44.5639 123.919 44.1392 124.02 43.8059 124.062C43.1392 124.147 42.6088 124.045 42.2147 123.756C41.8206 123.467 41.5755 122.943 41.4793 122.184L40.2155 112.212L42.7155 111.895L43.9863 121.923ZM57.1123 113.909L58.1542 122.131C58.3209 123.446 58.0679 124.457 57.3953 125.163C56.7228 125.869 55.743 126.303 54.4559 126.467C53.5207 126.585 52.6825 126.541 51.9413 126.334C51.2012 126.136 50.6329 125.846 50.2363 125.463L51.7217 123.821C52.0105 124.17 52.3687 124.436 52.7962 124.617C53.2341 124.806 53.6706 124.873 54.1058 124.817C54.6614 124.747 55.0754 124.488 55.3478 124.039C55.6295 123.59 55.7223 122.985 55.6261 122.226L55.5046 121.267C55.4093 121.703 55.1842 122.08 54.8293 122.397C54.4744 122.715 54.0053 122.911 53.422 122.985C52.7831 123.066 52.192 122.967 51.6486 122.688C51.1051 122.408 50.6488 121.963 50.2797 121.351C49.9198 120.738 49.6846 119.996 49.5744 119.126C49.4594 118.219 49.5089 117.422 49.7231 116.736C49.9454 116.04 50.2946 115.493 50.7709 115.094C51.246 114.685 51.8076 114.44 52.4558 114.358C52.8261 114.311 53.2047 114.329 53.5915 114.412C53.9864 114.484 54.3531 114.63 54.6915 114.851L54.6123 114.226L57.1123 113.909ZM53.8571 121.519C54.209 121.474 54.5189 121.284 54.7869 120.949C55.0549 120.614 55.2284 120.202 55.3075 119.712L54.8499 116.101C54.5822 115.918 54.3122 115.793 54.04 115.724C53.7771 115.653 53.5485 115.631 53.354 115.655C52.8818 115.715 52.549 116.058 52.3555 116.685C52.1609 117.302 52.1241 118.088 52.2449 119.042C52.3505 119.875 52.5391 120.51 52.8108 120.946C53.0824 121.382 53.4312 121.573 53.8571 121.519ZM61.5143 110.769C61.1859 110.998 60.8923 111.28 60.6336 111.614C60.3748 111.948 60.1838 112.297 60.0606 112.66C59.5882 111.977 58.9646 111.51 58.1897 111.261C58.859 110.677 59.3511 110.031 59.6659 109.324C60.1209 110.019 60.737 110.5 61.5143 110.769ZM61.4336 113.361L62.4896 121.695L59.9896 122.012L58.9336 113.678L61.4336 113.361ZM63.3344 117.354C63.2277 116.511 63.2999 115.745 63.5511 115.055C63.8103 114.354 64.2366 113.782 64.8297 113.34C65.4228 112.898 66.1499 112.623 67.011 112.513C67.8814 112.403 68.6589 112.488 69.3436 112.768C70.0375 113.047 70.5968 113.489 71.0215 114.094C71.4555 114.697 71.7265 115.425 71.8345 116.277C71.9412 117.12 71.865 117.891 71.6057 118.592C71.3545 119.282 70.9323 119.849 70.3392 120.291C69.7461 120.733 69.0189 121.008 68.1578 121.118C67.2875 121.228 66.5053 121.144 65.8114 120.865C65.1268 120.584 64.5674 120.143 64.1334 119.539C63.7087 118.934 63.4424 118.206 63.3344 117.354ZM65.8344 117.037C65.9283 117.778 66.1418 118.386 66.4748 118.861C66.8079 119.336 67.2892 119.534 67.9188 119.454C68.5485 119.375 68.9653 119.063 69.1693 118.52C69.3733 117.976 69.4283 117.334 69.3344 116.594C69.2406 115.853 69.0271 115.245 68.6941 114.77C68.361 114.295 67.8797 114.097 67.25 114.177C66.6204 114.256 66.2036 114.568 65.9996 115.111C65.7956 115.655 65.7406 116.297 65.8344 117.037ZM80.4161 116.474C80.3785 117.513 80.0812 118.322 79.5242 118.901C78.9683 119.489 78.1904 119.846 77.1904 119.973C76.3386 120.081 75.5715 120.004 74.8892 119.742C74.2069 119.481 73.6493 119.053 73.2165 118.458C72.7837 117.864 72.5121 117.132 72.4018 116.261C72.2892 115.373 72.3718 114.577 72.6496 113.873C72.9366 113.169 73.3779 112.605 73.9734 112.182C74.5677 111.749 75.2676 111.481 76.0732 111.379C76.925 111.271 77.6962 111.38 78.3867 111.707C79.0761 112.024 79.5719 112.596 79.8743 113.424L78.0142 114.224C77.8803 113.761 77.6603 113.436 77.3544 113.249C77.0565 113.051 76.727 112.976 76.3659 113.021C75.8289 113.089 75.4219 113.367 75.1449 113.854C74.8667 114.331 74.7763 114.954 74.8737 115.722C74.9887 116.63 75.3128 117.294 75.846 117.716C76.3792 118.138 77.0255 118.3 77.7848 118.204C78.8218 118.073 79.6989 117.496 80.4161 116.474ZM80.8177 115.139C80.7109 114.296 80.7831 113.529 81.0343 112.839C81.2936 112.138 81.7198 111.567 82.3129 111.125C82.906 110.683 83.6332 110.407 84.4943 110.298C85.3646 110.188 86.1422 110.273 86.8268 110.553C87.5207 110.832 88.08 111.274 88.5048 111.878C88.9388 112.482 89.2097 113.21 89.3177 114.061C89.4245 114.904 89.3482 115.676 89.0889 116.377C88.8377 117.067 88.4156 117.633 87.8224 118.075C87.2293 118.517 86.5022 118.793 85.6411 118.902C84.7707 119.012 83.9885 118.928 83.2946 118.649C82.61 118.369 82.0507 117.927 81.6167 117.323C81.1919 116.719 80.9256 115.99 80.8177 115.139ZM83.3177 114.822C83.4115 115.562 83.625 116.17 83.958 116.646C84.2911 117.121 84.7724 117.319 85.4021 117.239C86.0317 117.159 86.4485 116.848 86.6525 116.304C86.8565 115.761 86.9115 115.119 86.8177 114.378C86.7238 113.637 86.5103 113.029 86.1773 112.554C85.8442 112.079 85.3629 111.881 84.7333 111.961C84.1036 112.041 83.6868 112.352 83.4828 112.896C83.2788 113.439 83.2238 114.081 83.3177 114.822ZM92.8532 117.424C92.4643 117.473 92.1186 117.38 91.8161 117.146C91.5135 116.911 91.3376 116.6 91.2883 116.211C91.239 115.822 91.3317 115.476 91.5661 115.174C91.8006 114.871 92.1123 114.695 92.5012 114.646C92.8901 114.597 93.2358 114.689 93.5384 114.924C93.8409 115.158 94.0168 115.47 94.0661 115.859C94.1154 116.248 94.0228 116.593 93.7883 116.896C93.5538 117.198 93.2421 117.374 92.8532 117.424Z" fill="white"/>
</svg>
