<svg width="316" height="106" viewBox="0 0 316 106" fill="none" xmlns="http://www.w3.org/2000/svg">
<path d="M15.3351 36.4388L9.15171 36.747L8.25393 41.2883L1.30159 41.6348L8.04178 15.1226L14.5135 14.8001L24.0168 40.5026L16.68 40.8683L15.3351 36.4388ZM13.7694 30.1575L11.7538 22.5817L11.6577 22.5865L10.2132 30.3347L13.7694 30.1575ZM44.5281 33.1851C45.1261 33.1553 45.7733 33.0374 46.4697 32.8314C47.1873 32.6244 47.8057 32.358 48.3248 32.0324L48.6314 38.1837C46.8328 39.0442 45.154 39.5133 43.5948 39.591C40.8395 39.7284 38.6402 38.9922 36.9968 37.3826C35.2895 35.7761 34.3639 33.5311 34.2202 30.6477C34.0786 27.8069 34.7753 25.4597 36.3102 23.606C37.8216 21.7107 39.8482 20.6997 42.3899 20.573C44.0132 20.4921 45.7742 20.8111 47.6729 21.5301L47.9556 26.5586C46.5791 26.0062 45.3462 25.7572 44.2569 25.8115C43.0181 25.8732 42.0115 26.2981 41.2371 27.0861C40.5289 27.9137 40.2052 28.9362 40.2659 30.1537C40.3202 31.243 40.7344 32.036 41.5086 32.5327C42.2828 33.0294 43.2893 33.2469 44.5281 33.1851ZM52.6901 23.0466C54.1951 21.0231 56.304 19.9437 59.0165 19.8085C61.6651 19.6765 63.8494 20.5419 65.5696 22.4046C67.3303 24.2225 68.2724 26.3703 68.3959 28.8479C68.5258 31.4537 67.7934 33.7278 66.1986 35.6701C64.6701 37.652 62.5922 38.7084 59.9651 38.8393C57.3166 38.9713 55.113 38.1497 53.3544 36.3745C51.615 34.5556 50.6804 32.3432 50.5505 29.7374C50.427 27.2598 51.1402 25.0295 52.6901 23.0466ZM57.1565 31.4637C57.7673 32.1184 58.5959 32.4197 59.6425 32.3676C60.6037 32.3197 61.3769 31.9385 61.9623 31.2242C62.5722 30.5728 62.8505 29.7132 62.7973 28.6452C62.743 27.5559 62.3805 26.7282 61.71 26.1621C61.0565 25.5095 60.2492 25.2071 59.288 25.255C58.2414 25.3072 57.4468 25.6894 56.9042 26.4016C56.2932 27.0316 56.0149 27.8913 56.0692 28.9806C56.1224 30.0485 56.4849 30.8762 57.1565 31.4637ZM76.386 18.3004C78.4364 18.1982 80.254 18.5787 81.8387 19.4418L82.1134 24.9524C81.1651 24.4002 80.2884 23.9942 79.4832 23.7346C78.6983 23.4525 77.9214 23.3306 77.1525 23.369C76.5972 23.3966 76.1839 23.4815 75.9126 23.6235C75.6627 23.7644 75.5457 23.9951 75.5617 24.3154C75.5702 24.4863 75.6737 24.631 75.8724 24.7496C76.0283 24.8703 76.9306 25.1465 78.5795 25.5782C80.1375 26.3356 81.3153 27.1976 82.1129 28.1643C82.8902 29.1533 83.3092 30.2565 83.3698 31.474C83.4657 33.3963 82.9555 34.9741 81.8393 36.2074C80.5277 37.3862 78.8787 38.0251 76.8923 38.1241C74.6282 38.237 72.6473 37.8004 70.9494 36.8144L70.6524 30.8553C72.6953 31.46 74.3575 31.7305 75.639 31.6666C76.1516 31.6411 76.5633 31.5242 76.8741 31.316C77.1839 31.0864 77.3323 30.8435 77.3196 30.5872C77.3068 30.3309 77.1573 30.1242 76.8711 29.9672C76.6949 29.8689 76.3687 29.7674 75.8924 29.6627C75.4364 29.5355 74.9505 29.4527 74.4347 29.4141C72.8991 29.1053 71.7666 28.5086 71.0373 27.6243C70.3754 26.8008 70.0135 25.7696 69.9517 24.5308C69.907 23.6337 70.0171 22.836 70.2821 22.1376C70.5471 21.4392 70.9743 20.7756 71.5639 20.1466C72.7495 19.0169 74.3569 18.4015 76.386 18.3004ZM94.8582 37.1002L94.7592 35.1138C93.8972 35.8633 93.0578 36.4191 92.2407 36.781C91.4451 37.1418 90.6094 37.3441 89.7336 37.3877C88.4307 37.4526 87.341 37.068 86.4643 36.2338C85.5887 35.421 85.119 34.3738 85.0551 33.0923C85.0158 32.302 85.1152 31.5048 85.3535 30.7007C85.612 29.8741 85.9539 29.2147 86.379 28.7225C87.1929 27.8682 88.1643 27.1667 89.2932 26.618C90.4435 26.0682 91.7128 25.7587 93.1011 25.6895C93.3574 25.6767 93.7536 25.6784 94.2897 25.6945C94.2503 24.9042 93.984 24.2858 93.4907 23.8394C93.0187 23.3918 92.3021 23.192 91.341 23.2399C88.9701 23.3581 87.013 24.2586 85.4696 25.9414L85.2125 20.7832C87.2738 19.1816 89.5861 18.317 92.1491 18.1892C93.6443 18.1147 94.9727 18.3482 96.1346 18.8899C97.2964 19.4315 98.2254 20.2417 98.9215 21.3204C99.6166 22.3778 99.9998 23.622 100.071 25.053L100.657 36.8111L94.8582 37.1002ZM92.4882 32.0794C92.8513 32.0613 93.1898 31.9802 93.5038 31.8361C93.8178 31.692 94.1703 31.4603 94.5612 31.141L94.4478 28.8663C93.1876 28.9291 92.2681 29.1676 91.6892 29.5819C91.3837 29.8969 91.1706 30.1324 91.0499 30.2883C90.9506 30.4431 90.9062 30.6273 90.9169 30.8409C90.9382 31.2681 91.0727 31.604 91.3204 31.8486C91.5649 32.0291 91.9542 32.106 92.4882 32.0794ZM118.124 16.2201C120.174 16.1179 121.992 16.4984 123.576 17.3615L123.851 22.8721C122.903 22.3199 122.026 21.9139 121.221 21.6543C120.436 21.3722 119.659 21.2503 118.89 21.2887C118.335 21.3163 117.921 21.4012 117.65 21.5432C117.4 21.6841 117.283 21.9148 117.299 22.2351C117.308 22.406 117.411 22.5507 117.61 22.6693C117.766 22.79 118.668 23.0662 120.317 23.4979C121.875 24.2553 123.053 25.1173 123.85 26.084C124.628 27.073 125.047 28.1762 125.107 29.3937C125.203 31.316 124.693 32.8938 123.577 34.1271C122.265 35.3059 120.616 35.9448 118.63 36.0438C116.366 36.1567 114.385 35.7201 112.687 34.7341L112.39 28.775C114.433 29.3797 116.095 29.6502 117.377 29.5863C117.889 29.5608 118.301 29.4439 118.612 29.2357C118.921 29.0061 119.07 28.7632 119.057 28.5069C119.044 28.2506 118.895 28.0439 118.609 27.8869C118.433 27.7886 118.106 27.6871 117.63 27.5824C117.174 27.4552 116.688 27.3724 116.172 27.3338C114.637 27.025 113.504 26.4283 112.775 25.544C112.113 24.7205 111.751 23.6893 111.689 22.4505C111.645 21.5534 111.755 20.7557 112.02 20.0573C112.285 19.3589 112.712 18.6953 113.302 18.0663C114.487 16.9367 116.094 16.3212 118.124 16.2201ZM139.551 15.6981L139.803 20.7602L133.876 21.0556L134.103 25.6051C134.155 26.6517 134.429 27.4089 134.923 27.8767C135.419 28.3873 136.031 28.6244 136.757 28.5882C137.889 28.5318 139.014 28.1224 140.132 27.3601L140.436 33.4474C138.749 34.4094 137.201 34.9255 135.792 34.9957C134.809 35.0447 133.893 34.9191 133.043 34.6188C132.215 34.3389 131.53 33.9127 130.988 33.3402C129.815 32.1567 129.173 30.433 129.06 28.1689L128.718 21.3127L126.315 21.4325L126.063 16.3704L128.338 16.257L128.081 11.0988L133.367 10.8353L133.624 15.9935L139.551 15.6981ZM151.927 34.2557L151.828 32.2694C150.966 33.0189 150.126 33.5747 149.309 33.9366C148.514 34.2974 147.678 34.4996 146.802 34.5433C145.499 34.6082 144.409 34.2236 143.533 33.3894C142.657 32.5766 142.187 31.5294 142.124 30.2478C142.084 29.4575 142.184 28.6603 142.422 27.8562C142.681 27.0297 143.022 26.3703 143.447 25.878C144.261 25.0238 145.233 24.3223 146.362 23.7736C147.512 23.2238 148.781 22.9143 150.17 22.8451C150.426 22.8323 150.822 22.834 151.358 22.8501C151.319 22.0598 151.052 21.4414 150.559 20.9949C150.087 20.5474 149.371 20.3476 148.409 20.3955C146.039 20.5136 144.081 21.4141 142.538 23.097L142.281 17.9388C144.342 16.3372 146.655 15.4725 149.218 15.3448C150.713 15.2703 152.041 15.5038 153.203 16.0454C154.365 16.5871 155.294 17.3973 155.99 18.476C156.685 19.5333 157.068 20.7776 157.14 22.2086L157.726 33.9667L151.927 34.2557ZM149.557 29.235C149.92 29.2169 150.258 29.1358 150.572 28.9917C150.886 28.8475 151.239 28.6159 151.63 28.2966L151.516 26.0219C150.256 26.0847 149.337 26.3232 148.758 26.7375C148.452 27.0525 148.239 27.2879 148.118 27.4438C148.019 27.5987 147.975 27.7829 147.985 27.9965C148.007 28.4236 148.141 28.7595 148.389 29.0041C148.633 29.1847 149.023 29.2616 149.557 29.235ZM174.026 15.104L174.101 16.6098C175.254 15.2675 176.664 14.5549 178.33 14.4719C180.466 14.3654 182.176 15.1688 183.461 16.882C184.918 18.6293 185.712 20.8059 185.842 23.4117C185.988 26.3593 185.421 28.7214 184.139 30.4983C182.738 32.4524 180.969 33.4827 178.833 33.5891C177.957 33.6328 177.234 33.5083 176.663 33.2156C176.113 32.9218 175.508 32.3952 174.85 31.6358L175.314 40.959L170.156 41.2161L168.867 15.3611L174.026 15.104ZM174.597 26.5737C175.496 27 176.32 27.1945 177.067 27.1572C178.114 27.105 178.888 26.7453 179.39 26.0779C180 25.4265 180.28 24.5989 180.23 23.5951C180.179 22.5698 179.847 21.7192 179.236 21.0431C178.674 20.5143 177.923 20.2734 176.983 20.3202C176.044 20.3671 175.162 20.7215 174.339 21.3835L174.597 26.5737ZM198.034 26.4013C199.742 26.3161 201.672 25.9415 203.823 25.2776L204.031 29.4426C202.315 31.1126 200.069 32.0168 197.293 32.1552C194.601 32.2893 192.403 31.5639 190.696 29.9788C189.008 28.3285 188.093 26.0724 187.95 23.2103C187.808 20.3695 188.463 18.0458 189.915 16.2391C191.234 14.3533 193.101 13.3503 195.514 13.23C197.906 13.1107 199.897 13.9643 201.487 15.7908C202.189 16.548 202.695 17.4649 203.006 18.5415C203.337 19.6169 203.542 20.9236 203.618 22.4614C203.648 23.0595 203.649 23.4984 203.62 23.7782L193.015 24.3068C193.069 24.9678 193.546 25.5008 194.444 25.9057C195.363 26.3095 196.56 26.4747 198.034 26.4013ZM195.743 17.8115C194.312 17.8828 193.529 18.7141 193.394 20.3053L198.296 20.0609C198.148 19.2546 197.862 18.6693 197.437 18.3051C197.034 17.9398 196.469 17.7753 195.743 17.8115ZM210.59 12.4143L210.749 15.6182C212.01 13.4141 213.729 12.2578 215.908 12.1493C217.531 12.0683 218.973 12.6389 220.233 13.8608C221.411 15.151 222.055 16.9175 222.167 19.1602L222.76 31.0465L217.569 31.3051L217.129 22.4625C217.058 21.0528 216.793 20.0169 216.331 19.3547C215.89 18.6701 215.189 18.3517 214.228 18.3996C213.716 18.4252 213.211 18.6216 212.716 18.9889C212.219 19.3348 211.812 19.7513 211.493 20.2382C211.175 20.7251 211.026 21.1608 211.045 21.5453L211.546 31.6054L206.324 31.8656L205.367 12.6746L210.59 12.4143ZM230.508 10.6186C232.559 10.5164 234.376 10.8969 235.961 11.76L236.236 17.2706C235.288 16.7183 234.411 16.3124 233.606 16.0527C232.821 15.7707 232.044 15.6488 231.275 15.6871C230.72 15.7148 230.306 15.7997 230.035 15.9417C229.785 16.0826 229.668 16.3132 229.684 16.6336C229.693 16.8045 229.796 16.9492 229.995 17.0678C230.151 17.1885 231.053 17.4647 232.702 17.8964C234.26 18.6538 235.438 19.5158 236.235 20.4824C237.013 21.4715 237.432 22.5747 237.492 23.7922C237.588 25.7145 237.078 27.2923 235.962 28.5256C234.65 29.7044 233.001 30.3433 231.015 30.4423C228.751 30.5551 226.77 30.1186 225.072 29.1326L224.775 23.1734C226.818 23.7782 228.48 24.0487 229.761 23.9848C230.274 23.9592 230.686 23.8424 230.997 23.6342C231.306 23.4046 231.455 23.1617 231.442 22.9054C231.429 22.6491 231.28 22.4424 230.994 22.2854C230.817 22.1871 230.491 22.0856 230.015 21.9808C229.559 21.8537 229.073 21.7709 228.557 21.7323C227.021 21.4234 225.889 20.8268 225.16 19.9425C224.498 19.119 224.136 18.0878 224.074 16.849C224.029 15.9519 224.14 15.1542 224.404 14.4558C224.669 13.7574 225.097 13.0938 225.686 12.4648C226.872 11.3351 228.479 10.7197 230.508 10.6186ZM248.981 29.4184L248.882 27.432C248.02 28.1815 247.18 28.7373 246.363 29.0992C245.567 29.46 244.732 29.6622 243.856 29.7059C242.553 29.7708 241.463 29.3862 240.587 28.552C239.711 27.7392 239.241 26.692 239.178 25.4104C239.138 24.6202 239.238 23.823 239.476 23.0188C239.734 22.1923 240.076 21.5329 240.501 21.0406C241.315 20.1864 242.287 19.4849 243.416 18.9362C244.566 18.3864 245.835 18.0769 247.223 18.0077C247.48 17.9949 247.876 17.9966 248.412 18.0127C248.373 17.2224 248.106 16.604 247.613 16.1575C247.141 15.71 246.425 15.5102 245.463 15.5581C243.093 15.6763 241.135 16.5768 239.592 18.2596L239.335 13.1014C241.396 11.4998 243.708 10.6351 246.272 10.5074C247.767 10.4329 249.095 10.6664 250.257 11.2081C251.419 11.7497 252.348 12.5599 253.044 13.6386C253.739 14.696 254.122 15.9402 254.193 17.3712L254.78 29.1293L248.981 29.4184ZM246.611 24.3976C246.974 24.3795 247.312 24.2984 247.626 24.1543C247.94 24.0101 248.293 23.7785 248.684 23.4592L248.57 21.1845C247.31 21.2473 246.39 21.4858 245.812 21.9001C245.506 22.2151 245.293 22.4505 245.172 22.6064C245.073 22.7613 245.029 22.9455 245.039 23.1591C245.061 23.5863 245.195 23.9221 245.443 24.1667C245.687 24.3473 246.077 24.4242 246.611 24.3976ZM261.588 9.87244L261.748 13.0763C263.008 10.8723 264.728 9.71595 266.907 9.60736C268.53 9.52645 269.972 10.097 271.232 11.3189C272.409 12.6091 273.054 14.3756 273.166 16.6183L273.758 28.5046L268.568 28.7633L268.127 19.9206C268.057 18.511 267.791 17.475 267.33 16.8128C266.889 16.1282 266.188 15.8098 265.227 15.8577C264.714 15.8833 264.21 16.0797 263.715 16.447C263.218 16.7929 262.81 17.2094 262.492 17.6963C262.174 18.1832 262.024 18.6189 262.043 19.0034L262.545 29.0635L257.323 29.3238L256.366 10.1327L261.588 9.87244ZM292.381 27.1267L287.543 27.3678C287.539 27.2824 287.514 27.0053 287.47 26.5364C287.446 26.0665 287.432 25.7889 287.428 25.7034C286.962 26.2405 286.385 26.6762 285.695 27.0103C285.006 27.3658 284.17 27.5681 283.188 27.617C282.226 27.665 281.287 27.5084 280.37 27.1472C279.453 26.7861 278.643 26.2269 277.942 25.4697C277.263 24.7327 276.69 23.7762 276.225 22.6004C275.781 21.4234 275.521 20.0767 275.445 18.5602C275.374 17.1292 275.501 15.8167 275.827 14.6228C276.173 13.4065 276.646 12.3658 277.245 11.5009C277.865 10.6135 278.612 9.91256 279.485 9.39795C280.358 8.86198 281.275 8.57004 282.236 8.52214C282.962 8.48594 283.618 8.53891 284.203 8.68104C284.787 8.80181 285.314 9.05392 285.782 9.43739L285.377 1.29963L291.08 1.01538L292.381 27.1267ZM286.188 17.5752C286.147 16.7635 285.9 16.1013 285.447 15.5887C284.992 15.0546 284.369 14.8073 283.579 14.8467C282.831 14.8839 282.225 15.1818 281.761 15.7403C281.316 16.2763 281.104 16.9614 281.124 17.7954C281.149 18.7149 281.42 19.4294 281.938 19.9389C282.477 20.4473 283.12 20.6829 283.868 20.6456C284.573 20.6105 285.139 20.3682 285.566 19.9186C286.014 19.4467 286.227 18.783 286.206 17.9276L286.188 17.5752ZM296.576 10.8907C298.081 8.8672 300.19 7.78784 302.903 7.65264C305.551 7.52063 307.736 8.38601 309.456 10.2488C311.217 12.0667 312.159 14.2144 312.282 16.6921C312.412 19.2979 311.68 21.5719 310.085 23.5143C308.556 25.4961 306.479 26.5525 303.851 26.6835C301.203 26.8155 298.999 25.9939 297.241 24.2187C295.501 22.3997 294.567 20.1873 294.437 17.5815C294.313 15.1039 295.027 12.8736 296.576 10.8907ZM301.043 19.3078C301.654 19.9626 302.482 20.2639 303.529 20.2117C304.49 20.1638 305.263 19.7827 305.849 19.0683C306.458 18.417 306.737 17.5573 306.684 16.4894C306.629 15.4001 306.267 14.5723 305.596 14.0062C304.943 13.3536 304.135 13.0513 303.174 13.0992C302.128 13.1513 301.333 13.5335 300.791 14.2458C300.18 14.8758 299.901 15.7354 299.956 16.8247C300.009 17.8927 300.371 18.7204 301.043 19.3078ZM61.2692 44.684L61.5806 50.9315L55.6856 51.2254L55.3742 44.9779L61.2692 44.684ZM61.6717 52.7577L62.5659 70.6992L56.6708 70.9931L55.7766 53.0515L61.6717 52.7577ZM73.4135 70.1907C71.299 70.2961 69.6378 70.047 68.4301 69.4434C67.2448 68.8601 66.3671 67.7905 65.7971 66.2344C65.2473 64.6559 64.9001 62.4142 64.7553 59.5094L64.0063 44.4834L69.7092 44.1991L70.4661 59.3854C70.6098 62.2688 71.4826 63.6706 73.0846 63.5908L73.4135 70.1907ZM89.0803 50.5565L89.2177 53.3118C89.6834 52.3465 90.2458 51.6012 90.9048 51.0758C91.5628 50.5292 92.1907 50.2409 92.7888 50.2111C93.814 50.16 94.6523 50.4394 95.3037 51.0493C95.9753 51.6368 96.5695 52.6028 97.0861 53.9474C97.7901 52.6062 98.5421 51.5838 99.3421 50.8801C100.163 50.1754 101.001 49.8018 101.856 49.7592C102.646 49.7198 103.337 49.8459 103.93 50.1376C104.544 50.4282 105.114 50.9029 105.639 51.5619C106.539 52.866 107.041 54.5647 107.146 56.6579L107.748 68.7363L102.942 68.9759L102.506 60.2294C102.456 59.2255 102.375 58.4587 102.263 57.929C102.151 57.3993 101.95 57.0239 101.661 56.8028C101.371 56.5817 100.949 56.4849 100.394 56.5126C99.7529 56.5446 99.2125 56.8713 98.7724 57.4927C98.3526 58.0918 98.1629 58.7971 98.2034 59.6088L98.6808 69.1883L94.2275 69.4102L93.7915 60.6637C93.7181 59.19 93.5506 58.1919 93.289 57.6697C93.0488 57.1464 92.587 56.9017 91.9035 56.9358C91.22 56.9699 90.6475 57.2982 90.1861 57.9207C89.7236 58.5219 89.5125 59.2283 89.553 60.0399L90.0305 69.6194L85.0325 69.8685L84.0823 50.8057L89.0803 50.5565ZM114.99 42.0065L115.301 48.254L109.406 48.5478L109.095 42.3003L114.99 42.0065ZM115.392 50.0802L116.287 68.0217L110.392 68.3155L109.497 50.374L115.392 50.0802ZM120.601 51.7798C122.106 49.7562 124.215 48.6769 126.927 48.5417C129.576 48.4097 131.76 49.2751 133.48 51.1378C135.241 52.9557 136.183 55.1035 136.307 57.5811C136.437 60.1869 135.704 62.461 134.109 64.4033C132.581 66.3852 130.503 67.4416 127.876 67.5725C125.227 67.7045 123.024 66.8829 121.265 65.1077C119.526 63.2888 118.591 61.0764 118.461 58.4706C118.338 55.993 119.051 53.7627 120.601 51.7798ZM125.067 60.1969C125.678 60.8516 126.507 61.1529 127.553 61.1008C128.514 61.0528 129.288 60.6717 129.873 59.9574C130.483 59.306 130.761 58.4464 130.708 57.3784C130.654 56.2891 130.291 55.4614 129.621 54.8953C128.967 54.2427 128.16 53.9403 127.199 53.9882C126.152 54.0404 125.358 54.4226 124.815 55.1348C124.204 55.7648 123.926 56.6244 123.98 57.7138C124.033 58.7817 124.396 59.6094 125.067 60.1969ZM157.513 66.0954L157.414 64.109C156.552 64.8585 155.712 65.4143 154.895 65.7762C154.1 66.137 153.264 66.3392 152.388 66.3829C151.085 66.4478 149.995 66.0632 149.119 65.229C148.243 64.4162 147.774 63.369 147.71 62.0874C147.67 61.2972 147.77 60.5 148.008 59.6958C148.267 58.8693 148.608 58.2099 149.033 57.7176C149.847 56.8634 150.819 56.1619 151.948 55.6132C153.098 55.0634 154.367 54.7539 155.756 54.6847C156.012 54.6719 156.408 54.6736 156.944 54.6897C156.905 53.8994 156.638 53.281 156.145 52.8345C155.673 52.387 154.957 52.1872 153.995 52.2351C151.625 52.3532 149.667 53.2537 148.124 54.9366L147.867 49.7784C149.928 48.1768 152.241 47.3121 154.804 47.1844C156.299 47.1099 157.627 47.3434 158.789 47.885C159.951 48.4267 160.88 49.2369 161.576 50.3156C162.271 51.373 162.654 52.6172 162.726 54.0482L163.312 65.8063L157.513 66.0954ZM155.143 61.0746C155.506 61.0565 155.844 60.9754 156.158 60.8313C156.472 60.6871 156.825 60.4555 157.216 60.1362L157.102 57.8615C155.842 57.9243 154.923 58.1628 154.344 58.5771C154.038 58.8921 153.825 59.1275 153.704 59.2834C153.605 59.4383 153.561 59.6225 153.571 59.8361C153.593 60.2633 153.727 60.5991 153.975 60.8437C154.219 61.0243 154.609 61.1012 155.143 61.0746ZM170.12 46.5494L170.28 49.7533C171.541 47.5493 173.26 46.3929 175.439 46.2844C177.062 46.2034 178.504 46.774 179.764 47.9959C180.941 49.2861 181.586 51.0526 181.698 53.2953L182.29 65.1816L177.1 65.4402L176.659 56.5976C176.589 55.1879 176.323 54.152 175.862 53.4898C175.421 52.8052 174.72 52.4868 173.759 52.5347C173.246 52.5603 172.742 52.7567 172.247 53.124C171.75 53.4699 171.343 53.8864 171.024 54.3733C170.706 54.8602 170.556 55.2959 170.575 55.6804L171.077 65.7405L165.855 66.0007L164.898 46.8097L170.12 46.5494ZM189.204 38.3075L189.515 44.555L183.62 44.8488L183.309 38.6013L189.204 38.3075ZM189.606 46.3812L190.501 64.3227L184.606 64.6165L183.711 46.675L189.606 46.3812ZM197.335 45.1609L197.473 47.9162C197.938 46.9508 198.501 46.2055 199.16 45.6802C199.818 45.1335 200.446 44.8452 201.044 44.8154C202.069 44.7643 202.907 45.0437 203.559 45.6536C204.23 46.2411 204.824 47.2072 205.341 48.5518C206.045 47.2105 206.797 46.1881 207.597 45.4845C208.418 44.7798 209.256 44.4061 210.111 44.3635C210.901 44.3241 211.592 44.4503 212.185 44.7419C212.799 45.0325 213.369 45.5073 213.894 46.1663C214.794 47.4704 215.296 49.169 215.401 51.2622L216.003 63.3407L211.197 63.5802L210.761 54.8337C210.711 53.8298 210.63 53.063 210.518 52.5333C210.406 52.0036 210.205 51.6282 209.916 51.4071C209.626 51.186 209.204 51.0893 208.649 51.1169C208.008 51.1489 207.467 51.4756 207.027 52.0971C206.607 52.6961 206.418 53.4015 206.458 54.2131L206.936 63.7926L202.482 64.0146L202.046 55.2681C201.973 53.7943 201.805 52.7963 201.544 52.274C201.304 51.7507 200.842 51.5061 200.158 51.5401C199.475 51.5742 198.902 51.9025 198.441 52.525C197.978 53.1262 197.767 53.8326 197.808 54.6442L198.285 64.2237L193.287 64.4729L192.337 45.41L197.335 45.1609ZM227.816 62.5913L227.717 60.6049C226.855 61.3545 226.015 61.9102 225.198 62.2721C224.403 62.6329 223.567 62.8352 222.691 62.8788C221.388 62.9438 220.299 62.5591 219.422 61.7249C218.546 60.9121 218.077 59.8649 218.013 58.5834C217.973 57.7931 218.073 56.9959 218.311 56.1918C218.57 55.3652 218.911 54.7058 219.337 54.2136C220.15 53.3593 221.122 52.6579 222.251 52.1091C223.401 51.5593 224.67 51.2498 226.059 51.1806C226.315 51.1678 226.711 51.1695 227.247 51.1856C227.208 50.3953 226.942 49.7769 226.448 49.3305C225.976 48.8829 225.26 48.6831 224.299 48.731C221.928 48.8492 219.971 49.7497 218.427 51.4325L218.17 46.2743C220.231 44.6727 222.544 43.8081 225.107 43.6803C226.602 43.6058 227.93 43.8394 229.092 44.381C230.254 44.9226 231.183 45.7328 231.879 46.8115C232.574 47.8689 232.957 49.1131 233.029 50.5441L233.615 62.3023L227.816 62.5913ZM225.446 57.5705C225.809 57.5524 226.147 57.4713 226.461 57.3272C226.775 57.1831 227.128 56.9514 227.519 56.6321L227.405 54.3574C226.145 54.4202 225.226 54.6588 224.647 55.073C224.341 55.388 224.128 55.6235 224.008 55.7794C223.908 55.9342 223.864 56.1184 223.874 56.332C223.896 56.7592 224.03 57.0951 224.278 57.3397C224.523 57.5202 224.912 57.5971 225.446 57.5705ZM244.275 61.6746C242.16 61.78 240.499 61.5309 239.291 60.9273C238.106 60.344 237.228 59.2743 236.658 57.7183C236.109 56.1398 235.761 53.8981 235.616 50.9933L234.868 35.9673L240.57 35.683L241.327 50.8692C241.471 53.7527 242.344 55.1545 243.946 55.0747L244.275 61.6746ZM255.901 55.635C257.61 55.5499 259.54 55.1753 261.691 54.5114L261.898 58.6764C260.183 60.3464 257.937 61.2506 255.16 61.389C252.469 61.5231 250.27 60.7976 248.564 59.2125C246.876 57.5623 245.96 55.3061 245.818 52.444C245.676 49.6033 246.331 47.2796 247.783 45.4728C249.102 43.5871 250.968 42.584 253.382 42.4637C255.774 42.3445 257.765 43.1981 259.355 45.0245C260.056 45.7818 260.562 46.6987 260.873 47.7752C261.205 48.8507 261.409 50.1574 261.486 51.6952C261.516 52.2933 261.516 52.7322 261.487 53.012L250.883 53.5405C250.937 54.2016 251.413 54.7346 252.311 55.1395C253.231 55.5433 254.427 55.7085 255.901 55.635ZM253.61 47.0452C252.179 47.1166 251.396 47.9478 251.261 49.539L256.163 49.2947C256.016 48.4884 255.73 47.9031 255.305 47.5389C254.901 47.1736 254.336 47.009 253.61 47.0452ZM92.0181 101.349L87.1803 101.59C87.176 101.505 87.1515 101.228 87.1067 100.759C87.0833 100.289 87.0694 100.011 87.0652 99.926C86.5995 100.463 86.0217 100.899 85.3317 101.233C84.6428 101.588 83.8071 101.791 82.8246 101.84C81.8635 101.888 80.9243 101.731 80.0069 101.37C79.0896 101.009 78.2802 100.45 77.5787 99.6923C76.8996 98.9553 76.3274 97.9988 75.8619 96.823C75.4178 95.646 75.158 94.2993 75.0824 92.7828C75.0111 91.3518 75.1384 90.0393 75.4643 88.8454C75.8105 87.6291 76.2832 86.5884 76.8825 85.7235C77.502 84.8361 78.2486 84.1352 79.1223 83.6206C79.9949 83.0846 80.9117 82.7926 81.8729 82.7447C82.5991 82.7085 83.2548 82.7615 83.84 82.9036C84.4242 83.0244 84.9506 83.2765 85.4194 83.66L85.0138 75.5222L90.7166 75.238L92.0181 101.349ZM85.825 91.7978C85.7845 90.9861 85.5374 90.3239 85.0836 89.8113C84.6288 89.2772 84.0062 89.0299 83.2159 89.0693C82.4683 89.1065 81.8622 89.4044 81.3976 89.9629C80.9533 90.4989 80.7412 91.184 80.7613 92.018C80.7857 92.9375 81.0569 93.652 81.5748 94.1615C82.114 94.6699 82.7574 94.9055 83.5049 94.8682C84.2098 94.8331 84.7758 94.5908 85.2031 94.1412C85.6506 93.6693 85.8638 93.0056 85.8426 92.1502L85.825 91.7978ZM96.2135 85.1133C97.7185 83.0898 99.8273 82.0104 102.54 81.8752C105.188 81.7432 107.373 82.6086 109.093 84.4714C110.854 86.2893 111.796 88.437 111.919 90.9147C112.049 93.5205 111.317 95.7945 109.722 97.7369C108.193 99.7187 106.116 100.775 103.488 100.906C100.84 101.038 98.6364 100.216 96.8778 98.4413C95.1384 96.6223 94.2037 94.4099 94.0739 91.8041C93.9504 89.3265 94.6636 87.0962 96.2135 85.1133ZM100.68 93.5304C101.291 94.1852 102.119 94.4865 103.166 94.4343C104.127 94.3864 104.9 94.0053 105.486 93.2909C106.096 92.6396 106.374 91.7799 106.321 90.712C106.266 89.6227 105.904 88.7949 105.233 88.2288C104.58 87.5762 103.773 87.2739 102.811 87.3218C101.765 87.3739 100.97 87.7561 100.428 88.4684C99.8166 89.0984 99.5383 89.958 99.5926 91.0473C99.6458 92.1153 100.008 92.943 100.68 93.5304ZM118.57 81.2047L118.707 83.96C119.173 82.9947 119.736 82.2494 120.395 81.724C121.052 81.1774 121.68 80.8891 122.279 80.8593C123.304 80.8082 124.142 81.0876 124.793 81.6975C125.465 82.285 126.059 83.251 126.576 84.5956C127.28 83.2544 128.032 82.232 128.832 81.5283C129.653 80.8236 130.491 80.45 131.345 80.4074C132.136 80.368 132.827 80.4941 133.42 80.7858C134.034 81.0763 134.603 81.5511 135.129 82.2101C136.029 83.5142 136.531 85.2129 136.635 87.306L137.237 99.3845L132.432 99.6241L131.996 90.8776C131.946 89.8737 131.865 89.1069 131.753 88.5772C131.641 88.0475 131.44 87.6721 131.15 87.451C130.861 87.2298 130.439 87.1331 129.883 87.1608C129.243 87.1927 128.702 87.5195 128.262 88.1409C127.842 88.74 127.653 89.4453 127.693 90.257L128.171 99.8364L123.717 100.058L123.281 91.3119C123.208 89.8382 123.04 88.8401 122.779 88.3179C122.539 87.7945 122.077 87.5499 121.393 87.584C120.71 87.618 120.137 87.9463 119.676 88.5689C119.213 89.1701 119.002 89.8765 119.043 90.6881L119.52 100.268L114.522 100.517L113.572 81.4538L118.57 81.2047ZM149.415 93.0606C151.124 92.9754 153.054 92.6008 155.205 91.9369L155.412 96.1019C153.697 97.7719 151.451 98.6761 148.674 98.8145C145.983 98.9486 143.784 98.2232 142.078 96.6381C140.39 94.9878 139.474 92.7317 139.332 89.8696C139.19 87.0288 139.845 84.7051 141.297 82.8984C142.616 81.0126 144.482 80.0096 146.896 79.8893C149.288 79.77 151.279 80.6236 152.869 82.4501C153.57 83.2073 154.076 84.1242 154.387 85.2008C154.719 86.2762 154.923 87.5829 155 89.1207C155.03 89.7188 155.03 90.1577 155.001 90.4375L144.397 90.9661C144.451 91.6271 144.927 92.1601 145.825 92.565C146.745 92.9688 147.941 93.134 149.415 93.0606ZM147.124 84.4708C145.693 84.5421 144.91 85.3734 144.775 86.9646L149.677 86.7202C149.53 85.9139 149.244 85.3287 148.819 84.9644C148.415 84.5991 147.85 84.4346 147.124 84.4708ZM163.149 78.212C165.199 78.1098 167.017 78.4903 168.601 79.3534L168.876 84.864C167.928 84.3117 167.051 83.9058 166.246 83.6462C165.461 83.3641 164.684 83.2422 163.915 83.2806C163.36 83.3082 162.947 83.3931 162.675 83.5351C162.425 83.676 162.308 83.9067 162.324 84.227C162.333 84.3979 162.436 84.5426 162.635 84.6612C162.791 84.7819 163.693 85.0581 165.342 85.4898C166.9 86.2472 168.078 87.1092 168.876 88.0759C169.653 89.0649 170.072 90.1681 170.133 91.3856C170.228 93.3079 169.718 94.8857 168.602 96.119C167.29 97.2978 165.641 97.9367 163.655 98.0357C161.391 98.1485 159.41 97.712 157.712 96.726L157.415 90.7669C159.458 91.3716 161.12 91.6421 162.402 91.5782C162.914 91.5527 163.326 91.4358 163.637 91.2276C163.947 90.998 164.095 90.7551 164.082 90.4988C164.07 90.2425 163.92 90.0358 163.634 89.8788C163.458 89.7805 163.131 89.679 162.655 89.5743C162.199 89.4471 161.713 89.3643 161.197 89.3257C159.662 89.0169 158.529 88.4202 157.8 87.5359C157.138 86.7124 156.776 85.6812 156.714 84.4424C156.67 83.5453 156.78 82.7476 157.045 82.0492C157.31 81.3508 157.737 80.6872 158.327 80.0582C159.512 78.9285 161.12 78.3131 163.149 78.212ZM184.576 77.69L184.829 82.7521L178.901 83.0475L179.128 87.597C179.18 88.6435 179.454 89.4008 179.948 89.8686C180.445 90.3791 181.056 90.6163 181.782 90.5801C182.914 90.5237 184.039 90.1143 185.158 89.352L185.461 95.4393C183.775 96.4012 182.226 96.9173 180.817 96.9876C179.834 97.0366 178.918 96.911 178.068 96.6107C177.24 96.3308 176.555 95.9046 176.013 95.3321C174.841 94.1486 174.198 92.4249 174.085 90.1608L173.743 83.3046L171.34 83.4244L171.088 78.3623L173.363 78.2489L173.106 73.0907L178.392 72.8272L178.649 77.9854L184.576 77.69ZM192.381 70.2672L192.692 76.5147L186.797 76.8085L186.486 70.561L192.381 70.2672ZM192.783 78.3408L193.678 96.2824L187.782 96.5762L186.888 78.6347L192.783 78.3408ZM206.037 89.3712C206.635 89.3414 207.282 89.2235 207.978 89.0175C208.696 88.8104 209.314 88.5441 209.833 88.2184L210.14 94.3698C208.341 95.2303 206.663 95.6994 205.103 95.7771C202.348 95.9144 200.149 95.1783 198.505 93.5686C196.798 91.9622 195.873 89.7172 195.729 86.8338C195.587 83.993 196.284 81.6458 197.819 79.7921C199.33 77.8968 201.357 76.8857 203.899 76.7591C205.522 76.6781 207.283 76.9972 209.182 77.7162L209.464 82.7447C208.088 82.1923 206.855 81.9433 205.766 81.9976C204.527 82.0593 203.52 82.4842 202.746 83.2722C202.038 84.0998 201.714 85.1223 201.775 86.3397C201.829 87.429 202.243 88.2221 203.017 88.7188C203.791 89.2155 204.798 89.433 206.037 89.3712ZM214.199 79.2326C215.704 77.2091 217.813 76.1298 220.525 75.9946C223.174 75.8626 225.358 76.7279 227.078 78.5907C228.839 80.4086 229.781 82.5564 229.905 85.034C230.034 87.6398 229.302 89.9139 227.707 91.8562C226.179 93.8381 224.101 94.8945 221.474 95.0254C218.825 95.1574 216.622 94.3358 214.863 92.5606C213.124 90.7417 212.189 88.5293 212.059 85.9235C211.936 83.4458 212.649 81.2156 214.199 79.2326ZM218.665 87.6498C219.276 88.3045 220.105 88.6058 221.151 88.5536C222.112 88.5057 222.886 88.1246 223.471 87.4102C224.081 86.7589 224.359 85.8993 224.306 84.8313C224.252 83.742 223.889 82.9143 223.219 82.3482C222.565 81.6956 221.758 81.3932 220.797 81.4411C219.75 81.4933 218.955 81.8755 218.413 82.5877C217.802 83.2177 217.524 84.0773 217.578 85.1666C217.631 86.2346 217.994 87.0623 218.665 87.6498ZM234.921 80.5444L235.827 80.0496C236.969 79.3289 237.696 78.661 238.008 78.0459C238.319 77.4095 238.385 76.8067 238.207 76.2374C238.026 75.6255 237.684 75.1929 237.179 74.9397C236.672 74.6652 236.1 74.5759 235.463 74.6719C234.91 74.7423 234.192 74.9494 233.31 75.2931C232.448 75.6144 231.821 75.9134 231.427 76.1899L231.121 70.0385C231.612 69.5858 232.342 69.1961 233.311 68.8695C234.28 68.5428 235.394 68.3481 236.654 68.2853C237.573 68.2395 238.475 68.3016 239.361 68.4715C240.268 68.6191 241.096 68.899 241.844 69.3113C242.593 69.7237 243.251 70.2583 243.819 70.9152C244.387 71.572 244.783 72.4195 245.006 73.4576C245.247 74.4305 245.288 75.2635 245.13 75.9566C244.992 76.6272 244.766 77.238 244.451 77.7891C244.156 78.3176 243.784 78.8072 243.336 79.2578C242.908 79.7074 242.342 80.1531 241.636 80.5952L240.798 81.1829L241.052 86.277L235.221 86.5677L234.921 80.5444ZM241.24 93.9118L240.93 87.6963L235.323 87.9758L235.633 94.1912L241.24 93.9118Z" fill="black"/>
</svg>
