<svg width="17" height="19" viewBox="0 0 17 19" fill="none" xmlns="http://www.w3.org/2000/svg">
<path d="M7.40534 0L7.77832 0.147731C8.39853 0.843943 9.29169 4.36601 9.54892 5.41997C10.8465 4.28486 12.5971 2.66069 13.9947 1.74446C13.6446 3.24632 12.6557 5.52269 12.0398 6.93312C13.0544 7.01227 16.4255 7.07485 17 7.88193L16.9243 8.19225C16.1168 8.98647 13.4645 9.70811 12.2641 10.1009C12.7614 10.9317 15.2123 14.4992 13.9347 15.0205C12.84 14.8645 10.9094 13.0072 9.96764 12.2215C9.89619 13.6606 9.70612 15.0032 9.52034 16.4309C9.38744 17.2016 9.33885 18.2094 8.50143 18.4623C7.32389 17.8592 7.05951 14.1133 6.90946 12.8396C6.00059 13.4342 4.65586 14.7363 3.68553 14.8749L3.45401 14.6995C3.36112 13.969 4.80304 11.3021 5.21461 10.5726C4.17712 10.3892 0.122898 10.147 0 9.14534C0.681658 8.31626 3.83843 7.61862 4.96596 7.30416C4.44578 6.60594 2.91383 4.30929 2.97385 3.50964L3.10533 3.41105C4.03278 3.4492 5.83196 4.91435 6.63794 5.49655C6.63508 3.85196 6.38643 1.17969 7.40534 0Z" fill="#02743B"/>
<path d="M8.31449 9.05164C8.69747 9.07321 8.79323 9.10978 9.16622 9.21751C9.52919 9.62669 9.4363 9.42382 9.49489 9.99787C9.13905 9.99916 9.01473 9.9643 8.67604 9.89458C8.29734 9.49154 8.41024 9.68841 8.31449 9.05164Z" fill="#0A813F"/>
</svg>
