<svg width="108" height="110" viewBox="0 0 108 110" fill="none" xmlns="http://www.w3.org/2000/svg">
<path d="M11.0455 25.7484C3.50622 28.6618 4.64702 21.6622 6.32538 17.085C7.0981 14.6269 9.34143 13.3482 11.7857 12.7837C16.9193 11.5981 23.8694 9.36612 28.9344 11.5091L29.1066 11.2277C31.4548 11.0625 31.7571 19.0994 31.9431 20.8107C32.5561 20.7401 33.486 20.6329 34.0635 20.4664C35.1029 20.098 38.6948 20.4103 39.8948 20.2167C40.8215 20.1151 42.6916 19.8206 43.4876 20.2782L43.5554 20.4412L43.4689 20.6127L43.5449 20.7834C43.9631 20.8967 44.3774 21.0254 44.786 21.1694L46.0416 21.605C46.1421 21.3443 46.2502 21.0867 46.3658 20.8325C47.4827 18.4254 51.217 13.7522 53.6429 12.8485C57.8888 11.2672 66.8636 15.9721 70.7081 17.759C72.0415 18.6546 72.7239 19.1157 73.3995 20.6478C74.1095 23.3644 74.6791 27.1018 72.87 29.5501C71.6862 31.1511 69.6001 30.4797 68.0659 29.8297C67.7204 31.265 67.3388 32.2621 66.4261 33.4517C66.2492 33.6815 65.4566 34.6535 65.4197 34.8465C66.3647 35.6656 66.9742 36.2341 67.8482 37.1119C72.5237 36.2222 77.6376 37.9752 81.4829 40.5926C81.923 40.8929 82.3604 41.1962 82.7973 41.5024C86.6208 44.6569 88.1336 46.9832 90.73 51.2054C91.0717 51.774 92.2128 53.2628 91.5437 53.7225C90.8228 53.8219 90.116 53.5283 89.4266 53.2974C90.5157 54.1948 94.6153 58.1284 94.1264 59.5098C93.5627 59.8972 92.2894 59.6407 91.6001 59.5383C92.208 60.2184 94.3974 63.2044 94.1007 64.0458C93.6876 64.3043 91.1721 64.0062 90.5695 63.9303C91.5336 64.5118 94.2538 66.1598 93.6637 67.4657C93.1283 67.9408 92.2402 67.9421 91.5161 67.9391C91.528 68.3092 92.3728 69.4924 92.4193 70.1493C92.5533 72.047 92.4374 74.1729 92.1989 76.0606C92.1449 77.1669 92.002 79.0242 91.7812 80.117C93.2703 80.1471 96.2412 81.0107 96.2468 82.7598C96.2522 84.6899 91.7734 86.4229 90.3517 87.1011C86.1619 89.0982 81.9893 90.8178 77.5139 92.026C76.2459 92.366 74.7993 92.8166 73.5062 93.03C75.095 95.6752 74.5799 98.0649 71.8937 99.7767C70.6361 100.579 69.112 100.626 67.6631 100.472C66.2457 101.855 64.6264 102.74 62.5932 102.7C61.9357 102.689 61.283 102.583 60.6563 102.385C58.7139 103.454 57.1722 103.917 54.9619 103.274C54.2572 103.069 53.416 102.816 53.3839 101.986C53.5375 101.634 53.6437 101.581 53.9487 101.356C54.4034 101.362 54.7147 101.789 55.0896 101.931C56.7309 102.553 57.8866 102.375 59.2857 101.586C57.8536 100.516 56.8612 98.5146 58.1093 96.9318C58.2654 96.7387 58.4261 96.549 58.5925 96.3645C56.0611 96.9741 53.6496 97.1828 51.1297 97.5997C42.7947 98.9764 34.355 99.4158 25.9677 98.244C24.5298 98.0426 19.7996 97.7773 20.9944 95.2446C21.3717 94.4446 21.8711 93.7961 22.7055 93.4553C23.2843 91.5188 24.0966 91.7541 24.6199 90.7857C23.4977 89.065 23.2955 81.0688 24.0163 78.906C23.8672 78.7464 23.719 78.5867 23.5705 78.425C21.7237 76.4065 20.8567 74.1204 20.9806 71.3583C20.8568 71.4428 20.7316 71.5249 20.6041 71.6045C19.9002 72.0408 18.1991 73.1619 17.435 72.979C17.3277 72.8583 17.3076 72.8428 17.2634 72.6814C16.5239 70.0351 16.8662 67.2033 18.2144 64.809C16.6796 64.4461 12.9928 63.3808 13.8816 61.2057C13.6305 59.811 13.955 57.964 14.5998 56.692C14.0097 57.0011 10.7279 58.9405 10.3619 58.8873C9.66571 57.8686 10.5961 54.073 10.9042 52.9283C10.3163 53.4795 8.47224 55.3073 7.85628 55.5401L7.72272 55.399C7.3851 53.0764 8.5597 50.5131 9.74748 48.6123C9.14943 48.9785 5.92495 51.2824 5.60266 51.2559C5.48081 50.943 5.5347 50.703 5.57445 50.3629C5.99942 46.7266 8.25982 43.7216 11.0552 41.4976C10.2762 41.7414 7.53691 42.4234 6.79547 42.3141L6.71496 42.1567C7.54704 39.9694 10.6465 37.522 12.4885 36.191C11.5564 36.5009 9.29354 37.053 8.34892 36.7196C8.09754 36.4792 8.15483 36.6124 8.14597 36.2486C8.78453 34.7751 12.7282 32.5126 14.2181 31.8179C13.105 31.3147 9.77346 32.1691 12.0094 29.6362C11.475 28.2171 11.2256 27.2378 11.0455 25.7484ZM69.8185 60.7375C70.5289 60.8857 71.3286 61.0363 72.0278 61.2045C70.3837 62.9377 68.3141 63.9464 66.0728 64.6715L69.4832 66.9888C66.717 69.1257 65.2085 69.2699 61.8993 68.3672C63.4378 72.5767 62.9297 74.3036 60.136 77.7844C58.6808 76.5742 57.21 75.3814 55.7249 74.208C54.0321 76.1018 51.9315 77.5189 49.983 79.1417C47.9059 80.8716 47.5419 83.1296 46.3819 85.3631L45.9167 86.4703L45.5332 86.6094L45.0307 86.635C44.037 86.5116 42.0272 86.0127 41.0427 85.7617C39.8204 85.3391 39.1747 85.1163 38.0534 84.4836C37.9463 85.3028 37.8666 85.6684 37.6556 86.4547C37.4696 87.1038 37.2373 88.0519 36.8924 88.6046C33.1494 90.7916 31.3177 92.3444 26.4894 91.4138C25.9764 91.3146 24.9995 90.8644 24.6199 90.7857C24.0966 91.7541 23.2843 91.5188 22.7055 93.4553C21.8711 93.7961 21.3717 94.4446 20.9944 95.2446C19.7996 97.7773 24.5298 98.0426 25.9677 98.244C34.355 99.4158 42.7947 98.9764 51.1297 97.5997C53.6496 97.1828 56.0611 96.9741 58.5925 96.3645C58.4261 96.549 58.2654 96.7387 58.1093 96.9318C56.8612 98.5146 57.8536 100.516 59.2857 101.586C57.8866 102.375 56.7309 102.553 55.0896 101.931C54.7147 101.789 54.4034 101.362 53.9487 101.356C53.6437 101.581 53.5375 101.634 53.3839 101.986C53.416 102.816 54.2572 103.069 54.9619 103.274C57.1722 103.917 58.7139 103.454 60.6563 102.385C61.283 102.583 61.9357 102.689 62.5932 102.7C64.6264 102.74 66.2457 101.855 67.6631 100.472C69.112 100.626 70.6361 100.579 71.8937 99.7767C74.5799 98.0649 75.095 95.6752 73.5062 93.03C74.7993 92.8166 76.2459 92.366 77.5139 92.026C81.9893 90.8178 86.1619 89.0982 90.3517 87.1011C91.7734 86.4229 96.2522 84.6899 96.2468 82.7598C96.2412 81.0107 93.2703 80.1471 91.7812 80.117C92.002 79.0242 92.1449 77.1669 92.1989 76.0606C92.4374 74.1729 92.5533 72.047 92.4193 70.1493C92.3728 69.4924 91.528 68.3092 91.5161 67.9391C92.2402 67.9421 93.1283 67.9408 93.6637 67.4657C94.2538 66.1598 91.5336 64.5118 90.5695 63.9303C91.1721 64.0062 93.6876 64.3043 94.1007 64.0458C94.3974 63.2044 92.208 60.2184 91.6001 59.5383C92.2894 59.6407 93.5627 59.8972 94.1264 59.5098C94.6153 58.1284 90.5157 54.1948 89.4266 53.2974C90.116 53.5283 90.8228 53.8219 91.5437 53.7225C92.2128 53.2628 91.0717 51.774 90.73 51.2054C88.1336 46.9832 86.6208 44.6569 82.7973 41.5024C82.3604 41.1962 81.923 40.8929 81.4829 40.5926C77.6376 37.9752 72.5237 36.2222 67.8482 37.1119C73.494 44.218 75.2177 52.9749 69.8185 60.7375Z" fill="#FEFEFE"/>
<path d="M67.8481 37.1121C72.5237 36.2224 77.6376 37.9754 81.4829 40.5927C81.9229 40.8931 82.3604 41.1964 82.7972 41.5025C86.6207 44.6571 88.1335 46.9833 90.73 51.2056C91.0717 51.7742 92.2127 53.263 91.5436 53.7226C90.8228 53.822 90.1159 53.5284 89.4266 53.2976C90.5157 54.195 94.6153 58.1286 94.1264 59.5099C93.5627 59.8974 92.2894 59.6408 91.6 59.5385C92.208 60.2186 94.3974 63.2045 94.1007 64.0459C93.6875 64.3045 91.172 64.0064 90.5695 63.9305C91.5336 64.5119 94.2538 66.16 93.6637 67.4659C93.1283 67.9409 92.2401 67.9423 91.5161 67.9393C91.5279 68.3093 92.3727 69.4926 92.4193 70.1494C92.5533 72.0471 92.4373 74.1731 92.1989 76.0607C92.1449 77.1671 92.002 79.0243 91.7812 80.1172C93.2703 80.1473 96.2412 81.0109 96.2468 82.76C96.2522 84.69 91.7733 86.4231 90.3517 87.1013C86.1619 89.0983 81.9893 90.818 77.5139 92.0262C76.2458 92.3662 74.7992 92.8167 73.5062 93.0301C75.095 95.6753 74.5798 98.0651 71.8937 99.7769C70.636 100.579 69.112 100.626 67.6631 100.473C66.2456 101.855 64.6264 102.74 62.5931 102.7C61.9356 102.689 61.283 102.583 60.6562 102.385C58.7139 103.455 57.1721 103.917 54.9619 103.274C54.2572 103.07 53.4159 102.816 53.3839 101.987C53.5374 101.634 53.6437 101.581 53.9487 101.357C54.4033 101.362 54.7146 101.789 55.0896 101.931C56.7309 102.553 57.8866 102.375 59.2856 101.586C57.8535 100.517 56.8612 98.5148 58.1093 96.9319C58.2654 96.7389 58.426 96.5492 58.5925 96.3647C56.061 96.9742 53.6495 97.183 51.1297 97.5999C42.7947 98.9765 34.355 99.416 25.9676 98.2442C24.5298 98.0428 19.7995 97.7775 20.9944 95.2448C21.3717 94.4448 21.871 93.7963 22.7054 93.4554C23.2842 91.5189 24.0965 91.7542 24.6199 90.7859C24.9995 90.8646 25.9763 91.3148 26.4894 91.4139C31.3177 92.3445 33.1493 90.7917 36.8924 88.6048C37.2373 88.0521 37.4695 87.104 37.6555 86.4548C37.8665 85.6686 37.9463 85.303 38.0533 84.4838C39.1746 85.1165 39.8204 85.3393 41.0427 85.7619C42.0271 86.0129 44.037 86.5118 45.0307 86.6351L45.5332 86.6096L45.9166 86.4704L46.3818 85.3633C47.5418 83.1298 47.9058 80.8718 49.9829 79.1419C51.9315 77.5191 54.032 76.1019 55.7249 74.2081C57.2099 75.3816 58.6807 76.5744 60.1359 77.7846C62.9297 74.3037 63.4377 72.5769 61.8992 68.3673C65.2085 69.2701 66.717 69.1258 69.4831 66.989L66.0727 64.6717C68.3141 63.9466 70.3837 62.9379 72.0278 61.2047C71.3285 61.0364 70.5289 60.8858 69.8185 60.7377C75.2176 52.9751 73.4939 44.2181 67.8481 37.1121ZM77.3125 80.735C76.5122 83.1299 74.8907 83.9996 72.4848 84.4419C72.1506 84.505 71.9164 84.4996 71.5799 84.5064C71.1834 84.4303 70.9392 84.4324 70.5426 84.4229L69.9281 84.3278C69.1663 84.1062 68.646 83.7485 68.6156 82.9093C68.7045 82.7465 68.7609 82.6441 68.8223 82.4662L68.8633 82.3419C68.365 82.7063 68.2679 82.8411 67.6039 82.719C66.6467 82.5427 65.7451 82.1288 64.784 81.8723C65.4774 83.4287 66.0801 84.7502 66.0539 86.4889C64.7147 86.2646 63.0634 85.7445 61.8684 85.0985C60.7206 87.4474 58.4117 90.8589 56.629 92.7398C54.6513 89.4464 49.0532 87.0223 45.3535 88.1803C45.3849 87.6936 45.7263 86.9485 45.9166 86.4704L45.5332 86.6096L45.0307 86.6351C44.037 86.5118 42.0271 86.0129 41.0427 85.7619C39.8204 85.3393 39.1746 85.1165 38.0533 84.4838C37.9463 85.303 37.8665 85.6686 37.6555 86.4548C37.4695 87.104 37.2373 88.0521 36.8924 88.6048C33.1493 90.7917 31.3177 92.3445 26.4894 91.4139C25.9763 91.3148 24.9995 90.8646 24.6199 90.7859C24.0965 91.7542 23.2842 91.5189 22.7054 93.4554C21.871 93.7963 21.3717 94.4448 20.9944 95.2448C19.7995 97.7775 24.5298 98.0428 25.9676 98.2442C34.355 99.416 42.7947 98.9765 51.1297 97.5999C53.6495 97.183 56.061 96.9742 58.5925 96.3647C58.426 96.5492 58.2654 96.7389 58.1093 96.9319C56.8612 98.5148 57.8535 100.517 59.2856 101.586C57.8866 102.375 56.7309 102.553 55.0896 101.931C54.7146 101.789 54.4033 101.362 53.9487 101.357C53.6437 101.581 53.5374 101.634 53.3839 101.987C53.4159 102.816 54.2572 103.07 54.9619 103.274C57.1721 103.917 58.7139 103.455 60.6562 102.385C61.283 102.583 61.9356 102.689 62.5931 102.7C64.6264 102.74 66.2456 101.855 67.6631 100.473C69.112 100.626 70.636 100.579 71.8937 99.7769C74.5798 98.0651 75.095 95.6753 73.5062 93.0301C74.7992 92.8167 76.2458 92.3662 77.5139 92.0262C81.9893 90.818 86.1619 89.0983 90.3517 87.1013C91.7733 86.4231 96.2522 84.69 96.2468 82.76C96.2412 81.0109 93.2703 80.1473 91.7812 80.1172C92.002 79.0243 92.1449 77.1671 92.1989 76.0607C88.622 75.0776 84.9613 77.9039 82.3924 80.1569C82.2855 79.2787 82.7735 76.3353 82.9438 75.3985C81.1643 75.3936 79.4815 75.0883 77.9392 74.1406C77.9775 75.1816 77.8691 75.8697 77.8763 76.7901C77.7744 77.6642 77.5417 79.9895 77.3125 80.735Z" fill="#1D3B5F"/>
<path d="M50.3783 88.1802C54.0779 87.0222 59.6761 89.4463 61.6538 92.7397C59.3126 95.2315 56.8751 96.4434 53.4818 96.4189C51.9998 96.4089 52.0628 96.4723 50.607 95.9411C50.0605 95.7327 49.9423 95.6857 49.4662 95.3537C46.8414 93.2482 48.9982 90.3344 50.3783 88.1802Z" fill="#FEFEFE"/>
<path d="M49.4658 95.3538C49.5969 94.6755 49.8104 92.6683 50.7036 92.552C50.8187 92.7137 50.8599 92.7934 50.7984 93.0309C50.4158 94.5289 50.3504 94.4356 50.6066 95.9412C50.0601 95.7328 49.9419 95.6858 49.4658 95.3538Z" fill="#F3EADF"/>
<path d="M82.3924 80.1569C84.9613 77.9039 88.622 75.0775 92.1989 76.0607C92.1449 77.1671 92.0019 79.0243 91.7812 80.1171C91.3891 81.9641 91.1162 82.992 89.4152 84.1615C88.1376 85.0395 85.348 85.6462 83.8372 85.3152C83.7453 85.2956 83.655 85.2727 83.5651 85.2457C83.2516 85.2178 82.97 85.1457 82.664 85.0793C80.2048 84.015 81.4148 82.1499 82.29 80.5672L82.3924 80.1569Z" fill="#FEFEFE"/>
<path d="M87.689 85.0793C87.8155 84.7219 87.7548 84.6401 87.7412 84.2723C87.6872 82.8486 87.8479 82.6185 88.8035 81.6685C88.5107 83.2197 88.1709 83.7251 88.5901 85.2458C88.2767 85.2178 87.995 85.1457 87.689 85.0793Z" fill="#F3EADF"/>
<path d="M29.6449 90.7858C30.0245 90.8644 31.0013 91.3146 31.5144 91.4138C36.3427 92.3444 38.1743 90.7916 41.9174 88.6046C41.8543 89.1364 41.8007 89.3051 41.6339 89.819C40.706 92.6725 40.4508 94.1706 37.465 95.7908C35.7635 96.7139 32.5 97.2196 30.6231 96.7241C30.0218 96.5553 29.8596 96.5047 29.3169 96.2069C29.1682 96.1049 29.0231 95.9992 28.8803 95.8892C27.9464 95.1649 27.8737 94.5766 27.7304 93.4553C28.3092 91.5188 29.1215 91.7541 29.6449 90.7858Z" fill="#FEFEFE"/>
<path d="M29.3167 96.207C29.7062 95.8043 29.4764 93.6027 30.8522 92.9152L30.9984 92.9944C31.097 93.6404 30.5336 94.3611 30.4632 95.0466C30.4023 95.6467 30.5034 96.1409 30.6229 96.7242C30.0216 96.5554 29.8594 96.5048 29.3167 96.207Z" fill="#F3EADF"/>
<path d="M69.2778 79.5459C70.8432 78.7613 72.3713 77.8955 73.9549 77.1375C75.4394 76.4267 76.3208 76.3193 77.8767 76.7901C77.7748 77.6641 77.5422 79.9894 77.313 80.7349C76.5126 83.1299 74.8912 83.9996 72.4853 84.4419C72.1511 84.5049 71.9168 84.4995 71.5803 84.5064C71.1839 84.4302 70.9396 84.4323 70.5431 84.4229L69.9285 84.3278C69.1668 84.1061 68.6464 83.7484 68.616 82.9093C68.7049 82.7465 68.7614 82.6441 68.8227 82.4662L68.8638 82.3418L68.5727 81.185C69.0267 80.6049 69.4224 80.3174 69.2778 79.5459Z" fill="#FEFEFE"/>
<path d="M74.953 84.3278C75.0035 83.1846 74.5772 82.8886 75.2597 81.7268L75.4287 81.6136L75.3151 81.6579L75.4862 81.6737C75.6952 82.3892 75.394 83.3092 75.5675 84.4229L74.953 84.3278Z" fill="#F3EADF"/>
<path d="M76.8078 83.0575C77.022 82.5971 77.1029 82.3809 77.4355 81.9958L77.5706 81.9867C77.6595 82.9606 77.2973 83.1066 77.5099 84.4419C77.1757 84.505 76.9414 84.4996 76.6049 84.5064C77.1335 84.1617 76.871 83.6765 76.8078 83.0575Z" fill="#F3EADF"/>
<path d="M82.9439 75.3985C85.587 74.7985 87.3845 73.4973 89.1612 71.495C89.8143 70.5972 90.9106 69.4999 90.9359 68.3503C90.9395 68.1578 90.5104 67.8087 90.3691 67.7015L90.5642 67.7158L90.5056 67.6953L90.6074 67.8427L90.7045 67.7413C91.0256 67.8479 91.181 67.8802 91.5163 67.9393C91.5281 68.3093 92.3729 69.4925 92.4195 70.1494C92.5534 72.0471 92.4375 74.1731 92.1991 76.0607C88.6222 75.0775 84.9615 77.9039 82.3926 80.1569C82.2857 79.2787 82.7736 76.3353 82.9439 75.3985Z" fill="#152638"/>
<path d="M67.5384 78.4134C68.6271 78.9085 68.942 78.3108 69.2771 79.5459C69.4217 80.3175 69.026 80.6049 68.572 81.185C68.2245 80.3266 67.9049 79.3306 67.5384 78.4134Z" fill="#FECA07"/>
<path d="M46.0416 21.605C46.1421 21.3442 46.2501 21.0867 46.3658 20.8325C47.4826 18.4253 51.217 13.7521 53.6429 12.8484C57.8887 11.2671 66.8635 15.9721 70.7081 17.7589C72.0415 18.6545 72.7238 19.1157 73.3994 20.6477C74.1095 23.3643 74.679 27.1018 72.87 29.55C71.6862 31.151 69.6 30.4796 68.0658 29.8297C67.7204 31.2649 67.3388 32.2621 66.4261 33.4517C66.2492 33.6815 65.4565 34.6535 65.4197 34.8464C65.0682 35.0642 64.7892 35.3549 64.4871 35.6394C64.1176 36.0001 63.8269 36.2264 63.4187 36.5444C63.9738 37.101 64.5896 37.5838 65.159 38.1478C66.4455 39.4466 67.6195 40.8515 68.6707 42.3474C67.3358 42.0709 66.3555 41.9761 64.9893 41.896C66.8709 43.6533 68.9996 45.4415 70.1537 47.7548L70.1398 47.9524C69.7038 48.1864 66.0651 47.4595 65.4091 47.3369C67.2785 49.1819 69.2381 51.326 68.8023 54.1864L68.6935 54.2693C68.3664 54.1773 65.1756 52.2477 64.4742 51.875C65.0853 53.6789 66.3147 56.9837 66.1442 58.8389L66.0136 58.9521C65.5663 58.8396 62.2818 56.5606 61.622 56.1348C62.1675 57.6694 62.658 59.0378 62.8924 60.654C61.3495 59.7971 59.955 58.7765 58.4539 57.8614C58.718 58.6686 59.7793 61.6117 59.5496 62.2322C58.7244 62.7157 54.8385 61.8558 53.8138 61.5997C52.4175 61.2503 51.7497 60.7375 50.5395 59.9969L49.6578 59.5745C48.6699 59.1722 43.5259 57.6979 43.2725 57.1109C43.9103 56.8276 45.9326 57.2811 46.6766 57.4381C46.2686 51.2911 43.0348 50.2507 40.9893 45.0896C40.4105 43.6301 40.5837 40.1493 40.6659 38.5147C40.9395 33.1012 42.1555 25.9463 44.786 21.1693L46.0416 21.605Z" fill="#1D3B5F"/>
<path d="M46.0412 21.605C46.1418 21.3443 46.2498 21.0867 46.3655 20.8325C47.4823 18.4254 51.2167 13.7522 53.6426 12.8485C57.8884 11.2672 66.8632 15.9721 70.7078 17.759C72.0412 18.6546 72.7235 19.1157 73.3991 20.6478C74.1092 23.3644 74.6787 27.1018 72.8696 29.5501C71.6859 31.1511 69.5997 30.4797 68.0655 29.8297C67.7201 31.265 67.3385 32.2621 66.4258 33.4517C66.2489 33.6815 65.4562 34.6535 65.4194 34.8465C65.0679 35.0643 64.7889 35.355 64.4868 35.6395C64.1479 35.5491 61.5495 32.5653 61.4327 32.2571C59.2666 30.219 56.9438 28.0176 54.4809 26.3533C53.5287 25.7098 52.5716 25.0939 51.6308 24.4312C49.7734 23.3028 47.7768 22.5745 46.0412 21.605Z" fill="#152638"/>
<path d="M56.1951 18.296C58.033 19.8495 59.7561 22.6155 61.3097 24.4914C62.2171 25.5862 63.3492 26.494 64.2309 27.4981C63.7573 28.752 62.3897 31.3345 61.433 32.2571C59.267 30.2191 56.9441 28.0177 54.4812 26.3534C53.5291 25.7099 52.572 25.094 51.6311 24.4313C52.8214 22.3464 54.2055 19.7388 56.1951 18.296Z" fill="#FD83AB"/>
<path d="M49.6581 59.5747C49.9064 59.1395 49.7729 59.234 50.1443 59.0881C50.632 59.1599 51.1405 59.3501 51.619 59.4955L51.6862 59.648C51.3153 59.8707 50.9747 59.7827 50.5398 59.9971L49.6581 59.5747Z" fill="#152638"/>
<path d="M52.1747 48.5599C57.8752 47.5495 60.2065 53.798 54.5788 55.817C52.369 56.2726 49.8833 55.5587 49.1396 53.2186C48.8567 52.3334 48.9414 51.3717 49.3744 50.5494C49.9818 49.4127 50.9958 48.9082 52.1747 48.5599Z" fill="#FD83AB"/>
<path d="M45.8372 42.5246C50.343 42.2306 51.1918 48.1892 47.5182 49.2578C46.6735 49.3606 45.964 49.3397 45.1913 48.93C44.4094 48.5056 43.829 47.7867 43.5791 46.9328C42.9952 44.9926 43.8317 43.0899 45.8372 42.5246Z" fill="#1D1D1D"/>
<path d="M45.7022 43.2927C46.7595 43.2195 47.3506 44.2132 46.3414 44.8446C45.0876 44.7867 44.7161 44.1671 45.7022 43.2927Z" fill="#FEFEFE"/>
<path d="M49.3075 39.5746L49.0966 39.668C48.339 39.4426 47.1452 39.2229 46.2849 39.2736C45.542 39.3168 43.8492 40.1304 43.0304 39.944C42.9069 39.9154 42.8797 39.7567 42.8181 39.6114C44.0539 38.7823 48.892 37.2303 49.3075 39.5746Z" fill="#152638"/>
<path d="M11.0455 25.7484C3.50622 28.6618 4.64702 21.6622 6.32538 17.085C7.09811 14.6269 9.34143 13.3482 11.7857 12.7837C16.9193 11.5981 23.8694 9.36612 28.9344 11.5091L29.1066 11.2277C31.4548 11.0625 31.7571 19.0994 31.9431 20.8107C32.5561 20.7401 33.486 20.6329 34.0635 20.4664C32.8699 23.1176 31.9822 25.104 31.5621 28.0417C31.3542 29.5925 31.2491 31.1551 31.2473 32.7195C31.2566 35.7244 31.5781 38.5997 30.9093 41.5575C30.2189 44.6138 28.3344 45.7793 25.986 47.4921C23.9547 48.9738 20.8488 52.5033 21.2006 55.1351C21.5597 55.2047 21.8328 55.2133 22.0877 55.4583L22.1261 55.6746C21.856 55.9435 21.6778 55.9483 21.2798 55.9493C21.2201 55.9491 21.1594 55.9482 21.0994 55.9462C20.913 56.1253 20.8964 56.2986 20.8318 56.543C21.0386 57.487 21.7777 57.0968 22.2051 57.6914C21.8984 58.3512 20.2904 58.3711 19.6062 58.445C17.2987 58.694 15.5247 59.5807 13.8816 61.2057C13.6305 59.811 13.955 57.964 14.5998 56.692C14.0097 57.0011 10.7279 58.9405 10.3619 58.8873C9.66571 57.8686 10.5961 54.073 10.9042 52.9283C10.3163 53.4795 8.47224 55.3073 7.85628 55.5401L7.72272 55.399C7.3851 53.0764 8.5597 50.5131 9.74748 48.6123C9.14943 48.9785 5.92495 51.2824 5.60266 51.2559C5.48081 50.943 5.5347 50.703 5.57445 50.3629C5.99942 46.7266 8.25982 43.7216 11.0552 41.4976C10.2762 41.7414 7.53692 42.4234 6.79547 42.3141L6.71496 42.1567C7.54704 39.9694 10.6465 37.522 12.4885 36.191C11.5564 36.5009 9.29354 37.053 8.34892 36.7196C8.09754 36.4792 8.15483 36.6124 8.14597 36.2486C8.78453 34.7751 12.7282 32.5126 14.2181 31.8179C13.105 31.3147 9.77346 32.1691 12.0094 29.6362C11.475 28.2171 11.2256 27.2378 11.0455 25.7484Z" fill="#1D3B5F"/>
<path d="M11.0457 25.7485C3.50638 28.6618 4.64718 21.6622 6.32554 17.085C7.09826 14.6269 9.34159 13.3482 11.7858 12.7838C16.9195 11.5981 23.8695 9.36614 28.9345 11.5091L29.1067 11.2277C31.455 11.0625 31.7573 19.0994 31.9432 20.8107C30.7275 20.804 28.4536 21.8459 27.2498 22.2572C26.895 22.3785 25.8958 22.9085 25.5849 22.7078C25.5002 22.8306 22.2348 24.6024 21.6877 25.0734C21.274 25.4296 18.1681 27.6261 17.917 27.684C17.8128 28.5087 15.0493 31.3664 14.2183 31.818C13.1052 31.3147 9.77362 32.1691 12.0096 29.6363C11.4751 28.2171 11.2258 27.2378 11.0457 25.7485Z" fill="#152638"/>
<path d="M14.8037 23.9275C16.5552 22.7112 17.772 21.791 19.3692 20.4004C20.4101 19.494 22.6862 17.3711 23.7851 16.6839C24.9832 18.5743 25.1781 20.5826 25.5846 22.7079C25.4999 22.8307 22.2345 24.6025 21.6874 25.0735C21.2737 25.4297 18.1678 27.6263 17.9167 27.6841C17.3669 27.7786 16.7015 27.9451 16.1478 28.0675C15.4362 26.4367 15.0952 25.71 14.8037 23.9275Z" fill="#FD83AB"/>
<path d="M21.0993 55.9461C20.0561 55.7077 16.7971 56.1351 16.4652 55.8485C16.961 55.2372 20.4181 54.9653 21.2005 55.135C21.5595 55.2047 21.8327 55.2133 22.0876 55.4582L22.1259 55.6745C21.8559 55.9434 21.6777 55.9482 21.2797 55.9492C21.22 55.949 21.1592 55.9481 21.0993 55.9461Z" fill="#152638"/>
<path d="M16.2433 45.9422C18.1918 45.6715 20.3356 46.5323 21 48.4969C21.2816 49.3333 21.2121 50.2483 20.8067 51.0322C20.2629 52.0864 19.3989 52.6279 18.3021 52.9648C12.5672 53.9506 11.5075 47.4785 16.2433 45.9422Z" fill="#FD83AB"/>
<path d="M23.9669 40.6143C27.8376 39.9515 28.8528 45.4889 25.2179 47.0122C24.5217 47.1215 23.9278 47.2523 23.2394 46.9938C21.5794 46.3748 21.1888 44.1997 21.7813 42.7005C22.2272 41.5723 22.8899 41.0834 23.9669 40.6143Z" fill="#1D1D1D"/>
<path d="M25.0608 41.4886C25.428 41.3419 25.8462 41.5097 26.0102 41.8698C26.1741 42.2299 26.0264 42.6552 25.6745 42.836C25.4314 42.9608 25.1395 42.9419 24.9142 42.7867C24.6899 42.6315 24.5683 42.3653 24.5995 42.0938C24.6297 41.8225 24.8071 41.5899 25.0608 41.4886Z" fill="#FEFEFE"/>
<path d="M22.407 38.1191L22.2704 37.9494C22.158 37.5376 22.354 37.0749 22.7519 36.9536C24.3313 36.4708 26.5969 37.442 28.0033 38.0089C28.3299 38.2215 28.248 38.1062 28.3922 38.4377C27.9567 39.0967 25.8322 37.8355 24.9057 37.8073C23.7334 37.7714 23.5795 37.7655 22.407 38.1191Z" fill="#152638"/>
<path d="M25.314 80.3674C26.0804 79.3547 26.6232 78.1924 27.3983 77.1363C27.9653 80.5866 29.5465 83.141 32.9628 84.3816C32.7372 83.02 32.7283 82.1018 32.6673 80.7328C34.774 82.4954 35.5641 83.1503 38.0534 84.4839C37.9464 85.3031 37.8666 85.6687 37.6556 86.4549C37.4696 87.1041 37.2374 88.0522 36.8924 88.6049C33.1494 90.7918 31.3178 92.3446 26.4895 91.414C25.9764 91.3149 24.9996 90.8647 24.62 90.786C23.4978 89.0653 23.2956 81.0691 24.0164 78.9063C24.4399 79.4007 24.8725 79.8877 25.314 80.3674Z" fill="#152638"/>
<path d="M48.9254 82.9938C49.8768 83.8762 50.2076 84.6088 51.4067 85.3632L50.9415 86.4704L50.558 86.6095L50.0555 86.6351C50.0258 86.4698 49.6997 85.8365 49.6036 85.6053C49.1956 84.6266 49.0802 84.0164 48.9254 82.9938Z" fill="#F3EADF"/>
<path d="M29.7026 51.6082C31.9134 51.0978 36.0829 51.5898 37.2091 53.831C37.469 54.3398 37.51 54.9321 37.3239 55.4723C36.9319 56.6229 35.8556 57.394 34.8216 57.914C29.1452 60.0192 23.9024 53.6556 29.7026 51.6082Z" fill="#152638"/>
<path d="M42.9879 58.9704C44.2474 58.7895 47.4305 60.7216 48.3221 61.6702C48.6104 61.9763 48.6036 62.1206 48.5847 62.4942C48.037 62.4877 43.1572 59.4542 42.9879 58.9704Z" fill="#1D1D1D"/>
<path d="M87.3648 37.9409C88.1919 35.1031 88.0252 33.8858 87.0643 31.2216C86.9628 30.9415 87.1921 30.7177 87.43 30.5649C88.3946 30.4528 89.7698 31.3309 90.5087 31.8929C92.3942 33.3253 93.3798 35.4982 93.646 37.8144C93.7976 39.1331 93.6301 39.8178 93.2868 41.0445C94.1383 40.169 95.0311 38.9543 95.7202 37.9251C96.2232 37.1724 96.2756 35.7576 97.0377 35.4405C97.3465 35.4981 97.5244 35.62 97.6867 35.9019C99.7579 39.5029 98.2647 43.5311 95.4488 46.174C96.0744 45.9981 96.8051 45.7682 97.4076 45.5939C97.9869 45.4263 99.5702 44.6053 99.9263 44.6482C100.794 46.0813 97.3603 49.545 96.1494 50.2675C94.5206 51.2372 92.5907 51.5712 90.7301 51.2054C88.1336 46.9832 86.6208 44.6569 82.7973 41.5024C83.5528 40.7958 84.0296 40.3479 84.4801 39.3724C84.6969 38.8959 84.8492 38.393 84.9337 37.8765C85.0405 37.2315 84.9442 35.7081 85.3456 35.4045C86.007 35.4819 87.0451 37.384 87.3648 37.9409Z" fill="#152638"/>
</svg>
