<svg width="138" height="136" viewBox="0 0 138 136" fill="none" xmlns="http://www.w3.org/2000/svg">
<path d="M51.2267 9.21724C51.0208 8.52107 49.3192 5.66171 49.8491 5.17989C52.7861 2.51475 61.161 1.77733 64.973 0.85688C72.6545 -0.998607 74.3168 -0.23622 71.9823 7.11738C74.892 6.41314 87.5392 5.67261 90.8123 5.55337C95.899 5.36817 115.604 2.87473 119.01 4.07061C120.176 7.42557 120.682 12.0977 121.281 15.7073L124.157 32.3501C125.829 41.8461 139.517 112.893 137.798 116.187C133.317 119.317 108.14 122.749 101.41 123.793C90.5155 125.494 79.6336 127.26 68.7638 129.092L40.0511 134.035C37.4139 134.47 29.9716 135.857 27.5856 136C26.2474 131.483 24.4095 129.925 20.8155 126.896C20.4794 124.164 17.4728 111.983 16.9944 109.619C14.8174 98.8092 -2.83468 26.7205 0.392954 20.3709C5.71886 15.3959 41.8436 10.162 51.2267 9.21724ZM58.7629 4.37776L60.2435 7.09597C60.3798 7.08326 60.513 7.07051 60.6462 7.05776C62.8142 4.835 64.646 6.35606 67.2377 7.50828C67.8524 6.19613 68.9454 4.03925 69.3058 2.7302L68.7638 2.62256C65.8964 3.21976 61.709 3.98407 58.7629 4.37776Z" fill="#FE9B01"/>
<path d="M51.334 10.0032C51.1277 9.24768 49.4225 6.14449 49.9535 5.62159C52.8966 2.72919 61.289 1.92888 65.109 0.929947C72.8066 -1.08376 74.4724 -0.256363 72.1331 7.72429C71.6688 9.04241 71.329 10.4765 70.3368 11.408C68.3616 12.1118 65.9222 10.0625 63.9409 11.252C63.6102 12.5845 63.6405 13.4989 62.703 14.1475C61.1465 13.8143 60.4273 12.6634 59.4504 11.4401C58.1942 14.3133 58.1032 14.6017 55.4332 16.1562C53.8433 14.0276 52.7358 12.2619 51.334 10.0032ZM58.886 4.75106L60.3697 7.70106C60.5062 7.68726 60.6398 7.67342 60.7733 7.65959C62.9457 5.24729 64.7813 6.89805 67.3786 8.14852C67.9945 6.72448 69.0898 4.38368 69.4509 2.96301L68.9078 2.84619C66.0344 3.49431 61.8382 4.3238 58.886 4.75106Z" fill="#1D1D1D"/>
<path d="M15.4191 41.9143L17.3022 32.3337L18.6521 32.1339L18.9023 33.8245L18.4165 33.8964L17.1223 41.6623L15.4191 41.9143ZM16.6985 39.3205L16.9354 38.0026L21.1115 37.3848L21.7199 38.5776L16.6985 39.3205ZM22.0112 40.939L18.5238 33.8805L18.2737 32.1899L19.1316 32.063L23.7144 40.687L22.0112 40.939ZM25.2789 40.4555L23.9321 31.3528L25.5596 31.112L26.9064 40.2148L25.2789 40.4555ZM35.4279 31.0196C35.8033 30.9993 36.1738 30.9753 36.5394 30.9476C36.9123 30.91 37.2925 30.8626 37.6801 30.8052C38.4553 30.6905 39.2253 30.5414 39.9903 30.3578C40.7553 30.1742 41.4598 29.9688 42.1038 29.7415L42.2892 30.9946C41.6168 31.2085 40.8968 31.3987 40.1293 31.565C39.3704 31.7301 38.6083 31.8737 37.843 31.9957C37.4641 32.0518 37.0925 32.0979 36.7282 32.1342C36.3725 32.1693 36.0033 32.2019 35.6205 32.2321L35.4279 31.0196ZM39.7831 28.0649C39.785 28.1967 39.7875 28.3327 39.7907 28.4731C39.8024 28.6121 39.8136 28.7469 39.8241 28.8774C39.8371 29.0251 39.8572 29.2201 39.8842 29.4626C39.9199 29.7037 39.9545 29.9671 39.9879 30.2526C40.0287 30.5282 40.0695 30.8038 40.1102 31.0794C40.1905 31.622 40.2762 32.1418 40.3674 32.6388C40.4671 33.1345 40.563 33.6044 40.6551 34.0484C40.7472 34.4925 40.8312 34.9113 40.907 35.305C40.9816 35.69 41.0425 36.0418 41.0896 36.3605C41.1329 36.6534 41.1356 36.939 41.0976 37.2175C41.0596 37.4959 40.9654 37.7519 40.8151 37.9854C40.6648 38.2188 40.4429 38.4145 40.1494 38.5723C39.8658 38.7375 39.5001 38.8532 39.0522 38.9195C38.1737 39.0495 37.4678 38.9779 36.9345 38.7047C36.4013 38.4316 36.0887 37.9849 35.997 37.3648C35.9384 36.9686 35.9938 36.5996 36.1632 36.2576C36.3413 35.9144 36.6194 35.6225 36.9974 35.3817C37.3841 35.1397 37.8659 34.976 38.443 34.8906C39.02 34.8052 39.555 34.7921 40.0478 34.8512C40.5393 34.9017 41.0034 35.0047 41.4401 35.1601C41.8755 35.3069 42.271 35.4816 42.6266 35.6843C42.9908 35.8856 43.3237 36.0828 43.6251 36.2758L43.088 37.4643C42.5566 37.0852 42.0342 36.7664 41.5207 36.508C41.0158 36.2482 40.5131 36.0629 40.0126 35.9522C39.5122 35.8414 39.0036 35.8242 38.4868 35.9007C38.0475 35.9657 37.7028 36.1047 37.4527 36.3177C37.2112 36.5295 37.1108 36.7731 37.1516 37.0487C37.1962 37.3502 37.3635 37.5587 37.6534 37.6742C37.9421 37.7811 38.2931 37.804 38.7065 37.7428C39.0252 37.6957 39.2673 37.6071 39.4329 37.477C39.5985 37.3468 39.7054 37.177 39.7536 36.9674C39.8018 36.7579 39.8061 36.5196 39.7666 36.2526C39.7335 36.0287 39.6803 35.7285 39.607 35.3521C39.5324 34.967 39.4485 34.5482 39.3551 34.0955C39.2605 33.6343 39.1688 33.1638 39.0803 32.684C38.9904 32.1956 38.9123 31.7275 38.8461 31.2796C38.7773 30.8145 38.7142 30.3882 38.6568 30.0006C38.5982 29.6044 38.5536 29.303 38.5231 29.0963C38.5065 28.9843 38.4781 28.8521 38.438 28.6996C38.4051 28.5372 38.3669 28.3977 38.3232 28.2809L39.7831 28.0649ZM33.4569 29.1197C33.4413 29.1924 33.4258 29.2959 33.4105 29.4302C33.3951 29.5645 33.3798 29.6988 33.3645 29.8331C33.3577 29.9661 33.3515 30.0726 33.3457 30.1527C33.3333 30.3658 33.3211 30.6404 33.3092 30.9766C33.3047 31.3029 33.3009 31.6643 33.298 32.0608C33.3024 32.4474 33.308 32.8427 33.315 33.2465C33.3305 33.6491 33.3478 34.0338 33.3669 34.4006C33.3946 34.7662 33.4288 35.0867 33.4696 35.3624C33.5027 35.5863 33.5451 35.8133 33.5967 36.0432C33.6471 36.2646 33.7073 36.4934 33.7775 36.7294C33.811 36.5396 33.8525 36.3443 33.902 36.1433C33.9502 35.9337 33.999 35.7285 34.0485 35.5275C34.1066 35.3253 34.1586 35.1416 34.2046 34.9764L34.9251 35.3846C34.8616 35.7285 34.7932 36.0995 34.7201 36.4975C34.6457 36.887 34.5817 37.2573 34.528 37.6085C34.483 37.9584 34.4512 38.2492 34.4326 38.4808C34.4281 38.5694 34.4262 38.6754 34.4268 38.7985C34.4348 38.9117 34.4445 39.0071 34.456 39.0846C34.4735 39.1436 34.4886 39.2162 34.5014 39.3023C34.524 39.3958 34.5454 39.4806 34.5654 39.5569L33.429 39.8174C33.2237 39.3813 33.0177 38.8221 32.8111 38.1398C32.6119 37.4475 32.4473 36.6622 32.3173 35.7837C32.246 35.3013 32.1936 34.7986 32.1602 34.2755C32.1256 33.7437 32.1014 33.2236 32.0878 32.7152C32.0828 32.2054 32.0799 31.7394 32.079 31.317C32.0781 30.8947 32.0801 30.5512 32.0849 30.2864C32.0779 30.1202 32.069 29.9411 32.0582 29.7491C32.056 29.5558 32.0465 29.3723 32.0296 29.1988L33.4569 29.1197ZM51.3471 26.9877L52.4323 26.8272L53.7913 36.0128L52.7061 36.1733L51.3471 26.9877ZM48.7811 26.8657L54.9952 25.9463L56.5778 36.6435L55.4409 36.8117L54.0265 27.2514L50.0474 27.8401L51.479 37.5166L50.3809 37.6791L48.7811 26.8657ZM50.0348 31.2349L54.9828 30.5029L55.1472 31.6139L50.1991 32.346L50.0348 31.2349ZM50.7057 35.7696L55.6279 35.0413L55.7923 36.1524L50.87 36.8806L50.7057 35.7696ZM46.255 32.5466L47.3402 32.3861L48.1946 38.161L47.1094 38.3215L46.255 32.5466ZM45.2323 26.3478L46.3787 26.6006C46.2635 26.9521 46.1372 27.3185 46 27.6996C45.8615 28.0722 45.7211 28.4318 45.5787 28.7785C45.4364 29.1252 45.3019 29.4356 45.1752 29.7095L44.28 29.4591C44.4054 29.1765 44.5294 28.8545 44.652 28.4932C44.7733 28.1232 44.8853 27.7501 44.9881 27.3741C45.0995 26.9967 45.1809 26.6546 45.2323 26.3478ZM47.0469 27.6372L48.1383 27.9642C47.8996 28.4924 47.6345 29.0508 47.3432 29.6396C47.0518 30.2284 46.7536 30.8006 46.4486 31.3562C46.1508 31.902 45.8614 32.3848 45.5803 32.8049L44.7828 32.5004C44.9892 32.1706 45.1992 31.8051 45.4127 31.4039C45.6249 30.994 45.8308 30.5719 46.0306 30.1375C46.2377 29.6932 46.4246 29.2607 46.5912 28.84C46.7651 28.4094 46.917 28.0084 47.0469 27.6372ZM43.6302 29.5289L44.1022 28.6141C44.364 28.7778 44.6284 28.9587 44.8954 29.1568C45.1623 29.355 45.4121 29.5557 45.6446 29.7589C45.8857 29.9609 46.0762 30.1483 46.2162 30.3212L45.7356 31.3561C45.5944 31.1746 45.4062 30.9736 45.1712 30.7531C44.9361 30.5326 44.6845 30.319 44.4162 30.1123C44.1467 29.8969 43.8847 29.7024 43.6302 29.5289ZM47.1564 30.697L48.0015 30.1627C48.2244 30.4202 48.4462 30.6998 48.6669 31.0016C48.8875 31.3034 49.0897 31.5992 49.2734 31.8888C49.4558 32.1699 49.5999 32.4302 49.7058 32.6698L48.8037 33.2653C48.7078 33.0331 48.5716 32.7672 48.3953 32.4676C48.2189 32.1681 48.0247 31.8668 47.8127 31.5637C47.5993 31.252 47.3806 30.9631 47.1564 30.697ZM43.9694 32.3567C44.5672 32.2331 45.275 32.0799 46.093 31.8973C46.9195 31.7134 47.7589 31.5276 48.6113 31.3399L48.7676 32.3069C47.978 32.503 47.1928 32.6983 46.4119 32.8931C45.6396 33.0866 44.9399 33.2649 44.3127 33.4281L43.9694 32.3567ZM47.8352 33.8575L48.7214 33.4227C48.9609 33.7922 49.1969 34.1973 49.4293 34.6382C49.6618 35.0791 49.8373 35.4624 49.9559 35.7881L49.0256 36.2822C48.9568 36.0547 48.8533 35.8016 48.7152 35.5228C48.5858 35.2427 48.4471 34.9595 48.2991 34.6734C48.1499 34.3786 47.9953 34.1067 47.8352 33.8575ZM44.9418 34.0215L46.0021 34.0495C46.0237 34.6712 46.0058 35.2943 45.9486 35.9189C45.8901 36.5348 45.7924 37.0642 45.6555 37.5069C45.5888 37.4727 45.4907 37.4344 45.3612 37.392C45.2404 37.3483 45.1115 37.3101 44.9747 37.2776C44.8452 37.2351 44.7354 37.2073 44.6455 37.1942C44.7936 36.7675 44.8835 36.2745 44.9152 35.7153C44.9555 35.1549 44.9643 34.5903 44.9418 34.0215ZM63.1005 26.4766C62.92 26.3273 62.7025 26.1659 62.448 25.9923C62.1922 25.8101 61.9327 25.6329 61.6696 25.4606C61.4064 25.2883 61.1749 25.1509 60.9749 25.0485L61.8186 24.2371C61.9816 24.3274 62.194 24.4544 62.4559 24.6181C62.7263 24.7805 62.9981 24.9516 63.2711 25.1312C63.5441 25.3108 63.7659 25.4717 63.9366 25.6136L63.1005 26.4766ZM59.0671 25.806C59.1216 25.8771 59.1836 25.9692 59.2531 26.0821C59.33 26.1852 59.4075 26.2925 59.4856 26.4042C59.5625 26.5072 59.6282 26.5943 59.6827 26.6655C60.0124 27.1095 60.364 27.612 60.7374 28.1729C61.1195 28.7324 61.4774 29.278 61.8113 29.8095C62.031 30.1642 62.267 30.5694 62.5192 31.0249C62.7801 31.4792 63.0391 31.9514 63.2965 32.4414C63.5525 32.9228 63.7931 33.3889 64.0182 33.8396C64.2519 34.2891 64.4515 34.6865 64.617 35.0316L63.2623 35.6017C63.0554 35.0954 62.8157 34.5456 62.543 33.9523C62.2704 33.3589 61.9806 32.7681 61.6735 32.1798C61.3665 31.5915 61.0522 31.0439 60.7308 30.537C60.4776 30.1344 60.2306 29.7441 59.9898 29.366C59.7491 28.988 59.5164 28.6351 59.2919 28.3075C59.0761 27.9786 58.8659 27.6884 58.6615 27.437C58.555 27.312 58.4225 27.16 58.264 26.981C58.1055 26.802 57.96 26.6519 57.8277 26.5306L59.0671 25.806ZM57.1208 29.9621C57.3284 29.8786 57.5385 29.7815 57.751 29.6709C57.9634 29.5602 58.1218 29.4708 58.2262 29.4025C58.608 29.1876 59.0162 28.9424 59.4507 28.6669C59.8926 28.3815 60.343 28.0948 60.8021 27.8068C61.2685 27.509 61.7375 27.2284 62.209 26.965C62.6891 26.7003 63.1578 26.477 63.6149 26.2949C64.0794 26.103 64.5226 25.9758 64.9447 25.9134C65.5734 25.8203 66.1283 25.8527 66.6093 26.0103C67.0903 26.168 67.48 26.4228 67.7785 26.7747C68.0856 27.1253 68.2748 27.5418 68.3462 28.0241C68.4265 28.5667 68.3766 29.0626 68.1966 29.5117C68.0252 29.9595 67.7292 30.3377 67.3084 30.6464C66.8863 30.9465 66.3436 31.1456 65.6805 31.2437C65.3187 31.2973 64.9556 31.3114 64.591 31.2861C64.235 31.2596 63.9257 31.2217 63.6632 31.1725L63.5108 29.8749C63.7957 29.9559 64.0995 30.0166 64.4223 30.0569C64.7537 30.0958 65.0745 30.0924 65.3845 30.0465C65.7893 29.9866 66.1193 29.8674 66.3746 29.6888C66.6298 29.5102 66.8085 29.2902 66.9106 29.0286C67.0213 28.7658 67.0538 28.4794 67.0079 28.1693C66.9722 27.9281 66.8751 27.7181 66.7166 27.5391C66.5568 27.3515 66.3388 27.2165 66.0626 27.1342C65.7851 27.0432 65.4569 27.0258 65.0779 27.0818C64.6473 27.1455 64.1764 27.2944 63.6654 27.5285C63.1543 27.7625 62.6244 28.0477 62.0757 28.3841C61.5343 28.7107 61.0041 29.0532 60.485 29.4116C59.966 29.77 59.4831 30.1055 59.0365 30.418C58.5985 30.7293 58.231 30.9817 57.9339 31.1752L57.1208 29.9621ZM74.5205 22.82C74.5138 22.953 74.5053 23.1039 74.4951 23.2726C74.4848 23.4414 74.477 23.5965 74.4715 23.7382C74.4626 23.9155 74.4514 24.1372 74.4379 24.4032C74.4318 24.6594 74.4233 24.9291 74.4124 25.2123C74.4002 25.487 74.3825 25.7537 74.3591 26.0123C74.3265 26.3868 74.2807 26.8205 74.2216 27.3133C74.1624 27.8061 74.0869 28.3366 73.9949 28.9047C73.9103 29.4629 73.8017 30.0378 73.6692 30.6295C73.5441 31.2113 73.3961 31.7877 73.2253 32.3586C73.0619 32.9197 72.8718 33.4495 72.6552 33.948L71.2461 33.6152C71.4877 33.1658 71.7013 32.6765 71.8871 32.1474C72.0716 31.6096 72.2326 31.0621 72.3702 30.5048C72.5065 29.939 72.6226 29.3849 72.7184 28.8427C72.8142 28.3004 72.8899 27.8008 72.9455 27.3437C73.0084 26.8767 73.0507 26.4788 73.0725 26.1499C73.1115 25.5808 73.1247 25.0156 73.1121 24.4542C73.108 23.8915 73.066 23.3696 72.986 22.8886L74.5205 22.82ZM79.1707 23.4654C79.4083 23.7031 79.669 24.0078 79.9528 24.3794C80.2367 24.7511 80.52 25.1493 80.8029 25.5739C81.0943 25.9972 81.3574 26.4072 81.5921 26.8037C81.8354 27.199 82.031 27.5397 82.179 27.8259L80.9879 28.6094C80.8508 28.2776 80.6686 27.9085 80.4412 27.5021C80.2212 27.0858 79.9747 26.669 79.7018 26.2517C79.4374 25.8331 79.1596 25.4429 78.8685 25.0812C78.5847 24.7095 78.3104 24.4024 78.0457 24.1599L79.1707 23.4654ZM70.0183 26.2981C70.2349 26.2749 70.4423 26.2486 70.6404 26.2193C70.8471 26.1887 71.0575 26.1532 71.2715 26.1127C71.4769 26.0735 71.7291 26.023 72.028 25.9612C72.3256 25.8907 72.6448 25.8171 72.9855 25.7403C73.3335 25.6536 73.6779 25.5719 74.0186 25.495C74.3666 25.4084 74.6857 25.3347 74.976 25.2742C75.2663 25.2136 75.5019 25.17 75.6828 25.1432C76.1048 25.0808 76.4896 25.0942 76.8373 25.1836C77.1837 25.2644 77.4765 25.4587 77.7157 25.7666C77.9635 26.0732 78.132 26.5279 78.2212 27.1308C78.2964 27.639 78.3564 28.1934 78.4012 28.794C78.4448 29.3861 78.4508 29.9617 78.4191 30.5209C78.3947 31.0702 78.3146 31.5397 78.1786 31.9295C78.0382 32.4079 77.8108 32.7452 77.4966 32.9413C77.1922 33.1448 76.8118 33.2802 76.3553 33.3478C76.1142 33.3835 75.8489 33.4051 75.5596 33.4127C75.2703 33.4203 75.0141 33.4142 74.7912 33.3944L74.3857 32.0813C74.5643 32.0989 74.7559 32.1146 74.9603 32.1283C75.1734 32.1408 75.3723 32.1466 75.557 32.1457C75.7404 32.1362 75.8881 32.1231 76.0001 32.1065C76.2326 32.0721 76.4293 32.0034 76.5901 31.9004C76.7582 31.7875 76.8841 31.5973 76.9677 31.3297C77.0574 31.0436 77.1141 30.6831 77.1378 30.2484C77.1615 29.8136 77.1592 29.3519 77.1309 28.8632C77.1026 28.3745 77.0553 27.9062 76.989 27.4583C76.933 27.0794 76.8356 26.8077 76.6968 26.6434C76.5667 26.4779 76.3982 26.3796 76.1912 26.3486C75.9829 26.309 75.7452 26.309 75.4782 26.3485C75.2715 26.379 74.9898 26.4383 74.6332 26.5263C74.2839 26.6044 73.91 26.6949 73.5116 26.7978C73.1132 26.9008 72.7449 26.9993 72.4067 27.0933C72.0673 27.1787 71.8005 27.249 71.6062 27.3042C71.4451 27.3456 71.2379 27.4027 70.9846 27.4753C70.74 27.5467 70.5297 27.6131 70.354 27.6743L70.0183 26.2981ZM83.1009 23.4384C83.3631 23.426 83.6376 23.4074 83.9244 23.3826C84.2185 23.3479 84.4947 23.3114 84.7531 23.2732C85.2527 23.1993 85.7576 23.1026 86.268 22.9831C86.7858 22.8537 87.2917 22.704 87.7859 22.5341C88.2873 22.3543 88.7598 22.1567 89.2032 21.9415L89.4178 23.1244C89.0382 23.2949 88.6013 23.4652 88.1072 23.6351C87.613 23.805 87.0948 23.9609 86.5525 24.1028C86.0102 24.2446 85.4678 24.3557 84.9252 24.4359C84.684 24.4716 84.4293 24.5049 84.161 24.5358C83.8927 24.5667 83.6288 24.5969 83.3691 24.6265L83.1009 23.4384ZM87.5661 20.6919C87.5463 20.9149 87.5175 21.1964 87.4798 21.5364C87.4507 21.8751 87.4113 22.233 87.3614 22.6101C87.3202 22.9858 87.2728 23.3493 87.2191 23.7005C87.1042 24.3512 86.9432 25.0483 86.7364 25.7918C86.5283 26.5267 86.2918 27.2482 86.0269 27.9563C85.762 28.6644 85.4807 29.2913 85.1829 29.837L83.849 29.3875C84.0896 28.991 84.3202 28.5564 84.5407 28.0838C84.7599 27.6025 84.96 27.1108 85.141 26.6087C85.3293 26.0968 85.4943 25.6059 85.636 25.1361C85.7765 24.6576 85.8839 24.2237 85.9583 23.8342C86.041 23.3819 86.1025 22.8755 86.1428 22.3151C86.1831 21.7546 86.1768 21.2363 86.124 20.76L87.5661 20.6919ZM91.1947 24.2477C91.2256 24.516 91.2588 24.7707 91.2945 25.0118C91.3302 25.253 91.3715 25.5021 91.4183 25.7592C91.4562 25.9561 91.5031 26.2132 91.5588 26.5306C91.6219 26.8381 91.6882 27.1671 91.7577 27.5177C91.8271 27.8683 91.8898 28.2023 91.9455 28.5197C92.0099 28.8358 92.0567 29.0929 92.086 29.291C92.1396 29.6527 92.1068 29.9964 91.9877 30.3221C91.8773 30.6465 91.6632 30.9246 91.3455 31.1564C91.0277 31.3883 90.5846 31.5462 90.0162 31.6303C89.5166 31.7042 89.0493 31.6986 88.6142 31.6133C88.1878 31.5268 87.828 31.3556 87.5349 31.0997C87.2504 30.8425 87.075 30.49 87.0088 30.0422C86.9489 29.6374 87.008 29.2634 87.186 28.9202C87.3727 28.5757 87.6557 28.2874 88.035 28.0553C88.4131 27.8145 88.8691 27.6546 89.4031 27.5756C90.1438 27.466 90.8401 27.473 91.4921 27.5966C92.1428 27.7116 92.7372 27.8921 93.2753 28.1381C93.8207 28.3743 94.2978 28.6249 94.7067 28.8901L94.1845 30.0895C93.9016 29.9025 93.5916 29.7108 93.2544 29.5142C92.916 29.309 92.5464 29.1305 92.1454 28.9786C91.7518 28.8168 91.3295 28.6988 90.8785 28.6247C90.4361 28.5494 89.9737 28.5473 89.4914 28.6187C89.0607 28.6824 88.7247 28.8202 88.4832 29.0319C88.2503 29.2424 88.1536 29.4811 88.1931 29.7481C88.2338 30.0237 88.3789 30.2311 88.6284 30.3702C88.8864 30.5081 89.235 30.5445 89.6743 30.4795C90.0016 30.4311 90.2523 30.3412 90.4265 30.2098C90.608 30.0686 90.7235 29.8974 90.773 29.6965C90.8225 29.4955 90.83 29.2788 90.7956 29.0462C90.7625 28.8223 90.7093 28.5221 90.636 28.1457C90.5713 27.768 90.4936 27.3615 90.4027 26.926C90.3205 26.4893 90.234 26.0533 90.1432 25.6178C90.0597 25.1725 89.9882 24.7782 89.9286 24.435L91.1947 24.2477ZM93.6961 24.3793C93.4256 24.2169 93.093 24.0504 92.6981 23.88C92.302 23.701 91.8991 23.5362 91.4896 23.3855C91.0788 23.2263 90.7174 23.1037 90.4054 23.0178L90.9171 21.9256C91.165 21.9945 91.4461 22.0806 91.7606 22.1836C92.0751 22.2867 92.3909 22.3984 92.7079 22.5188C93.025 22.6391 93.3205 22.7626 93.5945 22.8893C93.8672 23.0074 94.0937 23.1103 94.2739 23.198L93.6961 24.3793ZM104.644 25.3867L105.755 25.2223L106.174 28.0516C106.198 28.2153 106.231 28.3161 106.272 28.3541C106.312 28.392 106.393 28.4021 106.514 28.3842C106.557 28.3779 106.63 28.367 106.733 28.3518C106.837 28.3365 106.944 28.3205 107.056 28.304C107.168 28.2874 107.246 28.2759 107.289 28.2696C107.384 28.2555 107.448 28.2152 107.482 28.1485C107.515 28.0733 107.524 27.9267 107.51 27.7088C107.504 27.4897 107.472 27.1599 107.416 26.7193C107.494 26.7694 107.597 26.8157 107.727 26.8581C107.855 26.892 107.983 26.9215 108.11 26.9467C108.245 26.9707 108.367 26.9922 108.476 27.0114C108.523 27.5677 108.521 28.0036 108.471 28.3191C108.431 28.6419 108.337 28.8714 108.19 29.0076C108.053 29.1511 107.851 29.2426 107.584 29.2821C107.532 29.2897 107.455 29.3012 107.351 29.3165C107.248 29.3318 107.14 29.3477 107.028 29.3643C106.916 29.3808 106.813 29.3961 106.718 29.4101C106.624 29.4242 106.55 29.435 106.499 29.4426C106.163 29.4923 105.898 29.4875 105.704 29.4281C105.521 29.3761 105.379 29.2518 105.28 29.0553C105.189 28.8575 105.117 28.5821 105.065 28.2289L104.644 25.3867ZM102.201 21.7216L102.371 22.8714L105.627 22.3897L105.457 21.2399L102.201 21.7216ZM102.509 23.8016L102.679 24.9514L105.935 24.4697L105.764 23.3199L102.509 23.8016ZM101.895 19.6545L102.062 20.7785L105.317 20.2968L105.151 19.1728L101.895 19.6545ZM100.611 18.8279L106.179 18.0041L107.257 25.2906L101.689 26.1144L100.611 18.8279ZM102.625 25.659L103.801 25.4851C103.84 26.1658 103.806 26.8001 103.7 27.388C103.6 27.966 103.379 28.4959 103.037 28.9778C102.703 29.4585 102.187 29.8957 101.488 30.2895C101.433 30.2098 101.357 30.1153 101.262 30.0062C101.166 29.8971 101.063 29.7936 100.952 29.6956C100.849 29.5964 100.749 29.5144 100.651 29.4496C101.257 29.14 101.703 28.7924 101.989 28.4068C102.284 28.0199 102.468 27.601 102.542 27.15C102.625 26.6977 102.653 26.2007 102.625 25.659ZM95.4986 21.393L99.4907 20.8024L99.6531 21.9005L95.6611 22.4911L95.4986 21.393ZM97.9003 25.2227L98.8767 23.6128L99.8993 30.5246L98.7107 30.7005L97.9003 25.2227ZM96.937 18.7114L98.1256 18.5356L98.5613 21.4811L97.3728 21.657L96.937 18.7114ZM98.8925 23.8085C99.0086 23.8794 99.179 23.9906 99.4039 24.1421C99.6361 24.2838 99.8801 24.4457 100.136 24.6279C100.4 24.8088 100.641 24.9757 100.857 25.1285C101.073 25.2814 101.226 25.3908 101.315 25.4569L100.716 26.5883C100.58 26.4413 100.406 26.2778 100.195 26.0978C99.9822 25.9092 99.7559 25.7183 99.5161 25.5249C99.2836 25.3217 99.0586 25.1394 98.841 24.9779C98.6223 24.8078 98.4344 24.6684 98.2775 24.5596L98.8925 23.8085ZM99.0773 20.8635L99.3227 20.8272L99.5218 20.745L100.272 21.0829C100.081 21.9384 99.7954 22.7728 99.4141 23.5861C99.0413 24.3982 98.6024 25.1496 98.0973 25.8405C97.5996 26.5214 97.0792 27.1089 96.5362 27.6029C96.4852 27.496 96.4101 27.3751 96.3109 27.2401C96.2203 27.1039 96.1261 26.9726 96.0282 26.8463C95.9389 26.7187 95.8547 26.6255 95.7756 26.5668C96.2858 26.1481 96.7653 25.6415 97.2142 25.047C97.6718 24.4512 98.0657 23.812 98.396 23.1295C98.7348 22.4456 98.9734 21.7678 99.1117 21.0961L99.0773 20.8635ZM20.697 52.4841L20.8117 53.2593L25.6306 52.5463L25.5159 51.7712L20.697 52.4841ZM20.9207 53.9956L21.0373 54.7837L25.8561 54.0708L25.7395 53.2827L20.9207 53.9956ZM20.4753 50.9855L20.5881 51.7477L25.407 51.0348L25.2942 50.2725L20.4753 50.9855ZM19.2237 50.3785L26.3552 49.3234L27.1465 54.672L20.0151 55.7271L19.2237 50.3785ZM21.4458 55.225L22.699 55.0396C22.6864 55.4903 22.6195 55.9006 22.4982 56.2706C22.3757 56.632 22.1649 56.9624 21.866 57.2619C21.567 57.5614 21.154 57.8337 20.627 58.0789C20.1013 58.3327 19.4296 58.5817 18.612 58.8259C18.5709 58.7264 18.5057 58.6128 18.4164 58.4852C18.3284 58.3662 18.2318 58.2485 18.1265 58.132C18.0299 58.0143 17.9371 57.9224 17.8481 57.8563C18.5786 57.6779 19.1724 57.4976 19.6296 57.3155C20.0953 57.1322 20.4588 56.942 20.7201 56.7449C20.9814 56.5479 21.1644 56.3272 21.2691 56.0828C21.3725 55.8299 21.4314 55.5439 21.4458 55.225ZM24.2584 54.7824L25.4728 54.6028L25.7079 56.1918C25.7321 56.3555 25.7818 56.4537 25.8571 56.4866C25.9397 56.5096 26.1145 56.5013 26.3815 56.4618C26.4418 56.4529 26.5452 56.4376 26.6916 56.416C26.838 56.3943 26.9973 56.3707 27.1696 56.3452C27.3505 56.3185 27.5227 56.293 27.6864 56.2688C27.85 56.2446 27.9706 56.2267 28.0481 56.2153C28.1945 56.1936 28.3027 56.1512 28.3725 56.0881C28.4411 56.0163 28.4793 55.8874 28.487 55.7015C28.4934 55.5069 28.4772 55.2188 28.4383 54.8373C28.5248 54.8862 28.637 54.9311 28.7751 54.9723C28.912 55.0049 29.0531 55.0368 29.1986 55.0681C29.3428 55.0908 29.4727 55.1068 29.5885 55.116C29.6146 55.6491 29.5963 56.061 29.5337 56.3519C29.4724 56.6514 29.3461 56.8682 29.1547 57.0021C28.9632 57.136 28.691 57.2291 28.3378 57.2814C28.2775 57.2903 28.1785 57.3049 28.0407 57.3253C27.9115 57.3444 27.7651 57.3661 27.6014 57.3903C27.4378 57.4145 27.2742 57.4387 27.1105 57.4629C26.9469 57.4872 26.8005 57.5088 26.6713 57.5279C26.5421 57.547 26.4516 57.5604 26.4 57.5681C25.9435 57.6356 25.584 57.6448 25.3215 57.5956C25.0676 57.5452 24.8773 57.4193 24.7507 57.218C24.634 57.024 24.5489 56.7462 24.4954 56.3844L24.2584 54.7824ZM17.0738 48.8747L27.9905 47.2596L28.3919 49.9727L27.2163 50.1466L26.9659 48.4542L18.3487 49.729L18.5991 51.4215L17.4752 51.5878L17.0738 48.8747ZM25.5425 45.6151L26.8956 45.8374C26.6821 46.2386 26.4551 46.6375 26.2145 47.0339C25.9825 47.4291 25.7644 47.7694 25.5602 48.0548L24.5061 47.8015C24.6344 47.5977 24.7632 47.3674 24.8924 47.1107C25.0217 46.8539 25.146 46.5935 25.2653 46.3294C25.3847 46.0653 25.477 45.8272 25.5425 45.6151ZM17.6554 47.3628L18.6201 46.7448C18.8871 46.943 19.1591 47.1756 19.4363 47.4426C19.7208 47.6998 19.9362 47.9364 20.0826 48.1523L19.0628 48.8445C18.9177 48.6371 18.7146 48.3943 18.4534 48.1161C18.1909 47.8293 17.9249 47.5782 17.6554 47.3628ZM20.9207 46.5893L21.9246 46.0579C22.1523 46.2883 22.3852 46.5531 22.6231 46.8523C22.8683 47.1417 23.0475 47.4012 23.1607 47.6309L22.1108 48.2087C21.9976 47.979 21.8264 47.7139 21.5971 47.4134C21.3751 47.103 21.1497 46.8283 20.9207 46.5893ZM30.6945 46.886L34.6477 46.3011L35.915 54.8665L31.9617 55.4514L31.7992 54.3533L34.6285 53.9347L33.6843 47.5526L30.855 47.9712L30.6945 46.886ZM29.9839 46.9911L31.1079 46.8248L32.5223 56.385L31.3983 56.5513L29.9839 46.9911ZM31.1665 50.4335L34.6159 49.9232L34.7727 50.9825L31.3232 51.4929L31.1665 50.4335ZM31.5844 44.6024L32.9476 44.6251C32.8709 45.0589 32.7863 45.4983 32.6937 45.9433C32.6011 46.3883 32.5119 46.7667 32.426 47.0787L31.4227 46.9895C31.4511 46.7652 31.48 46.5145 31.5094 46.2373C31.5376 45.9515 31.5571 45.667 31.568 45.3837C31.5862 45.0906 31.5917 44.8301 31.5844 44.6024ZM36.421 45.9727L40.2968 45.3993L40.4631 46.5233L36.5873 47.0967L36.421 45.9727ZM39.8705 45.4624L41.0074 45.2942C41.0074 45.2942 41.0131 45.333 41.0246 45.4105C41.0348 45.4794 41.0469 45.5612 41.0609 45.6559C41.0749 45.7507 41.0857 45.8239 41.0934 45.8756C41.2682 47.3547 41.4056 48.6106 41.5056 49.6432C41.6043 50.6671 41.6676 51.5115 41.6955 52.1763C41.7321 52.8397 41.7297 53.3594 41.6885 53.7351C41.6559 54.1096 41.5871 54.3882 41.4821 54.571C41.3503 54.8105 41.204 54.9818 41.0432 55.0848C40.8837 55.1964 40.6816 55.2879 40.437 55.3593C40.2169 55.4183 39.9253 55.4702 39.5623 55.5151C39.2092 55.5674 38.8461 55.6123 38.4732 55.6498C38.4391 55.4789 38.3661 55.2828 38.2542 55.0617C38.1522 54.848 38.0288 54.6682 37.884 54.5224C38.3111 54.4944 38.7019 54.4586 39.0563 54.415C39.4107 54.3714 39.6697 54.3375 39.8333 54.3132C39.9625 54.2941 40.064 54.2659 40.1377 54.2286C40.22 54.19 40.2935 54.1219 40.3583 54.0243C40.4438 53.8885 40.4998 53.6426 40.5264 53.2866C40.5516 52.922 40.5473 52.4165 40.5133 51.7703C40.478 51.1154 40.4086 50.2895 40.3051 49.2927C40.2103 48.2946 40.0775 47.0996 39.9068 45.7079L39.8705 45.4624ZM36.287 43.9066L37.5028 44.004C37.4334 44.6656 37.3284 45.3236 37.1876 45.9781C37.0554 46.6314 36.8966 47.2534 36.7111 47.8441C36.5244 48.4262 36.3109 48.9463 36.0706 49.4043C35.9915 49.3456 35.881 49.2827 35.7391 49.2157C35.6045 49.1388 35.4662 49.0669 35.3243 48.9998C35.1909 48.9315 35.0688 48.8792 34.9578 48.8428C35.1958 48.4291 35.4028 47.9541 35.5786 47.4176C35.7631 46.8798 35.9124 46.312 36.0264 45.7143C36.1477 45.1066 36.2346 44.5041 36.287 43.9066ZM36.4907 49.5666L37.3664 48.8825C37.6423 49.141 37.9319 49.4326 38.2352 49.7574C38.5458 50.0723 38.8336 50.3817 39.0986 50.6858C39.3723 50.9885 39.5971 51.2589 39.7731 51.4969L38.8352 52.2958C38.6751 52.0466 38.4619 51.7657 38.1956 51.4531C37.9293 51.1404 37.6482 50.8167 37.3522 50.4821C37.0563 50.1474 36.7691 49.8422 36.4907 49.5666ZM51.7681 41.6427L52.8196 42.5037C52.2249 42.7677 51.5545 43.0253 50.8084 43.2765C50.0696 43.5178 49.2895 43.7476 48.468 43.966C47.6539 44.1744 46.8293 44.3712 45.9942 44.5564C45.1664 44.7317 44.3632 44.8945 43.5845 45.0449C43.5344 44.8851 43.464 44.7063 43.3731 44.5085C43.281 44.3021 43.1952 44.1388 43.1158 44.0185C43.8858 43.8694 44.6755 43.7041 45.4848 43.5228C46.2941 43.3415 47.0843 43.1497 47.8553 42.9477C48.6337 42.7357 49.3591 42.5227 50.0315 42.3088C50.7027 42.0863 51.2816 41.8643 51.7681 41.6427ZM43.5627 46.5928L53.6913 45.0943L53.8634 46.257L43.7347 47.7555L43.5627 46.5928ZM43.1314 49.7459L54.8879 48.0065L55.0638 49.1951L43.3073 50.9344L43.1314 49.7459ZM47.6197 43.8538L48.8987 43.6646L50.2099 52.5272C50.2685 52.9234 50.2516 53.2252 50.159 53.4325C50.0751 53.6385 49.903 53.8136 49.6426 53.9577C49.3811 54.0933 49.0239 54.2077 48.5713 54.3011C48.1272 54.3932 47.5687 54.4846 46.8956 54.5754C46.8532 54.4673 46.791 54.3444 46.7091 54.2069C46.6357 54.0682 46.5538 53.9307 46.4632 53.7944C46.3726 53.6582 46.2853 53.5435 46.2011 53.4504C46.5555 53.4067 46.8926 53.3657 47.2126 53.3271C47.5399 53.2787 47.8241 53.2366 48.0653 53.201C48.3138 53.1554 48.4854 53.1256 48.5801 53.1116C48.7265 53.0899 48.8261 53.0488 48.8787 52.9882C48.9314 52.9276 48.9475 52.8284 48.9271 52.6906L47.6197 43.8538ZM60.251 41.2458C60.2357 41.3801 60.2229 41.5316 60.2127 41.7003C60.211 41.8678 60.2032 42.023 60.1891 42.1659C60.1888 42.3419 60.1819 42.563 60.1684 42.829C60.1537 43.0864 60.1409 43.3568 60.13 43.64C60.1264 43.9134 60.113 44.1794 60.0896 44.4381C60.057 44.8126 60.0112 45.2463 59.9521 45.7391C59.893 46.2319 59.8174 46.7623 59.7254 47.3304C59.6408 47.8886 59.5322 48.4636 59.3997 49.0553C59.2746 49.6371 59.1266 50.2135 58.9558 50.7844C58.7924 51.3455 58.6024 51.8753 58.3857 52.3738L56.9766 52.041C57.2195 51.6002 57.4331 51.1109 57.6176 50.5731C57.8021 50.0354 57.9631 49.4879 58.1007 48.9306C58.237 48.3648 58.3531 47.8107 58.4489 47.2685C58.5447 46.7262 58.6204 46.2265 58.676 45.7694C58.7303 45.3037 58.7683 44.9065 58.7901 44.5776C58.8291 44.0085 58.8423 43.4433 58.8296 42.8819C58.8256 42.3192 58.7879 41.7967 58.7166 41.3144L60.251 41.2458ZM64.9036 41.9964C65.1412 42.2341 65.4019 42.5388 65.6857 42.9105C65.9769 43.2723 66.2633 43.6612 66.5448 44.0772C66.8264 44.4932 67.0889 44.8988 67.3322 45.2941C67.5742 45.6808 67.7692 46.0172 67.9172 46.3033L66.728 47.0998C66.5823 46.7693 66.3957 46.4008 66.1684 45.9944C65.9496 45.5867 65.7044 45.1785 65.4327 44.7698C65.1684 44.3512 64.8906 43.9611 64.5995 43.5993C64.3169 43.2362 64.0439 42.9378 63.7805 42.7039L64.9036 41.9964ZM55.7489 44.7239C55.9655 44.7006 56.1728 44.6744 56.3709 44.6451C56.569 44.6157 56.7794 44.5802 57.002 44.5385C57.1988 44.5006 57.4467 44.4507 57.7456 44.3889C58.0518 44.3171 58.3753 44.2429 58.716 44.1661C59.064 44.0794 59.4084 43.9976 59.7491 43.9208C60.0885 43.8354 60.4033 43.7624 60.6936 43.7019C60.9925 43.64 61.2324 43.5958 61.4133 43.569C61.8267 43.5078 62.2072 43.5219 62.5549 43.6113C62.9099 43.6908 63.207 43.8845 63.4462 44.1924C63.694 44.499 63.8625 44.9537 63.9517 45.5566C64.0269 46.0648 64.0826 46.6198 64.1188 47.2217C64.1624 47.8138 64.1684 48.3894 64.1367 48.9486C64.1123 49.4978 64.0365 49.9667 63.9091 50.3552C63.7687 50.8337 63.542 51.1753 63.229 51.38C62.916 51.5847 62.5356 51.7202 62.0878 51.7865C61.838 51.8234 61.5678 51.8414 61.2772 51.8404C60.9965 51.8467 60.7447 51.84 60.5217 51.8201L60.1033 50.509C60.2918 50.534 60.4883 50.5533 60.6928 50.567C60.896 50.5722 61.0899 50.5743 61.2746 50.5734C61.458 50.5638 61.61 50.5502 61.7306 50.5323C61.9545 50.4992 62.1512 50.4305 62.3206 50.3262C62.4887 50.2133 62.6152 50.0274 62.7001 49.7684C62.7885 49.4737 62.8403 49.1095 62.8554 48.6761C62.8791 48.2413 62.8768 47.7796 62.8485 47.2909C62.8202 46.8022 62.7729 46.3339 62.7066 45.886C62.6506 45.5071 62.5575 45.2348 62.4274 45.0692C62.2972 44.9036 62.1287 44.8054 61.9217 44.7744C61.7134 44.7348 61.4714 44.7354 61.1958 44.7761C60.9891 44.8067 60.7074 44.866 60.3508 44.954C60.0015 45.0321 59.6276 45.1226 59.2292 45.2255C58.8394 45.3272 58.4711 45.4257 58.1243 45.521C57.7849 45.6064 57.5224 45.6761 57.3367 45.7299C57.1756 45.7714 56.9684 45.8284 56.7151 45.9011C56.4705 45.9725 56.2602 46.0388 56.0845 46.1L55.7489 44.7239ZM64.6044 40.1528C64.7393 40.2913 64.8873 40.4586 65.0484 40.6548C65.2094 40.851 65.3662 41.0479 65.5186 41.2454C65.671 41.4428 65.803 41.6213 65.9147 41.7809L65.1155 42.2687C65.0125 42.108 64.8848 41.9288 64.7324 41.7313C64.5799 41.5339 64.4232 41.337 64.2621 41.1408C64.1097 40.9433 63.9611 40.7717 63.8163 40.6259L64.6044 40.1528ZM65.997 39.3923C66.1331 39.5394 66.286 39.7104 66.4557 39.9053C66.6254 40.1003 66.7864 40.2965 66.9389 40.494C67.0986 40.6815 67.2287 40.8471 67.3292 40.9907L66.5449 41.4896C66.3663 41.2344 66.1531 40.9535 65.9053 40.6469C65.6661 40.339 65.434 40.0785 65.2088 39.8654L65.997 39.3923ZM73.2899 39.2507C73.2832 39.3837 73.2747 39.5346 73.2645 39.7033C73.2542 39.8721 73.2464 40.0272 73.2409 40.1689C73.232 40.3462 73.2208 40.5679 73.2073 40.8339C73.2012 41.0901 73.1927 41.3598 73.1818 41.643C73.1696 41.9177 73.1519 42.1844 73.1285 42.443C73.0959 42.8175 73.05 43.2512 72.9909 43.744C72.9318 44.2368 72.8563 44.7673 72.7643 45.3354C72.6797 45.8936 72.5711 46.4685 72.4386 47.0602C72.3134 47.642 72.1655 48.2184 71.9947 48.7893C71.8313 49.3504 71.6412 49.8802 71.4245 50.3787L70.0155 50.0459C70.2571 49.5965 70.4707 49.1072 70.6565 48.5781C70.8409 48.0403 71.002 47.4928 71.1396 46.9355C71.2759 46.3697 71.3919 45.8156 71.4877 45.2734C71.5835 44.7311 71.6592 44.2315 71.7148 43.7744C71.7778 43.3074 71.8201 42.9095 71.8419 42.5806C71.8809 42.0115 71.8941 41.4463 71.8814 40.8849C71.8774 40.3222 71.8354 39.8003 71.7554 39.3193L73.2899 39.2507ZM77.9401 39.8961C78.1777 40.1338 78.4384 40.4385 78.7222 40.8101C79.006 41.1818 79.2894 41.58 79.5722 42.0046C79.8637 42.4279 80.1268 42.8379 80.3615 43.2344C80.6048 43.6297 80.8004 43.9704 80.9484 44.2566L79.7573 45.0401C79.6202 44.7083 79.438 44.3392 79.2106 43.9328C78.9906 43.5165 78.7441 43.0997 78.4711 42.6824C78.2068 42.2638 77.929 41.8736 77.6379 41.5119C77.354 41.1402 77.0798 40.8331 76.8151 40.5906L77.9401 39.8961ZM68.7877 42.7288C69.0043 42.7056 69.2117 42.6793 69.4098 42.65C69.6165 42.6194 69.8268 42.5839 70.0409 42.5434C70.2463 42.5042 70.4985 42.4537 70.7974 42.3919C71.095 42.3214 71.4142 42.2478 71.7549 42.171C72.1029 42.0843 72.4473 42.0026 72.7879 41.9257C73.136 41.8391 73.4551 41.7654 73.7454 41.7049C74.0357 41.6443 74.2713 41.6007 74.4522 41.5739C74.8742 41.5115 75.259 41.5249 75.6067 41.6143C75.9531 41.6951 76.2459 41.8894 76.4851 42.1973C76.7329 42.5039 76.9014 42.9586 76.9906 43.5615C77.0657 44.0697 77.1258 44.6241 77.1706 45.2247C77.2142 45.8168 77.2201 46.3924 77.1885 46.9516C77.1641 47.5009 77.084 47.9704 76.948 48.3602C76.8075 48.8386 76.5802 49.1759 76.266 49.372C75.9616 49.5755 75.5812 49.7109 75.1247 49.7785C74.8836 49.8142 74.6183 49.8358 74.329 49.8434C74.0397 49.851 73.7835 49.8449 73.5606 49.8251L73.1551 48.512C73.3337 48.5296 73.5253 48.5453 73.7297 48.559C73.9428 48.5715 74.1417 48.5773 74.3264 48.5764C74.5098 48.5669 74.6575 48.5538 74.7695 48.5372C75.002 48.5028 75.1987 48.4341 75.3595 48.3311C75.5276 48.2182 75.6535 48.028 75.7371 47.7604C75.8268 47.4743 75.8835 47.1138 75.9072 46.6791C75.9308 46.2443 75.9285 45.7826 75.9002 45.2939C75.872 44.8052 75.8247 44.3369 75.7584 43.889C75.7024 43.5101 75.605 43.2384 75.4662 43.0741C75.3361 42.9086 75.1676 42.8103 74.9605 42.7793C74.7522 42.7397 74.5146 42.7397 74.2476 42.7792C74.0409 42.8097 73.7592 42.869 73.4026 42.957C73.0533 43.0351 72.6794 43.1256 72.281 43.2285C71.8826 43.3315 71.5143 43.43 71.1761 43.524C70.8367 43.6094 70.5699 43.6797 70.3756 43.7349C70.2145 43.7763 70.0073 43.8334 69.754 43.906C69.5093 43.9774 69.2991 44.0438 69.1233 44.105L68.7877 42.7288ZM84.8962 37.3883C84.8738 37.5941 84.8535 37.8435 84.8353 38.1367C84.8158 38.4212 84.8025 38.718 84.7954 39.0271C84.7883 39.3362 84.7843 39.636 84.7833 39.9266C84.7896 40.2073 84.7994 40.4523 84.8128 40.6616C84.9159 40.3471 85.0528 40.0232 85.2235 39.6899C85.4028 39.3553 85.6204 39.0415 85.8763 38.7484C86.1322 38.4553 86.4209 38.2057 86.7425 37.9997C87.0641 37.7937 87.4187 37.662 87.8062 37.6047C88.3919 37.5181 88.9404 37.6261 89.4517 37.929C89.9703 38.2219 90.4128 38.6845 90.7792 39.3168C91.1456 39.9491 91.3976 40.7303 91.5352 41.6605C91.6677 42.5563 91.6502 43.3598 91.4825 44.0711C91.3149 44.7824 91.0201 45.4069 90.598 45.9446C90.1758 46.4823 89.6462 46.948 89.0091 47.3415C88.3733 47.7436 87.6571 48.0784 86.8606 48.3458L85.9115 47.2849C86.6012 47.0684 87.2328 46.8165 87.8064 46.5292C88.3787 46.2333 88.8627 45.8757 89.2583 45.4563C89.6539 45.0369 89.9316 44.5338 90.0912 43.9469C90.2594 43.3587 90.2842 42.6641 90.1657 41.8631C90.0663 41.1913 89.9065 40.6165 89.6862 40.1386C89.4658 39.6607 89.1932 39.305 88.8682 39.0714C88.5432 38.8379 88.174 38.7517 87.7606 38.8129C87.3644 38.8715 87.0045 39.0567 86.681 39.3686C86.3575 39.6805 86.0793 40.0605 85.8463 40.5087C85.622 40.9555 85.4538 41.4249 85.3417 41.9167C85.2383 42.4073 85.2012 42.8705 85.2304 43.3062C85.2451 43.5241 85.2696 43.7493 85.304 43.9818C85.347 44.2131 85.413 44.4806 85.5019 44.7843L84.2492 45.062C84.1877 44.8247 84.113 44.5277 84.025 44.1711C83.9358 43.8058 83.8599 43.4122 83.7975 42.9901C83.7516 42.6801 83.7155 42.3466 83.6891 41.9896C83.6614 41.624 83.6374 41.2535 83.617 40.8781C83.5954 40.494 83.58 40.1223 83.5708 39.7628C83.5703 39.402 83.5655 39.0726 83.5567 38.7747C83.558 38.5457 83.5477 38.3272 83.5257 38.1192C83.5123 37.9099 83.4966 37.7142 83.4784 37.5321L84.8962 37.3883ZM99.4155 35.227C99.4008 35.4845 99.3728 35.801 99.3316 36.1768C99.2977 36.5427 99.2278 36.9623 99.1218 37.4356C99.0289 37.819 98.9028 38.2161 98.7435 38.627C98.5929 39.0365 98.4285 39.4129 98.2505 39.7561C98.3842 39.6483 98.5419 39.5545 98.7237 39.4748C98.9129 39.3852 99.1046 39.3129 99.2989 39.2577C99.5005 39.1927 99.6832 39.1481 99.8468 39.1238C100.364 39.0474 100.821 39.1338 101.219 39.383C101.615 39.6236 101.855 40.0238 101.937 40.5836C101.963 40.7559 101.994 40.9669 102.031 41.2166C102.068 41.4664 102.111 41.7285 102.161 42.0028C102.21 42.2771 102.254 42.5478 102.294 42.8148C102.342 43.0805 102.381 43.3124 102.41 43.5105L101.183 43.6921C101.167 43.5272 101.148 43.3364 101.125 43.1198C101.1 42.8946 101.07 42.6615 101.034 42.4203C101.007 42.1779 100.977 41.9447 100.944 41.7207C100.911 41.4968 100.881 41.2987 100.856 41.1265C100.79 40.7402 100.632 40.4774 100.383 40.3383C100.134 40.1992 99.8581 40.1519 99.5566 40.1965C99.1691 40.2539 98.7949 40.4016 98.434 40.6399C98.0818 40.8768 97.787 41.1448 97.5497 41.444C97.3955 41.6516 97.2366 41.8864 97.073 42.1482C96.9179 42.4088 96.7531 42.6928 96.5785 43.0003L95.3451 42.3378C95.8566 41.6901 96.2815 41.0815 96.6197 40.5122C96.9579 39.9429 97.2268 39.4103 97.4262 38.9143C97.633 38.4084 97.7834 37.9373 97.8772 37.5009C97.9628 37.1274 98.0219 36.7534 98.0545 36.3789C98.0858 35.9959 98.0865 35.6437 98.0566 35.3225L99.4155 35.227ZM94.9835 37.2162C95.3356 37.2169 95.7203 37.1996 96.1376 37.1642C96.5535 37.1203 96.9165 37.0754 97.2266 37.0295C97.8037 36.9441 98.4262 36.8388 99.0942 36.7136C99.7621 36.5884 100.432 36.4453 101.103 36.2843C101.783 36.1221 102.421 35.9398 103.016 35.7373L103.194 36.9388C102.746 37.0666 102.268 37.1946 101.759 37.3228C101.25 37.4509 100.731 37.5717 100.202 37.6851C99.6715 37.79 99.1622 37.8873 98.6738 37.9772C98.1841 38.0584 97.7369 38.129 97.3321 38.1889C97.1512 38.2156 96.9359 38.2475 96.6862 38.2845C96.4437 38.3115 96.1877 38.3362 95.9182 38.3585C95.6573 38.3795 95.4056 38.4035 95.1631 38.4306L94.9835 37.2162ZM105.519 39.09C105.404 39.1509 105.269 39.2193 105.113 39.2952C104.966 39.3698 104.819 39.4487 104.673 39.532C104.527 39.6152 104.393 39.6922 104.272 39.763C103.858 40.0002 103.376 40.2828 102.826 40.6106C102.285 40.9371 101.732 41.3049 101.167 41.7141C100.786 41.9906 100.46 42.2588 100.191 42.5187C99.921 42.7786 99.7173 43.0376 99.5795 43.2956C99.4502 43.5524 99.406 43.8186 99.4468 44.0942C99.4799 44.3181 99.5583 44.4913 99.6821 44.6138C99.8058 44.7364 99.9639 44.823 100.156 44.8738C100.356 44.9146 100.587 44.9332 100.851 44.9294C101.122 44.9157 101.421 44.8847 101.748 44.8363C102.265 44.7598 102.846 44.643 103.492 44.4859C104.137 44.3288 104.737 44.1565 105.29 43.969L105.444 45.2796C105.139 45.3599 104.783 45.4479 104.374 45.5435C103.967 45.6477 103.545 45.7409 103.109 45.8231C102.682 45.9127 102.275 45.9861 101.887 46.0435C101.241 46.1391 100.651 46.1648 100.116 46.1207C99.5816 46.0765 99.1419 45.9303 98.7972 45.6821C98.4511 45.4253 98.2386 45.0298 98.1596 44.4958C98.0972 44.0738 98.1358 43.6808 98.2756 43.3169C98.4227 42.9431 98.6309 42.5954 98.9002 42.2739C99.1781 41.9512 99.4937 41.6449 99.8468 41.355C100.2 41.0651 100.552 40.7974 100.903 40.5518C101.276 40.2766 101.623 40.036 101.945 39.83C102.274 39.6141 102.579 39.4193 102.862 39.2455C103.153 39.0704 103.422 38.8985 103.67 38.7298C103.88 38.602 104.077 38.4803 104.263 38.3649C104.447 38.2408 104.63 38.1125 104.813 37.9798L105.519 39.09ZM23.8943 67.0451L31.0774 65.9824L31.429 68.3595L30.2922 68.5277L30.0857 67.1325L25.1377 67.8645L25.3441 69.2598L24.246 69.4223L23.8943 67.0451ZM28.2329 68.1723L29.3698 68.0041L29.9241 71.7507C29.9495 71.9229 29.9827 72.0281 30.0235 72.066C30.0643 72.104 30.1407 72.1147 30.2527 72.0981C30.2872 72.093 30.3517 72.0835 30.4465 72.0695C30.5412 72.0554 30.636 72.0414 30.7307 72.0274C30.8255 72.0134 30.8944 72.0032 30.9374 71.9968C31.0235 71.9841 31.083 71.9401 31.1159 71.8648C31.1475 71.7809 31.1541 71.6171 31.1356 71.3734C31.1245 71.1198 31.0876 70.7512 31.0248 70.2676C31.1113 70.3164 31.2192 70.3621 31.3487 70.4045C31.4782 70.447 31.6114 70.4845 31.7482 70.5171C31.8838 70.541 32.0015 70.5632 32.1013 70.5836C32.1634 71.1817 32.1763 71.6551 32.1398 72.0038C32.1034 72.3524 32.0086 72.6041 31.8555 72.7587C31.7109 72.9121 31.5009 73.0092 31.2253 73.05C31.1736 73.0577 31.1004 73.0685 31.0056 73.0825C30.9195 73.0952 30.8248 73.1093 30.7214 73.1245C30.6267 73.1386 30.5319 73.1526 30.4372 73.1666C30.3511 73.1793 30.2821 73.1895 30.2305 73.1972C29.9032 73.2456 29.6427 73.2401 29.4491 73.1808C29.2641 73.1201 29.1212 72.9872 29.0205 72.7821C28.9197 72.577 28.842 72.2892 28.7872 71.9189L28.2329 68.1723ZM25.9849 68.5049L27.1218 68.3367C27.1979 69.0295 27.2343 69.6622 27.231 70.2348C27.235 70.7975 27.1705 71.3131 27.0374 71.7817C26.903 72.2416 26.6798 72.6663 26.3678 73.0557C26.0557 73.4452 25.6284 73.7988 25.0857 74.1168C25.0286 74.0284 24.9475 73.926 24.8422 73.8095C24.7469 73.7004 24.6429 73.5926 24.5303 73.486C24.419 73.3881 24.3195 73.3104 24.2318 73.2529C24.7119 72.9883 25.0879 72.7038 25.3597 72.3996C25.6303 72.0867 25.8213 71.7416 25.9327 71.3643C26.0428 70.9783 26.0942 70.5526 26.087 70.0872C26.0884 69.6206 26.0543 69.0931 25.9849 68.5049ZM23.428 63.1799L30.4432 62.142L30.5923 63.1497L23.5771 64.1876L23.428 63.1799ZM24.1415 65.1471L30.3557 64.2277L30.5048 65.2354L24.2906 66.1548L24.1415 65.1471ZM26.0968 61.6761L27.2983 61.4983L27.8354 65.1286L26.6339 65.3064L26.0968 61.6761ZM19.6517 66.6562L23.1916 66.1325L23.3311 67.0756L19.7912 67.5994L19.6517 66.6562ZM19.2112 63.1437L22.6348 62.6372L22.7763 63.5932L19.3527 64.0997L19.2112 63.1437ZM19.9097 68.4003L23.4496 67.8766L23.5891 68.8197L20.0493 69.3434L19.9097 68.4003ZM18.8324 64.9556L23.3025 64.2942L23.4477 65.2761L18.9777 65.9374L18.8324 64.9556ZM20.74 70.0862L23.7373 69.6427L24.3031 73.4668L21.3058 73.9103L21.1605 72.9284L23.1372 72.636L22.8619 70.7756L20.8853 71.068L20.74 70.0862ZM20.1457 70.1741L21.1664 70.0231L21.8162 74.4156L20.7956 74.5666L20.1457 70.1741ZM34.0026 61.8399C34.1774 61.8316 34.3559 61.8184 34.538 61.8002C34.7288 61.7808 34.8931 61.7609 35.0309 61.7405C35.2118 61.7138 35.4307 61.677 35.6879 61.6301C35.945 61.5833 36.2107 61.5352 36.485 61.4858C36.7581 61.4278 37.0189 61.376 37.2674 61.3304C37.5146 61.2763 37.7065 61.2347 37.843 61.2057C37.9782 61.1681 38.1086 61.1268 38.2339 61.0818C38.3593 61.0369 38.4711 60.9895 38.5694 60.9398L39.4789 61.4653C39.4128 61.5543 39.3511 61.6427 39.2936 61.7304C39.2448 61.8168 39.2009 61.9069 39.162 62.0007C39.0573 62.245 38.9365 62.5885 38.7996 63.0312C38.6713 63.4727 38.5351 63.9505 38.3912 64.4647C38.2558 64.9776 38.1222 65.4726 37.9904 65.9498C37.9045 66.2617 37.8132 66.5965 37.7165 66.9541C37.6198 67.3116 37.5188 67.6698 37.4134 68.0287C37.3167 68.3862 37.2168 68.7222 37.1137 69.0367C37.0179 69.3414 36.9164 69.6072 36.8092 69.8343C36.6203 70.2231 36.3909 70.5167 36.121 70.715C35.8597 70.9121 35.5396 71.0387 35.1606 71.0948C34.6439 71.1712 34.1884 71.067 33.7942 70.7821C33.3987 70.4885 33.157 70.0446 33.0691 69.4503C32.9951 68.9508 33.0389 68.4734 33.2004 68.0183C33.3607 67.5545 33.6196 67.1333 33.9772 66.7548C34.3336 66.3676 34.779 66.0464 35.3133 65.7914C35.8464 65.5277 36.4489 65.3461 37.1207 65.2467C37.8527 65.1384 38.576 65.1194 39.2906 65.1897C40.0051 65.2601 40.6792 65.3848 41.313 65.5638C41.9455 65.7343 42.5246 65.9303 43.0502 66.1517C43.5845 66.3719 44.0417 66.5771 44.4219 66.7673L44.034 68.2505C43.5968 67.972 43.1128 67.7047 42.582 67.4488C42.0586 67.183 41.4973 66.958 40.8979 66.7738C40.3059 66.5798 39.6878 66.4468 39.0434 66.3749C38.4077 66.3017 37.7583 66.3142 37.0951 66.4123C36.4233 66.5117 35.8628 66.709 35.4136 67.0043C34.9631 67.291 34.6379 67.6208 34.4378 67.9936C34.2377 68.3665 34.1644 68.7338 34.2179 69.0955C34.2562 69.3539 34.3537 69.5375 34.5107 69.6463C34.6676 69.7551 34.8365 69.7961 35.0173 69.7694C35.1551 69.749 35.2756 69.7004 35.3786 69.6235C35.4804 69.538 35.5795 69.4046 35.6758 69.2231C35.7795 69.0317 35.8738 68.8065 35.9587 68.5475C36.0523 68.2872 36.1432 68.0097 36.2316 67.715C36.3188 67.4117 36.401 67.1047 36.4782 66.794C36.5641 66.4821 36.6439 66.1886 36.7176 65.9137C36.8351 65.5178 36.947 65.114 37.0533 64.7022C37.1669 64.2805 37.2788 63.8767 37.3889 63.4908C37.5064 63.0949 37.613 62.7447 37.7088 62.4401C37.5796 62.4592 37.408 62.489 37.1939 62.5295C36.9799 62.57 36.7492 62.6173 36.502 62.6715C36.2535 62.717 36.0179 62.7607 35.7953 62.8024C35.5726 62.8442 35.3887 62.8802 35.2436 62.9104C35.107 62.9394 34.9453 62.9766 34.7584 63.0218C34.5801 63.0658 34.411 63.1128 34.2512 63.1629L34.0026 61.8399ZM42.7048 63.5492C42.7882 64.4698 42.8171 65.3193 42.7914 66.0976C42.7743 66.8747 42.6646 67.5906 42.4623 68.2454C42.2685 68.899 41.9582 69.5082 41.5313 70.073C41.1117 70.628 40.5516 71.1553 39.851 71.655L38.6339 70.9242C39.3607 70.4822 39.9284 70.0065 40.3371 69.4972C40.7532 68.978 41.0491 68.4501 41.225 67.9136C41.4082 67.3672 41.5145 66.8366 41.544 66.3218C41.5721 65.7983 41.5716 65.3187 41.5423 64.883C41.5191 64.6664 41.4909 64.4461 41.4578 64.2222C41.432 63.9884 41.3928 63.783 41.3402 63.6059L42.7048 63.5492ZM50.8109 59.802L55.4231 59.1196L55.5989 60.3082L50.9868 60.9905L50.8109 59.802ZM44.6104 59.7424L51.0054 58.7963L51.1736 59.9331L44.7786 60.8793L44.6104 59.7424ZM46.5894 62.1428L49.8321 61.6631L49.9965 62.7741L46.7537 63.2539L46.5894 62.1428ZM46.9869 64.83L50.2296 64.3503L50.3921 65.4484L47.1494 65.9281L46.9869 64.83ZM55.0743 59.1712L55.281 59.1406L55.493 59.0565L56.3116 59.1466C56.3783 60.9058 56.274 62.4615 55.9987 63.8136C55.7235 65.1657 55.2947 66.3425 54.7124 67.344C54.1288 68.3369 53.4047 69.1833 52.5401 69.8833C52.4224 69.7423 52.2714 69.5842 52.0871 69.4091C51.9027 69.2339 51.7377 69.0999 51.5919 69.0071C52.3783 68.433 53.0426 67.6879 53.5847 66.7715C54.1256 65.8466 54.5296 64.7702 54.7969 63.5425C55.0628 62.3062 55.1687 60.9395 55.1144 59.4425L55.0743 59.1712ZM52.3103 60.8343C52.71 61.9898 53.1888 63.0543 53.7465 64.028C54.3029 64.993 54.9492 65.8215 55.6853 66.5136C56.4214 67.2056 57.2538 67.7161 58.1826 68.0452C58.0994 68.1367 58.0107 68.251 57.9165 68.3882C57.831 68.5241 57.7455 68.6599 57.66 68.7958C57.5844 68.939 57.524 69.0668 57.479 69.179C56.4785 68.7814 55.5928 68.2083 54.8219 67.4598C54.0498 66.7027 53.3662 65.8005 52.7712 64.7532C52.1749 63.6972 51.6452 62.5258 51.1819 61.2389L52.3103 60.8343ZM45.6185 60.0421L46.7941 59.8682L48.0403 68.2915L46.8647 68.4654L45.6185 60.0421ZM49.0291 59.5375L50.2048 59.3636L51.797 70.1253L50.6213 70.2992L49.0291 59.5375ZM45.5762 68.2336C45.9906 68.1195 46.4683 67.9872 47.0093 67.8368C47.5503 67.6863 48.1245 67.5221 48.7319 67.3443C49.338 67.1578 49.9448 66.9756 50.5521 66.7977L50.783 67.9121C49.9335 68.1786 49.0846 68.4495 48.2364 68.7246C47.3955 68.9898 46.6468 69.2238 45.9903 69.4265L45.5762 68.2336ZM61.4102 57.1117C61.3878 57.3174 61.3675 57.5669 61.3493 57.86C61.3298 58.1445 61.3165 58.4413 61.3094 58.7504C61.3023 59.0595 61.2983 59.3594 61.2972 59.65C61.3036 59.9307 61.3134 60.1757 61.3268 60.3849C61.4299 60.0704 61.5668 59.7465 61.7375 59.4132C61.9168 59.0786 62.1344 58.7648 62.3903 58.4717C62.6462 58.1786 62.9349 57.929 63.2565 57.723C63.5781 57.517 63.9327 57.3854 64.3202 57.328C64.9059 57.2414 65.4544 57.3495 65.9656 57.6523C66.4843 57.9452 66.9268 58.4078 67.2931 59.0401C67.6595 59.6724 67.9115 60.4537 68.0492 61.3839C68.1817 62.2796 68.1641 63.0831 67.9965 63.7944C67.8289 64.5057 67.5341 65.1302 67.1119 65.6679C66.6898 66.2057 66.1602 66.6713 65.5231 67.0648C64.8873 67.4669 64.1711 67.8017 63.3746 68.0692L62.4255 67.0082C63.1152 66.7917 63.7468 66.5399 64.3204 66.2526C64.8927 65.9567 65.3767 65.599 65.7723 65.1796C66.1679 64.7603 66.4455 64.2571 66.6051 63.6702C66.7734 63.082 66.7982 62.3875 66.6797 61.5865C66.5803 60.9147 66.4205 60.3398 66.2001 59.8619C65.9798 59.3841 65.7072 59.0283 65.3822 58.7948C65.0572 58.5612 64.688 58.475 64.2745 58.5362C63.8784 58.5948 63.5185 58.7801 63.195 59.092C62.8715 59.4039 62.5932 59.7839 62.3603 60.232C62.136 60.6789 61.9678 61.1482 61.8557 61.6401C61.7523 62.1306 61.7152 62.5938 61.7444 63.0295C61.7591 63.2474 61.7836 63.4726 61.818 63.7052C61.861 63.9364 61.927 64.2039 62.0159 64.5076L60.7632 64.7853C60.7017 64.548 60.627 64.251 60.539 63.8944C60.4497 63.5291 60.3739 63.1355 60.3115 62.7135C60.2656 62.4034 60.2294 62.0699 60.203 61.7129C60.1754 61.3474 60.1514 60.9769 60.131 60.6014C60.1094 60.2174 60.094 59.8456 60.0848 59.4861C60.0842 59.1253 60.0795 58.796 60.0707 58.498C60.072 58.269 60.0617 58.0505 60.0397 57.8425C60.0263 57.6333 60.0106 57.4376 59.9924 57.2554L61.4102 57.1117ZM72.9091 67.4903L72.4489 66.7002C72.9536 66.4231 73.3245 66.1042 73.5616 65.7435C73.7987 65.3828 73.8847 64.9828 73.8197 64.5435L73.4668 63.4076L74.3341 64.3618C74.246 64.4805 74.1406 64.5709 74.0178 64.633C73.9036 64.6939 73.7819 64.734 73.6527 64.7531C73.3598 64.7964 73.093 64.7479 72.8522 64.6075C72.6101 64.4584 72.4649 64.2203 72.4165 63.893C72.3668 63.5571 72.4368 63.2871 72.6267 63.083C72.8239 62.869 73.0689 62.7403 73.3617 62.697C73.7665 62.6371 74.0939 62.7383 74.3439 63.0005C74.6026 63.2615 74.7682 63.6375 74.8409 64.1284C74.9453 64.8347 74.8218 65.4866 74.4701 66.0843C74.1271 66.6808 73.6068 67.1494 72.9091 67.4903ZM85.6006 58.0611L86.2906 62.7249L85.1408 62.895L84.619 59.3681L83.1979 59.5783L83.0297 58.4414L85.6006 58.0611ZM86.218 62.234C86.5796 62.6557 87.0354 62.9404 87.5853 63.0878C88.1438 63.234 88.7867 63.2665 89.514 63.1853C89.9041 63.1452 90.3711 63.0893 90.915 63.0177C91.4662 62.9361 92.0426 62.8464 92.6443 62.7486C93.2459 62.6508 93.8297 62.5513 94.3956 62.4499C94.9602 62.34 95.4516 62.2409 95.8698 62.1526C95.8395 62.2451 95.8087 62.3641 95.7774 62.5095C95.7461 62.655 95.7197 62.8041 95.6983 62.9569C95.6769 63.1097 95.6659 63.2433 95.6653 63.3578C95.2716 63.4337 94.817 63.5141 94.3015 63.5992C93.7873 63.6929 93.246 63.7818 92.6775 63.8659C92.119 63.9573 91.5807 64.037 91.0626 64.1048C90.5446 64.1726 90.0868 64.2316 89.6894 64.2816C88.8575 64.3694 88.1314 64.3404 87.5114 64.1945C86.8913 64.0486 86.3456 63.7509 85.8742 63.3014C85.6553 63.6066 85.4321 63.9125 85.2046 64.219C84.9784 64.5341 84.7399 64.8554 84.4891 65.183L83.7118 64.123C83.9396 63.878 84.1808 63.6047 84.4354 63.303C84.6986 63 84.9483 62.6946 85.1844 62.3869L86.218 62.234ZM82.4013 54.2833L83.2675 53.5347C83.5319 53.7156 83.7995 53.9181 84.0702 54.142C84.3496 54.3647 84.6032 54.5913 84.8309 54.8216C85.0659 55.0421 85.2517 55.2566 85.3882 55.4653L84.454 56.29C84.3274 56.0887 84.1496 55.8686 83.9207 55.6296C83.7003 55.3893 83.4541 55.1529 83.182 54.9203C82.9186 54.6865 82.6583 54.4741 82.4013 54.2833ZM85.5725 54.6591L89.9651 54.0092L90.1142 55.0169L85.7216 55.6668L85.5725 54.6591ZM87.5899 56.605L89.4761 56.3259L89.6252 57.3336L87.739 57.6127L87.5899 56.605ZM86.983 52.6813L88.107 52.5151L88.4472 54.8147L87.3232 54.981L86.983 52.6813ZM89.0369 56.3909L90.0833 56.2361C90.0833 56.2361 90.0922 56.2964 90.1101 56.4169C90.1266 56.5289 90.1407 56.6236 90.1521 56.7012C90.2588 57.6007 90.3457 58.3668 90.4129 58.9993C90.4887 59.6306 90.5393 60.1512 90.5648 60.5611C90.5889 60.9624 90.5924 61.2831 90.5751 61.5233C90.5652 61.7536 90.5285 61.9219 90.465 62.0281C90.3906 62.1799 90.3019 62.2943 90.1989 62.3711C90.1044 62.4467 89.9767 62.5052 89.8156 62.5466C89.6988 62.5903 89.5414 62.6268 89.3433 62.6561C89.1452 62.6854 88.9428 62.7154 88.7361 62.746C88.7045 62.5922 88.6489 62.4244 88.5692 62.2426C88.4981 62.0595 88.4142 61.909 88.3176 61.7913C88.501 61.7818 88.6666 61.7705 88.8143 61.7574C88.9607 61.7358 89.0726 61.7192 89.1502 61.7077C89.2277 61.6963 89.291 61.6781 89.3401 61.6532C89.388 61.6197 89.4283 61.5654 89.4612 61.4901C89.5088 61.395 89.5256 61.1813 89.5116 60.8489C89.5062 60.5153 89.4668 60.0106 89.3932 59.335C89.327 58.6495 89.2184 57.737 89.0674 56.5976L89.0369 56.3909ZM90.5427 53.5409L94.2634 52.9904L94.4144 54.011L90.6937 54.5615L90.5427 53.5409ZM90.7159 58.2812L95.018 57.6447L95.1652 58.6395L90.8631 59.276L90.7159 58.2812ZM90.7098 55.5625L93.707 55.1191L93.8427 56.0363L90.8455 56.4798L90.7098 55.5625ZM90.6425 52.0739L91.7234 52.1516C91.6591 52.8477 91.5314 53.531 91.3402 54.2018C91.1563 54.8627 90.924 55.434 90.6432 55.9156C90.5826 55.863 90.4942 55.8012 90.3782 55.7304C90.2621 55.6595 90.1423 55.5936 90.0189 55.5327C89.8941 55.4631 89.7892 55.4082 89.704 55.368C89.9753 54.9407 90.187 54.4385 90.3393 53.8614C90.4989 53.2745 90.6 52.6787 90.6425 52.0739ZM92.1765 57.0882L93.2229 56.9333L93.7944 60.7962C93.8314 61.046 93.8318 61.2571 93.7957 61.4297C93.767 61.5924 93.6686 61.7302 93.5004 61.843C93.3397 61.946 93.1277 62.0302 92.8645 62.0956C92.6087 62.151 92.2999 62.2055 91.9381 62.259C91.8992 62.1151 91.8313 61.9536 91.7344 61.7743C91.6362 61.5864 91.5375 61.425 91.4383 61.29C91.698 61.2604 91.9355 61.2297 92.1508 61.1978C92.3661 61.1659 92.5082 61.1449 92.5771 61.1347C92.7063 61.1156 92.7626 61.0501 92.7461 60.9381L92.1765 57.0882ZM93.384 55.1668L93.6295 55.1305L93.8267 55.0354L94.5563 55.4159C94.3798 55.8293 94.1572 56.2582 93.8885 56.7029C93.6199 57.1475 93.3546 57.5256 93.0926 57.8372C93.0097 57.7526 92.899 57.659 92.7606 57.5562C92.6209 57.4449 92.5035 57.3654 92.4085 57.3179C92.614 57.041 92.8081 56.7175 92.991 56.3472C93.1825 55.9756 93.3224 55.6424 93.4108 55.3477L93.384 55.1668ZM86.7524 54.9598L87.7601 54.8107L88.1061 57.1491C88.1685 57.5711 88.2182 58.0258 88.2551 58.5133C88.2907 58.9921 88.2889 59.4852 88.2495 59.9927C88.2175 60.4903 88.1326 60.987 87.9947 61.4826C87.8555 61.9697 87.6417 62.4282 87.3533 62.8581C87.2605 62.7662 87.1257 62.6586 86.949 62.5351C86.7809 62.4103 86.6352 62.3175 86.5117 62.2565C86.8305 61.7341 87.0395 61.1839 87.1389 60.6059C87.2369 60.0193 87.2697 59.438 87.2373 58.8619C87.2135 58.2845 87.1665 57.759 87.0965 57.2853L86.7524 54.9598ZM104.167 51.578C104.286 51.9653 104.435 52.3789 104.615 52.8188C104.803 53.2574 105.032 53.7032 105.301 54.1563C105.578 54.5994 105.911 55.0342 106.299 55.4608C106.697 55.8861 107.174 56.2863 107.731 56.6616L107.064 57.9485C106.512 57.4932 106.001 56.9835 105.53 56.4195C105.058 55.8468 104.611 55.2045 104.189 54.4924C103.767 53.7803 103.351 52.9925 102.942 52.129L104.167 51.578ZM95.9983 53.4731C96.2162 53.4584 96.453 53.4234 96.7089 53.3679C97.009 53.3147 97.3497 53.2379 97.7309 53.1375C98.1121 53.0371 98.5007 52.9268 98.8966 52.8066C99.2924 52.6865 99.6532 52.5671 99.9789 52.4485C100.313 52.3286 100.574 52.2153 100.76 52.1084L101.316 53.188C101.225 53.2278 101.119 53.2832 100.997 53.354C100.875 53.4161 100.77 53.4801 100.683 53.5458C100.529 53.7004 100.354 53.9156 100.158 54.1911C99.9594 54.4581 99.7603 54.778 99.5602 55.1508C99.3688 55.5224 99.1959 55.9308 99.0418 56.3761C98.8962 56.8201 98.7903 57.2935 98.7238 57.7962C98.6647 58.289 98.6727 58.7895 98.7479 59.2976C98.8116 59.7283 98.9297 60.0804 99.1023 60.3542C99.2735 60.6193 99.4802 60.8263 99.7222 60.9754C99.9729 61.1231 100.247 61.219 100.544 61.2631C100.848 61.2973 101.16 61.2908 101.478 61.2436C102.495 61.0933 103.224 60.6378 103.666 59.8771C104.115 59.1065 104.295 58.0941 104.206 56.8398C104.126 55.5843 103.786 54.1472 103.186 52.5285L104.68 54.4198C104.924 55.1142 105.108 55.8219 105.232 56.5429C105.356 57.2638 105.393 57.9581 105.342 58.6257C105.291 59.2933 105.135 59.9061 104.875 60.4639C104.613 61.0132 104.219 61.4762 103.694 61.8532C103.169 62.2301 102.488 62.4804 101.653 62.604C101.145 62.6792 100.656 62.6767 100.187 62.5965C99.7256 62.5151 99.3068 62.3614 98.9301 62.1355C98.5535 61.9096 98.2392 61.5996 97.9872 61.2056C97.7439 60.8104 97.5809 60.3328 97.498 59.773C97.4139 59.2045 97.3952 58.6616 97.4419 58.1442C97.4959 57.617 97.5938 57.1184 97.7355 56.6486C97.8846 56.1689 98.0639 55.7155 98.2736 55.2884C98.4906 54.8514 98.7194 54.4347 98.96 54.0383C98.7743 54.0921 98.5548 54.1554 98.3015 54.2281C98.0556 54.2909 97.8146 54.3573 97.5785 54.4275C97.3498 54.4877 97.1641 54.5416 97.0215 54.5891C96.9022 54.6155 96.7836 54.6463 96.6655 54.6814C96.5561 54.7151 96.4344 54.7552 96.3004 54.8014L95.9983 53.4731ZM105.197 50.6863C105.309 50.8458 105.433 51.0299 105.569 51.2386C105.704 51.4386 105.835 51.6393 105.962 51.8406C106.097 52.0406 106.208 52.2266 106.295 52.3985L105.536 52.8013C105.438 52.6134 105.326 52.4187 105.199 52.2174C105.071 52.0075 104.944 51.8019 104.817 51.6006C104.699 51.398 104.58 51.2176 104.46 51.0594L105.197 50.6863ZM106.481 49.9947C106.656 50.2241 106.851 50.5032 107.067 50.8321C107.283 51.1611 107.466 51.4507 107.618 51.7012L106.846 52.1058C106.698 51.8196 106.522 51.5201 106.317 51.2071C106.121 50.8929 105.931 50.6174 105.746 50.3807L106.481 49.9947ZM26.3136 78.5792L31.8172 77.7649L31.9835 78.8889L26.4799 79.7031L26.3136 78.5792ZM26.5414 83.153L33.6728 82.0979L33.8449 83.2606L26.7134 84.3157L26.5414 83.153ZM29.2222 81.1061L30.4496 80.9245L31.4855 87.9267C31.534 88.254 31.5242 88.5151 31.4562 88.71C31.3981 88.9122 31.269 89.0809 31.069 89.2161C30.8505 89.3453 30.5666 89.4489 30.2173 89.527C29.868 89.6051 29.4435 89.6811 28.944 89.755C28.8927 89.5865 28.8024 89.393 28.6733 89.1745C28.5527 88.9547 28.4373 88.7694 28.327 88.6185C28.7072 88.571 29.053 88.5287 29.3643 88.4914C29.683 88.4442 29.8977 88.4081 30.0084 88.3829C30.1204 88.3663 30.191 88.3383 30.2204 88.2987C30.2583 88.2579 30.2703 88.1901 30.2563 88.0954L29.2222 81.1061ZM31.365 77.8318L31.6622 77.7879L31.911 77.685L32.7999 78.1608C32.5963 78.5694 32.3602 78.996 32.0915 79.4406C31.8228 79.8852 31.5344 80.3151 31.2262 80.7304C30.9253 81.1358 30.6267 81.4968 30.3303 81.8135C30.2276 81.7143 30.0928 81.6066 29.926 81.4904C29.7579 81.3657 29.6165 81.2722 29.5017 81.21C29.7588 80.9255 30.0096 80.5979 30.254 80.2273C30.507 79.8554 30.7336 79.4831 30.9337 79.1102C31.1325 78.7288 31.289 78.3887 31.4033 78.0902L31.365 77.8318ZM21.3331 81.3227L25.5577 80.6977L25.7259 81.8346L21.5013 82.4596L21.3331 81.3227ZM22.8054 78.4249L23.9744 78.384C23.942 79.0576 23.9038 79.7806 23.8596 80.5529C23.8228 81.3152 23.7736 82.0838 23.7122 82.8586C23.6595 83.6321 23.5979 84.3762 23.5276 85.0907C23.4659 85.8039 23.4026 86.447 23.3377 87.0199L22.2517 86.6392C22.3156 86.1193 22.3766 85.5206 22.4348 84.8431C22.5016 84.1643 22.559 83.4517 22.607 82.7053C22.655 81.9589 22.695 81.218 22.7271 80.4828C22.7591 79.7475 22.7852 79.0616 22.8054 78.4249ZM22.7575 86.2212L23.3161 85.2672C23.8219 85.474 24.3508 85.717 24.9026 85.9962C25.4531 86.2668 25.9704 86.5511 26.4546 86.8492C26.9473 87.1459 27.3428 87.4395 27.641 87.7298L27.0499 88.8206C26.7517 88.5303 26.3635 88.2268 25.8854 87.9103C25.4074 87.5938 24.8954 87.2867 24.3497 86.9889C23.804 86.6912 23.2733 86.4353 22.7575 86.2212ZM25.1313 80.7608L25.338 80.7302L25.539 80.6609L26.2964 80.694C26.4403 82.3802 26.4292 83.8517 26.263 85.1084C26.1043 86.3553 25.7969 87.4305 25.3409 88.3341C24.8922 89.2278 24.2914 89.9856 23.5385 90.6075C23.438 90.4639 23.3006 90.3083 23.1261 90.1404C22.9603 89.9713 22.8038 89.8361 22.6568 89.7346C23.3242 89.2486 23.8615 88.597 24.2687 87.7799C24.6832 86.9528 24.9652 85.9737 25.1147 84.8427C25.2643 83.7116 25.2813 82.4285 25.1657 80.9933L25.1313 80.7608ZM35.8468 78.4097C36.7837 78.3767 37.6582 78.309 38.4703 78.2064C39.2825 78.1039 40.0206 77.9771 40.6848 77.826C41.2284 77.6928 41.7552 77.5356 42.2653 77.3545C42.784 77.1722 43.281 76.9622 43.7563 76.7247L44.0982 77.8755C43.6781 78.0696 43.2087 78.2579 42.69 78.4403C42.17 78.614 41.6468 78.7662 41.1205 78.8969C40.4649 79.0467 39.7022 79.1859 38.8323 79.3146C37.9698 79.4335 37.0584 79.5199 36.0982 79.5739L35.8468 78.4097ZM35.997 81.1203C36.7651 81.0771 37.5042 81.0162 38.2143 80.9375C38.933 80.8576 39.6091 80.7576 40.2426 80.6374C40.8761 80.5173 41.4425 80.3895 41.9417 80.254C42.5788 80.0982 43.1388 79.9273 43.6218 79.7414C44.1134 79.5543 44.5317 79.378 44.8769 79.2125L45.2633 80.3963C44.907 80.5458 44.499 80.703 44.0393 80.8678C43.5783 81.0241 43.0853 81.1718 42.5602 81.3111C42.0351 81.4504 41.4263 81.5889 40.7338 81.7265C40.04 81.8556 39.3091 81.9725 38.5413 82.0773C37.7722 82.1735 37.0049 82.2518 36.2393 82.3123L35.997 81.1203ZM39.9757 77.8517C39.8921 77.644 39.8006 77.4419 39.7012 77.2454C39.6004 77.0403 39.4953 76.8358 39.386 76.6319L40.7454 76.2724C40.8445 76.645 40.9664 77.023 41.1112 77.4064C41.2633 77.78 41.4227 78.1437 41.5895 78.4975C41.7549 78.8426 41.9129 79.1669 42.0634 79.4703C42.2225 79.7724 42.412 80.1008 42.6317 80.4556C42.8514 80.8104 43.0877 81.1582 43.3406 81.4993C43.5934 81.8403 43.8468 82.1549 44.1007 82.443C44.1948 82.5435 44.2925 82.6391 44.3939 82.7297C44.4941 82.8117 44.6028 82.8924 44.7202 82.9718L44.2157 84.0234C43.9656 83.9988 43.6651 83.9905 43.3142 83.9984C42.9707 83.9964 42.6149 84.0006 42.2468 84.0111C41.8873 84.0203 41.5506 84.0349 41.2367 84.0549L41.1948 83.0577C41.5087 83.0377 41.8404 83.0194 42.19 83.0029C42.5396 82.9864 42.8154 82.9764 43.0173 82.9729C42.5813 82.4653 42.1915 81.9421 41.8477 81.4033C41.504 80.8645 41.2047 80.3587 40.9499 79.8859C40.802 79.5997 40.6714 79.3418 40.5582 79.1121C40.445 78.8824 40.343 78.6687 40.2521 78.4709C40.16 78.2645 40.0678 78.0581 39.9757 77.8517ZM38.5659 83.6711C38.444 83.918 38.3443 84.166 38.2667 84.4151C38.1965 84.6543 38.1824 84.916 38.2244 85.2003C38.2996 85.7084 38.5882 86.053 39.0903 86.2339C39.5911 86.4063 40.3151 86.4224 41.2626 86.2822C41.8655 86.193 42.4221 86.0887 42.9325 85.9691C43.4416 85.841 43.9217 85.6952 44.3728 85.5316L44.5013 86.846C44.0636 86.9812 43.5809 87.1098 43.0533 87.2319C42.5343 87.3527 42.0035 87.4532 41.4609 87.5335C40.6082 87.6596 39.867 87.6769 39.2374 87.5852C38.609 87.5021 38.1044 87.3039 37.7236 86.9906C37.3415 86.6687 37.1029 86.2155 37.0076 85.6311C36.9503 85.2435 36.951 84.8914 37.0097 84.5747C37.0672 84.2493 37.1518 83.9287 37.2635 83.613L38.5659 83.6711ZM47.8175 77.4044C48.0797 77.392 48.3542 77.3734 48.641 77.3486C48.9351 77.3139 49.2113 77.2774 49.4697 77.2392C49.9693 77.1653 50.4742 77.0686 50.9846 76.949C51.5024 76.8196 52.0083 76.67 52.5024 76.5001C53.0039 76.3203 53.4764 76.1227 53.9198 75.9075L54.1344 77.0903C53.7548 77.2609 53.3179 77.4312 52.8238 77.6011C52.3296 77.771 51.8114 77.9269 51.2691 78.0687C50.7268 78.2106 50.1844 78.3216 49.6417 78.4019C49.4006 78.4376 49.1459 78.4709 48.8776 78.5018C48.6093 78.5327 48.3454 78.5629 48.0857 78.5925L47.8175 77.4044ZM52.2827 74.6579C52.2629 74.8808 52.2341 75.1623 52.1964 75.5024C52.1673 75.8411 52.1279 76.199 52.078 76.5761C52.0368 76.9518 51.9894 77.3153 51.9357 77.6665C51.8207 78.3172 51.6598 79.0143 51.453 79.7578C51.2449 80.4927 51.0084 81.2142 50.7435 81.9223C50.4786 82.6304 50.1973 83.2573 49.8995 83.803L48.5656 83.3535C48.8062 82.957 49.0368 82.5224 49.2573 82.0497C49.4765 81.5684 49.6766 81.0768 49.8576 80.5747C50.0459 80.0628 50.2109 79.5719 50.3526 79.1021C50.4931 78.6236 50.6005 78.1897 50.6749 77.8002C50.7576 77.3479 50.8191 76.8415 50.8594 76.2811C50.8997 75.7206 50.8934 75.2023 50.8406 74.726L52.2827 74.6579ZM55.9113 78.2137C55.9421 78.4819 55.9754 78.7367 56.0111 78.9778C56.0468 79.219 56.088 79.4681 56.1349 79.7252C56.1728 79.922 56.2196 80.1792 56.2754 80.4966C56.3385 80.8041 56.4048 81.1331 56.4743 81.4837C56.5437 81.8343 56.6063 82.1683 56.6621 82.4857C56.7265 82.8018 56.7733 83.0589 56.8026 83.257C56.8561 83.6187 56.8234 83.9624 56.7043 84.2881C56.5939 84.6125 56.3798 84.8906 56.0621 85.1224C55.7443 85.3543 55.3012 85.5122 54.7328 85.5963C54.2332 85.6702 53.7659 85.6646 53.3308 85.5793C52.9044 85.4928 52.5446 85.3216 52.2515 85.0657C51.967 84.8085 51.7916 84.456 51.7254 84.0082C51.6655 83.6034 51.7246 83.2294 51.9026 82.8862C52.0893 82.5417 52.3723 82.2534 52.7516 82.0212C53.1297 81.7805 53.5857 81.6206 54.1197 81.5416C54.8604 81.432 55.5567 81.439 56.2087 81.5626C56.8594 81.6775 57.4538 81.8581 57.9919 82.1041C58.5373 82.3402 59.0144 82.5909 59.4233 82.8561L58.9011 84.0555C58.6182 83.8685 58.3081 83.6767 57.971 83.4802C57.6326 83.275 57.2629 83.0965 56.862 82.9446C56.4684 82.7828 56.0461 82.6648 55.5951 82.5907C55.1527 82.5153 54.6903 82.5133 54.208 82.5847C53.7773 82.6484 53.4413 82.7861 53.1997 82.9979C52.9668 83.2084 52.8701 83.4471 52.9097 83.7141C52.9504 83.9897 53.0955 84.1971 53.3449 84.3362C53.603 84.4741 53.9516 84.5105 54.3909 84.4455C54.7182 84.3971 54.9689 84.3072 55.1431 84.1758C55.3246 84.0345 55.4401 83.8634 55.4896 83.6625C55.5391 83.4615 55.5466 83.2448 55.5122 83.0122C55.4791 82.7883 55.4259 82.4881 55.3526 82.1117C55.2879 81.734 55.2102 81.3275 55.1193 80.892C55.0371 80.4553 54.9506 80.0193 54.8598 79.5838C54.7763 79.1385 54.7048 78.7442 54.6452 78.401L55.9113 78.2137ZM58.4127 78.3453C58.1422 78.1829 57.8096 78.0164 57.4147 77.846C57.0186 77.667 56.6157 77.5022 56.2062 77.3515C55.7953 77.1923 55.434 77.0697 55.122 76.9838L55.6337 75.8916C55.8816 75.9605 56.1627 76.0465 56.4772 76.1496C56.7917 76.2527 57.1075 76.3644 57.4245 76.4848C57.7416 76.6051 58.0371 76.7286 58.3111 76.8553C58.5838 76.9733 58.8102 77.0763 58.9905 77.164L58.4127 78.3453ZM68.8284 74.7712C68.8641 75.0123 68.9814 75.2106 69.1804 75.366C69.3868 75.5115 69.6105 75.5664 69.8517 75.5307C70.1015 75.4938 70.2998 75.3764 70.4465 75.1787C70.592 74.9723 70.6469 74.7486 70.6113 74.5074C70.5743 74.2576 70.457 74.0594 70.2592 73.9126C70.0615 73.7658 69.8377 73.7109 69.5879 73.7479C69.3468 73.7835 69.1485 73.9009 68.9931 74.0999C68.8464 74.2977 68.7914 74.5214 68.8284 74.7712ZM68.1178 74.8763C68.0732 74.5749 68.102 74.2934 68.2041 74.0318C68.3136 73.7604 68.4781 73.5336 68.6976 73.3515C68.9257 73.1681 69.1862 73.0548 69.479 73.0115C69.7804 72.9669 70.0626 72.9999 70.3254 73.1107C70.5968 73.2201 70.8242 73.3889 71.0076 73.617C71.1897 73.8365 71.303 74.097 71.3476 74.3985C71.391 74.6913 71.3579 74.9734 71.2484 75.2449C71.1377 75.5077 70.9683 75.7308 70.7402 75.9142C70.5194 76.0876 70.2583 76.1967 69.9568 76.2413C69.664 76.2846 69.3825 76.2558 69.1123 76.155C68.8495 76.0443 68.6271 75.8791 68.445 75.6596C68.2702 75.4303 68.1612 75.1691 68.1178 74.8763ZM60.8458 80.3352C61.005 80.1621 61.1477 79.9957 61.2737 79.8363C61.3997 79.6768 61.5398 79.4933 61.6939 79.2856C61.826 79.1077 61.9739 78.8878 62.1376 78.6259C62.3013 78.3641 62.4747 78.0788 62.6579 77.77C62.8496 77.46 63.0408 77.1457 63.2313 76.8271C63.4218 76.5084 63.6019 76.2089 63.7716 75.9286C64.0709 75.453 64.3983 75.167 64.7536 75.0704C65.1163 74.9639 65.5634 75.1002 66.0947 75.4793C66.4073 75.6883 66.7422 75.9292 67.0994 76.202C67.4566 76.4748 67.8095 76.7482 68.1581 77.0223C68.5153 77.2951 68.8385 77.5465 69.1278 77.7765C69.4665 78.0433 69.8461 78.348 70.2664 78.6907C70.6941 79.0234 71.128 79.3685 71.5681 79.7259C72.0156 80.0733 72.4297 80.4037 72.8105 80.717L71.8624 82.0719C71.5148 81.7449 71.1437 81.4081 70.7492 81.0616C70.3547 80.7151 69.9657 80.3766 69.5824 80.0461C69.2077 79.7142 68.8638 79.413 68.551 79.1425C68.3296 78.9552 68.0842 78.7539 67.8147 78.5385C67.5538 78.3219 67.2886 78.1059 67.0191 77.8905C66.7583 77.6738 66.5135 77.4768 66.2848 77.2994C66.0561 77.122 65.8676 76.9783 65.7193 76.8682C65.4536 76.6787 65.2446 76.604 65.0921 76.6442C64.9383 76.6757 64.7772 76.836 64.6087 77.1249C64.4878 77.3189 64.3504 77.5504 64.1966 77.8196C64.0514 78.0875 63.8995 78.3696 63.741 78.6659C63.5811 78.9536 63.4249 79.2364 63.2724 79.5142C63.1186 79.7834 62.9855 80.0143 62.8732 80.2069C62.7621 80.4082 62.6524 80.6181 62.5439 80.8365C62.4354 81.055 62.3403 81.2451 62.2586 81.4068L60.8458 80.3352ZM78.9585 73.5497C79.0379 73.67 79.144 73.8523 79.277 74.0967C79.4087 74.3324 79.5479 74.5891 79.6946 74.8666C79.8486 75.1343 79.9878 75.3909 80.1121 75.6366C80.2451 75.8809 80.3433 76.0688 80.4068 76.2003L79.2573 76.8192C79.2 76.6693 79.1097 76.4758 78.9866 76.2387C78.8623 75.9931 78.728 75.7401 78.5839 75.4798C78.4385 75.2109 78.295 74.9549 78.1534 74.7118C78.0205 74.4674 77.9038 74.2734 77.8033 74.1299L78.9585 73.5497ZM83.7963 73.6789C83.7602 73.8515 83.7296 74.0012 83.7043 74.1282C83.6877 74.2538 83.6742 74.3703 83.6636 74.4774C83.5933 75.192 83.4608 75.9025 83.2661 76.609C83.0799 77.3142 82.802 77.9934 82.4321 78.6466C81.95 79.4925 81.3688 80.2342 80.6886 80.8717C80.0158 81.4993 79.3343 82.0094 78.6443 82.4019L77.4095 81.4624C77.8714 81.2533 78.3417 80.9813 78.8202 80.6464C79.2988 80.3116 79.7481 79.9283 80.1683 79.4964C80.5971 79.0634 80.9556 78.6011 81.2437 78.1096C81.4818 77.6959 81.6863 77.2344 81.8574 76.725C82.0272 76.207 82.1501 75.6695 82.2261 75.1126C82.3009 74.547 82.3283 73.9885 82.3083 73.437L83.7963 73.6789ZM76.0477 74.6669C76.1468 74.8018 76.2672 74.9908 76.4088 75.2339C76.5577 75.4671 76.7098 75.7219 76.8651 75.9981C77.029 76.2731 77.1824 76.5365 77.3253 76.7882C77.4681 77.0399 77.5831 77.2517 77.6701 77.4237L76.5097 78.0574C76.4338 77.9014 76.3238 77.6933 76.1797 77.433C76.0343 77.164 75.879 76.8878 75.7138 76.6041C75.5572 76.3193 75.4045 76.0602 75.2556 75.827C75.114 75.5839 74.9949 75.4035 74.8982 75.2858L76.0477 74.6669ZM90.6735 78.3119C90.6531 78.1741 90.6161 77.9243 90.5626 77.5626C90.5078 77.1922 90.4435 76.7573 90.3696 76.2577C90.2944 75.7496 90.2167 75.2242 90.1364 74.6816C90.0548 74.1304 89.9758 73.5964 89.8994 73.0796C89.8229 72.5628 89.7554 72.1064 89.6968 71.7102C89.6382 71.314 89.5955 71.0254 89.5687 70.8446C89.5381 70.6379 89.4945 70.4023 89.4378 70.1378C89.3798 69.8648 89.3133 69.6238 89.2384 69.4148L90.8274 69.1797C90.8408 69.389 90.8543 69.629 90.868 69.8998C90.8902 70.1694 90.9179 70.4161 90.9511 70.6401C90.9944 70.9329 91.0492 71.3032 91.1155 71.7511C91.1804 72.1904 91.2512 72.6684 91.3276 73.1851C91.4041 73.7019 91.4812 74.223 91.5589 74.7484C91.6366 75.2738 91.7099 75.769 91.7787 76.2341C91.8462 76.6906 91.9048 77.0868 91.9545 77.4227C92.0042 77.7586 92.038 77.9868 92.0558 78.1074C92.0762 78.2452 92.1054 78.4125 92.1433 78.6093C92.1812 78.8061 92.2241 79.0066 92.2719 79.2108C92.3184 79.4063 92.3624 79.5846 92.4039 79.7457L90.8148 79.9808C90.8161 79.7518 90.8024 79.481 90.7738 79.1684C90.7439 78.8472 90.7104 78.5617 90.6735 78.3119ZM90.9387 72.609C91.3786 72.6671 91.8746 72.7478 92.4267 72.8509C92.9776 72.9454 93.5353 73.0566 94.0999 73.1843C94.6632 73.3033 95.2007 73.4263 95.7123 73.553C96.2239 73.6797 96.6598 73.8001 97.0199 73.914L96.6469 75.4082C96.2558 75.2637 95.8174 75.1261 95.3316 74.9955C94.8532 74.8551 94.3631 74.7252 93.8613 74.6058C93.3596 74.4864 92.8733 74.3823 92.4025 74.2935C91.9403 74.2035 91.5244 74.1286 91.1547 74.0689L90.9387 72.609ZM105.678 68.2764C105.69 68.9523 105.682 69.6708 105.654 70.4319C105.633 71.1831 105.564 71.937 105.447 72.6937C105.319 73.6104 105.136 74.3987 104.899 75.0587C104.67 75.7087 104.389 76.2211 104.057 76.5958C103.725 76.9706 103.349 77.1892 102.927 77.2516C102.496 77.3153 102.074 77.2281 101.66 76.9901C101.245 76.7434 100.882 76.3703 100.57 75.8707C100.257 75.3625 100.048 74.751 99.9424 74.0361C99.8354 73.3127 99.8805 72.6063 100.078 71.917C100.284 71.2264 100.612 70.5925 101.064 70.0152C101.515 69.438 102.069 68.9556 102.724 68.5682C103.38 68.1807 104.113 67.9271 104.922 67.8074C105.697 67.6927 106.413 67.7143 107.071 67.8724C107.736 68.0291 108.322 68.2989 108.827 68.6818C109.34 69.0548 109.757 69.5212 110.077 70.0811C110.398 70.641 110.608 71.2568 110.707 71.9286C110.841 72.833 110.771 73.6663 110.496 74.4286C110.229 75.1811 109.767 75.8347 109.11 76.3896C108.451 76.9359 107.608 77.3643 106.58 77.6748L105.638 76.5732C105.858 76.5142 106.061 76.4578 106.247 76.4039C106.431 76.3414 106.603 76.2809 106.761 76.2222C107.161 76.0663 107.531 75.8619 107.872 75.609C108.222 75.3548 108.52 75.0554 108.769 74.7106C109.016 74.3572 109.19 73.9617 109.293 73.5241C109.404 73.0852 109.421 72.6074 109.345 72.0906C109.268 71.5738 109.116 71.1079 108.887 70.6929C108.657 70.2692 108.359 69.9173 107.992 69.6372C107.625 69.357 107.195 69.1609 106.703 69.0489C106.21 68.9282 105.671 68.9112 105.085 68.9978C104.379 69.1023 103.769 69.3202 103.254 69.6515C102.74 69.9829 102.32 70.3839 101.993 70.8547C101.674 71.3155 101.451 71.7975 101.323 72.3005C101.195 72.8035 101.163 73.2746 101.228 73.7139C101.301 74.2048 101.422 74.605 101.591 74.9145C101.758 75.2153 101.944 75.4298 102.148 75.5581C102.352 75.6864 102.548 75.7365 102.738 75.7085C102.927 75.6804 103.107 75.557 103.277 75.3382C103.446 75.1108 103.598 74.7715 103.734 74.3201C103.878 73.8675 104.001 73.2993 104.102 72.6154C104.208 71.966 104.275 71.2829 104.301 70.5661C104.334 69.8395 104.331 69.1358 104.292 68.4551L105.678 68.2764ZM27.2085 97.7451L28.4745 97.5578L29.4149 103.914C29.4595 104.215 29.5356 104.402 29.6431 104.474C29.7505 104.546 29.9722 104.558 30.3081 104.508C30.3856 104.497 30.5191 104.477 30.7086 104.449C30.8981 104.421 31.1048 104.39 31.3287 104.357C31.5613 104.323 31.7766 104.291 31.9747 104.261C32.1814 104.231 32.3321 104.209 32.4269 104.195C32.668 104.159 32.8394 104.067 32.9408 103.92C33.041 103.765 33.0896 103.498 33.0864 103.12C33.0833 102.742 33.0418 102.194 32.9619 101.475C33.1249 101.565 33.326 101.646 33.5652 101.716C33.8031 101.777 34.0121 101.821 34.192 101.847C34.2601 102.665 34.2682 103.315 34.2165 103.798C34.1634 104.272 34.0174 104.624 33.7785 104.853C33.5395 105.082 33.1745 105.232 32.6836 105.305C32.6147 105.315 32.4984 105.333 32.3348 105.357C32.1798 105.38 31.9989 105.406 31.7922 105.437C31.5941 105.466 31.396 105.496 31.1979 105.525C30.9998 105.554 30.8232 105.58 30.6682 105.603C30.5132 105.626 30.4055 105.642 30.3452 105.651C29.8457 105.725 29.4455 105.727 29.1447 105.657C28.8538 105.594 28.6326 105.438 28.4812 105.188C28.3297 104.937 28.2183 104.571 28.1469 104.088L27.2085 97.7451ZM26.8941 95.0852L27.5298 94.0274C28.072 94.1232 28.6379 94.2595 29.2273 94.4363C29.8155 94.6045 30.3754 94.7901 30.9071 94.9931C31.4376 95.1875 31.8886 95.3804 32.2602 95.5719L31.6178 96.7627C31.2523 96.5527 30.803 96.3419 30.2701 96.1303C29.7371 95.9187 29.1752 95.7202 28.5845 95.5348C28.0024 95.3481 27.4389 95.1982 26.8941 95.0852ZM25.1206 99.0705L26.3455 99.1401C26.3706 99.7261 26.3687 100.338 26.3399 100.976C26.3196 101.613 26.2562 102.225 26.1495 102.813C26.0429 103.401 25.8701 103.928 25.631 104.395L24.3967 103.904C24.6248 103.483 24.7924 103.009 24.8994 102.483C25.005 101.948 25.0761 101.387 25.1126 100.801C25.1491 100.215 25.1518 99.638 25.1206 99.0705ZM32.6252 98.0394L33.6431 97.3344C34.102 97.7593 34.5329 98.2325 34.9356 98.7538C35.3458 99.2652 35.7079 99.7793 36.022 100.296C36.3434 100.803 36.5896 101.277 36.7605 101.718L35.621 102.494C35.4687 102.059 35.2348 101.579 34.9194 101.053C34.6126 100.527 34.2579 100.003 33.8551 99.4813C33.4597 98.9501 33.0497 98.4695 32.6252 98.0394ZM43.4344 93.7338C43.4464 94.4098 43.4382 95.1283 43.41 95.8894C43.3891 96.6406 43.3203 97.3945 43.2034 98.1511C43.0749 99.0678 42.8923 99.8562 42.6555 100.516C42.426 101.166 42.1454 101.679 41.8136 102.053C41.4818 102.428 41.1048 102.647 40.6828 102.709C40.2522 102.773 39.83 102.686 39.4163 102.448C39.0014 102.201 38.6381 101.828 38.3266 101.328C38.0138 100.82 37.8045 100.208 37.6987 99.4936C37.5917 98.7701 37.6368 98.0637 37.834 97.3744C38.0399 96.6839 38.3686 96.0499 38.8201 95.4727C39.2716 94.8954 39.8251 94.413 40.4807 94.0256C41.1363 93.6382 41.8689 93.3846 42.6785 93.2648C43.4536 93.1501 44.1697 93.1718 44.8268 93.3298C45.4925 93.4865 46.0781 93.7564 46.5836 94.1392C47.0965 94.5122 47.5131 94.9787 47.8336 95.5386C48.1541 96.0984 48.364 96.7143 48.4634 97.3861C48.5972 98.2904 48.5269 99.1238 48.2524 99.8861C47.9852 100.639 47.5231 101.292 46.8658 101.847C46.2074 102.393 45.3642 102.822 44.3364 103.132L43.3945 102.031C43.6146 101.972 43.8175 101.915 44.0031 101.861C44.1875 101.799 44.359 101.738 44.5175 101.68C44.9169 101.524 45.2871 101.319 45.6282 101.066C45.9778 100.812 46.2768 100.513 46.525 100.168C46.772 99.8146 46.9467 99.4191 47.0492 98.9815C47.1603 98.5426 47.1776 98.0648 47.1011 97.548C47.0247 97.0312 46.8721 96.5653 46.6435 96.1503C46.4136 95.7266 46.1151 95.3747 45.748 95.0946C45.3809 94.8145 44.9514 94.6184 44.4596 94.5063C43.9665 94.3856 43.4271 94.3686 42.8414 94.4553C42.1351 94.5598 41.5249 94.7777 41.0106 95.109C40.4964 95.4403 40.076 95.8413 39.7496 96.3121C39.4305 96.773 39.207 97.2549 39.079 97.7579C38.951 98.2609 38.9194 98.7321 38.9844 99.1713C39.0571 99.6623 39.1779 100.062 39.3469 100.372C39.5146 100.673 39.7004 100.887 39.9042 101.016C40.108 101.144 40.3046 101.194 40.4941 101.166C40.6836 101.138 40.8634 101.014 41.0334 100.796C41.2022 100.568 41.3544 100.229 41.4901 99.7776C41.6344 99.325 41.7571 98.7567 41.8584 98.0728C41.9647 97.4234 42.0309 96.7403 42.0569 96.0236C42.0902 95.2969 42.0873 94.5932 42.0482 93.9125L43.4344 93.7338ZM53.4466 98.1407L54.6868 97.9572L55.0347 100.308C55.0627 100.498 55.1279 100.612 55.2303 100.649C55.3327 100.687 55.5562 100.68 55.9007 100.629C55.9868 100.616 56.1246 100.596 56.3141 100.568C56.5122 100.539 56.7275 100.507 56.96 100.472C57.2012 100.437 57.4251 100.404 57.6318 100.373C57.8472 100.341 58.0065 100.318 58.1099 100.302C58.308 100.273 58.4493 100.217 58.5338 100.134C58.6257 100.041 58.6766 99.8797 58.6866 99.6494C58.7038 99.4092 58.6873 99.0596 58.637 98.6005C58.7407 98.6468 58.8615 98.6905 58.9997 98.7317C59.1378 98.7729 59.2795 98.8091 59.425 98.8404C59.5778 98.8618 59.7078 98.8778 59.8149 98.8883C59.8611 99.4976 59.8481 99.9748 59.7759 100.32C59.7025 100.656 59.5541 100.903 59.3308 101.059C59.1173 101.223 58.7953 101.336 58.3647 101.4C58.2958 101.41 58.1795 101.427 58.0159 101.452C57.8522 101.476 57.667 101.503 57.4603 101.534C57.2536 101.564 57.0469 101.595 56.8402 101.626C56.6335 101.656 56.4483 101.684 56.2847 101.708C56.121 101.732 56.0091 101.749 55.9488 101.757C55.4406 101.833 55.0374 101.844 54.7392 101.791C54.4496 101.737 54.2322 101.607 54.0871 101.399C53.9519 101.199 53.855 100.901 53.7964 100.505L53.4466 98.1407ZM54.6199 97.505L55.3081 96.6243C55.6498 96.7321 56.0038 96.8646 56.3703 97.0216C56.7454 97.1773 57.0959 97.3455 57.4219 97.5261C57.7552 97.6968 58.0355 97.8666 58.2629 98.0354L57.5216 99.0032C57.3127 98.8405 57.0453 98.6688 56.7193 98.4882C56.4007 98.2977 56.0575 98.1196 55.6897 97.954C55.3207 97.7798 54.9641 97.6301 54.6199 97.505ZM59.2942 97.4207L60.3125 96.808C60.6107 97.0983 60.9041 97.4158 61.1927 97.7604C61.4887 98.095 61.7588 98.4335 62.003 98.7758C62.246 99.1095 62.4329 99.4207 62.5636 99.7095L61.4515 100.402C61.3307 100.121 61.1524 99.8082 60.9168 99.4646C60.6897 99.1198 60.4356 98.7701 60.1543 98.4157C59.8717 98.0526 59.585 97.721 59.2942 97.4207ZM51.6867 98.203L52.8441 98.441C52.793 98.8094 52.7279 99.2019 52.6487 99.6185C52.5695 100.035 52.4711 100.441 52.3537 100.837C52.2362 101.233 52.0952 101.588 51.9305 101.903L50.7444 101.471C50.9117 101.174 51.0565 100.844 51.1791 100.483C51.309 100.112 51.4155 99.7306 51.4985 99.3398C51.5802 98.9405 51.643 98.5615 51.6867 98.203ZM52.187 94.4456L52.3992 95.8796L59.2076 94.8724L58.9954 93.4383L52.187 94.4456ZM51.8315 92.0426L52.0379 93.4379L58.8463 92.4306L58.6399 91.0353L51.8315 92.0426ZM50.5101 91.1424L59.6828 89.7853L60.5658 95.754L51.3932 97.111L50.5101 91.1424ZM54.5839 91.0149L55.7724 90.8391L56.5198 95.8905L55.3312 96.0664L54.5839 91.0149ZM64.8789 90.2839C64.8709 90.4083 64.871 90.5579 64.8793 90.7327C64.8876 90.9075 64.8958 91.0823 64.9041 91.2572C64.921 91.4307 64.9383 91.5777 64.9562 91.6983C64.9957 91.9653 65.0396 92.2625 65.088 92.5897C65.1451 92.9158 65.2034 93.2504 65.263 93.5936C65.3213 93.9283 65.3925 94.261 65.4766 94.5918C65.6462 95.262 65.8375 95.841 66.0505 96.3287C66.2635 96.8165 66.4986 97.1866 66.756 97.439C67.0134 97.6913 67.2842 97.7965 67.5684 97.7544C67.732 97.7302 67.8756 97.6298 67.9991 97.4531C68.1226 97.2764 68.2298 97.0493 68.3208 96.7718C68.4117 96.4943 68.4866 96.1972 68.5453 95.8804C68.6114 95.5538 68.6622 95.2426 68.6977 94.947L69.8961 95.9974C69.7288 96.7703 69.5398 97.3968 69.3292 97.8768C69.1259 98.3469 68.8961 98.6978 68.64 98.9293C68.3838 99.1608 68.0963 99.3002 67.7777 99.3473C67.347 99.411 66.9119 99.3258 66.4724 99.0916C66.0402 98.8474 65.6317 98.4062 65.2468 97.7678C64.8619 97.1295 64.5251 96.2508 64.2363 95.1317C64.1372 94.7591 64.0422 94.3551 63.9514 93.9197C63.8692 93.483 63.7945 93.0672 63.7272 92.6723C63.6686 92.2761 63.6202 91.9488 63.582 91.6904C63.5578 91.5268 63.5198 91.3299 63.4682 91.0999C63.4239 90.86 63.3675 90.6572 63.2989 90.4913L64.8789 90.2839ZM71.5413 89.6283C71.8185 89.8953 72.0947 90.2153 72.3699 90.5883C72.6524 90.9513 72.9185 91.352 73.1682 91.7904C73.4179 92.2287 73.6473 92.6788 73.8565 93.1408C74.0743 93.6014 74.2656 94.0616 74.4304 94.5213C74.5952 94.981 74.7261 95.4193 74.823 95.8362L73.5687 96.5498C73.4342 95.9977 73.2614 95.4247 73.0504 94.8311C72.8393 94.2374 72.5951 93.6574 72.3177 93.0912C72.039 92.5163 71.7316 91.9853 71.3955 91.4981C71.0667 91.0011 70.71 90.583 70.3254 90.2439L71.5413 89.6283ZM80.6344 86.7516C80.6197 87.009 80.5917 87.3256 80.5505 87.7013C80.5166 88.0672 80.4467 88.4868 80.3407 88.9602C80.2478 89.3436 80.1217 89.7407 79.9624 90.1515C79.8118 90.561 79.6474 90.9374 79.4694 91.2806C79.603 91.1728 79.7608 91.079 79.9426 90.9993C80.1318 90.9097 80.3235 90.8374 80.5178 90.7822C80.7194 90.7172 80.902 90.6726 81.0657 90.6484C81.5825 90.5719 82.0397 90.6583 82.4374 90.9075C82.8339 91.1481 83.0735 91.5483 83.1563 92.1081C83.1818 92.2804 83.2131 92.4914 83.25 92.7412C83.287 92.9909 83.3301 93.253 83.3795 93.5273C83.4289 93.8017 83.4734 94.0723 83.5129 94.3393C83.561 94.605 83.5997 94.837 83.629 95.0351L82.4017 95.2166C82.3861 95.0517 82.3666 94.861 82.3434 94.6444C82.3189 94.4192 82.2888 94.186 82.2531 93.9448C82.226 93.7024 82.1959 93.4692 82.1628 93.2453C82.1297 93.0213 82.1004 92.8232 82.0749 92.651C82.0089 92.2647 81.8512 92.002 81.6018 91.8628C81.3524 91.7237 81.077 91.6764 80.7755 91.721C80.3879 91.7784 80.0138 91.9262 79.6529 92.1644C79.3007 92.4013 79.0059 92.6694 78.7686 92.9685C78.6144 93.1761 78.4555 93.4109 78.2919 93.6727C78.1368 93.9333 77.972 94.2173 77.7974 94.5248L76.564 93.8624C77.0755 93.2146 77.5003 92.6061 77.8386 92.0367C78.1768 91.4674 78.4457 90.9348 78.6451 90.4388C78.8519 89.9329 79.0023 89.4618 79.0961 89.0255C79.1817 88.6519 79.2408 88.2779 79.2734 87.9035C79.3047 87.5204 79.3054 87.1682 79.2755 86.847L80.6344 86.7516ZM76.2024 88.7407C76.5545 88.7414 76.9392 88.7241 77.3565 88.6887C77.7724 88.6448 78.1354 88.5999 78.4455 88.554C79.0225 88.4687 79.6451 88.3634 80.313 88.2381C80.981 88.1129 81.6508 87.9698 82.3223 87.8088C83.0024 87.6466 83.6399 87.4643 84.2348 87.2618L84.4126 88.4633C83.965 88.5912 83.4867 88.7191 82.9776 88.8473C82.4684 88.9754 81.9494 89.0962 81.4205 89.2096C80.8904 89.3145 80.3811 89.4118 79.8927 89.5017C79.403 89.5829 78.9558 89.6535 78.551 89.7134C78.3701 89.7402 78.1548 89.772 77.905 89.809C77.6626 89.836 77.4066 89.8607 77.1371 89.883C76.8761 89.904 76.6245 89.928 76.382 89.9551L76.2024 88.7407ZM86.7376 90.6145C86.6233 90.6754 86.4882 90.7438 86.3322 90.8197C86.1849 90.8943 86.0381 90.9733 85.892 91.0565C85.7459 91.1397 85.6121 91.2167 85.4905 91.2875C85.0767 91.5248 84.5949 91.8073 84.0449 92.1351C83.5035 92.4616 82.9506 92.8295 82.3863 93.2386C82.0047 93.5151 81.6791 93.7833 81.4095 94.0432C81.1399 94.3031 80.9362 94.5621 80.7984 94.8201C80.6691 95.0769 80.6249 95.3431 80.6657 95.6187C80.6988 95.8426 80.7772 96.0158 80.901 96.1384C81.0247 96.2609 81.1828 96.3475 81.3751 96.3983C81.5748 96.4391 81.8063 96.4577 82.0698 96.4539C82.3407 96.4402 82.6397 96.4092 82.967 96.3608C83.4838 96.2843 84.065 96.1675 84.7106 96.0104C85.3563 95.8533 85.9557 95.681 86.5088 95.4935L86.6631 96.8041C86.3582 96.8844 86.0015 96.9724 85.5932 97.068C85.1862 97.1722 84.7643 97.2655 84.3276 97.3477C83.9008 97.4372 83.4936 97.5107 83.106 97.568C82.46 97.6636 81.8697 97.6893 81.3351 97.6452C80.8005 97.601 80.3608 97.4549 80.0161 97.2066C79.67 96.9498 79.4575 96.5544 79.3785 96.0204C79.316 95.5983 79.3547 95.2053 79.4945 94.8414C79.6416 94.4676 79.8498 94.1199 80.1191 93.7985C80.397 93.4757 80.7126 93.1694 81.0657 92.8795C81.4189 92.5896 81.771 92.3219 82.1219 92.0763C82.4948 91.8011 82.8421 91.5605 83.1637 91.3545C83.4926 91.1386 83.7982 90.9438 84.0805 90.77C84.3715 90.5949 84.6409 90.4231 84.8888 90.2544C85.0987 90.1265 85.2963 90.0048 85.4817 89.8894C85.6658 89.7654 85.8492 89.637 86.032 89.5043L86.7376 90.6145ZM91.8406 85.0408L97.0342 84.2724L97.2024 85.4093L92.0088 86.1777L91.8406 85.0408ZM96.7112 84.3202L96.8533 84.2992L97.0524 84.2169L97.9332 84.1922C97.9427 84.6133 97.9438 85.0664 97.9363 85.5516C97.9375 86.0355 97.9337 86.5157 97.925 86.9923C97.9163 87.4688 97.8995 87.9202 97.8745 88.3464L96.6927 88.3892C96.7177 87.963 96.7332 87.5031 96.7394 87.0093C96.7455 86.5155 96.7456 86.0402 96.7397 85.5834C96.7423 85.1254 96.7392 84.7474 96.7303 84.4494L96.7112 84.3202ZM93.9941 88.3528L99.2264 87.5787L99.3927 88.7026L93.8503 89.5226L93.9941 88.3528ZM98.8259 87.6379L99.0584 87.6035L99.2723 87.5323L100.08 87.7296C100.004 89.1139 99.7592 90.3471 99.3472 91.429C98.9339 92.5023 98.3893 93.4322 97.7136 94.2187C97.0464 95.0039 96.2807 95.6584 95.4165 96.1824C95.3508 96.0953 95.2574 95.9991 95.1362 95.8938C95.0236 95.7872 94.9024 95.6819 94.7726 95.5779C94.6514 95.4726 94.539 95.3969 94.4353 95.3506C95.2801 94.8735 96.0252 94.288 96.6706 93.5941C97.3148 92.8915 97.8266 92.0676 98.2061 91.1225C98.5855 90.1775 98.8042 89.0978 98.8622 87.8834L98.8259 87.6379ZM95.572 88.8454C95.9718 89.7632 96.4648 90.5968 97.051 91.3462C97.6457 92.0944 98.3279 92.7196 99.0975 93.2218C99.8659 93.7154 100.725 94.0504 101.675 94.2266C101.608 94.307 101.532 94.4151 101.446 94.551C101.361 94.6869 101.28 94.8264 101.204 94.9696C101.137 95.1115 101.082 95.2429 101.038 95.3638C100.026 95.1263 99.118 94.7282 98.3136 94.1695C97.5178 93.6095 96.8076 92.9137 96.1829 92.082C95.5655 91.2404 95.0215 90.2999 94.5509 89.2606L95.572 88.8454ZM88.6701 85.9192L89.2229 84.9264C89.5151 84.9976 89.8234 85.0884 90.1478 85.1989C90.4721 85.3093 90.7806 85.4309 91.0731 85.5636C91.3742 85.6951 91.6223 85.8256 91.8175 85.9552L91.2541 87.0551C91.0675 86.9243 90.8274 86.7882 90.5336 86.6468C90.2399 86.5054 89.9295 86.3709 89.6026 86.2433C89.2843 86.1143 88.9734 86.0063 88.6701 85.9192ZM88.4646 89.5273L88.9748 88.5145C89.2657 88.5771 89.5777 88.6629 89.9107 88.7721C90.2437 88.8812 90.5601 88.9972 90.8599 89.1201C91.1671 89.2331 91.4176 89.3501 91.6115 89.471L91.063 90.5819C90.8777 90.4597 90.6388 90.3322 90.3463 90.1995C90.0538 90.0667 89.7404 89.9414 89.4062 89.8237C89.0805 89.7046 88.7667 89.6058 88.4646 89.5273ZM89.7863 96.0516C89.9532 95.6924 90.1321 95.2655 90.3229 94.7708C90.5125 94.2675 90.7026 93.7377 90.8931 93.1814C91.0923 92.6239 91.2675 92.0831 91.4188 91.559L92.4747 92.1817C92.3355 92.6688 92.1816 93.1756 92.0131 93.7022C91.8433 94.2202 91.6686 94.7346 91.4889 95.2452C91.3092 95.7559 91.1336 96.2351 90.9623 96.6829L89.7863 96.0516ZM93.0746 85.4392L94.2669 85.2891C94.4246 86.5332 94.543 87.6907 94.6223 88.7615C94.7015 89.8324 94.7132 90.834 94.6575 91.7664C94.6019 92.6987 94.4652 93.5595 94.2475 94.3486C94.0298 95.1377 93.6972 95.8646 93.2499 96.5293C93.1794 96.4693 93.0676 96.3979 92.9145 96.3149C92.7713 96.2393 92.6232 96.16 92.4701 96.077C92.3182 96.0026 92.1905 95.9423 92.0868 95.8961C92.537 95.3102 92.8705 94.6491 93.0872 93.913C93.304 93.1768 93.436 92.3739 93.4834 91.5044C93.5295 90.6262 93.5088 89.6832 93.4213 88.6752C93.3424 87.6659 93.2268 86.5872 93.0746 85.4392ZM103.304 84.0842C103.478 84.0759 103.657 84.0627 103.839 84.0446C104.03 84.0252 104.194 84.0053 104.332 83.9849C104.513 83.9581 104.732 83.9213 104.989 83.8745C105.246 83.8276 105.512 83.7795 105.786 83.7301C106.059 83.6721 106.32 83.6204 106.568 83.5748C106.816 83.5206 107.008 83.479 107.144 83.45C107.279 83.4124 107.41 83.3711 107.535 83.3262C107.66 83.2812 107.772 83.2339 107.87 83.1841L108.78 83.7097C108.714 83.7987 108.652 83.887 108.595 83.9747C108.546 84.0612 108.502 84.1513 108.463 84.245C108.358 84.4894 108.238 84.8329 108.101 85.2756C107.972 85.717 107.836 86.1949 107.692 86.709C107.557 87.2219 107.423 87.717 107.291 88.1941C107.206 88.5061 107.114 88.8408 107.018 89.1984C106.921 89.556 106.82 89.9142 106.714 90.273C106.618 90.6306 106.518 90.9666 106.415 91.2811C106.319 91.5857 106.218 91.8516 106.11 92.0787C105.921 92.4675 105.692 92.761 105.422 92.9594C105.161 93.1565 104.841 93.2831 104.462 93.3391C103.945 93.4156 103.489 93.3113 103.095 93.0264C102.7 92.7329 102.458 92.2889 102.37 91.6947C102.296 91.1951 102.34 90.7178 102.502 90.2626C102.662 89.7988 102.921 89.3777 103.278 88.9991C103.635 88.6119 104.08 88.2908 104.614 88.0357C105.147 87.772 105.75 87.5905 106.422 87.4911C107.154 87.3828 107.877 87.3638 108.592 87.4341C109.306 87.5044 109.98 87.6291 110.614 87.8082C111.247 87.9786 111.826 88.1746 112.351 88.3961C112.886 88.6163 113.343 88.8215 113.723 89.0117L113.335 90.4949C112.898 90.2163 112.414 89.9491 111.883 89.6932C111.36 89.4273 110.798 89.2023 110.199 89.0182C109.607 88.8241 108.989 88.6911 108.344 88.6192C107.709 88.5461 107.059 88.5585 106.396 88.6567C105.724 88.756 105.164 88.9534 104.715 89.2487C104.264 89.5354 103.939 89.8651 103.739 90.238C103.539 90.6108 103.465 90.9781 103.519 91.3399C103.557 91.5982 103.655 91.7818 103.812 91.8906C103.969 91.9994 104.138 92.0405 104.318 92.0137C104.456 91.9933 104.577 91.9447 104.68 91.8678C104.781 91.7824 104.881 91.6489 104.977 91.4674C105.081 91.2761 105.175 91.0509 105.26 90.7919C105.353 90.5316 105.444 90.2541 105.533 89.9594C105.62 89.656 105.702 89.349 105.779 89.0384C105.865 88.7264 105.945 88.433 106.019 88.158C106.136 87.7622 106.248 87.3584 106.354 86.9466C106.468 86.5249 106.58 86.1211 106.69 85.7351C106.807 85.3393 106.914 84.9891 107.01 84.6845C106.881 84.7036 106.709 84.7334 106.495 84.7738C106.281 84.8143 106.05 84.8616 105.803 84.9158C105.555 84.9614 105.319 85.005 105.096 85.0468C104.874 85.0885 104.69 85.1245 104.545 85.1548C104.408 85.1838 104.246 85.2209 104.059 85.2662C103.881 85.3102 103.712 85.3572 103.552 85.4072L103.304 84.0842ZM112.006 85.7936C112.089 86.7142 112.118 87.5637 112.092 88.342C112.075 89.119 111.966 89.835 111.763 90.4898C111.57 91.1434 111.259 91.7526 110.832 92.3174C110.413 92.8723 109.853 93.3997 109.152 93.8994L107.935 93.1685C108.662 92.7265 109.229 92.2509 109.638 91.7415C110.054 91.2223 110.35 90.6945 110.526 90.158C110.709 89.6116 110.816 89.081 110.845 88.5661C110.873 88.0427 110.873 87.5631 110.843 87.1274C110.82 86.9108 110.792 86.6905 110.759 86.4666C110.733 86.2327 110.694 86.0273 110.641 85.8503L112.006 85.7936ZM32.0298 111.326L36.642 110.644L36.8178 111.833L32.2057 112.515L32.0298 111.326ZM25.8293 111.267L32.2243 110.321L32.3925 111.458L25.9975 112.404L25.8293 111.267ZM27.8082 113.667L31.051 113.188L31.2153 114.299L27.9726 114.778L27.8082 113.667ZM28.2058 116.355L31.4485 115.875L31.611 116.973L28.3683 117.453L28.2058 116.355ZM36.2932 110.696L36.4999 110.665L36.7119 110.581L37.5305 110.671C37.5972 112.43 37.4929 113.986 37.2176 115.338C36.9424 116.69 36.5136 117.867 35.9313 118.869C35.3477 119.861 34.6236 120.708 33.759 121.408C33.6413 121.267 33.4903 121.109 33.3059 120.934C33.1216 120.758 32.9566 120.624 32.8108 120.532C33.5972 119.958 34.2615 119.212 34.8036 118.296C35.3445 117.371 35.7485 116.295 36.0157 115.067C36.2817 113.831 36.3876 112.464 36.3333 110.967L36.2932 110.696ZM33.5292 112.359C33.9289 113.514 34.4077 114.579 34.9654 115.552C35.5218 116.518 36.1681 117.346 36.9042 118.038C37.6403 118.73 38.4727 119.241 39.4015 119.57C39.3182 119.661 39.2295 119.776 39.1354 119.913C39.0499 120.049 38.9644 120.184 38.8789 120.32C38.8032 120.464 38.7429 120.591 38.6979 120.704C37.6974 120.306 36.8117 119.733 36.0408 118.984C35.2687 118.227 34.5851 117.325 33.9901 116.278C33.3938 115.222 32.8641 114.05 32.4008 112.763L33.5292 112.359ZM26.8373 111.567L28.013 111.393L29.2592 119.816L28.0836 119.99L26.8373 111.567ZM30.248 111.062L31.4237 110.888L33.0158 121.65L31.8402 121.824L30.248 111.062ZM26.7951 119.758C27.2095 119.644 27.6872 119.512 28.2282 119.361C28.7692 119.211 29.3434 119.047 29.9508 118.869C30.5569 118.682 31.1636 118.5 31.771 118.322L32.0019 119.437C31.1524 119.703 30.3035 119.974 29.4553 120.249C28.6144 120.514 27.8657 120.748 27.2092 120.951L26.7951 119.758ZM41.1944 109.469C41.3606 109.462 41.5348 109.449 41.7169 109.431C41.9077 109.412 42.0806 109.391 42.2356 109.368C42.3648 109.349 42.5715 109.318 42.8557 109.276C43.1473 109.224 43.4733 109.167 43.8338 109.105C44.2029 109.041 44.5676 108.979 44.9281 108.917C45.2873 108.846 45.6077 108.781 45.8894 108.722C46.1797 108.661 46.3931 108.616 46.5296 108.587C46.7596 108.536 46.9336 108.492 47.0517 108.457C47.1783 108.421 47.2742 108.385 47.3393 108.349L48.1874 109.174C48.071 109.279 47.9502 109.385 47.8252 109.491C47.7001 109.598 47.5769 109.717 47.4557 109.85C47.3099 109.994 47.1194 110.194 46.8843 110.449C46.6565 110.694 46.411 110.968 46.1478 111.271C45.8833 111.565 45.6224 111.855 45.3653 112.139C45.1081 112.424 44.8773 112.678 44.6728 112.902C44.9184 112.777 45.1685 112.683 45.4231 112.619C45.6764 112.546 45.9322 112.491 46.1906 112.453C46.9054 112.347 47.5675 112.39 48.1767 112.581C48.7859 112.773 49.2886 113.077 49.6847 113.494C50.0808 113.91 50.3241 114.424 50.4145 115.036C50.5152 115.716 50.4242 116.35 50.1414 116.938C49.8673 117.524 49.4123 118.018 48.7765 118.42C48.1493 118.821 47.3534 119.093 46.3888 119.236C45.7945 119.324 45.2613 119.319 44.7892 119.221C44.3172 119.124 43.9346 118.947 43.6415 118.692C43.3557 118.426 43.1842 118.099 43.1268 117.712C43.0797 117.393 43.1218 117.083 43.2533 116.782C43.3921 116.471 43.6088 116.21 43.9032 115.999C44.205 115.779 44.567 115.637 44.989 115.575C45.5747 115.488 46.0791 115.536 46.5024 115.72C46.933 115.894 47.2803 116.16 47.5443 116.517C47.817 116.872 47.9957 117.277 48.0805 117.731L46.9297 118.073C46.8274 117.56 46.6142 117.16 46.2902 116.874C45.9748 116.586 45.5888 116.476 45.1323 116.543C44.8567 116.584 44.6393 116.691 44.4801 116.864C44.3295 117.036 44.2689 117.221 44.2982 117.419C44.3402 117.704 44.5155 117.907 44.8239 118.028C45.141 118.148 45.5277 118.175 45.9842 118.107C46.7163 117.999 47.3273 117.816 47.8174 117.559C48.3061 117.293 48.6578 116.964 48.8726 116.571C49.0861 116.17 49.1552 115.715 49.08 115.207C49.0201 114.802 48.846 114.458 48.5577 114.175C48.2694 113.892 47.9015 113.696 47.454 113.586C47.0052 113.468 46.5095 113.449 45.9669 113.529C45.4502 113.605 44.9854 113.736 44.5726 113.92C44.1671 114.094 43.7958 114.321 43.4585 114.6C43.12 114.87 42.7941 115.195 42.4808 115.576C42.1748 115.947 41.863 116.367 41.5452 116.837L40.4606 116.02C40.6884 115.775 40.9382 115.501 41.2101 115.196C41.4819 114.892 41.7537 114.588 42.0256 114.284C42.3047 113.969 42.5649 113.676 42.8061 113.402C43.0547 113.119 43.2622 112.886 43.4288 112.703C43.588 112.53 43.7815 112.321 44.0093 112.076C44.2358 111.822 44.4697 111.559 44.7109 111.285C44.9521 111.012 45.1823 110.754 45.4015 110.51C45.6194 110.258 45.7993 110.046 45.9413 109.876C45.8048 109.905 45.6166 109.941 45.3767 109.986C45.1368 110.03 44.8717 110.082 44.5814 110.143C44.2985 110.193 44.0119 110.249 43.7216 110.31C43.43 110.362 43.1649 110.414 42.9263 110.467C42.6864 110.511 42.5025 110.547 42.3746 110.575C42.2209 110.606 42.0591 110.644 41.8894 110.686C41.7271 110.719 41.5739 110.755 41.4301 110.794L41.1944 109.469Z" fill="white"/>
</svg>
