<svg width="34" height="34" viewBox="0 0 34 34" fill="none" xmlns="http://www.w3.org/2000/svg">
<path d="M12.9558 16.4065C12.8388 16.4768 12.6515 16.5471 12.394 16.6174C12.277 16.6643 12.1834 16.6994 12.1132 16.7228C11.9727 16.7931 11.8323 16.8986 11.6918 17.0392C11.9727 16.922 12.394 16.7111 12.9558 16.4065ZM18.8193 24.7715C18.9129 24.748 19.0417 24.7246 19.2055 24.7012C19.5332 24.6543 19.7907 24.6074 19.9779 24.5606H19.2757C19.2523 24.5606 19.2172 24.5606 19.1704 24.5606C19.0065 24.5371 18.9129 24.5371 18.8895 24.5606C18.8427 24.584 18.831 24.6192 18.8544 24.666C18.8544 24.7129 18.8427 24.748 18.8193 24.7715ZM2.87907 19.0074C3.01951 18.9137 3.18336 18.8316 3.37062 18.7614C3.23018 18.7379 3.3121 18.6325 3.61639 18.445C3.26529 18.5388 2.93759 18.5856 2.6333 18.5856C2.70352 18.7262 2.78544 18.8668 2.87907 19.0074ZM7.58389 19.2183C7.44345 19.2886 7.24449 19.3706 6.98701 19.4643C6.6125 19.6283 6.33161 19.7455 6.14436 19.8158C6.12095 19.8158 6.06243 19.8392 5.9688 19.8861C5.43044 20.0735 5.17296 20.2375 5.19637 20.3781C5.36022 20.3078 5.6177 20.2141 5.9688 20.0969C6.78805 19.7923 7.39664 19.5112 7.79456 19.2534C7.67752 19.2534 7.6073 19.2417 7.58389 19.2183ZM16.1158 25.5798C15.6476 25.6033 15.2029 25.6618 14.7816 25.7556C14.7582 25.7556 14.723 25.7556 14.6762 25.7556C13.6697 25.8962 13.1665 26.0719 13.1665 26.2828C13.2835 26.2125 13.5176 26.1773 13.8687 26.1773C14.0091 26.1539 14.1145 26.1422 14.1847 26.1422C14.4188 26.0953 14.7816 25.9899 15.2731 25.8259C15.6476 25.7087 15.9285 25.6267 16.1158 25.5798ZM12.9558 25.4392C13.2835 25.3924 13.74 25.369 14.3251 25.369C14.489 25.369 14.606 25.369 14.6762 25.369C15.1912 25.369 15.5423 25.3104 15.7296 25.1932C15.7998 25.1698 15.7998 25.1112 15.7296 25.0175C15.7296 24.8535 15.6476 24.8066 15.4838 24.8769H15.0624L14.2198 24.9823C14.1964 24.9823 14.1496 24.9823 14.0794 24.9823C13.3303 25.0526 12.9558 25.2049 12.9558 25.4392ZM17.6255 26.6694C17.1574 26.6694 16.4786 26.7397 15.5891 26.8803C15.0507 26.974 14.6528 27.0326 14.3954 27.056C14.3251 27.056 14.2315 27.056 14.1145 27.056C13.857 27.0794 13.658 27.0794 13.5176 27.056C13.4708 27.056 13.4006 27.0443 13.3069 27.0209C13.1197 26.9974 12.9909 26.9974 12.9207 27.0209H12.8856C12.792 27.0443 12.7452 27.0794 12.7452 27.1263C12.7452 27.1497 12.7334 27.1849 12.71 27.2317C12.6632 27.3723 12.6398 27.5129 12.6398 27.6535C12.7569 27.6535 12.9324 27.6301 13.1665 27.5832C13.3303 27.5363 13.4474 27.5129 13.5176 27.5129C13.658 27.4895 13.7868 27.4426 13.9038 27.3723C13.9974 27.3255 14.0794 27.2903 14.1496 27.2669C14.5709 27.056 15.121 26.9506 15.7998 26.9506C15.8934 26.9271 16.0573 26.9388 16.2913 26.9857C16.4786 27.0091 16.619 27.0209 16.7127 27.0209C17.0403 26.974 17.3446 26.8568 17.6255 26.6694ZM3.47595 20.0618C3.71002 20.0618 4.03772 19.9681 4.45905 19.7806C4.73993 19.6635 5.18467 19.5112 5.79325 19.3237C5.86347 19.3003 5.91029 19.2886 5.9337 19.2886C6.02732 19.2651 6.17947 19.23 6.39013 19.1831C6.71783 19.1363 6.9636 19.0777 7.12745 19.0074C7.17427 18.984 7.24449 18.9605 7.33812 18.9371C7.5956 18.8668 7.75944 18.7965 7.82967 18.7262C7.85307 18.6793 7.87648 18.6091 7.89989 18.5153C7.89989 18.3982 7.9233 18.3162 7.97011 18.2693C7.87648 18.3162 7.72433 18.3747 7.51367 18.445C5.71133 19.0777 4.36542 19.6166 3.47595 20.0618ZM5.33681 21.1513C5.10274 21.1982 4.76334 21.3154 4.31861 21.5028C4.01432 21.62 3.79195 21.702 3.65151 21.7488C3.65151 21.7723 3.66321 21.8191 3.68661 21.8894C3.71002 22.1003 3.83876 22.1706 4.07283 22.1003C4.23668 22.0534 4.45905 21.9714 4.73993 21.8543C5.04423 21.7371 5.26659 21.6551 5.40704 21.6082C5.45385 21.5848 5.55918 21.5614 5.72303 21.538C5.98051 21.5145 6.15606 21.4677 6.24969 21.3974C6.2731 21.3974 6.29651 21.3739 6.31991 21.3271C6.34332 21.3036 6.35502 21.2802 6.35502 21.2568C6.70613 21.0225 7.09234 20.7764 7.51367 20.5187C6.90509 20.7764 6.17947 20.9873 5.33681 21.1513ZM19.697 8.07673C19.697 8.14703 19.697 8.26418 19.697 8.4282C19.7205 9.03741 19.6971 9.49432 19.6268 9.79892C19.6268 9.82235 19.6151 9.8575 19.5917 9.90437C19.5917 9.9278 19.58 9.95123 19.5566 9.97466H20.4344C20.4812 9.97466 20.5631 9.97466 20.6801 9.97466C21.0313 9.99809 21.2653 9.98637 21.3824 9.93951C21.8037 9.79892 22.4006 9.40059 23.173 8.74452C23.2432 8.69766 23.29 8.66251 23.3134 8.63908L24.0859 8.04158C23.5943 8.04158 22.857 8.0533 21.8739 8.07673C20.8908 8.07673 20.1652 8.07673 19.697 8.07673ZM0.105335 21.5028L0 21.3974C0.0936283 21.3505 0.105335 21.2568 0.0351136 21.1162C0.0117066 21.0928 0 21.0693 0 21.0459C0.421327 20.8116 0.479849 20.5773 0.175557 20.343C0.503256 20.1321 0.596881 19.9563 0.456438 19.8158C0.433031 19.7923 0.386222 19.7806 0.316 19.7806C0.269186 19.7806 0.245779 19.7455 0.245779 19.6752C0.222372 19.6517 0.234073 19.6166 0.280887 19.5697C0.304294 19.5229 0.316 19.4877 0.316 19.4643L0.42133 19.3589C0.397923 19.3589 0.386222 19.3471 0.386222 19.3237L0.351108 19.2886C0.351108 19.2651 0.362815 19.2417 0.386222 19.2183C0.386222 19.1714 0.421331 19.1363 0.491552 19.1128C0.491552 19.0894 0.503253 19.0777 0.52666 19.0777L1.08843 18.7614C2.04812 18.199 2.93759 17.7772 3.75684 17.4961C4.15476 17.3789 4.52927 17.2149 4.88038 17.004C5.20808 16.84 5.73473 16.6408 6.46035 16.4065C6.6242 16.3597 6.74124 16.3245 6.81146 16.3011L8.98831 15.5279C9.19898 15.4341 9.52668 15.3053 9.97141 15.1412C10.8375 14.8366 11.4929 14.5789 11.9376 14.368C11.3992 14.368 10.6151 14.3797 9.5852 14.4032C7.82967 14.4266 6.51887 14.4266 5.65281 14.4032L2.6333 14.3329C2.04812 14.3094 1.49805 14.1806 0.983098 13.9462C0.959691 13.9462 0.936283 13.9345 0.912876 13.9111C0.749027 13.8174 0.667103 13.7471 0.667103 13.7002C0.620289 13.5831 0.702213 13.4659 0.912876 13.3487C0.983098 13.3253 1.01821 13.3019 1.01821 13.2785C1.01821 13.255 0.901174 13.2316 0.667103 13.2082C0.550068 13.1847 0.479845 13.173 0.456438 13.173C0.901173 12.9387 1.02991 12.5755 0.842655 12.0835C0.819248 11.9897 0.725623 11.8257 0.561774 11.5914C0.280889 11.2165 0.175557 10.9353 0.245779 10.7479C0.316 10.4199 0.78414 10.209 1.6502 10.1152C1.76724 10.0918 1.84916 10.0801 1.89597 10.0801C2.34071 10.0567 3.00781 10.0332 3.89728 10.0098C4.34201 9.98637 4.68141 9.97466 4.91548 9.97466C5.19637 9.97466 5.59429 9.96294 6.10925 9.93951C6.64761 9.91608 7.04553 9.90437 7.30301 9.90437C8.12225 9.95123 8.95321 9.96294 9.79586 9.93951H11.2354C11.3056 9.93951 11.4109 9.93951 11.5514 9.93951C11.8557 9.89265 12.0898 9.89265 12.2536 9.93951C12.2536 9.89265 12.2536 9.81064 12.2536 9.69348C12.3004 8.70937 12.2536 8.18217 12.1132 8.11188C11.9961 8.06502 11.7269 8.0533 11.3056 8.07673C11.1652 8.10016 11.0715 8.11188 11.0247 8.11188C10.7673 8.11188 10.3927 8.11188 9.90119 8.11188C9.38624 8.08845 9.00002 8.07673 8.74254 8.07673C8.25099 8.07673 7.52538 8.10016 6.56569 8.14703C5.6294 8.17046 4.92719 8.18217 4.45905 8.18217C4.43564 8.18217 4.37712 8.18217 4.2835 8.18217C3.72173 8.27589 3.38232 8.24075 3.26529 8.07673C3.17166 7.98301 3.15995 7.901 3.23018 7.8307C3.3004 7.76041 3.33551 7.6784 3.33551 7.58468C3.3121 7.58468 3.2887 7.57296 3.26529 7.54953C3.19507 7.50267 3.15996 7.46752 3.15996 7.44409C3.13655 7.3738 3.23018 7.23321 3.44084 7.02233C3.46425 7.02233 3.47595 7.01061 3.47595 6.98718C3.40573 7.01061 3.37062 6.98718 3.37062 6.91689C3.39403 6.91689 3.41743 6.90517 3.44084 6.88174C3.3004 6.81144 3.23018 6.706 3.23018 6.56542C3.23018 6.54199 3.25358 6.50684 3.3004 6.45998C3.39403 6.36625 3.37062 6.31939 3.23018 6.31939C3.23018 6.27253 3.27699 6.16709 3.37062 6.00307C3.41743 5.90934 3.45255 5.83905 3.47595 5.79219C3.49936 5.7219 3.51106 5.65161 3.51106 5.58131C3.51106 5.48759 3.51106 5.40557 3.51106 5.33528C3.51106 5.31185 3.52277 5.26499 3.54618 5.1947C3.56958 5.10097 3.58128 5.03068 3.58128 4.98381C3.60469 4.93695 3.59299 4.87837 3.54618 4.80808C3.54618 4.73778 3.54618 4.69093 3.54618 4.66749C3.56958 4.48005 3.71002 4.35117 3.9675 4.28088C4.15476 4.23402 4.45905 4.21059 4.88038 4.21059C4.99741 4.21059 5.07934 4.21059 5.12615 4.21059C5.71133 4.16372 6.2848 4.10514 6.84657 4.03485C6.96361 4.03485 7.10405 3.98799 7.2679 3.89426C7.36153 3.8474 7.43175 3.81225 7.47856 3.78882C7.57219 3.76539 7.74775 3.76539 8.00522 3.78882C8.09885 3.78882 8.16907 3.78882 8.21588 3.78882H11.6567C11.6801 3.78882 11.7152 3.78882 11.7621 3.78882C11.9493 3.83568 12.0546 3.83568 12.078 3.78882C12.1015 3.76539 12.1015 3.62481 12.078 3.36706C12.078 3.34363 12.078 3.30849 12.078 3.26162C12.078 2.91015 12.0898 2.54697 12.1132 2.17207C12.1132 2.07834 12.1366 1.94948 12.1834 1.78546C12.2302 1.57458 12.2653 1.41056 12.2887 1.2934C12.3823 0.918501 12.6749 0.672472 13.1665 0.555316C13.2835 0.531885 13.4708 0.555317 13.7282 0.62561C13.9623 0.695904 14.1028 0.719335 14.1496 0.695904C14.1964 0.672473 14.2666 0.567034 14.3602 0.379584C14.4305 0.285859 14.4773 0.238995 14.5007 0.238995C14.5475 0.215565 14.5709 0.227283 14.5709 0.274145C14.5943 0.321008 14.6177 0.344439 14.6411 0.344439C14.7582 0.36787 14.922 0.344439 15.1327 0.274145C15.2263 0.250714 15.2965 0.227282 15.3433 0.203851C15.4838 0.203851 15.6242 0.18042 15.7647 0.133557C15.7881 0.133557 15.8115 0.121838 15.8349 0.0984073C15.8817 0.0515455 15.9168 0.0281188 15.9402 0.0281188C16.0104 0.0749806 16.0572 0.0866939 16.0807 0.0632631C16.1041 0.0632631 16.1509 0.0632631 16.2211 0.0632631C16.6424 -0.00703102 16.9467 -0.0187444 17.134 0.0281188C17.1574 0.0281188 17.1808 0.0515455 17.2042 0.0984073C17.251 0.14527 17.2978 0.168701 17.3446 0.168701C17.368 0.192132 17.4149 0.18042 17.4851 0.133557C17.5553 0.110126 17.6021 0.0984073 17.6255 0.0984073C17.6723 0.0749764 17.7426 0.0632631 17.8362 0.0632631H17.9766C17.9766 0.0866939 17.9649 0.121838 17.9415 0.168701C17.9415 0.215563 17.9649 0.238995 18.0117 0.238995C18.0352 0.262426 18.0937 0.250713 18.1873 0.203851C18.2107 0.203851 18.2341 0.227283 18.2575 0.274145C18.2809 0.344439 18.316 0.391297 18.3628 0.414728C18.4565 0.461591 18.6554 0.426447 18.9597 0.309289C18.9831 0.309289 19.0065 0.297576 19.0299 0.274145C19.1704 0.133559 19.3342 0.0866953 19.5215 0.133557C19.5449 0.156989 19.58 0.192134 19.6268 0.238995C19.6736 0.262426 19.7205 0.238994 19.7673 0.168701C19.7673 0.215563 19.7907 0.250714 19.8375 0.274145C19.8609 0.297576 19.8843 0.33272 19.9077 0.379584C19.9545 0.403014 19.9662 0.461591 19.9428 0.555316C19.9428 0.602178 19.9545 0.672473 19.9779 0.766198C20.0247 0.953648 20.0482 1.08252 20.0482 1.15281C20.0716 1.24654 20.0716 1.39884 20.0482 1.60972C20.0247 1.72688 20.013 1.8206 20.013 1.8909C20.013 1.96119 20.013 2.07834 20.013 2.24236C20.013 2.38295 20.0013 2.48839 19.9779 2.55868C19.9779 2.60555 19.9662 2.65241 19.9428 2.69927C19.896 2.76957 19.8726 2.83986 19.8726 2.91015C19.8726 2.95702 19.8843 3.03902 19.9077 3.15618C19.9545 3.29677 19.9662 3.41393 19.9428 3.50765C20.2939 3.50765 20.8206 3.49593 21.5228 3.4725C22.225 3.44907 22.7517 3.43736 23.1028 3.43736C23.1964 3.43736 23.3251 3.44907 23.489 3.4725C23.8167 3.49593 24.0625 3.51936 24.2263 3.54279C24.8115 3.61309 25.186 3.75368 25.3499 3.96456C25.4435 4.05828 25.4552 4.16372 25.385 4.28088C25.3616 4.28088 25.3147 4.32774 25.2445 4.42147C25.2211 4.4449 25.1977 4.46833 25.1743 4.49176C25.3147 4.51519 25.4435 4.53862 25.5605 4.56205C25.8882 4.63234 26.0755 4.67921 26.1223 4.70264C26.0755 4.72607 26.0638 4.73779 26.0872 4.73779H26.1223C26.0989 4.73779 26.0638 4.7495 26.017 4.77293C25.8063 4.79636 25.7829 4.87838 25.9467 5.01896C25.9701 5.0424 25.9935 5.06582 26.017 5.08925C26.2042 5.347 26.3681 5.48759 26.5085 5.51102C26.4383 5.60474 26.4383 5.6516 26.5085 5.6516L27.5969 4.49176C27.7374 4.3746 27.9012 4.24573 28.0885 4.10515C28.2055 3.98799 28.2991 3.9177 28.3694 3.89426C28.4162 3.89426 28.4513 3.88255 28.4747 3.85911L28.5449 3.82397C28.5917 3.80054 28.6971 3.80054 28.8609 3.82397C28.9545 3.8474 29.0248 3.85911 29.0716 3.85911C29.0482 3.95284 29.0482 4.08171 29.0716 4.24573C29.0716 4.31602 29.0716 4.3746 29.0716 4.42147C29.0716 4.46833 29.0482 4.53862 29.0014 4.63234C28.9311 4.81979 28.9077 4.93695 28.9311 4.98381C29.0014 5.26499 29.3642 5.13612 30.0196 4.5972C29.9493 4.85494 29.9493 5.00725 30.0196 5.05411C30.0664 5.10097 30.1366 5.07754 30.2302 4.98381C30.3004 4.93695 30.3473 4.91352 30.3707 4.91352L30.6516 5.15955C30.6516 5.20641 30.6282 5.28842 30.5813 5.40557C30.4877 5.59302 30.5462 5.68675 30.7569 5.68675C30.7803 5.68675 30.8271 5.66332 30.8973 5.61646C30.991 5.54616 31.0612 5.52273 31.108 5.54616C31.1314 5.54616 31.1548 5.55788 31.1782 5.58131C31.2016 5.60474 31.225 5.62817 31.2484 5.6516C31.2953 5.67503 31.3772 5.74533 31.4942 5.86248C31.5644 5.93277 31.623 5.97964 31.6698 6.00307C31.7166 6.04993 31.7517 6.08508 31.7751 6.10851C31.8453 6.15537 31.8687 6.19052 31.8453 6.21395C31.8453 6.23738 31.8453 6.27253 31.8453 6.31939C31.8453 6.36625 31.8336 6.41312 31.8102 6.45998C31.8102 6.53027 31.8219 6.60057 31.8453 6.67086C31.8687 6.71772 31.9155 6.72944 31.9858 6.70601C31.9624 6.72944 31.9624 6.7763 31.9858 6.84659C31.9858 6.87002 31.9858 6.89346 31.9858 6.91689C32.1028 6.98718 32.2901 6.96375 32.5475 6.84659C32.5943 6.82316 32.6295 6.81145 32.6529 6.81145C32.3252 7.58468 32.0092 8.19388 31.7049 8.63908L31.2484 9.27172C31.0378 9.62319 30.8856 9.83407 30.792 9.90437H33.5306C33.7647 9.95123 33.8466 9.98637 33.7764 10.0098C34.0339 10.0332 34.069 10.1504 33.8817 10.3613C33.7647 10.4784 33.7179 10.5487 33.7413 10.5722C33.7647 10.5956 33.8115 10.619 33.8817 10.6424C33.952 10.6659 33.9871 10.6893 33.9871 10.7127C33.9871 10.8299 33.8466 10.9471 33.5657 11.0642L33.6711 11.1345C33.6711 11.1579 33.6594 11.1696 33.636 11.1696C33.636 11.1931 33.6243 11.2048 33.6008 11.2048C33.6243 11.2048 33.6477 11.2165 33.6711 11.2399C33.8115 11.3337 33.9051 11.4157 33.952 11.486C33.8349 11.5328 33.7296 11.6031 33.636 11.6968C33.6594 11.7203 33.7413 11.7203 33.8817 11.6968C33.9051 11.6968 33.8934 11.7203 33.8466 11.7671C33.8232 11.7906 33.753 11.896 33.636 12.0835C33.5891 12.1538 33.554 12.2006 33.5306 12.2241C33.5072 12.2709 33.4721 12.3061 33.4253 12.3295C33.4019 12.3529 33.3785 12.3998 33.3551 12.4701C33.3551 12.4935 33.3785 12.5404 33.4253 12.6107C33.4487 12.6575 33.4604 12.6927 33.4604 12.7161C33.4604 12.763 33.4253 12.8098 33.3551 12.8567C33.2849 12.927 33.2497 12.9973 33.2497 13.0676C33.2497 13.1144 33.2614 13.173 33.2849 13.2433C33.3317 13.337 33.3317 13.4073 33.2849 13.4542C33.238 13.5713 33.0625 13.6416 32.7582 13.6651C32.688 13.6885 32.6412 13.7002 32.6177 13.7002C31.8921 13.7705 30.7803 13.8525 29.2822 13.9462C30.3356 13.876 30.277 13.876 29.1067 13.9462C28.7088 13.9697 28.0885 13.9931 27.2458 14.0165C26.8479 14.04 26.5436 14.0517 26.333 14.0517C26.1925 14.0751 26.0404 14.1454 25.8765 14.2626C25.7829 14.3329 25.7127 14.3797 25.6659 14.4032C25.5254 14.4969 25.303 14.6257 24.9987 14.7898C24.6945 14.9538 24.4721 15.0827 24.3317 15.1764C23.8401 15.4576 23.0911 15.8325 22.0846 16.3011C21.8973 16.3948 21.7569 16.4651 21.6632 16.512C22.7868 16.4417 23.8986 16.3597 24.9987 16.2659C25.186 16.2425 25.4552 16.2191 25.8063 16.1956C27.3278 16.055 28.4864 16.0199 29.2822 16.0902C29.6099 16.1371 29.8791 16.2425 30.0898 16.4065C30.2068 16.4534 30.2419 16.5588 30.1951 16.7228C30.1717 16.7931 30.1483 16.84 30.1249 16.8634C30.1015 16.8869 30.0781 16.922 30.0547 16.9689C30.1249 16.9689 30.2302 17.004 30.3707 17.0743C30.5813 17.1446 30.7218 17.1797 30.792 17.1797C30.6516 17.2266 30.5813 17.2735 30.5813 17.3203C30.5579 17.3438 30.6047 17.4141 30.7218 17.5312C30.7218 17.5547 30.7335 17.5781 30.7569 17.6015C30.8739 17.7655 30.991 17.8593 31.108 17.8827C31.108 17.953 31.1197 18.0233 31.1431 18.0936C31.1665 18.1404 31.1782 18.1756 31.1782 18.199C31.1782 18.2224 31.1899 18.2693 31.2133 18.3396C31.2133 18.4333 31.225 18.5036 31.2484 18.5505C31.0846 18.5505 31.0495 18.6208 31.1431 18.7614C31.1899 18.8082 31.2133 18.8434 31.2133 18.8668C31.1899 18.8902 31.1548 18.9254 31.108 18.9722C31.108 18.9957 31.0963 19.0074 31.0729 19.0074C31.0729 19.0308 31.0729 19.0542 31.0729 19.0777C31.0963 19.1011 31.108 19.1363 31.108 19.1831C31.0846 19.2065 31.0495 19.2183 31.0027 19.2183C30.909 19.2417 30.8622 19.2651 30.8622 19.2886C31.0027 19.5229 31.1548 19.6869 31.3187 19.7806L31.2484 19.8509H31.3187L31.2484 19.9212H31.3187C30.7569 20.1087 29.8908 20.2375 28.7205 20.3078C28.1119 20.3312 27.6555 20.3664 27.3512 20.4133C26.883 20.4601 26.1808 20.4835 25.2445 20.4835C24.6828 20.4835 24.2614 20.4835 23.9805 20.4835C22.9272 20.5538 21.359 20.6241 19.2757 20.6944C18.2458 20.7413 17.4734 20.7764 16.9584 20.7999C16.0455 20.8702 15.1444 20.9287 14.2549 20.9756C14.0677 20.999 13.9038 21.0108 13.7634 21.0108C13.6931 21.0342 13.6463 21.0459 13.6229 21.0459C13.5761 21.0459 13.5527 21.0693 13.5527 21.1162C13.5527 21.1396 13.5527 21.1748 13.5527 21.2216C13.4825 21.5731 13.424 22.1003 13.3771 22.8032C13.3771 22.8501 13.3771 22.8852 13.3771 22.9087C13.4474 22.9087 13.5761 22.8852 13.7634 22.8384C13.9038 22.7915 14.0091 22.7681 14.0794 22.7681L14.9922 22.6626L17.134 22.4518C19.0534 22.3112 20.528 22.2409 21.5579 22.2409C22.4474 22.2175 23.1262 22.2057 23.5943 22.2057C24.1561 22.2292 24.6593 22.2526 25.1041 22.276C26.0404 22.3229 26.8947 22.4283 27.6672 22.5924C28.1353 22.6861 28.8141 22.9907 29.7036 23.5062C29.8206 23.5765 29.9142 23.6233 29.9845 23.6468C30.4526 23.9279 30.8505 24.3848 31.1782 25.0175C31.9038 26.7983 31.541 28.743 30.0898 30.8519C29.6685 31.4845 29.2003 32.0937 28.6854 32.6795C28.662 32.7263 28.6034 32.7966 28.5098 32.8904C27.831 33.8276 27.3629 34.1556 27.1054 33.8745C27.082 33.9916 26.9767 34.0268 26.7894 33.9799C26.7426 33.9565 26.7075 33.9331 26.6841 33.9096C26.6841 33.8628 26.6724 33.8393 26.649 33.8393C26.6255 33.8393 26.5904 33.8393 26.5436 33.8393C26.4968 33.8393 26.4617 33.8276 26.4383 33.8042C26.3915 33.7808 26.3564 33.7456 26.333 33.6987C26.333 33.6519 26.3212 33.6167 26.2978 33.5933C26.134 33.3356 25.8999 33.3941 25.5956 33.769C25.5722 33.7456 25.5371 33.7105 25.4903 33.6636C25.3967 33.523 25.303 33.4644 25.2094 33.4879C25.1626 33.4879 25.1158 33.5113 25.069 33.5582C25.0222 33.6284 24.9636 33.6519 24.8934 33.6284C24.7764 33.605 24.6945 33.5347 24.6476 33.4176C24.554 33.2301 24.4604 33.195 24.3668 33.3121C24.2965 33.4059 24.2263 33.4644 24.1561 33.4879C24.1093 33.5113 23.9922 33.4996 23.805 33.4527C23.7114 33.4293 23.6528 33.4176 23.6294 33.4176C23.606 33.4176 23.5358 33.4058 23.4188 33.3824C23.2315 33.3824 23.1262 33.3707 23.1028 33.3473C23.0794 33.3238 23.056 33.2418 23.0326 33.1012C23.0326 32.9607 23.0209 32.8786 22.9974 32.8552C22.974 32.8084 22.9506 32.7732 22.9272 32.7498C22.8804 32.7263 22.857 32.7029 22.857 32.6795C22.8336 32.6561 22.8102 32.6209 22.7868 32.5741C22.7166 32.4335 22.6229 32.4335 22.5059 32.5741C22.4591 32.6209 22.4123 32.7029 22.3655 32.8201C22.3186 33.0075 22.2484 33.1247 22.1548 33.1715C22.1548 32.4452 22.2835 31.7657 22.541 31.133C23.056 29.9615 23.7114 28.9774 24.5072 28.1807C23.5709 28.0635 22.541 27.9932 21.4175 27.9698C20.3876 27.9698 19.0534 28.005 17.4149 28.0753C16.2913 28.1221 15.1678 28.2158 14.0442 28.3564C13.6229 28.4267 13.2016 28.4853 12.7803 28.5322C12.7569 28.5322 12.71 28.5439 12.6398 28.5673C12.4292 28.5673 12.2653 28.6025 12.1483 28.6727C12.1249 28.6962 12.078 28.7196 12.0078 28.743C11.7738 28.8602 11.5397 28.9071 11.3056 28.8836H10.9545C10.9077 28.8602 10.8726 28.8368 10.8492 28.8133C10.8258 28.7665 10.8024 28.743 10.779 28.743C10.7321 28.7665 10.6736 28.8368 10.6034 28.9539C10.5332 29.0008 10.4747 29.0594 10.4279 29.1297C10.381 29.1297 10.3459 29.1062 10.3225 29.0594C10.2991 29.0125 10.2757 28.9891 10.2523 28.9891C10.1119 28.9656 9.86608 28.9891 9.51497 29.0594C9.23409 29.1297 9.03513 29.1648 8.91809 29.1648L8.18077 29.0945C8.13396 29.0711 8.09885 29.0476 8.07544 29.0242C8.02862 29.0008 7.97011 29.0008 7.89989 29.0242C7.87648 29.0242 7.85307 29.0242 7.82967 29.0242L7.44345 28.9188C7.42004 28.8953 7.38493 28.8953 7.33812 28.9188H7.30301C7.2796 28.8953 7.24449 28.8719 7.19768 28.8485C7.15086 28.8016 7.10405 28.7665 7.05723 28.743C7.01042 28.6962 6.89339 28.7196 6.70613 28.8133C6.65932 28.8368 6.6242 28.8485 6.60079 28.8485C6.57739 28.8485 6.55398 28.8602 6.53057 28.8836C6.46035 28.9071 6.35502 28.9188 6.21458 28.9188C6.19117 28.9188 6.16776 28.9071 6.14436 28.8836C6.05073 28.8368 5.99221 28.8368 5.9688 28.8836C5.9688 28.8133 5.9337 28.6962 5.86347 28.5322C5.79325 28.3681 5.75814 28.2393 5.75814 28.1456C5.73473 28.0987 5.73473 28.0167 5.75814 27.8995C5.78155 27.8292 5.79325 27.7706 5.79325 27.7238C5.81666 27.6301 5.84007 27.4895 5.86347 27.302C5.88688 27.1146 5.91029 26.974 5.9337 26.8803C6.00392 26.646 6.07413 26.2711 6.14436 25.7556C6.19117 25.5213 6.22628 25.3455 6.24969 25.2284C6.2731 25.1815 6.29651 25.1112 6.31991 25.0175C6.36673 24.7832 6.41354 24.6192 6.46035 24.5254C6.53057 24.4317 6.57739 24.3028 6.60079 24.1388C6.60079 24.0451 6.6125 23.9631 6.63591 23.8928L7.12745 22.0652C5.88688 22.5572 4.6346 22.9438 3.37062 23.225C3.27699 23.2484 3.13655 23.2836 2.94929 23.3304C2.38752 23.4945 1.9779 23.5765 1.72042 23.5765C1.60339 23.5765 1.46294 23.5765 1.29909 23.5765C1.08843 23.553 0.924582 23.553 0.807547 23.5765C0.830954 23.5765 0.842655 23.5648 0.842655 23.5413C1.05332 23.4007 1.14695 23.2601 1.12354 23.1196C1.02991 22.979 0.830952 22.8852 0.52666 22.8384C0.550067 22.7447 0.62029 22.6275 0.737325 22.4869C0.760732 22.4401 0.78414 22.4049 0.807547 22.3815C0.830954 22.3815 0.854361 22.3698 0.877768 22.3463C1.08843 22.2057 1.20546 22.1003 1.22887 22.03C1.25228 22.0066 1.26398 21.9831 1.26398 21.9597C1.3108 21.9363 1.29909 21.9246 1.22887 21.9246C1.20546 21.9246 1.17036 21.9246 1.12354 21.9246C1.00651 21.9011 0.819251 21.9363 0.561774 22.03C0.468145 22.0534 0.397923 22.0769 0.351108 22.1003C0.374516 22.1003 0.386222 22.0886 0.386222 22.0652C0.6437 21.9011 0.725623 21.7488 0.631995 21.6082C0.608588 21.5614 0.526664 21.538 0.386222 21.538C0.339408 21.538 0.280886 21.5262 0.210665 21.5028C0.163851 21.5028 0.128742 21.5028 0.105335 21.5028Z" fill="black"/>
</svg>
