<svg width="21" height="22" viewBox="0 0 21 22" fill="none" xmlns="http://www.w3.org/2000/svg">
<path d="M13.6441 5.09567L13.4585 5.88461C13.3966 5.91555 13.3348 5.96196 13.2729 6.02384C13.0563 6.14759 12.8243 6.22494 12.5767 6.25588C12.3292 6.28682 12.0817 6.31776 11.8342 6.3487L11.7878 6.44151C11.695 6.53433 11.5093 6.62715 11.2309 6.71997C10.9524 6.84372 10.7204 6.9056 10.5348 6.9056H10.2099C10.179 6.99842 10.1325 7.09124 10.0707 7.18405C10.0088 7.24593 9.91598 7.29234 9.79222 7.32328C9.73034 7.35422 9.65299 7.41609 9.56017 7.50891C9.49829 7.60173 9.42096 7.66361 9.32814 7.69455C9.20438 7.53985 9.06515 7.36969 8.91046 7.18405C8.7867 6.96748 8.64748 6.79731 8.49279 6.67356C8.43091 6.5498 8.35355 6.42605 8.26074 6.30229C8.19886 6.14759 8.12151 5.9929 8.02869 5.8382C8.02869 5.68351 8.01323 5.52881 7.98229 5.37412C7.98229 5.18848 7.96682 5.01832 7.93588 4.86362C7.81212 4.70893 7.67289 4.55423 7.5182 4.39954C7.39444 4.24484 7.30163 4.05921 7.23975 3.84263C7.20881 3.78075 7.17788 3.70341 7.14694 3.61059C7.14694 3.51777 7.11599 3.44042 7.05411 3.37855V3.05369C7.02317 2.99181 6.99224 2.9454 6.9613 2.91446C6.93036 2.85258 6.89942 2.7907 6.86848 2.72882C6.89942 2.54319 6.91489 2.35756 6.91489 2.17192C6.94583 1.98629 7.02318 1.83159 7.14694 1.70784H7.5182C7.58007 1.6769 7.62649 1.66143 7.65743 1.66143C7.68837 1.66143 7.7193 1.64596 7.75024 1.61502C8.09057 1.15093 8.53919 0.903421 9.09609 0.872482C9.09609 0.748726 9.09609 0.655907 9.09609 0.594029C9.12703 0.532151 9.1425 0.470275 9.1425 0.408397C9.26626 0.346518 9.37455 0.300109 9.46736 0.26917C9.56018 0.238231 9.66847 0.207292 9.79222 0.176354C9.8541 0.207292 9.96238 0.207292 10.1171 0.176354C10.3027 0.114476 10.4574 0.0680666 10.5812 0.037127C10.7668 -0.0247513 10.937 -0.00928192 11.0917 0.0835359C11.2464 0.145414 11.3701 0.191822 11.4629 0.222761C11.5557 0.222761 11.664 0.191821 11.7878 0.129943C11.9115 0.0680648 12.0353 0.037127 12.1591 0.037127C12.4375 0.037127 12.6231 0.160884 12.716 0.408397C12.7778 0.532152 12.8552 0.671377 12.948 0.826073C13.0408 0.949829 13.1336 1.08905 13.2265 1.24375C13.2574 1.42938 13.2729 1.63049 13.2729 1.84706C13.3038 2.0327 13.3502 2.21833 13.4121 2.40397C13.443 2.49678 13.4585 2.62054 13.4585 2.77523C13.3966 3.02275 13.443 3.22385 13.5977 3.37855C13.7834 3.657 13.7988 3.91998 13.6441 4.16749C13.6132 4.19843 13.5823 4.24484 13.5513 4.30672C13.5513 4.3686 13.5204 4.41501 13.4585 4.44594L13.6441 5.09567ZM6.68284 8.39068C6.74472 8.60725 6.76019 8.83929 6.72925 9.08681C6.72925 9.30338 6.63644 9.50448 6.45081 9.69012C6.32705 9.72105 6.18782 9.72105 6.03312 9.69012C5.90937 9.65918 5.80108 9.67465 5.70827 9.73652C5.58451 9.76746 5.4917 9.84481 5.42982 9.96857C5.39888 10.0614 5.32153 10.1387 5.19777 10.2006C5.16683 10.2315 5.12043 10.2625 5.05855 10.2934C4.99667 10.3244 4.93479 10.3398 4.87291 10.3398C4.74916 10.3398 4.57899 10.4172 4.36242 10.5719C4.17678 10.6956 3.99114 10.8039 3.80551 10.8967C3.558 11.0205 3.31049 11.1133 3.06298 11.1752C2.84641 11.2371 2.6917 11.3299 2.59889 11.4536C2.56795 11.5155 2.47513 11.5465 2.32044 11.5465C2.19668 11.5155 2.10387 11.4691 2.04199 11.4072C1.91824 11.2835 1.85636 11.1907 1.85636 11.1288C1.79448 10.9432 1.67072 10.7575 1.48509 10.5719C1.33039 10.3862 1.1757 10.2316 1.021 10.1078C0.959126 9.9531 0.897246 9.7984 0.835368 9.64371C0.77349 9.48901 0.696137 9.33432 0.60332 9.17962C0.541442 9.02493 0.464089 8.8857 0.371271 8.76194C0.309393 8.63819 0.247514 8.51443 0.185636 8.39068C0.154697 8.14316 0.123764 7.88018 0.0928252 7.60173C0.0928252 7.32328 0.0618782 7.07577 0 6.85919C0.0618782 6.7045 0.0928252 6.51886 0.0928252 6.30229C0.123764 6.05478 0.154697 5.86914 0.185636 5.74539C0.340331 5.55975 0.510496 5.45147 0.69613 5.42053C0.881765 5.35865 1.0674 5.2813 1.25304 5.18848C1.37679 5.12661 1.46962 5.04926 1.5315 4.95644C1.62432 4.86362 1.76353 4.78628 1.94917 4.7244C2.01105 4.66252 2.1348 4.61611 2.32044 4.58517C2.50607 4.52329 2.64529 4.47688 2.73811 4.44594C2.79999 4.38407 2.86187 4.30672 2.92374 4.2139C3.01656 4.12109 3.09391 4.05921 3.15579 4.02827C3.37237 3.90451 3.558 3.84263 3.7127 3.84263C3.89833 3.81169 4.05303 3.78075 4.17678 3.74981C4.23866 3.71887 4.30054 3.70341 4.36242 3.70341C4.4243 3.70341 4.4707 3.68794 4.50164 3.657C4.90385 3.84263 5.1823 4.13655 5.33699 4.53876C5.39887 4.87909 5.50716 5.18848 5.66185 5.46693C5.84749 5.71445 6.00219 5.9929 6.12595 6.30229C6.24971 6.61168 6.35799 6.96748 6.45081 7.36969C6.57456 7.7719 6.6519 8.11222 6.68284 8.39068ZM20.4662 9.92216C20.4353 9.98404 20.4043 10.1233 20.3734 10.3398C20.3734 10.5255 20.3734 10.6492 20.3734 10.7111C20.3424 10.9277 20.2496 11.1597 20.0949 11.4072C19.9402 11.6238 19.801 11.8249 19.6773 12.0105C19.5844 12.1652 19.5226 12.3354 19.4916 12.521C19.4916 12.7067 19.4297 12.8768 19.306 13.0315C19.1822 13.2172 19.0121 13.4028 18.7955 13.5884C18.6099 13.7431 18.4397 13.9133 18.285 14.0989C17.9447 14.563 17.6353 15.0116 17.3568 15.4448C17.2331 15.7232 17.001 15.9553 16.6607 16.1409C16.5369 16.2028 16.4132 16.3111 16.2894 16.4658C16.1657 16.6205 16.0419 16.7752 15.9182 16.9299C15.7944 17.1155 15.6706 17.3475 15.5469 17.626C15.4541 17.8735 15.3458 18.0901 15.222 18.2757C14.7889 18.5232 14.3557 18.7243 13.9226 18.879C13.5204 19.0337 13.1646 19.2503 12.8552 19.5287C12.6386 19.6216 12.422 19.7298 12.2055 19.8536C11.9889 19.9464 11.7878 20.0238 11.6022 20.0856C11.1071 20.2403 10.6585 20.4724 10.2563 20.7818C10.0397 20.9983 9.77675 21.1685 9.46736 21.2923C9.15797 21.416 8.86405 21.5398 8.5856 21.6635C8.4309 21.7564 8.27621 21.8182 8.12151 21.8492C7.96682 21.8801 7.81213 21.9265 7.65743 21.9884C7.56462 22.0193 7.50274 21.9884 7.4718 21.8956C7.44086 21.8028 7.39445 21.7254 7.33257 21.6635C7.23976 21.6326 7.14693 21.6017 7.05411 21.5707C6.9613 21.5398 6.86848 21.5088 6.77567 21.4779C6.71379 21.3851 6.65191 21.3077 6.59003 21.2459C6.52815 21.153 6.46627 21.0602 6.4044 20.9674C6.28064 20.9055 6.095 20.7818 5.84749 20.5961C5.59998 20.3796 5.36793 20.1166 5.15136 19.8072C5.08948 19.7144 5.04307 19.6061 5.01214 19.4823C4.9812 19.3586 4.91932 19.2348 4.8265 19.1111C4.76462 18.9873 4.65634 18.8945 4.50164 18.8326C4.37788 18.7398 4.2696 18.647 4.17678 18.5542C4.08396 18.3685 4.05303 18.2602 4.08397 18.2293C4.11491 18.1674 4.11491 18.0746 4.08397 17.9509C4.05303 17.7962 4.08396 17.6569 4.17678 17.5332C4.30054 17.4094 4.40882 17.3011 4.50164 17.2083C4.71821 17.0536 4.90385 16.837 5.05855 16.5586C5.24418 16.2801 5.4917 16.1564 5.80109 16.1873C6.29612 15.5995 6.9149 15.1354 7.65743 14.7951C7.71931 14.7641 7.76572 14.7487 7.79666 14.7487C7.8276 14.7487 7.85853 14.7332 7.88947 14.7022C8.16792 14.4238 8.46184 14.1763 8.77123 13.9597C9.08062 13.7122 9.39002 13.4647 9.69941 13.2172C9.88505 13.0315 10.0707 12.8614 10.2563 12.7067C10.4729 12.521 10.674 12.3354 10.8596 12.1498C11.0143 11.9641 11.1845 11.7785 11.3701 11.5929C11.5558 11.4072 11.7104 11.2061 11.8342 10.9896C11.958 10.8039 12.0817 10.6338 12.2055 10.4791C12.3602 10.3244 12.4994 10.1387 12.6232 9.92216C12.6541 9.86028 12.7005 9.7984 12.7624 9.73652C12.8552 9.67465 12.9171 9.61277 12.948 9.55089C13.1027 9.36526 13.2729 9.17962 13.4585 8.99399C13.6751 8.80835 13.8607 8.60725 14.0154 8.39068C14.0773 8.3288 14.1392 8.28239 14.201 8.25145C14.2939 8.22051 14.3712 8.1741 14.4331 8.11222C14.6806 7.92659 14.8353 7.77189 14.8972 7.64814C14.959 7.49344 15.0364 7.2614 15.1292 6.95201C15.1602 6.89013 15.253 6.78184 15.4077 6.62715C15.5624 6.47245 15.6552 6.33323 15.6861 6.20947C15.7171 6.11666 15.7325 6.02384 15.7325 5.93102C15.7325 5.80726 15.7635 5.71445 15.8253 5.65257C16.1657 5.55975 16.5215 5.66804 16.8927 5.97743C17.295 6.25588 17.6198 6.42604 17.8673 6.48792C18.053 6.48792 18.1767 6.56527 18.2386 6.71997C18.3005 6.84372 18.3624 6.95201 18.4242 7.04483C18.6408 7.2614 18.8883 7.43156 19.1668 7.55532C19.4761 7.67908 19.7391 7.86471 19.9557 8.11222C20.0176 8.35974 20.1568 8.66913 20.3734 9.04039C20.59 9.41166 20.6209 9.70559 20.4662 9.92216ZM12.0198 6.3487V6.39511C12.0198 6.36417 12.0044 6.3487 11.9734 6.3487H12.0198Z" fill="black"/>
</svg>
