<svg width="30" height="27" viewBox="0 0 30 27" fill="none" xmlns="http://www.w3.org/2000/svg">
<path d="M30 14.2727C29.9394 14.3939 29.8485 14.5303 29.7273 14.6818C29.6364 14.803 29.5455 14.9242 29.4545 15.0455C29.4242 15.197 29.4545 15.3485 29.5455 15.5C29.6364 15.6515 29.697 15.803 29.7273 15.9545C29.697 16.1364 29.6364 16.3333 29.5455 16.5455C29.4848 16.7273 29.4242 16.8939 29.3636 17.0455C29.2424 17.2576 29.0909 17.4545 28.9091 17.6364C28.7576 17.8182 28.6515 18.0455 28.5909 18.3182C28.5909 18.3788 28.6212 18.5 28.6818 18.6818C28.7121 18.7424 28.7424 18.803 28.7727 18.8636C28.8333 18.9242 28.8788 18.9848 28.9091 19.0455C28.9394 19.2576 28.8939 19.4545 28.7727 19.6364C28.6818 19.7879 28.6515 19.9545 28.6818 20.1364C28.5 20.197 28.3939 20.2273 28.3636 20.2273C27.9697 20.1364 27.5758 20.1061 27.1818 20.1364C26.7879 20.1364 26.4242 20.1364 26.0909 20.1364C25.7879 20.1667 25.5758 20.2727 25.4545 20.4545C25.3636 20.6364 25.2121 20.7424 25 20.7727C24.9394 20.7424 24.8636 20.6818 24.7727 20.5909C24.4697 20.2273 24.0909 19.9697 23.6364 19.8182C23.5152 19.7879 23.3939 19.7576 23.2727 19.7273C23.1818 19.697 23.1061 19.6667 23.0455 19.6364C22.7121 19.5152 22.5455 19.3333 22.5455 19.0909C22.4545 18.697 22.4848 18.2879 22.6364 17.8636C22.697 17.6515 22.7727 17.4545 22.8636 17.2727C22.9848 17.0909 23.0909 16.8939 23.1818 16.6818C23.1818 16.6515 23.1818 16.6061 23.1818 16.5455C23.2121 16.4545 23.2424 16.3788 23.2727 16.3182C23.3636 15.7727 23.3636 15.2273 23.2727 14.6818C23.1818 14.1364 23.0909 13.6061 23 13.0909C22.9697 12.8485 22.8939 12.6364 22.7727 12.4545C22.6818 12.2424 22.5758 12.0303 22.4545 11.8182C22.3636 11.6364 22.2727 11.4545 22.1818 11.2727C22.1212 11.0909 22.1061 10.8939 22.1364 10.6818C21.9242 10.5303 21.6667 10.4091 21.3636 10.3182C21.3333 10.1667 21.2879 10 21.2273 9.81818C21.1667 9.63636 21.0909 9.4697 21 9.31818C20.697 9.10606 20.4394 8.9697 20.2273 8.90909C19.803 8.81818 19.5 8.87879 19.3182 9.09091C19.2879 9.21212 19.2576 9.31818 19.2273 9.40909C19.2273 9.5 19.2273 9.60606 19.2273 9.72727C19.2273 9.84848 19.2121 9.9697 19.1818 10.0909C19.1818 10.2121 19.1515 10.3333 19.0909 10.4545C18.9394 10.7576 18.8182 11.0758 18.7273 11.4091C18.6667 11.7424 18.6212 12.0758 18.5909 12.4091C18.5909 12.5909 18.5758 12.7727 18.5455 12.9545C18.5152 13.1364 18.4697 13.303 18.4091 13.4545C18.4697 13.5455 18.5152 13.6364 18.5455 13.7273C18.5758 13.8182 18.6061 13.9091 18.6364 14C18.697 14.1515 18.6667 14.2727 18.5455 14.3636C18.4242 14.4545 18.3333 14.5303 18.2727 14.5909C18.1515 14.7727 18.1061 14.9545 18.1364 15.1364C18.197 15.3182 18.197 15.5 18.1364 15.6818C18.0455 15.803 18 15.9545 18 16.1364C18 16.2879 17.9848 16.4394 17.9545 16.5909C17.9545 16.8939 17.8939 17.197 17.7727 17.5C17.6818 17.803 17.5606 18.0909 17.4091 18.3636C17.4091 18.8182 17.3333 19.2727 17.1818 19.7273C17.0606 20.1818 16.9091 20.6364 16.7273 21.0909C16.5758 21.2727 16.4848 21.4697 16.4545 21.6818C16.4242 21.8939 16.3485 22.1212 16.2273 22.3636C16.1364 22.4848 16.0303 22.5909 15.9091 22.6818C15.7879 22.7727 15.6818 22.8788 15.5909 23C15.4697 23.1515 15.3485 23.3182 15.2273 23.5C15.1364 23.6818 15.0909 23.8788 15.0909 24.0909C15.1212 24.3939 14.9848 24.5909 14.6818 24.6818C14.5303 24.7121 14.3636 24.7424 14.1818 24.7727C14.0303 24.803 13.8788 24.8333 13.7273 24.8636C13.1212 25.0152 12.6515 25.303 12.3182 25.7273C12.1061 26 11.7727 26.1667 11.3182 26.2273C11.0758 26.1667 10.803 26.1061 10.5 26.0455C10.2273 25.9545 9.96969 25.8182 9.72727 25.6364C9.66666 25.5758 9.60605 25.5455 9.54545 25.5455C9.51515 25.5152 9.46969 25.4848 9.40909 25.4545C8.95454 25.3939 8.51515 25.2727 8.09091 25.0909C7.66667 24.9091 7.19697 24.803 6.68182 24.7727C6.5303 24.6212 6.36364 24.5 6.18182 24.4091C6.0303 24.2879 5.87878 24.1667 5.72727 24.0455C5.57575 23.9545 5.42424 23.8636 5.27272 23.7727C5.12121 23.6818 4.96969 23.6061 4.81818 23.5455C4.72727 23.4849 4.63636 23.4394 4.54545 23.4091C4.48484 23.3485 4.42424 23.303 4.36363 23.2727C3.72727 22.9697 3.25757 22.5152 2.95454 21.9091C2.77272 21.5455 2.57575 21.1818 2.36363 20.8182C2.15151 20.4545 1.92424 20.1212 1.68181 19.8182C1.5606 19.6667 1.48484 19.5303 1.45454 19.4091C1.42424 19.3182 1.40909 19.2424 1.40909 19.1818C1.40909 19.0909 1.37879 19.0303 1.31818 19C0.984847 18.4848 0.742417 17.9394 0.590902 17.3636C0.439387 16.7576 0.333328 16.1667 0.272722 15.5909C0.242419 15.4697 0.227271 15.3636 0.227271 15.2727C0.257574 15.1818 0.242418 15.0909 0.181812 15C0.151509 14.8485 0.121205 14.697 0.0909025 14.5455C0.0605995 14.3636 0.0303031 14.1818 0 14C0.0606061 13.7576 0.106058 13.5 0.136361 13.2273C0.196967 12.9545 0.257574 12.6818 0.31818 12.4091C0.378786 12.1667 0.40909 11.9242 0.40909 11.6818C0.439393 11.4091 0.469697 11.1515 0.5 10.9091C0.590909 10.8182 0.666665 10.7273 0.727271 10.6364C0.787877 10.5455 0.863632 10.4545 0.954541 10.3636C0.954541 10.2727 0.954541 10.1818 0.954541 10.0909C0.984844 10 1 9.90909 1 9.81818C1.09091 9.60606 1.19697 9.42424 1.31818 9.27273C1.43939 9.09091 1.48484 8.89394 1.45454 8.68182C1.54545 8.5303 1.62121 8.37879 1.68181 8.22727C1.77272 8.07576 1.84848 7.92424 1.90909 7.77273C1.9697 7.68182 2 7.57576 2 7.45455C2 7.30303 2.01515 7.16667 2.04545 7.04545C2.5 6.71212 2.86363 6.30303 3.13636 5.81818C3.19697 5.66667 3.28788 5.51515 3.40909 5.36364C3.5606 5.21212 3.69697 5.04545 3.81818 4.86364C3.90909 4.80303 4.01515 4.72727 4.13636 4.63636C4.25757 4.54545 4.37879 4.45455 4.5 4.36364C4.77273 4.15151 5.0303 3.9697 5.27272 3.81818C5.33333 3.78788 5.39393 3.75758 5.45454 3.72727C5.51515 3.66667 5.56061 3.60606 5.59091 3.54545C5.92424 3.09091 6.31817 2.71212 6.77272 2.40909C7.22727 2.10606 7.65151 1.75757 8.04545 1.36364C8.19696 1.39394 8.34848 1.42424 8.5 1.45454C8.68182 1.48485 8.84848 1.5303 9 1.59091C9.09091 1.4697 9.19697 1.37879 9.31818 1.31818C9.46969 1.22727 9.60606 1.12121 9.72727 1C10.1515 0.878787 10.4091 0.787878 10.5 0.727271C10.6212 0.666665 10.7424 0.575757 10.8636 0.454545C11.1061 0.545455 11.3485 0.621212 11.5909 0.681818C11.8333 0.742425 12.0606 0.818182 12.2727 0.90909C12.3636 0.848485 12.4394 0.818182 12.5 0.818182C12.5606 0.787879 12.6061 0.757575 12.6364 0.727271C12.8788 0.545453 13.1364 0.424242 13.4091 0.363637C13.6818 0.30303 13.9697 0.272726 14.2727 0.272726C14.6061 0.303028 14.9545 0.21212 15.3182 0C15.5 0.0303026 15.6818 0.0757557 15.8636 0.136361C16.0758 0.196968 16.2879 0.181818 16.5 0.0909079C16.7424 0.0303026 16.9697 0.0151522 17.1818 0.0454549C17.3939 0.0757575 17.6061 0.121212 17.8182 0.181819C18 0.212122 18.2273 0.30303 18.5 0.454545C18.803 0.575757 19.0758 0.681819 19.3182 0.772729C19.4394 0.712122 19.5455 0.651515 19.6364 0.59091C19.7576 0.530302 19.8788 0.469695 20 0.40909C20.1818 0.439393 20.3485 0.515152 20.5 0.636364C20.6515 0.727274 20.803 0.818182 20.9545 0.90909C21.1061 1 21.2576 1.09091 21.4091 1.18182C21.5909 1.27273 21.7576 1.34848 21.9091 1.40909H22.5455C22.8788 1.5303 23.2121 1.63636 23.5455 1.72727C23.9091 1.81818 24.2121 2.01515 24.4545 2.31818C24.6364 2.28788 24.803 2.27273 24.9545 2.27273C25.1364 2.24242 25.2879 2.21212 25.4091 2.18182C25.6515 2.30303 25.8485 2.45454 26 2.63636C26.1515 2.81818 26.303 2.98485 26.4545 3.13636C26.6061 3.28788 26.7424 3.43939 26.8636 3.59091C27.0151 3.74242 27.1667 3.89394 27.3182 4.04545C27.3182 4.13636 27.303 4.24242 27.2727 4.36364C27.2727 4.45455 27.2727 4.57576 27.2727 4.72727C27.3939 4.84848 27.5 4.9697 27.5909 5.09091C27.7121 5.21212 27.8333 5.34848 27.9545 5.5C28.0151 5.62121 28.0455 5.72727 28.0455 5.81818C28.1364 6.0303 28.2121 6.27273 28.2727 6.54545C28.3636 6.78788 28.4394 7.0303 28.5 7.27273C28.5909 7.57576 28.6667 7.90909 28.7273 8.27273C28.8182 8.60606 28.8182 8.93939 28.7273 9.27273C28.9091 9.81818 28.9545 10.3636 28.8636 10.9091C29.0455 11.1818 29.2273 11.4545 29.4091 11.7273C29.5909 11.9697 29.7121 12.2576 29.7727 12.5909C29.8333 12.8636 29.8485 13.1364 29.8182 13.4091C29.8182 13.6818 29.8788 13.9697 30 14.2727ZM12.2273 13.2273C12.197 13.0152 12.1364 12.8182 12.0454 12.6364C11.9848 12.4242 12.0151 12.1818 12.1364 11.9091C11.9545 11.6667 11.8182 11.4091 11.7273 11.1364C11.6667 10.8333 11.697 10.5303 11.8182 10.2273C11.8788 10.1364 11.9242 10.0303 11.9545 9.90909C12.0152 9.75758 12.0606 9.62121 12.0909 9.5C12.1515 9.25758 12.1212 9.07576 12 8.95455C11.7879 8.80303 11.5909 8.66667 11.4091 8.54545C11.2273 8.42424 11.0303 8.31818 10.8182 8.22727C10.7576 8.13636 10.6667 8.15151 10.5454 8.27273C10.4545 8.36364 10.3636 8.4697 10.2727 8.59091C10.1818 8.71212 10.0909 8.83333 10 8.95455C9.87879 9.04546 9.74242 9.13636 9.59091 9.22727C9.46969 9.31818 9.34848 9.40909 9.22727 9.5C9.13636 9.62121 9.04545 9.75758 8.95454 9.90909C8.89393 10.0303 8.83333 10.1212 8.77273 10.1818C8.62121 10.2424 8.5 10.303 8.40909 10.3636C8.31818 10.3939 8.21212 10.4394 8.09091 10.5C7.9697 10.7424 7.86364 10.9848 7.77273 11.2273C7.68182 11.4394 7.59091 11.6364 7.5 11.8182C7.5 12.1212 7.46969 12.4091 7.40909 12.6818C7.37879 12.9545 7.37879 13.2121 7.40909 13.4545V13.7727C7.19697 14.0758 7.18182 14.3333 7.36364 14.5455C7.57576 14.7576 7.60606 15.0455 7.45454 15.4091C7.30302 15.803 7.36363 16.2121 7.63636 16.6364C7.75757 16.8485 7.87879 17.0606 8 17.2727C8.12121 17.4848 8.25757 17.7121 8.40909 17.9545C8.46969 18.0455 8.54545 18.1364 8.63636 18.2273C8.72727 18.3182 8.80303 18.3939 8.86364 18.4545C9.13636 18.5152 9.37879 18.5758 9.59091 18.6364C9.83333 18.697 10.0606 18.7576 10.2727 18.8182C10.5152 18.6667 10.697 18.5152 10.8182 18.3636C10.9394 18.1818 11.0606 18 11.1818 17.8182C11.2424 17.5758 11.3182 17.3485 11.4091 17.1364C11.5 16.9242 11.5606 16.697 11.5909 16.4545C11.6515 16.303 11.697 16.1818 11.7273 16.0909C11.7879 15.9697 11.803 15.8485 11.7727 15.7273C11.7424 15.3939 11.7576 15.0606 11.8182 14.7273C11.8788 14.3939 11.9091 14.0758 11.9091 13.7727C11.9697 13.6515 12.0303 13.5455 12.0909 13.4545C12.1515 13.3636 12.197 13.2879 12.2273 13.2273Z" fill="black"/>
</svg>
