<svg width="40" height="40" viewBox="0 0 40 40" fill="none" xmlns="http://www.w3.org/2000/svg">
<path d="M34.7469 30.0401C34.847 30.5593 34.7308 30.9367 34.3984 31.172C34.1745 31.3388 34.0031 31.5485 33.884 31.801C33.7716 32.0239 33.6331 32.2254 33.4683 32.4055C33.2015 32.6247 32.9529 32.8325 32.7224 33.0288C32.4985 33.1956 32.2713 33.3771 32.0408 33.5734C31.8103 33.7697 31.6226 33.9136 31.4778 34.0051C31.3826 34.0147 31.284 34.039 31.182 34.078C31.1096 34.1238 31.0258 34.1514 30.9305 34.161C30.6914 33.9829 30.4603 33.8376 30.2373 33.7252C30.021 33.5833 29.8081 33.4266 29.5984 33.2552C29.5136 33.0809 29.4254 32.9213 29.3339 32.7765C29.272 32.6384 29.1953 32.4969 29.1038 32.3521C29.0876 32.2864 29.0056 32.2368 28.8579 32.2035C28.7398 32.1769 28.6297 32.1831 28.5278 32.2222C28.383 32.3136 28.2859 32.4004 28.2363 32.4823C28.0982 32.5443 28.0091 32.6639 27.9692 32.8411C27.7739 33.2937 27.5082 33.7148 27.172 34.1046C26.8357 34.4943 26.4733 34.8626 26.0846 35.2095C25.9989 35.3143 25.8984 35.4158 25.7831 35.5139C25.6974 35.6187 25.5936 35.735 25.4717 35.8627C25.2678 35.9409 25.0639 36.019 24.8601 36.0972C24.6791 36.2115 24.4685 36.3192 24.2285 36.4203C24.1103 36.3936 23.9888 36.3817 23.864 36.3846C23.7392 36.3875 23.5849 36.3837 23.401 36.3733C23.2629 36.4352 23.0952 36.4905 22.898 36.5392C22.7236 36.624 22.5526 36.694 22.385 36.7493C22.3326 36.7065 22.2802 36.6636 22.2277 36.6208C22.1753 36.5779 22.1229 36.535 22.0705 36.4922C21.9162 36.4884 21.7799 36.4732 21.6618 36.4465C21.5436 36.4199 21.4403 36.3965 21.3517 36.3765C21.1611 36.3956 20.9787 36.4476 20.8043 36.5324C20.6234 36.6468 20.4228 36.7102 20.2027 36.7226C20.0093 36.6169 19.8159 36.5112 19.6225 36.4055C19.429 36.2997 19.2075 36.2498 18.9579 36.2555C18.774 36.2451 18.6001 36.1903 18.4362 36.0913C18.2657 36.0218 18.0951 35.9523 17.9246 35.8827C17.7673 35.7542 17.6611 35.606 17.6058 35.4384C17.58 35.2774 17.5066 35.1211 17.3856 34.9697C17.196 34.7096 16.9882 34.461 16.7624 34.2238C16.5594 34.0228 16.3483 33.7889 16.1292 33.5222C16.1329 33.3679 16.1253 33.1954 16.1062 33.0049C16.1233 32.7915 16.119 32.6043 16.0932 32.4432C15.995 32.328 15.9379 32.2375 15.9217 32.1718C15.8368 31.9974 15.7158 31.846 15.5586 31.7174C15.408 31.5592 15.3232 31.3849 15.3041 31.1944C15.2488 31.0267 15.2083 30.8624 15.1825 30.7013C15.193 30.5175 15.182 30.3598 15.1496 30.2283C15.1238 30.0673 15.08 29.9177 15.018 29.7796C14.9922 29.6186 14.9665 29.4576 14.9407 29.2966C14.9445 29.1422 14.9335 28.9846 14.9078 28.8236C14.9182 28.6397 14.9582 28.4625 15.0277 28.2919C15.1801 27.8917 15.2767 27.4635 15.3176 27.0071C15.3946 26.5278 15.5308 26.0619 15.726 25.6093C15.7593 25.4617 15.7798 25.2335 15.7873 24.9248C15.7949 24.6161 15.9549 24.3884 16.2674 24.2416L16.7018 23.9671C16.8732 23.7575 16.9889 23.5197 17.0489 23.2539C17.1155 22.9586 17.2756 22.7308 17.529 22.5707C17.8614 22.3353 18.0672 22.18 18.1462 22.1047C18.2615 22.0065 18.4067 21.7755 18.582 21.4115C18.7277 21.0409 18.9844 20.866 19.3522 20.8869C19.4474 20.8773 19.5427 20.8678 19.638 20.8582C19.7628 20.8553 19.8647 20.8163 19.9438 20.741C20.1543 20.6333 20.3615 20.5403 20.5654 20.4622C20.8055 20.3611 21.0274 20.2715 21.2313 20.1934L22.0731 20.3833C22.175 20.3442 22.2917 20.3085 22.4232 20.276C22.5842 20.2503 22.7271 20.236 22.8519 20.2331C23.0358 20.2435 23.2163 20.2687 23.3936 20.3087C23.6003 20.3554 23.7942 20.3215 23.9752 20.2071C24.1267 20.0861 24.2305 19.9698 24.2867 19.8584C24.3428 19.7469 24.4024 19.6206 24.4652 19.4796C24.469 19.3253 24.5185 19.2433 24.6138 19.2338C24.7386 19.2309 24.8143 19.1704 24.841 19.0522L24.881 18.875C24.9467 18.8588 24.9681 18.8326 24.9453 18.7964C24.9586 18.7373 24.98 18.7111 25.0096 18.7178C25.082 18.6721 25.1182 18.6492 25.1182 18.6492C25.1544 18.6263 25.161 18.5968 25.1382 18.5606C25.1515 18.5015 25.1286 18.4653 25.0695 18.452C24.9876 18.4024 24.9466 18.3777 24.9466 18.3777C24.9533 18.3481 24.9123 18.3234 24.8237 18.3034L24.7351 18.2834C24.7684 18.1357 24.7293 18.0338 24.6178 17.9776C24.513 17.8919 24.3901 17.8176 24.2491 17.7547C24.0261 17.6424 23.7851 17.5414 23.5259 17.4519C23.2667 17.3624 23.0076 17.2729 22.7484 17.1834C22.6303 17.1567 22.5169 17.1777 22.4083 17.2463C22.2997 17.315 22.1978 17.354 22.1025 17.3636C21.9053 17.4122 21.71 17.3837 21.5166 17.2779C21.3527 17.1789 21.1688 17.1685 20.9649 17.2466C20.7029 17.0323 20.4375 16.8328 20.1688 16.648C19.9001 16.4632 19.5999 16.3489 19.2684 16.3052L19.7082 14.3558C19.7681 14.09 19.7276 13.9256 19.5866 13.8628C19.4684 13.8361 19.4127 13.808 19.4194 13.7785C19.3707 13.5813 19.4141 13.3893 19.5493 13.2025C19.7141 13.0224 19.746 12.8123 19.6449 12.5723C19.9117 12.3531 20.0421 12.1187 20.0364 11.8691C20.0601 11.6261 20.1268 11.3308 20.2363 10.983C20.2791 10.9306 20.3072 10.8748 20.3205 10.8158C20.7121 10.5937 21.0102 10.304 21.215 9.9467C21.4198 9.58938 21.6884 9.29303 22.0208 9.05764C22.1523 9.02522 22.2476 9.01567 22.3067 9.029C22.5429 9.0823 22.7792 9.13561 23.0155 9.18892C23.2814 9.24889 23.5143 9.31696 23.7144 9.39314C23.9145 9.46932 24.0917 9.5093 24.246 9.51308C24.4004 9.51686 24.5447 9.56495 24.6791 9.65734C24.8496 9.72685 25.0088 9.77827 25.1564 9.81158C25.3337 9.85157 25.5075 9.90632 25.6781 9.97583C26.0621 10.0625 26.335 9.95331 26.4969 9.64841C26.6322 9.46164 26.7526 9.27155 26.8584 9.07812C27.0003 8.86182 27.1422 8.64552 27.2841 8.42923C27.3345 8.06813 27.4178 7.69893 27.534 7.32162C27.6864 6.92144 27.9092 6.55268 28.2026 6.21536C28.758 6.09235 29.3215 6.00221 29.8932 5.94493C30.4715 5.85812 31.0336 5.70557 31.5794 5.48728C31.7271 5.5206 31.8419 5.56202 31.9239 5.61155C32.042 5.63821 32.1568 5.67962 32.2683 5.73581C32.4389 5.80533 32.6013 5.84198 32.7556 5.84576C32.9395 5.8562 33.1086 5.86332 33.263 5.86709C33.5583 5.93373 33.778 6.06088 33.9219 6.24854C34.0753 6.53147 34.1597 6.84538 34.175 7.19027C34.2265 7.51228 34.2599 7.84573 34.2752 8.19062C34.3201 8.54217 34.2959 8.9247 34.2026 9.33821C34.1064 9.62691 34.0136 9.90084 33.9241 10.16C33.8708 10.3963 33.8437 10.654 33.8428 10.9332C33.8456 11.058 33.8009 11.1876 33.7085 11.3219C33.6457 11.4629 33.6271 11.6139 33.6529 11.7749C33.7281 11.854 33.8149 11.9512 33.913 12.0664C34.0474 12.1588 34.1636 12.2626 34.2618 12.3779C34.4485 12.5132 34.5924 12.7008 34.6935 12.9409C34.8412 12.9742 35.0003 13.0256 35.1708 13.0951C35.3481 13.1351 35.5072 13.1865 35.6482 13.2494C35.6711 13.2856 35.7268 13.3137 35.8154 13.3337C35.8574 13.5604 35.9536 13.7528 36.1042 13.911C36.2843 14.0758 36.4234 14.2158 36.5216 14.331C36.5835 14.4692 36.6045 14.5826 36.5845 14.6712C36.4359 14.917 36.3136 15.1843 36.2174 15.473C36.1574 15.7388 36.1565 16.0179 36.2147 16.3104C36.2176 16.4352 36.1957 16.601 36.1491 16.8078C36.0138 16.9945 35.9376 17.1946 35.9205 17.408C35.9396 17.5986 35.9258 17.7972 35.8792 18.004L35.8092 18.3141C35.6702 18.6552 35.4235 18.7858 35.069 18.7058L34.7589 18.6359C34.7294 18.6292 34.6703 18.6159 34.5817 18.5959C34.4931 18.5759 34.4226 18.5445 34.3702 18.5016C34.2254 18.5931 34.0953 18.6879 33.9801 18.7861C33.8715 18.8547 33.7595 18.9381 33.6443 19.0362C33.5395 18.9505 33.428 18.8943 33.3098 18.8677C33.1917 18.841 33.0588 18.811 32.9111 18.7777C32.8025 18.8463 32.6758 18.9264 32.531 19.0179C32.4224 19.0865 32.299 19.1518 32.1609 19.2137C32.1085 19.1709 32.0232 19.1361 31.9051 19.1095C31.8165 19.0895 31.7312 19.0547 31.6492 19.0052C31.613 19.0281 31.5621 19.0476 31.4963 19.0638C31.4601 19.0867 31.4387 19.1129 31.4321 19.1424C31.4054 19.2606 31.3787 19.3787 31.3521 19.4969C31.3616 19.5921 31.345 19.666 31.3021 19.7184C31.1964 19.9118 31.0988 20.1381 31.0093 20.3973C30.956 20.6335 30.9027 20.8698 30.8494 21.1061C30.8227 21.2243 30.778 21.3538 30.7151 21.4949C30.6818 21.6425 30.6485 21.7902 30.6152 21.9379C30.5094 22.1313 30.4514 22.32 30.4409 22.5039C30.4305 22.6877 30.4348 22.875 30.4539 23.0655C30.4912 23.7257 30.7885 24.1963 31.3459 24.4773C31.4279 24.5268 31.495 24.573 31.5475 24.6159C31.5999 24.6587 31.6818 24.7083 31.7933 24.7644C31.9829 25.0245 32.1726 25.2846 32.3622 25.5446C32.5881 25.7818 32.8354 25.9928 33.1041 26.1776C33.1365 26.309 33.1608 26.4077 33.177 26.4734C33.1999 26.5096 33.2194 26.5606 33.2356 26.6263C33.2805 26.9778 33.3615 27.3065 33.4788 27.6123C33.6322 27.8953 33.8152 28.1849 34.0277 28.4811C34.2535 28.7183 34.4399 28.9931 34.5867 29.3056C34.6191 29.4371 34.6515 29.5685 34.6839 29.7C34.723 29.8019 34.744 29.9153 34.7469 30.0401ZM12.9132 24.0436C12.9086 24.4771 12.7857 24.8839 12.5448 25.2641C12.3533 25.5624 12.1847 25.8968 12.0391 26.2674C11.9296 26.6152 11.8382 26.9516 11.7649 27.2765C11.2305 27.994 10.6195 28.57 9.93166 29.0046C9.82684 28.9189 9.70392 28.8446 9.5629 28.7817C9.45142 28.7255 9.32518 28.666 9.18416 28.6032C9.08889 28.6127 8.99029 28.637 8.88836 28.6761C8.79309 28.6857 8.69447 28.71 8.59254 28.7491C8.45729 28.9358 8.29583 29.1011 8.10816 29.245C7.94716 29.2708 7.77804 29.2637 7.60083 29.2237C7.45981 29.1609 7.31358 29.1899 7.16212 29.311C6.97157 29.3301 6.81057 29.3558 6.6791 29.3882C6.40661 29.3578 6.12411 29.3717 5.83164 29.4298C5.54582 29.4585 5.26001 29.4871 4.97419 29.5158C4.7379 29.4625 4.50162 29.4092 4.26533 29.3558C4.03571 29.273 3.78797 29.2016 3.52215 29.1416C3.39157 28.8949 3.18717 28.6315 2.90891 28.3514C2.70594 28.1505 2.4963 27.979 2.28 27.8371C2.19517 27.6628 2.19229 27.538 2.27136 27.4627C2.35708 27.3579 2.39373 27.1954 2.3813 26.9753C2.32601 26.8077 2.28071 26.5957 2.2454 26.3394C2.2101 26.0831 2.17147 25.8416 2.12951 25.6149C2.16283 25.4672 2.19281 25.3343 2.21947 25.2161C2.27565 25.1046 2.33185 24.9932 2.38804 24.8817C2.34608 24.6549 2.28933 24.4249 2.21783 24.1915C2.18253 23.9352 2.1439 23.6937 2.10194 23.4669C2.11994 22.9744 2.19036 22.5246 2.31318 22.1178C2.47221 21.6881 2.66409 21.2503 2.88885 20.8043L2.74864 19.9812C2.88101 19.6696 3.01005 19.3728 3.13575 19.0908C3.26146 18.8088 3.25903 18.5444 3.12845 18.2976C3.25416 18.0156 3.36987 17.7779 3.47559 17.5845C3.5813 17.391 3.67225 17.1943 3.74843 16.9942C3.84748 16.8303 3.93176 16.6631 4.00128 16.4925C4.07746 16.2924 4.15364 16.0923 4.22982 15.8922C4.21361 15.8265 4.18263 15.7574 4.13688 15.685C4.12733 15.5898 4.12113 15.4797 4.11824 15.3549C4.20487 14.971 4.34579 14.5527 4.54101 14.1001C4.61719 13.9 4.6343 13.6866 4.59234 13.4598C4.55037 13.2331 4.56271 12.972 4.62934 12.6767C4.70552 12.4766 4.81456 12.2684 4.95647 12.0521C5.10505 11.8063 5.22743 11.539 5.3236 11.2503C5.41311 10.9911 5.48452 10.7434 5.53782 10.5071C5.62733 10.248 5.72017 9.97403 5.81634 9.68533C5.94493 9.52811 6.08829 9.37421 6.24641 9.22365C6.40454 9.07308 6.54789 8.91919 6.67648 8.76196C6.7822 8.56854 6.88458 8.38988 6.98364 8.22599C7.11889 8.03922 7.21794 7.87533 7.2808 7.73432C7.45225 7.52468 7.69565 7.40888 8.011 7.3869C8.23108 7.37447 8.44782 7.37681 8.66124 7.39392C8.91085 7.38815 9.16381 7.36762 9.42009 7.33232C9.75921 7.06739 10.1374 6.9044 10.5547 6.84334C10.972 6.78229 11.3826 6.75076 11.7866 6.74878C11.9409 6.75256 12.0738 6.78254 12.1853 6.83873C12.3034 6.86539 12.4068 6.88871 12.4954 6.9087C12.584 6.92869 12.6446 7.00442 12.677 7.13589C12.7456 7.24449 12.7732 7.32833 12.7599 7.3874C12.7466 7.44647 12.7218 7.48744 12.6856 7.51032C12.679 7.53985 12.669 7.58415 12.6556 7.64323C12.3356 8.0987 12.3705 8.49455 12.7602 8.83079C13.0222 9.04511 13.1314 9.31805 13.0876 9.64961C12.88 9.88211 12.7052 10.1065 12.5633 10.3228C12.349 10.5849 12.3185 10.8574 12.472 11.1403C12.4948 11.1765 12.511 11.2422 12.5206 11.3375C12.5597 11.4394 12.5873 11.5233 12.6035 11.589C12.5473 11.7005 12.4878 11.8267 12.425 11.9677C12.3621 12.1088 12.2845 12.2464 12.1921 12.3808C12.175 12.5942 12.1579 12.8076 12.1408 13.0211C12.1599 13.2116 12.1609 13.4136 12.1438 13.627C12.1067 13.929 12.0219 14.2358 11.8896 14.5474C11.7639 14.8294 11.6382 15.1115 11.5124 15.3935C11.3867 15.6755 11.2725 15.9757 11.1696 16.2939C11.103 16.5893 11.0773 16.9094 11.0927 17.2543C11.1022 17.3495 11.0936 17.4562 11.067 17.5744C11.0403 17.6925 11.0137 17.8107 10.987 17.9288C10.9804 17.9584 10.9556 17.9993 10.9127 18.0517C10.8699 18.1042 10.827 18.1566 10.7841 18.209L10.1725 18.4435C10.0535 18.696 10.0297 18.9389 10.1012 19.1723C10.2089 19.3829 10.2952 19.6196 10.36 19.8825C10.3105 19.9645 10.261 20.0464 10.2115 20.1284C10.1915 20.217 10.1715 20.3056 10.1515 20.3942C10.1182 20.5419 10.1606 20.629 10.2787 20.6557C10.5283 20.6499 10.7827 20.6918 11.0419 20.7813C11.3077 20.8413 11.5621 20.8832 11.8051 20.9069C12.15 20.8916 12.4682 20.9944 12.7598 21.2154C13.3334 21.5621 13.4864 21.9846 13.2187 22.4829C13.1292 22.7421 13.0545 23.0046 12.9945 23.2704C12.9708 23.5134 12.9437 23.7711 12.9132 24.0436ZM23.8883 28.8475C23.9378 28.7656 23.9335 28.5784 23.8753 28.2859C23.8467 28.0001 23.8457 27.7981 23.8723 27.6799C23.8494 27.6437 23.8414 27.6109 23.848 27.5813C23.8613 27.5223 23.8451 27.4565 23.7994 27.3841C23.4467 26.7459 22.896 26.4354 22.1472 26.4527C21.8385 26.4451 21.546 26.5033 21.2697 26.6272C20.9935 26.7511 20.7072 26.9193 20.4109 27.1318C20.3509 27.3977 20.2433 27.6683 20.0881 27.9436C19.9395 28.1895 19.8615 28.4667 19.8539 28.7754C19.8796 28.9364 19.925 29.1484 19.9898 29.4114C20.0908 29.6514 20.169 29.8553 20.2243 30.023C20.2796 30.1906 20.3925 30.3092 20.563 30.3787C20.7698 30.4254 20.9699 30.5016 21.1633 30.6073C21.4034 30.5062 21.6744 30.4743 21.9765 30.5114C22.2785 30.5485 22.5543 30.5641 22.8039 30.5584C23.1135 30.2868 23.3459 30.0133 23.5012 29.7379C23.6631 29.433 23.7921 29.1362 23.8883 28.8475Z" fill="black"/>
</svg>
