<svg width="27" height="23" viewBox="0 0 27 23" fill="none" xmlns="http://www.w3.org/2000/svg">
<path d="M13.209 17.8076C13.0888 17.9507 12.9666 18.1052 12.8425 18.271C12.7223 18.4141 12.6021 18.5572 12.4819 18.7003C12.2293 18.7743 11.9787 18.8369 11.73 18.8882C11.4813 18.9395 11.2424 19.0042 11.0131 19.0821C10.9355 19.1157 10.8597 19.1379 10.7859 19.1487C10.7392 19.1408 10.6789 19.1423 10.6051 19.1531C10.5313 19.164 10.4477 19.1615 10.3543 19.1457C10.261 19.1299 10.1522 19.1349 10.0278 19.1605C9.95398 19.1714 9.86655 19.1916 9.76554 19.2212C9.66836 19.2281 9.56927 19.2463 9.46825 19.2759C9.42159 19.268 9.36134 19.2695 9.2875 19.2804C9.2175 19.2685 9.15917 19.2586 9.1125 19.2507C8.83635 19.1807 8.55252 19.156 8.261 19.1767C7.99281 19.2013 7.72269 19.2373 7.45066 19.2847C6.96892 19.4366 6.49678 19.5318 6.03425 19.5703C6.03041 19.593 6.0149 19.6137 5.98772 19.6325C5.96055 19.6512 5.94311 19.6833 5.93543 19.7287C5.79955 19.8224 5.70047 19.8407 5.63815 19.7835C5.47839 19.593 5.30695 19.4005 5.12385 19.206C4.96409 19.0155 4.80433 18.825 4.64457 18.6346C4.32504 18.2536 4.12011 17.8336 4.02979 17.3746C3.97817 16.8288 3.86629 16.2845 3.69417 15.7417C3.52204 15.1988 3.30915 14.6841 3.0555 14.1975C2.75107 13.5856 2.51073 12.9495 2.33448 12.2892C2.15823 11.6289 2.03058 10.9651 1.95151 10.2979C1.93558 10.1084 1.90991 9.90561 1.87449 9.68946C1.86241 9.47726 1.83866 9.26308 1.80324 9.04694C1.80296 8.90679 1.83577 8.78391 1.90164 8.67831C1.9947 8.55396 2.06442 8.42566 2.11081 8.29341C2.10668 8.17596 2.06372 8.07529 1.98192 7.99139C1.97011 7.91934 1.95639 7.85864 1.94074 7.80929C1.92509 7.75994 1.91136 7.69924 1.89956 7.62719C1.92645 7.46829 1.95143 7.32074 1.97448 7.18454C1.99754 7.04835 2.03418 6.90277 2.08441 6.74782C2.12696 6.63827 2.15592 6.5381 2.17129 6.4473C2.20999 6.36045 2.22344 6.281 2.21164 6.20895C2.21136 6.0688 2.23441 5.9326 2.2808 5.80035C2.32719 5.6681 2.37357 5.53584 2.41996 5.40359C2.59042 5.10554 2.73754 4.80354 2.86134 4.49759C3.0123 4.17289 3.16327 3.84819 3.31424 3.52349C3.38781 3.37249 3.47304 3.22346 3.56993 3.07641C3.66683 2.92936 3.77923 2.76158 3.90715 2.57308C3.91483 2.52768 3.91277 2.46896 3.90096 2.39691C3.91249 2.32881 3.9221 2.27206 3.92978 2.22666C3.97233 2.11711 4.02461 2.02088 4.08665 1.93798C4.15253 1.83238 4.32134 1.68583 4.5931 1.49832L4.69191 1.33992C4.76931 1.16622 4.89353 1.0705 5.06454 1.05274C5.09968 1.12874 5.18725 1.17859 5.32725 1.20228C5.3816 1.16478 5.44568 1.14061 5.51952 1.12976C5.59721 1.09621 5.65348 1.04736 5.68834 0.983207C5.875 1.0148 5.9918 1.10463 6.03875 1.25268C6.08569 1.40072 6.16365 1.50732 6.27263 1.57247C6.43596 1.60011 6.54082 1.54781 6.58721 1.41556C6.66077 1.26456 6.74806 1.17426 6.84907 1.14466C6.92676 1.11111 6.99868 1.11161 7.06484 1.14616C7.15817 1.16196 7.23983 1.17578 7.30983 1.18763L7.88051 0.793867C7.94666 0.828415 7.99141 0.847668 8.01474 0.851617C8.06525 0.836817 8.10025 0.842741 8.11974 0.86939C8.2677 0.987837 8.40398 1.10431 8.52861 1.21881C8.65324 1.33331 8.79146 1.43843 8.94326 1.53417C9.10274 1.58452 9.16327 1.72319 9.12485 1.95019C9.07846 2.08244 9.04374 2.21667 9.02068 2.35287C9.00147 2.46637 9.05418 2.58036 9.17881 2.69486C9.13627 2.80441 9.08204 2.91199 9.01617 3.01759C8.95029 3.12319 8.89608 3.23077 8.85353 3.34032C8.81099 3.44987 8.7782 3.57275 8.75514 3.70895C8.75926 3.82639 8.75171 3.94187 8.7325 4.05536C8.64384 4.43732 8.59211 4.81384 8.5773 5.18494C8.56248 5.55604 8.6565 5.92221 8.85937 6.28345C8.8558 6.4463 8.87557 6.6131 8.91867 6.78385C8.96562 6.9319 9.02038 7.10462 9.08297 7.30202C9.10274 7.46882 9.08367 7.65239 9.02576 7.85274C8.99502 8.03434 8.98569 8.23125 8.99778 8.44345C9.0137 8.63294 8.95962 8.81059 8.83555 8.97639C8.73482 9.14614 8.68075 9.32379 8.67334 9.50934C8.70107 9.77089 8.74239 10.0231 8.7973 10.2659C8.87938 10.4899 8.91095 10.7288 8.89201 10.9824C8.8728 11.0959 8.88858 11.2153 8.93937 11.3407C8.994 11.4433 9.04863 11.546 9.10326 11.6486C9.16557 11.7059 9.21429 11.7725 9.24943 11.8485C9.28841 11.9018 9.31574 11.9531 9.33138 12.0025C9.42115 12.1811 9.46232 12.3632 9.45492 12.5488C9.47469 12.7156 9.57021 12.8602 9.7415 12.9826C10.282 13.0507 10.8494 12.9599 11.4437 12.7103C11.568 12.6846 11.6943 12.6476 11.8225 12.5993C11.9507 12.5509 12.0634 12.5233 12.1605 12.5164C12.4054 12.4878 12.5903 12.6008 12.7152 12.8555C12.7542 12.9088 12.766 12.9808 12.7506 13.0716C12.7275 13.2078 12.6928 13.342 12.6464 13.4743C12.6272 13.5878 12.5944 13.7107 12.548 13.8429C12.5016 13.9752 12.4669 14.1094 12.4439 14.2456C12.4247 14.3591 12.4035 14.4839 12.3805 14.6201C12.4079 14.7415 12.4626 14.8442 12.5444 14.9281C12.6533 14.9932 12.7449 15.0905 12.819 15.2198C12.8703 15.6254 12.9314 16.0444 13.0023 16.4767C13.0731 16.909 13.142 17.3526 13.209 17.8076ZM25.5314 12.433C25.5668 12.6491 25.5128 12.8969 25.3696 13.1762C25.3424 13.1949 25.3133 13.225 25.2823 13.2665C25.2513 13.3079 25.2105 13.336 25.16 13.3508C25.059 13.3804 24.9444 13.4194 24.8162 13.4678C24.688 13.5161 24.5501 13.5512 24.4024 13.5729C24.2703 13.6439 24.15 13.7169 24.0413 13.7919C23.9326 13.8669 23.8355 13.9439 23.7502 14.0229C23.6181 14.0939 23.4685 14.127 23.3014 14.122C23.1342 14.1171 22.9827 14.1615 22.8468 14.2552C22.6176 14.3332 22.3493 14.2878 22.0418 14.119C21.9562 14.0578 21.8588 13.9946 21.7499 13.9294C21.6447 13.8416 21.5415 13.7424 21.4402 13.6319C21.2692 13.6496 21.1001 13.656 20.9329 13.6511C20.7658 13.6461 20.5869 13.6392 20.3964 13.6303C20.3693 13.6491 20.3421 13.6678 20.3149 13.6866C20.2916 13.6826 20.2547 13.688 20.2041 13.7028C20.0411 13.8153 19.8603 13.8198 19.6619 13.7161C19.4011 13.5552 19.2199 13.3494 19.1183 13.0987L18.8824 11.7278C18.9362 11.41 18.955 11.0863 18.9388 10.7566C18.9459 10.4309 18.8928 10.1067 18.7794 9.78397C18.7676 9.71192 18.7558 9.63987 18.744 9.56782C18.7555 9.49972 18.7573 9.41829 18.7493 9.32354C18.7414 9.22879 18.7179 9.15477 18.6789 9.10147C18.6671 9.02943 18.6417 8.96675 18.6027 8.91345C18.3727 8.57096 18.263 8.15543 18.2737 7.66689C18.2696 7.54944 18.2635 7.44334 18.2556 7.34859C18.2515 7.23114 18.2357 7.11171 18.2082 6.99031C18.2035 6.59256 18.2669 6.21802 18.3984 5.86666C18.8607 5.68806 19.22 5.55041 19.4764 5.4537C19.7561 5.36095 20.0184 5.30027 20.2632 5.27167C20.5119 5.22036 20.8209 5.16758 21.1901 5.11332C21.5826 5.06301 22.1462 4.99496 22.8807 4.90914C23.0054 5.02364 23.0873 5.17761 23.1266 5.37106C23.1697 5.54181 23.2439 5.74118 23.3493 5.96918C23.6996 6.16857 23.9683 6.42422 24.1556 6.73611C24.3466 7.02531 24.4969 7.34263 24.6065 7.68808C24.5642 7.93778 24.549 8.09865 24.5608 8.1707C24.5844 8.3148 24.6196 8.46087 24.6666 8.60892C24.7135 8.75697 24.7488 8.90305 24.7724 9.04715C24.8194 9.19519 24.8527 9.35262 24.8725 9.51942C24.8961 9.66352 24.945 9.80021 25.0191 9.92951C25.004 10.1605 25.053 10.3672 25.1661 10.5498C25.3025 10.7364 25.3263 10.9506 25.2373 11.1924C25.2999 11.3898 25.3606 11.5985 25.4193 11.8186C25.4819 12.016 25.5193 12.2208 25.5314 12.433Z" fill="black"/>
</svg>
