<svg width="39" height="39" viewBox="0 0 39 39" fill="none" xmlns="http://www.w3.org/2000/svg">
<path d="M32.5766 25.7054C32.5541 25.6532 32.5344 25.5501 32.5177 25.3962C32.4995 25.2677 32.4798 25.1647 32.4587 25.087C32.4362 25.0347 32.4256 24.9959 32.4271 24.9705C32.406 24.8928 32.3566 24.8646 32.279 24.8856C32.2536 24.8842 32.2154 24.882 32.1646 24.8792C32.2758 25.1659 32.4132 25.4413 32.5766 25.7054ZM32.3419 19.7276C32.3673 19.729 32.4414 19.7714 32.5641 19.8549C32.588 19.8817 32.6127 19.8958 32.6381 19.8973C32.5988 19.6911 32.5857 19.4737 32.5986 19.2451L32.0521 19.4435C32.1422 19.6525 32.2388 19.7472 32.3419 19.7276ZM14.9211 8.6846C14.7418 8.69992 14.5505 8.70183 14.3472 8.69031C14.3386 8.84276 14.3554 8.99664 14.3975 9.15197C14.4201 9.20423 14.4666 9.28333 14.537 9.38928C14.6089 9.46983 14.6561 9.53623 14.6787 9.58848C14.7468 9.28647 14.8276 8.98517 14.9211 8.6846ZM11.792 11.9484C11.7935 11.923 11.788 11.7952 11.7755 11.5651C11.7809 10.5713 11.7327 10.0715 11.6311 10.0658C11.6253 10.1674 11.604 10.3191 11.5671 10.5209C11.4975 10.8484 11.4831 11.1024 11.5239 11.2832C11.5421 11.4117 11.6202 11.6073 11.7583 11.87C11.7822 11.8968 11.7935 11.923 11.792 11.9484ZM29.9896 21.4295C30.0442 21.8149 30.2836 22.3128 30.7079 22.9231C30.8023 23.0559 30.8735 23.1492 30.9214 23.2029C30.8582 22.9699 30.7124 22.6175 30.4843 22.1458C30.3012 21.7785 30.1773 21.4911 30.1126 21.2835C30.1111 21.3089 30.0843 21.3329 30.032 21.3554C30.0306 21.3808 30.0164 21.4055 29.9896 21.4295ZM31.752 22.7147C31.7534 22.6892 31.7436 22.6377 31.7225 22.56C31.6789 22.4301 31.6458 22.339 31.6233 22.2868C31.6487 22.2882 31.5847 22.0679 31.4314 21.6259C31.3638 21.4691 31.3307 21.3781 31.3322 21.3527C31.1788 20.9106 31.0515 20.4574 30.9504 19.9928C30.9236 20.0168 30.8833 20.0527 30.8296 20.1007C30.7236 20.1711 30.6798 20.2706 30.698 20.3991C30.6908 20.5261 30.7457 20.6822 30.8626 20.8672C30.8851 20.9195 30.9062 20.9971 30.9259 21.1002C31.0596 21.4392 31.1214 21.6976 31.1114 21.8754C31.0476 22.1012 31.0734 22.3193 31.189 22.5298L31.3982 22.8858C31.4251 22.8618 31.5042 22.8153 31.6355 22.7463C31.6863 22.7492 31.7252 22.7386 31.752 22.7147ZM12.8211 12.0067C12.8283 11.8796 12.8383 11.7018 12.8513 11.4731C12.8921 10.3029 12.9814 9.40308 13.119 8.77364C13.0936 8.7722 13.0682 8.77076 13.0428 8.76932C12.8664 8.73383 12.7604 8.80429 12.7249 8.98071C12.6655 9.13028 12.6384 9.38364 12.6436 9.74079C12.6364 9.86783 12.6306 9.96946 12.6263 10.0457C12.6282 10.9124 12.516 11.5433 12.2897 11.9383C12.4407 11.9724 12.6178 11.9952 12.8211 12.0067ZM28.1185 20.7117C28.0773 20.9898 28.1264 21.2474 28.2659 21.4847C28.2884 21.537 28.3095 21.6147 28.3292 21.7177C28.3656 21.9747 28.4198 22.1435 28.4917 22.224L28.8239 22.434C29.0367 22.7264 29.1824 23.0788 29.261 23.4911C29.2821 23.5688 29.2898 23.6584 29.284 23.76C29.2782 23.8617 29.2739 23.9379 29.271 23.9887C29.3089 24.2203 29.4498 24.4322 29.6938 24.6244C29.6742 24.5214 29.6567 24.3802 29.6414 24.2009C29.5925 23.7138 29.511 23.3523 29.3969 23.1165C29.3744 23.0642 29.3286 22.9724 29.2596 22.841C29.0765 22.4738 28.9787 22.1751 28.9663 21.945C28.9692 21.8942 28.9862 21.8187 29.0174 21.7185C29.0231 21.6169 29.0267 21.5534 29.0282 21.5279C29.0071 21.4503 28.9493 21.3451 28.8549 21.2123C28.8084 21.1332 28.7739 21.0675 28.7513 21.0152C28.6358 20.8047 28.4757 20.7065 28.271 20.7203C28.2202 20.7175 28.1694 20.7146 28.1185 20.7117ZM10.3057 11.8641C10.3235 11.1004 10.4208 10.507 10.5978 10.0837C10.5992 10.0582 10.6148 10.0082 10.6445 9.93337C10.68 9.75695 10.7006 9.61793 10.7064 9.5163C10.7093 9.46548 10.7045 9.32502 10.692 9.0949C10.7122 8.73919 10.711 8.53521 10.6885 8.48295L10.1168 8.45055C9.98399 8.54499 9.95617 8.81105 10.0333 9.24874C10.0276 9.35038 10.0069 9.4894 9.97145 9.66582C9.92012 10.1217 9.92753 10.4408 9.99367 10.6229C10.1231 11.0381 10.2271 11.4518 10.3057 11.8641ZM28.7235 28.9282C28.6209 28.489 28.5052 27.8325 28.3763 26.9585C28.222 26.0831 28.0935 25.4259 27.991 24.9867C27.8491 24.3415 27.6811 23.7074 27.487 23.0847C27.3351 22.6173 27.2085 22.1513 27.1074 21.6867C27.0849 21.6345 27.0624 21.5822 27.0398 21.53C27.0216 21.4015 26.9922 21.2469 26.9514 21.0661C26.9092 20.9108 26.8841 20.68 26.876 20.3736C26.8563 20.2706 26.8479 20.1936 26.8508 20.1428L24.8852 24.4666C24.7097 24.8645 24.4705 25.4882 24.1674 26.3377C23.9608 26.8357 23.8121 27.2097 23.7215 27.4594C23.5475 27.8319 23.3967 28.2439 23.2691 28.6955C23.2111 28.8197 23.1473 29.0455 23.0778 29.3729C22.98 29.7497 22.8879 30.0249 22.8016 30.1984C22.9598 30.1054 23.2937 30.0606 23.8033 30.064C23.9064 30.0443 23.9833 30.036 24.0341 30.0388C24.5735 29.9674 25.1291 29.8333 25.701 29.6363C26.6853 29.3607 27.6927 29.1246 28.7235 28.9282ZM37.0861 35.8637C37.0414 36.6514 36.772 37.1332 36.2777 37.3091C36.1478 37.3527 35.9721 37.3045 35.7506 37.1645C35.5785 37.0528 35.4417 36.994 35.34 36.9883C35.0155 36.8679 34.7866 37.0844 34.6532 37.6376C34.5334 37.5033 34.3428 37.4925 34.0816 37.6052C33.8711 37.7207 33.7031 37.7621 33.5775 37.7295C33.5012 37.7252 33.4138 37.6948 33.315 37.6382C33.2417 37.5831 33.1125 37.614 32.9274 37.7309C32.8751 37.7535 32.8356 37.7767 32.8087 37.8007C32.7551 37.8486 32.664 37.8817 32.5355 37.8999C32.4847 37.897 32.3816 37.9167 32.2263 37.9588C31.9171 38.0178 31.6996 38.031 31.574 37.9983C31.4978 37.994 31.3969 37.9756 31.2713 37.943C30.872 37.7929 30.586 37.8914 30.4134 38.2384C30.0524 37.8611 29.8305 37.5044 29.7476 37.1684C29.7265 37.0907 29.6942 36.9869 29.6505 36.857C29.5873 36.624 29.5465 36.4433 29.5283 36.3148C29.5087 36.2117 29.4919 36.0578 29.478 35.8531C29.4685 35.5722 29.4411 35.3795 29.3961 35.275C29.3975 35.2496 29.3863 35.2234 29.3623 35.1966C29.3681 35.095 29.2806 35.0645 29.0998 35.1052C28.7638 35.1882 28.4644 35.2986 28.2017 35.4367C27.9135 35.5733 27.473 35.7013 26.8799 35.8206C26.6469 35.8839 26.4789 35.9253 26.3758 35.945C26.2713 35.99 26.1145 36.0576 25.9055 36.1477C25.6965 36.2378 25.5278 36.292 25.3993 36.3102C24.8062 36.4295 24.202 36.5227 23.5864 36.5898C21.5815 36.884 19.8301 36.5298 18.332 35.5273C16.81 34.4979 16.0325 32.9245 15.9996 30.807C16.0002 28.9973 16.6545 26.4472 17.9626 23.1567C18.0489 22.9831 18.1076 22.8463 18.1388 22.7461C18.0836 22.8194 17.9748 22.9407 17.8123 23.1099C17.596 23.3271 17.4589 23.4977 17.4009 23.6219C17.3443 23.7206 17.2348 23.8546 17.0723 24.0238C16.9112 24.1676 16.7896 24.2882 16.7076 24.3855C16.6511 24.4843 16.5528 24.6444 16.4128 24.8658C16.2076 25.3385 15.9983 25.658 15.7849 25.8244C15.679 25.8948 15.5385 25.8996 15.3636 25.8387C15.2888 25.809 15.226 25.7927 15.1751 25.7898C15.1243 25.7869 15.0608 25.7833 14.9846 25.779C14.7813 25.7675 14.6437 25.7214 14.5718 25.6409C14.5104 26.2747 14.443 27.2394 14.3696 28.5353C14.2169 31.2285 13.9874 33.2547 13.681 34.6137C13.539 35.3194 13.3952 35.8338 13.2494 36.1569C13.0696 36.631 12.8864 36.9392 12.6999 37.0816C12.4895 37.1971 12.2306 37.0423 11.9234 36.617C11.8275 36.5096 11.7556 36.4291 11.7076 36.3754C11.3706 36.0249 11.0782 36.2378 10.8303 37.0139C10.6654 36.7751 10.477 36.7262 10.2651 36.8672C10.0532 37.0081 9.8739 37.0234 9.72721 36.9131C9.67783 36.8848 9.64332 36.8192 9.62367 36.7161C9.55321 36.6101 9.47987 36.555 9.40364 36.5507C9.32886 36.521 9.23705 36.5667 9.12822 36.688C9.12678 36.7134 9.11335 36.7254 9.08794 36.724C9.03569 36.7465 8.99613 36.7697 8.96929 36.7937C8.96641 36.8445 8.90217 36.8536 8.77657 36.821C8.75116 36.8196 8.72575 36.8181 8.70034 36.8167C8.64953 36.8138 8.54718 36.8208 8.39329 36.8375C8.01073 36.8413 7.77007 36.815 7.67132 36.7584C7.62194 36.7301 7.56274 36.6503 7.49372 36.5189C7.47119 36.4667 7.44794 36.4271 7.42397 36.4003C7.40001 36.3734 7.33576 36.3825 7.23125 36.4276L7.19314 36.4254C7.14376 36.3971 7.10709 36.3696 7.08313 36.3427C7.03663 36.2636 6.97455 36.2346 6.89688 36.2557C6.74156 36.2979 6.6066 36.4304 6.49201 36.6533C6.18237 35.8201 6.05779 34.8699 6.11827 33.8028C6.1231 33.2678 6.2037 32.5204 6.36005 31.5607L6.55646 30.1189C6.5579 30.0935 6.56222 30.0172 6.56942 29.8902C6.70993 29.2099 6.67496 28.9276 6.46449 29.0431C6.35854 29.1136 6.167 29.3449 5.88988 29.737C5.80646 29.8597 5.75061 29.9458 5.72232 29.9951L5.10312 30.8012C5.07483 30.8506 5.0324 30.9246 4.97582 31.0234C4.86123 31.2463 4.73897 31.3796 4.60905 31.4232L4.38038 31.4102C4.35497 31.4088 4.30488 31.3932 4.23009 31.3635C4.27947 31.3918 4.26748 31.3783 4.19414 31.3232C4.1462 31.2695 4.08772 31.177 4.0187 31.0456C3.94823 30.9397 3.90102 30.8733 3.87705 30.8464C3.82912 30.7927 3.74235 30.7496 3.61675 30.717C3.44177 30.6561 3.33391 30.5353 3.29318 30.3545C3.23948 30.4025 3.20209 30.3876 3.181 30.3099L3.14505 30.2697C3.09568 30.2414 3.03287 30.2251 2.95665 30.2207C2.83105 30.1881 2.74428 30.145 2.69635 30.0913C2.67238 30.0644 2.66184 30.0256 2.66472 29.9748C2.64219 29.9225 2.63164 29.8837 2.63308 29.8583C2.60767 29.8569 2.58299 29.8427 2.55902 29.8159C2.45883 29.7847 2.39674 29.7557 2.37278 29.7288C2.29943 29.6737 2.19158 29.5529 2.04921 29.3664C1.95478 29.2336 1.88359 29.1403 1.83566 29.0866L1.32153 28.7134C1.27215 28.6851 1.1861 28.6293 1.06338 28.5458C0.572504 28.2121 0.399222 27.8964 0.543542 27.5987C0.659574 27.3504 0.774165 27.1275 0.887316 26.93L1.18866 26.3353C1.27497 26.1618 1.44325 25.8909 1.69353 25.5228C1.72181 25.4734 1.74938 25.4367 1.77623 25.4128L2.70109 23.9358C2.86794 23.6904 3.10479 23.3342 3.41163 22.8673C4.55272 21.1732 5.36731 19.8429 5.85541 18.8765C6.00117 18.5534 6.29387 18.1111 6.73352 17.5498C6.95406 17.2564 7.11947 17.0364 7.22974 16.8897C6.95025 16.8738 6.54301 16.8635 6.008 16.8587C4.9888 16.8519 4.21457 16.7953 3.68532 16.6888C3.65991 16.6874 3.63451 16.6859 3.6091 16.6845C3.12635 16.6571 2.75315 16.4958 2.4895 16.2005C2.25126 15.9066 2.27764 15.6659 2.56865 15.4785C2.57009 15.4531 2.4953 15.4234 2.3443 15.3893C2.04084 15.3466 1.89271 15.2618 1.89991 15.1347C2.07777 15.1448 2.09767 15.0185 1.95962 14.7558C1.91169 14.7021 1.88844 14.6625 1.88988 14.6371L1.64469 14.2409L1.65549 14.0503L1.55628 13.777L1.56492 13.6246C1.54383 13.5469 1.534 13.4954 1.53544 13.47C1.56229 13.446 1.61383 13.4362 1.69005 13.4405C1.69581 13.3389 1.6649 13.2097 1.59732 13.0529C1.57479 13.0006 1.56424 12.9618 1.56568 12.9364C1.64047 12.9661 1.71813 12.945 1.79868 12.8731L1.69298 12.7142C1.87516 12.6481 1.96769 12.5896 1.97057 12.5388C1.97345 12.488 1.91496 12.3954 1.79512 12.2612C1.77116 12.2343 1.73448 12.2068 1.68511 12.1785C1.60888 12.1742 1.57365 12.1212 1.57941 12.0196C1.55833 11.9419 1.56049 11.9038 1.58589 11.9052C1.61274 11.8813 1.62688 11.8566 1.62832 11.8312C1.62976 11.8057 1.64391 11.7811 1.67075 11.7571C1.67363 11.7063 1.71463 11.6576 1.79373 11.6111C1.87284 11.5646 2.06556 11.5373 2.37189 11.5292C2.47496 11.5095 2.55191 11.5012 2.60272 11.504L3.97908 11.5056C4.10612 11.5128 4.30866 11.537 4.58671 11.5782C4.93954 11.6492 5.20561 11.677 5.3849 11.6617C5.81972 11.6354 6.49447 11.6481 7.40916 11.7C7.63783 11.7129 7.80298 11.7223 7.90462 11.728L8.24762 11.7475C8.45089 11.759 8.56954 11.6893 8.60359 11.5383C8.60647 11.4874 8.60935 11.4366 8.61223 11.3858C8.71921 10.3978 8.85231 9.39847 9.01154 8.38791C8.42716 8.35479 7.62968 8.25862 6.61912 8.09939L4.60566 7.87057C3.58934 7.81297 3.12505 7.6847 3.2128 7.48576C3.06035 7.47712 3.04214 7.34864 3.15818 7.10032C3.21763 6.95075 3.24808 6.86326 3.24952 6.83785C3.25096 6.81245 3.24041 6.77361 3.21789 6.72136C3.19536 6.6691 3.18482 6.63027 3.18626 6.60486C3.19202 6.50323 3.27688 6.3551 3.44085 6.16048C3.46625 6.16192 3.47968 6.14993 3.48112 6.12453C3.40489 6.12021 3.39363 6.09408 3.44733 6.04614C3.47417 6.02217 3.48832 5.99749 3.48976 5.97208C3.49264 5.92126 3.47011 5.86901 3.42217 5.81531C3.35027 5.73477 3.3299 5.6444 3.36107 5.5442L3.52432 5.36228C3.52576 5.33688 3.4898 5.2966 3.41646 5.24147C3.4179 5.21606 3.44619 5.16668 3.50133 5.09334C3.52817 5.06937 3.54232 5.04468 3.54376 5.01927C3.6852 4.77239 3.76456 4.49651 3.78183 4.19161C3.78759 4.08998 3.80606 3.98907 3.83723 3.88887C3.84155 3.81265 3.86001 3.71174 3.89262 3.58614C3.90558 3.35747 3.92764 3.19303 3.95881 3.09284C3.99718 2.86561 4.32198 2.75657 4.93321 2.76572C5.11107 2.7758 5.22612 2.76958 5.27838 2.74705C5.73716 2.74756 6.22064 2.76221 6.7288 2.79101C7.97379 2.86157 8.91461 2.90215 9.55125 2.91274C10.3149 2.93053 11.0158 2.93202 11.6539 2.9172C12.5743 2.86741 13.9354 2.68965 15.737 2.38392C16.1493 2.30532 16.4585 2.24638 16.6646 2.20708C16.7931 2.18887 16.9865 2.14886 17.2449 2.08703C17.7617 1.96338 18.1472 1.90876 18.4013 1.92316C18.7316 1.94188 19.0067 2.03394 19.2268 2.19935C19.4904 2.49468 19.5402 2.73966 19.3763 2.93428C19.4511 2.96401 19.5774 2.98391 19.7552 2.99399C19.9091 2.97722 20.0362 2.98442 20.1364 3.01559C20.1349 3.041 20.1074 3.07767 20.0537 3.12561C19.9746 3.1721 19.947 3.20878 19.971 3.23562C19.9695 3.26103 20.0294 3.32815 20.1507 3.43698C20.2734 3.52041 20.3341 3.57482 20.3326 3.60023C20.5527 3.76564 20.7324 3.967 20.8719 4.20431L21.0452 4.52001C21.0438 4.54541 21.055 4.57154 21.079 4.59839C21.0775 4.6238 21.1008 4.66335 21.1487 4.71705C21.2235 4.74677 21.1952 4.79615 21.0639 4.86518C21.085 4.94284 21.1674 5.06222 21.3112 5.2233C21.3352 5.25015 21.3591 5.277 21.3831 5.30385C21.3577 5.30241 21.3174 5.33836 21.2623 5.4117C21.2609 5.43711 21.2474 5.4491 21.222 5.44766C21.2431 5.52532 21.2932 5.5409 21.3723 5.49441C21.3694 5.54522 21.3284 5.59388 21.2493 5.64037C21.1717 5.66146 21.1321 5.68471 21.1307 5.71012C21.1431 5.94023 21.361 6.14375 21.7843 6.32068C21.7306 6.36862 21.7143 6.43142 21.7354 6.50908C21.7339 6.53449 21.7325 6.5599 21.7311 6.5853C21.7296 6.61071 21.7162 6.6227 21.6908 6.62126C21.6611 6.69604 21.6716 6.73487 21.7224 6.73775L20.8537 7.2238C20.6701 7.31535 20.3714 7.41313 19.9577 7.51713C19.8292 7.53534 19.7389 7.55571 19.6866 7.57824C19.4536 7.6415 19.131 7.71243 18.7187 7.79102C18.2541 7.89214 17.9054 7.97433 17.6724 8.0376C17.5425 8.08121 17.3363 8.12051 17.0539 8.15549C16.9255 8.17369 16.8224 8.19334 16.7447 8.21443C16.7193 8.21299 16.6551 8.22209 16.552 8.24174C15.9365 8.30882 15.6145 8.36704 15.5863 8.41642C15.5311 8.48976 15.5309 8.71915 15.5855 9.10459C15.6262 9.28533 15.6452 9.4011 15.6423 9.45192C15.659 9.60581 15.6468 9.82178 15.6056 10.0998C15.5926 10.3285 15.5825 10.5064 15.5753 10.6334C15.5667 10.7858 15.5707 10.939 15.5875 11.0929C15.6167 11.4769 15.6093 11.8333 15.5651 12.1622C16.4036 12.2097 17.2301 12.2438 18.0446 12.2645C18.1462 12.2702 18.3121 12.2669 18.5422 12.2544C18.8993 12.2492 19.1661 12.2643 19.3425 12.2998C19.5952 12.3396 19.7143 12.4866 19.6999 12.7406C19.6985 12.766 19.6836 12.8034 19.6553 12.8528C19.6539 12.8782 19.6397 12.9029 19.6129 12.9269L19.5999 13.1556C19.6239 13.1824 19.6352 13.2085 19.6337 13.2339C19.6577 13.2608 19.6682 13.2996 19.6653 13.3504C19.6625 13.4012 19.6193 13.488 19.5359 13.6107C19.4836 13.6333 19.4568 13.6572 19.4553 13.6826C19.5047 13.7109 19.5364 13.8274 19.5502 14.0321C19.5459 14.1084 19.5416 14.1846 19.5373 14.2608C19.4822 14.3341 19.5167 14.3998 19.6408 14.4578C19.4884 14.4492 19.3941 14.7625 19.3582 15.3977C19.3538 15.4739 19.3354 15.5748 19.3028 15.7004C19.2644 15.9277 19.255 16.0928 19.2747 16.1959C19.3053 16.5545 19.1428 16.7237 18.7871 16.7035C18.6586 16.7217 18.4666 16.7363 18.2111 16.7474C17.4671 16.8326 16.8911 16.8765 16.4831 16.8788C16.277 16.9181 16.0977 16.9334 15.9452 16.9248C15.7659 16.9401 15.6 16.9435 15.4476 16.9348C15.3968 16.932 15.3587 16.9298 15.3333 16.9284C15.2331 16.8972 15.1801 16.9324 15.1743 17.0341C15.1729 17.0595 15.1714 17.0849 15.17 17.1103C15.0736 17.4617 15.0626 17.8816 15.1368 18.3701C15.1579 18.4478 15.2171 18.5276 15.3144 18.6096C15.3384 18.6365 15.3624 18.6633 15.3863 18.6902C15.4103 18.717 15.447 18.7446 15.4964 18.7729C16.1238 19.3947 16.6202 19.8561 16.9855 20.1572L17.7916 20.7764C17.8649 20.8316 17.9749 20.9143 18.1216 21.0245C18.3925 21.1928 18.59 21.306 18.7141 21.364C19.8424 18.5476 21.4754 14.9187 23.6134 10.4772C23.7846 10.1555 24.042 9.66033 24.3858 8.99159C24.7281 8.34826 24.9729 7.85234 25.1201 7.50383C25.4625 6.8605 25.9999 5.92235 26.7325 4.68939C27.014 4.22104 27.2254 3.86342 27.3668 3.61654C27.6229 3.14675 27.953 2.71939 28.3571 2.33446C28.5197 2.16524 28.7069 2.01017 28.9188 1.86924C29.2127 1.631 29.4478 1.52963 29.6242 1.56511C29.6751 1.56799 29.7364 1.60971 29.8083 1.69025C29.9042 1.79764 30.0029 1.85422 30.1046 1.85998C30.1031 1.88539 30.0883 1.92278 30.06 1.97215C29.8903 2.26841 29.8838 2.38275 30.0405 2.31516C30.1182 2.29407 30.2405 2.16081 30.4073 1.91537C30.4624 1.84202 30.5034 1.79337 30.5303 1.7694C30.5547 2.68841 31.2769 3.21364 32.6968 3.3451C32.773 3.34942 32.8874 3.3559 33.0398 3.36454C33.908 3.33727 34.3227 3.66665 34.2838 4.35266C34.2818 4.83686 34.0538 5.48666 33.5998 6.30209C33.4286 6.62375 33.3133 6.85937 33.2539 7.00894C33.1973 7.10769 33.1251 7.25654 33.0374 7.45548C32.8662 7.77715 32.7509 8.01276 32.6915 8.16233C32.6023 8.38668 32.4558 8.72249 32.252 9.16976C31.8373 10.1913 31.5004 10.9624 31.2415 11.483C30.9246 12.1278 30.4252 13.0681 29.7434 14.3039C28.9725 15.7641 28.4136 16.854 28.067 17.5736C28.0387 17.6229 27.9956 17.7097 27.9375 17.8339C27.8455 18.109 27.7577 18.308 27.6743 18.4307C27.2049 19.0668 27.1093 19.4055 27.3873 19.4468C27.4875 19.4779 27.6189 19.4089 27.7814 19.2397C27.9185 19.069 28.0386 18.9739 28.1417 18.9542C28.2448 18.9346 28.3958 18.9686 28.5947 19.0564C28.9149 19.253 29.0118 19.1183 28.8853 18.6523C29.1053 18.8177 29.3249 18.7664 29.544 18.4984C29.6528 18.3771 29.7468 18.2933 29.8259 18.2468C29.9558 18.2031 30.0977 18.173 30.2516 18.1562C30.277 18.1576 30.3271 18.1732 30.4019 18.2029C30.4752 18.2581 30.5373 18.2871 30.5881 18.29C30.6389 18.2928 30.7039 18.271 30.783 18.2245C30.8352 18.202 30.8741 18.1915 30.8995 18.1929C30.9771 18.1718 31.0167 18.1486 31.0181 18.1232C31.0435 18.1246 31.0428 18.1373 31.016 18.1613C31.016 18.1613 31.0668 18.1642 31.1684 18.1699C31.2192 18.1728 31.2573 18.175 31.2828 18.1764C31.3575 18.2061 31.4218 18.197 31.4755 18.1491C31.5263 18.152 31.5793 18.1167 31.6344 18.0434C31.6881 17.9954 31.7284 17.9595 31.7552 17.9355C31.8075 17.913 31.9352 17.9075 32.1385 17.919C32.2147 17.9233 32.2655 17.9262 32.2909 17.9277C32.3164 17.9291 32.3283 17.9425 32.3269 17.9679C32.3523 17.9694 32.3897 17.9842 32.4391 18.0125C32.5139 18.0422 32.5858 18.1228 32.6548 18.2542C32.7027 18.3078 32.7387 18.3481 32.7626 18.375C32.8106 18.4287 32.8937 18.5353 33.0121 18.695C33.3237 19.044 33.5253 19.3103 33.6169 19.4939C33.6633 19.573 33.7062 19.7157 33.7455 19.9218C33.7834 20.1534 33.8376 20.3221 33.908 20.4281L34.1108 20.8984C34.962 23.4191 35.7068 26.4691 36.3451 30.0483C36.602 31.3629 36.808 32.6745 36.9632 33.9833C36.98 34.1372 36.991 34.3927 36.9963 34.7498C36.9929 35.2594 37.0228 35.6307 37.0861 35.8637Z" fill="black"/>
</svg>
