<svg width="40" height="40" viewBox="0 0 40 40" fill="none" xmlns="http://www.w3.org/2000/svg">
<path d="M7.26836 15.8685L7.11113 16.5399C7.1217 16.5843 7.14075 16.615 7.16826 16.6319L7.26836 15.8685ZM18.3588 14.0748C18.3853 14.1859 18.4175 14.2721 18.4556 14.3335C18.5339 14.2679 18.6488 14.1584 18.8001 14.005C18.8393 13.9722 18.8673 13.942 18.8843 13.9145C18.8176 13.9304 18.7202 13.9653 18.5922 14.0193C18.4811 14.0457 18.4033 14.0642 18.3588 14.0748ZM24.8555 14.29C24.3 13.929 23.9466 13.8253 23.7952 13.9787C24.1656 14.0549 24.519 14.1587 24.8555 14.29ZM32.1984 24.1304C32.1361 23.7696 32.0239 23.3971 31.8621 23.0129C31.8727 23.0574 31.8827 23.1489 31.8922 23.2876C31.9302 23.842 32.0323 24.123 32.1984 24.1304ZM4.2377 20.0061L4.28218 19.7489C4.188 19.7479 4.1388 19.6891 4.13459 19.5727C4.11872 19.5061 4.10815 19.4616 4.10286 19.4394L3.74091 19.8425C3.90597 19.9441 4.07157 19.9986 4.2377 20.0061ZM31.3515 30.6365C31.2404 30.663 31.1447 30.5566 31.0643 30.3174C31.0336 30.583 31.0192 30.8682 31.0213 31.173C31.1599 31.1635 31.3181 31.1376 31.4959 31.0953C31.4314 30.9228 31.3833 30.7699 31.3515 30.6365ZM21.5111 14.5927C21.4719 14.6255 21.3301 14.6709 21.0857 14.7291C20.2518 14.9745 19.8671 15.1834 19.9317 15.3559C20.1761 15.2978 20.5269 15.1438 20.9841 14.8942C21.2571 14.7588 21.4688 14.6614 21.619 14.6022C21.5968 14.6075 21.5608 14.6043 21.5111 14.5927ZM7.13944 18.4351C6.91929 18.7927 6.75045 19.2673 6.63291 19.8588C6.58632 20.0577 6.58207 20.1879 6.62016 20.2492C6.64767 20.2662 6.70958 20.181 6.8059 19.9937C6.89693 19.7842 6.98375 19.4583 7.06635 19.016C7.07485 18.7557 7.09921 18.562 7.13944 18.4351ZM18.9206 15.1034C19.0317 15.077 19.218 15.0209 19.4793 14.9352C19.7354 14.8273 19.9301 14.7575 20.0635 14.7258C20.5693 14.582 21.0667 14.4519 21.5556 14.3355C21.5133 14.1578 21.417 14.0985 21.2667 14.1577C21.2 14.1736 21.1445 14.1868 21.1 14.1974L20.5667 14.3243C19.9826 14.5337 19.4339 14.7934 18.9206 15.1034ZM7.42629 21.7128C7.421 21.6906 7.41042 21.6461 7.39456 21.5795C7.30888 21.3181 7.28087 21.1017 7.31052 20.9303C7.32217 20.8805 7.34757 20.8393 7.38673 20.8065C7.40895 20.8012 7.42853 20.7848 7.44546 20.7573C7.46769 20.752 7.47616 20.7382 7.47087 20.716C7.54918 20.6504 7.63278 20.607 7.72167 20.5859C7.7439 20.5806 7.80474 20.5896 7.90421 20.6129C8.00367 20.6362 8.06187 20.6341 8.07881 20.6066C8.09574 20.5791 8.09363 20.5209 8.07248 20.432C8.05662 20.3653 8.0434 20.3097 8.03282 20.2653C8.01803 20.1045 8.08155 19.878 8.22339 19.586C8.25197 19.5087 8.3086 19.4013 8.39327 19.2638C8.72031 18.7633 8.84364 18.3935 8.76325 18.1543C8.69023 18.2422 8.61084 18.4019 8.5251 18.6337C8.47958 18.7384 8.451 18.8157 8.43935 18.8654C8.42242 18.8929 8.39966 18.9453 8.37108 19.0225C8.17737 19.4913 8.01542 19.8468 7.88523 20.0891C7.83443 20.1716 7.75293 20.2732 7.64075 20.3938C7.47247 20.5747 7.36558 20.7176 7.32006 20.8223C7.21738 21.0816 7.15386 21.308 7.1295 21.5017C7.17287 21.5853 7.2718 21.6556 7.42629 21.7128ZM33.7026 28.5274C33.5048 27.8935 33.3345 27.2765 33.1917 26.6765C33.2645 28.5612 33.4644 29.4998 33.7913 29.4924C33.7279 29.2258 33.6983 28.9041 33.7026 28.5274ZM6.43461 19.0254C6.45155 18.9979 6.46584 18.9593 6.47748 18.9096C6.49549 18.7879 6.56112 18.6196 6.67437 18.4048C6.64686 18.3879 6.60824 18.3736 6.55851 18.362C6.40931 18.327 6.31831 18.29 6.28551 18.2508C6.22835 18.4053 6.12303 18.6534 5.96955 18.9952C5.65201 19.6343 5.49109 20.1422 5.48681 20.5189C5.53761 20.4364 5.60589 20.2793 5.69163 20.0475C5.90864 19.4793 6.1563 19.1386 6.43461 19.0254ZM22.9078 15.2817C22.5141 15.305 22.1258 15.3504 21.7427 15.4181C21.6316 15.4445 21.4813 15.5037 21.2919 15.5958C21.1469 15.6772 21.0411 15.7259 20.9744 15.7418C20.8686 15.7904 20.7019 15.8301 20.4744 15.8607C20.3136 15.8755 20.1887 15.8935 20.0998 15.9147C19.9887 15.9411 19.8189 16.0167 19.5903 16.1416C19.4231 16.2283 19.295 16.2823 19.2061 16.3034C19.2802 16.6145 19.4817 16.6722 19.8109 16.4765C19.8331 16.4712 19.8749 16.4495 19.9363 16.4115C20.1754 16.3311 20.3453 16.2554 20.4458 16.1845C20.5072 16.1465 20.5659 16.0973 20.622 16.037C20.6665 16.0264 20.6972 16.0073 20.7141 15.9798C21.0601 15.7566 21.4274 15.6223 21.8157 15.5768C21.8824 15.5609 21.985 15.5483 22.1236 15.5388C22.24 15.5345 22.3205 15.5271 22.3649 15.5166C22.4813 15.5123 22.6623 15.4341 22.9078 15.2817ZM32.7647 26.9543L32.3314 27.0574C32.4994 28.3558 32.585 29.6034 32.588 30.8002C32.8589 30.8531 32.9716 30.6854 32.9262 30.2971L32.7866 29.4145C32.7242 29.0537 32.72 28.6907 32.774 28.3257C32.8281 27.9606 32.825 27.5035 32.7647 26.9543ZM34.8029 26.0466C34.7236 25.7133 34.594 25.4154 34.4141 25.1529C34.4236 25.2916 34.4268 25.5021 34.4236 25.7847C34.4002 26.3772 34.4229 26.818 34.4916 27.1069C34.5181 27.218 34.5604 27.3958 34.6185 27.6402C34.7455 28.1735 34.7962 28.5841 34.7708 28.872C34.775 28.9884 34.7538 29.146 34.7072 29.3449C34.6775 29.5164 34.6622 29.6492 34.6611 29.7433C34.6875 30.3476 34.7552 30.7306 34.8641 30.8926C35.0133 30.9275 35.1662 30.8794 35.3229 30.7482C35.3515 30.6709 35.3425 30.4852 35.296 30.191C35.2917 30.0746 35.2843 29.9942 35.2738 29.9498C35.2632 29.9053 35.2611 29.8471 35.2674 29.7752C35.2781 29.3265 35.2511 29.0159 35.1866 28.8434C35.1813 28.8212 35.1649 28.8016 35.1374 28.7847C35.0443 28.6895 34.9951 28.6307 34.9898 28.6085C34.8809 28.4466 34.8248 28.2603 34.8217 28.0498C34.6154 27.1831 34.6092 26.5154 34.8029 26.0466ZM22.1553 16.4118C21.5997 16.544 21.0383 16.701 20.4711 16.8829C20.4489 16.8882 20.3933 16.9015 20.3044 16.9226C19.7817 17.094 19.5277 17.2601 19.5425 17.4209C19.5298 17.5648 19.607 17.84 19.7741 18.2463C19.8503 18.3691 19.8963 18.4638 19.9122 18.5305C19.9333 18.6193 19.9735 18.7389 20.0328 18.8892C20.0698 19.0448 20.0962 19.1559 20.1121 19.2225C20.1427 19.45 20.2744 19.8061 20.5072 20.2908C20.577 20.4855 20.6336 20.6247 20.6769 20.7083L21.5385 23.1449C21.5977 23.2951 21.6866 23.5205 21.8051 23.8211C22.0103 24.2888 22.142 24.6449 22.2001 24.8894C22.2446 24.8788 22.3224 24.8603 22.4335 24.8338C22.7943 24.7715 23.0139 24.7075 23.0922 24.6419C23.1705 24.5763 23.2002 24.4049 23.1812 24.1276C23.1706 24.0832 23.1627 24.0498 23.1574 24.0276C23.1595 23.8393 23.1654 23.5678 23.175 23.2133C23.2015 22.3382 23.1757 21.6869 23.0974 21.2594C23.0456 20.943 23.0595 20.4584 23.1389 19.8055C23.176 19.4679 23.2009 19.2272 23.2136 19.0833C23.2613 18.2971 23.2545 17.6764 23.1932 17.2214C23.1879 17.1992 23.1832 17.1299 23.179 17.0135C23.2055 16.6315 23.1748 16.404 23.087 16.3309C22.9992 16.2579 22.6886 16.2848 22.1553 16.4118ZM12.7491 16.2549C12.7386 16.2105 12.7227 16.1438 12.7016 16.0549C12.5894 15.6824 12.5763 15.3803 12.662 15.1486C12.8896 14.6248 13.2018 14.4566 13.5986 14.644C13.6155 14.6164 13.6218 14.5445 13.6176 14.4281C13.624 14.3561 13.6245 14.3091 13.6192 14.2868L13.6637 14.0297C13.6584 14.0075 13.6844 13.9191 13.7415 13.7646C13.8611 13.971 13.9912 13.9752 14.132 13.7774C14.1712 13.7446 14.1992 13.7144 14.2161 13.6869C14.2384 13.6816 14.2579 13.6652 14.2749 13.6377C14.4484 13.479 14.5527 13.3251 14.5876 13.1759C14.6479 13.232 14.776 13.178 14.9718 13.014C15.0109 12.9812 15.0416 12.9622 15.0638 12.9569C15.1083 12.9463 15.1723 12.9193 15.2559 12.876C15.3226 12.8601 15.367 12.8495 15.3892 12.8442C15.5067 12.7458 15.5813 12.7633 15.613 12.8967C15.6236 12.9411 15.6374 12.9496 15.6543 12.9221C15.6987 12.9115 15.7437 12.8538 15.7892 12.7491C15.857 12.639 15.9295 12.5983 16.0067 12.6269C16.0342 12.6438 16.1056 12.6973 16.221 12.7872C16.3363 12.8772 16.3702 12.8222 16.3226 12.6222C16.3776 12.656 16.4353 12.701 16.4956 12.7571C16.577 12.9021 16.677 12.8783 16.7956 12.6857C16.8347 12.6529 16.866 12.5868 16.8893 12.4873C16.9073 12.3656 16.9247 12.291 16.9417 12.2635C16.9639 12.2582 17.0083 12.2477 17.075 12.2318C17.1417 12.2159 17.1835 12.1942 17.2004 12.1667C17.2057 12.1889 17.1999 12.2138 17.1829 12.2413C17.2104 12.2583 17.2353 12.2641 17.2575 12.2588L17.3083 12.1763C17.3189 12.2207 17.3353 12.2403 17.3575 12.235C17.3745 12.2075 17.3914 12.18 17.4083 12.1525C17.403 12.1303 17.4194 12.1498 17.4575 12.2112C17.5284 12.3117 17.5723 12.3483 17.5893 12.3207C17.6696 12.5599 17.7643 12.7604 17.8733 12.9224C17.9114 12.9837 17.9574 13.0785 18.0114 13.2065C18.0759 13.379 18.1409 13.5044 18.2065 13.5827C18.251 13.5721 18.3124 13.534 18.3907 13.4684C18.4912 13.3976 18.5722 13.3431 18.6335 13.305C18.678 13.2944 18.7642 13.2622 18.8923 13.2082C19.0478 13.1712 19.1674 13.131 19.251 13.0876C19.9749 12.7745 20.695 12.5444 21.4114 12.3975C22.7447 12.0802 23.9188 12.1296 24.9335 12.5456C25.744 12.8927 26.3429 13.3373 26.7301 13.8791C26.9639 14.2696 27.1459 14.8368 27.2759 15.5807C27.4091 16.5352 27.5121 17.9548 27.5848 19.8394C27.6239 20.7928 27.6491 21.7378 27.6606 22.6743L27.6462 23.9457C27.6049 24.1668 27.6033 24.3081 27.6414 24.3695C27.6689 24.3864 27.7435 24.4039 27.8652 24.4219C27.8927 24.4388 27.9175 24.4446 27.9398 24.4394C27.8064 24.4711 27.9445 24.7552 28.3539 25.2918C28.3867 25.3309 28.4058 25.3616 28.4111 25.3839C28.4163 25.4061 28.4354 25.4368 28.4682 25.4759C28.4788 25.5204 28.4867 25.5537 28.492 25.5759L28.6062 25.7601C28.5671 25.7929 28.5501 25.8204 28.5554 25.8426C28.566 25.887 28.6041 25.9484 28.6697 26.0267C28.7078 26.0881 28.7295 26.1299 28.7347 26.1521C28.74 26.1744 28.7316 26.1881 28.7093 26.1934C28.6363 26.2812 28.6443 26.3146 28.7331 26.2934C28.621 26.414 28.6416 26.55 28.795 26.7013C28.8278 26.7405 28.8855 26.7855 28.968 26.8363C29.023 26.8701 29.0532 26.8982 29.0584 26.9204C29.0637 26.9426 29.0579 26.9675 29.041 26.995C29.0293 27.0447 29.0484 27.0754 29.0981 27.0871C28.7457 27.3823 28.2695 27.6012 27.6695 27.744C27.4864 27.7641 27.1975 27.8328 26.8028 27.9502C26.625 27.9925 26.4917 28.0243 26.4028 28.0454C26.3139 28.0666 26.189 28.0845 26.0282 28.0993C25.7785 28.1353 25.5896 28.1802 25.4615 28.2342C25.2393 28.2871 24.9197 28.3748 24.5028 28.4975C24.1028 28.5927 23.8028 28.6641 23.6028 28.7117C23.6239 28.8006 23.6779 28.9286 23.7646 29.0958C23.8291 29.2683 23.872 29.399 23.8931 29.4879C24.092 30.0276 24.1655 30.3858 24.1136 30.5625C24.0787 30.7117 23.9586 30.799 23.7533 30.8244C23.6591 30.8233 23.5898 30.8281 23.5453 30.8386L23.5041 30.8132C23.4713 30.7741 23.4464 30.7682 23.4295 30.7958C23.385 30.8063 23.357 30.8365 23.3453 30.8862C23.3284 30.9137 23.3088 30.9301 23.2866 30.9354C23.203 30.9788 23.067 30.9994 22.8787 30.9973C22.757 30.9793 22.6739 30.9755 22.6295 30.9861C22.5628 31.002 22.4792 31.0454 22.3787 31.1162C22.2612 31.2146 22.1554 31.2633 22.0612 31.2622C22.0167 31.2728 21.9696 31.2723 21.9199 31.2606C21.8977 31.2659 21.8755 31.2712 21.8532 31.2765L21.877 31.3765C21.8051 31.3701 21.7358 31.3749 21.6691 31.3907C21.6024 31.4066 21.4612 31.405 21.2453 31.3859C21.0464 31.3393 20.8659 31.3705 20.704 31.4795C20.6596 31.4901 20.6289 31.5091 20.612 31.5366C20.5675 31.5472 20.5231 31.5578 20.4786 31.5684C20.4511 31.5514 20.4151 31.5482 20.3707 31.5588C20.2321 31.5683 20.0792 31.6164 19.912 31.7032C19.8061 31.7519 19.731 31.7815 19.6866 31.792C19.3638 31.9158 19.0511 31.638 18.7486 30.9586C18.6841 30.7861 18.6328 30.6692 18.5947 30.6078C18.2847 30.0945 17.933 29.3564 17.5394 28.3934C16.7863 26.4124 15.994 24.4642 15.1625 22.5488L13.7725 19.0756C13.7239 18.9698 13.6456 18.7888 13.5377 18.5328C13.0722 17.5634 12.8094 16.8041 12.7491 16.2549ZM32.757 2.05479C32.7729 2.12145 32.7607 2.21828 32.7205 2.34525C32.7025 2.46694 32.6987 2.55 32.7093 2.59445C32.7199 2.63889 32.7527 2.67805 32.8077 2.71192C32.8574 2.72357 32.885 2.74051 32.8902 2.76273C32.9336 2.84633 32.8876 2.99817 32.7521 3.21825C32.7796 3.23519 32.8071 3.25212 32.8346 3.26906C32.8568 3.26377 32.851 3.28864 32.8171 3.34366C32.8447 3.36059 32.8748 3.38864 32.9076 3.42779C33.0229 3.51775 33.0996 3.59342 33.1377 3.6548C33.0266 3.68124 32.9869 3.76113 33.0187 3.89447C33.0462 3.9114 33.0933 3.91193 33.1599 3.89607C33.017 4.28229 32.991 4.6172 33.082 4.9008C33.1582 5.02356 33.1814 5.17065 33.1518 5.34207C33.1507 5.43625 33.1772 5.54736 33.2311 5.67541C33.2851 5.80345 33.3089 5.90346 33.3025 5.97541C33.2887 6.2135 33.0596 6.38542 32.6151 6.49118C32.4374 6.53348 32.3178 6.57368 32.2564 6.61177L31.7469 6.83867C31.7246 6.84396 31.6913 6.85189 31.6469 6.86247C31.3971 6.89841 31.2468 6.95765 31.196 7.04018C31.2288 7.07934 31.2669 7.14072 31.3103 7.22432C31.9652 8.10164 32.4143 8.80486 32.6576 9.33398C32.7063 9.43981 32.7819 9.60965 32.8845 9.84352C33.1067 10.2838 33.2579 10.6235 33.3383 10.8626C33.4304 11.052 33.5351 11.3441 33.6525 11.7388C33.7212 12.0277 33.7826 12.2362 33.8365 12.3642C33.8799 12.4478 33.9534 12.5595 34.0571 12.6992C34.1555 12.8167 34.2264 12.9172 34.2698 13.0008C34.3607 13.2844 34.4829 13.7484 34.6362 14.3929C34.6838 14.5929 34.7208 14.7484 34.7473 14.8595C35.1016 16.3485 35.3643 17.8474 35.5355 19.3564C35.6846 20.3775 35.8225 21.8945 35.9492 23.9071C36.0358 25.0606 36.1008 25.9256 36.1441 26.5023C36.3618 28.3055 36.4542 29.6806 36.4213 30.6277C36.4349 31.3758 36.3782 31.9763 36.2512 32.4292C36.2279 32.5287 36.1877 32.6557 36.1305 32.8101C36.0342 32.9974 35.9881 33.1493 35.9924 33.2657C35.8136 32.909 35.5956 32.8318 35.3384 33.0338C35.3162 33.0391 35.2882 33.0693 35.2543 33.1243C35.1643 33.2396 35.0971 33.3026 35.0527 33.3132C35.0357 33.3407 34.9887 33.3401 34.9114 33.3116C34.8839 33.2946 34.8564 33.2777 34.8289 33.2607C34.8067 33.266 34.7818 33.2602 34.7543 33.2433C34.677 33.2147 34.6358 33.1893 34.6305 33.1671C34.5977 33.1279 34.5681 33.0528 34.5416 32.9417C34.5099 32.8083 34.4665 32.7247 34.4115 32.6909C34.1967 32.5776 34.1332 32.8041 34.2209 33.3702C34.1014 33.1638 33.975 33.0765 33.8416 33.1082C33.7083 33.14 33.5988 33.2717 33.513 33.5034C33.458 33.4696 33.3971 33.4605 33.3305 33.4764C33.3083 33.4817 33.2723 33.4785 33.2225 33.4669C33.1675 33.433 33.1289 33.4187 33.1067 33.424C33.0569 33.4124 32.9681 33.4335 32.84 33.4875C32.8125 33.4705 32.7797 33.4314 32.7416 33.37C32.7035 33.3086 32.6818 33.2668 32.6766 33.2446C32.5834 33.1493 32.484 33.126 32.3782 33.1747C32.3337 33.1853 32.2893 33.1959 32.2448 33.2064C32.2226 33.2117 32.1919 33.2308 32.1528 33.2636C32.1041 33.1577 32.0385 33.0794 31.956 33.0286C31.8957 32.9725 31.8295 32.9413 31.7576 32.9349C31.6856 32.9286 31.6269 32.9778 31.5814 33.0825C31.5866 33.1048 31.5782 33.1185 31.556 33.1238C31.5337 33.1291 31.4591 33.1116 31.3322 33.0714C31.2771 33.0375 31.2385 33.0232 31.2163 33.0285C31.1888 33.0116 31.1613 32.9946 31.1338 32.9777C31.0015 32.9153 30.9163 32.8533 30.8782 32.792C30.747 32.6353 30.6175 32.3374 30.4895 31.8983C30.4525 31.7427 30.4234 31.6205 30.4022 31.5316C30.3758 31.4205 30.325 31.2565 30.2499 31.0395C30.1378 30.667 30.0744 30.4004 30.0596 30.2395C30.0416 29.8681 29.9903 29.5046 29.9057 29.1491C29.7947 28.6824 29.698 27.9305 29.6156 26.8935C29.5987 26.4279 29.575 26.0814 29.5443 25.8538C29.2029 22.7417 28.8218 20.2025 28.4009 18.2364C28.1228 16.8702 27.7759 15.7083 27.3601 14.7506C27.2364 14.4278 27.0174 13.9516 26.7032 13.322C26.4535 12.8648 26.2774 12.5193 26.1748 12.2854C26.1261 12.1796 26.0558 12.032 25.9638 11.8425C25.4158 10.8224 25.173 9.99961 25.2355 9.37424L25.2276 9.3409C25.18 9.1409 25.2589 9.02822 25.4642 9.00285C25.6694 8.97748 25.9128 9.01349 26.1943 9.11088C26.244 9.12253 26.2964 9.14529 26.3514 9.17916C26.4837 9.24161 26.5863 9.22892 26.6593 9.1411C26.7768 9.04271 26.788 8.79351 26.6928 8.3935C26.0758 8.56378 25.1642 8.82768 23.9578 9.18517C22.7292 9.54796 21.8038 9.80339 21.1816 9.95145C20.9149 10.0149 20.5287 10.1185 20.0228 10.2624C18.9445 10.5659 18.1164 10.7865 17.5387 10.9239C17.4498 10.9451 17.3164 10.9768 17.1387 11.0191C16.7884 11.126 16.5217 11.1894 16.3386 11.2095C16.2275 11.2359 16.1027 11.2539 15.964 11.2634C15.8974 11.2793 15.7974 11.3031 15.664 11.3348C15.5529 11.3612 15.4614 11.3713 15.3894 11.3649C15.0953 11.4114 14.7439 11.3659 14.3355 11.2283C14.1313 11.1595 14.0498 11.0145 14.0911 10.7933C14.0753 10.7266 14.0901 10.6409 14.1356 10.5362C14.1642 10.4589 14.1288 10.4087 14.0293 10.3854C13.9573 10.379 13.852 10.3806 13.7134 10.3901C13.5251 10.388 13.3923 10.3726 13.315 10.344C13.3044 10.2996 13.3298 10.2583 13.3912 10.2202C13.4748 10.1768 13.514 10.144 13.5087 10.1218C13.3934 10.0319 13.3331 9.97577 13.3278 9.95354C13.3003 9.93661 13.2675 9.89746 13.2294 9.83608C13.0707 9.66251 12.922 9.58048 12.7834 9.58999C12.8173 9.53497 12.785 9.44872 12.6866 9.33125C12.6591 9.31432 12.6427 9.29473 12.6374 9.27251C12.6416 9.38891 12.6204 9.54658 12.5738 9.74551C12.5431 10.0111 12.5325 10.2132 12.542 10.3518C12.5526 10.3963 12.56 10.4767 12.5642 10.5931C12.5959 10.7264 12.6113 10.8402 12.6102 10.9344C12.5826 11.4106 12.5079 11.8862 12.3862 12.3613C12.1935 13.229 11.8245 14.4908 11.2793 16.1468C11.1184 16.6547 10.7998 17.388 10.3235 18.3466C9.88636 19.2725 9.58204 19.9671 9.41055 20.4306C9.44442 20.3755 9.51373 20.3708 9.61848 20.4163C9.69572 20.4449 9.75657 20.4539 9.80101 20.4433C9.82852 20.4603 9.8481 20.4439 9.85975 20.3941C9.88197 20.3888 9.90155 20.3724 9.91849 20.3449C10.0127 20.346 10.1677 20.3561 10.3836 20.3751C10.5327 20.4101 10.6433 20.4307 10.7153 20.4371C10.837 20.4551 10.9729 20.4345 11.1232 20.3752C11.1899 20.3594 11.2343 20.3488 11.2566 20.3435C11.3285 20.3499 11.4142 20.3647 11.5137 20.388C11.6131 20.4113 11.6851 20.4176 11.7295 20.4071C11.8015 20.4134 11.9153 20.3981 12.0708 20.3611C12.1989 20.3071 12.2989 20.2833 12.3708 20.2897C12.537 20.2971 12.666 20.3956 12.7581 20.585C12.8014 20.6686 12.8252 20.7686 12.8295 20.885C12.84 20.9294 12.8506 20.9739 12.8612 21.0183C12.8601 21.1125 12.903 21.2432 12.9897 21.4104C13.0278 21.4718 13.0521 21.5247 13.0627 21.5691L13.2055 22.1691C13.3504 22.5808 13.5148 23.2226 13.6988 24.0946C13.7676 24.3835 13.8178 24.5946 13.8495 24.7279C14.2345 26.4443 14.6697 28.1253 15.1552 29.7708C15.4006 30.6047 15.6766 31.4195 15.9834 32.2153C16.0532 32.4101 16.122 32.6989 16.1896 33.082C16.2319 33.2598 16.2637 33.3931 16.2848 33.482C16.306 33.5709 16.3377 33.7042 16.38 33.882C16.5038 34.2048 16.5646 34.4603 16.5624 34.6487C16.5433 34.8646 16.5518 35.0974 16.5877 35.3471C16.5485 35.873 16.3977 36.2259 16.1352 36.4057C16.096 36.4385 15.9209 36.492 15.6098 36.566C15.5653 36.5766 15.5241 36.5512 15.486 36.4898C15.4532 36.4506 15.4172 36.4474 15.3781 36.4802C15.3273 36.5628 15.3024 36.8035 15.3034 37.2024L15.2034 37.2262C15.1399 36.9596 14.9373 36.996 14.5954 37.3357C14.5838 37.3854 14.5668 37.4129 14.5446 37.4182C14.2705 37.6478 14.0388 37.8086 13.8493 37.9006L13.516 37.98C13.3827 38.0117 13.2689 38.027 13.1747 38.0259C13.1525 38.0312 13.1276 38.0254 13.1001 38.0085C13.0726 37.9915 13.0366 37.9884 12.9922 37.9989C12.9477 38.0095 12.9112 38.0534 12.8827 38.1307C12.8763 38.2026 12.8149 38.2407 12.6985 38.2449C12.671 38.228 12.6297 38.2026 12.5747 38.1687C12.5038 38.0682 12.4372 38.084 12.3747 38.2163C12.3472 38.1994 12.3171 38.1713 12.2843 38.1322C12.2197 37.9597 12.1144 37.9613 11.9684 38.1369C11.9292 38.1697 11.8843 38.2274 11.8334 38.3099C11.7435 38.4252 11.6678 38.5019 11.6064 38.54C11.5842 38.5453 11.5509 38.5532 11.5064 38.5638C11.3181 38.5617 11.2292 38.5828 11.2398 38.6273C11.2123 38.6103 11.1932 38.5796 11.1826 38.5352C11.1393 38.4516 11.1006 38.4373 11.0668 38.4923C10.7176 38.0119 10.4442 37.2081 10.2465 36.0811C10.1936 35.8589 10.1603 35.6203 10.1466 35.3653C10.1477 35.2711 10.1133 35.1266 10.0435 34.9319C9.99481 34.8261 9.96255 34.7399 9.94668 34.6732C9.65792 33.7557 9.45541 32.806 9.33915 31.824C9.28205 31.4853 9.15779 30.9631 8.96635 30.2573C8.88175 29.9017 8.8183 29.635 8.77599 29.4573C8.52532 28.6012 8.33021 27.7319 8.19065 26.8493L7.93532 25.1842C7.91417 25.0953 7.89356 24.9594 7.87348 24.7763C7.81638 24.4377 7.77779 24.1768 7.75771 23.9938C7.7387 23.7165 7.71334 23.5112 7.68161 23.3779C7.66153 23.1948 7.62344 23.1334 7.56735 23.1937C7.51762 23.1821 7.45942 23.1842 7.39275 23.2001C7.34831 23.2106 7.31497 23.2186 7.29275 23.2239C7.2208 23.2175 7.18217 23.2032 7.17689 23.181C7.1716 23.1588 7.14144 23.1307 7.08642 23.0969C7.02083 23.0185 6.9383 22.9677 6.83883 22.9444C6.7891 22.9328 6.70603 22.9291 6.58963 22.9333C6.45101 22.9428 6.35419 22.9306 6.29917 22.8968C6.21663 22.846 6.15422 22.7317 6.11192 22.5539C6.10663 22.5317 6.10134 22.5094 6.09605 22.4872C6.09076 22.465 6.08019 22.4205 6.06432 22.3539C6.0654 22.2597 6.01884 22.2121 5.92466 22.211C5.79662 22.265 5.71512 22.3665 5.68018 22.5157C5.63259 22.3157 5.49504 22.231 5.26753 22.2617C5.15113 22.2659 5.06806 22.2622 5.01833 22.2506C4.74215 22.1754 4.55541 22.032 4.45808 21.8203C4.43057 21.8034 4.41153 21.7727 4.40095 21.7283C4.35758 21.6447 4.29727 21.5886 4.22003 21.56C4.1703 21.5483 4.12056 21.5367 4.07083 21.525C4.05389 21.5526 4.02638 21.5356 3.9883 21.4742C3.9555 21.4351 3.93381 21.3933 3.92324 21.3488C3.90209 21.26 3.85289 21.2012 3.77564 21.1726C3.74813 21.1557 3.70105 21.1552 3.63438 21.171C3.56242 21.1647 3.49894 21.1446 3.44392 21.1107C3.04712 20.9233 2.94773 20.4069 3.14572 19.5615C3.16266 19.534 3.16848 19.5091 3.16319 19.4869C3.17484 19.4371 3.1812 19.3652 3.18227 19.271C3.18863 19.1991 3.19763 19.1382 3.20928 19.0885C3.22092 19.0387 3.23521 19.0001 3.25215 18.9726C3.2913 18.9398 3.31671 18.8985 3.32835 18.8488C3.34 18.7991 3.37123 18.733 3.42203 18.6504C3.47919 18.4959 3.51095 18.3827 3.51731 18.3108C3.62635 17.9796 3.84018 17.4473 4.15879 16.7141C4.31756 16.3945 4.42552 16.1575 4.48269 16.003C4.51127 15.9258 4.55414 15.8099 4.6113 15.6554C5.0506 14.5412 5.32637 13.6772 5.43862 13.0635C5.66627 12.0466 5.7971 11.0176 5.8311 9.97633C5.85018 9.76047 5.84282 9.43349 5.80901 8.9954C5.78264 8.39117 5.79064 7.93139 5.83301 7.61606C5.89131 6.87429 6.08238 6.39443 6.40621 6.17649C6.56813 6.06752 6.82262 6.10089 7.16967 6.27659C7.60455 6.52532 7.90773 6.41796 8.07922 5.9545C8.22735 6.08362 8.39348 6.09105 8.57762 5.97679C8.76176 5.86253 8.91732 5.82552 9.04429 5.86574C9.0718 5.88268 9.10196 5.91073 9.13476 5.94989C9.19507 6.00598 9.2612 6.0372 9.33315 6.04356C9.38289 6.05521 9.46067 6.0367 9.56649 5.98804C9.58342 5.96053 9.603 5.94413 9.62522 5.93884C9.64745 5.93355 9.67814 5.91451 9.7173 5.88171C9.75645 5.84891 9.82047 5.82194 9.90936 5.80079C10.3538 5.69503 10.6617 5.65698 10.8332 5.68663C10.8829 5.69828 10.9464 5.71839 11.0236 5.74697C11.1284 5.79249 11.2167 5.81843 11.2887 5.82479C11.5426 5.90524 11.7681 5.81638 11.9649 5.55821C11.9702 5.58044 11.9919 5.62224 12.03 5.68362C12.2966 6.11328 12.4642 6.47255 12.533 6.76144C12.7108 6.71914 12.9859 6.64193 13.3584 6.52981C13.7034 6.40076 13.9648 6.31509 14.1425 6.27278C14.515 6.16067 14.8791 6.06231 15.2346 5.9777C15.3235 5.95655 15.4595 5.93593 15.6426 5.91585C15.8754 5.90742 16.0447 5.87887 16.1505 5.83021C16.2172 5.81435 16.3034 5.78208 16.4092 5.73342C16.5817 5.6689 16.7151 5.63717 16.8092 5.63824C17.0092 5.59065 17.2981 5.52191 17.6759 5.43201C18.7595 5.15069 19.5955 4.96351 20.1839 4.87047C20.6336 4.78693 21.3225 4.62301 22.2506 4.3787C22.7786 4.22957 23.176 4.12327 23.4426 4.05982C24.3093 3.85359 24.976 3.69495 25.4427 3.58391C25.9538 3.46229 26.4342 3.35971 26.884 3.27618C27.0617 3.23388 27.3395 3.16778 27.7173 3.07789C28.4337 2.9309 28.9782 2.80134 29.3506 2.68923C30.0173 2.53059 30.6676 2.35238 31.3015 2.15459C31.3459 2.14401 31.4348 2.12286 31.5681 2.09113C32.1967 1.87112 32.593 1.859 32.757 2.05479Z" fill="black"/>
</svg>
