<svg width="31" height="30" viewBox="0 0 31 30" fill="none" xmlns="http://www.w3.org/2000/svg">
<path d="M24.15 22.5855C24.057 22.633 23.9382 22.6759 23.7936 22.7144C23.6818 22.748 23.5699 22.7815 23.458 22.8151C23.3701 22.8952 23.32 23.003 23.3077 23.1386C23.2954 23.2742 23.2642 23.3959 23.2141 23.5038C23.1124 23.6027 22.985 23.6971 22.8317 23.7871C22.7111 23.8721 22.5974 23.9477 22.4907 24.0139C22.3185 24.09 22.1343 24.1428 21.9382 24.1723C21.7609 24.2157 21.5913 24.3081 21.4293 24.4496C21.4017 24.4871 21.3654 24.5762 21.3204 24.7167C21.3117 24.7682 21.303 24.8196 21.2943 24.8711C21.3045 24.9364 21.3053 24.9948 21.2966 25.0463C21.2189 25.1917 21.1009 25.2931 20.9425 25.3504C20.8168 25.4027 20.722 25.4922 20.6581 25.6189C20.5172 25.5732 20.4372 25.5434 20.4183 25.5296C20.2141 25.2929 19.9822 25.0937 19.7228 24.9322C19.4772 24.7519 19.2504 24.5854 19.0426 24.4328C18.8398 24.3129 18.6592 24.2816 18.5009 24.3388C18.3614 24.41 18.2186 24.4064 18.0726 24.3281C18.0486 24.2816 18.0289 24.2093 18.0136 24.1113C17.9902 23.747 17.8713 23.4139 17.6569 23.1118C17.5951 23.0375 17.5333 22.9633 17.4715 22.889C17.4286 22.8286 17.3952 22.7751 17.3712 22.7286C17.2185 22.5008 17.1974 22.3117 17.3078 22.1614C17.4305 21.8754 17.6356 21.6356 17.9233 21.4418C18.0576 21.338 18.1946 21.2505 18.3341 21.1793C18.4924 21.1221 18.6482 21.0485 18.8015 20.9585C18.8153 20.9397 18.836 20.9115 18.8636 20.8739C18.9239 20.8314 18.9773 20.7983 19.0238 20.7746C19.3288 20.4779 19.5772 20.1396 19.7688 19.7597C19.9605 19.3798 20.1453 19.0092 20.3232 18.6481C20.4147 18.4839 20.464 18.3176 20.4712 18.1494C20.5111 17.9762 20.5416 17.7961 20.5626 17.609C20.5887 17.4547 20.6148 17.3003 20.6409 17.1459C20.6859 17.0054 20.7661 16.8763 20.8816 16.7586C20.8183 16.5675 20.7129 16.3744 20.5653 16.1793C20.6154 16.0715 20.6629 15.9473 20.7079 15.8068C20.7529 15.6663 20.7816 15.5282 20.7939 15.3926C20.7015 15.1223 20.603 14.9199 20.4983 14.7852C20.2752 14.5346 20.0586 14.4334 19.8486 14.4818C19.7746 14.5431 19.7074 14.595 19.6471 14.6375C19.6057 14.6939 19.5574 14.7597 19.5022 14.8348C19.447 14.91 19.3824 14.9783 19.3083 15.0396C19.2531 15.1148 19.179 15.1761 19.086 15.2235C18.8536 15.3421 18.6331 15.4839 18.4247 15.6491C18.2351 15.8281 18.055 16.014 17.8843 16.2069C17.8015 16.3196 17.7093 16.4254 17.6076 16.5243C17.5059 16.6232 17.4017 16.7058 17.2949 16.772C17.2913 16.8562 17.2782 16.9334 17.2557 17.0036C17.2332 17.0739 17.2108 17.1441 17.1883 17.2144C17.1571 17.3361 17.083 17.3974 16.966 17.3983C16.849 17.3992 16.7578 17.4046 16.6924 17.4144C16.5341 17.4717 16.423 17.5637 16.3591 17.6903C16.3141 17.8308 16.2313 17.9436 16.1107 18.0286C15.9988 18.0622 15.9015 18.1353 15.8187 18.2481C15.7497 18.3421 15.6713 18.4291 15.5834 18.5092C15.4454 18.6971 15.2697 18.8574 15.0561 18.9898C14.8614 19.1361 14.6548 19.2592 14.4361 19.359C14.2291 19.6409 13.9749 19.8881 13.6735 20.1007C13.3909 20.3271 13.0895 20.5397 12.7692 20.7384C12.5919 20.7818 12.4455 20.8623 12.33 20.98C12.2146 21.0977 12.0638 21.204 11.8779 21.2989C11.766 21.3324 11.6516 21.3497 11.5346 21.3506C11.4176 21.3514 11.3032 21.3687 11.1913 21.4022C11.0467 21.4407 10.8953 21.4886 10.7369 21.5459C10.5974 21.617 10.4794 21.7184 10.3828 21.85C10.2637 22.0518 10.089 22.1115 9.85866 22.0292C9.75038 21.9786 9.63265 21.9211 9.50548 21.8567C9.3972 21.8061 9.28894 21.7556 9.18066 21.705C8.73376 21.5215 8.30979 21.4851 7.90877 21.5956C7.65232 21.6676 7.36858 21.6184 7.05755 21.4479C6.93397 21.2994 6.7915 21.1369 6.63014 20.9606C6.50147 20.7794 6.40296 20.5769 6.33458 20.3532C6.32439 20.2878 6.30038 20.2413 6.26259 20.2135C6.25749 20.1809 6.24296 20.1413 6.21896 20.0947C5.96312 19.8491 5.74433 19.5727 5.56258 19.2658C5.38082 18.9588 5.13623 18.678 4.8288 18.4234C4.80331 18.26 4.75457 18.1086 4.68259 17.9689C4.64331 17.8244 4.60402 17.6799 4.56473 17.5353C4.51165 17.4096 4.45855 17.2838 4.40547 17.1581C4.35238 17.0324 4.2924 16.916 4.22552 16.8091C4.19643 16.7299 4.16044 16.66 4.11755 16.5996C4.10736 16.5343 4.09026 16.4784 4.06627 16.4318C3.80743 15.9526 3.72151 15.4556 3.80851 14.941C3.86071 14.6323 3.90347 14.3166 3.93677 13.9939C3.97007 13.6713 3.98013 13.3605 3.96694 13.0616C3.96035 12.9121 3.97519 12.7929 4.01149 12.7038C4.03399 12.6335 4.05903 12.5796 4.08663 12.542C4.12802 12.4857 4.13672 12.4342 4.11273 12.3877C4.13944 11.9156 4.23663 11.4663 4.40431 11.0398C4.58578 10.5946 4.78871 10.1795 5.01307 9.79467C5.04937 9.70562 5.08821 9.63291 5.1296 9.57652C5.18989 9.53401 5.22185 9.47069 5.22545 9.38657C5.27554 9.27872 5.32563 9.17087 5.37572 9.06303C5.43961 8.93639 5.50351 8.80975 5.5674 8.68311C5.71557 8.5605 5.8612 8.42155 6.00427 8.26627C6.16624 8.12486 6.32821 7.98346 6.49019 7.84205C6.63836 7.71944 6.76763 7.58295 6.87801 7.43259C7.02109 7.27731 7.15727 7.13143 7.28655 6.99495C7.38463 6.98018 7.47326 6.95847 7.55244 6.92983C7.63163 6.90119 7.72026 6.87949 7.81834 6.86473C7.85973 6.80834 7.90113 6.75196 7.94252 6.69557C8.00281 6.65306 8.05365 6.60362 8.09505 6.54723C8.24832 6.45728 8.39724 6.39307 8.54181 6.35459C8.70018 6.29731 8.81821 6.19594 8.8959 6.05051C9.02158 5.99815 9.1378 5.93886 9.24459 5.87263C9.37026 5.82028 9.48648 5.76098 9.59326 5.69475C9.67245 5.66611 9.73964 5.6142 9.79483 5.53903C9.86382 5.44505 9.93536 5.36742 10.0094 5.30611C10.4447 5.30745 10.8577 5.22018 11.2485 5.04432C11.3553 4.97809 11.481 4.92573 11.6255 4.88724C11.789 4.86263 11.9499 4.82168 12.1083 4.7644C12.1926 4.76843 12.2932 4.77 12.4102 4.7691C12.5271 4.76821 12.6441 4.76731 12.7611 4.76641C13.0277 4.7597 13.2711 4.76484 13.4913 4.78185C13.5429 4.7908 13.5945 4.79974 13.6461 4.80869C13.7115 4.79885 13.7674 4.78207 13.8139 4.75835C14.2287 4.62902 14.6468 4.57443 15.0682 4.59457C15.4897 4.6147 15.9129 4.59277 16.3379 4.52877C16.4186 4.61693 16.4992 4.70507 16.5799 4.79323C16.6795 4.89525 16.7627 4.99975 16.8296 5.1067C16.9415 5.07313 17.049 5.0653 17.1522 5.0832C17.2881 5.09618 17.4214 5.09282 17.5522 5.07313C17.8719 5.19216 18.0739 5.25368 18.1582 5.25771C18.2613 5.27561 18.3783 5.27471 18.5091 5.25502C18.6189 5.42238 18.7355 5.58035 18.8591 5.72891C18.9827 5.87748 19.0899 6.02851 19.1808 6.18199C19.2651 6.18602 19.3261 6.20191 19.3639 6.22966C19.4155 6.23861 19.4576 6.24061 19.4903 6.23569C19.7243 6.2339 19.9401 6.27663 20.1377 6.36389C20.3354 6.45115 20.5287 6.56413 20.7177 6.70285C20.9117 6.87424 21.1704 6.97738 21.4937 7.01229C21.5933 7.11431 21.686 7.22573 21.7718 7.34656C21.8764 7.48125 22.0156 7.56897 22.1893 7.60968C22.3681 7.68307 22.5167 7.7777 22.6351 7.8936C22.7536 8.0095 22.8652 8.13481 22.9699 8.2695C23.0694 8.37153 23.1698 8.53195 23.2708 8.75077C23.4046 8.96467 23.5264 9.15529 23.6361 9.32265C23.7393 9.34055 23.833 9.35152 23.9173 9.35554C24.0205 9.37344 24.1237 9.39134 24.2269 9.40924C24.3264 9.51127 24.3959 9.63455 24.4352 9.77909C24.4883 9.90484 24.5413 10.0306 24.5944 10.1563C24.6475 10.2821 24.7006 10.4078 24.7537 10.5335C24.8257 10.6732 24.8951 10.7964 24.962 10.9034L25.3588 11.1947C25.5114 11.4225 25.671 11.6408 25.8374 11.8498C26.0228 12.0727 26.1221 12.3336 26.1353 12.6325C26.2624 12.6969 26.3733 12.7638 26.4677 12.8332C26.5949 12.8976 26.7032 12.9482 26.7926 12.9849C26.8886 13.171 26.9424 13.3552 26.9541 13.5373C26.9658 13.7194 26.9844 13.8922 27.0099 14.0555C27.0353 14.2188 27.0514 14.3752 27.058 14.5247C27.0835 14.688 27.109 14.8513 27.1344 15.0147C27.093 15.0711 27.0353 15.1299 26.9612 15.1912C26.9198 15.2476 26.8646 15.3228 26.7956 15.4167C26.816 15.5474 26.827 15.6711 26.8285 15.7879C26.8489 15.9186 26.8624 16.0587 26.869 16.2081C26.8516 16.311 26.8222 16.3907 26.7808 16.4471C26.7409 16.6203 26.6777 16.8053 26.5913 17.0022C26.5376 17.1942 26.4745 17.3792 26.4019 17.5573C26.3206 17.7869 26.2161 18.0283 26.0883 18.2816C25.9932 18.5299 25.8414 18.7367 25.633 18.9018C25.498 19.3233 25.278 19.6824 24.9729 19.9791C24.9621 20.2315 24.9513 20.4839 24.9405 20.7363C24.9435 20.9699 24.888 21.2039 24.774 21.4384C24.6876 21.6353 24.5729 21.8114 24.4298 21.9667C24.3057 22.1358 24.2124 22.3421 24.15 22.5855ZM13.5437 13.8012C13.6213 13.6558 13.6732 13.5059 13.6993 13.3515C13.7581 13.1922 13.8874 13.0557 14.0872 12.942C14.0842 12.7084 14.1164 12.4862 14.1839 12.2755C14.2841 12.0598 14.441 11.8857 14.6546 11.7533C14.7337 11.7246 14.8104 11.6796 14.8845 11.6183C14.9912 11.5521 15.0817 11.4883 15.1558 11.427C15.3039 11.3044 15.3678 11.1778 15.3474 11.0471C15.2841 10.856 15.2234 10.6813 15.1652 10.5229C15.1071 10.3645 15.0325 10.2085 14.9416 10.055C14.9452 9.97091 14.8816 9.93869 14.7509 9.95838C14.6528 9.97315 14.5478 9.99731 14.4359 10.0309C14.3241 10.0644 14.2122 10.098 14.1003 10.1316C13.9833 10.1325 13.8569 10.1264 13.721 10.1134C13.6041 10.1143 13.4871 10.1152 13.3701 10.1161C13.2582 10.1497 13.1395 10.1927 13.0138 10.245C12.9208 10.2924 12.8416 10.3211 12.7762 10.3309C12.6542 10.2992 12.551 10.2813 12.4667 10.2772C12.3962 10.2544 12.3094 10.2341 12.2062 10.2162C12.0202 10.311 11.8437 10.4128 11.6766 10.5216C11.5234 10.6115 11.377 10.6921 11.2375 10.7632C11.0995 10.9512 10.9496 11.1158 10.7876 11.2572C10.6445 11.4125 10.5272 11.5723 10.4358 11.7365L10.2909 11.9339C10.0206 12.0247 9.89391 12.1775 9.9107 12.3923C9.94638 12.621 9.83421 12.8134 9.57415 12.9696C9.3003 13.1445 9.15182 13.426 9.12871 13.814C9.10771 14.001 9.08671 14.1881 9.06571 14.3751C9.0447 14.5622 9.02626 14.7656 9.01035 14.9853C9.00675 15.0694 9.01259 15.1605 9.02789 15.2585C9.04318 15.3565 9.05592 15.4381 9.06611 15.5035C9.20858 15.6659 9.33215 15.8145 9.43683 15.9492C9.5604 16.0977 9.67452 16.2394 9.7792 16.3741C9.99935 16.3911 10.1817 16.3803 10.3263 16.3418C10.4847 16.2846 10.643 16.2273 10.8014 16.17C10.9496 16.0474 11.1003 15.9411 11.2536 15.8512C11.4068 15.7612 11.5481 15.648 11.6774 15.5115C11.7842 15.4453 11.8677 15.3909 11.928 15.3484C12.021 15.301 12.0856 15.2327 12.1219 15.1437C12.2548 14.9231 12.416 14.7233 12.6056 14.5443C12.7952 14.3653 12.9589 14.1818 13.0969 13.9938C13.1899 13.9464 13.276 13.9084 13.3551 13.8797C13.4343 13.8511 13.4972 13.8249 13.5437 13.8012Z" fill="black"/>
</svg>
