<svg width="22" height="29" viewBox="0 0 22 29" fill="none" xmlns="http://www.w3.org/2000/svg">
<path d="M12.9477 5.72729C12.9861 5.98805 12.9267 6.21446 12.7693 6.40652C12.6067 6.64461 12.5262 6.85699 12.5278 7.04366C12.5293 7.23032 12.4574 7.46698 12.312 7.75363C12.3317 7.77917 12.2878 7.86746 12.1803 8.01852C12.0977 8.14907 12.0525 8.24888 12.0448 8.31793C11.7819 8.24167 11.5238 8.2242 11.2703 8.26554C11.0194 8.28387 10.787 8.33924 10.573 8.43166C10.439 8.41655 10.3063 8.38993 10.1748 8.35179C10.0434 8.31366 9.91799 8.32282 9.79852 8.37928C9.65672 8.43322 9.50765 8.45137 9.3513 8.43374C9.19755 8.39308 9.03991 8.38696 8.87837 8.41536C8.74176 8.42327 8.60515 8.43117 8.46854 8.43907C8.31739 8.3754 8.2135 8.29375 8.15688 8.19412C8.10286 8.07147 8.03637 7.95906 7.95742 7.85691L7.99636 7.51163C7.96208 7.41452 7.9226 7.36344 7.87793 7.35841C7.63484 7.30768 7.47173 7.14941 7.38861 6.8836C7.32264 6.66636 7.2803 6.44012 7.2616 6.2049L7.32001 5.68697C7.30806 5.59238 7.27378 5.49527 7.21716 5.39564C7.16313 5.27299 7.12027 5.15159 7.08859 5.03146C7.01742 4.86025 6.96729 4.70307 6.9382 4.55992C6.90911 4.41677 6.85898 4.25959 6.78782 4.08838C6.86002 4.0499 6.89871 4.00765 6.9039 3.96161C6.93143 3.91809 6.95765 3.88608 6.98259 3.86558C6.97323 3.74797 6.97246 3.65463 6.98025 3.58558C7.01297 3.49602 6.98128 3.37589 6.88518 3.22518C6.78129 3.14353 6.71221 3.05415 6.67792 2.95703C6.66597 2.86244 6.65064 2.69753 6.63193 2.4623C6.64231 2.37023 6.66517 2.2679 6.70049 2.15533C6.7384 2.01973 6.80852 1.89943 6.91084 1.79441C7.00538 1.75845 7.09472 1.76853 7.17887 1.82464C7.26561 1.85774 7.35494 1.86781 7.44688 1.85487C7.49415 1.83689 7.52896 1.82917 7.55129 1.83169C7.59596 1.83672 7.63076 1.829 7.65569 1.8085C7.80268 1.70852 7.93591 1.6303 8.05538 1.57384C8.17744 1.49436 8.2995 1.41488 8.42156 1.3354C8.53843 1.30196 8.66517 1.28129 8.80177 1.27338C8.94098 1.24246 9.06772 1.22179 9.18199 1.21136C9.4604 1.14952 9.74867 1.10045 10.0468 1.06414C10.3673 1.03035 10.6779 0.983798 10.9787 0.924473C11.1625 0.898589 11.3287 0.92899 11.4773 1.01568C11.6259 1.10237 11.777 1.16605 11.9308 1.2067C12.0845 1.24735 12.2481 1.30078 12.4216 1.36697C12.5177 1.51768 12.5902 1.67737 12.639 1.84606C12.6904 1.99173 12.6795 2.18865 12.6063 2.43682C12.6235 2.48538 12.638 2.55695 12.65 2.65155C12.6842 2.74866 12.7061 2.85602 12.7154 2.97363C12.7445 3.11679 12.7736 3.25994 12.8027 3.40309C12.8318 3.54624 12.8596 3.7009 12.8861 3.86707C12.8061 3.97461 12.7806 4.09995 12.8097 4.2431C12.8388 4.38625 12.858 4.51663 12.8674 4.63425C12.844 4.84142 12.8357 5.01531 12.8425 5.15594C12.8768 5.25306 12.8999 5.34891 12.9118 5.44351C12.9264 5.51508 12.9383 5.60968 12.9477 5.72729ZM12.3454 28.2133C12.1864 28.2187 12.0176 28.2113 11.8389 28.1912C11.6577 28.194 11.4914 28.1636 11.3403 28.0999C11.0603 27.9751 10.7593 27.8363 10.4373 27.6834C10.1152 27.5305 9.81343 27.2983 9.5319 26.9868C9.44359 26.767 9.31529 26.6011 9.147 26.4888C8.9787 26.3766 8.89038 26.1568 8.88206 25.8295C8.94231 25.6965 8.92777 25.6249 8.83843 25.6148C8.77142 25.6072 8.74182 25.5689 8.7496 25.4999L8.79244 25.1201C8.66103 25.0819 8.63011 25.0551 8.69972 25.0397C8.77192 25.0012 8.73115 24.9616 8.5774 24.921C8.48649 24.7242 8.39947 24.493 8.31636 24.2272C8.17922 23.8387 7.86756 23.5937 7.38137 23.4923C7.29463 23.4592 7.21646 23.4504 7.14686 23.4658C7.09959 23.4838 7.04116 23.5005 6.97156 23.516C6.87703 23.552 6.7799 23.6109 6.68017 23.6929C6.60537 23.7544 6.54045 23.8287 6.48539 23.9157C6.2179 24.2819 5.93067 24.6224 5.6237 24.9375C5.31674 25.2525 5.00848 25.5791 4.69891 25.9172C4.59919 25.9992 4.48829 26.0799 4.36623 26.1594C4.24417 26.2389 4.12211 26.3184 4.00005 26.3978C3.82812 26.5183 3.65022 26.5915 3.46635 26.6174C3.30481 26.6458 3.12872 26.6026 2.93809 26.4879C2.8342 26.4062 2.71396 26.3693 2.57735 26.3772C2.43814 26.4081 2.3179 26.3713 2.21661 26.2666C2.13505 26.1875 2.06597 26.0981 2.00935 25.9985C1.95013 25.9218 1.90209 25.8465 1.86521 25.7724C1.76651 25.6447 1.69612 25.5668 1.65405 25.5388C1.5699 25.4827 1.49692 25.4278 1.43511 25.3742C1.39563 25.3231 1.34369 25.2823 1.27928 25.2517C1.22526 25.1291 1.16007 25.0052 1.08371 24.88C1.02709 24.7804 0.948133 24.6782 0.846842 24.5735C0.748148 24.4458 0.673085 24.3092 0.621657 24.1635C0.567634 24.0408 0.523481 23.931 0.489196 23.8339C0.479842 23.7162 0.488929 23.6357 0.516457 23.5922C0.568916 23.5281 0.610206 23.4629 0.640331 23.3963C0.783162 23.1327 0.954305 22.9189 1.15376 22.7549C1.31373 22.5398 1.46124 22.335 1.59628 22.1404C1.75626 21.9254 1.90377 21.7205 2.03881 21.526C2.12139 21.3954 2.20397 21.2648 2.28656 21.1343C2.36914 21.0037 2.46159 20.8859 2.56391 20.7809C2.92334 20.4019 3.25057 20.0075 3.54559 19.5979C3.86554 19.1677 4.19406 18.7619 4.53115 18.3803C4.661 18.2317 4.79084 18.0832 4.9207 17.9347C5.05055 17.7861 5.20533 17.6171 5.38504 17.4276C5.39024 17.3815 5.39673 17.324 5.40452 17.2549C5.43724 17.1654 5.46995 17.0758 5.50267 16.9863C5.5328 16.9197 5.56293 16.8532 5.59305 16.7866C5.62577 16.6971 5.67953 16.6216 5.75432 16.5601C5.80678 16.496 5.84678 16.4423 5.8743 16.3988C5.92676 16.3347 5.95688 16.2682 5.96467 16.1992C6.03011 16.02 6.10413 15.8652 6.18671 15.7346C6.29423 15.5836 6.40045 15.4441 6.50537 15.316C6.64041 15.1214 6.64741 14.9591 6.52638 14.8288C6.50664 14.8033 6.49807 14.779 6.50067 14.756C6.50326 14.733 6.4934 14.7202 6.47106 14.7177L4.25988 14.4683C3.97991 14.3435 3.7098 14.2314 3.44957 14.1321C3.19193 14.0098 2.94417 13.9003 2.70627 13.8035C2.61693 13.7934 2.53746 13.7961 2.46786 13.8116C2.40085 13.804 2.32267 13.7952 2.23333 13.7851C2.13204 13.6805 2.01699 13.5976 1.88817 13.5364C1.78428 13.4548 1.68169 13.3616 1.5804 13.2569C1.54871 13.1368 1.54534 13.0665 1.57027 13.046C1.62116 12.7953 1.68193 12.5574 1.75256 12.3322C1.84813 12.0866 1.92006 11.8499 1.96836 11.6222C2.05457 11.259 2.03378 10.9419 1.906 10.6711C1.87171 10.574 1.86106 10.4679 1.87404 10.3528C1.96598 10.3398 2.04675 10.3256 2.11635 10.3102C2.20829 10.2972 2.30022 10.2843 2.39216 10.2714C2.55889 10.1969 2.7316 10.1698 2.91028 10.1899C3.09155 10.1871 3.26556 10.1484 3.43229 10.074C3.59643 10.0225 3.75926 9.98263 3.9208 9.95423C4.10727 9.90533 4.28387 9.84366 4.45061 9.76922C4.71447 9.6358 4.99158 9.58546 5.28194 9.61821C5.39881 9.58477 5.50191 9.57309 5.59125 9.58317C5.70552 9.57274 5.83824 9.59937 5.98939 9.66304C6.18262 9.75477 6.37895 9.71864 6.57841 9.55464C6.62567 9.53666 6.66048 9.52893 6.68282 9.53145C6.70775 9.51095 6.74384 9.49171 6.79111 9.47373C6.84097 9.43273 6.8981 9.42752 6.96251 9.45809C7.05185 9.46817 7.13004 9.47699 7.19704 9.48455C7.33105 9.49966 7.43753 9.5583 7.51649 9.66045C7.62038 9.7421 7.72218 9.74193 7.8219 9.65993C7.89929 9.57541 7.96033 9.53567 8.005 9.54071C8.072 9.54827 8.18498 9.54935 8.34392 9.54397C8.4478 9.62562 8.54053 9.70602 8.62208 9.78515C8.72856 9.84378 8.83375 9.91393 8.93763 9.99558C9.04671 10.0312 9.15189 10.1013 9.25318 10.206C9.35448 10.3107 9.46097 10.3693 9.57264 10.3819C9.72899 10.3995 9.87806 10.3814 10.0199 10.3275C10.184 10.276 10.3167 10.3027 10.418 10.4073L11.1886 10.4942C11.2976 10.5299 11.3784 10.5157 11.4309 10.4516C11.5057 10.3901 11.574 10.3862 11.6358 10.4398C11.7267 10.6365 11.9087 10.727 12.182 10.7112C12.3383 10.7288 12.4848 10.7337 12.6214 10.7258C12.7803 10.7204 12.9169 10.7125 13.0312 10.7021C13.252 10.7503 13.3756 10.8575 13.4021 11.0236C13.4535 11.1693 13.5548 11.274 13.706 11.3377C13.8202 11.3272 13.9345 11.3168 14.0488 11.3064C14.1631 11.296 14.2885 11.2868 14.4251 11.2789C14.5487 11.3861 14.6835 11.4945 14.8295 11.6043C14.9754 11.714 15.0965 11.8442 15.1926 11.9949C15.0539 12.4222 14.9724 12.8442 14.948 13.2611C14.9459 13.6805 14.9589 14.0666 14.987 14.4194C14.9387 14.6471 14.8646 14.8019 14.7649 14.8839C14.6652 14.9659 14.5865 15.0619 14.5289 15.172C14.4961 15.2615 14.4411 15.3486 14.3637 15.4331C14.3086 15.5201 14.2523 15.6187 14.1946 15.7287C14.1671 15.7722 14.1146 15.8363 14.0372 15.9208C13.9625 15.9823 13.8778 16.031 13.7833 16.067C13.7308 16.131 13.6685 16.1822 13.5963 16.2207C13.5241 16.2592 13.4604 16.322 13.4054 16.409L13.382 16.6162C13.4117 17.1557 13.1948 17.5741 12.7315 17.8716C12.6816 17.9125 12.6567 17.933 12.6567 17.933C12.452 18.1431 12.3367 18.3632 12.3108 18.5934C12.2848 18.8236 12.2477 19.0525 12.1994 19.2802C12.2103 19.5844 12.2784 19.8835 12.4035 20.1774C12.5511 20.4737 12.675 20.7791 12.7752 21.0935C12.8069 21.2136 12.8721 21.3375 12.9708 21.4652C13.0695 21.5929 13.1682 21.7206 13.2669 21.8483C13.3682 21.953 13.4871 22.0013 13.6237 21.9934C13.7603 21.9855 13.893 22.0122 14.0219 22.0733C14.1309 22.1089 14.2289 22.1433 14.3156 22.1764C14.4024 22.2095 14.4891 22.2426 14.5758 22.2757C15.1249 22.221 15.5949 22.0642 15.9861 21.8053C16.1029 21.7719 16.2224 21.7154 16.3444 21.6359C16.4914 21.5359 16.6148 21.445 16.7145 21.363C16.8392 21.2605 16.9638 21.158 17.0885 21.0555C17.2132 20.953 17.3253 20.8607 17.4251 20.7787C17.6063 20.7759 17.7279 20.8012 17.7897 20.8548C17.8739 20.9109 17.9567 20.9786 18.0383 21.0577C18.0725 21.1548 18.1081 21.2404 18.145 21.3145C18.2068 21.3681 18.2437 21.4422 18.2557 21.5368C18.331 21.8716 18.4424 22.1873 18.5899 22.4836C18.7375 22.78 18.9086 23.0674 19.1034 23.3458C19.1403 23.4199 19.2021 23.4735 19.2888 23.5066C19.3979 23.5422 19.4709 23.5971 19.5078 23.6712C19.4974 23.7632 19.4922 23.8093 19.4922 23.8093C19.4647 23.8528 19.4247 23.9066 19.3722 23.9706C19.3421 24.0371 19.3021 24.0909 19.2523 24.1319C19.0279 24.3164 18.8653 24.5545 18.7645 24.8462C18.7567 24.9152 18.7227 25.0163 18.6625 25.1494L18.2846 25.4914C18.1797 25.6194 18.0748 25.7474 17.9699 25.8755C17.8899 25.983 17.7566 26.0612 17.5702 26.1101C17.3681 26.2971 17.1266 26.4331 16.8456 26.5179C16.7786 26.5104 16.7438 26.5181 16.7412 26.5411C16.5667 26.6846 16.3724 26.8026 16.1584 26.895C15.9444 26.9874 15.7403 27.0926 15.546 27.2106C15.3741 27.3311 15.1824 27.426 14.971 27.4954C14.7794 27.5903 14.5817 27.638 14.3781 27.6383C14.3085 27.6538 14.2389 27.6693 14.1693 27.6847C14.122 27.7027 14.0748 27.7207 14.0275 27.7387C13.7636 27.8721 13.4826 27.9569 13.1845 27.9932C12.8838 28.0526 12.604 28.1259 12.3454 28.2133Z" fill="black"/>
</svg>
