<svg width="22" height="25" viewBox="0 0 22 25" fill="none" xmlns="http://www.w3.org/2000/svg">
<path d="M21.4329 4.52065C21.2669 4.80411 21.1449 5.10699 21.0667 5.42929C20.9925 5.72829 20.8744 6.00787 20.7124 6.26804C20.6737 6.35735 20.635 6.44667 20.5963 6.53598C20.5805 6.62917 20.5762 6.7243 20.5833 6.82138C20.5439 7.05437 20.495 7.27376 20.4365 7.47956C20.3821 7.66207 20.3007 7.86399 20.1924 8.08533C20.1577 8.15134 20.1324 8.23094 20.1166 8.32414C20.1009 8.41733 20.0831 8.52217 20.0634 8.63867C19.9157 9.09299 19.7087 9.54925 19.4424 10.0075C19.3657 10.0424 19.3119 10.0812 19.2811 10.124C18.975 10.1201 18.688 10.1434 18.4199 10.1939C17.8966 10.7763 17.3622 11.285 16.8167 11.72C16.6515 11.8597 16.4863 11.9995 16.321 12.1393C16.1827 12.2597 16.0289 12.4014 15.8598 12.5645C15.7562 12.6189 15.6506 12.6849 15.5431 12.7626C15.4625 12.8208 15.3609 12.8635 15.2383 12.8907C14.8129 13.0344 14.469 13.3237 14.2066 13.7586C14.0873 13.9062 13.9984 14.0829 13.9399 14.2887C13.8855 14.4712 13.8424 14.6556 13.8109 14.842C13.732 15.308 13.8488 15.6633 14.1613 15.9079C14.1803 15.9351 14.1878 15.9603 14.1839 15.9836C14.1839 15.9836 14.1934 15.9972 14.2124 16.0244C14.2536 16.1991 14.2355 16.3758 14.1581 16.5544C14.0846 16.7097 14.0435 16.8825 14.0349 17.0728C14.0571 17.2204 14.0987 17.3233 14.1596 17.3815C14.3044 17.5019 14.4243 17.63 14.5192 17.7659C14.6371 17.9057 14.7416 18.0552 14.8326 18.2144L15.2455 18.2843C15.4132 18.4086 15.5809 18.5328 15.7486 18.6571C15.9393 18.7852 16.1165 18.923 16.2803 19.0706C16.5619 19.3579 16.566 19.6822 16.2926 20.0433C16.2657 20.0627 16.2349 20.1054 16.2001 20.1715C16.1693 20.2142 16.1385 20.2569 16.1076 20.2996C15.9385 20.4627 15.7808 20.6277 15.6345 20.7947C15.4883 20.9617 15.3496 21.1539 15.2184 21.3713C15.1757 21.4839 15.0833 21.6121 14.941 21.7558C14.8793 21.8412 14.8062 21.9247 14.7216 22.0062C14.637 22.0878 14.562 22.1829 14.4964 22.2916C14.4308 22.4004 14.3747 22.5227 14.3281 22.6586C14.2815 22.7945 14.2024 22.9129 14.091 23.0139C14.0523 23.1032 14.0116 23.2042 13.9689 23.3168C13.9492 23.4333 13.918 23.5478 13.8754 23.6604C13.8137 23.7459 13.7616 23.8449 13.7189 23.9575C13.6763 24.0701 13.6012 24.1652 13.4936 24.2429C13.341 24.1691 13.1863 24.107 13.0297 24.0565C12.896 24.0099 12.7509 23.9614 12.5943 23.9109C12.4796 23.8915 12.3554 23.8585 12.2217 23.8119C12.0841 23.7886 11.941 23.7284 11.7922 23.6314C11.6973 23.4955 11.5928 23.346 11.4788 23.1829C11.3649 23.0198 11.2395 22.8548 11.1026 22.6878C11.0187 22.6257 10.9004 22.5577 10.7478 22.4839C10.618 22.414 10.4903 22.3325 10.3645 22.2393C10.0781 22.1189 9.92423 21.9132 9.90275 21.6219C9.88375 21.5947 9.86477 21.5676 9.84577 21.5404C9.83072 21.4899 9.80222 21.4491 9.7603 21.4181C9.61946 21.2744 9.48059 21.1191 9.3437 20.9521C9.20681 20.7851 9.05844 20.6162 8.89861 20.4454C8.88751 20.3716 8.85149 20.3056 8.79057 20.2473C8.73359 20.1658 8.70152 20.0765 8.69436 19.9794C8.69436 19.9794 8.66982 19.9153 8.62073 19.7872C8.59851 19.6396 8.5953 19.5193 8.61108 19.4261C8.7186 19.3484 8.77075 19.2494 8.76753 19.129C8.69156 19.0203 8.60411 18.9096 8.50521 18.797C8.4063 18.6844 8.31886 18.5737 8.24289 18.465C8.10994 18.2748 8.01337 18.0787 7.95317 17.8768C7.89692 17.6515 7.85016 17.4399 7.8129 17.2419C7.82152 17.0516 7.82815 16.873 7.83282 16.706C7.83749 16.539 7.8307 16.3701 7.81243 16.1993C7.76406 15.9275 7.79759 15.7294 7.913 15.6052C7.92088 15.5586 7.9268 15.5236 7.93074 15.5003C7.96157 15.4576 7.97896 15.4246 7.9829 15.4013C7.98363 15.2576 7.98434 15.114 7.98507 14.9703C7.9858 14.8266 8.01896 14.7004 8.08455 14.5917C8.22435 14.184 8.35268 13.7743 8.46955 13.3627C8.60934 12.955 8.77011 12.5628 8.95184 12.1861C9.01743 12.0774 9.09251 11.9822 9.17709 11.9007C9.26562 11.7958 9.36168 11.7162 9.46525 11.6619C9.51901 11.623 9.57081 11.5959 9.62062 11.5803C9.69338 11.5687 9.74319 11.5531 9.77007 11.5337C9.98512 11.3784 10.1867 11.2328 10.3749 11.0969C10.563 10.961 10.7188 10.8076 10.8421 10.6367C11.0808 10.3416 11.327 10.0717 11.5808 9.82708C11.8614 9.56302 12.1496 9.32421 12.4453 9.11063C12.5069 9.02521 12.5456 8.93589 12.5614 8.8427C12.5811 8.72621 12.5664 8.60389 12.5173 8.47575C12.4682 8.34761 12.4057 8.22918 12.3297 8.12045C12.2538 8.01173 12.1778 7.90301 12.1018 7.79428C11.9491 7.72051 11.8194 7.65062 11.7126 7.58461C11.6098 7.4953 11.5472 7.37687 11.525 7.22931C11.51 7.17883 11.47 7.13611 11.4052 7.10117C11.3632 7.0701 11.3213 7.03904 11.2794 7.00798C11.1837 7.01575 11.0765 7.02157 10.9579 7.02546C10.8622 7.03323 10.778 7.04294 10.7052 7.05459L10.4644 7.01382C10.3766 6.97499 10.2888 6.93616 10.201 6.89734C10.1171 6.83521 10.0313 6.78473 9.94349 6.7459C9.8288 6.72649 9.71412 6.70708 9.59944 6.68767C9.4887 6.64496 9.37401 6.62554 9.25538 6.62943C8.87656 6.6372 8.61834 6.62944 8.48072 6.60614C8.36604 6.58673 8.12915 6.52267 7.77005 6.41395C7.72418 6.40618 7.65537 6.39454 7.56363 6.37901C7.49482 6.36736 7.42206 6.37901 7.34536 6.41396C7.25361 6.39843 7.17136 6.39649 7.09861 6.40814C7.0298 6.39649 6.94755 6.39455 6.85186 6.40232C6.60028 6.21594 6.34279 6.06451 6.07939 5.94802C5.94965 5.87813 5.80647 5.81795 5.64986 5.76747C5.51619 5.72088 5.35957 5.6704 5.18003 5.61604C5.08506 5.48014 4.98616 5.36753 4.8833 5.27822C4.80733 5.1695 4.71989 5.05883 4.62098 4.94623C4.3995 4.8608 4.20293 4.76761 4.03127 4.66666C3.86355 4.5424 3.68992 4.4531 3.51037 4.39874C3.24769 4.13858 3.11313 3.88812 3.1067 3.64737C3.1232 3.41051 3.19704 3.18335 3.32822 2.96589C3.4017 2.81057 3.48467 2.66883 3.57714 2.54069C3.66962 2.41255 3.75062 2.28247 3.82016 2.15044C3.88181 2.06501 3.94149 1.99123 3.99919 1.9291C4.06084 1.84367 4.11102 1.7563 4.14973 1.66699C4.16945 1.5505 4.1777 1.43206 4.17448 1.31168C4.1942 1.19519 4.21195 1.09035 4.22772 0.997156C4.29726 0.865131 4.38579 0.76029 4.49331 0.682626C4.62377 0.608845 4.73881 0.556419 4.83845 0.525352C5.02983 0.509816 5.16154 0.568057 5.23356 0.700079C5.33247 0.812686 5.44876 0.89229 5.58244 0.938884C5.69318 0.981594 5.79084 0.962174 5.87543 0.880628C5.96001 0.799083 6.03868 0.752485 6.11143 0.740833C6.47126 0.705878 6.80618 0.678691 7.11619 0.659268C7.185 0.670916 7.24233 0.680621 7.28821 0.688386C7.36096 0.676735 7.41831 0.686442 7.46024 0.717506C7.65878 0.799045 7.87865 0.824277 8.11985 0.793208C8.21554 0.785438 8.29779 0.787381 8.3666 0.799029C8.43935 0.787379 8.51766 0.812613 8.60152 0.874741C8.77712 0.952397 8.95865 0.995111 9.14609 1.00287C9.35646 1.01452 9.536 1.06888 9.68473 1.16595C9.88005 1.12711 10.0541 1.14458 10.2067 1.21836C10.3594 1.29213 10.514 1.35426 10.6706 1.40474C10.8273 1.45521 10.9724 1.50374 11.1061 1.55034C11.2398 1.59693 11.3829 1.65712 11.5356 1.73089C11.6424 1.7969 11.7646 1.84155 11.9022 1.86485C12.0438 1.86485 12.1853 1.86484 12.3269 1.86484C12.5989 1.79106 12.884 1.7794 13.1822 1.82988C13.4843 1.85705 13.773 1.89393 14.0483 1.94052C14.2507 1.99876 14.4552 2.04536 14.6616 2.0803C14.872 2.09194 15.0804 2.11523 15.2868 2.15018C15.4474 2.17735 15.585 2.20065 15.6997 2.22006C15.8183 2.21618 15.9464 2.22588 16.0841 2.24918C16.126 2.28024 16.143 2.31907 16.1351 2.36567C16.1541 2.39285 16.1731 2.42003 16.1921 2.44721C16.4161 2.79668 16.7483 2.92481 17.1888 2.83161C17.2963 2.75395 17.3884 2.69764 17.4651 2.66269C17.7468 2.95003 18.0462 3.13253 18.3634 3.21018C18.5239 3.23736 18.6556 3.2956 18.7585 3.38491C18.8653 3.45092 18.9721 3.51693 19.0789 3.58294C19.1437 3.61789 19.2086 3.65283 19.2735 3.68778C19.3423 3.69943 19.4186 3.73631 19.5025 3.79844L19.4965 3.83339C19.5811 3.75184 19.6847 3.69748 19.8073 3.67029C19.9259 3.66641 20.0445 3.66252 20.1632 3.65864C20.2818 3.65475 20.4024 3.63922 20.525 3.61203C20.6049 3.69746 20.7212 3.77706 20.8738 3.85083C20.9846 3.89354 21.0704 3.94402 21.1313 4.00227C21.2152 4.06439 21.299 4.12652 21.3829 4.18865C21.375 4.23524 21.3766 4.29543 21.3877 4.36921C21.4257 4.42357 21.4408 4.47405 21.4329 4.52065ZM19.4621 3.82756C19.508 3.83533 19.5309 3.83921 19.5309 3.83921C19.5309 3.83921 19.5195 3.83727 19.4965 3.83339L19.4621 3.82756Z" fill="black"/>
</svg>
