<svg width="20" height="30" viewBox="0 0 20 30" fill="none" xmlns="http://www.w3.org/2000/svg">
<path d="M18.7517 13.123C18.8809 13.2785 18.8543 13.3983 18.6718 13.4824C18.3756 13.6218 18.0568 13.7747 17.7153 13.941C17.3956 14.0822 17.0894 14.2459 16.7965 14.4322C16.7061 14.486 16.6041 14.5405 16.4902 14.596C16.3982 14.6263 16.2952 14.6691 16.1814 14.7246C16.1362 14.7514 16.0919 14.79 16.0484 14.8403C16.0033 14.8672 15.9463 14.8949 15.8777 14.9235C15.8091 14.9521 15.7556 15.0267 15.7173 15.1473C15.6789 15.268 15.6875 15.3852 15.7429 15.499C15.884 15.8187 16.0261 16.1501 16.1689 16.4933C16.3118 16.8364 16.5116 17.1518 16.7682 17.4395C16.8957 17.5717 17.0149 17.7516 17.1258 17.9792C17.1543 18.0478 17.1703 18.1056 17.1738 18.1525C17.2006 18.1976 17.2292 18.2663 17.2595 18.3583C17.2148 18.7152 17.1432 19.0268 17.0448 19.2933C17.0064 19.4139 16.9538 19.5002 16.8869 19.5523C16.8434 19.6026 16.7765 19.6546 16.6861 19.7083C16.3413 19.8277 15.9981 19.9706 15.6567 20.1369C15.3387 20.3015 15.0098 20.4787 14.6701 20.6684C14.5495 20.6301 14.4397 20.5792 14.3408 20.5157C14.2419 20.4522 14.1304 20.3778 14.0063 20.2926C13.8988 20.1118 13.7588 19.9688 13.5861 19.8636C13.4134 19.7583 13.2408 19.653 13.0681 19.5478C12.9709 19.5077 12.8854 19.4668 12.8117 19.425C12.7597 19.3581 12.6976 19.3155 12.6256 19.2972C12.4597 19.2857 12.3091 19.3202 12.1735 19.4008C12.038 19.4814 11.9016 19.5503 11.7643 19.6074C11.6488 19.6394 11.5215 19.6723 11.3826 19.706C11.2653 19.7145 11.149 19.7348 11.0334 19.7668C10.9482 19.8909 10.863 20.0149 10.7777 20.139C10.6925 20.263 10.5955 20.388 10.4868 20.5137C10.3999 20.6144 10.3004 20.7041 10.1883 20.783C10.0996 20.8602 10.0118 20.9491 9.92485 21.0497C9.8379 21.1503 9.78783 21.2718 9.77464 21.4142C9.75974 21.5331 9.74484 21.6521 9.72994 21.771C9.63882 22.4612 9.85398 22.9876 10.3754 23.3503C10.476 23.4373 10.5732 23.4773 10.667 23.4705C10.9266 23.4752 11.1871 23.4915 11.4484 23.5196C11.7097 23.5477 11.961 23.6001 12.2023 23.6768C12.4585 23.6346 12.7073 23.6518 12.9486 23.7285C13.1899 23.8052 13.4286 23.8467 13.6648 23.853C13.8306 23.8645 13.9864 23.9003 14.1322 23.9604C14.2998 23.9953 14.4556 24.0311 14.5997 24.0677C14.8862 24.1176 15.1618 24.18 15.4265 24.255C15.713 24.3048 15.9869 24.3438 16.2482 24.3718C16.4609 24.3799 16.714 24.4558 17.0073 24.5994C17.0593 24.6663 17.1122 24.7449 17.1659 24.8353C17.2414 24.9005 17.2699 24.9691 17.2516 25.0412C17.2704 25.2991 17.3009 25.5561 17.3432 25.8123C17.3854 26.0685 17.4142 26.3021 17.4296 26.5132C17.4199 26.7024 17.3732 26.8708 17.2897 27.0183C17.2061 27.1659 17.1218 27.3016 17.0365 27.4257C16.9965 27.5229 16.9447 27.621 16.8812 27.7199C16.8177 27.8188 16.765 27.9051 16.7233 27.9789C16.6832 28.0761 16.644 28.185 16.6057 28.3057C16.5673 28.4263 16.529 28.547 16.4906 28.6676C16.0234 28.7252 15.5579 28.8063 15.0941 28.9108C14.6555 29.0371 14.2134 29.1164 13.768 29.1489C13.6507 29.1575 13.5326 29.1543 13.4137 29.1394C13.2965 29.1479 13.1758 29.1096 13.0518 29.0243C12.9946 28.8871 12.9626 28.7715 12.9558 28.6778C12.8317 28.5925 12.7254 28.5885 12.6367 28.6657C12.548 28.7428 12.4568 28.7848 12.363 28.7917C12.0331 28.7922 11.7014 28.7692 11.3681 28.7228C11.0598 28.6981 10.7442 28.7329 10.4211 28.8272C10.3473 28.7854 10.2618 28.7445 10.1646 28.7044C10.0909 28.6627 10.0163 28.6092 9.94078 28.544C9.77666 28.5559 9.61168 28.5562 9.44585 28.5447C9.28173 28.5567 9.11761 28.5686 8.95349 28.5806C8.78253 28.4988 8.59985 28.4178 8.40544 28.3377C8.21104 28.2576 8.01664 28.1775 7.82223 28.0974C7.65298 28.039 7.47116 27.9697 7.27675 27.8896C7.1075 27.8312 6.93911 27.7846 6.77157 27.7497C6.59035 27.5272 6.38655 27.3181 6.16016 27.1225C5.95892 26.9486 5.76769 26.7504 5.58648 26.5279C5.5093 26.4392 5.42212 26.3749 5.32491 26.3348C5.226 26.2713 5.12709 26.2078 5.02818 26.1443C4.7566 25.9755 4.56708 25.8008 4.45963 25.6201C4.37562 25.4376 4.30736 25.148 4.25486 24.7511C4.12909 24.6424 4.00246 24.522 3.87497 24.3899C3.76923 24.2326 3.65261 24.0879 3.52513 23.9557C3.49485 23.8637 3.478 23.7942 3.47458 23.7473C3.46945 23.6769 3.47519 23.594 3.4918 23.4985C3.50158 23.3093 3.5105 23.1083 3.51856 22.8955C3.54836 22.6577 3.56644 22.4206 3.5728 22.1845C3.68954 21.846 3.84061 21.4932 4.02599 21.1261C4.2331 20.7339 4.4285 20.3425 4.61217 19.952C4.67738 19.8765 4.73001 19.7902 4.77007 19.693C4.80841 19.5723 4.83589 19.4643 4.8525 19.3688C4.88402 19.1544 4.95069 18.9374 5.05254 18.7178C5.15439 18.4982 5.25795 18.3021 5.36322 18.1295C5.46506 17.9099 5.63322 17.7916 5.86768 17.7745C5.91457 17.7711 5.96061 17.7559 6.00579 17.7291C6.05097 17.7022 6.10788 17.6745 6.17651 17.6459C6.36066 17.5853 6.44761 17.4847 6.43735 17.344C6.41049 17.2989 6.3719 17.2545 6.32159 17.2111C6.29302 17.1424 6.25443 17.0981 6.20583 17.0781C6.10863 17.038 6.01143 16.998 5.91423 16.9579C5.81702 16.9179 5.70981 16.9021 5.59258 16.9106C5.4519 16.9209 5.32124 16.9068 5.20059 16.8685C5.07994 16.8302 4.95844 16.7801 4.83608 16.7183C4.73888 16.6782 4.64339 16.6616 4.5496 16.6685C4.47927 16.6736 4.38463 16.6687 4.26569 16.6538C4.12966 16.4044 4.02538 16.1056 3.95285 15.7573C3.85175 15.3404 3.70889 14.9973 3.52426 14.7279C3.33621 14.4116 3.36003 14.0917 3.59572 13.7681C3.63919 13.7178 3.68266 13.6675 3.72614 13.6172C3.79135 13.5417 3.83482 13.4914 3.85656 13.4662C3.89149 13.2987 3.92728 13.1429 3.96391 12.9988C4.024 12.853 4.08493 12.7189 4.14673 12.5965C4.20681 12.4507 4.2669 12.3049 4.32698 12.1591C4.4088 11.9882 4.51663 11.8507 4.65047 11.7466C4.71226 11.6243 4.79836 11.5119 4.90875 11.4096C5.04259 11.3056 5.16471 11.2024 5.2751 11.1001C5.35692 10.9291 5.43874 10.7581 5.52056 10.5872C5.60068 10.3928 5.68164 10.2101 5.76346 10.0391C5.75321 9.89846 5.71291 9.83069 5.64258 9.83582C5.50019 9.82262 5.34608 9.81029 5.18025 9.7988C5.03787 9.78561 4.89548 9.77242 4.7531 9.75923C4.40482 9.83176 4.13861 9.8983 3.95446 9.95887C3.79376 10.0177 3.64563 10.0874 3.51008 10.168C3.37453 10.2486 3.16034 10.3821 2.86751 10.5684L2.26963 10.612C1.96142 10.5873 1.63977 10.5401 1.30469 10.4702C1.17891 10.3615 1.09917 10.2377 1.06547 10.0987C1.05351 9.93461 1.01896 9.78392 0.961813 9.64667C0.88293 9.53456 0.814914 9.40989 0.757768 9.27263C0.700622 9.13537 0.631751 8.99896 0.551159 8.86342C0.612952 8.74106 0.663023 8.61956 0.70137 8.49891C0.763163 8.37655 0.814089 8.26677 0.854145 8.16957C0.892492 8.04892 0.920823 7.95258 0.939142 7.88053C0.955752 7.78503 0.948915 7.69125 0.918633 7.59917C0.878097 7.36642 0.873584 7.14283 0.905095 6.9284C0.960052 6.71226 1.01501 6.49612 1.06997 6.27997C1.16204 6.24969 1.24239 6.22026 1.31102 6.19169C1.4031 6.16141 1.49432 6.11941 1.58468 6.06568C1.67505 6.01195 1.75369 5.95908 1.82061 5.90706C1.88582 5.83159 1.96276 5.75527 2.05141 5.6781C2.38649 5.74795 2.74588 5.82783 3.12956 5.91771C3.26853 5.88401 3.40749 5.85031 3.54646 5.81661C3.68372 5.75946 3.82439 5.74921 3.96849 5.78585L4.28501 5.76278C4.51434 5.67535 4.73622 5.64739 4.95066 5.6789C5.16338 5.68697 5.38868 5.7059 5.62656 5.7357C5.92452 5.6197 6.22334 5.51542 6.52301 5.42287C6.82268 5.33031 7.04347 5.12565 7.18537 4.80889C7.20027 4.68995 7.20516 4.59531 7.20003 4.52498C7.21835 4.45293 7.23582 4.36916 7.25243 4.27367C7.27074 4.20162 7.30079 4.12872 7.34255 4.05496C7.40776 3.9795 7.43695 3.89487 7.43011 3.80109C7.40154 3.73246 7.34867 3.65382 7.27149 3.56516C7.21606 3.45135 7.16147 3.34926 7.10774 3.25889L7.10005 3.15339L7.31035 2.64307C7.27665 2.50411 7.26725 2.37515 7.28215 2.25621C7.29534 2.11383 7.30939 1.98317 7.32429 1.86423C7.37924 1.64809 7.40074 1.45796 7.38878 1.29383C7.51407 1.07257 7.70055 0.882194 7.9482 0.722719C8.02025 0.741037 8.10402 0.758502 8.19951 0.775113C8.29329 0.768276 8.37792 0.797463 8.45338 0.862673C8.67636 1.01141 8.91766 1.08811 9.17727 1.09276C9.43689 1.0974 9.6882 1.14979 9.9312 1.24993C9.9798 1.26996 10.0393 1.27741 10.1096 1.27229C10.2017 1.242 10.2946 1.22344 10.3884 1.21661C10.5073 1.23151 10.6137 1.23554 10.7075 1.22871C10.8247 1.22016 10.9428 1.22334 11.0617 1.23824C11.1086 1.23483 11.1589 1.2783 11.2127 1.36867C11.2881 1.43388 11.3276 1.48993 11.331 1.53682L11.3951 2.41604C11.387 2.62877 11.4293 2.88496 11.5218 3.18463C11.611 3.43741 11.6481 3.62327 11.6332 3.74221C11.64 3.83599 11.5851 4.05213 11.4683 4.39063C11.6341 4.40211 11.79 4.4379 11.9358 4.49798C12.0798 4.53462 12.2239 4.57126 12.368 4.6079C12.5304 4.57249 12.6803 4.52621 12.8175 4.46907C12.9782 4.41021 13.1424 4.39825 13.3099 4.43318L14.2261 3.90676C14.392 3.91825 14.5026 3.9809 14.558 4.09471C14.6369 4.20681 14.6924 4.32062 14.7244 4.43614C14.8484 4.52138 14.9842 4.60577 15.1317 4.6893C15.2792 4.77283 15.4159 4.86893 15.5417 4.97762C15.5954 5.06798 15.6382 5.17093 15.6702 5.28645C15.7022 5.40197 15.7342 5.51749 15.7662 5.63301C15.7479 5.70506 15.7061 5.77881 15.6409 5.85428C15.5991 5.92803 15.5582 6.01352 15.5182 6.11072C15.5016 6.20621 15.5101 6.32344 15.5438 6.46241C15.5993 6.57622 15.6547 6.69003 15.7101 6.80384C15.7072 7.08691 15.6691 7.37253 15.5958 7.66072C15.5208 7.92546 15.4341 8.19106 15.3357 8.45751C15.1733 8.49292 15.0226 8.52747 14.8836 8.56117C14.7429 8.57143 14.5914 8.59426 14.429 8.62967C14.2614 8.59474 14.0822 8.56066 13.8912 8.52744C13.7002 8.49422 13.5009 8.50875 13.2933 8.57102C13.1761 8.57957 13.084 8.60985 13.0171 8.66187C12.7042 8.89681 12.3717 8.86212 12.0195 8.5578C11.9492 8.56293 11.8897 8.55548 11.8411 8.53545C11.5146 8.58282 11.2117 8.79347 10.9326 9.16737C10.8891 9.21768 10.8574 9.26714 10.8373 9.31574C10.8173 9.36434 10.7973 9.41294 10.7773 9.46154C10.5885 9.78172 10.4122 10.1128 10.2486 10.4547C10.085 10.7966 9.89616 11.1168 9.6822 11.4152C9.55691 11.6365 9.57314 11.8592 9.73091 12.0834C9.85327 12.1452 9.92873 12.2104 9.95731 12.2791C9.94582 12.4449 9.95608 12.5856 9.98807 12.7011C10.0184 12.7932 10.1181 12.8684 10.2874 12.9268C10.5116 12.769 10.7383 12.6464 10.9677 12.559C11.2205 12.4698 11.4464 12.3355 11.6454 12.156C11.6437 12.1326 11.678 12.1183 11.7484 12.1132C12.0732 12.0423 12.3468 11.9163 12.5693 11.7351C12.7918 11.5539 13.0261 11.3718 13.272 11.1889C13.451 11.058 13.6578 10.984 13.8922 10.9669C14.1484 10.9247 14.3761 10.8138 14.5751 10.6343C14.6472 10.6526 14.7192 10.6709 14.7912 10.6893C14.8633 10.7076 14.9236 10.7268 14.9722 10.7468C15.3439 10.6725 15.6788 10.5774 15.9767 10.4614C16.2747 10.3454 16.6279 10.1783 17.0362 9.95993C17.2707 9.94284 17.4408 10.0129 17.5465 10.1702C17.674 10.3023 17.7898 10.4353 17.8938 10.5692C18.0213 10.7013 18.1379 10.846 18.2437 11.0033C18.4168 11.4385 18.5657 11.8637 18.6902 12.2789C18.677 12.4213 18.6638 12.5637 18.6506 12.7061C18.6609 12.8468 18.6946 12.9857 18.7517 13.123ZM14.7269 4.47131L14.7244 4.43614C14.7244 4.43614 14.7135 4.44872 14.6918 4.47388C14.6918 4.47388 14.6926 4.4856 14.6943 4.50904C14.6926 4.4856 14.6918 4.47388 14.6918 4.47388C14.7152 4.47217 14.7269 4.47131 14.7269 4.47131Z" fill="black"/>
</svg>
