<svg width="35" height="32" viewBox="0 0 35 32" fill="none" xmlns="http://www.w3.org/2000/svg">
<path d="M34.9381 6.5886C34.8763 7.05259 34.7989 7.53204 34.7062 8.02695C34.6134 8.49094 34.4278 8.93946 34.1494 9.37251C33.9328 9.71277 33.7163 10.0685 33.4998 10.4397C33.3142 10.7799 33.175 11.1666 33.0822 11.5996C32.7419 11.8162 32.4017 12.0018 32.0614 12.1564C31.7212 12.2802 31.3964 12.4039 31.0871 12.5276C30.8705 12.6204 30.6695 12.6977 30.4839 12.7596C30.3292 12.8215 30.1745 12.9143 30.0199 13.038C29.8034 13.1617 29.6023 13.2081 29.4167 13.1772C29.262 13.1153 29.1074 13.0225 28.9527 12.8988C28.829 12.9607 28.7207 13.0225 28.6279 13.0844C28.5661 13.1153 28.4733 13.1617 28.3495 13.2236C27.4216 13.2855 26.5555 13.1308 25.7512 12.7596C25.4419 12.4503 25.148 12.1255 24.8696 11.7852C24.5912 11.4141 24.3593 11.0119 24.1737 10.5789C24.0499 10.4551 23.9107 10.3469 23.7561 10.2541C23.6323 10.1613 23.4931 10.053 23.3385 9.9293C23.3076 9.86743 23.2612 9.80557 23.1993 9.7437C23.1684 9.68184 23.1374 9.63544 23.1065 9.60451C22.9828 9.35705 22.8745 9.07866 22.7817 8.76933C22.6889 8.46001 22.5652 8.15068 22.4105 7.84136V6.635C22.3796 6.32567 22.3951 6.04728 22.4569 5.79982C22.5497 5.55236 22.6425 5.28944 22.7353 5.01104C22.89 4.79452 22.9982 4.56253 23.0601 4.31507C23.122 4.03668 23.1993 3.77375 23.2921 3.52629C23.354 3.46443 23.4468 3.37163 23.5705 3.2479C23.6942 3.09324 23.787 2.95404 23.8489 2.83031C23.9726 2.67565 24.0654 2.53645 24.1273 2.41272C24.1891 2.25806 24.2665 2.11887 24.3593 1.99514C24.483 1.84048 24.6377 1.73221 24.8233 1.67035C25.0088 1.60848 25.1635 1.50022 25.2872 1.34556C25.4419 1.19089 25.612 1.08263 25.7976 1.02077C25.9832 0.958902 26.1533 0.866104 26.308 0.742374C26.4936 0.68051 26.6637 0.618646 26.8184 0.556782C27.004 0.463985 27.1741 0.386654 27.3288 0.324788C27.5762 0.293856 27.8082 0.309323 28.0247 0.371189C28.2722 0.402121 28.4887 0.309323 28.6743 0.0927951C29.0146 0.0927951 29.3394 0.07733 29.6487 0.046398C29.958 -0.015466 30.2828 -0.015466 30.6231 0.046398C30.8705 0.139196 31.0716 0.262924 31.2263 0.417586C31.3809 0.572247 31.582 0.665045 31.8294 0.695977C31.9841 0.726909 32.1542 0.850639 32.3398 1.06717C32.4945 1.1909 32.6646 1.33009 32.8502 1.48475C33.0358 1.63942 33.2369 1.80954 33.4534 1.99514C33.5152 2.1498 33.5771 2.33539 33.639 2.55192C33.7318 2.73751 33.84 2.92311 33.9638 3.1087C34.2112 3.47989 34.3968 3.88201 34.5206 4.31507C34.6443 4.71719 34.768 5.13478 34.8917 5.56783C34.9227 5.72249 34.9536 5.89262 34.9845 6.07821C35.0155 6.26381 35 6.43394 34.9381 6.5886ZM30.9479 6.17101C30.886 5.95448 30.7932 5.73796 30.6695 5.52143C30.5457 5.3049 30.422 5.08838 30.2983 4.87185C30.2674 4.80999 30.2364 4.76359 30.2055 4.73265C30.1745 4.67079 30.1282 4.62439 30.0663 4.59346C29.5714 4.53159 29.1074 4.4388 28.6743 4.31507C28.4578 4.346 28.2567 4.3924 28.0712 4.45427C27.8856 4.4852 27.7154 4.51613 27.5608 4.54706L26.9112 5.52143C26.6947 5.76889 26.54 6.15554 26.4472 6.68139C26.5091 6.95979 26.5864 7.26911 26.6792 7.60936C26.8029 7.91869 26.8957 8.22802 26.9576 8.53734C27.2669 8.84666 27.5917 9.00133 27.9319 9.00133C28.1175 8.97039 28.3031 8.95493 28.4887 8.95493C28.6743 8.92399 28.8599 8.90853 29.0455 8.90853C29.1074 8.8776 29.1383 8.84666 29.1383 8.81573C29.1692 8.7848 29.2002 8.75387 29.2311 8.72294C29.5714 8.56827 29.8652 8.36721 30.1127 8.11975C30.3911 7.84136 30.6385 7.5475 30.8551 7.23818C31.1644 6.92886 31.1953 6.57313 30.9479 6.17101ZM32.943 26.8648C32.8811 26.9885 32.8347 27.1122 32.8038 27.236C32.7729 27.3288 32.7265 27.4525 32.6646 27.6072C32.1078 28.1021 31.551 28.6125 30.9943 29.1383C30.4375 29.6642 29.8807 30.19 29.3239 30.7159C29.0764 30.9324 28.8135 31.1335 28.5351 31.319C28.2567 31.5046 27.9784 31.6748 27.7 31.8294C27.6381 31.7676 27.5608 31.7366 27.468 31.7366C27.3752 31.7057 27.2978 31.6748 27.236 31.6438L26.2616 30.9943C26.076 30.9324 25.8904 30.9015 25.7048 30.9015C25.5502 30.8705 25.38 30.8396 25.1944 30.8087C24.8232 30.3447 24.483 29.8498 24.1737 29.3239C23.8643 28.7981 23.4932 28.3341 23.0601 27.9319C22.627 27.4989 22.2249 27.0504 21.8537 26.5864C21.5135 26.0915 21.1268 25.6584 20.6938 25.2872C20.57 24.947 20.4463 24.6377 20.3226 24.3593C20.2298 24.0809 20.1524 23.8489 20.0906 23.6633C19.6575 23.0756 19.1936 22.627 18.6986 22.3177C18.2037 21.9775 17.7397 21.6217 17.3067 21.2506C17.1829 21.0031 17.0283 20.7711 16.8427 20.5546C16.6571 20.338 16.4251 20.1989 16.1467 20.137C15.7755 20.0133 15.4662 19.8277 15.2187 19.5802C15.0641 19.4255 14.8785 19.3018 14.662 19.209C14.4764 19.0853 14.2753 18.977 14.0588 18.8842C13.8423 18.8533 13.6257 18.8842 13.4092 18.977C12.3884 19.5647 11.5842 20.369 10.9965 21.3897C10.7181 21.5444 10.4397 21.7145 10.1613 21.9001C9.88291 22.0548 9.57358 22.2249 9.23332 22.4105C9.14052 22.5033 9.07866 22.6425 9.04773 22.8281C9.04773 22.9828 8.97039 23.1529 8.81573 23.3385C8.38267 23.7406 7.87229 24.0035 7.28457 24.1273C6.85152 24.1891 6.57313 24.2974 6.4494 24.4521C6.32567 24.6067 6.20195 24.9315 6.07822 25.4264C5.92356 25.5502 5.72249 25.6275 5.47503 25.6584C5.25851 25.6584 5.05745 25.7357 4.87185 25.8904C4.59346 26.2307 4.25321 26.4163 3.85108 26.4472C3.57269 26.2925 3.40256 26.0141 3.3407 25.612C3.21697 24.8696 2.92311 24.1737 2.45912 23.5241C2.30446 23.2766 2.18074 23.0292 2.08794 22.7817C1.99514 22.5033 1.88688 22.2404 1.76315 21.9929C1.67035 21.7455 1.62395 21.5135 1.62395 21.297C1.62395 20.5855 1.3301 20.1525 0.742383 19.9978C0.556788 19.9359 0.37119 19.7967 0.185596 19.5802C0.0927984 19.4874 0.0309323 19.3946 0 19.3018C0.185594 19.1472 0.355722 19.008 0.510384 18.8842C0.695979 18.7296 0.881577 18.5904 1.06717 18.4666C1.1909 18.3429 1.31463 18.2501 1.43836 18.1882C1.56208 18.0955 1.67035 18.0336 1.76315 18.0027C2.01061 17.8789 2.2426 17.7707 2.45912 17.6779C2.70658 17.5541 2.92311 17.4459 3.10871 17.3531C3.26337 17.1984 3.37163 17.0437 3.4335 16.8891C3.49536 16.7035 3.55723 16.5334 3.61909 16.3787C3.71189 16.224 3.80469 16.0848 3.89749 15.9611C3.99028 15.8374 4.08308 15.7137 4.17587 15.5899C4.42333 15.4662 4.65533 15.3734 4.87185 15.3115C5.08838 15.2187 5.30491 15.1105 5.52144 14.9867C5.5833 14.9249 5.67609 14.863 5.79982 14.8011C5.92355 14.7393 6.00089 14.662 6.03182 14.5692C6.18648 14.3526 6.35661 14.2134 6.54221 14.1516C6.7278 14.0588 6.89793 13.966 7.05259 13.8732C7.36191 13.5639 7.6403 13.27 7.88776 12.9916C8.16615 12.7132 8.44454 12.4503 8.72294 12.2028C9.24879 11.7388 9.7901 11.3367 10.3469 10.9965C10.9346 10.6253 11.5068 10.2386 12.0636 9.8365C12.373 9.80557 12.6204 9.72824 12.806 9.60451C12.9916 9.44985 13.1927 9.27972 13.4092 9.09412C13.5329 8.97039 13.6412 8.8776 13.734 8.81573C13.8577 8.75386 13.9814 8.67654 14.1052 8.58374C14.4764 8.39814 14.8012 8.16615 15.0795 7.88776C15.327 7.6403 15.6209 7.43924 15.9611 7.28458C16.3323 7.12991 16.6416 6.92885 16.8891 6.68139C17.0128 6.74326 17.1211 6.80513 17.2139 6.86699C17.3067 6.89792 17.3685 6.94432 17.3995 7.00619C17.5232 7.12992 17.6315 7.26911 17.7243 7.42377C17.8171 7.5475 17.9099 7.6867 18.0027 7.84136C18.1573 8.05789 18.2965 8.30535 18.4202 8.58374C18.5749 8.8312 18.745 9.06319 18.9306 9.27972C19.1471 9.49624 19.3482 9.71277 19.5338 9.9293C19.7503 10.1149 19.9669 10.285 20.1834 10.4397C20.3381 10.5015 20.4618 10.5789 20.5546 10.6717C20.6474 10.7645 20.7402 10.8573 20.833 10.9501C20.9567 11.0738 21.034 11.2285 21.065 11.4141C21.0959 11.5996 21.1732 11.7234 21.2969 11.7852C21.4825 11.9708 21.6836 12.0791 21.9001 12.11C22.1167 12.11 22.3332 12.1874 22.5497 12.342C22.6116 12.4348 22.6734 12.5585 22.7353 12.7132C22.7972 12.8679 22.89 13.0225 23.0137 13.1772C23.1374 13.4247 23.3385 13.6876 23.6169 13.966C23.8953 14.2444 24.2201 14.4764 24.5913 14.662C24.6531 14.7547 24.715 14.863 24.7768 14.9867C24.9006 15.2651 25.0088 15.5435 25.1016 15.8219C25.1944 16.0694 25.2872 16.3168 25.38 16.5643C25.4728 16.7808 25.5966 16.951 25.7512 17.0747C25.9368 17.1675 26.1069 17.2603 26.2616 17.3531C27.004 17.8171 27.669 18.3893 28.2567 19.0698C28.3805 19.4101 28.5042 19.7658 28.6279 20.137C28.7826 20.4772 28.9373 20.8484 29.0919 21.2506C29.1538 21.2815 29.2311 21.3434 29.3239 21.4361C29.4476 21.5289 29.5714 21.6217 29.6951 21.7145C29.9735 21.9311 30.2055 22.1785 30.3911 22.4569C30.6076 22.7044 30.7932 22.9982 30.9479 23.3385C31.1953 23.8025 31.4428 24.2665 31.6902 24.7304C31.9686 25.1944 32.2161 25.6894 32.4326 26.2152C32.5873 26.4317 32.7574 26.6483 32.943 26.8648Z" fill="black"/>
</svg>
