<svg width="19" height="28" viewBox="0 0 19 28" fill="none" xmlns="http://www.w3.org/2000/svg">
<path d="M16.5047 17.2499C16.4219 17.3303 16.3636 17.403 16.3295 17.468C16.2993 17.51 16.256 17.5617 16.1996 17.6229C16.2065 17.7184 16.1983 17.8349 16.175 17.9725C16.1741 18.1139 16.1639 18.2419 16.1445 18.3565L16.0747 18.7693C16.0535 19.1666 15.9095 19.4725 15.6428 19.6868L15.573 20.0995C15.4971 20.2754 15.412 20.4379 15.3176 20.587C15.2232 20.7361 15.1381 20.8986 15.0623 21.0745C14.8998 21.3536 14.7315 21.6671 14.5574 22.015C14.4785 22.0725 14.3885 22.128 14.2872 22.1816C14.2123 22.2161 14.1334 22.2735 14.0507 22.3538C13.9718 22.4112 13.9022 22.482 13.8419 22.5661C13.8079 22.6311 13.7626 22.6942 13.7062 22.7555C13.4627 22.8322 13.2247 22.9452 12.992 23.0945C12.7856 23.2247 12.6163 23.4083 12.484 23.6453C12.3293 23.8786 12.1356 24.0699 11.9029 24.2192C11.7004 24.3264 11.4959 24.4452 11.2895 24.5753C11.1094 24.6864 10.9162 24.807 10.7098 24.9371C10.4285 25.1018 10.1475 25.1958 9.86707 25.219C9.77357 25.2268 9.66694 25.2441 9.54716 25.271C9.44979 25.3017 9.33928 25.342 9.21563 25.3918C8.73952 25.6178 8.20247 25.7274 7.60448 25.7205C7.02502 25.7404 6.45137 25.7258 5.88354 25.6769C5.72284 25.6733 5.56603 25.6467 5.41309 25.5973C5.25628 25.5707 5.08826 25.5423 4.90904 25.5119C4.82719 25.4509 4.74729 25.3784 4.66933 25.2945C4.61377 25.2143 4.53192 25.1533 4.42378 25.1114C4.19588 25.0964 3.97529 25.1062 3.76203 25.1409C3.65778 25.0761 3.54233 25.0093 3.41567 24.9407C3.31143 24.8759 3.20718 24.8111 3.10293 24.7463C2.84963 24.6091 2.62843 24.4183 2.43934 24.174C2.32821 24.0137 2.20588 23.8514 2.07235 23.6873C1.93494 23.5461 1.82575 23.3743 1.74479 23.1719C1.68922 23.0918 1.61127 23.0078 1.5109 22.9201C1.43293 22.8361 1.36422 22.7655 1.30477 22.7083C1.31342 22.521 1.32208 22.3338 1.33072 22.1466C1.34325 21.9364 1.3295 21.7454 1.28946 21.5735C1.27571 21.3825 1.27316 21.1934 1.28181 21.0061C1.31286 20.8227 1.29178 20.6069 1.21858 20.3586C1.36164 20.1941 1.4487 20.0202 1.47975 19.8367C1.5108 19.6533 1.54186 19.4699 1.57291 19.2864C1.69357 19.1182 1.81617 18.9384 1.94071 18.7472C2.06525 18.556 2.15619 18.3591 2.21352 18.1566C2.25533 18.0457 2.3176 17.9501 2.40033 17.8698C2.48695 17.7665 2.57357 17.6632 2.66018 17.56C2.814 17.4681 2.96976 17.3647 3.12746 17.2499C3.28516 17.135 3.45407 17.0221 3.63418 16.9111C3.77336 16.7695 3.8882 16.6357 3.97869 16.5095C4.09547 16.3641 4.23271 16.234 4.39041 16.1192L4.89447 16.2045C5.04053 16.1585 5.15149 16.0476 5.22734 15.8717C5.38205 15.6384 5.6313 15.5273 5.9751 15.5383C6.17672 15.5725 6.37834 15.6066 6.57996 15.6407C6.80787 15.6557 7.02995 15.7051 7.24622 15.7889C7.35435 15.8308 7.45321 15.8593 7.54282 15.8745C7.65871 15.8705 7.77073 15.8895 7.87886 15.9314C8.0542 15.9846 8.22028 16.0245 8.3771 16.0511C8.55632 16.0814 8.71701 16.085 8.85919 16.0619C9.18358 16.1876 9.41598 16.3802 9.55639 16.6399C9.70068 16.8766 9.8805 17.1075 10.0959 17.3327C10.1213 17.4549 10.1447 17.5886 10.1662 17.7337C10.214 17.8598 10.2619 17.9858 10.3097 18.1118C10.2416 18.2418 10.1774 18.3489 10.117 18.433C10.0567 18.5171 10.047 18.5745 10.0879 18.605C10.1288 18.6355 10.1605 18.6527 10.1829 18.6564C10.2316 18.6411 10.2671 18.6353 10.2895 18.6391L10.4239 18.6619C10.4873 18.6962 10.5487 18.7419 10.6081 18.7992C10.6938 18.8373 10.7664 18.8849 10.8259 18.9422C10.9642 18.942 11.0747 18.9017 11.1574 18.8214C11.2625 18.7449 11.3341 18.6626 11.372 18.5747C11.4625 18.4485 11.5418 18.3204 11.6099 18.1904C11.678 18.0604 11.7349 17.9285 11.7806 17.7947C11.8 17.6801 11.8062 17.575 11.7994 17.4795C11.7964 17.361 11.8158 17.2464 11.8576 17.1355C11.9675 16.8947 11.9931 16.675 11.9346 16.4764C11.876 16.2778 11.7707 16.083 11.6187 15.8922C11.5816 15.8387 11.5426 15.7968 11.5017 15.7662C11.4647 15.7128 11.4257 15.6708 11.3848 15.6403C11.3818 15.5219 11.3676 15.4015 11.3422 15.2793C11.3431 15.1379 11.3328 14.9947 11.3112 14.8495C11.241 14.7197 11.1577 14.5994 11.0612 14.4888C10.991 14.3589 10.9096 14.2272 10.817 14.0936C10.8024 14.044 10.7726 14.0153 10.7278 14.0078C10.6869 13.9773 10.6664 13.962 10.6664 13.962C10.5738 13.8284 10.4715 13.7521 10.3595 13.7331C10.2699 13.718 10.1803 13.7028 10.0907 13.6876C10.0274 13.6533 9.95089 13.6286 9.86128 13.6134C9.79795 13.5791 9.74584 13.5467 9.70491 13.5162C9.47789 13.3598 9.23967 13.2016 8.99025 13.0414C8.76323 12.8851 8.525 12.7268 8.27558 12.5666C8.2493 12.5858 8.20255 12.5897 8.13534 12.5783C8.09054 12.5707 8.04185 12.5861 7.98928 12.6243C7.71569 12.7431 7.41625 12.8104 7.09097 12.8261C6.7881 12.8456 6.4779 12.8402 6.16038 12.8101C5.86527 12.7837 5.56434 12.7917 5.25758 12.8341C4.97711 12.8574 4.70202 12.917 4.43231 13.0129C4.33105 13.0665 4.23174 13.1086 4.13436 13.1393C4.04087 13.1471 3.93424 13.1644 3.81446 13.1913C3.65376 13.1877 3.51009 13.1516 3.38344 13.083C3.26067 12.9914 3.14522 12.9247 3.03709 12.8828C2.95912 12.7989 2.90356 12.7187 2.8704 12.6423C2.83724 12.566 2.80602 12.4781 2.77674 12.3788C2.61005 12.1383 2.5724 11.8843 2.66378 11.6167C2.71723 11.4371 2.73514 11.2632 2.7175 11.0951C2.72227 10.9308 2.71584 10.7646 2.6982 10.5965C2.70297 10.4322 2.717 10.2813 2.74028 10.1437C2.76745 9.98321 2.80583 9.8246 2.8554 9.66789C2.87092 9.57617 2.90691 9.4997 2.96335 9.4385C3.0198 9.37729 3.06505 9.31419 3.0991 9.2492C3.18571 9.14593 3.28158 9.05602 3.38672 8.97947C3.49185 8.90291 3.59699 8.82636 3.70213 8.74981C3.75081 8.73447 3.8107 8.72102 3.88179 8.70947C3.95288 8.69791 4.02591 8.6749 4.10088 8.64041C4.20213 8.58679 4.33355 8.4911 4.49513 8.35335C4.9363 8.33368 5.40464 8.1535 5.90016 7.81282C5.9342 7.74782 5.96825 7.68282 6.0023 7.61783C6.06263 7.53369 6.11176 7.44767 6.14969 7.35974C6.49825 7.20646 6.71196 7.10111 6.79081 7.0437C6.89594 6.96715 7.05215 6.79311 7.25942 6.52157C7.31376 6.20055 7.18994 5.97911 6.88795 5.85723C6.64928 5.76966 6.39747 5.69165 6.13253 5.62322C5.89386 5.53565 5.65132 5.471 5.40489 5.42928C4.88964 5.34207 4.38647 5.11538 3.89539 4.74921C3.78426 4.58888 3.71062 4.4113 3.67446 4.21649C3.66071 4.02547 3.62649 3.8192 3.57182 3.59766C3.65843 3.49439 3.73385 3.38922 3.79806 3.28216C3.86615 3.15217 3.9323 3.03363 3.99652 2.92657C3.99352 2.80813 3.99052 2.68969 3.98752 2.57125C3.98453 2.45281 3.97033 2.33247 3.94493 2.21024C4.02079 2.03439 4.09276 1.88146 4.16086 1.75147C4.23283 1.59855 4.2488 1.43614 4.20876 1.26426C4.23504 1.24512 4.24819 1.23555 4.24819 1.23555C4.25207 1.21262 4.26716 1.19159 4.29344 1.17245C4.42874 1.05384 4.5621 0.946682 4.69351 0.850994C4.85122 0.73617 4.99772 0.619451 5.13302 0.500833C5.69696 0.572707 6.12649 0.621826 6.4216 0.648195C6.71672 0.674563 6.98554 0.720067 7.22809 0.78471C7.49692 0.830215 7.82713 0.92149 8.21873 1.05854C8.63273 1.19938 9.22939 1.41831 10.0087 1.71533C10.0798 1.70378 10.1509 1.69222 10.222 1.68067C10.2931 1.66912 10.3642 1.65756 10.4352 1.64601C10.4986 1.68032 10.5638 1.70316 10.631 1.71453C10.6982 1.72591 10.7635 1.74875 10.8268 1.78306C11.0177 1.74461 11.1862 1.70236 11.3322 1.65633C11.5007 1.61408 11.6414 1.53175 11.7543 1.40935C11.8896 1.29073 12.0167 1.28866 12.1355 1.40313C12.2768 1.52139 12.422 1.61672 12.5711 1.68913C12.724 1.7386 12.875 1.79954 13.024 1.87194C13.2179 1.95193 13.3928 2.07588 13.5487 2.2438C13.653 2.30862 13.7329 2.38111 13.7885 2.46128C13.8664 2.54523 13.9463 2.61772 14.0282 2.67875L14.1626 2.7015C14.3496 2.68598 14.4499 2.77373 14.4637 2.96475C14.4697 3.20163 14.4888 3.42895 14.5211 3.64669C14.5572 3.8415 14.6289 4.03054 14.7362 4.2138C14.7275 4.40103 14.7096 4.5749 14.6825 4.7354C14.6777 4.8997 14.671 5.07547 14.6623 5.2627C14.6585 5.28563 14.6414 5.31813 14.6113 5.3602C14.6074 5.38313 14.6016 5.41752 14.5938 5.46338C14.5365 5.66595 14.429 5.82465 14.2713 5.93948C14.1174 6.03137 14.0026 6.16525 13.9267 6.3411C13.8733 6.52075 13.7658 6.67944 13.6042 6.8172C13.4689 6.93581 13.3336 7.05443 13.1983 7.17305C13.0815 7.31839 12.9555 7.45037 12.8202 7.56899C12.6849 7.6876 12.5291 7.79096 12.3529 7.87907C12.2964 7.94027 12.2268 8.01105 12.1441 8.09139C12.0653 8.1488 11.9976 8.20811 11.9412 8.26931C11.9149 8.28845 11.8847 8.33052 11.8507 8.39552C11.8205 8.43758 11.8015 8.48155 11.7938 8.52741C11.7558 8.61533 11.7515 8.70895 11.7808 8.80825C11.8364 8.88841 11.8734 8.94186 11.8919 8.96858C12.0897 9.02564 12.246 9.12287 12.361 9.26027C12.4799 9.37474 12.6251 9.47007 12.7966 9.54627C12.9495 9.59574 13.0854 9.67772 13.2043 9.79219C13.3495 9.88752 13.4834 9.98096 13.6062 10.0725C13.7962 10.1754 13.973 10.2879 14.1367 10.41C14.3267 10.5129 14.5055 10.6139 14.673 10.713C14.7919 10.8275 14.9108 10.942 15.0297 11.0564C15.1486 11.1709 15.23 11.3026 15.2739 11.4516C15.4251 11.7838 15.6254 12.03 15.8748 12.1901C15.9519 12.4155 16.0105 12.6141 16.0505 12.7859C16.1129 12.9616 16.1846 13.1507 16.2656 13.3531C16.3418 13.7198 16.3411 14.1324 16.2634 14.591C16.3375 14.6979 16.3892 14.801 16.4185 14.9003C16.4516 14.9767 16.4867 15.0416 16.5238 15.095C16.4966 15.2555 16.4694 15.416 16.4423 15.5765C16.419 15.7141 16.4293 15.8574 16.4732 16.0063C16.487 16.1973 16.4745 16.4075 16.4356 16.6368C16.4231 16.847 16.4461 17.0513 16.5047 17.2499ZM7.1458 21.0789C7.1428 20.9604 7.13786 20.8535 7.13098 20.758C7.12799 20.6395 7.13619 20.523 7.1556 20.4083C7.04835 20.2251 6.97666 20.036 6.9405 19.8412C6.90434 19.6464 6.8083 19.465 6.65237 19.2971C6.60756 19.2895 6.56276 19.282 6.51795 19.2744C6.49943 19.2476 6.47898 19.2324 6.45657 19.2286L5.65008 19.0921C5.24207 19.1881 4.96609 19.3891 4.82214 19.6949C4.67043 20.0466 4.66627 20.4115 4.80967 20.7896C4.82819 20.8163 4.83552 20.8411 4.83164 20.8641C4.85016 20.8908 4.86674 20.929 4.88138 20.9786C4.98475 21.1848 5.12604 21.3031 5.30525 21.3334C5.52928 21.3713 5.7421 21.4074 5.94373 21.4415C6.14535 21.4756 6.3601 21.5002 6.58801 21.5152C6.70002 21.5341 6.81054 21.4939 6.91956 21.3944C7.05097 21.2987 7.12639 21.1935 7.1458 21.0789Z" fill="black"/>
</svg>
