<svg width="19" height="31" viewBox="0 0 19 31" fill="none" xmlns="http://www.w3.org/2000/svg">
<path d="M19 16.1913C18.9692 16.2221 18.9537 16.2838 18.9537 16.3763C18.9846 16.438 18.9846 16.4843 18.9537 16.5151C18.707 16.731 18.5374 16.9932 18.4449 17.3016C18.3523 17.5791 18.2136 17.8413 18.0285 18.088C17.8743 18.4889 17.6893 18.8744 17.4734 19.2445C17.2575 19.5838 17.1187 19.9693 17.057 20.401C17.0262 20.5552 16.9645 20.694 16.872 20.8174C16.7795 20.9407 16.7024 21.0795 16.6407 21.2337C16.6407 21.3571 16.6253 21.4959 16.5944 21.6501C16.5944 21.7734 16.5944 21.8814 16.5944 21.9739C16.3785 22.4057 16.0547 22.5753 15.623 22.4828C15.4071 22.3594 15.0987 22.3594 14.6977 22.4828C14.6052 22.5136 14.4973 22.529 14.3739 22.529C14.2814 22.529 14.1889 22.529 14.0963 22.529C13.973 22.4365 13.8342 22.3594 13.68 22.2977C13.5566 22.2052 13.4178 22.1127 13.2636 22.0202C13.1711 21.9585 13.0632 21.9122 12.9398 21.8814C12.8165 21.8505 12.6931 21.8197 12.5697 21.7889C12.4464 21.6655 12.323 21.5576 12.1997 21.465C12.1071 21.3417 11.9838 21.2183 11.8296 21.095C11.552 20.9716 11.2436 20.8636 10.9043 20.7711C10.5959 20.6478 10.2567 20.5244 9.8866 20.401C9.76324 20.401 9.60904 20.401 9.424 20.401C9.23896 20.3702 9.05391 20.3548 8.86887 20.3548C8.4371 20.3548 8.17496 20.5398 8.08244 20.9099C7.95907 21.2183 7.86654 21.5421 7.80486 21.8814C7.77402 22.1898 7.77402 22.4982 7.80486 22.8066C7.8357 22.9608 7.85113 23.115 7.85113 23.2692C7.88197 23.4234 7.89739 23.5776 7.89739 23.7318C7.98991 24.3486 7.97449 24.9192 7.85113 25.4435C7.72776 26.0294 7.63525 26.6463 7.57357 27.2939C7.57357 27.5715 7.57357 27.849 7.57357 28.1266C7.60441 28.3733 7.61983 28.6201 7.61983 28.8668C7.55815 29.1443 7.46562 29.4065 7.34226 29.6532C7.21889 29.8999 7.03385 30.1312 6.78712 30.3471C6.47872 30.378 6.15489 30.4396 5.81565 30.5322C5.4764 30.6247 5.13716 30.7018 4.79791 30.7635C4.70539 30.7018 4.59745 30.6401 4.47408 30.5784C4.35072 30.5476 4.24278 30.5167 4.15026 30.4859C3.71849 30.4242 3.28673 30.4396 2.85496 30.5322C2.45403 30.6247 2.03768 30.6093 1.60591 30.4859L1.05078 27.479C0.989098 27.4173 0.927416 27.3556 0.865735 27.2939C0.804054 27.2014 0.742371 27.1397 0.68069 27.1089C0.711531 26.9855 0.726955 26.8776 0.726955 26.785C0.726955 26.6617 0.74238 26.5383 0.77322 26.415C0.74238 26.2916 0.726955 26.1528 0.726955 25.9986C0.757796 25.8136 0.742371 25.6594 0.68069 25.536C0.68069 25.4435 0.665281 25.351 0.63444 25.2584C0.63444 25.1351 0.64985 25.0271 0.68069 24.9346C0.804053 24.4412 0.804053 23.9785 0.68069 23.5468C0.64985 23.3926 0.619016 23.2229 0.588175 23.0379C0.557335 22.8529 0.54191 22.6987 0.54191 22.5753C0.54191 22.3286 0.526486 22.1281 0.495646 21.9739C0.495646 21.7889 0.495646 21.5884 0.495646 21.3725C0.588167 21.2183 0.603591 21.0333 0.54191 20.8174C0.51107 20.5707 0.541918 20.3702 0.63444 20.216C0.63444 20.1852 0.64985 20.0772 0.68069 19.8922C0.742371 19.7071 0.77322 19.5838 0.77322 19.5221C0.77322 18.967 0.788644 18.5043 0.819485 18.1343C0.881166 17.7333 0.912 17.2399 0.912 16.6539V15.1273C0.973681 14.7881 0.942847 14.4951 0.819485 14.2483C0.726963 14.0016 0.68069 13.7241 0.68069 13.4156C0.68069 13.1381 0.726963 12.8605 0.819485 12.583C0.912007 12.3054 0.881158 12.0124 0.726955 11.704C0.696114 11.118 0.665281 10.5475 0.63444 9.99235C0.63444 9.43722 0.603591 8.88208 0.54191 8.32695C0.54191 8.20359 0.526486 8.12649 0.495646 8.09565C0.0330369 7.448 -0.105737 6.70783 0.0793059 5.87513C0.202668 5.41252 0.279775 4.94991 0.310615 4.4873C0.341456 4.02469 0.356866 3.54667 0.356866 3.05322C0.356866 2.74481 0.341456 2.4364 0.310615 2.128C0.310615 1.81959 0.341449 1.54203 0.40313 1.2953C0.464812 1.1411 0.557328 1.03316 0.68069 0.971479C0.834893 0.909797 0.973682 0.832696 1.09704 0.740175C1.59049 0.771015 2.06851 0.724754 2.53112 0.601392C2.99373 0.478029 3.47177 0.385507 3.96522 0.323826C4.30446 0.169624 4.65913 0.0925242 5.02922 0.0925242C5.39931 0.061684 5.76939 0.030842 6.13947 0H7.15721C7.46562 0.185045 7.72777 0.400928 7.94366 0.647651C8.19038 0.894376 8.39084 1.1411 8.54504 1.38783C8.57588 1.88127 8.54505 2.35931 8.45252 2.82192C8.39084 3.25368 8.29831 3.68545 8.17495 4.11722C8.20579 4.36394 8.23664 4.62608 8.26748 4.90365C8.29832 5.15038 8.31373 5.3971 8.31373 5.64383C8.31373 5.98307 8.31373 6.32232 8.31373 6.66156C8.31373 7.00081 8.37541 7.34006 8.49878 7.6793C8.49878 7.95687 8.45252 8.24986 8.36 8.55826C8.29831 8.83583 8.26748 9.11339 8.26748 9.39096C8.42168 9.66852 8.48337 9.82272 8.45252 9.85356C8.42169 9.85356 8.59131 9.97692 8.96139 10.2236C9.1156 10.2853 9.25437 10.3008 9.37773 10.2699C9.5011 10.2082 9.60904 10.1774 9.70156 10.1774C9.8866 10.2082 10.0408 10.2699 10.1642 10.3624C10.3184 10.455 10.4572 10.5321 10.5805 10.5937C10.7656 10.7171 11.0123 10.825 11.3207 10.9176C11.5366 11.1643 11.7062 11.4264 11.8296 11.704C11.9838 11.9507 12.2151 12.1512 12.5235 12.3054C12.7702 12.4288 13.0015 12.4596 13.2174 12.3979C13.4641 12.3054 13.7263 12.3054 14.0038 12.3979C14.2505 12.4904 14.4356 12.6601 14.559 12.9068C14.7132 13.1227 14.9445 13.354 15.2529 13.6007C15.3454 13.6624 15.4996 13.7703 15.7155 13.9245C15.9622 14.0479 16.1935 14.1867 16.4094 14.3409C16.4711 14.4334 16.5328 14.5413 16.5944 14.6647C16.687 14.7881 16.764 14.9114 16.8257 15.0348C17.0725 15.0965 17.3038 15.1736 17.5196 15.2661C17.7664 15.3586 17.9977 15.4357 18.2136 15.4974C18.5836 15.5899 18.8458 15.8212 19 16.1913Z" fill="black"/>
</svg>
