<svg width="48" height="45" viewBox="0 0 48 45" fill="none" xmlns="http://www.w3.org/2000/svg">
<path d="M9.42025 12.9891C4.86267 15.2355 7.88598 29.6021 8.63315 34.1977C15.0655 38.64 16.5789 33.644 19.7634 28.4046C25.0709 36.8835 31.3709 35.546 39.0974 31.4282C47.7709 25.9887 45.1343 24.6729 38.2213 18.6249L38.9359 17.893C46.0272 10.7428 30.428 1.02134 17.6437 16.9458C17.0779 16.3734 16.4971 15.8147 15.9043 15.2683C13.6903 13.245 12.3116 12.8574 9.42025 12.9891ZM28.1095 23.6278C27.5296 24.4728 26.4263 25.9759 26.0355 26.8476L25.818 27.6395L25.2857 27.7367C24.0123 26.8071 23.177 25.3946 22.9724 23.8321C22.8362 22.8234 23.0133 22.151 23.5012 21.2941C25.342 22.4362 26.0826 22.9458 28.1095 23.6278ZM34.4169 15.015C33.1164 14.9276 31.3508 14.9725 30.3406 14.3132C30.2507 13.3773 30.2445 13.7075 30.8859 12.7338C32.1696 12.6781 33.146 12.5486 34.3631 13.0027C35.0927 13.7987 35.1045 14.023 34.4169 15.015Z" fill="#FE7F03"/>
<path d="M34.8206 23.0119C33.8589 24.0478 31.8555 27.3371 32.7699 28.6817L33.8346 28.4597C35.3277 27.862 37.3213 26.8284 38.8135 26.1102C37.3256 24.7996 36.4596 24.1247 34.8206 23.0119Z" fill="#FEEEC6"/>
<path d="M23.5014 21.294C23.0135 22.1509 22.8364 22.8234 22.9726 23.8321C23.1772 25.3946 24.0125 26.8071 25.2859 27.7366L25.8182 27.6394L26.0357 26.8475C26.4265 25.9759 27.5298 24.4727 28.1097 23.6278C26.0828 22.9457 25.3422 22.4361 23.5014 21.294Z" fill="#FECA07" fill-opacity="0.878431"/>
<path d="M30.8856 12.7338C30.2442 13.7075 30.2503 13.3773 30.3402 14.3132C31.3505 14.9725 33.1161 14.9275 34.4166 15.015C35.1041 14.023 35.0923 13.7987 34.3627 13.0027C33.1457 12.5486 32.1693 12.6781 30.8856 12.7338Z" fill="#FE9B01" fill-opacity="0.0117647"/>
</svg>
