<svg width="33" height="33" viewBox="0 0 33 33" fill="none" xmlns="http://www.w3.org/2000/svg">
<path d="M11.3822 16.2492C13.9163 18.234 14.46 21.8511 12.621 24.4922C10.7819 27.1333 7.20029 27.8786 4.46001 26.1908C1.71861 24.5026 0.772814 20.9695 2.30451 18.1387C3.83621 15.3079 7.31227 14.166 10.2243 15.537C10.6355 15.7306 11.0237 15.9688 11.3822 16.2492Z" fill="#FD41AE"/>
<path d="M21.827 15.6417C24.544 14.9111 27.3647 16.3999 28.2948 19.0558C29.2252 21.7107 27.9494 24.6342 25.3692 25.7566C22.7898 26.8804 19.7797 25.824 18.4681 23.3341C17.1564 20.8441 17.9875 17.7657 20.3741 16.2739C20.8239 15.9927 21.3134 15.7799 21.827 15.6417Z" fill="#FD41AE"/>
<path d="M21.4796 18.0924C23.0598 18.6616 21.8437 20.4553 20.6246 20.9195C19.018 20.1487 20.2036 18.5642 21.4796 18.0924Z" fill="#FEFEFE"/>
<path d="M10.224 15.537C11.3593 12.4246 14.2831 8.90851 16.6657 6.68689C17.2984 6.09617 21.972 3.3711 22.4675 4.94522C22.3932 5.28979 21.9847 5.97529 21.7435 6.10138C20.2447 6.88701 19.2741 7.21014 17.856 8.18636C19.6403 10.1674 21.0695 13.1011 21.8265 15.6417C21.3129 15.7799 20.8234 15.9927 20.3737 16.274C19.0591 13.0434 18.4653 12.0139 16.7121 8.94576C13.864 11.6502 13.3085 12.8361 11.3819 16.2492C11.0234 15.9688 10.6352 15.7307 10.224 15.537Z" fill="#02743B"/>
</svg>
