<svg width="21" height="23" viewBox="0 0 21 23" fill="none" xmlns="http://www.w3.org/2000/svg">
<path d="M9.14777 0L9.60851 0.182491C10.3747 1.04252 11.478 5.3933 11.7957 6.69526C13.3986 5.29306 15.5611 3.28674 17.2876 2.15492C16.8551 4.01017 15.6335 6.82215 14.8727 8.56444C16.126 8.66222 20.2903 8.73952 21 9.7365L20.9064 10.1198C19.909 11.1009 16.6326 11.9924 15.1498 12.4775C15.7641 13.5038 18.7916 17.9107 17.2134 18.5547C15.8612 18.362 13.4763 16.0677 12.313 15.0971C12.2247 16.8749 11.9899 18.5334 11.7604 20.297C11.5963 21.249 11.5362 22.4939 10.5018 22.8063C9.04716 22.0614 8.72058 17.434 8.53522 15.8606C7.41249 16.5952 5.75135 18.2037 4.55271 18.3749L4.26672 18.1582C4.15197 17.2558 5.93317 13.9615 6.44158 13.0603C5.15997 12.8337 0.151816 12.5345 0 11.2972C0.842048 10.273 4.7416 9.41123 6.13442 9.02278C5.49185 8.16028 3.59943 5.32324 3.67358 4.33543L3.83599 4.21366C4.98167 4.26078 7.20418 6.07066 8.19981 6.78985C8.19628 4.7583 7.88912 1.45726 9.14777 0Z" fill="#02743B"/>
<path d="M10.2709 11.1815C10.744 11.2081 10.8623 11.2533 11.323 11.3864C11.7714 11.8918 11.6566 11.6412 11.729 12.3504C11.2895 12.3519 11.1359 12.3089 10.7175 12.2228C10.2497 11.7249 10.3892 11.9681 10.2709 11.1815Z" fill="#0A813F"/>
</svg>
