<svg width="136" height="129" viewBox="0 0 136 129" fill="none" xmlns="http://www.w3.org/2000/svg">
<path d="M50.9919 9.175C50.787 8.48202 49.0932 5.63576 49.6206 5.15615C52.5441 2.50323 60.8806 1.76918 64.6752 0.852952C72.3215 -0.99403 73.9761 -0.235138 71.6524 7.08476C74.5488 6.38374 87.138 5.64661 90.396 5.52792C95.4594 5.34356 115.074 2.86156 118.465 4.05195C119.625 7.39154 120.128 12.0423 120.725 15.6353L123.588 32.2018C125.252 41.6543 137.549 105.998 135.837 109.278C131.376 112.394 106.316 115.81 99.6156 116.849C88.7715 118.542 77.9394 120.3 67.1194 122.123L38.5384 127.044C35.9133 127.477 28.505 128.857 26.1301 129C24.7979 124.503 22.9684 122.953 19.3909 119.938C19.0564 117.218 17.3927 111.47 16.9165 109.117C14.7495 98.3564 -2.82169 26.598 0.391153 20.2775C5.69265 15.3253 41.6518 10.1155 50.9919 9.175ZM58.4936 4.35769L59.9674 7.06345C60.103 7.05079 60.2357 7.0381 60.3683 7.02542C62.5263 4.81284 64.3496 6.32693 66.9296 7.47386C67.5414 6.16773 68.6294 4.02073 68.9881 2.71768L68.4486 2.61054C65.5944 3.205 61.4261 3.96581 58.4936 4.35769Z" fill="#FE9B01"/>
<path d="M51.0987 9.95736C50.8934 9.20529 49.196 6.11632 49.7246 5.59582C52.6542 2.71668 61.0081 1.92004 64.8106 0.925685C72.4729 -1.07879 74.1311 -0.255188 71.8025 7.68889C71.3404 9.00096 71.0021 10.4284 70.0145 11.3558C68.0483 12.0563 65.62 10.0164 63.6478 11.2004C63.3186 12.5268 63.3488 13.437 62.4156 14.0826C60.8662 13.751 60.1504 12.6054 59.1779 11.3877C57.9275 14.2477 57.8369 14.5348 55.1791 16.0822C53.5965 13.9633 52.4941 12.2057 51.0987 9.95736ZM58.6161 4.72928L60.093 7.66576C60.2289 7.65202 60.3618 7.63825 60.4947 7.62448C62.6572 5.22324 64.4844 6.86643 67.0697 8.11117C67.6828 6.69366 68.7732 4.36359 69.1326 2.94942L68.5919 2.83314C65.7318 3.47829 61.5548 4.30398 58.6161 4.72928Z" fill="#1D1D1D"/>
<path d="M21.2464 30.781L22.5967 30.5813L23.8581 39.1075L22.5078 39.3072L21.2464 30.781ZM16.4732 42.1318L24.4722 40.9484L24.6339 42.0415L16.635 43.2249L16.4732 42.1318ZM16.0661 39.3798L17.4035 39.1819L17.8735 42.3583L16.536 42.5562L16.0661 39.3798ZM16.3728 32.3037C16.9643 32.2162 17.5143 32.2619 18.0226 32.4407C18.5309 32.6196 18.9552 32.9116 19.2955 33.3169C19.6346 33.7135 19.8466 34.199 19.9315 34.7735C20.0153 35.3393 19.9529 35.8654 19.7445 36.3518C19.5361 36.8382 19.2146 37.2406 18.7798 37.559C18.3451 37.8774 17.8319 38.0804 17.2404 38.1679C16.6488 38.2554 16.0989 38.2097 15.5905 38.0309C15.0822 37.852 14.6579 37.5599 14.3176 37.1547C13.9773 36.7495 13.7653 36.264 13.6816 35.6981C13.5966 35.1237 13.6589 34.5976 13.8686 34.1198C14.077 33.6334 14.3985 33.231 14.8333 32.9126C15.268 32.5942 15.7812 32.3912 16.3728 32.3037ZM16.5459 33.474C16.203 33.5247 15.9051 33.6432 15.6523 33.8296C15.3995 34.0159 15.2156 34.2534 15.1006 34.542C14.9844 34.822 14.9529 35.1421 15.0062 35.5022C15.0594 35.8622 15.1829 36.1637 15.3765 36.4067C15.5689 36.6411 15.813 36.8108 16.109 36.916C16.4049 37.0211 16.7243 37.0484 17.0672 36.9976C17.4102 36.9469 17.708 36.8283 17.9608 36.642C18.2136 36.4557 18.3981 36.2225 18.5144 35.9425C18.6379 35.6526 18.6731 35.3276 18.6198 34.9675C18.5665 34.6074 18.4394 34.3109 18.2385 34.0778C18.0449 33.8348 17.8001 33.6608 17.5042 33.5556C17.2083 33.4504 16.8888 33.4232 16.5459 33.474ZM31.0933 36.8543C31.9334 36.73 32.6755 36.7122 33.3194 36.8009C33.9621 36.8811 34.4747 37.0593 34.8572 37.3356C35.2484 37.6107 35.4775 37.9754 35.5448 38.4298C35.612 38.8842 35.4982 39.2996 35.2035 39.6761C34.9173 40.0514 34.4783 40.3704 33.8864 40.6332C33.2945 40.896 32.5784 41.0895 31.7382 41.2138C30.8981 41.3381 30.1566 41.3602 29.514 41.2801C28.8713 41.1999 28.3544 41.0224 27.9633 40.7473C27.5808 40.471 27.3559 40.1056 27.2886 39.6512C27.2214 39.1969 27.3309 38.782 27.617 38.4068C27.9118 38.0303 28.3551 37.7106 28.947 37.4478C29.5377 37.1764 30.2531 36.9786 31.0933 36.8543ZM31.2455 37.8831C30.6711 37.9681 30.1801 38.0845 29.7727 38.2324C29.3739 38.379 29.0763 38.5588 28.8801 38.7719C28.6825 38.9763 28.6022 39.2028 28.6389 39.4515C28.6745 39.6915 28.8163 39.8808 29.0646 40.0193C29.3129 40.1578 29.6498 40.2437 30.0752 40.2771C30.5093 40.3093 31.0135 40.2829 31.5879 40.1979C32.1709 40.1117 32.6612 39.9909 33.0588 39.8357C33.4563 39.6806 33.7539 39.5007 33.9514 39.2963C34.1575 39.0906 34.2428 38.8677 34.2073 38.6276C34.1705 38.379 34.0237 38.1861 33.7669 38.0489C33.5173 37.9018 33.1805 37.8158 32.7563 37.791C32.332 37.7661 31.8285 37.7968 31.2455 37.8831ZM26.0597 30.634L33.5699 29.5229L33.7298 30.6031L26.2195 31.7142L26.0597 30.634ZM25.5496 35.6244L36.1462 34.0567L36.306 35.1369L25.7094 36.7046L25.5496 35.6244ZM29.3966 32.8475L30.734 32.6496L31.0974 35.1059L29.76 35.3037L29.3966 32.8475ZM32.7855 29.6389L34.1229 29.4411L34.2694 30.4313C34.3392 30.9028 34.3986 31.3934 34.4477 31.903C34.4956 32.4041 34.4831 32.971 34.4103 33.6038L33.0647 33.6583C33.129 33.0268 33.1398 32.4777 33.097 32.0109C33.0542 31.5441 32.9992 31.0835 32.932 30.6292L32.7855 29.6389ZM39.8158 29.821L40.896 29.6612L41.1396 31.3072C41.236 31.9588 41.2533 32.6089 41.1916 33.2576C41.1286 33.8977 40.9877 34.5143 40.7688 35.1074C40.5584 35.6993 40.2786 36.2357 39.9292 36.7166C39.5799 37.1976 39.1749 37.5992 38.7145 37.9214L37.7721 36.9701C38.1948 36.6885 38.5638 36.3404 38.8792 35.9258C39.2031 35.5099 39.4644 35.0551 39.6629 34.5614C39.8602 34.0591 39.9943 33.5443 40.0652 33.0169C40.1361 32.4895 40.1342 31.9729 40.0593 31.4671L39.8158 29.821ZM40.0987 29.7791L41.179 29.6193L41.4225 31.2654C41.4948 31.7541 41.6393 32.2277 41.8561 32.6862C42.0729 33.1448 42.3459 33.5687 42.6751 33.9581C43.0043 34.3474 43.3779 34.682 43.796 34.9618C44.2142 35.2416 44.6693 35.4459 45.1614 35.5746L44.5735 36.7523C44.0248 36.5969 43.5156 36.3525 43.0457 36.019C42.5758 35.6855 42.1528 35.2838 41.7766 34.8138C41.4078 34.3339 41.0981 33.8103 40.8477 33.2428C40.6046 32.6655 40.4361 32.0596 40.3423 31.4252L40.0987 29.7791ZM37.1177 29.6156L43.702 28.6415L43.8676 29.7603L37.2832 30.7345L37.1177 29.6156ZM44.894 27.2824L46.2443 27.0827L47.9832 38.8367L46.6329 39.0365L44.894 27.2824ZM50.2659 29.6679L58.2906 28.4807L58.4504 29.5609L50.4257 30.7482L50.2659 29.6679ZM49.8359 26.7616L51.1734 26.5637L51.6738 29.9459L50.3363 30.1437L49.8359 26.7616ZM49.2138 32.1496L59.8362 30.5781L59.9979 31.6712L49.3755 33.2427L49.2138 32.1496ZM54.7832 33.3757C56.0521 33.188 57.0702 33.2301 57.8376 33.5021C58.6136 33.7727 59.0523 34.251 59.1538 34.9369C59.2552 35.6227 58.9738 36.2076 58.3094 36.6913C57.6537 37.1738 56.6913 37.509 55.4225 37.6967C54.1708 37.8819 53.1569 37.8391 52.381 37.5684C51.605 37.2978 51.1663 36.8195 51.0648 36.1336C50.9633 35.4477 51.2448 34.8629 51.9091 34.3792C52.5735 33.8954 53.5315 33.5609 54.7832 33.3757ZM54.9373 34.4174C54.3715 34.5011 53.8934 34.6156 53.5032 34.761C53.1129 34.9063 52.8227 35.0763 52.6324 35.2709C52.4508 35.4642 52.3783 35.6852 52.4151 35.9338C52.4506 36.1739 52.5833 36.3601 52.8132 36.4926C53.0516 36.6238 53.3786 36.7024 53.7943 36.7286C54.2099 36.7547 54.7006 36.7259 55.2665 36.6422C55.8495 36.5559 56.3318 36.4407 56.7135 36.2967C57.1037 36.1513 57.3897 35.982 57.5714 35.7886C57.753 35.5953 57.8261 35.3786 57.7906 35.1386C57.7538 34.8899 57.6205 34.6994 57.3906 34.5669C57.1608 34.4345 56.838 34.3552 56.4224 34.3291C56.0153 34.3017 55.5203 34.3311 54.9373 34.4174ZM61.1358 31.1086L71.7582 29.537L71.918 30.6173L61.2956 32.1888L61.1358 31.1086ZM63.0996 35.2336L71.2143 34.033L71.376 35.1261L63.2614 36.3267L63.0996 35.2336ZM62.7572 32.9188L64.1075 32.719L64.5013 35.381L63.151 35.5808L62.7572 32.9188ZM65.6003 24.6001C66.4405 24.4758 67.1875 24.4616 67.8412 24.5577C68.495 24.6537 69.02 24.8564 69.4162 25.1657C69.8197 25.4652 70.0576 25.8593 70.1299 26.348C70.2035 26.8452 70.0911 27.2999 69.7929 27.712C69.502 28.1142 69.0582 28.4602 68.4615 28.75C67.8635 29.0312 67.1445 29.234 66.3043 29.3583C65.4555 29.4839 64.7043 29.4986 64.0505 29.4026C63.3955 29.298 62.8662 29.096 62.4627 28.7965C62.0665 28.4871 61.8316 28.0838 61.758 27.5866C61.6857 27.0979 61.795 26.6524 62.086 26.2502C62.3842 25.8381 62.8323 25.4915 63.4303 25.2103C64.0282 24.9291 64.7516 24.7257 65.6003 24.6001ZM65.7601 25.6803C65.1857 25.7653 64.6961 25.8903 64.2912 26.0554C63.8863 26.2204 63.5821 26.4143 63.3785 26.6372C63.1835 26.8588 63.1063 27.1068 63.1469 27.3811C63.1875 27.6554 63.3338 27.8747 63.5859 28.0389C63.8466 28.2019 64.1946 28.3037 64.6299 28.3444C65.0652 28.3852 65.57 28.363 66.1445 28.2781C66.7189 28.1931 67.2085 28.0681 67.6134 27.903C68.0183 27.738 68.3176 27.5404 68.5113 27.3102C68.705 27.0801 68.7816 26.8278 68.741 26.5535C68.7004 26.2791 68.5547 26.0641 68.3039 25.9085C68.0531 25.7529 67.71 25.6547 67.2747 25.6139C66.8394 25.5732 66.3346 25.5953 65.7601 25.6803ZM76.2845 23.7553L81.7886 22.941L82.9378 30.7084L77.4337 31.5228L76.2845 23.7553ZM80.6367 24.2153L77.7689 24.6396L78.6004 30.2594L81.4682 29.8351L80.6367 24.2153ZM83.8112 21.5116L85.1615 21.3118L86.9043 33.0916L85.554 33.2914L83.8112 21.5116ZM92.5575 24.4097L94.6794 24.0958L94.843 25.2018L92.7211 25.5157L92.5575 24.4097ZM89.7827 21.732L90.8244 21.5779L91.1383 23.6998C91.2322 24.3342 91.2648 24.969 91.2361 25.604C91.2147 26.2292 91.1325 26.8283 90.9895 27.4014C90.8465 27.9745 90.6401 28.5044 90.3705 28.9911C90.0995 29.4693 89.7608 29.8742 89.3543 30.2059L88.3681 29.3137C88.7514 29.0029 89.0701 28.6403 89.3242 28.226C89.5783 27.8117 89.7746 27.3621 89.9132 26.8773C90.0603 26.3912 90.1442 25.8926 90.165 25.3814C90.193 24.8603 90.1702 24.3512 90.0967 23.8539L89.7827 21.732ZM90.0528 21.692L91.0816 21.5398L91.386 23.5974C91.4558 24.069 91.569 24.5385 91.7258 25.0059C91.8899 25.4635 92.0979 25.8926 92.35 26.2934C92.602 26.6942 92.8961 27.0536 93.2323 27.3719C93.5685 27.6901 93.9522 27.9443 94.3833 28.1346L93.7916 29.2866C93.3064 29.0868 92.8699 28.801 92.482 28.4291C92.1013 28.0473 91.7694 27.6102 91.4863 27.1177C91.2019 26.6166 90.9651 26.0821 90.776 25.5144C90.5856 24.938 90.446 24.3498 90.3572 23.7497L90.0528 21.692ZM96.0658 19.6986L97.3518 19.5083L99.0908 31.2624L97.8048 31.4526L96.0658 19.6986ZM93.7081 20.2839L94.9684 20.0975L96.5913 31.0671L95.331 31.2535L93.7081 20.2839ZM106.985 18.0962L108.322 17.8984L109.624 26.6946L108.286 26.8925L106.985 18.0962ZM108.477 21.6996L110.535 21.3952L110.7 22.514L108.643 22.8184L108.477 21.6996ZM99.3638 20.5905L106.295 19.565L106.453 20.6324L99.5217 21.6579L99.3638 20.5905ZM103.076 21.6971C103.633 21.6147 104.14 21.6361 104.597 21.7613C105.052 21.8779 105.424 22.0856 105.714 22.3845C106.003 22.6833 106.181 23.0556 106.247 23.5014C106.312 23.9387 106.249 24.3422 106.058 24.7121C105.868 25.082 105.572 25.3929 105.171 25.645C104.77 25.897 104.291 26.0643 103.734 26.1467C103.168 26.2304 102.657 26.2097 102.2 26.0845C101.744 25.9593 101.371 25.7473 101.081 25.4484C100.792 25.1496 100.615 24.7815 100.55 24.3443C100.484 23.8985 100.546 23.4906 100.737 23.1208C100.928 22.7509 101.224 22.4442 101.626 22.2008C102.027 21.9487 102.51 21.7809 103.076 21.6971ZM103.228 22.7259C102.765 22.7944 102.404 22.9574 102.144 23.2149C101.884 23.4723 101.781 23.7854 101.836 24.154C101.891 24.5227 102.079 24.7926 102.403 24.9638C102.725 25.1265 103.117 25.1735 103.58 25.105C104.043 25.0365 104.401 24.8785 104.653 24.6309C104.904 24.3747 105.003 24.0623 104.948 23.6936C104.894 23.325 104.709 23.0544 104.394 22.8819C104.08 22.7094 103.691 22.6574 103.228 22.7259ZM101.957 18.8402L103.307 18.6404L103.585 20.518L102.234 20.7177L101.957 18.8402ZM102.43 29.4147L110.352 28.2427L110.514 29.3358L102.592 30.5078L102.43 29.4147ZM102.09 27.1128L103.44 26.913L103.851 29.6907L102.501 29.8905L102.09 27.1128ZM18.3939 48.3628L19.4998 48.1992L19.7852 50.1282C19.8905 50.8398 19.9148 51.5371 19.8581 52.2201C19.8015 52.903 19.6656 53.5539 19.4505 54.1727C19.244 54.7903 18.9631 55.3487 18.6077 55.8481C18.2608 56.3463 17.8407 56.7632 17.3472 57.0991L16.3734 56.113C16.8132 55.8289 17.1944 55.4746 17.5171 55.0502C17.8471 54.6158 18.1095 54.139 18.3042 53.6196C18.5075 53.0989 18.6415 52.5534 18.7061 51.9831C18.7706 51.4129 18.7617 50.8491 18.6792 50.2918L18.3939 48.3628ZM18.6382 48.3267L19.7442 48.1631L20.0295 50.0921C20.1095 50.6322 20.2567 51.1536 20.4712 51.6563C20.6943 52.1577 20.973 52.6202 21.3073 53.0438C21.6416 53.4675 22.0233 53.8271 22.4526 54.1228C22.8818 54.4185 23.3395 54.6399 23.8256 54.7871L23.2009 55.9834C22.6412 55.8121 22.1244 55.5469 21.6508 55.1877C21.1771 54.8284 20.7539 54.3961 20.3812 53.8905C20.0086 53.3849 19.6975 52.8221 19.4481 52.2019C19.1986 51.5817 19.0238 50.933 18.9236 50.2557L18.6382 48.3267ZM23.5733 46.5978L24.9236 46.398L26.6664 58.1778L25.3161 58.3776L23.5733 46.5978ZM34.9148 44.9198L36.2523 44.722L37.2683 51.5892L35.9308 51.7871L34.9148 44.9198ZM36.3165 47.643L38.3355 47.3443L38.501 48.4631L36.482 48.7619L36.3165 47.643ZM31.7164 46.129L33.131 45.9197C33.2806 46.9313 33.1965 47.8725 32.8784 48.743C32.5677 49.6038 32.047 50.3773 31.3163 51.0637C30.5855 51.75 29.6685 52.3325 28.5654 52.8111L27.8435 51.8403C28.8086 51.4347 29.598 50.9674 30.2119 50.4386C30.8331 49.8999 31.2769 49.3173 31.5434 48.6909C31.8185 48.0632 31.9072 47.4193 31.8096 46.7591L31.7164 46.129ZM27.6654 46.7283L32.488 46.0148L32.6478 47.0951L27.8253 47.8085L27.6654 46.7283ZM29.6284 53.2452L37.3444 52.1036L37.9932 56.4889L36.6557 56.6868L36.1667 53.3817L29.7882 54.3254L29.6284 53.2452ZM41.958 45.1L43.064 44.9364L43.1915 45.798C43.298 46.5181 43.266 47.2194 43.0953 47.9017C42.9332 48.5828 42.6434 49.1995 42.2257 49.7519C41.8081 50.3043 41.2704 50.7562 40.6128 51.1076L39.7604 50.1429C40.1993 49.9115 40.5754 49.6412 40.8889 49.332C41.2109 49.0215 41.4715 48.6807 41.6707 48.3096C41.8686 47.9299 41.9996 47.5425 42.0638 47.1475C42.1354 46.7427 42.1426 46.3474 42.0855 45.9616L41.958 45.1ZM42.2281 45.06L43.3212 44.8983L43.4468 45.7471C43.5191 46.2357 43.6966 46.6957 43.9794 47.127C44.2623 47.5582 44.6367 47.9277 45.1028 48.2355C45.5676 48.5347 46.111 48.7434 46.733 48.8617L46.2203 50.0151C45.5087 49.8838 44.8787 49.6222 44.3301 49.2303C43.79 48.8371 43.3507 48.3545 43.012 47.7826C42.6733 47.2107 42.4539 46.5861 42.3537 45.9088L42.2281 45.06ZM45.6909 46.3481L48.1214 45.9885L48.2851 47.0945L45.8545 47.4541L45.6909 46.3481ZM39.4094 45.0171L45.698 44.0867L45.8578 45.1669L39.5693 46.0973L39.4094 45.0171ZM41.8658 51.6712L49.7747 50.5011L50.3892 54.6549L49.0389 54.8547L48.5842 51.7812L42.0256 52.7515L41.8658 51.6712ZM47.2999 43.1006L48.6502 42.9009L49.6872 49.9096L48.3369 50.1094L47.2999 43.1006ZM62.0038 40.9121L63.3412 40.7142L64.6007 49.2276L63.2633 49.4254L62.0038 40.9121ZM63.4539 44.1406L65.5115 43.8362L65.6751 44.9422L63.6175 45.2466L63.4539 44.1406ZM55.4598 47.3997L56.4114 47.2589C57.2345 47.1371 57.9448 47.0233 58.5424 46.9174C59.1486 46.8102 59.6965 46.694 60.1861 46.569C60.6745 46.4355 61.1597 46.2804 61.6417 46.104L61.943 47.1633C61.4524 47.341 60.9543 47.4979 60.4488 47.6341C59.942 47.7616 59.3776 47.8845 58.7555 48.0028C58.1421 48.1199 57.4152 48.2406 56.5751 48.3649L55.6234 48.5057L55.4598 47.3997ZM54.8053 42.9759L60.0265 42.2034L60.1882 43.2965L56.3173 43.8692L56.8976 47.7915L55.5473 47.9913L54.8053 42.9759ZM57.4511 52.2434L65.3729 51.0714L65.5346 52.1645L57.6128 53.3365L57.4511 52.2434ZM57.0383 49.4528L58.3886 49.253L58.8794 52.5709L57.5291 52.7707L57.0383 49.4528ZM72.4629 43.3072L75.665 42.8334L75.8268 43.9265L72.6246 44.4003L72.4629 43.3072ZM69.0384 40.857L70.1315 40.6952L70.4169 42.6242C70.5197 43.3187 70.547 44.0068 70.4989 44.6885C70.4496 45.3616 70.3259 46.0063 70.128 46.6226C69.9373 47.229 69.6735 47.7849 69.3365 48.2904C69.0069 48.786 68.6081 49.1998 68.1404 49.5318L67.1465 48.5881C67.5765 48.2967 67.9436 47.9357 68.2479 47.5052C68.5608 47.0735 68.8103 46.5985 68.9964 46.0803C69.1899 45.5523 69.3116 45.0131 69.3616 44.4625C69.4189 43.9021 69.4063 43.3432 69.3238 42.786L69.0384 40.857ZM69.3085 40.817L70.3887 40.6572L70.6741 42.5862C70.754 43.1263 70.8976 43.6526 71.1048 44.1651C71.3194 44.6678 71.5895 45.1316 71.9152 45.5565C72.2396 45.9729 72.6085 46.3344 73.0219 46.6412C73.4352 46.9481 73.8843 47.1707 74.3691 47.3093L73.7188 48.5094C73.1749 48.327 72.6747 48.0549 72.2182 47.6932C71.7604 47.3229 71.3537 46.8837 70.9982 46.3756C70.6427 45.8675 70.3451 45.307 70.1055 44.6941C69.8646 44.0727 69.6941 43.4233 69.5939 42.746L69.3085 40.817ZM74.4127 39.0762L75.763 38.8765L77.5058 50.6562L76.1555 50.856L74.4127 39.0762ZM78.6296 43.9586L89.2777 42.3833L89.4242 43.3735L78.7761 44.9489L78.6296 43.9586ZM80.1287 45.5635L88.2305 44.3649L88.6186 46.9883L81.8671 47.9872L82.0478 49.2089L80.7233 49.4049L80.4131 47.3087L87.1646 46.3098L87.0429 45.4868L80.2656 46.4895L80.1287 45.5635ZM80.6757 49.0834L89.1119 47.8353L89.2507 48.774L80.8146 50.0222L80.6757 49.0834ZM79.1989 38.6572L87.1849 37.4757L87.5693 40.0734L80.9335 41.0552L81.1009 42.1869L79.7764 42.3828L79.4795 40.3767L86.1025 39.3968L85.9864 38.6124L79.3378 39.596L79.1989 38.6572ZM79.7326 42.0871L87.8987 40.8789L88.0376 41.8177L79.8715 43.0258L79.7326 42.0871ZM101.426 35.0928L102.777 34.893L103.688 41.053L102.338 41.2527L101.426 35.0928ZM96.0864 46.6983L96.8194 46.5898C97.4109 46.5023 97.9247 46.4219 98.3607 46.3487C98.7967 46.2754 99.2007 46.1937 99.5729 46.1036C99.9523 46.0037 100.338 45.8896 100.731 45.7614L101.008 46.7454C100.608 46.8835 100.213 46.9988 99.8242 47.0915C99.4349 47.1841 99.0136 47.2683 98.5605 47.3441C98.1087 47.4285 97.5784 47.5157 96.9697 47.6058L96.2367 47.7142L96.0864 46.6983ZM95.4803 42.7798L99.4412 42.1938L99.8674 45.0744L97.2311 45.4644L97.4708 47.0848L96.172 47.277L95.7915 44.705L98.4278 44.3149L98.2927 43.4019L95.6306 43.7957L95.4803 42.7798ZM99.9171 42.1234L103.762 41.5545L104.506 46.5828L103.169 46.7806L102.586 42.8455L100.079 43.2165L99.9171 42.1234ZM96.4723 36.3382C97.0638 36.2507 97.6082 36.2884 98.1054 36.4514C98.6014 36.6058 99.012 36.8649 99.3374 37.2285C99.6615 37.5835 99.8623 38.0226 99.9397 38.5455C100.017 39.0685 99.9526 39.5511 99.7465 39.9934C99.5403 40.4357 99.2229 40.8068 98.7942 41.1068C98.3642 41.3982 97.8534 41.5876 97.2619 41.6751C96.6703 41.7627 96.1265 41.7292 95.6306 41.5748C95.1334 41.4118 94.7178 41.1491 94.3839 40.7868C94.0585 40.4232 93.8571 39.9799 93.7797 39.4569C93.7023 38.9339 93.7674 38.4556 93.9748 38.0219C94.1895 37.5783 94.5119 37.2109 94.9419 36.9195C95.3706 36.6195 95.8807 36.4258 96.4723 36.3382ZM96.634 37.4313C96.2911 37.4821 95.9969 37.5957 95.7514 37.7722C95.5046 37.9401 95.3212 38.1512 95.2011 38.4055C95.0811 38.6598 95.0445 38.9456 95.0914 39.2628C95.1384 39.58 95.2567 39.8473 95.4466 40.0645C95.6352 40.2731 95.8725 40.4264 96.1585 40.5242C96.4433 40.6135 96.7572 40.6328 97.1001 40.582C97.4431 40.5313 97.7379 40.422 97.9847 40.2541C98.2301 40.0776 98.4129 39.8622 98.533 39.6078C98.6518 39.345 98.6877 39.0549 98.6408 38.7377C98.5939 38.4205 98.4761 38.1576 98.2876 37.9489C98.099 37.7403 97.8623 37.5913 97.5775 37.502C97.2914 37.4042 96.9769 37.3806 96.634 37.4313ZM20.8856 64.0501C21.4686 63.9638 22.0083 64.0592 22.5049 64.3362C23.0014 64.6131 23.424 65.0412 23.7725 65.6205C24.121 66.1997 24.3574 66.9094 24.4817 67.7496C24.6073 68.5984 24.5878 69.3547 24.4232 70.0186C24.2573 70.6739 23.9768 71.206 23.5818 71.6149C23.1854 72.0153 22.6957 72.2585 22.1128 72.3448C21.5383 72.4298 20.9992 72.3387 20.4954 72.0716C19.9988 71.7946 19.5763 71.3665 19.2277 70.7873C18.8865 70.1982 18.6531 69.4793 18.5276 68.6305C18.4032 67.7903 18.4197 67.0432 18.5771 66.3891C18.7429 65.7338 19.0234 65.2017 19.4185 64.7928C19.8221 64.3826 20.3112 64.1351 20.8856 64.0501ZM21.0663 65.2718C20.732 65.3212 20.4533 65.4807 20.2304 65.7503C20.016 66.0185 19.8683 66.3821 19.7872 66.8409C19.7147 67.2984 19.7235 67.8315 19.8136 68.4402C19.9049 69.0575 20.0515 69.5746 20.2533 69.9916C20.4638 70.4073 20.7111 70.7167 20.9952 70.92C21.2867 71.1134 21.5996 71.1854 21.9339 71.1359C22.2768 71.0852 22.5555 70.9257 22.7699 70.6574C22.9916 70.3793 23.1387 70.0115 23.2111 69.554C23.2922 69.0952 23.2871 68.5571 23.1957 67.9399C23.1057 67.3311 22.9554 66.819 22.745 66.4033C22.5431 65.9863 22.2965 65.6811 22.005 65.4877C21.7222 65.293 21.4093 65.221 21.0663 65.2718ZM26.005 62.4122L27.3553 62.2124L29.0981 73.9922L27.7478 74.192L26.005 62.4122ZM23.9641 67.1822L27.2306 66.699L27.3923 67.7921L24.1259 68.2753L23.9641 67.1822ZM35.8084 62.2759L36.9144 62.1123L37.0419 62.9739C37.1497 63.7027 37.1225 64.4076 36.9605 65.0886C36.7984 65.7697 36.5085 66.3864 36.0909 66.9388C35.672 67.4827 35.1294 67.9309 34.4632 68.2835L33.6237 67.317C34.2092 67.0113 34.6878 66.6339 35.0594 66.1847C35.431 65.7354 35.6878 65.2506 35.8298 64.7302C35.9792 64.2 36.0145 63.6691 35.9359 63.1376L35.8084 62.2759ZM36.0785 62.236L37.1716 62.0743L37.2991 62.9359C37.3701 63.416 37.5457 63.8631 37.826 64.2772C38.1063 64.6913 38.4782 65.0437 38.9418 65.3343C39.404 65.6164 39.9449 65.8079 40.5643 65.909L40.0774 67.0587C39.3499 66.9385 38.7138 66.6953 38.169 66.3291C37.6328 65.9616 37.1966 65.5005 36.8605 64.9457C36.5231 64.3824 36.3049 63.7663 36.206 63.0976L36.0785 62.236ZM33.247 62.195L39.5613 61.2608L39.723 62.3539L33.4087 63.2881L33.247 62.195ZM40.6869 60.2532L42.0244 60.0553L43.0632 67.0769L41.7257 67.2748L40.6869 60.2532ZM42.0866 62.9635L44.1057 62.6648L44.2693 63.7708L42.2503 64.0695L42.0866 62.9635ZM39.3223 67.9063C40.1282 67.7871 40.8359 67.7744 41.4456 67.8681C42.0539 67.9534 42.5414 68.1397 42.9081 68.4271C43.2735 68.706 43.4905 69.0769 43.559 69.5398C43.6287 70.0114 43.5291 70.4335 43.2601 70.8062C42.9924 71.1875 42.5797 71.507 42.022 71.7647C41.4657 72.031 40.7846 72.2238 39.9787 72.343C39.1728 72.4622 38.4607 72.4756 37.8425 72.3831C37.2342 72.2979 36.7467 72.1115 36.38 71.8241C36.0231 71.544 35.8098 71.1682 35.7401 70.6966C35.6716 70.2337 35.7676 69.8165 36.028 69.445C36.2958 69.0637 36.7084 68.7442 37.2661 68.4865C37.831 68.2189 38.5164 68.0255 39.3223 67.9063ZM39.4802 68.9737C38.9401 69.0536 38.4835 69.165 38.1103 69.3078C37.7372 69.4506 37.4605 69.6229 37.2801 69.8249C37.0997 70.0268 37.0279 70.252 37.0647 70.5007C37.1027 70.7579 37.2379 70.9613 37.4703 71.1109C37.7015 71.2519 38.0169 71.341 38.4167 71.3782C38.8151 71.4069 39.2844 71.3813 39.8246 71.3014C40.3733 71.2202 40.8299 71.1088 41.1944 70.9673C41.5663 70.8159 41.8424 70.6392 42.0228 70.4373C42.2019 70.2268 42.2724 69.993 42.2344 69.7358C42.1976 69.4872 42.0637 69.2924 41.8325 69.1513C41.6014 69.0103 41.2866 68.9255 40.8881 68.8968C40.4982 68.8669 40.0289 68.8925 39.4802 68.9737ZM45.3325 60.3938L46.6699 60.1959L47.4005 65.1342L46.0631 65.332L45.3325 60.3938ZM46.0003 64.9077L46.952 64.7669C47.775 64.6451 48.6187 64.4852 49.483 64.2873C50.3559 64.088 51.2542 63.8237 52.178 63.4943L52.494 64.5646C51.5544 64.9051 50.6359 65.1812 49.7386 65.3928C48.8485 65.5945 47.9748 65.7588 47.1175 65.8857L46.1658 66.0265L46.0003 64.9077ZM52.5171 58.5029L53.8546 58.3051L55.1084 66.7798L53.7709 66.9777L52.5171 58.5029ZM53.9582 61.7591L56.0158 61.4547L56.1851 62.5992L54.1275 62.9036L53.9582 61.7591ZM47.9883 69.8176L55.7943 68.6627L55.9561 69.7558L48.15 70.9107L47.9883 69.8176ZM47.5811 67.0655L48.9314 66.8658L49.4223 70.1836L48.072 70.3834L47.5811 67.0655ZM64.8727 56.6618L66.223 56.462L67.962 68.2161L66.6117 68.4159L64.8727 56.6618ZM61.5979 58.421L62.9353 58.2232C63.0647 59.0976 63.0941 59.9475 63.0234 60.7727C62.9528 61.598 62.7564 62.4024 62.4343 63.1859C62.1195 63.9597 61.6599 64.7023 61.0555 65.4137C60.4597 66.1239 59.6921 66.7982 58.7527 67.4365L57.8746 66.4757C58.9337 65.7583 59.7628 64.9961 60.3618 64.1891C60.9608 63.382 61.3591 62.5215 61.5568 61.6074C61.7618 60.6834 61.7869 59.6985 61.6321 58.6525L61.5979 58.421ZM57.367 59.047L62.2023 58.3316L62.3621 59.4119L57.5268 60.1272L57.367 59.047ZM79.606 54.4952L80.9435 54.2973L81.8187 60.2129L80.4812 60.4108L79.606 54.4952ZM80.7691 56.9383L82.9811 56.611L83.1447 57.717L80.9328 58.0442L80.7691 56.9383ZM72.2962 56.3389L77.7874 55.5265L78.5047 60.3747L73.0135 61.1871L72.2962 56.3389ZM76.6336 56.7879L73.7787 57.2103L74.1801 59.9238L77.035 59.5014L76.6336 56.7879ZM74.4504 65.8369L75.0549 65.7474C75.3378 65.7056 75.6323 65.6533 75.9384 65.5904C76.2518 65.5178 76.5676 65.4316 76.8858 65.332C77.2027 65.2238 77.5121 65.0948 77.8141 64.945L78.1778 65.9819C77.8428 66.1454 77.5082 66.2825 77.1742 66.3932C76.8401 66.504 76.5072 66.5927 76.1754 66.6593C75.8534 66.7332 75.5338 66.7936 75.2166 66.8405L74.6122 66.93L74.4504 65.8369ZM73.9501 62.4547L75.2618 62.2606L75.804 65.9257L74.4923 66.1198L73.9501 62.4547ZM77.1674 62.0838L83.0444 61.2143L83.1909 62.2045L77.3139 63.074L77.1674 62.0838ZM80.314 63.0113C80.9656 62.9149 81.5194 62.9863 81.9753 63.2255C82.4299 63.4561 82.6947 63.8243 82.7695 64.3301C82.8456 64.8445 82.6995 65.2779 82.3311 65.6303C81.9639 65.9912 81.4546 66.2199 80.803 66.3163C80.1514 66.4127 79.5977 66.3413 79.1418 66.1021C78.6871 65.8715 78.4218 65.499 78.3456 64.9846C78.2708 64.4788 78.4176 64.0497 78.786 63.6973C79.1531 63.3363 79.6625 63.1077 80.314 63.0113ZM80.451 63.9372C80.151 63.9816 79.9161 64.082 79.7465 64.2385C79.577 64.3951 79.5087 64.5848 79.5416 64.8077C79.5759 65.0391 79.6968 65.2052 79.9045 65.3059C80.1121 65.4066 80.366 65.4348 80.666 65.3904C80.9575 65.3473 81.1881 65.2474 81.3576 65.0909C81.5358 64.9332 81.6078 64.7385 81.5735 64.5071C81.5405 64.2841 81.4159 64.123 81.1997 64.0236C80.9921 63.9229 80.7425 63.8941 80.451 63.9372ZM79.3305 60.8045L80.6293 60.6123L80.8748 62.2712L79.5759 62.4634L79.3305 60.8045ZM84.5063 59.9993L95.1287 58.4277L95.2885 59.508L84.6662 61.0795L84.5063 59.9993ZM86.4702 64.1243L94.5849 62.9237L94.7466 64.0168L86.6319 65.2174L86.4702 64.1243ZM86.1277 61.8095L87.478 61.6097L87.8719 64.2717L86.5216 64.4715L86.1277 61.8095ZM88.9709 53.4908C89.8111 53.3665 90.558 53.3523 91.2118 53.4484C91.8656 53.5444 92.3905 53.7471 92.7867 54.0564C93.1903 54.3559 93.4282 54.75 93.5005 55.2387C93.574 55.7359 93.4617 56.1906 93.1635 56.6027C92.8725 57.0049 92.4287 57.351 91.832 57.6407C91.2341 57.9219 90.515 58.1247 89.6748 58.249C88.8261 58.3746 88.0748 58.3893 87.4211 58.2933C86.766 58.1887 86.2368 57.9867 85.8332 57.6872C85.437 57.3778 85.2022 56.9745 85.1286 56.4773C85.0563 55.9886 85.1656 55.5431 85.4565 55.1409C85.7548 54.7288 86.2029 54.3822 86.8008 54.101C87.3988 53.8198 88.1221 53.6164 88.9709 53.4908ZM89.1307 54.571C88.5563 54.656 88.0666 54.781 87.6618 54.9461C87.2569 55.1111 86.9527 55.305 86.7491 55.5279C86.5541 55.7495 86.4769 55.9975 86.5175 56.2718C86.5581 56.5462 86.7044 56.7654 86.9565 56.9296C87.2171 57.0926 87.5651 57.1944 88.0004 57.2351C88.4357 57.2759 88.9406 57.2537 89.515 57.1688C90.0894 57.0838 90.5791 56.9588 90.9839 56.7937C91.3888 56.6287 91.6881 56.4311 91.8819 56.2009C92.0756 55.9708 92.1522 55.7185 92.1116 55.4442C92.071 55.1698 91.9253 54.9548 91.6745 54.7992C91.4237 54.6436 91.0806 54.5454 90.6453 54.5047C90.21 54.4639 89.7051 54.4861 89.1307 54.571ZM106.695 50.4875L108.032 50.2896L109.311 58.9315L107.974 59.1294L106.695 50.4875ZM108.144 53.7951L110.201 53.4906L110.367 54.6095L108.309 54.9139L108.144 53.7951ZM102.14 61.8059L110.062 60.6339L110.224 61.727L102.302 62.899L102.14 61.8059ZM101.752 59.1825L103.103 58.9827L103.527 61.8505L102.177 62.0502L101.752 59.1825ZM99.3984 52.4212L100.736 52.2233L101.008 54.0623L103.876 53.638L103.604 51.799L104.941 51.6011L105.812 57.491L100.27 58.311L99.3984 52.4212ZM101.162 55.1039L101.447 57.0329L104.315 56.6087L104.03 54.6797L101.162 55.1039ZM28.3338 78.2418L29.6712 78.0439L31.414 89.8237L30.0766 90.0216L28.3338 78.2418ZM26.5705 81.1573L29.001 80.7977L29.1628 81.8908L26.7322 82.2504L26.5705 81.1573ZM21.5402 87.3946L22.4404 87.2615C23.0405 87.1727 23.6057 87.0847 24.136 86.9975C24.6736 86.9004 25.2093 86.7905 25.7431 86.6677C26.2756 86.5364 26.8264 86.3804 27.3954 86.1998L27.6619 87.2906C27.0843 87.4724 26.5207 87.6303 25.971 87.7642C25.4299 87.8968 24.8863 88.0122 24.3401 88.1106C23.794 88.2089 23.2165 88.3031 22.6078 88.3931L21.7076 88.5263L21.5402 87.3946ZM20.4871 80.454L25.6697 79.6873L26.3146 84.0468L22.4824 84.6138L22.9028 87.4559L21.5783 87.6518L20.998 83.7295L24.8302 83.1626L24.5068 80.9764L20.6488 81.5471L20.4871 80.454ZM26.9819 84.3818L29.4124 84.0222L29.5722 85.1024L27.1417 85.462L26.9819 84.3818ZM32.6202 83.4162L43.2426 81.8446L43.4024 82.9249L32.7801 84.4964L32.6202 83.4162ZM36.9778 80.8923L38.3152 80.6944L38.6501 82.9578L37.3126 83.1556L36.9778 80.8923ZM33.5971 80.9588L41.6732 79.7639L41.833 80.8442L33.7569 82.039L33.5971 80.9588ZM33.169 78.0653L41.1808 76.8799L41.3387 77.9473L34.6644 78.9348L35.0335 81.4296L33.696 81.6275L33.169 78.0653ZM38.1592 84.4365C39.4281 84.2488 40.4462 84.2909 41.2136 84.5629C41.9883 84.825 42.4257 85.2947 42.5259 85.972C42.6274 86.6578 42.3453 87.2384 41.6797 87.7136C41.0227 88.1875 40.0597 88.5183 38.7909 88.706C37.5392 88.8912 36.526 88.8528 35.7513 88.5907C34.9766 88.3286 34.5385 87.8546 34.437 87.1687C34.3368 86.4914 34.6195 85.9152 35.2851 85.44C35.9495 84.9562 36.9075 84.6217 38.1592 84.4365ZM38.3133 85.4782C37.7475 85.5619 37.2694 85.6764 36.8792 85.8218C36.4889 85.9671 36.1987 86.1371 36.0084 86.3317C35.8255 86.5165 35.7518 86.7289 35.7873 86.9689C35.8228 87.209 35.9561 87.3995 36.1873 87.5405C36.4257 87.6717 36.7527 87.7504 37.1684 87.7765C37.5827 87.794 38.0728 87.761 38.6387 87.6772C39.2217 87.591 39.7046 87.4801 40.0876 87.3446C40.4778 87.1993 40.7638 87.0299 40.9455 86.8366C41.1259 86.6347 41.1983 86.4137 41.1628 86.1736C41.1273 85.9336 40.9952 85.7516 40.7666 85.6277C40.5368 85.4953 40.214 85.416 39.7984 85.3899C39.3913 85.3625 38.8963 85.3919 38.3133 85.4782ZM49.0558 80.9057L50.3932 80.7079L50.6482 82.4311L49.3107 82.629L49.0558 80.9057ZM44.3101 80.8062L54.9325 79.2347L55.0923 80.3149L44.4699 81.8865L44.3101 80.8062ZM45.0021 76.1569L52.911 74.9868L53.4476 78.6133L45.5386 79.7834L45.0021 76.1569ZM51.7425 76.2373L46.4698 77.0173L46.6963 78.5477L51.9689 77.7676L51.7425 76.2373ZM45.86 82.6664L53.8976 81.4773L54.3123 84.2808L47.6251 85.2701L47.8116 86.5304L46.487 86.7264L46.1597 84.5144L52.847 83.5251L52.7233 82.6892L46.0104 83.6824L45.86 82.6664ZM46.4413 86.4177L54.7875 85.1829L54.9397 86.2117L46.5935 87.4465L46.4413 86.4177ZM59.3423 74.4952C59.9596 74.4039 60.5261 74.4428 61.0417 74.6118C61.5573 74.7808 61.984 75.0594 62.3218 75.4474C62.6583 75.8269 62.8677 76.2953 62.9502 76.8526C63.0314 77.4013 62.9665 77.9103 62.7556 78.3795C62.5446 78.8488 62.2169 79.2389 61.7723 79.55C61.3277 79.8611 60.7967 80.0623 60.1795 80.1536C59.5708 80.2437 59.0086 80.2042 58.493 80.0352C57.9773 79.8662 57.5464 79.5883 57.2 79.2014C56.8623 78.8134 56.6528 78.345 56.5716 77.7963C56.4892 77.239 56.554 76.73 56.7662 76.2694C56.9857 75.7988 57.3178 75.408 57.7624 75.0969C58.207 74.7859 58.7336 74.5853 59.3423 74.4952ZM59.5155 75.6655C59.164 75.7175 58.8526 75.8337 58.5814 76.014C58.3175 76.1844 58.1225 76.406 57.9964 76.6787C57.8703 76.9515 57.8326 77.2593 57.8833 77.6022C57.9328 77.9366 58.058 78.2203 58.259 78.4534C58.4586 78.6779 58.7101 78.8379 59.0133 78.9332C59.3251 79.0272 59.6567 79.0482 60.0082 78.9962C60.3683 78.943 60.6754 78.8275 60.9294 78.6497C61.1921 78.4707 61.3864 78.2448 61.5125 77.9721C61.6374 77.6908 61.6751 77.3829 61.6256 77.0486C61.5749 76.7056 61.4497 76.4219 61.25 76.1974C61.0503 75.9728 60.7995 75.8172 60.4975 75.7305C60.2029 75.6339 59.8755 75.6122 59.5155 75.6655ZM63.7473 73.0025L65.0976 72.8027L66.8404 84.5825L65.4901 84.7823L63.7473 73.0025ZM57.032 83.4841L56.6883 82.4048C57.3999 82.2995 58.1795 82.1798 59.027 82.0457C59.8732 81.903 60.7383 81.7399 61.6223 81.5566C62.5137 81.3634 63.3699 81.1403 64.1911 80.8874L64.4404 81.8624C63.5986 82.1534 62.7376 82.4035 61.8574 82.6125C60.9845 82.8118 60.1335 82.9815 59.3044 83.1217C58.4754 83.2618 57.7179 83.3827 57.032 83.4841ZM71.5455 77.7887L82.1808 76.2152L82.3406 77.2955L71.7054 78.8689L71.5455 77.7887ZM75.9278 75.432L77.2653 75.2341L77.5849 77.3946L76.2474 77.5924L75.9278 75.432ZM75.3199 71.5006L76.4902 71.3275L76.5567 71.7776C76.6189 72.1977 76.6014 72.612 76.5041 73.0207C76.4056 73.4207 76.239 73.8046 76.0043 74.1722C75.7683 74.5313 75.4758 74.8637 75.1268 75.1694C74.7777 75.4751 74.3808 75.7528 73.9359 76.0026C73.4897 76.2439 73.0072 76.4467 72.4883 76.611L71.816 75.6198C72.2787 75.49 72.7056 75.3261 73.0968 75.128C73.4881 74.93 73.832 74.7082 74.1286 74.4628C74.4338 74.2162 74.6887 73.9551 74.8932 73.6795C75.0977 73.4039 75.2397 73.1201 75.3192 72.828C75.4059 72.5261 75.4283 72.2336 75.3865 71.9507L75.3199 71.5006ZM75.5385 71.4683L76.6959 71.297L76.7625 71.7471C76.8056 72.0386 76.9118 72.312 77.081 72.5673C77.2502 72.8227 77.4689 73.0575 77.7372 73.2719C78.0127 73.4764 78.3323 73.6526 78.6958 73.8003C79.0593 73.948 79.4527 74.0606 79.876 74.1382C80.3065 74.2059 80.762 74.2349 81.2424 74.2252L80.8988 75.3667C80.3546 75.3596 79.834 75.3052 79.3371 75.2035C78.8389 75.0933 78.3743 74.943 77.9431 74.7527C77.5205 74.5612 77.1443 74.3277 76.8144 74.0523C76.4932 73.7757 76.2275 73.4602 76.0173 73.1058C75.8059 72.7428 75.6685 72.347 75.6051 71.9184L75.5385 71.4683ZM73.024 79.6989L81.1773 78.4926L81.75 82.3635L80.3997 82.5633L79.9868 79.7727L73.1838 80.7791L73.024 79.6989ZM83.0966 71.3094L88.6007 70.4951L89.7385 78.1854L84.2344 78.9997L83.0966 71.3094ZM87.436 71.7713L84.581 72.1937L85.4011 77.7363L88.256 77.3139L87.436 71.7713ZM90.2723 69.0913L91.6226 68.8915L93.3616 80.6456L92.0113 80.8454L90.2723 69.0913ZM92.0041 73.5135L94.126 73.1995L94.2915 74.3184L92.1696 74.6323L92.0041 73.5135ZM99.6933 67.934C100.551 67.8072 101.306 67.7875 101.958 67.8749C102.611 67.9624 103.129 68.1486 103.513 68.4335C103.905 68.7171 104.137 69.0989 104.208 69.5791C104.276 70.042 104.164 70.4703 103.872 70.864C103.587 71.2478 103.145 71.5761 102.546 71.8487C101.945 72.1128 101.217 72.3082 100.359 72.435C99.5105 72.5606 98.7562 72.5846 98.0964 72.507C97.4439 72.4195 96.9215 72.234 96.5291 71.9504C96.1354 71.6582 95.9043 71.2806 95.8358 70.8177C95.7648 70.3375 95.876 69.9049 96.1695 69.5198C96.4629 69.1347 96.9093 68.8059 97.5085 68.5332C98.1163 68.2593 98.8446 68.0596 99.6933 67.934ZM99.8493 68.9886C99.2664 69.0748 98.7718 69.1962 98.3656 69.3526C97.9595 69.5091 97.6583 69.6938 97.462 69.9068C97.2645 70.1113 97.1854 70.3464 97.2247 70.6122C97.2615 70.8608 97.4046 71.0586 97.6542 71.2057C97.9037 71.3528 98.2455 71.4424 98.6796 71.4745C99.1136 71.5067 99.6221 71.4796 100.205 71.3934C100.788 71.3071 101.278 71.1864 101.676 71.0312C102.082 70.8748 102.383 70.69 102.58 70.477C102.776 70.264 102.856 70.0332 102.819 69.7845C102.779 69.5188 102.636 69.3166 102.387 69.1781C102.138 69.0311 101.796 68.9415 101.362 68.9093C100.937 68.8759 100.432 68.9023 99.8493 68.9886ZM96.7569 75.9774L104.82 74.7845L105.4 78.7068L97.3372 79.8997L96.7569 75.9774ZM103.653 76.0478L98.2265 76.8507L98.491 78.6383L103.918 77.8354L103.653 76.0478ZM95.1755 74.0824L105.798 72.5109L105.958 73.5911L95.3353 75.1627L95.1755 74.0824ZM111.516 66.1323C112.836 65.937 113.887 65.9612 114.667 66.2049C115.456 66.4387 115.898 66.8814 115.994 67.533C116.091 68.1846 115.796 68.7407 115.111 69.2013C114.434 69.6606 113.436 69.9879 112.115 70.1833C110.795 70.3786 109.74 70.355 108.951 70.1126C108.162 69.8702 107.719 69.4232 107.622 68.7716C107.526 68.12 107.821 67.5683 108.508 67.1162C109.193 66.6556 110.196 66.3277 111.516 66.1323ZM111.651 67.1373C111.051 67.2261 110.547 67.3402 110.138 67.4795C109.738 67.6175 109.442 67.7796 109.251 67.9656C109.067 68.1418 108.991 68.3413 109.024 68.5642C109.057 68.7871 109.188 68.9605 109.416 69.0844C109.654 69.207 109.984 69.2765 110.407 69.2927C110.838 69.3078 111.354 69.2709 111.954 69.1821C112.571 69.0908 113.08 68.9761 113.48 68.838C113.88 68.7 114.176 68.5379 114.367 68.3519C114.559 68.1659 114.638 67.9614 114.605 67.7385C114.572 67.5156 114.438 67.3471 114.202 67.2331C113.965 67.1105 113.635 67.041 113.212 67.0248C112.789 67.0085 112.269 67.046 111.651 67.1373ZM106.905 71.6506L117.527 70.0791L117.685 71.1464L107.063 72.718L106.905 71.6506ZM108.436 73.3822L116.473 72.1931L116.89 75.0094L110.203 75.9988L110.387 77.2462L109.063 77.4422L108.737 75.2431L115.425 74.2537L115.299 73.405L108.586 74.3981L108.436 73.3822ZM109.021 77.1592L117.367 75.9245L117.519 76.9533L109.173 78.188L109.021 77.1592ZM22.6091 96.4851L29.1163 95.5224L29.2761 96.6026L22.769 97.5653L22.6091 96.4851ZM23.6021 104.263L23.2822 103.167C23.9767 103.064 24.7348 102.947 25.5566 102.817C26.3771 102.678 27.2128 102.524 28.0638 102.354C28.9148 102.184 29.7314 101.989 30.5135 101.768L30.7243 102.749C29.9472 103.004 29.1351 103.229 28.2879 103.425C27.448 103.61 26.6264 103.771 25.8231 103.908C25.0197 104.044 24.2794 104.162 23.6021 104.263ZM23.8774 97.1516L25.1891 96.9576L26.0928 103.066L24.7811 103.26L23.8774 97.1516ZM26.7837 96.7217L28.0954 96.5276L28.9992 102.636L27.6875 102.83L26.7837 96.7217ZM30.0344 94.1775L31.3847 93.9777L33.1237 105.732L31.7734 105.932L30.0344 94.1775ZM31.7662 98.5997L33.8881 98.2857L34.0537 99.4046L31.9317 99.7185L31.7662 98.5997ZM37.4754 93.76C38.0755 93.6712 38.6291 93.712 39.1362 93.8823C39.6432 94.0525 40.0613 94.3324 40.3905 94.7217C40.727 95.1012 40.9359 95.5653 41.017 96.114C41.0995 96.6713 41.0352 97.1845 40.8243 97.6538C40.6207 98.1132 40.3009 98.4978 39.8648 98.8076C39.4288 99.1175 38.9108 99.3168 38.3106 99.4055C37.7191 99.4931 37.1698 99.4517 36.6627 99.2814C36.1557 99.1111 35.7339 98.8362 35.3974 98.4567C35.0682 98.0673 34.8624 97.594 34.7799 97.0368C34.6987 96.4881 34.76 95.984 34.9636 95.5246C35.1745 95.0554 35.498 94.6658 35.934 94.356C36.37 94.0462 36.8838 93.8475 37.4754 93.76ZM37.6576 94.9026C37.3061 94.9546 37.0033 95.0695 36.7492 95.2473C36.5037 95.4238 36.3186 95.6527 36.1937 95.934C36.0762 96.2054 36.0422 96.5083 36.0916 96.8427C36.1424 97.1856 36.2639 97.4743 36.4563 97.7087C36.656 97.9332 36.8995 98.0987 37.1868 98.2051C37.4815 98.3017 37.8045 98.324 38.1561 98.272C38.499 98.2212 38.7975 98.107 39.0515 97.9292C39.3043 97.7429 39.4895 97.514 39.607 97.2425C39.7233 96.9625 39.756 96.651 39.7053 96.3081C39.6558 95.9737 39.5356 95.6936 39.3445 95.4678C39.1521 95.2335 38.9086 95.068 38.6139 94.9714C38.3193 94.8748 38.0005 94.8519 37.6576 94.9026ZM41.9417 92.4158L43.2792 92.218L44.299 99.1109L42.9615 99.3088L41.9417 92.4158ZM43.3472 95.1648L45.3662 94.866L45.5317 95.9849L43.5127 96.2836L43.3472 95.1648ZM36.6667 100.818L44.3827 99.6768L45.0182 103.972L43.6807 104.17L43.2051 100.955L36.8265 101.899L36.6667 100.818ZM53.772 90.6656L55.1094 90.4677L56.4108 99.264L55.0733 99.4619L53.772 90.6656ZM55.2644 94.269L57.322 93.9646L57.4875 95.0834L55.4299 95.3878L55.2644 94.269ZM46.1509 93.1598L53.0825 92.1343L53.2404 93.2017L46.3089 94.2272L46.1509 93.1598ZM49.8629 94.2665C50.4201 94.184 50.9271 94.2054 51.3836 94.3306C51.8389 94.4472 52.2113 94.655 52.5009 94.9538C52.7904 95.2526 52.9681 95.625 53.0341 96.0708C53.0988 96.508 53.0358 96.9116 52.8452 97.2815C52.6547 97.6513 52.359 97.9623 51.9582 98.2143C51.5575 98.4664 51.0784 98.6336 50.5212 98.7161C49.9553 98.7998 49.4441 98.779 48.9876 98.6538C48.531 98.5286 48.1579 98.3166 47.8684 98.0178C47.5789 97.7189 47.4018 97.3509 47.3371 96.9136C47.2711 96.4678 47.3335 96.06 47.524 95.6901C47.7146 95.3202 48.0109 95.0136 48.413 94.7701C48.8137 94.5181 49.297 94.3502 49.8629 94.2665ZM50.0151 95.2953C49.5521 95.3638 49.1907 95.5268 48.931 95.7842C48.6712 96.0417 48.5686 96.3547 48.6231 96.7234C48.6776 97.092 48.8665 97.362 49.1897 97.5332C49.5117 97.6958 49.9041 97.7429 50.3671 97.6744C50.83 97.6059 51.1877 97.4478 51.4402 97.2002C51.6914 96.944 51.7898 96.6316 51.7352 96.263C51.6807 95.8943 51.4961 95.6237 51.1815 95.4513C50.8668 95.2788 50.478 95.2268 50.0151 95.2953ZM48.7437 91.4095L50.094 91.2097L50.3718 93.0873L49.0215 93.2871L48.7437 91.4095ZM49.2174 101.984L57.1392 100.812L57.3009 101.905L49.3791 103.077L49.2174 101.984ZM48.8769 99.6821L50.2272 99.4823L50.6381 102.26L49.2878 102.46L48.8769 99.6821ZM65.5231 88.9139L66.8734 88.7141L68.6162 100.494L67.2659 100.694L65.5231 88.9139ZM67.2454 93.2718L69.3673 92.9578L69.5329 94.0767L67.411 94.3906L67.2454 93.2718ZM59.3935 97.7582L60.3452 97.6174C61.0482 97.5134 61.6942 97.4091 62.2832 97.3044C62.871 97.1912 63.4397 97.0676 63.9893 96.9337C64.5377 96.7913 65.0915 96.6261 65.6507 96.4383L65.9577 97.5361C65.3826 97.7351 64.8123 97.9071 64.2468 98.0521C63.6886 98.1873 63.1027 98.3134 62.4892 98.4304C61.8831 98.5376 61.2242 98.6438 60.5126 98.7491L59.5609 98.8899L59.3935 97.7582ZM58.4099 91.1096L63.8754 90.301L64.0371 91.3941L59.909 92.0048L60.809 98.0876L59.4715 98.2855L58.4099 91.1096Z" fill="white"/>
</svg>
