<svg width="32" height="34" viewBox="0 0 32 34" fill="none" xmlns="http://www.w3.org/2000/svg">
<path d="M13.3027 15.7833L18.7984 16.318L18.3866 20.5508L12.8908 20.016L13.3027 15.7833ZM1.91324 11.367L30.8939 14.187L30.4754 18.488L1.49472 15.668L1.91324 11.367ZM6.50111 0.338802L28.3817 2.46794L27.3885 12.6743L5.50795 10.5452L6.50111 0.338802ZM22.5457 6.13842L11.4859 5.06223L11.3065 6.90552L22.3663 7.98172L22.5457 6.13842ZM4.56723 17.3798L26.9257 19.5554L26.0721 28.3281L9.17519 26.6839L8.95597 28.9368L3.52848 28.4087L4.11308 22.4009L21.0099 24.0451L21.1063 23.0552L4.17528 21.4077L4.56723 17.3798ZM3.64142 27.2481L26.7509 29.4968L26.3523 33.5931L3.24283 31.3443L3.64142 27.2481Z" fill="black"/>
</svg>
