<svg width="23" height="30" viewBox="0 0 23 30" fill="none" xmlns="http://www.w3.org/2000/svg">
<path d="M14.7128 2.03432C17.1761 2.6263 19.0019 3.72232 20.1901 5.32239C21.4058 6.90559 21.7283 8.88445 21.1577 11.259C20.6884 13.2119 19.644 14.6275 18.0245 15.5059C16.4272 16.3896 14.558 16.5976 12.4169 16.13L11.6492 18.4455L5.12477 16.8775L6.62101 9.77252L9.41717 10.4445C10.7265 10.7591 11.7598 10.8549 12.5171 10.7317C13.2965 10.6139 13.7636 10.2332 13.9183 9.58963C14.0196 9.16798 13.986 8.81953 13.8174 8.54428C13.6763 8.25217 13.4283 8.06345 13.0732 7.97812C12.6293 7.87146 12.2618 7.93571 11.9705 8.17087C11.7068 8.38918 11.5216 8.72024 11.415 9.16408L4.45782 7.49214C4.7219 6.10025 5.28953 4.91042 6.1607 3.92263C7.05406 2.94017 8.22429 2.27072 9.67141 1.91429C11.1239 1.53566 12.8043 1.57567 14.7128 2.03432ZM6.13495 27.4721C4.84782 27.1628 3.89855 26.5708 3.28716 25.6962C2.67577 24.8216 2.4954 23.8628 2.74606 22.8198C3.00205 21.7546 3.60107 20.9713 4.54311 20.47C5.49049 19.9465 6.60775 19.8395 7.89488 20.1488C9.15982 20.4528 10.0953 21.0532 10.7014 21.95C11.3127 22.8246 11.4904 23.7945 11.2345 24.8597C10.9838 25.9027 10.3874 26.6749 9.4454 27.1761C8.50336 27.6774 7.39988 27.7761 6.13495 27.4721Z" fill="black"/>
</svg>
