<svg width="35" height="37" viewBox="0 0 35 37" fill="none" xmlns="http://www.w3.org/2000/svg">
<path d="M25.767 3.22293L31.2121 4.06392L26.3124 35.7876L20.8673 34.9466L25.767 3.22293ZM27.6953 15.8481L33.1404 16.6891L32.4457 21.1872L27.0006 20.3462L27.6953 15.8481ZM9.48699 3.92885L14.5939 4.7176C14.2317 7.0625 13.8376 9.24085 13.4114 11.2527C13.0113 13.2454 12.482 15.1028 11.8236 16.8248C11.1652 18.5469 10.3031 20.1681 9.23716 21.6887C8.19729 23.1902 6.85476 24.6334 5.2096 26.0184L1.45737 22.2878C2.83876 21.116 3.9669 19.9398 4.8418 18.7591C5.74274 17.5593 6.46073 16.2736 6.99578 14.9018C7.55337 13.5336 8.00785 12.011 8.35921 10.3339C8.71406 8.63421 9.05691 6.71341 9.38774 4.57144L9.48699 3.92885ZM6.03729 3.39605L11.6515 4.26315L10.9777 8.62601L5.36345 7.7589L6.03729 3.39605ZM18.2803 5.28697L23.3872 6.07572C23.0007 8.57845 22.5691 10.9242 22.0926 13.1129C21.6421 15.2825 21.0624 17.3168 20.3536 19.2157C19.6673 21.1181 18.7903 22.9103 17.7226 24.5921C16.6583 26.2515 15.3287 27.8352 13.7338 29.3433L9.97112 25.6803C11.3318 24.3438 12.4505 23.0045 13.3272 21.6625C14.23 20.3014 14.9724 18.8578 15.5543 17.3318C16.1363 15.8057 16.6282 14.1157 17.0299 12.2617C17.4352 10.3852 17.8207 8.26318 18.1863 5.89574L18.2803 5.28697ZM15.71 4.88998L20.5463 5.63694L19.8725 9.9998L15.0361 9.25283L15.71 4.88998Z" fill="black"/>
</svg>
