<svg width="29" height="33" viewBox="0 0 29 33" fill="none" xmlns="http://www.w3.org/2000/svg">
<path d="M5.78456 3.19068L9.88864 2.92622L10.0993 6.19486C10.2198 8.0658 10.1088 9.89641 9.76629 11.6867C9.44405 13.4535 8.8166 15.0522 7.88394 16.4826C6.95129 17.9131 5.62962 19.0592 3.91895 19.9209L0.919089 16.0031C2.33143 15.2491 3.41826 14.3502 4.17959 13.3065C4.94093 12.2628 5.44758 11.1582 5.69955 9.99267C5.97181 8.80369 6.07035 7.62591 5.99518 6.45932L5.78456 3.19068ZM6.79429 3.12561L10.8658 2.86326L11.0764 6.1319C11.1459 7.21044 11.3776 8.26748 11.7714 9.30303C12.1638 10.3166 12.7785 11.2274 13.6155 12.0354C14.4743 12.8421 15.5953 13.4882 16.9784 13.9737L14.4694 18.1801C12.7765 17.6261 11.4018 16.7643 10.3452 15.5947C9.28717 14.403 8.48926 13.0178 7.95143 11.4389C7.43531 9.85871 7.1198 8.17715 7.00492 6.39426L6.79429 3.12561ZM21.8884 0.329524L26.872 0.00839564L28.0847 18.8279L23.1011 19.149L21.8884 0.329524ZM19.3167 7.62329L23.6813 7.34204L23.9558 11.6012L19.5911 11.8824L19.3167 7.62329ZM15.5079 1.30429L20.3937 0.989456L21.5085 18.2902L16.6227 18.605L15.5079 1.30429ZM17.5505 19.805C19.7219 19.6651 21.6158 19.7862 23.2322 20.1683C24.8689 20.527 26.1506 21.1296 27.0774 21.9761C28.0244 22.7991 28.5376 23.827 28.617 25.0596C28.6965 26.2922 28.3194 27.3774 27.4858 28.3152C26.6754 29.2737 25.4816 30.0358 23.9045 30.6016C22.3505 31.1879 20.4878 31.5511 18.3164 31.691C16.1666 31.8295 14.2727 31.7085 12.6346 31.3278C10.9979 30.9691 9.70534 30.3672 8.75688 29.5221C7.83156 28.6976 7.32918 27.6691 7.24976 26.4365C7.17033 25.2038 7.53654 24.1193 8.3484 23.1829C9.18055 22.2231 10.3852 21.4603 11.9623 20.8945C13.538 20.3067 15.4007 19.9436 17.5505 19.805ZM17.8058 23.767C16.0251 23.8818 14.6779 24.1233 13.764 24.4916C12.8719 24.8586 12.4485 25.3942 12.4939 26.0985C12.5378 26.7809 13.0265 27.2578 13.9598 27.5292C14.9134 27.7771 16.2805 27.8438 18.0611 27.729C19.2554 27.6521 20.25 27.5217 21.0449 27.3378C21.8384 27.132 22.4214 26.8734 22.7938 26.5621C23.188 26.2493 23.3702 25.8619 23.3404 25.3996C23.295 24.6953 22.8063 24.2184 21.8745 23.969C20.9643 23.7182 19.6081 23.6509 17.8058 23.767Z" fill="black"/>
</svg>
