<svg width="27" height="29" viewBox="0 0 27 29" fill="none" xmlns="http://www.w3.org/2000/svg">
<path d="M14.2171 0.62421C17.501 0.783437 20.0296 1.31729 21.803 2.22577C23.5965 3.13522 24.4559 4.36048 24.3812 5.90153C24.3065 7.44259 23.3326 8.57895 21.4595 9.31062C19.6065 10.0433 17.0381 10.33 13.7542 10.1707C10.4502 10.0105 7.90142 9.47571 6.10789 8.56625C4.31435 7.6568 3.45495 6.43154 3.52967 4.89049C3.60439 3.34943 4.57831 2.21307 6.45142 1.48141C8.32453 0.749738 10.9131 0.464006 14.2171 0.62421ZM14.0166 4.13515C12.7473 4.07361 11.7179 4.06382 10.9283 4.10577C10.1388 4.14773 9.55827 4.24998 9.1869 4.41252C8.81553 4.57506 8.62209 4.81644 8.60656 5.13666C8.59103 5.45687 8.75973 5.72585 9.11267 5.94357C9.46657 6.14127 10.0344 6.2992 10.8163 6.41736C11.5991 6.51549 12.6251 6.59533 13.8943 6.65687C15.1635 6.71842 16.1924 6.73822 16.9811 6.71627C17.7707 6.67432 18.3511 6.57207 18.7225 6.40953C19.0949 6.22697 19.2888 5.97559 19.3043 5.65537C19.3198 5.33515 19.1507 5.07619 18.7968 4.87848C18.4429 4.68077 17.875 4.52284 17.0932 4.40469C16.3113 4.28654 15.2858 4.19669 14.0166 4.13515ZM0.832621 10.5372L26.4891 11.7812L26.3057 15.5638L0.649211 14.3198L0.832621 10.5372ZM3.43454 15.5983L23.2284 16.5581L22.8543 24.2734L7.89558 23.548L7.79951 25.5294L2.99459 25.2964L3.25078 20.0128L18.2095 20.7381L18.2517 19.8675L3.26278 19.1407L3.43454 15.5983ZM3.04554 24.2457L23.5042 25.2377L23.3295 28.8402L2.87086 27.8482L3.04554 24.2457Z" fill="black"/>
</svg>
