<svg width="28" height="30" viewBox="0 0 28 30" fill="none" xmlns="http://www.w3.org/2000/svg">
<path d="M19.355 0.423794L24.3617 0.537323L23.9774 17.4836L18.9708 17.3701L19.355 0.423794ZM22.8459 7.00968L27.8525 7.12321L27.7589 11.2504L22.7523 11.1368L22.8459 7.00968ZM10.7997 1.76263L16.1173 1.88321C16.0568 4.55127 15.4849 6.90532 14.4015 8.94539C13.3389 10.9859 11.786 12.6921 9.74294 14.0639C7.72059 15.4362 5.24973 16.4646 2.33033 17.1492L0.365837 13.2256C2.72124 12.716 4.65566 12.0195 6.16911 11.1362C7.68304 10.232 8.81604 9.20456 9.5681 8.05373C10.3206 6.88207 10.7116 5.65007 10.7409 4.35773L10.7997 1.76263ZM2.18585 1.56731L13.8472 1.83174L13.7572 5.80255L2.0958 5.53812L2.18585 1.56731ZM4.20455 18.1927L23.9512 18.6405L23.6959 29.8963L18.6893 29.7828L18.8552 22.4665L4.11522 22.1323L4.20455 18.1927Z" fill="black"/>
</svg>
