<svg width="30" height="32" viewBox="0 0 30 32" fill="none" xmlns="http://www.w3.org/2000/svg">
<path d="M0.368258 14.2246L29.5187 13.425L29.6383 17.7856L0.487872 18.5852L0.368258 14.2246ZM12.0514 9.23107L17.5794 9.07943L17.7527 15.3971L12.2247 15.5487L12.0514 9.23107ZM3.62565 7.70979L26.0808 7.09383L26.1994 11.42L3.74432 12.036L3.62565 7.70979ZM3.43351 0.705436L25.7513 0.0932422L25.87 4.41946L9.04579 4.88096L9.19649 10.3746L3.70288 10.5253L3.43351 0.705436ZM14.9416 19.3913C18.4437 19.2953 21.205 19.7464 23.2253 20.7447C25.2679 21.7195 26.3155 23.1683 26.3683 25.091C26.4204 26.9909 25.4534 28.4835 23.4673 29.5688C21.5048 30.6764 18.7724 31.2782 15.2703 31.3743C11.7681 31.4703 8.99539 31.0195 6.95218 30.0218C4.9325 29.0464 3.8966 27.6088 3.84449 25.7089C3.79174 23.7861 4.74695 22.2824 6.71013 21.1977C8.69557 20.0895 11.4394 19.4874 14.9416 19.3913ZM15.0555 23.5459C13.7508 23.5817 12.6768 23.6798 11.8337 23.8404C11.0128 23.9775 10.4001 24.189 9.99559 24.475C9.61337 24.7374 9.42822 25.0861 9.44015 25.521C9.45271 25.9788 9.65732 26.3397 10.054 26.6037C10.4735 26.8671 11.0969 27.0447 11.9241 27.1366C12.7742 27.2278 13.8516 27.2555 15.1563 27.2197C16.461 27.1839 17.5238 27.0975 18.3447 26.9605C19.1885 26.8228 19.8012 26.6113 20.1828 26.3259C20.5873 26.0399 20.7833 25.668 20.7707 25.2102C20.7588 24.7753 20.5434 24.4376 20.1244 24.1971C19.7278 23.9331 19.1044 23.7555 18.2543 23.6643C17.4265 23.5496 16.3602 23.5101 15.0555 23.5459Z" fill="black"/>
</svg>
