<svg width="28" height="34" viewBox="0 0 28 34" fill="none" xmlns="http://www.w3.org/2000/svg">
<path d="M21.3014 0.239327L26.5328 0L28 32.0718L22.7687 32.3111L21.3014 0.239327ZM18.2945 12.4033L23.1839 12.1796L23.3842 16.5561L18.4948 16.7798L18.2945 12.4033ZM14.2114 1.04337L19.3402 0.808736L20.7199 30.9658L15.5911 31.2004L14.2114 1.04337ZM0.154859 4.59882L5.65972 4.34698L6.50753 22.8789L1.00267 23.1307L0.154859 4.59882ZM0.908818 21.0792L3.23385 20.9728C4.71549 20.9051 6.33181 20.7854 8.08281 20.614C9.83277 20.4197 11.6682 20.0959 13.589 19.6425L14.282 24.3049C12.27 24.7624 10.3434 25.0904 8.50227 25.2888C6.68288 25.4634 4.99818 25.5862 3.44815 25.6571L1.12312 25.7635L0.908818 21.0792Z" fill="black"/>
</svg>
