<svg width="33" height="34" viewBox="0 0 33 34" fill="none" xmlns="http://www.w3.org/2000/svg">
<path d="M1.77783 15.1841L30.7471 18.5088L30.2498 22.8422L1.28051 19.5176L1.77783 15.1841ZM3.87928 26.6955L26.1949 29.2565L25.6936 33.6241L3.37804 31.0631L3.87928 26.6955ZM4.45492 21.6796L9.94851 22.3101L9.2084 28.7591L3.71481 28.1286L4.45492 21.6796ZM18.0221 1.66427C20.3651 1.93316 22.3811 2.44109 24.07 3.18805C25.7817 3.93763 27.0692 4.869 27.9325 5.98216C28.8185 7.09793 29.1832 8.33824 29.0266 9.70311C28.8673 11.0907 28.2298 12.2275 27.1141 13.1136C26.021 14.0022 24.556 14.6177 22.719 14.96C20.9048 15.305 18.8262 15.343 16.4832 15.0741C14.1401 14.8052 12.1128 14.296 10.4011 13.5464C8.71221 12.7994 7.42472 11.868 6.53868 10.7523C5.67539 9.63912 5.32338 8.38873 5.48263 7.00112C5.63927 5.63625 6.26409 4.5095 7.35711 3.62085C8.47288 2.73482 9.93789 2.11933 11.7521 1.77441C13.5891 1.43209 15.6791 1.39537 18.0221 1.66427ZM17.5248 5.99772C16.2282 5.84891 15.1145 5.81329 14.1837 5.89085C13.2555 5.94566 12.533 6.11626 12.0161 6.40265C11.522 6.69166 11.2436 7.10913 11.1809 7.65508C11.1183 8.20102 11.2936 8.68209 11.7067 9.09827C12.1453 9.49431 12.8091 9.83553 13.6981 10.1219C14.5897 10.3856 15.6839 10.5918 16.9805 10.7406C18.2999 10.892 19.4123 10.939 20.3177 10.8816C21.2485 10.8041 21.9609 10.6208 22.4551 10.3318C22.9745 10.0226 23.2656 9.59509 23.3283 9.04915C23.3909 8.5032 23.203 8.03221 22.7644 7.63617C22.3486 7.24274 21.6949 6.9142 20.8033 6.65054C19.937 6.36674 18.8442 6.14913 17.5248 5.99772Z" fill="black"/>
</svg>
