<svg width="26" height="28" viewBox="0 0 26 28" fill="none" xmlns="http://www.w3.org/2000/svg">
<path d="M18.1039 1.20684L22.6373 1.49298L21.7486 15.5717L17.2153 15.2856L18.1039 1.20684ZM20.5609 6.62008L25.6011 6.93821L25.3701 10.5987L20.3299 10.2806L20.5609 6.62008ZM3.89624 15.3496L21.6918 16.4728L21.2404 23.6248L7.97817 22.7877L7.85555 24.7305L3.35035 24.4462L3.66492 19.4623L16.9552 20.3012L17.0103 19.4283L3.69186 18.5877L3.89624 15.3496ZM3.41788 23.3762L21.861 24.5403L21.6531 27.8347L3.20995 26.6706L3.41788 23.3762ZM1.5533 1.85839L17.0681 2.83764L16.8566 6.18838L1.34181 5.20913L1.5533 1.85839ZM9.09193 6.03754C11.0817 6.16313 12.6524 6.65805 13.8041 7.52228C14.9569 8.36775 15.4912 9.45687 15.4071 10.7897C15.3242 12.1037 14.6577 13.1076 13.4078 13.8014C12.1578 14.4952 10.5379 14.7793 8.5481 14.6537C6.55831 14.5281 4.98701 14.0426 3.8342 13.1971C2.68139 12.3517 2.14646 11.2719 2.2294 9.95792C2.31352 8.62513 2.98056 7.61183 4.23052 6.91802C5.48167 6.20544 7.10214 5.91195 9.09193 6.03754ZM8.89288 9.19117C8.19833 9.14734 7.64803 9.20683 7.24198 9.36967C6.83711 9.51373 6.62106 9.80164 6.59381 10.2334C6.56774 10.6464 6.74647 10.9498 7.13001 11.1436C7.51355 11.3374 8.0526 11.4563 8.74715 11.5001C9.46047 11.5451 10.0102 11.495 10.3963 11.3498C10.8011 11.2057 11.0166 10.9272 11.0427 10.5142C11.0699 10.0824 10.8918 9.76965 10.5082 9.57583C10.1447 9.36441 9.60621 9.2362 8.89288 9.19117ZM7.16129 0.346559L11.6946 0.632692L11.4263 4.88447L6.89293 4.59834L7.16129 0.346559Z" fill="black"/>
</svg>
