<svg width="27" height="33" viewBox="0 0 27 33" fill="none" xmlns="http://www.w3.org/2000/svg">
<path d="M21.154 0.0858783L26.7755 0.108846L26.6411 33L21.0196 32.977L21.154 0.0858783ZM16.3082 6.77012L21.8948 6.79295L21.8765 11.2622L16.2899 11.2394L16.3082 6.77012ZM0.08271 21.1943L2.77126 21.2053C4.35413 21.2118 5.85558 21.2063 7.27561 21.1888C8.71901 21.1482 10.1509 21.0842 11.5712 20.9969C13.0149 20.8864 14.4936 20.7295 16.0075 20.5261L16.408 25.067C14.8707 25.2935 13.357 25.4619 11.8667 25.5722C10.3998 25.6826 8.92131 25.758 7.43136 25.7985C5.9415 25.8157 4.38186 25.8209 2.75243 25.8143L0.0638796 25.8033L0.08271 21.1943ZM0.123539 2.65364L14.9281 2.71412L14.8741 15.9125L5.69115 15.875L5.66518 22.2297L0.078573 22.2069L0.122368 11.4876L9.34027 11.5253L9.35824 7.12581L0.105422 7.08801L0.123539 2.65364ZM16.2718 15.6738L21.8584 15.6966L21.8401 20.1659L16.2535 20.1431L16.2718 15.6738Z" fill="black"/>
</svg>
