<svg width="29" height="31" viewBox="0 0 29 31" fill="none" xmlns="http://www.w3.org/2000/svg">
<path d="M0 14.9611H29V19.3333H0V14.9611ZM3.38163 26.3015H25.7208V30.6737H3.38163V26.3015ZM3.38163 21.1779H8.88104V27.6337H3.38163V21.1779ZM11.682 0H16.3958V0.717311C16.3958 1.92422 16.2364 3.09697 15.9175 4.23557C15.5987 5.37416 15.0978 6.44444 14.4146 7.4464C13.7542 8.44836 12.9003 9.37063 11.8528 10.2132C10.828 11.033 9.60974 11.7275 8.19788 12.2968C6.80879 12.8661 5.20338 13.2874 3.38163 13.5607L1.298 9.22261C2.86926 8.99489 4.23557 8.6647 5.39694 8.23204C6.5583 7.79937 7.5375 7.28701 8.33451 6.69494C9.1543 6.10287 9.8033 5.47664 10.2815 4.81625C10.7825 4.1331 11.1355 3.44994 11.3404 2.76678C11.5681 2.06085 11.682 1.3777 11.682 0.717311V0ZM12.6042 0H17.318V0.717311C17.318 1.3777 17.4205 2.06085 17.6254 2.76678C17.8532 3.44994 18.2061 4.1331 18.6843 4.81625C19.1853 5.47664 19.8343 6.10287 20.6313 6.69494C21.4511 7.28701 22.4417 7.79937 23.6031 8.23204C24.7644 8.6647 26.1307 8.99489 27.702 9.22261L25.6184 13.5607C23.8194 13.2874 22.214 12.8661 20.8021 12.2968C19.3903 11.7275 18.1606 11.033 17.1131 10.2132C16.0883 9.37063 15.2344 8.44836 14.5512 7.4464C13.8909 6.44444 13.4013 5.37416 13.0825 4.23557C12.7636 3.09697 12.6042 1.92422 12.6042 0.717311V0Z" fill="black"/>
</svg>
