<svg width="20" height="24" viewBox="0 0 20 24" fill="none" xmlns="http://www.w3.org/2000/svg">
<path d="M8.71217 0L9.15097 0.176039C9.88062 1.00566 10.9314 5.20262 11.234 6.45854C12.7606 5.10592 14.8201 3.17054 16.4644 2.07873C16.0524 3.86838 14.889 6.58095 14.1644 8.26164C15.3581 8.35596 19.3241 8.43053 20 9.39226L19.9109 9.76204C18.961 10.7085 15.8406 11.5684 14.4284 12.0364C15.0134 13.0264 17.8968 17.2775 16.3938 17.8987C15.1059 17.7128 12.8346 15.4996 11.7266 14.5634C11.6426 16.2783 11.419 17.8781 11.2004 19.5794C11.0441 20.4977 10.9869 21.6987 10.0017 22C8.61634 21.2814 8.30531 16.8176 8.12878 15.2999C7.05951 16.0085 5.47748 17.5601 4.33592 17.7252L4.06354 17.5162C3.95426 16.6457 5.65064 13.4678 6.13484 12.5985C4.91426 12.38 0.144586 12.0914 0 10.8978C0.801951 9.90982 4.51581 9.07849 5.8423 8.70378C5.23033 7.87177 3.42803 5.13503 3.49865 4.18215L3.65333 4.06468C4.74445 4.11014 6.86112 5.85603 7.80934 6.54979C7.80598 4.59007 7.51344 1.40574 8.71217 0Z" fill="#02743B"/>
<path d="M10.228 21.7961C10.7913 21.8279 10.9321 21.8817 11.4807 22.0401C12.0145 22.6419 11.8779 22.3435 11.964 23.1878C11.4407 23.1897 11.2579 23.1384 10.7598 23.0359C10.2028 22.4431 10.3688 22.7327 10.228 21.7961Z" fill="#0A813F"/>
</svg>
