<svg width="136" height="129" viewBox="0 0 136 129" fill="none" xmlns="http://www.w3.org/2000/svg">
<path d="M50.9919 9.175C50.787 8.48202 49.0932 5.63576 49.6206 5.15615C52.5441 2.50323 60.8806 1.76918 64.6752 0.852952C72.3215 -0.99403 73.9761 -0.235137 71.6524 7.08476C74.5488 6.38374 87.138 5.64661 90.396 5.52792C95.4594 5.34356 115.074 2.86156 118.465 4.05195C119.625 7.39154 120.128 12.0423 120.725 15.6353L123.588 32.2018C125.252 41.6543 137.549 105.998 135.837 109.278C131.376 112.394 106.316 115.81 99.6156 116.849C88.7715 118.542 77.9394 120.3 67.1194 122.123H38.5C35.8749 122.556 28.505 128.857 26.1301 129C24.7979 124.503 22.9684 122.953 19.3909 119.938C19.0564 117.218 17.3927 111.47 16.9165 109.117C14.7495 98.3564 -2.82169 26.598 0.391153 20.2775C5.69265 15.3253 41.6518 10.1155 50.9919 9.175ZM58.4936 4.35769L59.9674 7.06345C60.103 7.05079 60.2357 7.0381 60.3683 7.02542C62.5263 4.81284 64.3497 6.32693 66.9296 7.47386C67.5414 6.16773 68.6294 4.02073 68.9881 2.71768L68.4486 2.61054C65.5944 3.205 61.4261 3.96581 58.4936 4.35769Z" fill="#FE9B01"/>
<path d="M51.0987 9.95736C50.8934 9.20529 49.196 6.11632 49.7246 5.59582C52.6542 2.71668 61.0081 1.92004 64.8106 0.925685C72.4729 -1.07879 74.1311 -0.255188 71.8025 7.68889C71.3404 9.00096 71.0021 10.4284 70.0145 11.3558C68.0483 12.0563 65.62 10.0164 63.6478 11.2004C63.3186 12.5268 63.3488 13.437 62.4156 14.0826C60.8662 13.751 60.1504 12.6054 59.1779 11.3877C57.9275 14.2477 57.8369 14.5348 55.1791 16.0822C53.5965 13.9633 52.4941 12.2057 51.0987 9.95736ZM58.6161 4.72928L60.093 7.66576C60.2289 7.65202 60.3618 7.63825 60.4947 7.62448C62.6572 5.22324 64.4844 6.86643 67.0697 8.11117C67.6828 6.69366 68.7732 4.36359 69.1326 2.94942L68.5919 2.83314C65.7318 3.47829 61.5548 4.30398 58.6161 4.72928Z" fill="#1D1D1D"/>
<path d="M22.8037 40.6677L18.1365 41.3582L17.5435 44.333L15.4661 44.6404L18.1112 31.9081L20.7425 31.5188L26.961 42.9397L24.1911 43.3495L22.8037 40.6677ZM21.99 39.0898L19.5171 34.3325L18.4723 39.6102L21.99 39.0898ZM32.6448 29.7579L34.4315 41.8345L31.9386 42.2033L30.1519 30.1267L32.6448 29.7579ZM42.6038 37.7383L37.9366 38.4288L37.3436 41.4036L35.2662 41.711L37.9113 28.9788L40.5426 28.5895L46.7611 40.0103L43.9912 40.4201L42.6038 37.7383ZM41.7901 36.1604L39.3172 31.4031L38.2724 36.6809L41.7901 36.1604ZM53.9242 36.8277C53.9953 37.3078 54.1179 37.6907 54.2923 37.9762C54.4772 38.2696 54.7318 38.4915 55.0559 38.6416C54.5433 38.8118 54.1208 38.9215 53.7884 38.9707C53.1236 39.069 52.5912 38.978 52.1912 38.6975C51.7912 38.417 51.5352 37.8982 51.4232 37.1411L49.952 27.1974L52.4449 26.8286L53.9242 36.8277ZM58.2743 28.5135C58.976 28.4097 59.5959 28.4548 60.1341 28.6488C60.6815 28.8414 61.1313 29.1712 61.4834 29.638C61.8355 30.1048 62.0662 30.7075 62.1755 31.4462L62.323 32.4433L57.4481 33.1645C57.5526 33.7435 57.791 34.1752 58.1634 34.4598C58.5449 34.743 59.0265 34.8416 59.6082 34.7555C60.0975 34.6831 60.5339 34.5714 60.9172 34.4203C61.2992 34.26 61.6876 34.0469 62.0822 33.781L62.3178 35.3736C61.9758 35.6129 61.6033 35.8048 61.2001 35.9494C60.8075 36.1018 60.3204 36.2211 59.7387 36.3071C58.9816 36.4192 58.2917 36.3797 57.6691 36.1888C57.0451 35.9886 56.5245 35.6269 56.1075 35.1036C55.6904 34.5804 55.4176 33.8848 55.2892 33.0169C55.1581 32.1306 55.1972 31.3747 55.4066 30.7493C55.6239 30.1133 55.9784 29.608 56.4702 29.2333C56.962 28.8587 57.5634 28.6187 58.2743 28.5135ZM58.5053 29.9795C58.1083 30.0383 57.7951 30.2167 57.5656 30.5148C57.3453 30.8116 57.2524 31.2358 57.2868 31.7873L60.1813 31.3591C60.1362 31.0544 60.0405 30.7902 59.8942 30.5666C59.7571 30.3415 59.5722 30.1755 59.3393 30.0684C59.1065 29.9613 58.8285 29.9317 58.5053 29.9795ZM58.952 25.4413C59.1113 25.6253 59.3116 25.8315 59.553 26.06C59.8022 26.2779 60.0554 26.4904 60.3125 26.6977C60.5696 26.905 60.7935 27.0794 60.9843 27.221L61.0109 27.401L59.6399 27.6039C59.378 27.4917 59.0896 27.3598 58.7747 27.2083C58.4584 27.0475 58.1618 26.8602 57.8848 26.6464C57.6817 26.9312 57.4559 27.1911 57.2076 27.4259C56.9593 27.6608 56.7268 27.8745 56.5099 28.067L55.1389 28.2698L55.1122 28.0898C55.2617 27.8884 55.4255 27.6566 55.6037 27.3943C55.7898 27.1215 55.966 26.8454 56.1322 26.5661C56.3063 26.2761 56.443 26.0201 56.5422 25.7978L58.952 25.4413ZM72.134 27.6235C72.8357 27.5197 73.4828 27.5891 74.0754 27.8316C74.6679 28.0742 75.163 28.4869 75.5606 29.0696C75.9581 29.6524 76.2225 30.3869 76.3536 31.2733C76.4848 32.1596 76.4458 32.9485 76.2367 33.6399C76.0263 34.322 75.6779 34.8689 75.1916 35.2805C74.7159 35.7 74.1456 35.9589 73.4808 36.0572C72.8622 36.1488 72.3109 36.0888 71.8267 35.8774C71.3532 35.6738 71.0125 35.3799 70.8046 34.9955L71.5402 39.9674L69.0473 40.3362L67.2934 28.4812L69.7863 28.1124L69.8785 28.7356C70.1449 28.432 70.477 28.1895 70.8747 28.008C71.2803 27.8159 71.7001 27.6877 72.134 27.6235ZM72.6112 34.7707C73.0544 34.7051 73.3835 34.4111 73.5987 33.8886C73.8218 33.3556 73.8677 32.6459 73.7366 31.7595C73.6096 30.9009 73.3587 30.2256 72.984 29.7339C72.6186 29.2407 72.1589 29.0351 71.6049 29.117C71.3556 29.1539 71.0862 29.2457 70.7965 29.3923C70.5161 29.5376 70.2715 29.7342 70.0629 29.982L70.5751 33.4444C70.7819 33.8855 71.0826 34.2279 71.4772 34.4714C71.8731 34.7242 72.2511 34.8239 72.6112 34.7707ZM79.669 24.0604C79.3455 24.297 79.0578 24.5848 78.8061 24.924C78.5543 25.2631 78.3706 25.6158 78.255 25.982C77.7685 25.3086 77.1353 24.8551 76.3554 24.6214C77.0124 24.0241 77.4909 23.3684 77.7909 22.6541C78.2603 23.3395 78.8863 23.8082 79.669 24.0604ZM79.6423 26.6542L80.8717 34.9638L78.3788 35.3326L77.1494 27.023L79.6423 26.6542ZM86.0074 32.5764C86.3213 32.53 86.565 32.4232 86.7384 32.256C86.9224 32.0967 86.9994 31.9155 86.9693 31.7124C86.9283 31.4354 86.7319 31.2238 86.3801 31.0778C86.0269 30.9224 85.5767 30.7815 85.0296 30.6548C84.2883 30.4909 83.73 30.3518 83.3545 30.2375C82.9777 30.114 82.6329 29.9197 82.3201 29.6546C82.0059 29.3803 81.8133 29.0031 81.7422 28.523C81.6343 27.7936 81.861 27.1893 82.4222 26.71C82.9913 26.2201 83.7698 25.902 84.7577 25.7559C85.6533 25.6234 86.4588 25.6788 87.1741 25.922C87.888 26.1561 88.4308 26.6041 88.8023 27.2662L86.8069 28.1275C86.6521 27.7825 86.4213 27.5619 86.1146 27.4657C85.8079 27.3696 85.4883 27.3461 85.1559 27.3953C84.8605 27.439 84.6233 27.5259 84.4445 27.6562C84.2735 27.7758 84.2023 27.9326 84.231 28.1265C84.2556 28.2927 84.3447 28.4163 84.4982 28.4974C84.6609 28.5771 84.9233 28.6609 85.2855 28.7489C85.6277 28.8303 85.8425 28.8788 85.9297 28.8942C86.7291 29.0684 87.343 29.2323 87.7715 29.3859C88.2077 29.5289 88.5744 29.7436 88.8715 30.0298C89.1779 30.3147 89.3672 30.7019 89.4396 31.1912C89.5585 31.9945 89.3197 32.6761 88.7232 33.2361C88.1267 33.7961 87.2884 34.156 86.2081 34.3158C85.3033 34.4496 84.4575 34.3766 83.6708 34.0968C82.8854 33.8261 82.2878 33.2305 81.8779 32.3099L84.0221 31.4974C84.205 31.9043 84.4757 32.2039 84.8344 32.3962C85.2009 32.5778 85.5919 32.6379 86.0074 32.5764ZM92.9035 26.3906L93.3747 29.5759C93.5127 30.5084 93.7143 31.2334 93.9795 31.7508C94.2462 32.2774 94.6354 32.6444 95.1472 32.8517C94.8545 32.9139 94.6435 32.9546 94.5143 32.9737C93.3694 33.1431 92.5158 32.9533 91.9534 32.4044C91.4002 31.8541 91.0266 30.9234 90.8327 29.6123L90.4106 26.7594L89.3719 26.913L89.126 25.2511L90.1647 25.0975L89.8205 22.7708L92.3134 22.402L92.6576 24.7286L94.2364 24.4951L94.4823 26.157L92.9035 26.3906ZM102.835 23.2229L104.065 31.5324L101.572 31.9012L101.361 30.4747C101.273 30.9028 101.028 31.2836 100.624 31.6169C100.231 31.9581 99.7254 32.1744 99.1068 32.2659C98.4421 32.3643 97.8167 32.2823 97.2306 32.0199C96.6552 31.7654 96.168 31.3421 95.769 30.7501C95.3687 30.1489 95.103 29.4051 94.9719 28.5187C94.8408 27.6324 94.8811 26.8528 95.0929 26.1799C95.3047 25.5069 95.659 24.9686 96.156 24.5649C96.6529 24.1611 97.2522 23.9074 97.9539 23.8035C98.3878 23.7393 98.8221 23.7411 99.2567 23.8089C99.6992 23.8661 100.092 24.0014 100.435 24.2149L100.343 23.5917L102.835 23.2229ZM100.619 25.4613C100.348 25.2845 100.052 25.1678 99.7325 25.1113C99.422 25.0535 99.1421 25.043 98.8928 25.0799C98.3388 25.1618 97.9537 25.4924 97.7375 26.0716C97.5305 26.6495 97.4906 27.3677 97.6176 28.2264C97.7487 29.1127 97.9936 29.7794 98.3522 30.2264C98.7187 30.6628 99.1235 30.8482 99.5667 30.7827C99.936 30.728 100.269 30.5231 100.565 30.1679C100.873 29.8205 101.061 29.4058 101.131 28.9236L100.619 25.4613ZM108.796 29.2049C109.11 29.1584 109.354 29.0516 109.527 28.8844C109.711 28.7251 109.788 28.5439 109.758 28.3408C109.717 28.0638 109.521 27.8523 109.169 27.7062C108.816 27.5509 108.366 27.4099 107.819 27.2833C107.077 27.1193 106.519 26.9802 106.144 26.8659C105.767 26.7424 105.422 26.5481 105.109 26.283C104.795 26.0087 104.602 25.6315 104.531 25.1514C104.423 24.422 104.65 23.8177 105.211 23.3384C105.78 22.8485 106.559 22.5305 107.547 22.3843C108.442 22.2518 109.248 22.3072 109.963 22.5505C110.677 22.7845 111.22 23.2325 111.591 23.8946L109.596 24.7559C109.441 24.4109 109.21 24.1903 108.904 24.0941C108.597 23.998 108.277 23.9745 107.945 24.0237C107.65 24.0674 107.412 24.1544 107.234 24.2846C107.063 24.4043 106.991 24.561 107.02 24.7549C107.045 24.9211 107.134 25.0447 107.287 25.1258C107.45 25.2055 107.712 25.2893 108.075 25.3773C108.417 25.4587 108.632 25.5072 108.719 25.5226C109.518 25.6968 110.132 25.8607 110.561 26.0143C110.997 26.1573 111.363 26.372 111.661 26.6583C111.967 26.9432 112.156 27.3303 112.229 27.8196C112.348 28.6229 112.109 29.3045 111.512 29.8645C110.916 30.4245 110.077 30.7844 108.997 30.9442C108.092 31.0781 107.247 31.0051 106.46 30.7252C105.674 30.4546 105.077 29.8589 104.667 28.9383L106.811 28.1258C106.994 28.5327 107.265 28.8323 107.623 29.0246C107.99 29.2062 108.381 29.2663 108.796 29.2049ZM25.0343 51.9184L23.4661 60.6418L20.7517 61.0434L16.7248 53.1478L18.8021 52.8404L21.4934 58.1174L22.5414 52.2872L25.0343 51.9184ZM28.8157 48.769C28.4922 49.0056 28.2046 49.2935 27.9528 49.6326C27.7011 49.9718 27.5174 50.3245 27.4018 50.6907C26.9153 50.0173 26.2821 49.5637 25.5022 49.33C26.1592 48.7328 26.6377 48.077 26.9377 47.3628C27.4071 48.0481 28.0331 48.5169 28.8157 48.769ZM28.7891 51.3629L30.0185 59.6724L27.5256 60.0412L26.2962 51.7317L28.7891 51.3629ZM35.1542 57.2851C35.4681 57.2386 35.7117 57.1318 35.8851 56.9647C36.0691 56.8053 36.1461 56.6241 36.1161 56.421C36.0751 56.144 35.8787 55.9325 35.5268 55.7864C35.1736 55.6311 34.7235 55.4901 34.1764 55.3635C33.4351 55.1996 32.8767 55.0604 32.5013 54.9462C32.1245 54.8226 31.7797 54.6283 31.4668 54.3633C31.1527 54.089 30.96 53.7118 30.889 53.2317C30.7811 52.5023 31.0078 51.8979 31.569 51.4186C32.1381 50.9287 32.9166 50.6107 33.9045 50.4645C34.8001 50.332 35.6055 50.3874 36.3208 50.6307C37.0348 50.8647 37.5775 51.3128 37.9491 51.9749L35.9537 52.8362C35.7988 52.4911 35.5681 52.2705 35.2614 52.1744C34.9546 52.0782 34.6351 52.0547 34.3027 52.1039C34.0073 52.1476 33.7701 52.2346 33.5912 52.3648C33.4202 52.4845 33.3491 52.6413 33.3778 52.8351C33.4024 53.0013 33.4914 53.125 33.6449 53.206C33.8077 53.2857 34.0701 53.3696 34.4322 53.4575C34.7745 53.539 34.9892 53.5874 35.0764 53.6028C35.8759 53.777 36.4898 53.9409 36.9182 54.0946C37.3545 54.2376 37.7212 54.4522 38.0183 54.7385C38.3246 55.0234 38.514 55.4105 38.5864 55.8998C38.7052 56.7031 38.4664 57.3847 37.87 57.9447C37.2735 58.5047 36.4351 58.8646 35.3549 59.0244C34.4501 59.1583 33.6043 59.0853 32.8175 58.8054C32.0321 58.5348 31.4345 57.9392 31.0247 57.0186L33.1689 56.206C33.3517 56.613 33.6225 56.9126 33.9812 57.1048C34.3477 57.2865 34.7387 57.3466 35.1542 57.2851ZM46.5408 48.7366L47.7702 57.0461L45.2773 57.4149L45.0868 56.1269C44.9752 56.5208 44.7098 56.895 44.2905 57.2496C43.8818 57.6119 43.345 57.8423 42.6803 57.9407C41.9509 58.0486 41.2771 57.9265 40.6589 57.5746C40.05 57.2212 39.6643 56.4952 39.5017 55.3965L38.6883 49.8983L41.1811 49.5295L42.011 55.1384C42.0888 55.6647 42.2596 56.0216 42.5232 56.209C42.7868 56.3965 43.0755 56.4669 43.3894 56.4205C43.7588 56.3659 44.0785 56.1676 44.3487 55.8257C44.6203 55.493 44.7898 55.0764 44.8573 54.5758L44.0479 49.1054L46.5408 48.7366ZM55.972 47.3412L57.2014 55.6508L54.7085 56.0196L54.4975 54.5931C54.4099 55.0212 54.1643 55.4019 53.7607 55.7352C53.3678 56.0764 52.862 56.2928 52.2434 56.3843C51.5786 56.4827 50.9532 56.4006 50.3672 56.1382C49.7917 55.8837 49.3045 55.4605 48.9056 54.8685C48.5053 54.2673 48.2396 53.5235 48.1084 52.6371C47.9773 51.7508 48.0176 50.9711 48.2294 50.2982C48.4412 49.6253 48.7956 49.087 49.2925 48.6833C49.7894 48.2795 50.3888 48.0257 51.0904 47.9219C51.5244 47.8577 51.9587 47.8595 52.3933 47.9273C52.8357 47.9845 53.2284 48.1198 53.5714 48.3333L53.4792 47.71L55.972 47.3412ZM53.7558 49.5797C53.4843 49.4028 53.1887 49.2862 52.869 49.2297C52.5585 49.1719 52.2786 49.1614 52.0294 49.1982C51.4754 49.2802 51.0903 49.6108 50.8741 50.19C50.6671 50.7679 50.6271 51.4861 50.7541 52.3448C50.8853 53.2311 51.1301 53.8978 51.4888 54.3448C51.8552 54.7812 52.2601 54.9666 52.7032 54.901C53.0726 54.8464 53.4055 54.6415 53.702 54.2862C54.0092 53.9389 54.1978 53.5241 54.268 53.042L53.7558 49.5797ZM60.3012 44.1109C59.9776 44.3474 59.69 44.6353 59.4383 44.9744C59.1865 45.3136 59.0028 45.6663 58.8872 46.0325C58.4007 45.3591 57.7675 44.9056 56.9876 44.6719C57.6446 44.0746 58.1231 43.4188 58.4231 42.7046C58.8925 43.3899 59.5185 43.8587 60.3012 44.1109ZM60.2745 46.7047L61.5039 55.0142L59.011 55.3831L57.7816 47.0735L60.2745 46.7047ZM66.6396 52.6269C66.9535 52.5805 67.1972 52.4736 67.3706 52.3065C67.5546 52.1472 67.6315 51.9659 67.6015 51.7628C67.5605 51.4858 67.3641 51.2743 67.0123 51.1282C66.6591 50.9729 66.2089 50.8319 65.6618 50.7053C64.9205 50.5414 64.3621 50.4023 63.9867 50.288C63.6099 50.1645 63.2651 49.9702 62.9523 49.7051C62.6381 49.4308 62.4454 49.0536 62.3744 48.5735C62.2665 47.8441 62.4932 47.2397 63.0544 46.7604C63.6235 46.2705 64.402 45.9525 65.3899 45.8063C66.2855 45.6738 67.0909 45.7292 67.8062 45.9725C68.5202 46.2065 69.0629 46.6546 69.4345 47.3167L67.4391 48.178C67.2842 47.8329 67.0535 47.6123 66.7468 47.5162C66.4401 47.42 66.1205 47.3965 65.7881 47.4457C65.4927 47.4894 65.2555 47.5764 65.0767 47.7067C64.9057 47.8263 64.8345 47.9831 64.8632 48.177C64.8878 48.3432 64.9768 48.4668 65.1303 48.5479C65.2931 48.6276 65.5555 48.7114 65.9176 48.7993C66.2599 48.8808 66.4746 48.9292 66.5618 48.9446C67.3613 49.1188 67.9752 49.2827 68.4036 49.4364C68.8399 49.5794 69.2066 49.794 69.5037 50.0803C69.81 50.3652 69.9994 50.7523 70.0718 51.2417C70.1906 52.0449 69.9518 52.7265 69.3554 53.2865C68.7589 53.8465 67.9205 54.2064 66.8403 54.3662C65.9355 54.5001 65.0897 54.4271 64.3029 54.1472C63.5175 53.8766 62.9199 53.281 62.5101 52.3604L64.6543 51.5478C64.8371 51.9548 65.1079 52.2544 65.4666 52.4466C65.8331 52.6283 66.2241 52.6884 66.6396 52.6269ZM79.1663 43.7682C79.868 43.6643 80.5152 43.7337 81.1077 43.9763C81.7003 44.2188 82.1953 44.6315 82.5929 45.2142C82.9904 45.797 83.2548 46.5316 83.3859 47.4179C83.5171 48.3043 83.4781 49.0931 83.269 49.7845C83.0586 50.4666 82.7102 51.0135 82.2239 51.4251C81.7482 51.8446 81.1779 52.1035 80.5132 52.2019C79.8946 52.2934 79.3432 52.2334 78.859 52.022C78.3855 51.8185 78.0448 51.5245 77.8369 51.1401L78.5725 56.112L76.0797 56.4808L74.3257 44.6258L76.8186 44.257L76.9108 44.8802C77.1772 44.5766 77.5093 44.3341 77.907 44.1526C78.3126 43.9605 78.7324 43.8324 79.1663 43.7682ZM79.6435 50.9153C80.0867 50.8497 80.4159 50.5557 80.631 50.0333C80.8541 49.5002 80.9001 48.7905 80.7689 47.9042C80.6419 47.0455 80.391 46.3703 80.0163 45.8785C79.6509 45.3853 79.1912 45.1797 78.6372 45.2617C78.3879 45.2986 78.1185 45.3903 77.8288 45.537C77.5484 45.6822 77.3039 45.8788 77.0952 46.1267L77.6075 49.589C77.8143 50.0301 78.1149 50.3725 78.5095 50.616C78.9054 50.8688 79.2834 50.9686 79.6435 50.9153ZM91.7988 42.0407L93.0282 50.3503L90.5354 50.7191L90.3243 49.2926C90.2367 49.7207 89.9911 50.1014 89.5875 50.4348C89.1946 50.7759 88.6888 50.9923 88.0702 51.0838C87.4054 51.1822 86.78 51.1001 86.194 50.8378C85.6185 50.5832 85.1313 50.16 84.7324 49.568C84.3321 48.9668 84.0664 48.223 83.9353 47.3366C83.8041 46.4503 83.8444 45.6707 84.0562 44.9977C84.268 44.3248 84.6224 43.7865 85.1193 43.3828C85.6163 42.979 86.2156 42.7252 86.9173 42.6214C87.3512 42.5572 87.7855 42.559 88.2201 42.6268C88.6626 42.684 89.0553 42.8193 89.3982 43.0328L89.306 42.4096L91.7988 42.0407ZM89.5826 44.2792C89.3111 44.1024 89.0155 43.9857 88.6958 43.9292C88.3853 43.8714 88.1055 43.8609 87.8562 43.8978C87.3022 43.9797 86.9171 44.3103 86.7009 44.8895C86.4939 45.4674 86.4539 46.1856 86.581 47.0443C86.7121 47.9306 86.957 48.5973 87.3156 49.0443C87.6821 49.4807 88.0869 49.6661 88.5301 49.6005C88.8994 49.5459 89.2323 49.341 89.5288 48.9857C89.836 48.6384 90.0246 48.2236 90.0948 47.7415L89.5826 44.2792ZM97.7289 41.0219C97.9966 40.9823 98.2929 40.9762 98.6178 41.0036C98.9519 41.0296 99.2339 41.087 99.4641 41.1756L99.3191 42.683C99.1895 42.6362 99.0304 42.6125 98.8416 42.6122C98.6515 42.6025 98.4826 42.6087 98.3348 42.6305C98.0025 42.6797 97.6745 42.8226 97.351 43.0591C97.0274 43.2957 96.7637 43.6178 96.5599 44.0253C96.356 44.4329 96.2554 44.9006 96.258 45.4286L96.9014 49.7773L94.4085 50.1461L93.1791 41.8365L95.672 41.4677L95.7642 42.0909C95.9715 41.8338 96.2587 41.6073 96.626 41.4115C96.992 41.2064 97.3596 41.0765 97.7289 41.0219ZM107.744 39.6816L108.974 47.9912L106.481 48.36L106.27 46.9335C106.182 47.3616 105.937 47.7423 105.533 48.0757C105.14 48.4168 104.634 48.6332 104.016 48.7247C103.351 48.8231 102.726 48.741 102.14 48.4787C101.564 48.2241 101.077 47.8009 100.678 47.2089C100.278 46.6077 100.012 45.8639 99.8808 44.9775C99.7497 44.0912 99.79 43.3115 100.002 42.6386C100.214 41.9657 100.568 41.4274 101.065 41.0237C101.562 40.6199 102.161 40.3661 102.863 40.2623C103.297 40.1981 103.731 40.1999 104.166 40.2677C104.608 40.3249 105.001 40.4602 105.344 40.6737L105.252 40.0504L107.744 39.6816ZM105.528 41.9201C105.257 41.7433 104.961 41.6266 104.641 41.5701C104.331 41.5123 104.051 41.5018 103.802 41.5387C103.248 41.6206 102.863 41.9512 102.646 42.5304C102.439 43.1083 102.399 43.8265 102.527 44.6852C102.658 45.5715 102.903 46.2382 103.261 46.6852C103.628 47.1216 104.032 47.307 104.476 47.2414C104.845 47.1868 105.178 46.9819 105.474 46.6266C105.782 46.2793 105.97 45.8645 106.04 45.3824L105.528 41.9201ZM22.6541 74.3806C22.8934 74.9773 23.2559 75.419 23.7418 75.7057C24.2355 75.9817 24.8655 76.0631 25.6318 75.9497C26.0011 75.8951 26.4077 75.7736 26.8516 75.5852C27.3047 75.3956 27.7064 75.0814 28.0567 74.6427C28.0018 75.5472 27.6918 76.2582 27.1268 76.7758C26.5711 77.292 25.8223 77.6198 24.8806 77.7591C23.5233 77.9599 22.4155 77.7417 21.557 77.1045C20.6985 76.4673 20.1702 75.4793 19.9721 74.1405C19.841 73.2542 19.8885 72.4593 20.1147 71.756C20.3501 71.0513 20.7472 70.4831 21.306 70.0513C21.8635 69.6103 22.5484 69.3297 23.3609 69.2095C24.4227 69.0524 25.3801 69.274 26.2331 69.8743C27.094 70.464 27.6645 71.7052 27.9445 73.5979L22.6541 74.3806ZM23.5929 70.8734C23.1959 70.9322 22.8893 71.1238 22.6732 71.4482C22.4662 71.7713 22.3641 72.1969 22.3667 72.7248L25.2889 72.2925C25.1502 71.7375 24.9232 71.3512 24.608 71.1337C24.3006 70.9055 23.9623 70.8188 23.5929 70.8734ZM33.296 67.7396C34.0254 67.6317 34.6946 67.7544 35.3035 68.1078C35.9217 68.4597 36.3121 69.1851 36.4746 70.2838L37.288 75.782L34.7952 76.1508L33.9653 70.5418C33.8875 70.0155 33.7168 69.6587 33.4532 69.4713C33.1895 69.2838 32.9008 69.2133 32.5869 69.2598C32.2176 69.3144 31.8978 69.5127 31.6276 69.8546C31.356 70.1872 31.1865 70.6038 31.119 71.1044L31.9284 76.5749L29.4355 76.9437L28.2061 68.6342L30.699 68.2653L30.8896 69.5533C31.0011 69.1594 31.2619 68.7859 31.672 68.4328C32.0899 68.069 32.6313 67.838 33.296 67.7396ZM40.8054 68.4684L41.2767 71.6537C41.4147 72.5863 41.6163 73.3112 41.8815 73.8286C42.1481 74.3553 42.5374 74.7223 43.0492 74.9296C42.7565 74.9918 42.5455 75.0324 42.4163 75.0516C41.2714 75.2209 40.4178 75.0312 39.8554 74.4822C39.3022 73.9319 38.9286 73.0012 38.7347 71.6902L38.3126 68.8372L37.2739 68.9909L37.028 67.329L38.0667 67.1753L37.7225 64.8486L40.2153 64.4798L40.5596 66.8065L42.1384 66.5729L42.3843 68.2348L40.8054 68.4684ZM45.5784 70.989C45.8177 71.5858 46.1802 72.0274 46.6661 72.3141C47.1598 72.5901 47.7898 72.6715 48.5561 72.5581C48.9254 72.5035 49.332 72.382 49.7759 72.1937C50.229 72.004 50.6307 71.6898 50.981 71.2511C50.9261 72.1556 50.6161 72.8666 50.0511 73.3842C49.4954 73.9004 48.7466 74.2282 47.8049 74.3675C46.4476 74.5683 45.3398 74.3501 44.4813 73.7129C43.6228 73.0757 43.0945 72.0877 42.8964 70.7489C42.7653 69.8626 42.8128 69.0677 43.039 68.3644C43.2744 67.6597 43.6715 67.0915 44.2303 66.6597C44.7878 66.2187 45.4727 65.9381 46.2852 65.8179C47.347 65.6608 48.3044 65.8824 49.1574 66.4827C50.0183 67.0724 50.5888 68.3136 50.8688 70.2063L45.5784 70.989ZM46.5172 67.4818C46.1202 67.5406 45.8136 67.7322 45.5975 68.0566C45.3905 68.3797 45.2884 68.8053 45.291 69.3332L48.2132 68.9009C48.0745 68.3459 47.8475 67.9596 47.5323 67.7421C47.2249 67.514 46.8866 67.4272 46.5172 67.4818ZM56.2203 64.348C56.9497 64.2401 57.6189 64.3628 58.2278 64.7162C58.846 65.0682 59.2364 65.7935 59.3989 66.8922L60.2123 72.3904L57.7195 72.7592L56.8896 67.1502C56.8118 66.624 56.6411 66.2671 56.3775 66.0797C56.1138 65.8922 55.8251 65.8217 55.5112 65.8682C55.1419 65.9228 54.8221 66.1211 54.5519 66.463C54.2803 66.7956 54.1108 67.2123 54.0433 67.7129L54.8527 73.1833L52.3598 73.5521L51.1304 65.2426L53.6233 64.8738L53.8139 66.1617C53.9254 65.7678 54.1862 65.3943 54.5963 65.0412C55.0142 64.6774 55.5556 64.4464 56.2203 64.348ZM67.8569 58.9185L69.6436 70.995L67.1507 71.3638L66.9397 69.9374C66.852 70.3655 66.6065 70.7462 66.2029 71.0795C65.8099 71.4207 65.3041 71.637 64.6855 71.7286C64.0208 71.8269 63.3954 71.7449 62.8093 71.4825C62.2339 71.228 61.7467 70.8047 61.3478 70.2127C60.9475 69.6115 60.6817 68.8677 60.5506 67.9814C60.4195 67.095 60.4598 66.3154 60.6716 65.6425C60.8834 64.9696 61.2378 64.4313 61.7347 64.0275C62.2316 63.6238 62.8309 63.37 63.5326 63.2662C63.9666 63.202 64.4008 63.2038 64.8354 63.2716C65.2779 63.3288 65.6706 63.4641 66.0135 63.6775L65.364 59.2873L67.8569 58.9185ZM66.1979 64.9239C65.9265 64.7471 65.6309 64.6304 65.3112 64.574C65.0007 64.5161 64.7208 64.5056 64.4715 64.5425C63.9176 64.6245 63.5325 64.9551 63.3162 65.5343C63.1092 66.1121 63.0693 66.8304 63.1963 67.689C63.3274 68.5754 63.5723 69.242 63.9309 69.689C64.2974 70.1254 64.7022 70.3109 65.1454 70.2453C65.5147 70.1906 65.8476 69.9857 66.1442 69.6305C66.4513 69.2831 66.64 68.8684 66.7102 68.3863L66.1979 64.9239ZM72.6818 66.9791C72.9211 67.5759 73.2836 68.0176 73.7695 68.3042C74.2632 68.5803 74.8932 68.6616 75.6595 68.5482C76.0289 68.4936 76.4355 68.3721 76.8793 68.1838C77.3325 67.9941 77.7341 67.6799 78.0844 67.2413C78.0295 68.1457 77.7195 68.8567 77.1545 69.3743C76.5988 69.8905 75.85 70.2183 74.9083 70.3577C73.5511 70.5585 72.4432 70.3402 71.5847 69.703C70.7262 69.0658 70.1979 68.0778 69.9998 66.7391C69.8687 65.8527 69.9162 65.0579 70.1424 64.3545C70.3778 63.6498 70.7749 63.0816 71.3337 62.6498C71.8912 62.2088 72.5761 61.9282 73.3886 61.808C74.4504 61.6509 75.4078 61.8725 76.2609 62.4728C77.1218 63.0625 77.6922 64.3037 77.9723 66.1964L72.6818 66.9791ZM73.6207 63.472C73.2236 63.5307 72.9171 63.7223 72.7009 64.0468C72.4939 64.3699 72.3918 64.7954 72.3944 65.3234L75.3166 64.891C75.1779 64.336 74.9509 63.9498 74.6357 63.7322C74.3283 63.5041 73.99 63.4173 73.6207 63.472ZM82.7836 60.418C83.0514 60.3784 83.3477 60.3723 83.6725 60.3997C84.0066 60.4258 84.2887 60.4831 84.5188 60.5717L84.3739 62.0792C84.2443 62.0323 84.0851 62.0087 83.8963 62.0083C83.7062 61.9987 83.5373 62.0048 83.3896 62.0267C83.0572 62.0759 82.7292 62.2187 82.4057 62.4553C82.0822 62.6918 81.8185 63.0139 81.6146 63.4215C81.4107 63.829 81.3101 64.2968 81.3127 64.8248L81.9561 69.1734L79.4632 69.5422L78.2339 61.2327L80.7267 60.8639L80.8189 61.4871C81.0262 61.23 81.3135 61.0035 81.6808 60.8076C82.0467 60.6025 82.4143 60.4727 82.7836 60.418ZM89.6585 63.7882C89.5342 62.948 89.5905 62.1801 89.8272 61.4847C90.0719 60.7786 90.4861 60.1984 91.0699 59.7441C91.6537 59.2897 92.3749 58.999 93.2335 58.872C94.1014 58.7436 94.8805 58.8123 95.5709 59.0781C96.2704 59.3426 96.8388 59.7727 97.2761 60.3685C97.7225 60.9629 98.0086 61.6848 98.1343 62.5342C98.2586 63.3744 98.1984 64.1475 97.9538 64.8536C97.717 65.5491 97.3067 66.124 96.723 66.5783C96.1392 67.0326 95.4179 67.3233 94.5593 67.4503C93.6914 67.5787 92.9077 67.5107 92.2081 67.2463C91.5178 66.9804 90.9494 66.5503 90.5029 65.9559C90.0657 65.3602 89.7842 64.6376 89.6585 63.7882ZM92.1514 63.4193C92.2607 64.158 92.4868 64.7614 92.8296 65.2296C93.1725 65.6978 93.6579 65.8854 94.2857 65.7925C94.9135 65.6996 95.3238 65.3795 95.5164 64.8321C95.709 64.2847 95.7507 63.6416 95.6414 62.903C95.5321 62.1644 95.3061 61.561 94.9632 61.0928C94.6203 60.6246 94.1349 60.4369 93.5071 60.5298C92.8793 60.6227 92.469 60.9429 92.2764 61.4903C92.0838 62.0377 92.0421 62.6807 92.1514 63.4193ZM103.075 64.4215C103.388 64.375 103.632 64.2682 103.805 64.1011C103.989 63.9417 104.066 63.7605 104.036 63.5574C103.995 63.2804 103.799 63.0689 103.447 62.9228C103.094 62.7675 102.644 62.6265 102.097 62.4999C101.355 62.336 100.797 62.1968 100.422 62.0826C100.045 61.959 99.7 61.7648 99.3872 61.4997C99.073 61.2254 98.8804 60.8482 98.8093 60.3681C98.7014 59.6387 98.9281 59.0343 99.4893 58.555C100.058 58.0651 100.837 57.7471 101.825 57.6009C102.72 57.4684 103.526 57.5238 104.241 57.7671C104.955 58.0011 105.498 58.4492 105.869 59.1113L103.874 59.9726C103.719 59.6275 103.488 59.4069 103.182 59.3108C102.875 59.2146 102.555 59.1911 102.223 59.2403C101.928 59.284 101.69 59.371 101.512 59.5012C101.341 59.6209 101.269 59.7777 101.298 59.9716C101.323 60.1377 101.412 60.2614 101.565 60.3424C101.728 60.4222 101.99 60.506 102.353 60.5939C102.695 60.6754 102.91 60.7238 102.997 60.7392C103.796 60.9134 104.41 61.0773 104.839 61.231C105.275 61.374 105.642 61.5886 105.939 61.8749C106.245 62.1598 106.434 62.5469 106.507 63.0363C106.626 63.8395 106.387 64.5211 105.79 65.0811C105.194 65.6411 104.355 66.001 103.275 66.1608C102.37 66.2947 101.525 66.2217 100.738 65.9418C99.9525 65.6712 99.3548 65.0756 98.945 64.155L101.089 63.3424C101.272 63.7494 101.543 64.049 101.901 64.2412C102.268 64.4229 102.659 64.483 103.075 64.4215ZM27.0954 85.842C27.7971 85.7382 28.4442 85.8076 29.0367 86.0501C29.6293 86.2927 30.1243 86.7053 30.5219 87.2881C30.9195 87.8709 31.1838 88.6054 31.315 89.4918C31.4461 90.3781 31.4071 91.167 31.1981 91.8584C30.9876 92.5405 30.6393 93.0874 30.1529 93.499C29.6772 93.9185 29.107 94.1774 28.4422 94.2757C27.8236 94.3672 27.2722 94.3073 26.7881 94.0959C26.3145 93.8923 25.9738 93.5983 25.766 93.214L26.5016 98.1858L24.0087 98.5547L22.2548 86.6997L24.7476 86.3309L24.8398 86.9541C25.1063 86.6505 25.4384 86.408 25.8361 86.2265C26.2417 86.0344 26.6614 85.9062 27.0954 85.842ZM27.5725 92.9891C28.0157 92.9236 28.3449 92.6296 28.5601 92.1071C28.7831 91.5741 28.8291 90.8644 28.698 89.978C28.5709 89.1194 28.3201 88.4441 27.9454 87.9523C27.5799 87.4592 27.1202 87.2536 26.5663 87.3355C26.317 87.3724 26.0475 87.4642 25.7578 87.6108C25.4774 87.7561 25.2329 87.9527 25.0243 88.2005L25.5365 91.6628C25.7433 92.104 26.044 92.4463 26.4385 92.6899C26.8344 92.9427 27.2124 93.0424 27.5725 92.9891ZM34.5688 89.8029C34.8081 90.3996 35.1706 90.8413 35.6565 91.128C36.1502 91.404 36.7802 91.4854 37.5465 91.372C37.9159 91.3174 38.3225 91.1959 38.7663 91.0075C39.2195 90.8179 39.6211 90.5037 39.9714 90.065C39.9165 90.9695 39.6065 91.6805 39.0415 92.1981C38.4858 92.7143 37.737 93.0421 36.7953 93.1814C35.438 93.3822 34.3302 93.164 33.4717 92.5268C32.6132 91.8896 32.0849 90.9016 31.8868 89.5628C31.7557 88.6765 31.8032 87.8816 32.0294 87.1783C32.2648 86.4736 32.6619 85.9054 33.2207 85.4736C33.7782 85.0326 34.4631 84.752 35.2756 84.6318C36.3374 84.4747 37.2948 84.6963 38.1479 85.2966C39.0088 85.8863 39.5792 87.1275 39.8593 89.0202L34.5688 89.8029ZM35.5077 86.2957C35.1106 86.3545 34.8041 86.5461 34.5879 86.8705C34.3809 87.1936 34.2788 87.6192 34.2814 88.1471L37.2036 87.7148C37.0649 87.1598 36.8379 86.7735 36.5227 86.556C36.2153 86.3278 35.877 86.2411 35.5077 86.2957ZM43.4828 85.2573L43.9541 88.4427C44.092 89.3752 44.2936 90.1002 44.5589 90.6176C44.8255 91.1442 45.2147 91.5112 45.7266 91.7185C45.4339 91.7807 45.2229 91.8214 45.0936 91.8405C43.9488 92.0099 43.0951 91.8201 42.5327 91.2712C41.9796 90.7209 41.606 89.7902 41.412 88.4791L40.9899 85.6262L39.9513 85.7798L39.7054 84.1179L40.7441 83.9643L40.3998 81.6376L42.8927 81.2688L43.2369 83.5954L44.8158 83.3619L45.0616 85.0238L43.4828 85.2573ZM49.9491 89.4663C50.263 89.4199 50.5067 89.313 50.6801 89.1459C50.8641 88.9866 50.9411 88.8053 50.911 88.6022C50.87 88.3252 50.6736 88.1137 50.3218 87.9676C49.9686 87.8123 49.5185 87.6713 48.9714 87.5447C48.2301 87.3808 47.6717 87.2417 47.2962 87.1274C46.9194 87.0039 46.5746 86.8096 46.2618 86.5445C45.9476 86.2702 45.755 85.893 45.684 85.4129C45.5761 84.6835 45.8027 84.0791 46.3639 83.5998C46.933 83.1099 47.7115 82.7919 48.6995 82.6457C49.595 82.5133 50.4005 82.5686 51.1158 82.8119C51.8297 83.0459 52.3725 83.494 52.744 84.1561L50.7486 85.0174C50.5938 84.6723 50.363 84.4517 50.0563 84.3556C49.7496 84.2594 49.4301 84.2359 49.0977 84.2851C48.8022 84.3288 48.5651 84.4158 48.3862 84.5461C48.2152 84.6657 48.144 84.8225 48.1727 85.0164C48.1973 85.1826 48.2864 85.3062 48.4399 85.3873C48.6026 85.467 48.8651 85.5508 49.2272 85.6387C49.5694 85.7202 49.7842 85.7686 49.8714 85.784C50.6708 85.9582 51.2847 86.1221 51.7132 86.2758C52.1495 86.4188 52.5162 86.6334 52.8133 86.9197C53.1196 87.2046 53.309 87.5917 53.3813 88.0811C53.5002 88.8843 53.2614 89.5659 52.6649 90.1259C52.0684 90.6859 51.2301 91.0458 50.1498 91.2056C49.245 91.3395 48.3992 91.2665 47.6125 90.9866C46.8271 90.716 46.2295 90.1204 45.8197 89.1998L47.9638 88.3872C48.1467 88.7942 48.4174 89.0938 48.7761 89.286C49.1426 89.4677 49.5336 89.5278 49.9491 89.4663ZM29.5834 102.659C30.2851 102.555 30.9322 102.625 31.5248 102.867C32.1173 103.11 32.6124 103.522 33.0099 104.105C33.4075 104.688 33.6719 105.422 33.803 106.309C33.9341 107.195 33.8952 107.984 33.6861 108.675C33.4757 109.357 33.1273 109.904 32.641 110.316C32.1652 110.735 31.595 110.994 30.9302 111.093C30.3116 111.184 29.7602 111.124 29.2761 110.913C28.8025 110.709 28.4618 110.415 28.254 110.031L28.465 111.457L25.9722 111.826L24.1855 99.7496L26.6784 99.3808L27.3279 103.771C27.5943 103.467 27.9264 103.225 28.3241 103.043C28.7297 102.851 29.1495 102.723 29.5834 102.659ZM30.0606 109.806C30.5037 109.741 30.8329 109.447 31.0481 108.924C31.2712 108.391 31.3171 107.681 31.186 106.795C31.0589 105.936 30.8081 105.261 30.4334 104.769C30.068 104.276 29.6083 104.071 29.0543 104.152C28.805 104.189 28.5355 104.281 28.2459 104.428C27.9654 104.573 27.7209 104.77 27.5123 105.017L28.0245 108.48C28.2313 108.921 28.532 109.263 28.9265 109.507C29.3225 109.76 29.7005 109.859 30.0606 109.806ZM38.7193 101.307C38.987 101.268 39.2833 101.262 39.6081 101.289C39.9422 101.315 40.2243 101.372 40.4544 101.461L40.3095 102.968C40.1799 102.922 40.0207 102.898 39.832 102.898C39.6419 102.888 39.4729 102.894 39.3252 102.916C38.9928 102.965 38.6649 103.108 38.3413 103.345C38.0178 103.581 37.7541 103.903 37.5502 104.311C37.3464 104.718 37.2457 105.186 37.2484 105.714L37.8917 110.063L35.3989 110.432L34.1695 102.122L36.6624 101.753L36.7546 102.376C36.9618 102.119 37.2491 101.893 37.6164 101.697C37.9823 101.492 38.3499 101.362 38.7193 101.307ZM43.9213 98.0894C43.5977 98.3259 43.3101 98.6138 43.0584 98.9529C42.8066 99.2921 42.6229 99.6448 42.5073 100.011C42.0208 99.3376 41.3876 98.8841 40.6077 98.6504C41.2647 98.0531 41.7432 97.3973 42.0432 96.6831C42.5126 97.3684 43.1386 97.8372 43.9213 98.0894ZM43.8946 100.683L45.124 108.993L42.6311 109.362L41.4017 101.052L43.8946 100.683ZM50.7689 99.5246C51.4983 99.4167 52.1674 99.5394 52.7764 99.8928C53.3945 100.245 53.7849 100.97 53.9474 102.069L54.7609 107.567L52.268 107.936L51.4382 102.327C51.3603 101.801 51.1896 101.444 50.926 101.256C50.6624 101.069 50.3736 100.998 50.0597 101.045C49.6904 101.099 49.3706 101.298 49.1004 101.64C48.8289 101.972 48.6593 102.389 48.5919 102.889L49.4012 108.36L46.9084 108.729L45.679 100.419L48.1718 100.05L48.3624 101.338C48.4739 100.944 48.7348 100.571 49.1448 100.218C49.5627 99.854 50.1041 99.623 50.7689 99.5246ZM63.1407 103.369C63.1247 104.41 62.8443 105.225 62.2995 105.815C61.756 106.414 60.9857 106.788 59.9886 106.935C59.1392 107.061 58.3706 107 57.683 106.753C56.9954 106.505 56.4291 106.089 55.984 105.504C55.5389 104.919 55.2521 104.192 55.1237 103.324C54.9926 102.438 55.0586 101.64 55.3217 100.931C55.594 100.221 56.0234 99.6483 56.61 99.2124C57.1951 98.7673 57.8893 98.4853 58.6926 98.3665C59.542 98.2408 60.3153 98.334 61.0125 98.646C61.7083 98.9487 62.2159 99.5105 62.5355 100.331L60.6924 101.17C60.5489 100.71 60.3222 100.39 60.0125 100.209C59.7106 100.018 59.3796 99.949 59.0195 100.002C58.484 100.081 58.0828 100.367 57.816 100.86C57.5478 101.343 57.4704 101.967 57.5838 102.734C57.7177 103.639 58.0556 104.296 58.5975 104.707C59.1394 105.117 59.7889 105.266 60.546 105.154C61.58 105.001 62.4449 104.406 63.1407 103.369ZM71.3615 96.6195L72.5909 104.929L70.0981 105.298L69.887 103.871C69.7994 104.3 69.5538 104.68 69.1502 105.014C68.7573 105.355 68.2515 105.571 67.6329 105.663C66.9681 105.761 66.3427 105.679 65.7567 105.417C65.1812 105.162 64.694 104.739 64.2951 104.147C63.8948 103.546 63.6291 102.802 63.498 101.915C63.3668 101.029 63.4072 100.249 63.6189 99.5765C63.8307 98.9036 64.1851 98.3653 64.682 97.9615C65.179 97.5578 65.7783 97.304 66.48 97.2002C66.9139 97.136 67.3482 97.1378 67.7828 97.2056C68.2253 97.2628 68.618 97.3981 68.9609 97.6115L68.8687 96.9883L71.3615 96.6195ZM69.1453 98.858C68.8738 98.6811 68.5782 98.5645 68.2585 98.508C67.948 98.4501 67.6682 98.4397 67.4189 98.4765C66.8649 98.5585 66.4798 98.8891 66.2636 99.4683C66.0566 100.046 66.0166 100.764 66.1437 101.623C66.2748 102.509 66.5197 103.176 66.8783 103.623C67.2448 104.059 67.6496 104.245 68.0928 104.179C68.4621 104.125 68.795 103.92 69.0915 103.565C69.3987 103.217 69.5873 102.802 69.6575 102.32L69.1453 98.858ZM76.1567 102.279C76.2277 102.759 76.3504 103.142 76.5248 103.427C76.7097 103.721 76.9642 103.942 77.2884 104.093C76.7758 104.263 76.3533 104.372 76.0209 104.422C75.3561 104.52 74.8237 104.429 74.4237 104.148C74.0237 103.868 73.7677 103.349 73.6557 102.592L72.1845 92.6483L74.6774 92.2795L76.1567 102.279ZM82.4891 94.8317C84.0863 94.5954 85.0305 95.4605 85.3214 97.4271L86.1348 102.925L83.642 103.294L82.8121 97.6851C82.7343 97.1589 82.5728 96.8007 82.3276 96.6105C82.0917 96.4189 81.8168 96.3464 81.5029 96.3928C81.1336 96.4475 80.8224 96.6398 80.5693 96.9697C80.3254 97.2983 80.1704 97.7175 80.1043 98.2273L80.9137 103.698L78.4208 104.067L76.6341 91.99L79.127 91.6212L79.8749 96.6762C79.957 96.4659 80.1069 96.2361 80.3248 95.9869C80.5506 95.7271 80.8457 95.49 81.2103 95.2756C81.5735 95.0521 81.9997 94.9041 82.4891 94.8317ZM93.9398 95.9681C94.0327 96.5959 94.0277 97.1675 93.9246 97.6828C93.8308 98.1967 93.6476 98.6484 93.375 99.0378C93.1103 99.4166 92.7647 99.7272 92.3382 99.9696C91.9104 100.203 91.4103 100.362 90.8378 100.446C90.3116 100.524 89.8099 100.513 89.3329 100.414C88.8638 100.304 88.4431 100.107 88.0708 99.8225C87.6971 99.5287 87.3817 99.1508 87.1246 98.6888C86.8768 98.2254 86.7065 97.6798 86.6136 97.052C86.4893 96.2118 86.5325 95.4836 86.7433 94.8675C86.9527 94.2421 87.3118 93.7361 87.8207 93.3494C88.3296 92.9628 88.9626 92.7135 89.7197 92.6015C90.4306 92.4963 91.081 92.5557 91.6708 92.7798C92.2606 93.0039 92.7555 93.3836 93.1555 93.9188C93.5541 94.4448 93.8155 95.1279 93.9398 95.9681ZM88.7187 96.7405C88.7924 97.2391 88.9054 97.6517 89.0575 97.9783C89.2174 98.2943 89.4258 98.5229 89.6826 98.6642C89.938 98.7962 90.2504 98.8349 90.6197 98.7803C90.989 98.7256 91.2721 98.5988 91.4691 98.3999C91.674 98.1903 91.8026 97.9118 91.855 97.5644C91.9153 97.2064 91.9085 96.7781 91.8348 96.2795C91.761 95.7809 91.6441 95.3737 91.4842 95.0577C91.3334 94.7403 91.1303 94.5156 90.8749 94.3836C90.6195 94.2515 90.3072 94.2128 89.9379 94.2675C89.3931 94.3481 89.0241 94.5961 88.8308 95.0115C88.6454 95.4163 88.608 95.9927 88.7187 96.7405ZM86.8079 92.3388C86.7823 91.9746 86.8012 91.6557 86.8645 91.3822C86.9357 91.0981 87.0421 90.8606 87.1837 90.6698C87.3239 90.4698 87.4894 90.3132 87.6803 90.2001C87.8803 90.0856 88.1004 90.0106 88.3404 89.975C88.5251 89.9477 88.7106 89.958 88.897 90.0059C89.0912 90.0432 89.2789 90.1004 89.4601 90.1773C89.6492 90.2437 89.8323 90.3015 90.0094 90.3508C90.1852 90.3909 90.3561 90.3986 90.5223 90.374C90.6608 90.3535 90.7858 90.2737 90.8973 90.1345C91.0088 89.9954 91.0745 89.8017 91.0944 89.5534L92.1054 89.4039C92.1552 90.123 92.0299 90.6793 91.7296 91.0728C91.4293 91.4664 91.0437 91.698 90.5728 91.7676C90.3882 91.7949 90.2034 91.7893 90.0184 91.7506C89.832 91.7027 89.6443 91.6455 89.4552 91.5792C89.2648 91.5036 89.0817 91.4457 88.9059 91.4057C88.7288 91.3564 88.5571 91.3441 88.3909 91.3687C88.2525 91.3891 88.1275 91.469 88.016 91.6081C87.9045 91.7473 87.8388 91.941 87.8189 92.1892L86.8079 92.3388ZM97.7555 97.6396C97.9948 98.2364 98.3573 98.6781 98.8432 98.9647C99.3369 99.2408 99.9669 99.3221 100.733 99.2087C101.103 99.1541 101.509 99.0326 101.953 98.8443C102.406 98.6546 102.808 98.3404 103.158 97.9018C103.103 98.8062 102.793 99.5172 102.228 100.035C101.672 100.551 100.924 100.879 99.982 101.018C98.6247 101.219 97.5169 101.001 96.6584 100.364C95.7999 99.7263 95.2716 98.7383 95.0735 97.3996C94.9424 96.5132 94.9899 95.7184 95.2161 95.015C95.4515 94.3103 95.8486 93.7421 96.4074 93.3103C96.9649 92.8693 97.6498 92.5887 98.4623 92.4685C99.5241 92.3114 100.482 92.533 101.335 93.1333C102.195 93.723 102.766 94.9642 103.046 96.8569L97.7555 97.6396ZM98.6944 94.1325C98.2973 94.1912 97.9907 94.3828 97.7746 94.7073C97.5676 95.0304 97.4655 95.4559 97.4681 95.9839L100.39 95.5515C100.252 94.9965 100.025 94.6103 99.7094 94.3927C99.402 94.1646 99.0637 94.0778 98.6944 94.1325ZM107.888 98.0794C108.202 98.033 108.446 97.9261 108.619 97.759C108.803 97.5997 108.88 97.4184 108.85 97.2153C108.809 96.9383 108.613 96.7268 108.261 96.5807C107.908 96.4254 107.458 96.2844 106.91 96.1578C106.169 95.9939 105.611 95.8548 105.235 95.7405C104.859 95.617 104.514 95.4227 104.201 95.1576C103.887 94.8833 103.694 94.5061 103.623 94.026C103.515 93.2966 103.742 92.6922 104.303 92.2129C104.872 91.723 105.651 91.405 106.639 91.2588C107.534 91.1263 108.34 91.1817 109.055 91.425C109.769 91.659 110.312 92.1071 110.683 92.7692L108.688 93.6305C108.533 93.2854 108.302 93.0648 107.995 92.9687C107.689 92.8725 107.369 92.849 107.037 92.8982C106.741 92.9419 106.504 93.0289 106.325 93.1592C106.154 93.2788 106.083 93.4356 106.112 93.6295C106.136 93.7957 106.225 93.9193 106.379 94.0004C106.542 94.0801 106.804 94.1639 107.166 94.2518C107.509 94.3333 107.723 94.3817 107.81 94.3971C108.61 94.5713 109.224 94.7352 109.652 94.8889C110.089 95.0319 110.455 95.2465 110.752 95.5328C111.059 95.8177 111.248 96.2048 111.32 96.6942C111.439 97.4974 111.201 98.179 110.604 98.739C110.008 99.299 109.169 99.6589 108.089 99.8187C107.184 99.9526 106.338 99.8796 105.552 99.5997C104.766 99.3291 104.169 98.7335 103.759 97.8129L105.903 97.0003C106.086 97.4073 106.357 97.7069 106.715 97.8991C107.082 98.0808 107.473 98.1409 107.888 98.0794Z" fill="white"/>
</svg>
