<svg width="56" height="22" viewBox="0 0 56 22" fill="none" xmlns="http://www.w3.org/2000/svg">
<path d="M24.2277 21.5191C24.1154 21.5908 23.4384 21.6479 23.178 22C22.0176 21.48 21.5407 20.6584 21.2152 19.4618C19.9116 14.6723 21.7263 9.01071 19.4575 4.44294C19.0556 4.35165 17.9017 6.06171 17.6836 6.41057C16.0903 8.96996 14.9852 12.7797 14.663 15.7646C14.5425 16.8812 14.9234 17.9637 14.0657 18.945C12.1469 18.8342 11.5691 19.3461 11.1248 17.1861C10.4087 13.7007 10.425 8.84443 8.98464 5.64928C8.89838 5.45855 9.06113 5.35421 8.64612 5.42268C7.68915 7.20773 6.94376 9.12482 6.41319 11.0876C6.06979 12.3624 5.5311 14.5142 5.40903 15.7825C5.27883 17.1518 6.01609 20.9339 3.99311 21.0545C3.85966 21.0626 2.73018 20.7105 2.62928 20.6437C2.32493 20.4415 2.10848 19.3624 2.02222 18.9711C1.13036 14.9755 0.188046 7.79623 0.0236697 3.70936C-0.00888009 2.91383 -0.137456 1.88193 0.843922 2.24709L1.24266 1.51025C2.79691 1.28528 3.53254 5.7748 3.77667 6.7904C3.82224 6.98277 3.84013 7.18165 4.08588 7.21262C5.04285 2.65952 9.37849 -2.5864 12.3438 4.07615L13.3561 7.0496C14.1129 3.92454 18.4387 -2.49674 22.0566 1.02771C24.8022 3.70284 24.6004 11.2033 24.5728 14.7799C24.5646 15.7499 24.7876 21.1605 24.2245 21.5207L24.2277 21.5191Z" fill="black"/>
<path d="M51.8494 3.52839C52.7787 4.12015 53.031 4.93687 53.1628 6.03561C53.5843 9.53887 52.8894 14.5973 55.093 17.6197C55.4445 18.1022 56.2192 18.218 55.9051 19.2662C55.2216 21.5435 53.0049 20.5736 51.9357 19.1537L50.4465 16.0074C49.4163 19.2205 46.0311 22.2331 42.8787 19.4292C39.8515 16.7378 39.8808 9.91381 40.2194 6.17417C40.3675 4.52769 40.5221 3.51535 42.2342 2.97413C44.3499 4.1446 43.4922 7.58754 43.6159 9.73449C43.7022 11.244 44.2213 15.3423 45.2597 16.3938C45.3752 16.5112 45.4273 16.6774 45.6519 16.6709C46.5877 16.7622 47.6798 14.2045 47.9597 13.435C49.0338 10.4795 48.7913 8.19723 49.317 5.3493C49.5172 4.26197 50.7834 2.8486 51.8527 3.52839H51.8494Z" fill="black"/>
<path d="M29.7893 14.0544C30.647 17.3816 33.2542 18.1984 36.2944 16.904C37.03 16.591 38.9716 15.1108 39.6226 16.3383C40.4445 17.8854 38.0081 19.7552 36.781 20.3241C34.4049 21.4261 31.1711 21.387 29.0553 19.7552C24.4869 16.2275 25.0501 7.27614 29.3841 3.79896C34.7157 -0.478634 42.0866 6.28336 36.1317 11.6956C34.3658 13.3013 32.1915 14.1539 29.7877 14.0561L29.7893 14.0544ZM29.4622 11.1217C31.2134 11.6825 37.7738 7.38373 34.4618 5.87255C31.6121 4.57167 29.4215 8.75309 29.4622 11.1217Z" fill="black"/>
</svg>
