<svg width="128" height="50" viewBox="0 0 128 50" fill="none" xmlns="http://www.w3.org/2000/svg">
<path d="M2.79794 15.8362C3.213 16.3401 3.39231 17.4626 3.51682 18.1095C7.81019 15.5684 13.8003 16.4781 16.0466 21.2625C19.0566 27.6733 11.1805 33.5885 5.33976 33.3956L6.50857 46.0974C6.35417 47.0835 6.84559 49.0142 6.14829 49.7376C5.45099 50.461 5.11397 49.5065 5.00606 48.8463C4.23239 49.2022 4.17926 49.3202 3.51682 48.6817C3.54505 49.0691 3.38401 49.0458 3.02208 49.0109C2.49412 46.5846 2.14215 44.0902 1.85659 41.6173C1.54447 38.9216 1.54613 35.9549 1.1759 33.3207C1.07628 32.6106 0.554969 32.7088 0.520104 32.3196C0.4869 31.9538 0.800684 31.3917 0.84219 30.9693C1.12277 28.0624 0.163154 23.9199 0.0319952 20.8501C0.00377126 20.1765 -0.0709388 16.1987 0.188058 16.0258C0.362382 15.9094 0.757521 15.9842 1.0215 15.8628C1.56772 15.6117 1.84663 14.6837 2.79794 15.8362ZM4.21579 21.4654L5.00937 29.4892L5.28165 29.8917C7.68401 29.5624 10.606 28.4582 12.1401 26.4959C16.123 21.3955 7.69398 18.5418 4.21579 21.4654Z" fill="black"/>
<path d="M107.343 0.0412164C107.378 0.0611722 107.851 0.596651 107.868 0.633236C108.424 1.83224 108.258 5.73525 108.215 7.23526C108.095 11.4759 107.762 15.5701 107.87 19.8622C107.954 23.2398 107.936 28.0474 109.118 31.0707C109.558 32.1966 109.183 32.8684 108.54 33.8213C108.019 33.65 107.518 33.9111 107.121 33.9028C105.861 33.8795 104.675 30.7049 104.723 29.574C104.267 29.5508 104.146 30.1178 103.82 30.4122C99.009 34.7542 93.3326 31.8706 92.6586 25.7891C92.0244 20.0601 98.0942 12.3306 104.225 15.7846C104.443 12.1693 104.582 8.51575 105.08 4.92705C105.197 4.08724 105.572 1.20696 105.977 0.674811C106.188 0.398756 106.993 -0.158339 107.343 0.042881V0.0412164ZM101.7 18.3223C97.6061 18.773 94.3437 25.0773 97.4998 28.084C99.7195 30.1993 102.713 28.0208 104.026 25.967V19.2237C103.422 18.2392 102.761 18.2059 101.7 18.3223Z" fill="black"/>
<path d="M114.385 16.1538C114.471 16.0258 116.782 14.6937 117.053 14.5873C121.173 12.9576 125.92 16.4332 127.371 20.2713C130.07 27.4155 123.682 36.7132 115.844 33.4754C110.053 31.084 110.294 23.4942 112.708 18.7081C113.103 17.9249 113.847 17.4326 114.195 16.8722C114.361 16.6061 114.3 16.2869 114.388 16.1555L114.385 16.1538ZM116.503 20.2697C114.006 22.5979 113.951 28.548 117.436 30.053C121.399 31.7658 124.666 26.9066 124.285 23.3612C123.996 20.6721 121.885 18.1078 119.027 18.314C118.776 18.9443 118.13 19.2603 117.758 19.7824C117.326 20.3878 116.677 22.5313 116.501 20.2697H116.503Z" fill="black"/>
<path d="M75.3984 29.0335C75.7852 29.4177 76.3264 29.1749 76.3696 30.3157C76.3879 30.8146 75.8815 31.977 75.4432 32.0668C72.8316 32.5973 71.5151 29.4742 71.0403 27.4138C70.2965 28.2536 69.7801 29.283 68.9733 30.0762C64.3794 34.5879 59.309 31.0108 59.588 25.1638C59.8005 20.7286 63.9162 14.722 68.9301 15.6566C69.3966 15.743 70.3579 16.3982 70.6551 16.4165C71.2345 16.4531 71.6296 15.3506 72.7818 16.4515C73.2733 16.9204 73.4376 17.5557 73.5107 18.2142C73.7813 20.6787 73.5754 27.2276 75.3984 29.0352V29.0335ZM69.8781 18.4454C65.5333 17.1682 61.8542 23.5707 63.2372 27.1727C64.0839 29.3761 66.0728 28.2819 67.2217 26.9931C69.2787 24.6898 69.7835 21.4238 69.8781 18.4454Z" fill="black"/>
<path d="M45.4696 32.8767C45.3666 32.9566 45.0445 32.8268 44.8669 32.9333C44.6892 33.0397 44.7772 33.6134 43.9488 33.364C42.511 32.9299 42.091 29.2731 42.008 27.9942C41.8453 25.4648 42.423 22.1206 41.4269 19.7708C40.8508 18.4122 40.0655 19.2486 39.3566 20.0269C37.6831 21.8662 36.2137 25.7026 36.0261 28.1555C35.9049 29.7337 36.491 32.7171 33.7998 32.2332C32.9431 32.0785 32.5563 30.8446 32.4068 30.1312C31.7759 27.1212 31.1019 20.1766 31.3791 17.1899C31.502 15.8611 32.9265 15.1511 33.7881 16.2869C34.3759 17.0602 34.5037 19.4183 34.7046 20.436C35.0931 20.5175 34.9702 20.3861 35.0765 20.2215C35.4799 19.5945 35.7406 18.8811 36.2254 18.2209C38.5696 15.0346 42.6073 13.3833 44.6345 17.8833C46.0008 20.9149 46.1569 28.1289 45.8215 31.4848C45.8016 31.6794 45.5227 32.8335 45.4662 32.8767H45.4696Z" fill="black"/>
<path d="M88.6705 32.6871C88.5991 32.6206 88.1956 31.8007 88.1392 31.6411C87.0716 28.5629 88.0711 24.911 87.7789 21.7031C87.7142 20.9914 87.3522 18.8029 86.5337 18.6433C84.7988 19.0623 83.4291 21.1593 82.6803 22.7026C81.211 25.7292 81.4551 27.3889 80.9886 30.4787C80.7644 31.9554 78.6792 32.0718 77.9404 30.8911C77.7677 30.6167 77.5967 29.9781 77.5303 29.6405C77.1534 27.7281 76.9293 24.6699 76.843 22.6876C76.7516 20.5923 76.9226 18.4686 76.8546 16.3716C79.5093 13.0024 79.5657 18.4969 80.2514 20.1017C81.744 17.406 84.827 13.6177 88.2986 15.2042C92.4226 17.0884 91.5261 25.8606 91.121 29.4925C90.9798 30.7514 91.2571 31.9886 90.1198 32.9831C89.9123 33.0679 88.8315 32.8384 88.6705 32.6888V32.6871Z" fill="black"/>
<path d="M20.9382 26.4178C21.6687 29.7404 24.4745 30.379 27.4082 29.1567C28.0457 28.8906 29.7059 27.6068 30.3949 28.3319C30.5344 28.4782 30.5178 28.7077 30.6191 28.8524C30.815 29.1351 31.2566 28.9438 30.9727 29.7321C30.3302 31.5115 27.0811 33.0115 25.3179 33.2094C16.1335 34.2404 14.6941 21.4571 20.5282 16.6162C25.7015 12.324 32.8703 18.2659 27.9743 23.5724C26.3008 25.3867 23.4253 26.5907 20.9416 26.4144L20.9382 26.4178ZM20.7722 23.5924C22.4042 23.5408 26.1381 21.7631 26.5448 20.1434C26.7341 19.3867 26.1564 18.6883 25.4292 18.5136C22.547 17.8252 20.6776 21.1079 20.7722 23.5924Z" fill="black"/>
<path d="M48.0227 29.1151C48.8594 28.1905 50.8451 29.4394 51.8977 29.5541C55.0471 29.9 57.8496 27.6883 54.2718 25.3501C52.5618 24.2326 50.3985 23.7886 48.7316 22.4249C43.565 18.196 50.0365 11.7752 55.4456 13.5413C56.6725 13.9421 58.5602 15.6134 57.1008 16.8556C56.3803 17.4676 55.771 16.7376 55.0189 16.6278C53.6442 16.4299 51.5241 16.8706 50.7272 18.1195C50.0465 19.1855 51.3946 19.824 52.1849 20.2963C54.8628 21.8994 59.0832 23.0768 59.4285 26.8318C59.8153 31.0575 56.0732 33.3939 52.2164 33.058C51.1937 32.9682 47.6176 31.7542 47.5196 30.6251C47.513 30.5453 47.9712 29.1733 48.026 29.1134L48.0227 29.1151Z" fill="black"/>
<path d="M115.513 42.1911L116.997 42.537C117.158 43.751 115.709 44.2981 114.681 44.1933C114.64 44.4943 115.322 44.3264 115.341 44.6074C115.341 44.6323 115.166 44.9683 115.053 45.0231C114.823 45.1329 113.152 45.3308 112.77 45.3541C104.556 45.8629 96.3674 41.2914 89.1304 38.0436L89.4608 37.3834C88.5776 36.808 87.2643 36.9743 86.4442 36.497C86.1237 36.3091 85.2853 35.3662 85.3351 35.012C85.3849 34.6578 86.4973 33.8862 86.8011 33.7914C87.8288 33.4704 96.6612 37.3635 98.3779 38.0037C101.004 38.9849 103.671 39.9627 106.41 40.5946C109.365 41.2764 112.364 41.5309 115.4 41.5592L115.643 41.8036L115.513 42.1911Z" fill="black"/>
</svg>
