<svg width="36" height="40" viewBox="0 0 36 40" fill="none" xmlns="http://www.w3.org/2000/svg">
<path d="M19.8831 0.189939L18.7453 0.508468C26.8792 0.584078 33.2973 5.99264 35.2897 13.6534C37.8192 23.375 33.6001 37.3903 22.5152 39.6731C6.46405 42.979 -6.05001 20.4149 3.093 7.94725C4.66377 5.80442 5.5867 5.8012 7.51068 4.43699C8.30991 3.87072 9.15796 2.81056 9.97508 2.21051C12.8383 0.106284 16.4193 -0.30716 19.8831 0.189939ZM7.03539 11.1181C3.41041 18.4088 6.36964 28.383 13.0971 32.8488C29.4201 43.6837 38.3108 12.0109 22.647 5.89612C16.2223 3.3881 11.79 5.82694 8.68591 11.3819C8.47268 11.7648 8.08365 13.1499 7.85414 13.2931C6.98981 13.8272 7.21118 12.1348 7.19653 11.6763C7.19002 11.4832 7.31698 11.0778 7.03539 11.1165V11.1181ZM33.2208 29.4367C34.1291 27.1829 35.0048 24.8277 35.0113 22.3679L33.0971 28.9139L33.2208 29.4383V29.4367Z" fill="black"/>
</svg>
