<svg width="84" height="47" viewBox="0 0 84 47" fill="none" xmlns="http://www.w3.org/2000/svg">
<path d="M5.77327 35.6759C7.25372 41.4791 12.0411 42.5319 17.164 40.3492C18.8559 39.6281 20.6483 37.8671 22.5133 38.0532C23.4874 38.1516 23.0943 38.4598 23.3443 38.8064C23.4596 38.9669 23.795 38.9862 23.8848 39.2323C24.6837 41.4299 19.9647 44.3614 18.2984 45.121C10.5244 48.6646 3.03027 45.9149 0.53935 37.6039C-1.42818 31.0367 2.13943 21.9147 8.76408 19.3276C17.7386 15.8226 26.6876 24.6173 18.3688 31.7258C16.2304 33.5532 11.9002 35.678 9.08025 35.678H5.77113L5.77327 35.6759ZM16.3778 27.4803C18.2813 25.5802 16.5808 23.3248 14.2095 23.0616C9.19774 22.5074 6.20907 27.2942 5.35028 31.6123C7.99715 31.5289 11.0563 30.7693 13.3956 29.5153C14.0044 29.1879 15.942 27.9169 16.38 27.4803H16.3778Z" fill="black"/>
<path d="M49.5565 10.6464C51.9278 10.4174 54.3077 9.92528 56.6939 9.81187C57.8689 9.75623 60.5862 9.61714 61.6074 9.80545C62.1286 9.90174 62.0539 10.3318 62.2846 10.4602C62.8272 10.7641 63.7095 10.7213 64.0171 11.4424C64.1773 12.2299 62.5516 12.6942 61.9214 12.5894L62.3465 13.1179L61.5497 13.8176L50.1632 15.4952C50.7529 19.8177 51.1929 24.1765 51.9214 28.4776C52.4256 31.4519 53.3527 38.3336 55.5104 40.2744C55.7262 40.4691 56.2923 40.9206 56.5315 40.9763C57.1917 41.1325 58.2299 40.4285 58.4713 41.1581C58.5418 41.3743 58.4542 43.9142 58.3431 44.171C57.9906 44.9884 57.0784 45.7395 56.2047 45.8765C50.9793 46.696 48.8537 39.35 47.933 35.4619C46.4269 29.0938 45.974 22.2956 45.2647 15.7927C45.0126 15.8975 44.814 15.9895 44.5256 16.0131C42.9789 16.135 39.0075 16.8262 37.9308 15.9767C36.8541 15.1272 37.8603 13.5715 38.8046 13.0644C39.7488 12.5573 44.8503 11.7591 45.0233 11.4895L44.6666 3.92735C44.987 2.41022 44.517 0.411622 46.4974 0.0157545C47.307 -0.146872 48.1402 0.987234 48.3645 1.68054C48.8152 3.07784 49.2083 10.3511 49.5523 10.6443L49.5565 10.6464Z" fill="black"/>
<path d="M74.9484 34.8221C73.8418 37.4905 70.6117 41.5326 67.5803 41.8771C60.7506 42.6517 58.0247 36.4441 59.2466 30.5382C60.2998 25.4518 65.0851 19.6679 70.7591 20.3077C71.3872 20.3783 72.9403 21.0759 73.1283 21.0631C73.987 21.0117 74.3118 19.4304 76.2344 21.0224C77.7405 22.2699 77.6166 26.8021 78.0332 28.8413C78.4327 30.8035 79.6974 34.2144 80.9236 35.7808C82.1498 37.3471 85.3521 37.2765 83.3654 40.1503C81.8614 42.3244 78.1592 39.9984 77.0868 38.34L74.9484 34.82V34.8221ZM72.3549 23.9454C68.9945 22.4197 65.7217 26.1045 64.41 28.867C63.3056 31.1951 62.7096 33.4077 64.0127 35.8257C65.7388 39.0247 68.7254 36.5896 70.1268 34.591C72.3549 31.4155 72.6006 27.7265 72.3549 23.9454Z" fill="black"/>
<path d="M25.9033 40.0091C26.9864 38.9135 29.0116 39.9685 30.24 40.1418C32.4489 40.4542 35.837 40.3258 37.5632 38.7531C39.3256 37.146 38.2916 35.8194 36.7108 34.7323C34.2711 33.0526 31.0902 32.554 28.4732 31.223C17.9157 25.8542 27.6956 14.6929 37.1551 17.8256C38.627 18.3135 40.8509 19.9119 39.5969 21.5532C38.2489 23.3164 37.2812 21.9212 35.7794 21.7693C34.0361 21.5938 31.5773 22.1437 30.2229 23.2821C28.3515 24.8549 29.3363 25.9248 31.1073 26.8728C35.2581 29.096 42.9082 30.213 43.5597 36.2067C44.3074 43.0862 36.8496 45.4871 31.2739 45.0891C30.398 45.027 26.6745 44.3038 26.1425 43.8137C25.4312 43.159 25.162 40.7559 25.899 40.0091H25.9033Z" fill="black"/>
<path d="M80.6542 6.21692C81.3806 6.07998 83.2498 6.35387 83.4549 7.18198C83.5019 7.37456 83.0533 8.69269 82.9294 8.93235C82.1155 10.4987 78.253 13.0087 76.6337 13.9588C75.8348 14.4274 73.3545 15.8911 72.5961 15.7049C70.5325 15.1956 70.635 13.9331 71.7416 12.4802C72.5769 11.3825 75.6169 9.27045 76.8837 8.43592C77.5224 8.01651 80.1394 6.31321 80.6542 6.21478V6.21692Z" fill="black"/>
</svg>
