<svg width="53" height="38" viewBox="0 0 53 38" fill="none" xmlns="http://www.w3.org/2000/svg">
<path d="M14.287 0.143232C14.4543 0.507826 15.6909 1.14587 15.8014 1.34607C16.3442 2.32917 16.6773 6.3446 16.7732 7.64997C16.9178 9.63897 16.8268 11.6866 16.9308 13.6723C17.2541 19.8297 17.5905 26.0294 17.9139 32.2015C17.9756 33.3946 18.6077 35.9126 17.9009 36.9071C17.7709 37.091 16.9308 37.5256 16.6935 37.8251C15.9249 37.9211 15.9948 36.8354 15.7787 36.5392C15.7397 36.4871 14.7192 36.4139 14.4998 36.2706C13.923 35.893 13.4566 30.5934 13.3672 29.6005C13.1576 27.2502 13 24.8087 12.8716 22.4535C12.8115 21.3434 13.039 20.1894 12.714 19.1135C5.13351 25.2579 -2.42585 17.8342 0.739593 9.31669C2.45231 4.7088 7.48808 -0.15951 12.7709 0.913114L13.3656 0L14.287 0.144861V0.143232ZM12.3825 4.64858C11.2223 4.26934 10.1433 4.79344 9.14068 5.36963C6.28073 7.0103 3.65803 11.3952 4.51439 14.7238C5.14163 17.162 7.19722 18.1955 9.52905 17.1408C10.2652 16.8072 12.2606 15.1453 12.48 14.4047C12.714 13.6137 12.5791 11.2178 12.5612 10.2445C12.5547 9.86033 12.3971 9.50387 12.3857 9.11975C12.3402 7.6337 12.441 6.13463 12.3841 4.65021L12.3825 4.64858Z" fill="black"/>
<path d="M36.6347 16.3027C36.9435 16.6901 37.5951 16.7015 37.6422 17.5625C37.7023 18.6742 36.8476 19.2292 35.8303 19.2618C33.9909 19.3204 32.3805 16.5078 32.2002 14.885L31.0367 17.0514C28.4497 20.9203 23.9681 20.8292 21.6753 16.7259C19.9512 13.6431 19.423 7.21549 20.2615 3.82183C20.4874 2.90872 21.0545 1.76773 22.205 1.87353C24.2915 2.06559 23.6658 6.76137 23.7503 8.14325C23.843 9.64069 24.2606 12.0773 24.7416 13.4934C26.8686 19.7517 29.5011 12.4093 30.0471 9.71882C30.442 7.77377 30.3315 5.81245 30.5931 3.92437C30.9473 1.36733 34.1989 1.45359 34.5954 4.27757C34.9919 7.09016 34.87 14.0874 36.6347 16.3027Z" fill="black"/>
<path d="M41.4595 11.9585C42.3743 15.7379 45.9086 15.8144 48.9116 14.2974C49.4494 14.0256 50.0637 13.4527 50.6032 13.2264C51.9275 12.6747 51.8901 13.1011 53 13.674C52.6458 16.9961 47.5596 19.0941 44.6477 18.9297C35.1091 18.391 35.1968 3.27658 43.1559 0.729302C45.4471 -0.00476999 48.5313 0.696749 49.8768 2.79642C52.9074 7.52313 45.6958 12.3621 41.4595 11.9585ZM41.1345 9.1931C42.0997 9.05801 42.9544 8.81223 43.8401 8.40858C45.088 7.84052 49.3714 5.17605 46.6366 3.92601C43.7052 2.58646 40.9265 6.54003 41.1345 9.1931Z" fill="black"/>
</svg>
