<svg width="47" height="53" viewBox="0 0 47 53" fill="none" xmlns="http://www.w3.org/2000/svg">
<path d="M2.49211 19.2083C2.85148 19.6102 3.25114 21.4988 3.35105 21.5763C4.31472 21.1001 5.31706 20.5287 6.39999 20.3592C17.1922 18.674 19.8076 32.0828 9.22978 35.7696C8.00988 36.1941 6.35649 36.688 5.12208 36.412L6.25335 50.1921C6.28075 50.8216 6.27913 52.8425 5.50078 52.9846C4.72243 53.1266 4.65635 52.2453 4.48714 52.1242C4.40496 52.0645 4.14391 52.213 3.95536 52.171C3.60567 52.0935 3.44935 51.7901 2.86922 52.0532C1.83464 47.0009 1.54134 41.7968 1.09173 36.6557C0.7646 32.9044 0.374623 29.0095 0.129676 25.2033C0.0748855 24.3607 -0.218403 19.6635 0.315002 19.3439C0.456814 19.2584 0.790389 19.3697 0.975711 19.2858C1.4785 19.0598 1.77661 18.4093 2.49373 19.2083H2.49211ZM4.63702 33.0271C7.38945 33.0174 10.8671 31.5453 12.0757 28.9449C14.4059 23.9281 7.19929 22.3914 4.06977 24.8014L4.63702 33.0287V33.0271Z" fill="black"/>
<path d="M46.2667 8.51454C46.3183 8.52907 46.7904 9.0117 46.7921 9.07627C46.4939 9.79618 45.6108 9.97535 44.8985 9.96728C44.8711 10.2691 45.4706 10.0787 45.5415 10.3708C45.5979 10.6049 45.3353 10.7243 45.1773 10.8099L35.3859 12.8066C35.6502 16.0543 36.1401 19.3617 36.7347 22.5739C37.1876 25.0177 38.148 30.6301 39.5838 32.4606C40.3364 33.4194 40.7071 33.3371 41.8496 33.2547C42.1864 34.3782 42.5683 35.2692 41.8399 36.3329C40.5427 38.2263 38.2108 37.3224 36.9233 35.9326C34.3513 33.1547 33.3425 27.2194 32.706 23.5456C32.1307 20.2253 31.7294 16.8646 31.3701 13.5136C31.1702 13.3037 26.5968 14.5596 25.6476 14.4982C25.2141 14.4692 23.7896 13.9365 23.8009 13.4393C23.8009 13.378 24.2166 12.3901 24.2779 12.2997C25.0321 11.1827 29.6329 10.3628 30.9817 9.81555C31.0139 7.31361 30.321 4.62765 30.5675 2.14992C30.6948 0.866661 31.0848 0.763355 32.0082 0.0337559C33.6455 -0.439192 34.0661 4.19667 34.2417 5.23941C34.4512 6.48232 34.585 7.75427 34.7526 9.00202C38.1335 8.29824 41.769 7.43628 45.2192 7.87695V8.35635C44.7664 8.37249 44.3055 8.3386 43.8495 8.35635C43.6512 8.36442 43.2516 8.23368 43.287 8.51777C44.0751 8.66143 45.5883 8.32246 46.2667 8.51777V8.51454Z" fill="black"/>
<path d="M20.2588 29.158C21.0839 32.6026 24.0394 33.1353 26.9707 31.7665C28.1858 31.1999 29.0576 30.0361 30.566 30.1943L31.3491 31.4662C29.4895 35.5953 23.2739 37.6 19.5611 34.772C12.4044 29.321 18.1719 14.6048 26.3019 18.0252C27.7184 18.6208 29.0673 20.101 29.2623 21.6715C29.7715 25.7586 24.0056 29.5551 20.2588 29.158ZM19.9381 26.4155C21.6109 26.1121 23.3545 25.3938 24.684 24.3155C25.7089 23.4859 27.2511 21.7313 25.298 20.9678C22.3586 19.8185 19.9849 23.9152 19.9381 26.4155Z" fill="black"/>
</svg>
