<svg width="23" height="27" viewBox="0 0 23 27" fill="none" xmlns="http://www.w3.org/2000/svg">
  <path d="M0 7.16557C0.112547 6.9501 0.161257 6.32418 0.217845 6.04088C0.378208 5.23804 0.605738 4.6243 0.972965 3.89733C1.773 2.31355 3.17054 1.04503 4.88943 0.451573C5.48871 0.243525 5.66712 0.235442 6.24273 0.148937C7.6092 -0.0564025 8.71114 0.300255 9.94984 0.807292C10.363 0.976391 11.1467 1.24512 11.587 1.26806C12.0206 1.29065 12.8745 0.981153 13.2803 0.815658C14.8794 0.163377 16.2475 -0.215541 17.989 0.131308C18.6658 0.266112 18.9965 0.340515 19.6593 0.641097C20.661 1.09544 21.593 1.82497 22.2026 2.73255C19.7118 4.25431 18.5249 7.13027 19.4811 9.8706C19.6303 10.2984 19.8014 10.687 20.0507 11.071C20.7416 12.1438 21.7492 12.9889 22.9418 13.496C22.4505 14.9753 21.769 16.3333 20.8528 17.5961C20.08 18.6612 19.3296 19.7375 18.1446 20.385C18.0402 20.442 17.7256 20.5495 17.6661 20.596L15.407 20.596C15.2197 20.4995 15.0137 20.485 14.8398 20.4086C14.1287 20.0835 13.4388 19.7882 12.6493 19.7238C11.4118 19.6231 10.3239 19.8238 9.22109 20.3743C9.04962 20.4597 8.74413 20.4938 8.57887 20.596L6.29059 20.596C6.16483 20.5154 5.93795 20.4501 5.79337 20.364C4.96676 19.8712 4.30796 19.1064 3.72676 18.3692C2.18825 16.4403 1.07988 14.2207 0.472315 11.852C0.360179 11.4309 0.303647 10.9911 0.209299 10.5701C0.141832 10.2691 0.123556 9.58978 0 9.34246L0 7.16557Z" fill="white" transform="translate(0 6.40398)"/>
  <path d="M4.46216 0L5.67602 0C5.68096 0.085 5.68354 0.170114 5.68377 0.25525C5.69378 2.89804 3.70273 5.60423 0.927482 6.07727C0.64362 6.12566 0.305651 6.11587 0.0152988 6.11626C-0.027961 5.20093 0.00152972 4.61047 0.356884 3.73967C0.938578 2.31431 1.96012 1.13648 3.37552 0.435362C3.59007 0.328594 3.81034 0.233056 4.03538 0.149159C4.173 0.0993419 4.30797 0.0659641 4.44257 0.00847365L4.46216 0Z" fill="white" transform="translate(11.4192 0)"/>
</svg>
