<svg width="26" height="28" viewBox="0 0 26 28" fill="none" xmlns="http://www.w3.org/2000/svg">
<path d="M11.231 0L11.7967 0.224049C12.7373 1.27993 14.0918 6.62152 14.482 8.21996C16.4499 6.49844 19.1048 4.03523 21.2245 2.64566C20.6935 4.9234 19.1937 8.37576 18.2596 10.5148C19.7984 10.6349 24.9111 10.7298 25.7823 11.9538L25.6674 12.4244C24.4429 13.6289 20.4204 14.7234 18.5998 15.319C19.3541 16.579 23.071 21.9895 21.1334 22.7802C19.4733 22.5436 16.5452 19.7267 15.117 18.5352C15.0086 20.7178 14.7204 22.754 14.4386 24.9193C14.2371 26.088 14.1634 27.6165 12.8933 28C11.1075 27.0854 10.7065 21.4043 10.4789 19.4726C9.10053 20.3744 7.06111 22.3492 5.5895 22.5594L5.23837 22.2933C5.0975 21.1854 7.28433 17.1409 7.90851 16.0345C6.33505 15.7563 0.186389 15.389 0 13.8699C1.03381 12.6125 5.8214 11.5544 7.5314 11.0775C6.7425 10.0186 4.41913 6.53549 4.51016 5.32274L4.70956 5.17323C6.11615 5.23108 8.84478 7.45313 10.0671 8.3361C10.0628 5.8419 9.6857 1.78912 11.231 0Z" fill="#02743B"/>
<path d="M12.6097 13.7278C13.1905 13.7605 13.3358 13.816 13.9014 13.9793C14.4519 14.5999 14.311 14.2922 14.3999 15.1628C13.8602 15.1648 13.6717 15.1119 13.158 15.0062C12.5837 14.3949 12.7549 14.6935 12.6097 13.7278Z" fill="#0A813F"/>
</svg>
