<svg width="73" height="90" viewBox="0 0 73 90" fill="none" xmlns="http://www.w3.org/2000/svg">
<path d="M38.7302 9.92892C41.0368 6.10353 46.1311 1.2395 50.5582 0.154274C50.7895 0.0980654 51.022 0.0465727 51.2554 0C51.9392 0.298105 52.4723 0.527257 53.0945 0.961166C53.4385 2.41225 54.1853 4.1525 54.6132 5.80362C55.7531 10.202 56.1655 13.8579 56.4252 18.3246C57.8503 19.5964 60.9755 23.2201 61.233 25.0132L61.1614 25.0114L61.213 25.0016L61.1625 25.2517L61.052 25.1727L61.1056 25.2594L61.0723 25.3086L61.3883 25.326C61.8883 26.2598 62.3143 27.0133 62.4431 28.0902C62.6453 28.7408 62.7758 29.1219 62.7933 29.8051L62.871 29.8238C63.6586 30.0078 66.6388 30.3367 67.0293 30.834L66.9585 30.9989C66.3503 31.2084 65.9684 30.8104 65.3902 30.6835C64.6258 30.5154 63.6944 30.3541 62.9129 30.3327C63.7847 35.0016 62.7123 40.1063 59.4071 43.6396C59.8398 43.9228 60.3045 44.2403 60.7481 44.4976C66.3231 47.8662 68.4834 57.2868 66.5439 63.205C65.8388 65.0733 64.9337 66.8316 64.2987 68.7377C64.1894 69.0659 63.8095 69.9431 63.7457 70.2352C64.7666 70.5725 65.2918 72.867 65.4502 73.8346C66.9511 72.2376 69.162 71.6565 71.107 72.8017C71.499 73.1661 71.6268 73.2775 72.078 73.5606L72.2132 73.5385C72.8164 77.0977 71.723 80.1831 69.7913 83.11C70.7423 84.2883 69.6799 84.8956 68.6911 85.4125C65.9869 86.8267 62.7883 87.4149 59.8193 88.0101C57.9851 88.3785 56.1362 88.8753 54.2914 89.0791C48.3697 89.7345 42.3996 90.0236 36.4429 89.9985C27.4286 89.9935 18.5615 89.5017 9.74516 87.4812C7.65762 86.9683 5.5485 86.5758 3.55645 85.7307C2.44868 85.2228 0.237356 84.6155 1.04685 82.9444C1.44803 82.1163 2.32549 81.6957 3.14031 81.4127C1.21783 78.7237 0.356327 75.7607 0.0987109 72.4775C-0.296247 70.2683 0.579306 65.6873 1.21833 63.5421C2.39908 59.5782 6.25399 53.6213 10.0917 51.7727C10.4456 51.5082 10.8236 51.258 11.1898 51.0085L12.0282 50.4805C9.36967 48.2911 7.89084 45.943 6.98025 42.6685C5.85893 43.3523 4.89001 44.1997 3.75714 44.8155C4.53481 43.6657 5.77751 42.9199 6.91831 42.1055C6.61421 41.1576 6.4865 39.8475 6.34575 38.831C6.26342 38.4157 6.23471 37.901 6.19867 37.4695C4.66311 37.9221 3.18639 38.5966 1.71599 39.0042C3.35696 37.5351 4.54414 37.7031 6.36914 36.8469C6.32988 36.7507 6.29676 36.6519 6.26995 36.5514C6.12679 36.0299 6.2319 35.1298 6.29957 34.5764C6.62063 31.954 7.23947 29.8461 8.51019 27.5309C8.21271 26.6794 7.92899 25.8232 7.65923 24.9625C6.9168 22.5447 4.40319 9.69896 8.27526 8.83647C12.2871 7.94285 18.2952 10.9958 21.768 12.9816C23.3786 12.0427 26.6217 10.7022 28.5037 10.782C30.3677 9.94869 36.5423 9.56979 38.7302 9.92892Z" fill="#FEEEC6"/>
<path d="M38.7298 9.92892C41.0364 6.10353 46.1307 1.2395 50.5579 0.154274C50.7892 0.0980654 51.0216 0.0465727 51.2551 0C51.9388 0.298105 52.4719 0.527257 53.0942 0.961166C53.4382 2.41225 54.185 4.1525 54.6129 5.80362C55.7528 10.202 56.1652 13.8579 56.4248 18.3246C57.85 19.5964 60.9752 23.2201 61.2327 25.0132L61.1611 25.0114L61.2127 25.0016L61.1622 25.2517L61.0517 25.1727L61.1053 25.2594L61.072 25.3086L61.388 25.326C61.888 26.2598 62.314 27.0133 62.4428 28.0902C59.8898 28.7307 56.2435 28.7747 53.6972 28.1536C52.8293 28.6195 51.7577 29.3149 50.863 29.8318C51.5736 28.8299 52.0875 28.5382 53.1884 27.9587C50.9396 27.547 49.651 26.9802 47.6856 25.8768C47.8332 23.664 47.8375 22.1744 45.8163 20.7072C44.7537 19.9232 43.417 19.6066 42.1155 19.8308C40.6193 20.087 39.5786 20.9231 38.726 22.1431L38.2795 22.7934C32.3554 21.8354 30.8224 18.9007 28.8122 13.7874C28.6209 12.9397 28.5538 11.6488 28.5034 10.782C30.3674 9.94869 36.542 9.56979 38.7298 9.92892Z" fill="#1D1D1D"/>
<path d="M50.2997 2.98181C52.561 3.3576 53.0481 13.1369 53.0744 15.2545C51.599 14.2407 50.0164 13.2329 48.3906 12.4847C46.0763 11.5009 44.9415 11.0894 42.4678 10.5477C43.7514 8.15017 47.7197 4.03502 50.2997 2.98181Z" fill="#FE8F7A"/>
<path d="M8.51036 27.5309C8.21289 26.6794 7.92917 25.8232 7.65941 24.9625C6.91698 22.5447 4.40337 9.69896 8.27544 8.83647C12.2873 7.94285 18.2954 10.9958 21.7681 12.9816C23.3788 12.0427 26.6219 10.7022 28.5039 10.782C28.5543 11.6488 28.6214 12.9397 28.8127 13.7874L28.7884 13.8895C28.58 14.7874 28.4619 16.2825 28.3202 17.2421C27.844 20.4671 26.9867 22.5413 24.9959 25.0602C24.3043 24.5471 23.4733 24.2558 22.6127 24.2247C20.0499 23.4425 17.4548 25.598 16.7727 28.0165C16.4085 29.296 16.5646 30.6675 17.2071 31.8324C17.3637 32.1152 17.6142 32.4801 17.8167 32.7344C16.6711 33.8308 15.4537 34.4894 14.1345 35.3515C13.8207 35.5566 13.0758 35.9859 12.8375 36.2011C10.853 36.175 8.32834 36.4678 6.36932 36.8469C6.33006 36.7507 6.29693 36.6519 6.27013 36.5514C6.12696 36.0299 6.23208 35.1298 6.29974 34.5764C6.62081 31.954 7.23965 29.8461 8.51036 27.5309Z" fill="#FE9B01"/>
<path d="M8.5945 16.0063C8.47543 14.9038 8.09001 12.4306 9.07037 11.6165C9.29325 11.4315 9.74895 11.5358 10.032 11.5805C11.3468 11.9085 12.4441 12.2057 13.6795 12.77C15.1385 13.3359 16.6675 14.2842 17.9473 15.1859C14.9686 17.3471 12.0251 20.4283 10.4806 23.8015C9.82726 21.7604 9.13643 19.6196 8.84147 17.4921L8.5945 16.0063Z" fill="#FDB090"/>
<path d="M0.0986328 72.4774C0.127848 71.9836 0.0827705 71.1183 0.209671 70.7389L0.453533 70.7058C0.398416 72.379 0.565975 73.3607 0.912642 75.0027C2.88502 73.6849 4.92466 73.185 7.25224 73.738C10.0593 74.4045 13.3423 75.5367 14.9944 78.0601C16.9796 81.0913 16.3888 84.1185 12.9168 85.5378C15.462 85.9724 18.6184 85.8981 21.2182 85.9574C22.268 85.9825 23.6822 86.2193 24.6146 85.9895C25.2538 86.0106 25.8712 86.0547 26.5037 85.9534C26.9787 85.8118 27.6391 85.5067 28.1113 85.3049C29.2707 84.5461 28.7655 83.9539 30.241 83.8967C31.1993 85.7707 32.4419 86.3257 34.5412 86.2003C34.9156 86.0969 34.9674 86.0808 35.337 86.1902C35.4435 86.2193 35.5504 86.2474 35.6578 86.2725C36.6125 86.4984 37.5131 86.5034 38.3655 85.9815L38.94 86.0126C40.4553 85.9533 41.1742 85.7155 41.8922 84.3163C42.9188 85.6071 43.7498 86.1461 45.4651 85.9674L45.8798 85.9714C46.7798 86.2846 47.9868 86.5104 48.8618 85.9794L49.4526 85.9293C51.2654 86.1571 52.2815 85.5388 53.2103 84.0513C53.2774 84.1236 53.3451 84.1948 53.4137 84.2661C56.7496 87.7119 62.8358 87.6105 66.8364 85.4425C68.0797 84.768 68.8006 84.0754 69.7912 83.1098C70.7422 84.2882 69.6799 84.8954 68.6911 85.4123C65.9868 86.8266 62.7883 87.4148 59.8193 88.01C57.985 88.3783 56.1361 88.8752 54.2914 89.0789C48.3696 89.7344 42.3996 90.0234 36.4428 89.9983C27.4285 89.9933 18.5614 89.5015 9.74508 87.481C7.65754 86.9681 5.54843 86.5757 3.55637 85.7305C2.4486 85.2226 0.237278 84.6154 1.04677 82.9442C1.44795 82.1161 2.32542 81.6956 3.14023 81.4125C1.21775 78.7235 0.356249 75.7606 0.0986328 72.4774Z" fill="#FE9B01"/>
<path d="M0.0986328 72.4774C0.127848 71.9836 0.0827705 71.1183 0.209671 70.7389L0.453533 70.7058C0.398416 72.379 0.565975 73.3607 0.912642 75.0027C1.88608 78.9363 3.05519 81.7949 6.72788 84.0051C6.81121 84.0553 6.89534 84.1045 6.98027 84.1517L6.95086 84.4076C5.19543 83.4852 4.5267 82.7987 3.14023 81.4125C1.21775 78.7235 0.356249 75.7606 0.0986328 72.4774Z" fill="#FEEEC6"/>
<path d="M6.9801 84.1517C7.2854 84.3023 8.00554 84.6255 8.21899 84.8323C7.70365 84.7229 7.44102 84.6074 6.95068 84.4077L6.9801 84.1517Z" fill="#723F06"/>
<path d="M60.7482 44.4974C66.3232 47.866 68.4836 57.2867 66.544 63.2048C65.8389 65.0731 64.9338 66.8314 64.2988 68.7375C64.1895 69.0657 63.8096 69.943 63.7459 70.2351C63.5783 70.6275 63.4376 71.035 63.1713 71.3602C63.5909 69.133 63.0131 68.9373 62.9397 66.8363C61.2687 65.5937 59.2687 65.673 57.5604 64.3947C51.9165 60.1721 54.3349 51.6393 57.8211 46.8456L57.8824 46.7784C58.9906 45.5743 59.3637 45.3887 60.7482 44.4974Z" fill="#1D1D1D"/>
<path d="M65.4504 73.8346C66.9512 72.2377 69.1622 71.6566 71.1071 72.8018C71.4992 73.1662 71.627 73.2776 72.0782 73.5606L72.2134 73.5385C72.8166 77.0977 71.7232 80.1832 69.7915 83.11C68.8008 84.0756 68.08 84.7682 66.8367 85.4427C62.836 87.6107 56.7498 87.7121 53.414 84.2663C53.3454 84.1951 53.2776 84.1238 53.2106 84.0515C51.8385 81.9367 51.4589 79.8118 53.6317 78.1065C54.1572 77.8295 54.3982 77.7461 54.9676 77.5585C58.1727 77.5123 57.5808 80.6399 62.2557 79.855C62.9981 79.6753 63.672 79.2839 64.195 78.7268C65.4329 77.3898 65.5042 75.541 65.4504 73.8346Z" fill="#FEEEC6"/>
<path d="M0.0987109 72.4776C-0.296247 70.2684 0.579306 65.6873 1.21833 63.5421C2.39908 59.5782 6.25399 53.6214 10.0917 51.7727C11.3871 53.2672 11.7336 54.7599 11.5813 56.743C11.2252 61.3791 8.08942 65.8446 4.03423 68.0371C2.26455 68.9937 1.46108 68.6765 0.453611 70.706L0.209749 70.7391C0.0828486 71.1185 0.127926 71.9837 0.0987109 72.4776Z" fill="#FEEEC6"/>
<path d="M17.8162 32.7343C17.6137 32.4801 17.3632 32.1151 17.2066 31.8324C16.5642 30.6675 16.4081 29.296 16.7723 28.0165C17.4544 25.598 20.0494 23.4425 22.6122 24.2247C23.4728 24.2558 24.3038 24.5471 24.9954 25.0602C26.0824 25.8667 26.7209 27.1418 26.7155 28.495C26.7101 29.8482 26.0613 31.1183 24.9679 31.916C25.516 33.2574 20.0903 35.328 17.8162 32.7343Z" fill="#152638"/>
<path d="M17.8162 32.7343C17.6137 32.4801 17.3632 32.1151 17.2066 31.8324C16.5642 30.6675 16.4081 29.296 16.7723 28.0165C17.4544 25.598 20.0494 23.4425 22.6122 24.2247C20.7492 24.1574 19.0591 25.3098 18.4417 27.0685C17.8243 28.8272 18.4233 30.7828 19.9197 31.8943C21.4162 33.0059 23.462 33.0146 24.9679 31.916C25.516 33.2574 20.0903 35.328 17.8162 32.7343Z" fill="#FEFEFE"/>
<path d="M24.3456 26.6013C24.7194 26.5295 25.0835 26.7647 25.1716 27.1349C25.2597 27.5051 25.0407 27.8791 24.6745 27.9833C24.423 28.0549 24.1525 27.9828 23.9701 27.7954C23.7877 27.608 23.7229 27.3357 23.8013 27.0863C23.8798 26.8368 24.0888 26.6505 24.3456 26.6013Z" fill="#FEFEFE"/>
<path d="M38.7261 22.143C39.5787 20.923 40.6194 20.0869 42.1156 19.8308C43.4171 19.6065 44.7538 19.9231 45.8164 20.7071C47.8376 22.1744 47.8333 23.664 47.6857 25.8768C47.3319 26.7563 47.1297 27.3129 46.5123 28.0568C46.2622 28.1428 45.4154 28.416 45.2248 28.5148C42.1943 29.3556 39.488 28.2942 38.6226 25.0581C38.2658 23.7236 38.6859 23.3637 38.7261 22.143Z" fill="#152638"/>
<path d="M45.1366 22.1149C45.5178 22.1097 45.8377 22.4009 45.8681 22.7808C45.8985 23.1607 45.6289 23.4991 45.2517 23.5544C44.9846 23.5936 44.7179 23.4809 44.5598 23.2621C44.4018 23.0433 44.3787 22.7547 44.5 22.5135C44.6213 22.2723 44.8666 22.1188 45.1366 22.1149Z" fill="#FEFEFE"/>
<path d="M15.2812 38.7106C15.5227 38.5633 15.7995 38.151 16.025 37.9094C17.0923 36.7659 18.6286 36.2223 20.1761 36.2026C20.5577 37.4041 23.3248 36.4658 22.6304 38.7492C22.4175 39.4495 21.6368 40.1325 21.5586 40.471L21.6776 40.5771C20.0582 41.4908 17.2203 41.1864 15.7422 39.9897C15.6059 39.5388 15.6513 39.2344 15.3431 38.8801L15.2812 38.7106Z" fill="#FED298"/>
<path d="M27.1413 76.7714C26.919 76.1722 26.8252 75.9724 26.8988 75.3451L27.0226 75.2869C27.8461 75.87 30.135 80.6066 30.5387 81.784C30.5583 81.8412 30.2637 83.6178 30.2407 83.8968C28.7652 83.954 29.2704 84.5462 28.111 85.305C28.0057 84.6646 28.7621 83.2614 28.5369 82.5317C28.4269 82.1764 27.6228 81.6224 27.4754 81.1627L27.6182 81.0884C28.0654 81.0723 28.5375 81.2921 28.9678 81.4527C28.2252 80.3045 27.7903 78.9193 26.5884 78.1103C25.2569 77.213 23.5871 76.8778 21.999 76.9872C21.4575 77.0253 20.6256 77.0564 20.1411 76.8135L20.1167 76.663C20.6196 76.2916 21.3988 76.1922 21.9995 76.0527C24.0112 75.588 25.3068 76.0256 27.1413 76.7714Z" fill="#FED298"/>
<path d="M63.7455 70.2352C64.7664 70.5725 65.2916 72.867 65.4501 73.8346C65.5039 75.5409 65.4325 77.3898 64.1946 78.7267C63.6717 79.2838 62.9977 79.6752 62.2554 79.8549C62.9311 78.2299 62.3481 75.825 62.5835 74.0584C62.7033 73.1581 62.9626 72.2427 63.171 71.3604C63.4372 71.0352 63.578 70.6277 63.7455 70.2352Z" fill="#FECA07"/>
<path d="M38.7266 22.1431C38.6863 23.3637 38.2663 23.7236 38.6231 25.0581C39.4885 28.2942 42.1948 29.3556 45.2252 28.5148L45.2946 28.7317C45.1804 28.9795 44.924 29.157 44.6868 29.269C41.2566 30.8876 37.2997 29.0127 37.726 24.901C37.8118 24.0744 38.034 23.5499 38.28 22.7934L38.7266 22.1431Z" fill="#FEFEFE"/>
<path d="M53.6318 78.1063C53.919 76.8286 55.9751 69.7754 56.8292 69.0618L56.9555 69.1049C57.3126 70.5764 55.3592 75.8078 54.9878 77.4669L54.9677 77.5583C54.3984 77.746 54.1573 77.8293 53.6318 78.1063Z" fill="#FED298"/>
<path d="M12.8372 36.2012C13.7519 36.2433 14.6163 36.1971 15.4222 36.6314L15.4297 36.7533C14.813 36.9764 12.5438 36.783 11.7035 36.7872C10.0289 36.6629 7.83495 37.0714 6.1985 37.4696C4.66294 37.9222 3.18622 38.5967 1.71582 39.0043C3.35679 37.5351 4.54397 37.7032 6.36897 36.847C8.328 36.4679 10.8527 36.1751 12.8372 36.2012Z" fill="#1D1D1D"/>
<path d="M54.7266 47.6333C55.6662 46.5242 57.1298 45.7393 58.1938 44.7295C58.5854 44.3579 59.0012 43.9953 59.4075 43.6395C59.8402 43.9227 60.3049 44.2403 60.7485 44.4975C59.364 45.3888 58.9909 45.5744 57.8827 46.7785L57.8214 46.8457L57.7529 46.7576C57.4277 46.7062 56.6347 47.123 56.2478 47.2583C55.702 47.4492 55.2951 47.5376 54.7266 47.6333Z" fill="#FED298"/>
<path d="M62.7933 29.8051L62.871 29.8237C63.6586 30.0077 66.6389 30.3366 67.0293 30.834L66.9586 30.9989C66.3504 31.2084 65.9684 30.8104 65.3903 30.6834C64.6259 30.5154 63.6945 30.354 62.913 30.3326C60.0031 30.1974 57.0922 30.2134 54.2457 30.9201C53.8998 31.0059 53.7037 31.0835 53.3364 31.0625L53.2505 30.9371C53.5086 30.6459 54.1519 30.5608 54.5241 30.4615C57.2108 29.7449 60.0296 29.715 62.7933 29.8051Z" fill="#1D1D1D"/>
<path d="M6.19824 37.4696C7.8347 37.0715 10.0286 36.663 11.7033 36.7872C10.0714 38.0787 8.34491 38.5208 6.34532 38.8311C6.263 38.4158 6.23428 37.9011 6.19824 37.4696Z" fill="#FE9B01"/>
<path d="M6.91849 42.1056C8.28307 41.5321 13.9176 38.0617 15.2811 38.7108L15.3429 38.8802C11.567 40.2657 10.5678 40.5429 6.98044 42.6686C5.85911 43.3524 4.89019 44.1997 3.75732 44.8155C4.53499 43.6658 5.77769 42.92 6.91849 42.1056Z" fill="#1D1D1D"/>
<path d="M12.0279 50.4805C12.4461 50.6577 13.1139 51.1678 13.5143 51.4388C14.1286 51.8546 16.1258 52.5592 16.4173 53.1733L16.3623 53.4097C15.9037 53.6116 14.9189 53.2193 14.4573 53.0821C13.107 52.6805 12.2584 51.7284 11.1895 51.0085L12.0279 50.4805Z" fill="#FED298"/>
<path d="M20.1758 36.2026C21.2316 36.2038 22.4929 36.4132 23.2689 37.1909C24.1392 38.0631 23.7798 39.1375 22.9345 39.8419C22.5577 40.1531 22.1332 40.4013 21.6773 40.5771L21.5583 40.471C21.6365 40.1325 22.4172 39.4495 22.6302 38.7492C23.3245 36.4658 20.5574 37.4041 20.1758 36.2026Z" fill="#FDB090"/>
<path d="M24.6143 85.9896C27.0507 85.3623 25.0006 83.1551 25.1113 82.2859C25.2175 82.2367 25.2387 82.1945 25.3382 82.2196C27.1218 82.6673 26.6189 84.8705 26.3657 85.837L26.5033 85.9535C25.8708 86.0549 25.2535 86.0107 24.6143 85.9896Z" fill="#FED298"/>
<path d="M38.3652 85.9815C38.7673 84.6636 38.2435 83.3136 38.432 82.891C38.9793 82.906 39.4177 84.0694 39.3493 84.5401C39.2769 85.04 39.1203 85.5428 38.9398 86.0126L38.3652 85.9815Z" fill="#FED298"/>
<path d="M34.541 86.2003C35.3146 85.3953 34.6579 83.7021 34.924 83.2905C35.3164 83.4331 35.4119 83.677 35.6384 84.0634C35.6539 84.9166 35.6375 85.3823 35.3369 86.1903C34.9673 86.0809 34.9155 86.0969 34.541 86.2003Z" fill="#FED298"/>
<path d="M48.8618 85.9796C49.4473 84.6105 49.0108 83.9049 49.2456 83.3067L49.4271 83.2374L49.6351 83.3629C50.2056 84.2341 49.9739 85.1194 49.4526 85.9294L48.8618 85.9796Z" fill="#FED298"/>
<path d="M45.635 83.0588C46.5798 84.3466 46.5994 84.5213 45.8799 85.9716L45.4652 85.9676C45.4509 85.0131 45.6231 84.0636 45.635 83.0588Z" fill="#FED298"/>
<path d="M48.3094 30.1106C50.1378 29.9894 51.6783 30.1748 52.3238 32.0863C51.4472 34.3251 49.9804 34.8559 47.69 35.2752C46.7926 35.3886 45.3979 35.2318 44.606 34.7334C43.6513 34.1326 43.632 32.9628 44.277 32.1117C45.2509 30.8269 46.7844 30.3792 48.3094 30.1106Z" fill="#FE8F7A"/>
<path d="M39.8717 68.9503C40.7872 69.2785 41.7518 76.9159 41.7725 78.047C41.7975 79.4221 42.1652 80.5072 41.8381 81.8993C41.4166 81.6936 40.7872 80.9097 40.4568 80.5282C39.9428 77.6686 39.8766 74.2931 39.8433 71.4044C39.8351 70.6908 39.6969 69.5807 39.8717 68.9503Z" fill="#FED298"/>
<path d="M32.2492 32.4467C31.4722 32.2359 30.0614 31.6958 29.616 30.9843C29.5062 30.8061 29.472 30.5915 29.5207 30.3879C29.8289 29.0801 33.0331 28.4289 34.1087 28.8936C36.1672 29.7827 33.2873 31.687 32.8893 32.4637C32.8421 32.3636 32.8367 32.3935 32.7086 32.3153L32.2492 32.4467Z" fill="#FE8F7A"/>
<path d="M32.2493 32.4468L32.7087 32.3153C32.8368 32.3936 32.8421 32.3637 32.8894 32.4638C33.113 33.8561 33.4946 35.1308 34.534 36.1687C35.0416 36.6756 35.6492 36.7622 35.86 37.4035L35.7459 37.4967C34.4869 37.4268 33.7865 36.3284 33.1871 35.3784C32.9789 36.0759 32.2742 38.3408 31.3907 38.3156C31.362 38.2435 31.3333 38.1713 31.3047 38.0993C31.5091 37.6855 32.2199 36.4953 32.3426 36.1088C32.7363 34.8674 32.3655 33.6537 32.2493 32.4468Z" fill="#1D1D1D"/>
<path d="M66.5437 63.2048C68.5603 64.1307 70.4269 67.0552 71.2269 69.0959C71.6343 70.212 72.2735 72.366 72.2131 73.5383L72.0779 73.5604C71.6267 73.2774 71.4989 73.166 71.1068 72.8016C69.1619 71.6564 66.9509 72.2375 65.4501 73.8345C65.2917 72.8669 64.7664 70.5724 63.7456 70.2351C63.8094 69.943 64.1893 69.0658 64.2986 68.7375C64.9336 66.8315 65.8387 65.0732 66.5437 63.2048Z" fill="#FE9B01"/>
<path d="M71.2275 69.0959C71.6349 70.2121 72.2741 72.3661 72.2137 73.5384L72.0785 73.5605C71.6273 73.2775 71.4995 73.166 71.1074 72.8017C71.2964 72.6702 71.3266 72.6029 71.4744 72.4253C71.071 71.3342 71.1603 70.2342 71.2275 69.0959Z" fill="#47381D"/>
<path d="M71.4744 72.4254C71.6165 72.6352 72.048 73.3488 72.0785 73.5606C71.6273 73.2776 71.4995 73.1662 71.1074 72.8018C71.2964 72.6703 71.3266 72.6031 71.4744 72.4254Z" fill="#FE7F03"/>
<path d="M61.2328 25.0131C62.2191 24.5802 65.1679 24.0938 66.2435 24.196L66.3722 24.398L66.3457 24.2087L66.5554 24.2951L66.5569 24.2917C66.2389 24.5395 62.1634 25.1373 61.3881 25.3258L61.072 25.3085L61.1054 25.2592L61.0518 25.1726L61.1623 25.2515L61.2128 25.0014L61.1612 25.0113L61.2328 25.0131Z" fill="#1D1D1D"/>
</svg>
