<svg width="136" height="129" viewBox="0 0 136 129" fill="none" xmlns="http://www.w3.org/2000/svg">
<path d="M50.9919 9.175C50.787 8.48202 49.0932 5.63576 49.6206 5.15615C52.5441 2.50323 60.8806 1.76918 64.6752 0.852952C72.3215 -0.99403 73.9761 -0.235138 71.6524 7.08476C74.5488 6.38374 87.138 5.64661 90.396 5.52792C95.4594 5.34356 115.074 2.86156 118.465 4.05195C119.625 7.39154 120.128 12.0423 120.725 15.6353L123.588 32.2018C125.252 41.6543 137.549 105.998 135.837 109.278C131.376 112.394 106.316 115.81 99.6156 116.849C88.7715 118.542 77.9394 120.3 67.1194 122.123L38.5384 127.044C35.9133 127.477 28.505 128.857 26.1301 129C24.7979 124.503 22.9684 122.953 19.3909 119.938C19.0564 117.218 17.3927 111.47 16.9165 109.117C14.7495 98.3564 -2.82169 26.598 0.391153 20.2775C5.69265 15.3253 41.6518 10.1155 50.9919 9.175ZM58.4936 4.35769L59.9674 7.06345C60.103 7.05079 60.2357 7.0381 60.3683 7.02542C62.5263 4.81284 64.3496 6.32693 66.9296 7.47386C67.5414 6.16773 68.6294 4.02073 68.9881 2.71768L68.4486 2.61054C65.5944 3.205 61.4261 3.96581 58.4936 4.35769Z" fill="#FE9B01"/>
<path d="M51.0987 9.95736C50.8934 9.20529 49.196 6.11632 49.7246 5.59582C52.6542 2.71668 61.0081 1.92004 64.8106 0.925685C72.4729 -1.07879 74.1311 -0.255188 71.8025 7.68889C71.3404 9.00096 71.0021 10.4284 70.0145 11.3558C68.0483 12.0563 65.62 10.0164 63.6478 11.2004C63.3186 12.5268 63.3488 13.437 62.4156 14.0826C60.8662 13.751 60.1504 12.6054 59.1779 11.3877C57.9275 14.2477 57.8369 14.5348 55.1791 16.0822C53.5965 13.9633 52.4941 12.2057 51.0987 9.95736ZM58.6161 4.72928L60.093 7.66576C60.2289 7.65202 60.3618 7.63825 60.4947 7.62448C62.6572 5.22324 64.4844 6.86643 67.0697 8.11117C67.6828 6.69366 68.7732 4.36359 69.1326 2.94942L68.5919 2.83314C65.7318 3.47829 61.5548 4.30398 58.6161 4.72928Z" fill="#1D1D1D"/>
<path d="M18.5132 32.8231L20.3552 32.5506L25.599 41.8796L23.8678 42.1357L22.6008 39.7899L18.4599 40.4025L17.9265 43.0147L16.1953 43.2709L18.5132 32.8231ZM18.7479 39.0013L21.9194 38.5321L19.727 34.4268L19.6716 34.4349L18.7479 39.0013ZM25.1014 31.8484L26.7218 31.6087L28.1848 41.497L26.5644 41.7368L25.1014 31.8484ZM37.3323 30.0672L40.6976 29.5693L40.4804 28.1013L41.8377 27.9005L42.0549 29.3685L43.6614 29.1308C43.3927 28.8451 43.0665 28.5537 42.6967 28.2546L43.5899 27.4997C44.1027 27.905 44.5125 28.2831 44.8012 28.6084L44.3677 29.0263L45.6003 28.844L45.797 30.1735L42.2516 30.698L42.3929 31.6536L45.4259 31.2049L46.5365 38.7112C46.6758 39.6529 46.2905 40.2053 45.3903 40.3385L44.4347 40.4798L43.882 39.2313L44.7627 39.1576C45.0674 39.1125 45.209 38.9217 45.1619 38.6032L45 37.5091L43.2965 37.7611L43.7166 40.6002L42.3593 40.801L41.9393 37.9619L40.3051 38.2037L40.7313 41.0844L39.4017 41.2811L38.072 32.2929L41.0357 31.8544L40.8943 30.8988L37.529 31.3967L37.3323 30.0672ZM41.2283 33.1563L39.5941 33.398L39.7621 34.5337L41.3963 34.2919L41.2283 33.1563ZM39.9465 35.7801L40.1207 36.9573L41.7549 36.7155L41.5807 35.5383L39.9465 35.7801ZM44.8156 36.2627L44.6414 35.0855L42.938 35.3375L43.1121 36.5147L44.8156 36.2627ZM44.457 33.8391L44.289 32.7034L42.5855 32.9555L42.7536 34.0911L44.457 33.8391ZM36.2298 41.6513L35.011 41.8316L34.4856 40.4799C34.8538 40.4821 35.2042 40.4585 35.5366 40.4094C35.8412 40.3643 35.9828 40.1735 35.9378 39.8688L35.528 37.099C35.0817 37.3348 34.6354 37.5707 34.185 37.7788L33.5959 36.38C34.1869 36.1652 34.7598 35.9248 35.3128 35.6448L34.8989 32.8473L33.3755 33.0726L33.1727 31.7016L34.6961 31.4762L34.3314 29.011L35.7717 28.7979L36.1364 31.2631L37.369 31.0807L37.5718 32.4518L36.3393 32.6342L36.6712 34.8777C37.0718 34.6203 37.4725 34.3629 37.869 34.0778L38.0862 35.5458C37.6876 35.8171 37.287 36.0745 36.8843 36.3181L37.4334 40.0297C37.5727 40.9714 37.1715 41.512 36.2298 41.6513ZM58.9572 36.8594C59.5943 36.7652 60.2411 36.6412 60.8879 36.5172L60.8276 37.9272L59.6643 38.0993C57.8341 38.3559 56.5728 38.3444 55.8646 38.0529C55.1445 37.7773 54.5024 37.2638 53.9542 36.524C53.7222 37.6339 53.3824 38.59 52.9391 39.4198L51.8529 38.3917C52.5955 36.81 52.9636 34.8025 52.9415 32.3574L54.3613 32.3879C54.3555 33.2096 54.3158 33.9939 54.2382 34.713C54.4864 35.2423 54.8094 35.704 55.2053 36.0842C55.5274 36.3479 55.8413 36.5562 56.1726 36.6912L55.3571 31.1792L52.5595 31.593L51.8527 26.8151L58.5695 25.8213L59.2764 30.5993L56.7697 30.9702L57.0463 32.8398L59.8854 32.4198L60.0821 33.7493L57.243 34.1693L57.6528 36.9392C58.0488 36.9372 58.4822 36.9014 58.9572 36.8594ZM50.2134 39.5541L49.0639 39.7242L48.5467 38.4279C48.8872 38.4342 49.2237 38.4127 49.5422 38.3656C49.8608 38.3184 50.0003 38.1138 49.9471 37.7537L49.5332 34.9562C49.0771 35.2218 48.617 35.4597 48.1707 35.6955L47.5996 34.3223C48.1885 34.0937 48.7573 33.8256 49.3242 33.5436L48.9 30.6768L47.3628 30.9042L47.1558 29.5054L48.6931 29.278L48.3427 26.9098L49.7415 26.7028L50.0919 29.071L51.3798 28.8805L51.5868 30.2793L50.2988 30.4698L50.6389 32.7688C51.0514 32.4955 51.4618 32.2083 51.8681 31.8935L52.0771 33.3061C51.6687 33.6071 51.2583 33.8943 50.8438 34.1537L51.3991 37.9069C51.5405 38.8625 51.1413 39.4169 50.2134 39.5541ZM57.681 29.4767L57.3675 27.3578L53.4481 27.9376L53.7616 30.0566L57.681 29.4767ZM66.1627 34.1942L66.3635 35.5514C65.2206 36.2441 63.911 36.8625 62.4049 37.3966L62.0062 36.0404C63.623 35.4898 65.0039 34.8751 66.1627 34.1942ZM62.2787 24.7772L63.6722 25.1088C63.36 26.825 62.9909 28.2524 62.563 29.3771C62.9148 29.2685 63.2806 29.1578 63.6304 29.0352C63.7803 28.5177 63.9261 27.9725 64.0816 27.3976L65.4115 27.682C64.7397 29.9326 64.1382 31.6066 63.6092 32.718C64.3345 32.455 65.0516 32.1366 65.7903 31.7726L65.9788 33.0467C64.6733 33.6928 63.4145 34.1762 62.2183 34.5088L61.6877 33.3136C61.9067 33.168 62.096 33.0126 62.2396 32.8357C62.5362 32.3531 62.8667 31.5258 63.2429 30.338C62.6776 30.5348 62.0964 30.7199 61.4896 30.9229L60.961 29.7415C61.1683 29.6118 61.3237 29.419 61.4551 29.1589C61.8206 27.8028 62.0865 26.3483 62.2787 24.7772ZM68.6396 26.2562L66.8531 26.5205L67.3633 29.969L69.1498 29.7047L68.6396 26.2562ZM69.3424 31.0065L67.5559 31.2708L68.0865 34.8578L69.8731 34.5934L69.3424 31.0065ZM71.1749 34.4008L72.9061 34.1447L72.3754 30.5578L70.6442 30.8139L71.1749 34.4008ZM70.4516 29.5121L72.1828 29.2559L71.6726 25.8075L69.9415 26.0636L70.4516 29.5121ZM73.1007 35.4604L68.2812 36.1734L68.3959 36.949L67.0803 37.1436L65.3407 25.3856L72.8331 24.2771L74.5727 36.0352L73.2155 36.236L73.1007 35.4604ZM84.6963 24.9704C84.6624 25.3151 84.6382 25.63 84.6002 25.947C84.9621 27.0539 85.3471 28.0301 85.7553 28.8754C85.8878 27.667 85.8573 26.3129 85.6935 24.8229L84.6963 24.9704ZM85.4451 30.6055C85.0134 29.7919 84.6109 28.8891 84.2357 27.8832C84.1073 28.355 83.9749 28.7992 83.8225 29.2039L82.8856 28.3235C82.8835 28.3096 82.8953 28.2937 82.8953 28.2937L78.6436 28.9228L78.4551 27.6486L82.8869 26.993L83.0139 27.8516C83.4353 26.2042 83.5835 24.1444 83.4721 21.67L84.7513 21.7072C84.7625 22.3565 84.7716 22.9921 84.7607 23.5881L87.1705 23.2316L87.3692 24.5749L86.9122 24.6425C87.179 26.9241 87.1335 28.9121 86.7618 30.6088C87.3781 31.5224 88.0607 32.214 88.7797 32.6737L88.1291 34.0154C87.4931 33.5434 86.888 32.897 86.3276 32.0741C85.9719 33.0183 85.5009 33.8523 84.9006 34.5779L83.9586 33.4719C84.6358 32.6924 85.132 31.7415 85.4451 30.6055ZM82.5305 34.1502L81.7588 33.0473C81.9106 32.9257 81.9989 32.757 82.0118 32.557L81.7106 30.5211L80.6303 30.6809L80.7225 31.3042C80.9407 32.9702 80.6978 34.294 80.0175 35.2438L78.7979 34.4618C79.3664 33.7126 79.5595 32.7216 79.393 31.5009L79.1082 29.5758L82.7782 29.0328L83.1901 31.8165C83.4517 31.4806 83.7252 31.1288 83.9945 30.7493L84.4636 31.9112C83.8582 32.7933 83.2046 33.541 82.5305 34.1502ZM79.4045 22.3001L80.5956 22.1239L81.0423 25.143L81.6101 25.059L81.274 22.7877L82.4374 22.6156L82.9537 26.1056L78.2865 26.7961L77.7702 23.3061L78.9335 23.134L79.2695 25.4053L79.8512 25.3192L79.4045 22.3001ZM76.1777 22.7775L77.4963 23.1768C77.1477 24.7427 76.377 26.2295 75.1724 27.6531L74.5223 26.3199C75.3427 25.2645 75.8892 24.0798 76.1777 22.7775ZM76.796 26.4789L78.087 26.8823C77.9766 27.3798 77.8365 27.8675 77.6646 28.3317L78.728 35.5195L77.3846 35.7182L76.5998 30.4139C76.3443 30.7914 76.0729 31.1571 75.7856 31.5109L75.1534 30.2034C75.9795 29.0905 76.5316 27.8483 76.796 26.4789ZM91.021 28.3087C90.6434 28.8174 90.2222 29.3185 89.7753 29.8375L89.0929 28.3816C90.5971 26.6873 91.5515 25.1025 91.9719 23.6392L88.7865 24.1105L88.5816 22.7256L90.4651 22.4469C90.1816 21.9652 89.8862 21.4994 89.5673 21.0654L90.881 20.4748C91.2584 21.1125 91.586 21.7008 91.8362 22.2441L93.2211 22.0392L93.4014 23.2579C93.1986 24.2786 92.8158 25.3259 92.2509 26.386C93.0227 26.7247 93.7454 27.1131 94.4367 27.5769L93.804 28.9442C93.3209 28.5487 92.8619 28.2203 92.4249 27.9453L93.224 33.3465L91.7976 33.5575L91.021 28.3087ZM99.9373 19.7011L101.099 27.5536L99.631 27.7708L98.6741 21.3032L95.3365 21.797L96.2933 28.2646L94.853 28.4777L93.6912 20.6251L99.9373 19.7011ZM101.265 31.9304L99.8804 32.1353C99.0079 32.2644 98.5089 31.857 98.3696 30.9152L98.091 29.0317C98.0037 29.3985 97.9123 29.7375 97.803 30.0509C97.2965 31.3146 96.3474 32.3608 94.9459 33.2191L93.968 32.0618C95.3279 31.2096 96.1924 30.2608 96.5634 29.2294C96.9083 28.117 96.9866 26.7326 96.8002 25.0902L96.415 22.4866L97.7999 22.2817L98.1851 24.8853C98.3095 26.0133 98.3324 27.0288 98.2538 27.9321L99.3479 27.7702L99.7372 30.4016C99.7761 30.6647 99.8935 30.7889 100.115 30.7561L100.808 30.6536C100.932 30.6352 101.019 30.5516 101.068 30.4029C101.112 30.2264 101.102 29.775 101.019 29.0231L102.426 29.2537C102.505 30.459 102.446 31.2038 102.257 31.4582C102.052 31.7007 101.722 31.8628 101.265 31.9304ZM29.0254 54.9954L29.7856 60.1334L28.3868 60.3404L27.8254 56.5457L22.7565 57.2956L23.318 61.0903L21.9192 61.2972L21.159 56.1592L29.0254 54.9954ZM30.7165 52.2685L31.1632 55.2876L29.6952 55.5048L29.4554 53.8845L20.4396 55.2183L20.6773 56.8249L19.2092 57.042L18.7646 54.0368L20.7589 53.7417C20.3543 53.2072 19.9461 52.7439 19.5441 52.3222L20.7281 51.5243C21.2296 52.0445 21.7414 52.634 22.2316 53.2691L21.7699 53.5921L24.2766 53.2213C23.8238 52.5523 23.3695 51.9685 22.8998 51.4719L24.0817 50.6602C24.5576 51.1984 25.0437 51.8058 25.5242 52.4706L24.5121 53.1864L26.7002 52.8627C27.1 52.0252 27.4223 51.1425 27.6533 50.2167L29.1714 50.5299C28.8943 51.3351 28.6146 52.0275 28.3068 52.625L30.7165 52.2685ZM24.4717 57.7919L25.8981 57.5809L26.1174 59.0628C26.1215 59.0905 26.1117 59.1202 26.1158 59.1479L27.2238 58.984L27.529 61.0475C27.5885 61.4492 27.7992 61.6303 28.1732 61.5749L30.209 61.2737C30.3752 61.2492 30.5014 61.1456 30.5779 60.9927C30.6641 60.8102 30.6616 60.3152 30.5884 59.5335L31.9814 59.7661C32.0551 61.0289 31.9836 61.7896 31.7574 62.0778C31.5409 62.3363 31.1695 62.5044 30.657 62.5802L27.9426 62.9818C26.9178 63.1335 26.3352 62.6394 26.1713 61.5315L26.0135 60.4651C25.8544 61.1113 25.5562 61.6791 25.0935 62.1862C24.3193 62.9801 22.9846 63.7154 21.0989 64.3623L20.0913 63.1952C21.981 62.576 23.2393 61.9935 23.8621 61.4202C24.4511 60.8094 24.7266 60.0894 24.6909 59.2738L24.4717 57.7919ZM38.2342 58.6004L38.435 59.9577C37.1536 60.6709 35.6778 61.3138 33.9937 61.8885L33.6047 60.5025C35.3877 59.9273 36.9369 59.3019 38.2342 58.6004ZM34.0173 49.1337L35.4842 49.4827C35.0868 51.1974 34.6464 52.6211 34.1472 53.7423L35.4521 53.3794C35.604 52.8757 35.7816 52.3541 35.953 51.791L37.3148 52.099C36.5439 54.35 35.8434 56.0246 35.2431 57.1324C36.0613 56.8274 36.8851 56.4649 37.7125 56.0311L37.9031 57.3191C36.4693 58.0549 35.0941 58.6121 33.7753 58.9771L33.2088 57.7306C33.4416 57.5829 33.6427 57.4116 33.7982 57.2188C34.1245 56.7459 34.5124 55.9243 34.9522 54.7837L33.0246 55.3378L32.4837 54.0733C32.6909 53.9436 32.8582 53.7348 33.0013 53.4589C33.4402 52.1203 33.7795 50.6832 34.0173 49.1337ZM43.8723 50.124L44.2768 51.4228L40.9257 52.3998C41.0153 52.9101 41.1147 53.3908 41.2377 53.8396L44.6479 52.7831L45.0702 54.1076L41.6068 55.1861C41.6211 55.283 41.6493 55.3779 41.6914 55.4708C41.8944 56.0776 42.1148 56.6111 42.3548 57.0851C42.8642 56.4153 43.306 55.6706 43.6842 54.8787L44.9484 55.4842C44.4153 56.5679 43.8201 57.5193 43.1629 58.3383C43.6188 58.8369 43.9942 59.0786 44.2989 59.0335C44.6035 58.9884 44.7606 58.3283 44.7701 57.0532L46.1215 57.6741C45.9683 59.5083 45.5039 60.4827 44.7007 60.6016C43.9785 60.6943 43.2502 60.3633 42.504 59.6246C42.4046 59.5261 42.3071 59.4414 42.2374 59.3527C41.3704 60.1885 40.4075 60.8546 39.3626 61.3489L38.3457 60.3105C39.507 59.7424 40.5212 59.0405 41.3862 58.1907C41.0529 57.6598 40.7668 57.0653 40.5161 56.423C40.4058 56.1563 40.3095 55.8875 40.2269 55.6167L37.9535 56.321L37.545 54.9945L39.8302 54.2743C39.7051 53.8116 39.6037 53.3171 39.5022 52.8226L37.7526 53.3362L37.3481 52.0374L39.2737 51.4695L38.8353 48.5058L40.2894 48.2906L40.6992 51.0605L43.8723 50.124ZM41.8323 48.0057C42.5755 48.5327 43.1678 48.997 43.5934 49.3869L42.5746 50.3443C42.1387 49.8851 41.5561 49.3911 40.8407 48.8601L41.8323 48.0057ZM46.9656 48.2653L51.4666 47.5994L51.3293 46.6715L52.7973 46.4543L52.9346 47.3822L57.4356 46.7163L57.6282 48.0181L53.1272 48.684L53.2543 49.5427L58.4893 48.7681L58.8991 51.538L57.4864 51.747L57.2611 50.2236L52.5246 50.9243L53.1057 51.1214C52.4675 51.7819 51.7914 52.3773 51.0952 52.9331C52.0606 52.762 52.8736 52.6134 53.5204 52.4894C53.9421 52.0874 54.3618 51.6715 54.8071 51.2376L56.0733 51.857C54.8636 53.0549 53.477 54.1092 51.8975 55.0081C53.3297 54.7396 54.7202 54.4772 56.0929 54.1892C55.8026 53.9491 55.5123 53.709 55.2241 53.4828L56.1665 52.6782C57.2794 53.5042 58.1543 54.2522 58.7892 54.9084L57.8216 55.8299C57.5688 55.556 57.3021 55.2841 57.0216 55.0142C56.0465 55.2151 55.113 55.4098 54.221 55.5984L54.5672 57.9389C54.6943 58.7976 54.3028 59.3083 53.3888 59.4436L52.1285 59.63L51.6409 58.3435C52.0231 58.3436 52.3893 58.3319 52.7355 58.2807C52.9987 58.2417 53.1167 58.0827 53.0757 57.8058L52.7909 55.8807C51.3331 56.1672 49.9841 56.4233 48.7438 56.6493L48.2624 55.4043C48.682 55.3706 49.0995 55.323 49.5011 55.2635C50.3249 54.9011 51.1698 54.394 52.0476 53.7263C51.2761 53.8687 50.4077 54.0255 49.47 54.1926L49.0373 53.181C49.2251 53.1108 49.4067 52.999 49.6119 52.8554C50.2685 52.3195 50.8893 51.7324 51.4582 51.0821L48.1483 51.5718L48.3716 53.0814L46.959 53.2903L46.5512 50.5343L51.7862 49.7598L51.6592 48.9012L47.1582 49.5671L46.9656 48.2653ZM55.634 55.8705C57.1501 56.1698 58.5442 56.6004 59.8279 57.1464L59.2757 58.3886C57.8807 57.76 56.4846 57.3156 55.0855 57.0414L55.634 55.8705ZM51.0458 56.521L52.0181 57.3537C51.0588 58.3306 49.8296 59.2059 48.3564 59.9617L47.5744 58.7895C49.0343 58.1348 50.1829 57.3846 51.0458 56.521ZM63.0475 54.4199C63.4214 54.3646 63.7625 54.4698 64.0569 54.7376C64.3374 55.0074 64.5215 55.3906 64.5932 55.8753C64.7018 56.6094 64.5744 57.2792 64.2409 57.8946C63.8915 58.4983 63.3652 58.9583 62.6757 59.2725L62.5405 58.3585C62.8939 58.1647 63.1797 57.896 63.3977 57.5524C63.584 57.1851 63.6615 56.8482 63.6123 56.5158C63.5333 56.5558 63.4267 56.5999 63.2743 56.6224C62.9696 56.6675 62.7039 56.5936 62.4655 56.4166C62.227 56.2396 62.0911 55.9908 62.046 55.6861C61.9969 55.3537 62.0687 55.0742 62.2616 54.8475C62.4386 54.609 62.7013 54.4711 63.0475 54.4199ZM78.3768 43.4341L81.382 42.9895L81.2509 42.1031L82.6635 41.8941L82.7947 42.7805L85.7861 42.3379L85.9787 43.6397L82.9873 44.0823L83.1123 44.9271L86.3668 44.4456L86.5 45.3458C86.3957 46.267 86.2201 47.1846 85.9753 48.1124L84.5032 47.9198C84.7301 47.3484 84.8912 46.716 85.0124 46.0046L78.3232 46.9943L78.1265 45.6647L81.6996 45.1361L81.5747 44.2913L78.5694 44.7359L78.3768 43.4341ZM78.8919 50.6464L80.7338 50.3738C80.0784 49.9613 79.4255 49.6617 78.771 49.4471L79.3021 48.3496C80.1012 48.5852 80.8572 48.9121 81.5562 49.3323L81.0939 50.3206L82.7142 50.0808L82.6908 49.3484L82.3015 46.717L83.7003 46.5101L84.0896 49.1414C84.1126 49.3928 84.1197 49.6323 84.1269 49.8719L87.3122 49.4006L87.5089 50.7301L84.0466 51.2424C84.0332 51.3434 84.006 51.4465 83.9906 51.5337C85.4103 51.9464 86.7515 52.498 88.0101 53.1609L87.3794 54.5421C86.1162 53.7525 84.852 53.147 83.5985 52.7097L83.422 53.0472C82.8309 54.0263 81.7541 54.879 80.2173 55.5876L79.2614 54.4836C80.7726 53.793 81.7412 53.0694 82.1947 52.3089C82.324 52.035 82.4395 51.7632 82.537 51.4657L79.0886 51.9759L78.8919 50.6464ZM80.2724 46.7766C81.014 47.0066 81.7084 47.3001 82.3598 47.6849L81.8348 48.824C81.1435 48.3602 80.4429 48.0251 79.7608 47.8147L80.2724 46.7766ZM75.3167 43.2217C76.2876 43.7573 77.1358 44.3253 77.8436 44.8999L77.0078 46.0425C76.3873 45.4833 75.5272 44.9313 74.4512 44.3545L75.3167 43.2217ZM73.9402 47.5012L77.1671 47.0238L77.9867 52.5635C78.197 52.2635 78.4054 51.9496 78.6393 51.6178L79.2643 53.0679C78.6214 53.9839 77.9226 54.809 77.1839 55.5552L76.4373 54.3353C76.642 54.0927 76.7298 53.825 76.6868 53.5342L75.9594 48.6177L74.1451 48.8861L73.9402 47.5012ZM91.5038 41.4778L93.2904 41.2135L93.1777 40.4518L94.4656 40.2612L94.5783 41.023L97.0712 40.6541L96.9565 39.8786L98.2583 39.686L98.373 40.4615L100.146 40.1993L100.314 41.3349L98.541 41.5972L98.6169 42.1096L97.315 42.3022L97.2392 41.7898L94.7464 42.1586L94.857 42.9065L93.569 43.097L93.4584 42.3491L91.6718 42.6135L91.5038 41.4778ZM92.4654 44.9161L95.6784 44.4408L95.6149 44.0114C94.7742 44.1641 93.876 44.3111 92.9343 44.4505L92.4226 43.4789C95.1647 43.0732 97.4709 42.5905 99.3293 42.0466L100.088 42.9675C99.1947 43.2412 98.1426 43.4959 96.9501 43.7573L97.0218 44.242L100.526 43.7236L100.681 44.7762L97.1775 45.2946L97.2369 45.6962L100.145 45.2659L100.717 49.1298L97.8086 49.5601L97.8762 50.0171L101.131 49.5356L101.289 50.602L98.034 51.0835L98.0934 51.4852L101.708 50.9504L101.876 52.086L93.1095 53.383L92.9415 52.2474L96.75 51.6839L96.6906 51.2823L93.3529 51.7761L93.1951 50.7097L96.5328 50.2159L96.4652 49.7589L93.6122 50.181L93.0406 46.317L95.8935 45.8949L95.8341 45.4933L92.6211 45.9687L92.4654 44.9161ZM99.244 48.3571L99.1702 47.8585L97.5914 48.0921L97.6651 48.5907L99.244 48.3571ZM96.3218 48.7894L96.248 48.2908L94.7246 48.5162L94.7983 49.0148L96.3218 48.7894ZM94.5873 47.5883L96.1107 47.3629L96.037 46.8644L94.5135 47.0898L94.5873 47.5883ZM97.3803 46.6656L97.4541 47.1642L99.0329 46.9306L98.9592 46.432L97.3803 46.6656ZM87.9626 44.0397L89.0413 43.965C89.2185 45.354 89.2629 46.7061 89.1703 47.9935L88.0311 47.8507C88.1457 46.6166 88.1275 45.3456 87.9626 44.0397ZM91.4348 43.1156C91.8993 44.1507 92.3447 45.3444 92.7989 46.6924L91.8248 47.0913C91.4788 45.9961 91.1113 44.9466 90.7083 43.9448L92.1487 53.6808L90.7361 53.8898L88.851 41.1485L90.2637 40.9395L90.6448 43.5155L91.4348 43.1156ZM113.911 40.7385L114.278 43.2175L113.1 43.3917L113.273 44.555L107.11 45.4668C107.068 45.7561 107.012 46.0474 106.952 46.311L112.948 45.4238L113.106 46.4902C112.649 47.3221 112.053 48.0754 111.335 48.776C112.515 48.9978 113.756 49.0688 115.065 49.0167L114.62 50.4128C113.009 50.4248 111.493 50.2245 110.101 49.8077C109.002 50.6071 107.792 51.225 106.471 51.6751L105.628 50.4695C106.753 50.1333 107.741 49.7324 108.574 49.2411C107.816 48.9004 107.107 48.5099 106.432 48.0579C105.839 49.6032 104.994 50.8746 103.869 51.8761L102.99 50.7183C104.353 49.4127 105.238 47.7392 105.628 45.686L103.73 45.9667L103.558 44.8034L102.367 44.9796L102.001 42.5006L104.023 42.2014C103.858 41.8578 103.685 41.5438 103.499 41.2458L104.881 40.829C105.073 41.1686 105.259 41.5657 105.449 41.9904L107.277 41.7199C107.093 41.3368 106.899 40.9833 106.696 40.6596L108.064 40.2449C108.273 40.6102 108.491 41.0308 108.704 41.5089L110.227 41.2835C110.428 40.7301 110.611 40.1511 110.751 39.5643C108.481 40.0983 105.755 40.6148 102.57 41.0861L101.914 39.8103C106.041 39.1997 109.532 38.4992 112.361 37.7268L113.268 38.8806C112.564 39.0979 111.801 39.2957 110.982 39.5018L112.239 39.7687C112.111 40.2406 111.946 40.6612 111.764 41.0561L113.911 40.7385ZM103.811 44.5962L105.805 44.3012L105.848 43.4456L107.315 43.4126L107.273 44.084L112.785 43.2685L112.635 42.2575L103.661 43.5852L103.811 44.5962ZM107.617 47.458C108.296 47.8388 109.02 48.142 109.791 48.3817C110.385 47.8977 110.891 47.3982 111.328 46.9089L107.617 47.458ZM22.9705 73.3775L21.4055 73.609L21.2068 72.2656L25.8186 71.5833L26.0173 72.9267L24.4385 73.1603L24.836 75.847L26.124 75.6565L26.3187 76.9722L25.0307 77.1627L25.4056 79.6971C25.915 79.4095 26.3967 79.1259 26.8625 78.8306L27.0817 80.3124C25.9096 81.0944 24.5512 81.8615 22.9907 82.6018L22.3442 81.1973C22.929 80.941 23.484 80.6749 24.0134 80.4267L23.5627 77.3799L22.1916 77.5827L21.9969 76.2671L23.368 76.0642L22.9705 73.3775ZM28.2243 76.3647L26.6593 76.5962L26.4503 75.1836L33.9428 74.0751L34.1518 75.4878L32.3513 75.7541L33.0767 80.6568C33.1218 80.9614 33.2433 81.1133 33.4649 81.0805L33.6588 81.0518C33.7557 81.0375 33.8306 80.9698 33.8835 80.8487C33.9502 80.7257 33.9293 80.106 33.7951 79.0079L35.204 79.2523C35.2884 80.6834 35.259 81.5368 35.1276 81.7969C34.9686 82.061 34.6408 82.2369 34.1443 82.3245L33.1748 82.4679C32.7455 82.5314 32.4065 82.4401 32.1598 82.2076C31.8675 81.9537 31.7055 81.6239 31.644 81.2084L30.8695 75.9734L29.623 76.1578L29.7665 77.1272C30.1183 79.7924 29.2023 81.9234 27.0026 83.5084L25.781 82.7126C27.7899 81.3682 28.6581 79.5839 28.3677 77.3342L28.2243 76.3647ZM26.3695 71.2895L32.9202 70.3204L33.1231 71.6914L26.5724 72.6606L26.3695 71.2895ZM40.6115 75.3387L40.0852 75.4166L39.6488 72.4667L38.07 72.7003L38.5617 76.0241L37.1907 76.227L36.5227 71.7121L40.2066 71.1671C40.2764 70.8737 40.3303 70.5685 40.3586 70.2813L35.6222 70.982L35.4377 69.7356L47.0296 68.0206L47.214 69.2671L41.7297 70.0784C41.6896 70.3816 41.6475 70.6709 41.5777 70.9642L46.6604 70.2123L47.1542 73.5499C47.2771 74.3809 46.8954 74.8619 46.0229 74.991L45.1504 75.1201L44.6418 73.9782L45.465 73.8989C45.6866 73.8661 45.7769 73.7112 45.738 73.4481L45.4655 71.6061L43.8313 71.8479L44.2657 74.784L43.0054 74.9704L42.571 72.0344L40.9091 72.2803L41.3291 75.1194L42.2267 75.2555C42.0835 75.5314 41.9542 75.8052 41.8229 76.0653L48.2628 75.1125L48.4595 76.442L46.0913 76.7924C45.7367 77.5525 45.338 78.2059 44.8912 78.7249C46.1273 78.8533 47.3834 79.0213 48.6872 79.2247L47.9514 80.5648C46.4927 80.2711 45.0581 80.0446 43.6297 79.8597C42.2348 80.8586 40.3713 81.5589 38.023 81.9488L37.099 80.8684C38.9271 80.5979 40.4218 80.1786 41.6129 79.6203C40.5214 79.5129 39.4341 79.4332 38.3785 79.377C38.7104 78.8467 39.0286 78.3185 39.319 77.7944L36.4799 78.2144L36.2832 76.8849L40.1194 76.3173L40.6115 75.3387ZM44.5124 77.026L41.0224 77.5423C40.828 77.8541 40.6453 78.1501 40.4883 78.428C41.3674 78.4395 42.2943 78.4864 43.255 78.5707C43.7793 78.0968 44.1984 77.5819 44.5124 77.026ZM54.1729 68.7611L55.6092 78.4695L54.2243 78.6744L54.1218 77.9819L52.0721 78.2852L52.234 79.3792L50.8491 79.5841L49.3533 69.4742L50.6829 69.2775C50.8235 68.5066 50.8909 67.7183 50.8849 66.9125L52.3678 66.8912C52.3261 67.6616 52.2228 68.3986 52.0678 69.0726L54.1729 68.7611ZM51.8754 76.9556L53.9251 76.6524L53.5379 74.0349L51.4882 74.3381L51.8754 76.9556ZM51.2976 73.0501L53.3473 72.7469L52.9887 70.3233L50.939 70.6265L51.2976 73.0501ZM57.1913 71.7536C58.2436 72.7443 59.0677 73.6272 59.6795 74.4141L58.635 75.3895C57.9873 74.5512 57.1453 73.6427 56.1227 72.6618L57.1913 71.7536ZM61.3052 67.7059C62.0224 72.5532 62.3957 75.5549 62.4252 76.711C62.4302 77.7009 61.8371 78.284 60.6461 78.4602C60.3691 78.5012 59.8664 78.5472 59.1381 78.5984L58.5972 77.3339C59.2127 77.2853 59.7569 77.2331 60.2139 77.1655C60.7125 77.0917 60.9624 76.7717 60.9655 76.2193C60.9503 75.5423 60.6538 73.251 60.1016 69.3276L56.7501 69.8234C56.4991 70.7097 56.1666 71.5231 55.7525 72.2637L54.7099 71.2433C55.4314 69.8062 55.8031 68.1095 55.8547 66.163L57.3078 66.132C57.28 66.9004 57.2044 67.6333 57.0951 68.3288L61.3052 67.7059ZM74.83 64.5162L75.2583 67.4107L73.8179 67.6238L73.5905 66.0865L64.8239 67.3835L65.0534 68.9346L63.6131 69.1477L63.1828 66.2394L68.1547 65.5038C67.9393 65.196 67.726 64.902 67.4891 64.6399L69.0033 64.1611C69.2228 64.4966 69.4345 64.8757 69.6504 65.2825L74.83 64.5162ZM63.6632 70.0602L67.3609 69.5131C67.3394 69.1766 67.3062 68.8561 67.2708 68.5216L67.1336 67.5937L68.5877 67.3786L68.725 68.3065C68.7603 68.6409 68.7957 68.9753 68.8151 69.298L72.4851 68.755C71.723 68.3866 70.9752 68.1151 70.2279 67.9426L70.7785 66.7856C71.7597 67.0084 72.6701 67.3266 73.5097 67.7401L73.0807 68.6669L75.5458 68.3022L75.7487 69.6733L71.4831 70.3043L71.8806 72.9911C72.7199 72.1593 73.4064 71.2511 73.9082 70.2427L75.0796 70.8903C74.3581 72.3273 73.3844 73.5895 72.1306 74.6807L72.1408 74.7499C72.1921 75.0962 72.3987 75.2496 72.7865 75.1922L74.9747 74.8685C75.1409 74.8439 75.2532 74.7424 75.3117 74.5639C75.3702 74.3854 75.3637 73.8627 75.2664 73.0138L76.6712 73.2305C76.753 74.5488 76.6877 75.351 76.4753 75.6371C76.2588 75.8956 75.9172 76.0735 75.4325 76.1452L72.5657 76.5694C71.6516 76.7046 71.068 76.3947 70.8466 75.6632C70.1756 76.1021 69.4728 76.5175 68.7223 76.8974L67.948 75.6816C68.9396 75.2094 69.824 74.6823 70.5873 74.1023L70.0566 70.5154L68.8656 70.6916C68.8628 72.1072 68.6886 73.3218 68.3314 74.3512C67.7844 75.819 66.7193 77.038 65.166 78.0179L64.1942 76.9021C65.6999 75.8869 66.6526 74.7694 67.0483 73.522C67.2603 72.7548 67.3707 71.8751 67.3976 70.9088L63.866 71.4313L63.6632 70.0602ZM82.5027 62.2347L83.9132 62.394C83.8669 63.0377 83.8145 63.6398 83.7441 64.2163L88.9791 63.4418C89.6922 68.2614 90.0614 71.2353 90.0868 72.3638C90.0969 73.5794 89.3956 74.2917 87.9829 74.5007C87.789 74.5294 87.4249 74.555 86.9201 74.5872L86.3972 73.3484C86.8465 73.3244 87.2246 73.2967 87.5569 73.2476C88.291 73.139 88.6629 72.6877 88.661 71.9096C88.6478 71.2464 88.3513 68.9551 87.7991 65.0316L87.3005 65.1054C87.3375 67.3643 87.1982 69.1964 86.8645 70.5761C86.4446 72.1384 85.6857 73.6093 84.6114 74.9571L83.5412 73.9407C84.5252 72.7479 85.202 71.4873 85.5813 70.1291C85.8918 68.8802 86.0363 67.2738 86.0126 65.296L85.3201 65.3984C85.1728 68.4205 84.4538 70.7347 83.145 72.3152L82.0573 71.3723C83.2188 70.0399 83.8824 68.1161 84.0321 65.589L83.4505 65.675C83.2251 66.5433 82.9259 67.2952 82.5509 67.9168L81.3651 67.1723C82.064 65.9651 82.4418 64.3099 82.5027 62.2347ZM78.4661 67.0917C78.4516 67.7591 78.4212 68.4146 78.3591 69.0465L77.0317 68.8749C77.1904 67.3654 77.1707 65.7974 76.9885 64.1827L78.2908 64.0891C78.3409 64.6194 78.3911 65.1498 78.4274 65.6822L79.0229 65.5941L78.6193 62.8658L80.0319 62.6568L80.4356 65.3851L81.3773 65.2458L81.5822 66.6307L80.6405 66.7701L81.0503 69.5399C81.3206 69.3584 81.5909 69.1769 81.8751 68.9933L82.0759 70.3505C81.7917 70.5341 81.5193 70.7018 81.249 70.8833L81.9252 75.4535L80.5125 75.6625L79.9204 71.6601C79.33 71.9739 78.7257 72.2897 78.1034 72.5799L77.5503 71.2324C78.2894 70.9673 79.0066 70.649 79.7175 70.289L79.2278 66.9791L78.4661 67.0917ZM97.4838 66.401C97.105 67.8581 96.2682 69.1849 94.9713 70.3674L93.8277 69.3337C95.1579 68.0896 95.9429 66.6997 96.1689 65.1661C96.2182 64.7343 96.2476 64.2629 96.261 63.7797L92.8679 64.2817L94.251 73.63L92.7968 73.8451L91.2068 63.0981L96.2341 62.3543C96.1912 61.6814 96.1164 60.9848 96.0058 60.2369L97.4876 60.0177C97.5983 60.7656 97.6751 61.476 97.716 62.1351L102.48 61.4302L103.804 70.3769C103.964 71.4571 103.547 72.0848 102.564 72.2303L100.389 72.552L99.7884 71.169L101.89 70.9289C102.222 70.8797 102.36 70.6612 102.302 70.2735L101.233 63.0441L97.7706 63.5564C97.7689 64.0237 97.7494 64.4653 97.7139 64.8951C99.2555 65.9407 100.589 67.0171 101.711 68.0965L100.756 69.3843C99.9054 68.4203 98.8095 67.422 97.4838 66.401ZM114.073 70.2445L110.998 70.6994C109.863 70.8674 109.225 70.3815 109.061 69.2736L107.907 61.4764L109.361 61.2613L110.468 68.7399C110.525 69.1277 110.776 69.2888 111.233 69.2212L113.587 68.8728C113.836 68.836 113.996 68.6708 114.066 68.3775C114.161 68.0661 114.111 67.1536 113.943 65.6359L115.382 65.89C115.564 67.8869 115.53 69.0948 115.281 69.5138C115.057 69.9149 114.655 70.1584 114.073 70.2445ZM105.985 63.1195L107.427 63.2033C107.424 65.7654 107.217 68.0037 106.807 69.9184L105.43 69.3154C105.83 67.3315 106.02 65.2655 105.985 63.1195ZM115.393 61.3738C116.459 63.1266 117.446 65.0185 118.355 67.0493L117.116 67.8554C116.135 65.623 115.113 63.6937 114.076 62.0357L115.393 61.3738ZM109.92 58.15C111.334 59.3844 112.446 60.4935 113.241 61.4657L112.159 62.4749C111.297 61.4279 110.194 60.289 108.84 59.0741L109.92 58.15ZM30.0035 90.6865L35.7509 89.8362L36.8225 97.0794L31.0751 97.9297L30.0035 90.6865ZM35.2394 96.0399L35.1185 95.2228L32.1824 95.6572L32.3033 96.4743L35.2394 96.0399ZM32.0103 94.4938L34.9464 94.0594L34.8316 93.2839L31.8956 93.7183L32.0103 94.4938ZM31.7235 92.5549L34.6595 92.1205L34.5407 91.3173L31.6046 91.7517L31.7235 92.5549ZM28.2777 95.1876L28.7489 98.3729L27.2947 98.5881L26.8296 95.4443C26.4365 96.4223 25.9383 97.3593 25.3329 98.2414L24.6038 96.9482C25.4503 95.9738 26.0983 94.9015 26.5181 93.7213L24.4546 94.0266L24.2579 92.6971L26.3768 92.3836L26.1719 90.9987L27.6261 90.7835L27.831 92.1684L29.4652 91.9267L29.6619 93.2562L28.0277 93.498L28.0892 93.9135C28.8313 94.2424 29.5816 94.6267 30.354 95.0644L29.7172 96.404C29.1623 95.9058 28.6772 95.4964 28.2777 95.1876ZM26.299 99.4147L27.7726 99.5222C27.6369 100.901 27.352 102.132 26.9158 103.201L25.5526 102.596C25.9811 101.57 26.2352 100.514 26.299 99.4147ZM34.0794 102.453L30.4925 102.983C29.4399 103.139 28.8476 102.675 28.6919 101.622L28.3026 98.9909L29.7706 98.7737L30.1148 101.1C30.164 101.433 30.3686 101.572 30.7287 101.519L33.6232 101.091C33.8171 101.062 33.9453 100.972 34.0356 100.818C34.1259 100.663 34.1435 100.207 34.0764 99.467L35.5171 99.735C35.5826 100.942 35.4952 101.691 35.2372 101.956C35.0048 102.203 34.6195 102.373 34.0794 102.453ZM31.5336 98.1591C32.2552 98.7316 32.826 99.2416 33.23 99.6771L32.1994 100.65C31.7574 100.15 31.1963 99.61 30.5163 99.0313L31.5336 98.1591ZM35.831 97.5516C36.9012 98.5679 37.7433 99.4764 38.355 100.263L37.2495 101.304C36.6116 100.436 35.7793 99.4981 34.7624 98.4597L35.831 97.5516ZM44.9864 88.0736L46.4544 87.8564L46.7577 89.9061L50.1646 89.402L50.3715 90.8008L46.9646 91.3049L47.2822 93.4515L51.0492 92.8942L51.2582 94.3068L46.771 94.9707C46.2854 96.854 45.8015 98.2701 45.3469 99.2148C46.7626 98.8355 48.1681 98.387 49.5515 97.8851C49.0987 97.2162 48.6562 96.6165 48.206 96.0604L49.5351 95.3826C50.5432 96.6486 51.4667 98.0122 52.3097 99.5008L51.0288 100.313C50.7791 99.8688 50.5335 99.4523 50.3058 99.0614C48.3037 99.7822 46.1211 100.431 43.7462 101.023L43.2412 99.8094C43.3735 99.7473 43.4643 99.6914 43.5274 99.6396C44.0312 99.0273 44.606 97.5554 45.2199 95.2001L42.2285 95.6427L42.0195 94.2301L45.8142 93.6687L45.4966 91.522L42.3667 91.9851L42.1597 90.5863L45.2897 90.1233L44.9864 88.0736ZM39.0989 89.0295C40.0877 89.5909 40.936 90.1588 41.6596 90.7452L40.7884 91.9356C40.1658 91.3625 39.3017 90.7827 38.2078 90.1804L39.0989 89.0295ZM39.2321 92.3215C40.1517 92.8931 40.9466 93.4831 41.6307 94.0895L40.7437 95.268C40.1647 94.7026 39.3677 94.0988 38.3548 93.4703L39.2321 92.3215ZM41.0584 96.0564L42.454 96.4019C42.1146 98.2211 41.6916 99.9537 41.1969 101.584L39.6484 101.162C40.2361 99.4897 40.7047 97.7787 41.0584 96.0564Z" fill="white"/>
</svg>
