<svg width="43" height="44" viewBox="0 0 43 44" fill="none" xmlns="http://www.w3.org/2000/svg">
<path d="M25.3721 17.1641L28.7222 18.3837L31.9087 18.9049L31.418 24.2354L31.5535 24.2479L38.6173 24.716L38.2109 28.141L37.8377 31.2045L34.8812 30.6589L30.91 30.2478C30.8629 30.7598 30.7908 31.5428 30.6937 32.5968C30.6296 33.6236 30.589 34.3943 30.572 34.909C30.547 35.1801 30.544 35.3772 30.5631 35.5005L31.4214 35.5795L35.4871 35.9538L39.9427 36.5462L39.2153 40.4883L38.6947 43.1738L33.6233 42.3424L27.032 41.6901L20.4734 41.1773L15.9435 40.897L15.6753 38.3666L15.5278 34.5262L20.148 34.8149L24.0865 35.0864C24.1947 33.9119 24.2901 33.0399 24.3729 32.4705C24.4838 31.2658 24.5533 30.3459 24.5814 29.7107C23.2837 29.6216 21.3671 29.4907 18.8318 29.318L18.4983 26.5083L18.2431 23.3414L23.623 23.7911L25.0276 23.8749L25.3721 17.1641ZM20.8392 1.57627L24.1519 3.20241L27.4068 4.95992L25.1715 9.44651C26.9182 9.60732 29.5397 9.83349 33.036 10.125C36.5623 10.4193 39.2153 10.6332 40.995 10.7666L40.4613 14.0887L40.0471 17.1029L26.4538 15.8059L22.0143 15.5338L17.7688 21.5665L15.1078 24.7383L15.0454 25.4159L14.2183 33.9046L13.8268 38.652L13.5975 41.6377L10.1856 40.5946L7.27421 40.0533L7.97536 33.922L8.09655 32.1109L5.64594 34.482L3.4228 31.9084L0.977372 29.7698L8.14849 22.6398L8.7696 21.8314L8.8872 19.5644C9.48398 19.68 9.94662 19.7682 10.2751 19.8288L12.9201 16.3366L13.7266 14.9986C10.3726 14.8113 7.80304 14.681 6.01786 14.6078L5.5244 11.5556L5.05588 8.23234L13.1302 8.61125L17.4752 8.92017L17.4794 8.87499L20.8392 1.57627Z" fill="black"/>
</svg>
