<svg width="46" height="46" viewBox="0 0 46 46" fill="none" xmlns="http://www.w3.org/2000/svg">
<path d="M14.3676 5.21153L16.0589 7.74857L18.3392 10.3193L15.1795 12.566L10.1403 15.6284C10.1984 15.6184 10.2445 15.6255 10.2785 15.6496L14.2689 15.3695L15.2926 18.2004L16.4982 17.904L22.0393 16.4607L21.5524 14.9288L18.9883 4.41955L22.1044 3.75083L25.1085 2.42824L25.6677 3.85804L27.7411 12.0283L28.5606 14.7148L35.118 12.9178L32.7815 10.8054L30.257 8.90476L27.9019 7.46868L29.7677 5.26427L31.7406 2.63766L35.706 4.82978L39.3913 7.743L37.4545 10.3186L35.118 12.9178L38.756 11.8904L39.4521 14.6428L40.406 18.1139L30.3177 20.5161L31.1447 23.2462L31.9666 24.9002L34.1052 20.3606L36.9709 22.1578L39.7757 23.3374L36.4389 29.7875L35.6231 31.0491C35.8913 31.392 36.1449 31.7375 36.384 32.0854L37.9296 32.9871L38.2335 32.6658L38.4229 31.1526L38.0456 28.166L41.813 29.9882L44.558 30.819L44.8493 34.0895L44.092 37.0014L42.0332 39.912L37.8833 40.3091L32.8829 37.5765L31.7209 36.2949L30.2525 37.9376L25.8061 41.8407L24.06 40.031L21.3213 37.4043L26.2659 32.7427L27.5314 31.2245L24.8202 25.093L23.8613 22.1164L17.071 23.8636C17.4114 25.1514 17.6725 26.0639 17.8543 26.6011L17.944 27.1242L21.6231 25.5513L22.8859 28.2066L24.0129 31.3788L19.0921 33.2992L19.249 34.2146L19.4742 40.5029L17.951 42.873L15.252 44.1433L12.4958 44.0323L9.9352 43.7533L10.1955 41.8689L9.98515 38.8088L11.5333 38.6781L12.5421 38.2808L12.5596 35.765L6.94129 37.8049L5.94126 35.3737L4.6772 32.4494L11.5721 29.742L10.5858 25.5584L3.72333 27.4077L3.27504 24.7923L2.51789 21.422L8.96691 19.7782C8.95197 19.691 8.92748 19.6354 8.89344 19.6113L7.78257 16.7953L4.64025 18.0967L3.05363 14.5995L2.06855 12.2555L6.27076 10.5929L10.9699 7.90286L14.3676 5.21153Z" fill="black"/>
</svg>
