<svg width="45" height="41" viewBox="0 0 45 41" fill="none" xmlns="http://www.w3.org/2000/svg">
<path d="M5.77121 28.6755L8.69236 29.2674L12.2897 29.7217L11.7373 32.5969L11.119 35.7347L10.2513 38.9774L7.63214 38.4053L4.10377 37.7311L4.9815 34.0584L5.77121 28.6755ZM23.929 2.90514L30.8781 2.28725L37.5547 2.03362L38.9298 2.6151L39.5999 10.247L40.2203 19.4708L40.5895 24.2928L38.4953 24.4103L38.4985 24.4529L31.1129 24.9755C30.6314 25.0409 29.8786 25.1129 28.8545 25.1913L30.5539 27.7653L31.705 30.4672L29.0787 31.4838L26.0945 32.8712L24.6775 30.0609L22.9945 27.7003L25.4009 26.6146L28.0437 25.2534L24.7218 25.5936L24.4657 25.6132L21.8266 25.9011L21.6305 23.3407L21.0588 15.873L19.9618 17.8027L18.7792 20.2969L16.0453 19.3473L14.7259 18.9332C14.787 19.3578 14.8502 19.9968 14.9156 20.8502L15.1671 24.136L15.3534 26.5684L12.1727 26.5114L9.16602 26.4841L8.62982 20.6018L6.76162 21.9896L4.50917 23.9648L3.03602 22.1031L1.25457 19.5783L4.13752 16.868L6.57393 14.4924L7.37184 13.7017L6.09819 13.885L1.89973 14.5498L1.53281 12.5606L0.680561 9.27783L4.7214 8.79677L7.72829 8.26609L7.67929 7.626L7.041 2.6529L10.0708 2.42093L13.4088 2.85213L13.5851 5.71447L13.6763 7.46732L18.656 6.91437L18.9898 9.59295L19.2875 12.3601L15.2796 12.7099L14.5574 12.8081L18.9488 14.103L21.0032 15.1475L20.8595 13.2699L19.9406 3.51096L23.2626 3.17078L23.9421 3.07583L23.929 2.90514ZM34.0494 28.5708L38.0553 24.8303L40.372 26.4986L42.3703 28.4917L44.0566 30.895L41.7025 32.6634L39.4633 34.2513L36.5364 31.342L36.3494 31.1417L37.248 33.3479L37.0075 35.8129L33.9179 38.0668L29.2237 38.9842L22.3765 39.2509L17.4797 37.5226L14.3101 34.2456L12.9827 28.6814L16.6856 27.7111L19.6172 26.757L20.5901 32.1766L22.9726 33.5824L27.3645 33.7612L29.6394 33.2007L30.1517 32.6035L30.2374 31.4809L33.0836 30.5333L35.0337 29.6543L34.0494 28.5708ZM32.8979 8.4852L32.6982 6.99819L29.1531 7.22669C28.1289 7.3051 27.3739 7.34859 26.8881 7.35717L26.9794 9.11002L30.0519 8.87479L32.8979 8.4852ZM33.3295 13.002L30.1291 13.247C28.8204 13.3472 27.8401 13.4366 27.1879 13.5151L27.2304 14.0699L27.2859 14.7953L30.2303 14.5699L33.3816 14.2427L33.3295 13.002ZM33.6393 18.7299L30.2682 18.988L27.7078 19.184C27.7579 19.8384 27.8102 20.3351 27.8648 20.6743L30.2118 20.4946L33.7044 20.1414L33.6393 18.7299Z" fill="black"/>
</svg>
