<svg width="39" height="37" viewBox="0 0 39 37" fill="none" xmlns="http://www.w3.org/2000/svg">
<path d="M9.47624 0L12.8456 1.26136L16.0043 2.56477L13.3089 9.92273L10.824 15.8511L9.68683 17.8273L12.635 18.542L12.5086 24.6386V30.9875L12.635 36.6636L9.13931 36.5375L6.44384 36.2011L6.48596 27.792C6.48596 25.8019 6.47192 24.3163 6.44384 23.3352L4.46436 26.3625L2.06371 24.092L0 22.3682L2.56911 17.8273L5.13823 12.2352L7.79158 5.46591L9.47624 0ZM22.7851 0.630682L27.1231 0.756818L29.7343 1.26136L29.3974 11.8989V15.8932H30.1555H35.4622L39 16.1875V19.5511L38.7473 22.1159L31.9665 21.8216C30.8434 21.8216 30.0011 21.8356 29.4395 21.8636V28.5909L29.608 37L25.8596 36.7477L22.9957 36.2432V25.1011V21.9057L14.6566 22.2841L14.4039 19.0886V16.2716L22.3218 16.0193H22.9536V7.56818L22.7851 0.630682Z" fill="black"/>
</svg>
