<svg width="46" height="43" viewBox="0 0 46 43" fill="none" xmlns="http://www.w3.org/2000/svg">
<path d="M33.0188 18.1225L35.7323 19.938L36.9317 20.8939L37.1651 18.747L33.9485 17.9629C33.3474 17.8976 32.4759 17.7884 31.334 17.6353C30.1921 17.4822 29.3222 17.3586 28.7242 17.2647L29.0061 17.4691L31.4992 18.9131L30.5509 21.2429L28.6999 25.082L25.0025 30.7189L20.2327 36.6302L17.9524 34.4273L15.9353 32.6006L20.482 27.1429L25.2369 18.9709L26.0052 17.0994C25.8907 17.087 25.7889 17.0904 25.6999 17.1097C25.6582 16.9604 25.6243 16.7395 25.5982 16.447L25.4918 15.8272C25.3592 16.2472 25.2186 16.6085 25.0699 16.9109L22.936 22.1529L20.3076 19.9556L18.143 18.2867L18.7311 16.8735C18.2413 16.8492 17.4812 16.7811 16.4507 16.6691L15.9466 21.3063L19.5739 20.3103L20.0574 23.0564L20.4662 26.4896L15.5415 27.4313C15.5097 27.4568 15.4652 27.4665 15.408 27.4603C15.3364 28.1186 15.2403 29.1364 15.1195 30.5135C15.0274 31.8937 14.9583 32.9288 14.9123 33.6189L14.425 39.3006L11.3429 38.8787L8.6369 38.1935L9.35009 31.2331L9.62547 28.6998L4.62982 29.8945L4.14541 26.7573L3.7282 23.8012L6.72726 23.3886L10.236 22.6839L10.5338 19.5449L10.8558 16.5822L8.63336 16.6447L8.54843 15.028L8.54377 15.071L6.79824 19.1388L4.14176 17.1991L2.44108 16.0585L4.40972 9.53858L5.96858 3.19136L8.61294 4.0436L11.3908 4.8669L10.3108 10.0063L10.1782 10.4263L11.471 10.5234L12.0395 4.89397L12.3877 0.891486L15.1459 1.49543L18.1861 2.3038L17.1088 10.6149C17.4554 10.6236 17.961 10.6352 18.6256 10.6495C19.2933 10.6352 19.7877 10.6165 20.1088 10.5935L20.1153 13.3312L22.3136 7.09692L23.6185 2.28611L26.0538 3.46317L29.0809 4.79145L27.8095 9.6928L27.4352 10.7382L35.5839 11.7109L43.1082 12.833L44.2367 14.0417L43.2696 24.5371L41.9664 34.127L39.7971 40.4947L37.1686 42.2943L33.3192 42.1365L30.7327 41.5512L30.9278 39.3568L30.4723 36.353L29.3793 38.0155L26.5389 40.965L24.7374 39.5527L22.0529 37.8707L23.9123 35.5531L27.3482 30.3222L30.5816 24.157L33.0188 18.1225ZM36.3324 25.6076L35.9861 26.3954L33.4854 31.8148L30.7859 35.8658L31.9555 36.2971L34.1444 36.144L35.6099 30.6555L36.3324 25.6076Z" fill="black"/>
</svg>
