<svg width="40" height="42" viewBox="0 0 40 42" fill="none" xmlns="http://www.w3.org/2000/svg">
<path d="M6.88827 7.00657L13.1914 6.55858C14.1113 6.48052 14.8 6.4076 15.2576 6.33982L15.2466 6.21046L14.7908 1.86248L19.0781 1.71584L21.4469 1.99259L21.6323 5.71204L22.7103 5.62056L31.2952 4.93552L33.9374 5.3628L36.9619 6.71315L36.8995 10.5839L36.8 16.0648L33.1871 15.4593L32.0908 15.3352L31.0546 16.9432L35.32 16.5379L35.6265 19.639L35.3872 22.9601L30.4925 23.1149L32.5785 24.154L35.1413 26.7162L32.0624 29.844L27.1374 33.7365L26.7676 33.985L27.0373 34.0924L30.5485 34.0116L32.0964 33.3157L32.6481 32.1396L32.8459 29.8643L36.4485 30.8616L39.3889 31.2202L38.9246 35.4725L37.6406 37.2319L34.9686 38.501L30.5132 39.2265L25.2341 39.4573L22.2469 39.0593L20.3114 37.7468L15.7253 40.0036L13.824 37.559L13.0366 34.933L18.6458 31.9379L18.5023 29.7351L18.0961 24.9486L18.2255 24.9376L22.1606 24.734L24.9358 25.1934L24.8791 28.1082L27.6065 25.4445L29.3676 23.1669L29.1952 23.1815L18.7707 24.1964L18.6413 24.2074L17.0458 24.3428L16.4957 26.5611L14.6595 31.5379L12.183 36.1347L8.31935 40.7623L5.77202 38.8937L2.8358 36.5369L6.35895 32.5028L8.80694 28.0821L9.83426 25.3456L3.40259 26.3257L2.74451 23.6887L2.32973 20.3362L6.2823 19.8271L11.4854 19.2118L12.042 16.5587L12.4356 13.0073L19.3834 13.5035L18.5712 18.2631L24.5074 17.5857L25.801 17.4759L24.4883 16.8489L22.2948 16.0796L23.6781 13.4431L25.1346 11.6691L27.8959 12.4772L30.1866 13.3686L30.2441 10.9749L24.4906 11.246L16.1608 11.8659C14.2371 12.0581 11.4786 12.3067 7.88508 12.6116L7.86548 13.9162L7.8344 17.1329L4.7508 17.1339L1.8214 16.9048L1.59347 11.1476L1.26781 7.30976L4.5056 7.07845L6.90291 7.17905L6.88827 7.00657Z" fill="black"/>
</svg>
