<svg width="41" height="41" viewBox="0 0 41 41" fill="none" xmlns="http://www.w3.org/2000/svg">
<path d="M13.289 2.3539L16.5309 3.30219L19.9471 5.14983L16.5573 11.0672L11.0763 18.9784L6.94826 23.9643L3.54095 21.7667L1.56064 19.604L5.64168 14.579L10.6607 7.23671L13.289 2.3539ZM27.557 26.0497L29.5154 24.4617L33.3455 22.6032L36.5196 27.2674L40.7589 34.882L37.9074 36.6011L33.9923 38.0315L32.3721 34.699L27.0004 35.7919L18.3507 37.7728L8.86766 40.0535L7.14883 37.0361L6.65181 34.161L8.52141 31.6652L13.2151 24.9657L18.7351 16.5707L22.5141 10.2225L26.7506 12.0772L29.0343 14.2538L23.8227 21.8331L19.9591 27.3168L16.6092 31.8775L24.1262 30.2256L29.2589 28.8943L27.557 26.0497Z" fill="black"/>
</svg>
