<svg width="41" height="39" viewBox="0 0 41 39" fill="none" xmlns="http://www.w3.org/2000/svg">
<path d="M24.221 20.2087L26.2548 21.2603L29.0744 23.1348L31.062 24.9637L29.1669 28.0727L27.5028 29.7644L24.2672 27.204L21.3089 25.3751L22.372 23.1348L24.221 20.2087ZM22.9267 0L27.4104 0.411489L30.1375 1.60023L28.3811 7.08675L27.6877 8.91559L30.2762 8.86987L36.7937 9.05276L39.5209 9.46424L40.9538 10.6073L41 16.7796L40.168 29.3986L39.0586 34.5193L36.9324 38.3142L34.7136 39L31.4318 38.9543L29.4442 38.5885L29.3517 36.5768L28.4735 32.5991L30.9233 32.5076L31.7554 31.8675L32.7723 28.9871L33.3732 23.5006L33.6043 15.6366L28.2886 15.1794L25.0068 15.3165L23.9899 17.4654L21.5862 21.5803L18.212 19.9343L18.0733 30.9074L17.9346 34.3822L16.363 34.5193L14.1443 34.4736L7.39572 34.4279V34.4736L2.86584 34.7479L0.554679 34.6108L0.277339 30.3587L0.0462232 18.6084L0 10.2872L0.554679 10.1958L0.184893 9.96717L2.72717 7.26964L4.85344 4.34349L6.74859 1.32591L10.2616 2.69754L12.8501 4.48066L10.354 7.95545L9.01353 9.60141L11.0474 9.55569L16.7328 9.87573L18.212 10.5615V14.1278L18.9053 12.8476L20.708 8.64127L22.372 3.42907L22.9267 0ZM11.3247 19.8886L11.2785 16.1852L7.71928 16.0023L6.88726 16.0938V16.5967V19.8886L9.93799 19.9343L11.3247 19.8886ZM11.3247 25.5123H7.44194H6.93348V26.5182L7.07215 28.7128L9.05975 28.7585L11.2322 28.6213L11.3247 25.5123Z" fill="black"/>
</svg>
